<svg width="20" height="20" viewBox="0 0 20 20" fill="none" xmlns="http://www.w3.org/2000/svg">
<g id="angular">
<g id="Vector">
<path d="M10.0001 5.66326L12.1891 10.6667H7.8111L10.0001 5.66326Z" fill="#DAD9D9"/>
<path fill-rule="evenodd" clip-rule="evenodd" d="M9.81689 0.0256507C9.93659 -0.00855024 10.0635 -0.00855024 10.1832 0.0256507L19.5165 2.69232C19.8293 2.78167 20.0319 3.08368 19.996 3.40695L18.6626 15.407C18.6377 15.6317 18.5004 15.8285 18.2982 15.9296L10.2982 19.9296C10.1105 20.0235 9.88958 20.0235 9.70189 19.9296L1.70189 15.9296C1.49963 15.8285 1.36242 15.6317 1.33745 15.407L0.00411326 3.40695C-0.0318062 3.08368 0.170806 2.78167 0.483555 2.69232L9.81689 0.0256507ZM10.0001 2.33673L15.2775 14.3994L14.056 14.9339L12.7724 12H7.22777L5.9442 14.9339L4.72266 14.3994L10.0001 2.33673Z" fill="#DAD9D9"/>
</g>
</g>
</svg>
