<svg width="30" height="30" viewBox="0 0 30 30" fill="none" xmlns="http://www.w3.org/2000/svg">
<g id="icons8-django 1">
<path id="Vector" d="M13.7505 3.75V10.1978C13.3167 10.0215 12.3807 10 11.9194 10C8.44943 10 5.2373 11.6325 5.2373 16.25C5.2373 21.775 9.58799 22.5 12.5005 22.5C13.6505 22.5 16.2505 22.3864 17.5005 22.0239V3.75H13.7505ZM20.0005 3.75V7.5H23.7505V3.75H20.0005ZM20.0005 10V20.8765C20.0005 22.7715 18.848 24.744 16.2505 25.8765L19.8247 27.4951C23.4572 26.2451 23.7505 22.1265 23.7505 20.8765V10H20.0005ZM12.4639 13.1885C12.8639 13.1885 13.313 13.2618 13.7505 13.3618V19.2407C13.313 19.3407 12.8639 19.4165 12.4639 19.4165C10.8264 19.4165 9.23877 18.9 9.23877 16.25C9.23877 13.6 10.8264 13.1885 12.4639 13.1885Z" fill="#fff"/>
</g>
</svg>
