<svg width="29" height="26" viewBox="0 0 29 26" fill="none" xmlns="http://www.w3.org/2000/svg">
<path d="M22.1865 16.0877C22.0457 16.1342 21.9012 16.1791 21.7539 16.2226C21.4279 15.1937 20.988 14.0995 20.4498 12.9691C20.9635 11.8655 21.3863 10.7854 21.7032 9.76303C21.9666 9.83918 22.2224 9.91931 22.4688 10.004C24.8521 10.822 26.3058 12.0317 26.3058 12.9637C26.3058 13.9565 24.7356 15.2454 22.1865 16.0877Z" fill="#fff"/>
<path d="M21.1287 18.1778C21.3865 19.476 21.4233 20.6498 21.2525 21.5674C21.0991 22.3918 20.7907 22.9415 20.4093 23.1616C19.5977 23.6302 17.8618 23.0212 15.9901 21.4149C15.7754 21.2308 15.5592 21.0342 15.3424 20.8262C16.0681 20.0347 16.7934 19.1145 17.5012 18.0927C18.7463 17.9825 19.9226 17.8024 20.9893 17.5565C21.0418 17.7679 21.0885 17.9751 21.1287 18.1778Z" fill="#fff"/>
<path d="M10.4317 23.0807C9.63875 23.36 9.00719 23.3679 8.62547 23.1485C7.81302 22.6813 7.47541 20.8776 7.936 18.4583C7.99077 18.1724 8.05349 17.8881 8.12407 17.6056C9.17895 17.8383 10.3467 18.0057 11.5948 18.1066C12.3073 19.1065 13.0535 20.0256 13.8055 20.8304C13.6457 20.9846 13.4821 21.1348 13.3148 21.2809C12.3156 22.152 11.3141 22.7699 10.4317 23.0807Z" fill="#fff"/>
<path d="M6.71675 16.0816C5.46092 15.6535 4.42382 15.0973 3.71292 14.4903C3.07418 13.9448 2.75161 13.4032 2.75161 12.9637C2.75161 12.0286 4.14981 10.8357 6.48173 10.025C6.77442 9.9237 7.07002 9.83095 7.36815 9.74689C7.69049 10.7922 8.11324 11.8852 8.62341 12.9904C8.10663 14.1121 7.67784 15.2224 7.35254 16.28C7.13901 16.2191 6.92702 16.1529 6.71675 16.0816Z" fill="#fff"/>
<path d="M7.9621 7.62873C7.47803 5.16198 7.79945 3.30126 8.60837 2.83435C9.47006 2.33698 11.3752 3.04621 13.3833 4.82419C13.5117 4.93785 13.6406 5.05685 13.7697 5.17994C13.0216 5.98112 12.2822 6.89324 11.5758 7.88731C10.3646 7.99926 9.20506 8.17907 8.13911 8.41991C8.07345 8.15767 8.01443 7.89394 7.9621 7.62873Z" fill="#fff"/>
<path d="M19.0714 10.3642C18.8196 9.9305 18.5585 9.50228 18.2882 9.07982C19.11 9.18325 19.8973 9.32078 20.6366 9.48911C20.4147 10.1985 20.138 10.9402 19.8123 11.7006C19.5743 11.2502 19.3273 10.8047 19.0714 10.3642Z" fill="#fff"/>
<path d="M14.541 5.96396C15.0485 6.51214 15.5567 7.12431 16.0566 7.78842C15.0426 7.74064 14.0268 7.74041 13.0127 7.78774C13.513 7.12977 14.0256 6.51851 14.541 5.96396Z" fill="#fff"/>
<path d="M9.9816 10.3717C9.72895 10.8087 9.48656 11.2515 9.25464 11.6998C8.93424 10.942 8.66012 10.197 8.43626 9.47752C9.17109 9.3135 9.9547 9.1795 10.7711 9.07778C10.4978 9.50285 10.2346 9.93427 9.9816 10.3717Z" fill="#fff"/>
<path d="M10.7946 16.9279C9.95117 16.834 9.1557 16.7068 8.4211 16.5474C8.64849 15.8152 8.92865 15.0541 9.25589 14.2801C9.4888 14.7287 9.73225 15.1718 9.98605 15.609C10.245 16.055 10.5146 16.4947 10.7946 16.9279Z" fill="#fff"/>
<path d="M14.5715 20.0409C14.05 19.4798 13.5299 18.8592 13.0219 18.1917C13.515 18.211 14.0178 18.2208 14.5287 18.2208C15.0537 18.2208 15.5727 18.2091 16.0834 18.1863C15.5819 18.866 15.0755 19.4875 14.5715 20.0409Z" fill="#fff"/>
<path d="M19.8228 14.2406C20.167 15.0231 20.4572 15.78 20.6876 16.4998C19.9408 16.6698 19.1347 16.8066 18.2852 16.9082C18.5574 16.4779 18.821 16.0422 19.0758 15.6014C19.3349 15.1534 19.5839 14.6997 19.8228 14.2406Z" fill="#fff"/>
<path fill-rule="evenodd" clip-rule="evenodd" d="M18.1227 15.0533C17.7326 15.7291 17.3205 16.3921 16.8872 17.0412C16.1231 17.0956 15.3334 17.1237 14.5287 17.1237C13.7273 17.1237 12.9477 17.0988 12.1969 17.0503C11.7523 16.4027 11.3325 15.7386 10.9382 15.0593C10.5458 14.3837 10.1793 13.6934 9.83947 12.99C10.1785 12.2865 10.5439 11.5958 10.9349 10.9196C11.3259 10.2433 11.7424 9.58222 12.1837 8.93741C12.9496 8.87967 13.735 8.84943 14.5288 8.84943C15.3262 8.84943 16.1126 8.87989 16.8783 8.93809C17.3151 9.58191 17.729 10.2409 18.1192 10.9138C18.5116 11.5885 18.8819 12.2758 19.2295 12.9745C18.8855 13.6803 18.5163 14.3737 18.1227 15.0533ZM16.8285 12.9637C16.8285 11.6972 15.799 10.6704 14.5288 10.6704C13.2587 10.6704 12.229 11.6972 12.229 12.9637C12.229 14.2303 13.2587 15.2571 14.5288 15.2571C15.799 15.2571 16.8285 14.2303 16.8285 12.9637Z" fill="#fff"/>
<path d="M20.3924 2.80173C21.2548 3.29774 21.5903 5.2978 21.0484 7.92072C21.0129 8.09159 20.9743 8.2618 20.9326 8.43128C19.8641 8.18543 18.7038 8.00244 17.489 7.88878C16.7813 6.88392 16.0481 5.97021 15.312 5.17937C15.5049 4.99394 15.7024 4.81332 15.9042 4.63767C17.8057 2.98756 19.5827 2.33607 20.3924 2.80173Z" fill="#fff"/>
<path fill-rule="evenodd" clip-rule="evenodd" d="M5.51015 18.3252C2.13861 17.1759 0 15.1372 0 12.9533C0 10.8286 2.25236 8.94131 5.51015 7.80869C4.8347 4.36628 5.363 1.59242 7.2145 0.523679C9.13472 -0.584729 11.7819 0.161446 14.5425 2.60558C17.196 0.302838 19.8696 -0.625988 21.7228 0.439685C23.6451 1.54502 24.2762 4.20318 23.5313 7.83267C26.8575 8.9745 29 10.82 29 12.9533C29 15.166 27.0357 16.9044 23.5239 18.0622C24.2158 21.5476 23.6394 24.4566 21.7439 25.5508C19.8997 26.6154 17.2568 25.7322 14.6418 23.4881C11.959 25.8267 9.13256 26.582 7.23535 25.4908C5.38956 24.4294 4.83687 21.7051 5.51015 18.3252ZM21.9979 8.70599C22.2764 8.78587 22.5529 8.87273 22.827 8.9665C25.6086 9.92135 27.4061 11.4171 27.4061 12.9637C27.4061 14.5766 25.4852 16.1536 22.5326 17.1291C22.3766 17.1807 22.2167 17.2302 22.0537 17.2782C22.1118 17.5114 22.1637 17.7404 22.2081 17.9647C22.791 20.9006 22.3421 23.3137 20.9607 24.1112C19.6231 24.8832 17.4614 24.1248 15.2725 22.2466C15.0346 22.0419 14.8024 21.8307 14.5763 21.6131C14.3968 21.7863 14.2175 21.9514 14.0389 22.1071C11.7791 24.0768 9.45847 24.894 8.07577 24.099C6.73707 23.3289 6.31637 21.0827 6.85504 18.2537C6.9139 17.9463 6.98137 17.6405 7.05736 17.3368C6.82344 17.2702 6.59123 17.1979 6.36094 17.1197C3.52077 16.1518 1.65149 14.5554 1.65149 12.9637C1.65149 11.4227 3.39288 9.93692 6.11952 8.989C6.42431 8.88307 6.74288 8.78351 7.07274 8.69008C7.00208 8.40819 6.93861 8.12456 6.8824 7.83945C6.31739 4.96046 6.71496 2.65965 8.05719 1.88484C9.45699 1.07683 11.7882 1.94451 14.114 4.00379C14.2587 4.13216 14.4009 4.2632 14.5407 4.39682C14.7495 4.19586 14.9633 4.00019 15.182 3.81C17.4012 1.88427 19.5985 1.07865 20.942 1.85131C22.3433 2.65693 22.7536 5.10424 22.126 8.14213C22.0868 8.33085 22.0441 8.51884 21.9979 8.70599Z" fill="#fff"/>
</svg>
