<svg width="23" height="23" viewBox="0 0 23 23" fill="none" xmlns="http://www.w3.org/2000/svg">
<g id="vue">
<g id="Vector">
<path d="M4.16596 1.53333H0.766667C0.49215 1.53333 0.238584 1.6801 0.101858 1.91815C-0.0348683 2.15619 -0.0338848 2.44917 0.104436 2.68629L10.8378 21.0863C10.9752 21.3218 11.2273 21.4667 11.5 21.4667C11.7727 21.4667 12.0248 21.3218 12.1622 21.0863L22.8956 2.68629C23.0339 2.44917 23.0349 2.15619 22.8981 1.91815C22.7614 1.6801 22.5078 1.53333 22.2333 1.53333H18.8341L11.5001 13.7568L4.16596 1.53333Z" fill="#fff"/>
<path d="M17.046 1.53333H12.5595L11.5 3.65234L10.4405 1.53333H5.95412L11.5001 10.7765L17.046 1.53333Z" fill="#fff"/>
</g>
</g>
</svg>
