<svg width="54" height="62" viewBox="0 0 54 62" fill="none" xmlns="http://www.w3.org/2000/svg">
<g id="Layer_9">
<path id="Vector" d="M50.9138 39.6648C45.0723 37.3149 39.3834 34.6209 33.8149 31.6991C33.387 31.4712 32.9613 31.2411 32.5356 31.0068C38.4804 27.756 44.6315 24.8879 50.9138 22.3358C53.7024 21.2909 54.7021 17.623 52.7951 15.3182C51.2385 13.3725 48.4005 13.0543 46.4547 14.6109C41.499 18.4959 36.3218 22.0757 31.007 25.4361C30.5963 25.6941 30.1835 25.9457 29.7686 26.1972C29.9277 19.4226 30.5189 12.663 31.4477 5.94636C31.9379 3.00946 29.259 0.30906 26.3092 0.80786C23.9313 1.16906 22.2694 3.32551 22.4951 5.69051C24.1786 13.1596 25.1461 20.8631 25.3009 28.7385C25.3073 29.061 25.3138 29.3835 25.3181 29.706C25.3224 30.0737 25.3245 30.4392 25.3267 30.8068C25.3267 30.8713 25.3267 30.9358 25.3267 31.0003C25.3267 31.0605 25.3267 31.1186 25.3267 31.1788C25.3267 31.1831 25.3267 31.1874 25.3267 31.1917C25.3267 31.5851 25.3224 31.9786 25.3181 32.372C25.3181 32.4279 25.3181 32.486 25.3159 32.5419C25.3159 32.6859 25.3116 32.8278 25.3095 32.9719C25.1719 40.9484 24.2022 48.7486 22.4973 56.3101C22.2737 58.6751 23.9335 60.8316 26.3114 61.1927C29.2612 61.6915 31.9401 58.9933 31.4499 56.0543C30.5211 49.342 29.9298 42.5867 29.7707 35.8163C35.5542 39.338 41.1098 43.2295 46.4569 47.3898C48.7552 49.2839 52.4317 48.3121 53.4745 45.5085C54.3818 43.1887 53.238 40.57 50.916 39.6627L50.9138 39.6648Z" fill="#F26A1B"/>
<path id="Vector_2" d="M12.4967 35.5345C11.7206 35.8978 10.9423 36.2547 10.1597 36.6052C7.80756 37.6608 5.45331 38.71 3.05606 39.6625C0.278257 40.7117 -0.717194 44.3645 1.17911 46.6672C2.72926 48.6172 5.56726 48.9397 7.51731 47.3874C8.19241 46.8499 8.87611 46.3296 9.56411 45.8093C10.2543 45.2955 10.9401 44.7795 11.6346 44.2764C13.0192 43.2637 14.4081 42.2554 15.8142 41.275C19.0736 38.8756 16.2377 33.9048 12.4967 35.5302V35.5345Z" fill="#F26A1B"/>
<path id="Vector_3" d="M15.8122 20.7219C15.1092 20.2317 14.4104 19.735 13.716 19.2341C11.6262 17.7248 9.5407 16.2112 7.51539 14.6116C5.21919 12.7282 1.55559 13.6957 0.510694 16.4885C-0.403056 18.8062 0.736444 21.4249 3.05414 22.3387C3.85609 22.6547 4.65159 22.988 5.44279 23.3212C6.23184 23.6609 7.02305 23.9985 7.80565 24.3489C9.37515 25.0412 10.9425 25.74 12.4948 26.4688C16.2014 28.0921 19.091 23.1514 15.8122 20.724V20.7219Z" fill="#F26A1B"/>
</g>
</svg>
