<svg width="686" height="415" viewBox="0 0 686 415" fill="none" xmlns="http://www.w3.org/2000/svg">
<g clip-path="url(#clip0_3231_6058)">
<rect width="686" height="414.73" rx="9" fill="#252020"/>
<g filter="url(#filter0_f_3231_6058)">
<ellipse cx="343" cy="207" rx="248" ry="51" fill="#F26A1B"/>
</g>
<g opacity="0.1">
<path d="M684.658 181.709C646.425 166.328 609.192 148.697 572.746 129.573C569.946 128.082 567.16 126.576 564.373 125.042C603.281 103.766 643.541 84.9941 684.658 68.2911C702.909 61.4522 709.452 37.446 696.971 22.3611C686.783 9.62628 668.208 7.54368 655.473 17.7316C623.038 43.1591 589.154 66.5884 554.368 88.5824C551.681 90.271 548.979 91.9174 546.263 93.5638C547.304 49.224 551.174 4.98264 557.253 -38.9772C560.461 -58.1991 542.928 -75.8732 523.622 -72.6085C508.059 -70.2445 497.181 -56.1306 498.659 -40.6518C509.677 8.2332 516.009 58.652 517.022 110.196C517.064 112.307 517.107 114.418 517.135 116.529C517.163 118.935 517.177 121.327 517.191 123.733C517.191 124.156 517.191 124.578 517.191 125C517.191 125.394 517.191 125.774 517.191 126.168C517.191 126.196 517.191 126.224 517.191 126.252C517.191 128.827 517.163 131.403 517.135 133.978C517.135 134.343 517.135 134.723 517.121 135.089C517.121 136.032 517.093 136.961 517.078 137.904C516.178 190.109 509.832 241.161 498.673 290.652C497.209 306.13 508.073 320.244 523.636 322.608C542.942 325.873 560.475 308.213 557.267 288.977C551.188 245.045 547.318 200.832 546.277 156.52C584.13 179.57 620.491 205.04 655.487 232.268C670.53 244.665 694.593 238.305 701.417 219.956C707.356 204.772 699.869 187.633 684.672 181.695L684.658 181.709Z" fill="#F26A1B" fill-opacity="0.7"/>
<path d="M433.221 154.675C428.141 157.053 423.047 159.389 417.925 161.682C402.53 168.592 387.122 175.459 371.432 181.692C353.252 188.559 346.736 212.467 359.148 227.538C369.293 240.301 387.868 242.412 400.631 232.252C405.049 228.734 409.524 225.329 414.027 221.923C418.544 218.56 423.033 215.183 427.578 211.89C436.64 205.262 445.731 198.663 454.933 192.246C476.266 176.542 457.705 144.008 433.221 154.647V154.675Z" fill="#F26A1B" fill-opacity="0.7"/>
<path d="M454.92 57.7251C450.319 54.5168 445.745 51.2662 441.2 47.9875C427.523 38.1092 413.873 28.2028 400.618 17.7334C385.589 5.40666 361.611 11.7389 354.772 30.018C348.792 45.1873 356.25 62.3266 371.419 68.307C376.668 70.3756 381.874 72.5567 387.053 74.7378C392.217 76.9611 397.395 79.1703 402.517 81.464C412.79 85.9951 423.048 90.5684 433.208 95.3387C457.467 105.963 476.38 73.6261 454.92 57.7392V57.7251Z" fill="#F26A1B" fill-opacity="0.7"/>
</g>
<path d="M34.8295 375H32.6136L39.0227 357.545H41.2045L47.6136 375H45.3977L40.1818 360.307H40.0455L34.8295 375ZM35.6477 368.182H44.5795V370.057H35.6477V368.182ZM58.3097 369.648V361.909H60.321V375H58.3097V372.784H58.1733C57.8665 373.449 57.3892 374.014 56.7415 374.48C56.0938 374.94 55.2756 375.17 54.2869 375.17C53.4688 375.17 52.7415 374.991 52.1051 374.634C51.4688 374.27 50.9688 373.724 50.6051 372.997C50.2415 372.264 50.0597 371.341 50.0597 370.227V361.909H52.071V370.091C52.071 371.045 52.3381 371.807 52.8722 372.375C53.4119 372.943 54.0994 373.227 54.9347 373.227C55.4347 373.227 55.9432 373.099 56.4602 372.844C56.983 372.588 57.4205 372.196 57.7727 371.668C58.1307 371.139 58.3097 370.466 58.3097 369.648ZM69.6982 361.909V363.614H62.9141V361.909H69.6982ZM64.8913 358.773H66.9027V371.25C66.9027 371.818 66.9851 372.244 67.1499 372.528C67.3203 372.807 67.5362 372.994 67.7976 373.091C68.0646 373.182 68.3459 373.227 68.6413 373.227C68.8629 373.227 69.0447 373.216 69.1868 373.193C69.3288 373.165 69.4425 373.142 69.5277 373.125L69.9368 374.932C69.8004 374.983 69.6101 375.034 69.3658 375.085C69.1214 375.142 68.8118 375.17 68.4368 375.17C67.8686 375.17 67.3118 375.048 66.7663 374.804C66.2266 374.56 65.7777 374.188 65.4197 373.688C65.0675 373.188 64.8913 372.557 64.8913 371.795V358.773ZM77.9013 375.273C76.7195 375.273 75.6825 374.991 74.7905 374.429C73.9041 373.866 73.2109 373.08 72.7109 372.068C72.2166 371.057 71.9695 369.875 71.9695 368.523C71.9695 367.159 72.2166 365.969 72.7109 364.952C73.2109 363.935 73.9041 363.145 74.7905 362.582C75.6825 362.02 76.7195 361.739 77.9013 361.739C79.0831 361.739 80.1172 362.02 81.0036 362.582C81.8956 363.145 82.5888 363.935 83.0831 364.952C83.5831 365.969 83.8331 367.159 83.8331 368.523C83.8331 369.875 83.5831 371.057 83.0831 372.068C82.5888 373.08 81.8956 373.866 81.0036 374.429C80.1172 374.991 79.0831 375.273 77.9013 375.273ZM77.9013 373.466C78.799 373.466 79.5376 373.236 80.1172 372.776C80.6967 372.315 81.1257 371.71 81.4041 370.96C81.6825 370.21 81.8217 369.398 81.8217 368.523C81.8217 367.648 81.6825 366.832 81.4041 366.077C81.1257 365.321 80.6967 364.71 80.1172 364.244C79.5376 363.778 78.799 363.545 77.9013 363.545C77.0036 363.545 76.2649 363.778 75.6854 364.244C75.1058 364.71 74.6768 365.321 74.3984 366.077C74.12 366.832 73.9808 367.648 73.9808 368.523C73.9808 369.398 74.12 370.21 74.3984 370.96C74.6768 371.71 75.1058 372.315 75.6854 372.776C76.2649 373.236 77.0036 373.466 77.9013 373.466ZM86.9034 375V361.909H88.8466V363.955H89.017C89.2898 363.256 89.7301 362.713 90.3381 362.327C90.946 361.935 91.6761 361.739 92.5284 361.739C93.392 361.739 94.1108 361.935 94.6847 362.327C95.2642 362.713 95.7159 363.256 96.0398 363.955H96.1761C96.5114 363.278 97.0142 362.741 97.6847 362.344C98.3551 361.94 99.1591 361.739 100.097 361.739C101.267 361.739 102.224 362.105 102.969 362.838C103.713 363.565 104.085 364.699 104.085 366.239V375H102.074V366.239C102.074 365.273 101.81 364.582 101.281 364.168C100.753 363.753 100.131 363.545 99.4148 363.545C98.4943 363.545 97.7813 363.824 97.2756 364.381C96.7699 364.932 96.517 365.631 96.517 366.477V375H94.4716V366.034C94.4716 365.29 94.2301 364.69 93.7472 364.236C93.2642 363.776 92.642 363.545 91.8807 363.545C91.358 363.545 90.8693 363.685 90.4148 363.963C89.9659 364.241 89.6023 364.628 89.3239 365.122C89.0511 365.611 88.9148 366.176 88.9148 366.818V375H86.9034ZM111.615 375.307C110.786 375.307 110.033 375.151 109.357 374.838C108.68 374.52 108.143 374.062 107.746 373.466C107.348 372.864 107.149 372.136 107.149 371.284C107.149 370.534 107.297 369.926 107.592 369.46C107.888 368.989 108.283 368.619 108.777 368.352C109.271 368.085 109.817 367.886 110.413 367.756C111.016 367.619 111.621 367.511 112.229 367.432C113.024 367.33 113.669 367.253 114.163 367.202C114.663 367.145 115.027 367.051 115.254 366.92C115.487 366.79 115.604 366.562 115.604 366.239V366.17C115.604 365.33 115.374 364.676 114.913 364.21C114.459 363.744 113.768 363.511 112.842 363.511C111.882 363.511 111.129 363.722 110.584 364.142C110.038 364.562 109.655 365.011 109.433 365.489L107.524 364.807C107.865 364.011 108.32 363.392 108.888 362.949C109.462 362.5 110.087 362.187 110.763 362.011C111.445 361.83 112.115 361.739 112.774 361.739C113.195 361.739 113.678 361.79 114.223 361.892C114.774 361.989 115.305 362.19 115.817 362.497C116.334 362.804 116.763 363.267 117.104 363.886C117.445 364.506 117.615 365.335 117.615 366.375V375H115.604V373.227H115.501C115.365 373.511 115.138 373.815 114.82 374.139C114.501 374.463 114.078 374.739 113.55 374.966C113.021 375.193 112.376 375.307 111.615 375.307ZM111.922 373.5C112.717 373.5 113.388 373.344 113.933 373.031C114.484 372.719 114.899 372.315 115.178 371.821C115.462 371.327 115.604 370.807 115.604 370.261V368.42C115.518 368.523 115.331 368.616 115.041 368.702C114.757 368.781 114.428 368.852 114.053 368.915C113.683 368.972 113.322 369.023 112.97 369.068C112.624 369.108 112.342 369.142 112.126 369.17C111.604 369.239 111.115 369.349 110.661 369.503C110.212 369.651 109.848 369.875 109.57 370.176C109.297 370.472 109.161 370.875 109.161 371.386C109.161 372.085 109.419 372.614 109.936 372.972C110.459 373.324 111.121 373.5 111.922 373.5ZM126.979 361.909V363.614H120.195V361.909H126.979ZM122.173 358.773H124.184V371.25C124.184 371.818 124.266 372.244 124.431 372.528C124.602 372.807 124.817 372.994 125.079 373.091C125.346 373.182 125.627 373.227 125.923 373.227C126.144 373.227 126.326 373.216 126.468 373.193C126.61 373.165 126.724 373.142 126.809 373.125L127.218 374.932C127.082 374.983 126.891 375.034 126.647 375.085C126.403 375.142 126.093 375.17 125.718 375.17C125.15 375.17 124.593 375.048 124.048 374.804C123.508 374.56 123.059 374.188 122.701 373.688C122.349 373.188 122.173 372.557 122.173 371.795V358.773ZM135.353 375.273C134.092 375.273 133.004 374.994 132.089 374.438C131.18 373.875 130.478 373.091 129.984 372.085C129.495 371.074 129.251 369.898 129.251 368.557C129.251 367.216 129.495 366.034 129.984 365.011C130.478 363.983 131.165 363.182 132.046 362.608C132.933 362.028 133.967 361.739 135.148 361.739C135.83 361.739 136.504 361.852 137.168 362.08C137.833 362.307 138.438 362.676 138.984 363.188C139.529 363.693 139.964 364.364 140.288 365.199C140.612 366.034 140.773 367.062 140.773 368.284V369.136H130.683V367.398H138.728C138.728 366.659 138.58 366 138.285 365.42C137.995 364.841 137.58 364.384 137.04 364.048C136.506 363.713 135.876 363.545 135.148 363.545C134.347 363.545 133.654 363.744 133.069 364.142C132.489 364.534 132.043 365.045 131.731 365.676C131.418 366.307 131.262 366.983 131.262 367.705V368.864C131.262 369.852 131.433 370.69 131.773 371.378C132.12 372.06 132.6 372.58 133.214 372.938C133.827 373.29 134.54 373.466 135.353 373.466C135.881 373.466 136.359 373.392 136.785 373.244C137.217 373.091 137.589 372.864 137.901 372.562C138.214 372.256 138.455 371.875 138.626 371.42L140.569 371.966C140.364 372.625 140.021 373.205 139.538 373.705C139.055 374.199 138.458 374.585 137.748 374.864C137.038 375.136 136.239 375.273 135.353 375.273ZM148.776 375.273C147.685 375.273 146.722 374.997 145.887 374.446C145.052 373.889 144.398 373.105 143.927 372.094C143.455 371.077 143.219 369.875 143.219 368.489C143.219 367.114 143.455 365.92 143.927 364.909C144.398 363.898 145.055 363.116 145.896 362.565C146.737 362.014 147.708 361.739 148.81 361.739C149.663 361.739 150.336 361.881 150.83 362.165C151.33 362.443 151.711 362.761 151.972 363.119C152.239 363.472 152.447 363.761 152.594 363.989H152.765V357.545H154.776V375H152.833V372.989H152.594C152.447 373.227 152.237 373.528 151.964 373.892C151.691 374.25 151.302 374.571 150.796 374.855C150.29 375.134 149.617 375.273 148.776 375.273ZM149.049 373.466C149.856 373.466 150.538 373.256 151.094 372.835C151.651 372.409 152.075 371.821 152.364 371.071C152.654 370.315 152.799 369.443 152.799 368.455C152.799 367.477 152.657 366.622 152.373 365.889C152.089 365.151 151.668 364.577 151.112 364.168C150.555 363.753 149.867 363.545 149.049 363.545C148.197 363.545 147.487 363.764 146.918 364.202C146.356 364.634 145.933 365.222 145.648 365.966C145.37 366.705 145.231 367.534 145.231 368.455C145.231 369.386 145.373 370.233 145.657 370.994C145.947 371.75 146.373 372.352 146.935 372.801C147.504 373.244 148.208 373.466 149.049 373.466ZM179.808 363H177.694C177.569 362.392 177.35 361.858 177.038 361.398C176.731 360.938 176.356 360.551 175.913 360.239C175.475 359.92 174.989 359.682 174.455 359.523C173.921 359.364 173.364 359.284 172.785 359.284C171.728 359.284 170.771 359.551 169.913 360.085C169.06 360.619 168.381 361.406 167.876 362.446C167.376 363.486 167.126 364.761 167.126 366.273C167.126 367.784 167.376 369.06 167.876 370.099C168.381 371.139 169.06 371.926 169.913 372.46C170.771 372.994 171.728 373.261 172.785 373.261C173.364 373.261 173.921 373.182 174.455 373.023C174.989 372.864 175.475 372.628 175.913 372.315C176.356 371.997 176.731 371.608 177.038 371.148C177.35 370.682 177.569 370.148 177.694 369.545H179.808C179.648 370.437 179.359 371.236 178.938 371.94C178.518 372.645 177.995 373.244 177.37 373.739C176.745 374.227 176.043 374.599 175.265 374.855C174.492 375.111 173.665 375.239 172.785 375.239C171.296 375.239 169.972 374.875 168.813 374.148C167.654 373.42 166.742 372.386 166.077 371.045C165.413 369.705 165.08 368.114 165.08 366.273C165.08 364.432 165.413 362.841 166.077 361.5C166.742 360.159 167.654 359.125 168.813 358.398C169.972 357.67 171.296 357.307 172.785 357.307C173.665 357.307 174.492 357.435 175.265 357.69C176.043 357.946 176.745 358.321 177.37 358.815C177.995 359.304 178.518 359.901 178.938 360.605C179.359 361.304 179.648 362.102 179.808 363ZM188.268 375.273C187.087 375.273 186.05 374.991 185.158 374.429C184.271 373.866 183.578 373.08 183.078 372.068C182.584 371.057 182.337 369.875 182.337 368.523C182.337 367.159 182.584 365.969 183.078 364.952C183.578 363.935 184.271 363.145 185.158 362.582C186.05 362.02 187.087 361.739 188.268 361.739C189.45 361.739 190.484 362.02 191.371 362.582C192.263 363.145 192.956 363.935 193.45 364.952C193.95 365.969 194.2 367.159 194.2 368.523C194.2 369.875 193.95 371.057 193.45 372.068C192.956 373.08 192.263 373.866 191.371 374.429C190.484 374.991 189.45 375.273 188.268 375.273ZM188.268 373.466C189.166 373.466 189.905 373.236 190.484 372.776C191.064 372.315 191.493 371.71 191.771 370.96C192.05 370.21 192.189 369.398 192.189 368.523C192.189 367.648 192.05 366.832 191.771 366.077C191.493 365.321 191.064 364.71 190.484 364.244C189.905 363.778 189.166 363.545 188.268 363.545C187.371 363.545 186.632 363.778 186.053 364.244C185.473 364.71 185.044 365.321 184.766 366.077C184.487 366.832 184.348 367.648 184.348 368.523C184.348 369.398 184.487 370.21 184.766 370.96C185.044 371.71 185.473 372.315 186.053 372.776C186.632 373.236 187.371 373.466 188.268 373.466ZM202.214 375.273C201.123 375.273 200.16 374.997 199.325 374.446C198.489 373.889 197.836 373.105 197.364 372.094C196.893 371.077 196.657 369.875 196.657 368.489C196.657 367.114 196.893 365.92 197.364 364.909C197.836 363.898 198.492 363.116 199.333 362.565C200.174 362.014 201.146 361.739 202.248 361.739C203.1 361.739 203.773 361.881 204.268 362.165C204.768 362.443 205.148 362.761 205.41 363.119C205.677 363.472 205.884 363.761 206.032 363.989H206.202V357.545H208.214V375H206.271V372.989H206.032C205.884 373.227 205.674 373.528 205.401 373.892C205.129 374.25 204.739 374.571 204.234 374.855C203.728 375.134 203.055 375.273 202.214 375.273ZM202.487 373.466C203.293 373.466 203.975 373.256 204.532 372.835C205.089 372.409 205.512 371.821 205.802 371.071C206.092 370.315 206.237 369.443 206.237 368.455C206.237 367.477 206.094 366.622 205.81 365.889C205.526 365.151 205.106 364.577 204.549 364.168C203.992 363.753 203.305 363.545 202.487 363.545C201.634 363.545 200.924 363.764 200.356 364.202C199.793 364.634 199.37 365.222 199.086 365.966C198.808 366.705 198.668 367.534 198.668 368.455C198.668 369.386 198.81 370.233 199.094 370.994C199.384 371.75 199.81 372.352 200.373 372.801C200.941 373.244 201.646 373.466 202.487 373.466ZM217.665 375.273C216.404 375.273 215.316 374.994 214.401 374.438C213.492 373.875 212.79 373.091 212.296 372.085C211.808 371.074 211.563 369.898 211.563 368.557C211.563 367.216 211.808 366.034 212.296 365.011C212.79 363.983 213.478 363.182 214.359 362.608C215.245 362.028 216.279 361.739 217.461 361.739C218.143 361.739 218.816 361.852 219.481 362.08C220.146 362.307 220.751 362.676 221.296 363.188C221.842 363.693 222.276 364.364 222.6 365.199C222.924 366.034 223.086 367.062 223.086 368.284V369.136H212.995V367.398H221.04C221.04 366.659 220.893 366 220.597 365.42C220.308 364.841 219.893 364.384 219.353 364.048C218.819 363.713 218.188 363.545 217.461 363.545C216.66 363.545 215.967 363.744 215.381 364.142C214.802 364.534 214.356 365.045 214.043 365.676C213.731 366.307 213.575 366.983 213.575 367.705V368.864C213.575 369.852 213.745 370.69 214.086 371.378C214.433 372.06 214.913 372.58 215.526 372.938C216.14 373.29 216.853 373.466 217.665 373.466C218.194 373.466 218.671 373.392 219.097 373.244C219.529 373.091 219.901 372.864 220.214 372.562C220.526 372.256 220.768 371.875 220.938 371.42L222.881 371.966C222.677 372.625 222.333 373.205 221.85 373.705C221.367 374.199 220.771 374.585 220.06 374.864C219.35 375.136 218.552 375.273 217.665 375.273ZM245.1 363C244.913 362.426 244.665 361.912 244.359 361.457C244.058 360.997 243.697 360.605 243.276 360.281C242.862 359.957 242.39 359.71 241.862 359.54C241.333 359.369 240.754 359.284 240.123 359.284C239.089 359.284 238.148 359.551 237.302 360.085C236.455 360.619 235.782 361.406 235.282 362.446C234.782 363.486 234.532 364.761 234.532 366.273C234.532 367.784 234.785 369.06 235.29 370.099C235.796 371.139 236.481 371.926 237.344 372.46C238.208 372.994 239.18 373.261 240.259 373.261C241.259 373.261 242.14 373.048 242.901 372.622C243.668 372.19 244.265 371.582 244.691 370.798C245.123 370.009 245.339 369.08 245.339 368.011L245.987 368.148H240.737V366.273H247.384V368.148C247.384 369.585 247.077 370.835 246.464 371.898C245.856 372.96 245.015 373.784 243.941 374.369C242.873 374.949 241.646 375.239 240.259 375.239C238.714 375.239 237.356 374.875 236.185 374.148C235.021 373.42 234.112 372.386 233.458 371.045C232.81 369.705 232.487 368.114 232.487 366.273C232.487 364.892 232.671 363.651 233.04 362.548C233.415 361.44 233.944 360.497 234.626 359.719C235.308 358.94 236.114 358.344 237.046 357.929C237.978 357.514 239.004 357.307 240.123 357.307C241.043 357.307 241.901 357.446 242.697 357.724C243.498 357.997 244.211 358.386 244.836 358.892C245.467 359.392 245.992 359.991 246.413 360.69C246.833 361.384 247.123 362.153 247.282 363H245.1ZM256.22 375.273C254.959 375.273 253.871 374.994 252.956 374.438C252.047 373.875 251.345 373.091 250.851 372.085C250.362 371.074 250.118 369.898 250.118 368.557C250.118 367.216 250.362 366.034 250.851 365.011C251.345 363.983 252.033 363.182 252.913 362.608C253.8 362.028 254.834 361.739 256.016 361.739C256.697 361.739 257.371 361.852 258.036 362.08C258.7 362.307 259.305 362.676 259.851 363.188C260.396 363.693 260.831 364.364 261.155 365.199C261.479 366.034 261.641 367.062 261.641 368.284V369.136H251.55V367.398H259.595C259.595 366.659 259.447 366 259.152 365.42C258.862 364.841 258.447 364.384 257.908 364.048C257.374 363.713 256.743 363.545 256.016 363.545C255.214 363.545 254.521 363.744 253.936 364.142C253.357 364.534 252.911 365.045 252.598 365.676C252.286 366.307 252.129 366.983 252.129 367.705V368.864C252.129 369.852 252.3 370.69 252.641 371.378C252.987 372.06 253.467 372.58 254.081 372.938C254.695 373.29 255.408 373.466 256.22 373.466C256.749 373.466 257.226 373.392 257.652 373.244C258.084 373.091 258.456 372.864 258.768 372.562C259.081 372.256 259.322 371.875 259.493 371.42L261.436 371.966C261.232 372.625 260.888 373.205 260.405 373.705C259.922 374.199 259.325 374.585 258.615 374.864C257.905 375.136 257.107 375.273 256.22 375.273ZM266.712 367.125V375H264.7V361.909H266.643V363.955H266.814C267.121 363.29 267.587 362.756 268.212 362.352C268.837 361.943 269.643 361.739 270.632 361.739C271.518 361.739 272.294 361.92 272.959 362.284C273.624 362.642 274.141 363.188 274.51 363.92C274.879 364.648 275.064 365.568 275.064 366.682V375H273.053V366.818C273.053 365.79 272.786 364.989 272.251 364.415C271.717 363.835 270.984 363.545 270.053 363.545C269.411 363.545 268.837 363.685 268.331 363.963C267.831 364.241 267.436 364.648 267.146 365.182C266.857 365.716 266.712 366.364 266.712 367.125ZM284.228 375.273C282.967 375.273 281.879 374.994 280.964 374.438C280.055 373.875 279.353 373.091 278.859 372.085C278.37 371.074 278.126 369.898 278.126 368.557C278.126 367.216 278.37 366.034 278.859 365.011C279.353 363.983 280.04 363.182 280.921 362.608C281.808 362.028 282.842 361.739 284.023 361.739C284.705 361.739 285.379 361.852 286.043 362.08C286.708 362.307 287.313 362.676 287.859 363.188C288.404 363.693 288.839 364.364 289.163 365.199C289.487 366.034 289.648 367.062 289.648 368.284V369.136H279.558V367.398H287.603C287.603 366.659 287.455 366 287.16 365.42C286.87 364.841 286.455 364.384 285.915 364.048C285.381 363.713 284.751 363.545 284.023 363.545C283.222 363.545 282.529 363.744 281.944 364.142C281.364 364.534 280.918 365.045 280.606 365.676C280.293 366.307 280.137 366.983 280.137 367.705V368.864C280.137 369.852 280.308 370.69 280.648 371.378C280.995 372.06 281.475 372.58 282.089 372.938C282.702 373.29 283.415 373.466 284.228 373.466C284.756 373.466 285.234 373.392 285.66 373.244C286.092 373.091 286.464 372.864 286.776 372.562C287.089 372.256 287.33 371.875 287.501 371.42L289.444 371.966C289.239 372.625 288.896 373.205 288.413 373.705C287.93 374.199 287.333 374.585 286.623 374.864C285.913 375.136 285.114 375.273 284.228 375.273ZM292.708 375V361.909H294.651V363.886H294.788C295.026 363.239 295.458 362.713 296.083 362.31C296.708 361.906 297.413 361.705 298.197 361.705C298.344 361.705 298.529 361.707 298.751 361.713C298.972 361.719 299.14 361.727 299.254 361.739V363.784C299.185 363.767 299.029 363.741 298.785 363.707C298.546 363.668 298.293 363.648 298.026 363.648C297.39 363.648 296.822 363.781 296.322 364.048C295.827 364.31 295.435 364.673 295.146 365.139C294.862 365.599 294.719 366.125 294.719 366.716V375H292.708ZM305.49 375.307C304.661 375.307 303.908 375.151 303.232 374.838C302.555 374.52 302.018 374.062 301.621 373.466C301.223 372.864 301.024 372.136 301.024 371.284C301.024 370.534 301.172 369.926 301.467 369.46C301.763 368.989 302.158 368.619 302.652 368.352C303.146 368.085 303.692 367.886 304.288 367.756C304.891 367.619 305.496 367.511 306.104 367.432C306.899 367.33 307.544 367.253 308.038 367.202C308.538 367.145 308.902 367.051 309.129 366.92C309.362 366.79 309.479 366.562 309.479 366.239V366.17C309.479 365.33 309.249 364.676 308.788 364.21C308.334 363.744 307.643 363.511 306.717 363.511C305.757 363.511 305.004 363.722 304.459 364.142C303.913 364.562 303.53 365.011 303.308 365.489L301.399 364.807C301.74 364.011 302.195 363.392 302.763 362.949C303.337 362.5 303.962 362.187 304.638 362.011C305.32 361.83 305.99 361.739 306.649 361.739C307.07 361.739 307.553 361.79 308.098 361.892C308.649 361.989 309.18 362.19 309.692 362.497C310.209 362.804 310.638 363.267 310.979 363.886C311.32 364.506 311.49 365.335 311.49 366.375V375H309.479V373.227H309.376C309.24 373.511 309.013 373.815 308.695 374.139C308.376 374.463 307.953 374.739 307.425 374.966C306.896 375.193 306.251 375.307 305.49 375.307ZM305.797 373.5C306.592 373.5 307.263 373.344 307.808 373.031C308.359 372.719 308.774 372.315 309.053 371.821C309.337 371.327 309.479 370.807 309.479 370.261V368.42C309.393 368.523 309.206 368.616 308.916 368.702C308.632 368.781 308.303 368.852 307.928 368.915C307.558 368.972 307.197 369.023 306.845 369.068C306.499 369.108 306.217 369.142 306.001 369.17C305.479 369.239 304.99 369.349 304.536 369.503C304.087 369.651 303.723 369.875 303.445 370.176C303.172 370.472 303.036 370.875 303.036 371.386C303.036 372.085 303.294 372.614 303.811 372.972C304.334 373.324 304.996 373.5 305.797 373.5ZM320.854 361.909V363.614H314.07V361.909H320.854ZM316.048 358.773H318.059V371.25C318.059 371.818 318.141 372.244 318.306 372.528C318.477 372.807 318.692 372.994 318.954 373.091C319.221 373.182 319.502 373.227 319.798 373.227C320.019 373.227 320.201 373.216 320.343 373.193C320.485 373.165 320.599 373.142 320.684 373.125L321.093 374.932C320.957 374.983 320.766 375.034 320.522 375.085C320.278 375.142 319.968 375.17 319.593 375.17C319.025 375.17 318.468 375.048 317.923 374.804C317.383 374.56 316.934 374.188 316.576 373.688C316.224 373.188 316.048 372.557 316.048 371.795V358.773ZM323.88 375V361.909H325.891V375H323.88ZM324.903 359.727C324.511 359.727 324.173 359.594 323.888 359.327C323.61 359.06 323.471 358.739 323.471 358.364C323.471 357.989 323.61 357.668 323.888 357.401C324.173 357.134 324.511 357 324.903 357C325.295 357 325.63 357.134 325.908 357.401C326.192 357.668 326.335 357.989 326.335 358.364C326.335 358.739 326.192 359.06 325.908 359.327C325.63 359.594 325.295 359.727 324.903 359.727ZM334.893 375.273C333.712 375.273 332.675 374.991 331.783 374.429C330.896 373.866 330.203 373.08 329.703 372.068C329.209 371.057 328.962 369.875 328.962 368.523C328.962 367.159 329.209 365.969 329.703 364.952C330.203 363.935 330.896 363.145 331.783 362.582C332.675 362.02 333.712 361.739 334.893 361.739C336.075 361.739 337.109 362.02 337.996 362.582C338.888 363.145 339.581 363.935 340.075 364.952C340.575 365.969 340.825 367.159 340.825 368.523C340.825 369.875 340.575 371.057 340.075 372.068C339.581 373.08 338.888 373.866 337.996 374.429C337.109 374.991 336.075 375.273 334.893 375.273ZM334.893 373.466C335.791 373.466 336.53 373.236 337.109 372.776C337.689 372.315 338.118 371.71 338.396 370.96C338.675 370.21 338.814 369.398 338.814 368.523C338.814 367.648 338.675 366.832 338.396 366.077C338.118 365.321 337.689 364.71 337.109 364.244C336.53 363.778 335.791 363.545 334.893 363.545C333.996 363.545 333.257 363.778 332.678 364.244C332.098 364.71 331.669 365.321 331.391 366.077C331.112 366.832 330.973 367.648 330.973 368.523C330.973 369.398 331.112 370.21 331.391 370.96C331.669 371.71 332.098 372.315 332.678 372.776C333.257 373.236 333.996 373.466 334.893 373.466ZM345.907 367.125V375H343.896V361.909H345.839V363.955H346.009C346.316 363.29 346.782 362.756 347.407 362.352C348.032 361.943 348.839 361.739 349.827 361.739C350.714 361.739 351.489 361.92 352.154 362.284C352.819 362.642 353.336 363.188 353.705 363.92C354.075 364.648 354.259 365.568 354.259 366.682V375H352.248V366.818C352.248 365.79 351.981 364.989 351.447 364.415C350.913 363.835 350.18 363.545 349.248 363.545C348.606 363.545 348.032 363.685 347.526 363.963C347.026 364.241 346.631 364.648 346.342 365.182C346.052 365.716 345.907 366.364 345.907 367.125Z" fill="white"/>
<rect x="32" y="32" width="65" height="65" rx="32.5" fill="#F26A1B"/>
<mask id="mask0_3231_6058" style="mask-type:alpha" maskUnits="userSpaceOnUse" x="34" y="34" width="61" height="61">
<rect x="34.9541" y="34.9551" width="59.0909" height="59.0909" fill="#D9D9D9"/>
</mask>
<g mask="url(#mask0_3231_6058)">
<path d="M55.8799 79.5104V49.4922L79.459 64.5013L55.8799 79.5104Z" fill="white"/>
</g>
</g>
<defs>
<filter id="filter0_f_3231_6058" x="-419" y="-358" width="1524" height="1130" filterUnits="userSpaceOnUse" color-interpolation-filters="sRGB">
<feFlood flood-opacity="0" result="BackgroundImageFix"/>
<feBlend mode="normal" in="SourceGraphic" in2="BackgroundImageFix" result="shape"/>
<feGaussianBlur stdDeviation="257" result="effect1_foregroundBlur_3231_6058"/>
</filter>
<clipPath id="clip0_3231_6058">
<rect width="686" height="414.73" rx="9" fill="white"/>
</clipPath>
</defs>
</svg>
