<svg width="686" height="415" viewBox="0 0 686 415" fill="none" xmlns="http://www.w3.org/2000/svg">
<g clip-path="url(#clip0_3231_6071)">
<rect width="686" height="414.73" rx="9" fill="#252020"/>
<g filter="url(#filter0_f_3231_6071)">
<ellipse cx="343" cy="207" rx="248" ry="51" fill="#F26A1B"/>
</g>
<g opacity="0.1">
<path d="M684.658 181.709C646.425 166.328 609.192 148.697 572.746 129.573C569.946 128.082 567.16 126.576 564.373 125.042C603.281 103.766 643.541 84.9941 684.658 68.2911C702.909 61.4522 709.452 37.446 696.971 22.3611C686.783 9.62628 668.208 7.54368 655.473 17.7316C623.038 43.1591 589.154 66.5884 554.368 88.5824C551.681 90.271 548.979 91.9174 546.263 93.5638C547.304 49.224 551.174 4.98264 557.253 -38.9772C560.461 -58.1991 542.928 -75.8732 523.622 -72.6085C508.059 -70.2445 497.181 -56.1306 498.659 -40.6518C509.677 8.2332 516.009 58.652 517.022 110.196C517.064 112.307 517.107 114.418 517.135 116.529C517.163 118.935 517.177 121.327 517.191 123.733C517.191 124.156 517.191 124.578 517.191 125C517.191 125.394 517.191 125.774 517.191 126.168C517.191 126.196 517.191 126.224 517.191 126.252C517.191 128.827 517.163 131.403 517.135 133.978C517.135 134.343 517.135 134.723 517.121 135.089C517.121 136.032 517.093 136.961 517.078 137.904C516.178 190.109 509.832 241.161 498.673 290.652C497.209 306.13 508.073 320.244 523.636 322.608C542.942 325.873 560.475 308.213 557.267 288.977C551.188 245.045 547.318 200.832 546.277 156.52C584.13 179.57 620.491 205.04 655.487 232.268C670.53 244.665 694.593 238.305 701.417 219.956C707.356 204.772 699.869 187.633 684.672 181.695L684.658 181.709Z" fill="#F26A1B" fill-opacity="0.7"/>
<path d="M433.221 154.675C428.141 157.053 423.047 159.389 417.925 161.682C402.53 168.592 387.122 175.459 371.432 181.692C353.252 188.559 346.736 212.467 359.148 227.538C369.293 240.301 387.868 242.412 400.631 232.252C405.049 228.734 409.524 225.329 414.027 221.923C418.544 218.56 423.033 215.183 427.578 211.89C436.64 205.262 445.731 198.663 454.933 192.246C476.266 176.542 457.705 144.008 433.221 154.647V154.675Z" fill="#F26A1B" fill-opacity="0.7"/>
<path d="M454.92 57.7251C450.319 54.5168 445.745 51.2662 441.2 47.9875C427.523 38.1092 413.873 28.2028 400.618 17.7334C385.589 5.40666 361.611 11.7389 354.772 30.018C348.792 45.1873 356.25 62.3266 371.419 68.307C376.668 70.3756 381.874 72.5567 387.053 74.7378C392.217 76.9611 397.395 79.1703 402.517 81.464C412.79 85.9951 423.048 90.5684 433.208 95.3387C457.467 105.963 476.38 73.6261 454.92 57.7392V57.7251Z" fill="#F26A1B" fill-opacity="0.7"/>
</g>
<path d="M48.1591 363H46.0455C45.9205 362.392 45.7017 361.858 45.3892 361.398C45.0824 360.938 44.7074 360.551 44.2642 360.239C43.8267 359.92 43.3409 359.682 42.8068 359.523C42.2727 359.364 41.7159 359.284 41.1364 359.284C40.0795 359.284 39.1222 359.551 38.2642 360.085C37.4119 360.619 36.733 361.406 36.2273 362.446C35.7273 363.486 35.4773 364.761 35.4773 366.273C35.4773 367.784 35.7273 369.06 36.2273 370.099C36.733 371.139 37.4119 371.926 38.2642 372.46C39.1222 372.994 40.0795 373.261 41.1364 373.261C41.7159 373.261 42.2727 373.182 42.8068 373.023C43.3409 372.864 43.8267 372.628 44.2642 372.315C44.7074 371.997 45.0824 371.608 45.3892 371.148C45.7017 370.682 45.9205 370.148 46.0455 369.545H48.1591C48 370.437 47.7102 371.236 47.2898 371.94C46.8693 372.645 46.3466 373.244 45.7216 373.739C45.0966 374.227 44.3949 374.599 43.6165 374.855C42.8438 375.111 42.017 375.239 41.1364 375.239C39.6477 375.239 38.3239 374.875 37.1648 374.148C36.0057 373.42 35.0938 372.386 34.429 371.045C33.7642 369.705 33.4318 368.114 33.4318 366.273C33.4318 364.432 33.7642 362.841 34.429 361.5C35.0938 360.159 36.0057 359.125 37.1648 358.398C38.3239 357.67 39.6477 357.307 41.1364 357.307C42.017 357.307 42.8438 357.435 43.6165 357.69C44.3949 357.946 45.0966 358.321 45.7216 358.815C46.3466 359.304 46.8693 359.901 47.2898 360.605C47.7102 361.304 48 362.102 48.1591 363ZM56.62 375.273C55.4382 375.273 54.4013 374.991 53.5092 374.429C52.6229 373.866 51.9297 373.08 51.4297 372.068C50.9354 371.057 50.6882 369.875 50.6882 368.523C50.6882 367.159 50.9354 365.969 51.4297 364.952C51.9297 363.935 52.6229 363.145 53.5092 362.582C54.4013 362.02 55.4382 361.739 56.62 361.739C57.8018 361.739 58.8359 362.02 59.7223 362.582C60.6143 363.145 61.3075 363.935 61.8018 364.952C62.3018 365.969 62.5518 367.159 62.5518 368.523C62.5518 369.875 62.3018 371.057 61.8018 372.068C61.3075 373.08 60.6143 373.866 59.7223 374.429C58.8359 374.991 57.8018 375.273 56.62 375.273ZM56.62 373.466C57.5178 373.466 58.2564 373.236 58.8359 372.776C59.4155 372.315 59.8445 371.71 60.1229 370.96C60.4013 370.21 60.5405 369.398 60.5405 368.523C60.5405 367.648 60.4013 366.832 60.1229 366.077C59.8445 365.321 59.4155 364.71 58.8359 364.244C58.2564 363.778 57.5178 363.545 56.62 363.545C55.7223 363.545 54.9837 363.778 54.4041 364.244C53.8246 364.71 53.3956 365.321 53.1172 366.077C52.8388 366.832 52.6996 367.648 52.6996 368.523C52.6996 369.398 52.8388 370.21 53.1172 370.96C53.3956 371.71 53.8246 372.315 54.4041 372.776C54.9837 373.236 55.7223 373.466 56.62 373.466ZM67.6335 367.125V375H65.6222V361.909H67.5653V363.955H67.7358C68.0426 363.29 68.5085 362.756 69.1335 362.352C69.7585 361.943 70.5653 361.739 71.554 361.739C72.4403 361.739 73.2159 361.92 73.8807 362.284C74.5455 362.642 75.0625 363.188 75.4318 363.92C75.8011 364.648 75.9858 365.568 75.9858 366.682V375H73.9744V366.818C73.9744 365.79 73.7074 364.989 73.1733 364.415C72.6392 363.835 71.9063 363.545 70.9744 363.545C70.3324 363.545 69.7585 363.685 69.2528 363.963C68.7528 364.241 68.358 364.648 68.0682 365.182C67.7784 365.716 67.6335 366.364 67.6335 367.125ZM89.897 361.909L85.0561 375H83.0107L78.1697 361.909H80.3516L83.9652 372.341H84.1016L87.7152 361.909H89.897ZM97.5717 375.273C96.3104 375.273 95.2223 374.994 94.3075 374.438C93.3984 373.875 92.6967 373.091 92.2024 372.085C91.7138 371.074 91.4695 369.898 91.4695 368.557C91.4695 367.216 91.7138 366.034 92.2024 365.011C92.6967 363.983 93.3842 363.182 94.2649 362.608C95.1513 362.028 96.1854 361.739 97.3672 361.739C98.049 361.739 98.7223 361.852 99.3871 362.08C100.052 362.307 100.657 362.676 101.202 363.188C101.748 363.693 102.183 364.364 102.506 365.199C102.83 366.034 102.992 367.062 102.992 368.284V369.136H92.9013V367.398H100.947C100.947 366.659 100.799 366 100.504 365.42C100.214 364.841 99.799 364.384 99.2592 364.048C98.7251 363.713 98.0945 363.545 97.3672 363.545C96.5661 363.545 95.8729 363.744 95.2876 364.142C94.7081 364.534 94.2621 365.045 93.9496 365.676C93.6371 366.307 93.4808 366.983 93.4808 367.705V368.864C93.4808 369.852 93.6513 370.69 93.9922 371.378C94.3388 372.06 94.8189 372.58 95.4325 372.938C96.0462 373.29 96.7592 373.466 97.5717 373.466C98.1001 373.466 98.5774 373.392 99.0036 373.244C99.4354 373.091 99.8075 372.864 100.12 372.562C100.433 372.256 100.674 371.875 100.844 371.42L102.788 371.966C102.583 372.625 102.239 373.205 101.756 373.705C101.273 374.199 100.677 374.585 99.9666 374.864C99.2564 375.136 98.4581 375.273 97.5717 375.273ZM106.052 375V361.909H107.995V363.886H108.131C108.37 363.239 108.802 362.713 109.427 362.31C110.052 361.906 110.756 361.705 111.54 361.705C111.688 361.705 111.873 361.707 112.094 361.713C112.316 361.719 112.484 361.727 112.597 361.739V363.784C112.529 363.767 112.373 363.741 112.129 363.707C111.89 363.668 111.637 363.648 111.37 363.648C110.734 363.648 110.165 363.781 109.665 364.048C109.171 364.31 108.779 364.673 108.489 365.139C108.205 365.599 108.063 366.125 108.063 366.716V375H106.052ZM121.495 361.909V363.614H114.711V361.909H121.495ZM116.688 358.773H118.7V371.25C118.7 371.818 118.782 372.244 118.947 372.528C119.117 372.807 119.333 372.994 119.594 373.091C119.862 373.182 120.143 373.227 120.438 373.227C120.66 373.227 120.842 373.216 120.984 373.193C121.126 373.165 121.239 373.142 121.325 373.125L121.734 374.932C121.597 374.983 121.407 375.034 121.163 375.085C120.918 375.142 120.609 375.17 120.234 375.17C119.665 375.17 119.109 375.048 118.563 374.804C118.023 374.56 117.575 374.188 117.217 373.688C116.864 373.188 116.688 372.557 116.688 371.795V358.773ZM136.93 375H131.543V357.545H137.168C138.862 357.545 140.31 357.895 141.515 358.594C142.719 359.287 143.643 360.284 144.285 361.585C144.927 362.881 145.248 364.432 145.248 366.239C145.248 368.057 144.924 369.622 144.276 370.935C143.629 372.241 142.685 373.247 141.447 373.952C140.208 374.651 138.702 375 136.93 375ZM133.657 373.125H136.793C138.237 373.125 139.433 372.847 140.381 372.29C141.33 371.733 142.038 370.94 142.504 369.912C142.969 368.884 143.202 367.659 143.202 366.239C143.202 364.83 142.972 363.616 142.512 362.599C142.052 361.577 141.364 360.793 140.45 360.247C139.535 359.696 138.396 359.42 137.032 359.42H133.657V373.125ZM154.009 375.273C152.748 375.273 151.66 374.994 150.745 374.438C149.836 373.875 149.134 373.091 148.64 372.085C148.151 371.074 147.907 369.898 147.907 368.557C147.907 367.216 148.151 366.034 148.64 365.011C149.134 363.983 149.822 363.182 150.702 362.608C151.589 362.028 152.623 361.739 153.805 361.739C154.487 361.739 155.16 361.852 155.825 362.08C156.489 362.307 157.094 362.676 157.64 363.188C158.185 363.693 158.62 364.364 158.944 365.199C159.268 366.034 159.43 367.062 159.43 368.284V369.136H149.339V367.398H157.384C157.384 366.659 157.237 366 156.941 365.42C156.651 364.841 156.237 364.384 155.697 364.048C155.163 363.713 154.532 363.545 153.805 363.545C153.004 363.545 152.31 363.744 151.725 364.142C151.146 364.534 150.7 365.045 150.387 365.676C150.075 366.307 149.918 366.983 149.918 367.705V368.864C149.918 369.852 150.089 370.69 150.43 371.378C150.776 372.06 151.256 372.58 151.87 372.938C152.484 373.29 153.197 373.466 154.009 373.466C154.538 373.466 155.015 373.392 155.441 373.244C155.873 373.091 156.245 372.864 156.558 372.562C156.87 372.256 157.112 371.875 157.282 371.42L159.225 371.966C159.021 372.625 158.677 373.205 158.194 373.705C157.711 374.199 157.114 374.585 156.404 374.864C155.694 375.136 154.896 375.273 154.009 375.273ZM171.762 364.841L169.955 365.352C169.842 365.051 169.674 364.759 169.452 364.474C169.237 364.185 168.941 363.946 168.566 363.759C168.191 363.571 167.711 363.477 167.126 363.477C166.325 363.477 165.657 363.662 165.123 364.031C164.594 364.395 164.33 364.858 164.33 365.42C164.33 365.92 164.512 366.315 164.876 366.605C165.239 366.895 165.808 367.136 166.58 367.33L168.523 367.807C169.694 368.091 170.566 368.526 171.14 369.111C171.714 369.69 172.001 370.437 172.001 371.352C172.001 372.102 171.785 372.773 171.353 373.364C170.927 373.955 170.33 374.42 169.563 374.761C168.796 375.102 167.904 375.273 166.887 375.273C165.552 375.273 164.447 374.983 163.572 374.403C162.697 373.824 162.143 372.977 161.91 371.864L163.819 371.386C164.001 372.091 164.344 372.619 164.85 372.972C165.362 373.324 166.029 373.5 166.853 373.5C167.79 373.5 168.535 373.301 169.086 372.903C169.643 372.5 169.921 372.017 169.921 371.455C169.921 371 169.762 370.619 169.444 370.312C169.126 370 168.637 369.767 167.978 369.614L165.796 369.102C164.597 368.818 163.717 368.378 163.154 367.781C162.597 367.179 162.319 366.426 162.319 365.523C162.319 364.784 162.526 364.131 162.941 363.562C163.362 362.994 163.933 362.548 164.654 362.224C165.381 361.901 166.205 361.739 167.126 361.739C168.421 361.739 169.438 362.023 170.177 362.591C170.921 363.159 171.45 363.909 171.762 364.841ZM175.028 375V361.909H177.04V375H175.028ZM176.051 359.727C175.659 359.727 175.321 359.594 175.037 359.327C174.759 359.06 174.619 358.739 174.619 358.364C174.619 357.989 174.759 357.668 175.037 357.401C175.321 357.134 175.659 357 176.051 357C176.443 357 176.778 357.134 177.057 357.401C177.341 357.668 177.483 357.989 177.483 358.364C177.483 358.739 177.341 359.06 177.057 359.327C176.778 359.594 176.443 359.727 176.051 359.727ZM186.008 380.182C185.036 380.182 184.201 380.057 183.502 379.807C182.803 379.562 182.221 379.239 181.755 378.835C181.295 378.438 180.928 378.011 180.656 377.557L182.258 376.432C182.44 376.67 182.67 376.943 182.948 377.25C183.227 377.562 183.607 377.832 184.09 378.06C184.579 378.293 185.218 378.409 186.008 378.409C187.065 378.409 187.937 378.153 188.624 377.642C189.312 377.131 189.656 376.33 189.656 375.239V372.58H189.485C189.337 372.818 189.127 373.114 188.854 373.466C188.587 373.812 188.201 374.122 187.695 374.395C187.195 374.662 186.519 374.795 185.667 374.795C184.61 374.795 183.661 374.545 182.82 374.045C181.985 373.545 181.323 372.818 180.835 371.864C180.352 370.909 180.11 369.75 180.11 368.386C180.11 367.045 180.346 365.878 180.817 364.884C181.289 363.884 181.945 363.111 182.786 362.565C183.627 362.014 184.599 361.739 185.701 361.739C186.553 361.739 187.229 361.881 187.729 362.165C188.235 362.443 188.621 362.761 188.888 363.119C189.161 363.472 189.371 363.761 189.519 363.989H189.724V361.909H191.667V375.375C191.667 376.5 191.411 377.415 190.9 378.119C190.394 378.83 189.712 379.349 188.854 379.679C188.002 380.014 187.053 380.182 186.008 380.182ZM185.94 372.989C186.746 372.989 187.428 372.804 187.985 372.435C188.542 372.065 188.965 371.534 189.255 370.841C189.545 370.148 189.69 369.318 189.69 368.352C189.69 367.409 189.548 366.577 189.263 365.855C188.979 365.134 188.559 364.568 188.002 364.159C187.445 363.75 186.758 363.545 185.94 363.545C185.087 363.545 184.377 363.761 183.809 364.193C183.246 364.625 182.823 365.205 182.539 365.932C182.261 366.659 182.121 367.466 182.121 368.352C182.121 369.261 182.263 370.065 182.548 370.764C182.837 371.457 183.263 372.003 183.826 372.401C184.394 372.793 185.099 372.989 185.94 372.989ZM197.36 367.125V375H195.349V361.909H197.292V363.955H197.462C197.769 363.29 198.235 362.756 198.86 362.352C199.485 361.943 200.292 361.739 201.281 361.739C202.167 361.739 202.942 361.92 203.607 362.284C204.272 362.642 204.789 363.188 205.158 363.92C205.528 364.648 205.712 365.568 205.712 366.682V375H203.701V366.818C203.701 365.79 203.434 364.989 202.9 364.415C202.366 363.835 201.633 363.545 200.701 363.545C200.059 363.545 199.485 363.685 198.979 363.963C198.479 364.241 198.085 364.648 197.795 365.182C197.505 365.716 197.36 366.364 197.36 367.125ZM216.411 375V357.545H222.308C223.678 357.545 224.797 357.793 225.666 358.287C226.541 358.776 227.189 359.438 227.609 360.273C228.03 361.108 228.24 362.04 228.24 363.068C228.24 364.097 228.03 365.031 227.609 365.872C227.195 366.713 226.553 367.384 225.683 367.884C224.814 368.378 223.7 368.625 222.342 368.625H218.115V366.75H222.274C223.212 366.75 223.964 366.588 224.533 366.264C225.101 365.94 225.513 365.503 225.768 364.952C226.03 364.395 226.161 363.767 226.161 363.068C226.161 362.369 226.03 361.744 225.768 361.193C225.513 360.642 225.098 360.21 224.524 359.898C223.95 359.58 223.189 359.42 222.24 359.42H218.524V375H216.411ZM231.372 375V361.909H233.315V363.886H233.452C233.69 363.239 234.122 362.713 234.747 362.31C235.372 361.906 236.077 361.705 236.861 361.705C237.009 361.705 237.193 361.707 237.415 361.713C237.636 361.719 237.804 361.727 237.918 361.739V363.784C237.849 363.767 237.693 363.741 237.449 363.707C237.21 363.668 236.957 363.648 236.69 363.648C236.054 363.648 235.486 363.781 234.986 364.048C234.491 364.31 234.099 364.673 233.81 365.139C233.526 365.599 233.384 366.125 233.384 366.716V375H231.372ZM245.222 375.273C244.04 375.273 243.003 374.991 242.111 374.429C241.224 373.866 240.531 373.08 240.031 372.068C239.537 371.057 239.29 369.875 239.29 368.523C239.29 367.159 239.537 365.969 240.031 364.952C240.531 363.935 241.224 363.145 242.111 362.582C243.003 362.02 244.04 361.739 245.222 361.739C246.403 361.739 247.438 362.02 248.324 362.582C249.216 363.145 249.909 363.935 250.403 364.952C250.903 365.969 251.153 367.159 251.153 368.523C251.153 369.875 250.903 371.057 250.403 372.068C249.909 373.08 249.216 373.866 248.324 374.429C247.438 374.991 246.403 375.273 245.222 375.273ZM245.222 373.466C246.119 373.466 246.858 373.236 247.438 372.776C248.017 372.315 248.446 371.71 248.724 370.96C249.003 370.21 249.142 369.398 249.142 368.523C249.142 367.648 249.003 366.832 248.724 366.077C248.446 365.321 248.017 364.71 247.438 364.244C246.858 363.778 246.119 363.545 245.222 363.545C244.324 363.545 243.585 363.778 243.006 364.244C242.426 364.71 241.997 365.321 241.719 366.077C241.44 366.832 241.301 367.648 241.301 368.523C241.301 369.398 241.44 370.21 241.719 370.96C241.997 371.71 242.426 372.315 243.006 372.776C243.585 373.236 244.324 373.466 245.222 373.466ZM259.917 361.909V363.614H253.133V361.909H259.917ZM255.11 358.773H257.121V371.25C257.121 371.818 257.204 372.244 257.369 372.528C257.539 372.807 257.755 372.994 258.016 373.091C258.283 373.182 258.565 373.227 258.86 373.227C259.082 373.227 259.263 373.216 259.406 373.193C259.548 373.165 259.661 373.142 259.746 373.125L260.156 374.932C260.019 374.983 259.829 375.034 259.585 375.085C259.34 375.142 259.031 375.17 258.656 375.17C258.087 375.17 257.531 375.048 256.985 374.804C256.445 374.56 255.996 374.188 255.638 373.688C255.286 373.188 255.11 372.557 255.11 371.795V358.773ZM268.12 375.273C266.938 375.273 265.901 374.991 265.009 374.429C264.123 373.866 263.43 373.08 262.93 372.068C262.435 371.057 262.188 369.875 262.188 368.523C262.188 367.159 262.435 365.969 262.93 364.952C263.43 363.935 264.123 363.145 265.009 362.582C265.901 362.02 266.938 361.739 268.12 361.739C269.302 361.739 270.336 362.02 271.222 362.582C272.114 363.145 272.808 363.935 273.302 364.952C273.802 365.969 274.052 367.159 274.052 368.523C274.052 369.875 273.802 371.057 273.302 372.068C272.808 373.08 272.114 373.866 271.222 374.429C270.336 374.991 269.302 375.273 268.12 375.273ZM268.12 373.466C269.018 373.466 269.756 373.236 270.336 372.776C270.915 372.315 271.344 371.71 271.623 370.96C271.901 370.21 272.04 369.398 272.04 368.523C272.04 367.648 271.901 366.832 271.623 366.077C271.344 365.321 270.915 364.71 270.336 364.244C269.756 363.778 269.018 363.545 268.12 363.545C267.222 363.545 266.484 363.778 265.904 364.244C265.325 364.71 264.896 365.321 264.617 366.077C264.339 366.832 264.2 367.648 264.2 368.523C264.2 369.398 264.339 370.21 264.617 370.96C264.896 371.71 265.325 372.315 265.904 372.776C266.484 373.236 267.222 373.466 268.12 373.466ZM282.815 361.909V363.614H276.031V361.909H282.815ZM278.009 358.773H280.02V371.25C280.02 371.818 280.102 372.244 280.267 372.528C280.438 372.807 280.653 372.994 280.915 373.091C281.182 373.182 281.463 373.227 281.759 373.227C281.98 373.227 282.162 373.216 282.304 373.193C282.446 373.165 282.56 373.142 282.645 373.125L283.054 374.932C282.918 374.983 282.727 375.034 282.483 375.085C282.239 375.142 281.929 375.17 281.554 375.17C280.986 375.17 280.429 375.048 279.884 374.804C279.344 374.56 278.895 374.188 278.537 373.688C278.185 373.188 278.009 372.557 278.009 371.795V358.773ZM287.136 379.909C286.795 379.909 286.491 379.881 286.224 379.824C285.957 379.773 285.773 379.722 285.67 379.67L286.182 377.898C286.67 378.023 287.102 378.068 287.477 378.034C287.852 378 288.185 377.832 288.474 377.531C288.77 377.236 289.04 376.756 289.284 376.091L289.659 375.068L284.818 361.909H287L290.614 372.341H290.75L294.364 361.909H296.545L290.989 376.909C290.739 377.585 290.429 378.145 290.06 378.588C289.69 379.037 289.261 379.369 288.773 379.585C288.29 379.801 287.744 379.909 287.136 379.909ZM299.2 379.909V361.909H301.143V363.989H301.382C301.53 363.761 301.734 363.472 301.996 363.119C302.263 362.761 302.643 362.443 303.138 362.165C303.638 361.881 304.314 361.739 305.166 361.739C306.268 361.739 307.24 362.014 308.081 362.565C308.922 363.116 309.578 363.898 310.05 364.909C310.521 365.92 310.757 367.114 310.757 368.489C310.757 369.875 310.521 371.077 310.05 372.094C309.578 373.105 308.925 373.889 308.089 374.446C307.254 374.997 306.291 375.273 305.2 375.273C304.359 375.273 303.686 375.134 303.18 374.855C302.675 374.571 302.286 374.25 302.013 373.892C301.74 373.528 301.53 373.227 301.382 372.989H301.212V379.909H299.2ZM301.178 368.455C301.178 369.443 301.322 370.315 301.612 371.071C301.902 371.821 302.325 372.409 302.882 372.835C303.439 373.256 304.121 373.466 304.928 373.466C305.768 373.466 306.47 373.244 307.033 372.801C307.601 372.352 308.027 371.75 308.311 370.994C308.601 370.233 308.746 369.386 308.746 368.455C308.746 367.534 308.604 366.705 308.32 365.966C308.041 365.222 307.618 364.634 307.05 364.202C306.487 363.764 305.78 363.545 304.928 363.545C304.109 363.545 303.422 363.753 302.865 364.168C302.308 364.577 301.888 365.151 301.604 365.889C301.32 366.622 301.178 367.477 301.178 368.455ZM319.314 375.273C318.053 375.273 316.964 374.994 316.05 374.438C315.141 373.875 314.439 373.091 313.945 372.085C313.456 371.074 313.212 369.898 313.212 368.557C313.212 367.216 313.456 366.034 313.945 365.011C314.439 363.983 315.126 363.182 316.007 362.608C316.893 362.028 317.928 361.739 319.109 361.739C319.791 361.739 320.464 361.852 321.129 362.08C321.794 362.307 322.399 362.676 322.945 363.188C323.49 363.693 323.925 364.364 324.249 365.199C324.572 366.034 324.734 367.062 324.734 368.284V369.136H314.643V367.398H322.689C322.689 366.659 322.541 366 322.246 365.42C321.956 364.841 321.541 364.384 321.001 364.048C320.467 363.713 319.837 363.545 319.109 363.545C318.308 363.545 317.615 363.744 317.03 364.142C316.45 364.534 316.004 365.045 315.692 365.676C315.379 366.307 315.223 366.983 315.223 367.705V368.864C315.223 369.852 315.393 370.69 315.734 371.378C316.081 372.06 316.561 372.58 317.175 372.938C317.788 373.29 318.501 373.466 319.314 373.466C319.842 373.466 320.32 373.392 320.746 373.244C321.178 373.091 321.55 372.864 321.862 372.562C322.175 372.256 322.416 371.875 322.587 371.42L324.53 371.966C324.325 372.625 323.982 373.205 323.499 373.705C323.016 374.199 322.419 374.585 321.709 374.864C320.999 375.136 320.2 375.273 319.314 375.273ZM337.067 364.841L335.26 365.352C335.146 365.051 334.979 364.759 334.757 364.474C334.541 364.185 334.246 363.946 333.871 363.759C333.496 363.571 333.016 363.477 332.43 363.477C331.629 363.477 330.962 363.662 330.428 364.031C329.899 364.395 329.635 364.858 329.635 365.42C329.635 365.92 329.817 366.315 330.18 366.605C330.544 366.895 331.112 367.136 331.885 367.33L333.828 367.807C334.999 368.091 335.871 368.526 336.445 369.111C337.018 369.69 337.305 370.437 337.305 371.352C337.305 372.102 337.089 372.773 336.658 373.364C336.232 373.955 335.635 374.42 334.868 374.761C334.101 375.102 333.209 375.273 332.192 375.273C330.857 375.273 329.751 374.983 328.876 374.403C328.001 373.824 327.447 372.977 327.214 371.864L329.124 371.386C329.305 372.091 329.649 372.619 330.155 372.972C330.666 373.324 331.334 373.5 332.158 373.5C333.095 373.5 333.839 373.301 334.391 372.903C334.947 372.5 335.226 372.017 335.226 371.455C335.226 371 335.067 370.619 334.749 370.312C334.43 370 333.942 369.767 333.283 369.614L331.101 369.102C329.902 368.818 329.021 368.378 328.459 367.781C327.902 367.179 327.624 366.426 327.624 365.523C327.624 364.784 327.831 364.131 328.246 363.562C328.666 362.994 329.237 362.548 329.959 362.224C330.686 361.901 331.51 361.739 332.43 361.739C333.726 361.739 334.743 362.023 335.482 362.591C336.226 363.159 336.754 363.909 337.067 364.841ZM352.776 361.909V363.614H345.992V361.909H352.776ZM347.969 358.773H349.981V371.25C349.981 371.818 350.063 372.244 350.228 372.528C350.398 372.807 350.614 372.994 350.876 373.091C351.143 373.182 351.424 373.227 351.719 373.227C351.941 373.227 352.123 373.216 352.265 373.193C352.407 373.165 352.521 373.142 352.606 373.125L353.015 374.932C352.879 374.983 352.688 375.034 352.444 375.085C352.2 375.142 351.89 375.17 351.515 375.17C350.947 375.17 350.39 375.048 349.844 374.804C349.305 374.56 348.856 374.188 348.498 373.688C348.146 373.188 347.969 372.557 347.969 371.795V358.773ZM360.979 375.273C359.798 375.273 358.761 374.991 357.869 374.429C356.982 373.866 356.289 373.08 355.789 372.068C355.295 371.057 355.048 369.875 355.048 368.523C355.048 367.159 355.295 365.969 355.789 364.952C356.289 363.935 356.982 363.145 357.869 362.582C358.761 362.02 359.798 361.739 360.979 361.739C362.161 361.739 363.195 362.02 364.082 362.582C364.974 363.145 365.667 363.935 366.161 364.952C366.661 365.969 366.911 367.159 366.911 368.523C366.911 369.875 366.661 371.057 366.161 372.068C365.667 373.08 364.974 373.866 364.082 374.429C363.195 374.991 362.161 375.273 360.979 375.273ZM360.979 373.466C361.877 373.466 362.616 373.236 363.195 372.776C363.775 372.315 364.204 371.71 364.482 370.96C364.761 370.21 364.9 369.398 364.9 368.523C364.9 367.648 364.761 366.832 364.482 366.077C364.204 365.321 363.775 364.71 363.195 364.244C362.616 363.778 361.877 363.545 360.979 363.545C360.082 363.545 359.343 363.778 358.763 364.244C358.184 364.71 357.755 365.321 357.477 366.077C357.198 366.832 357.059 367.648 357.059 368.523C357.059 369.398 357.198 370.21 357.477 370.96C357.755 371.71 358.184 372.315 358.763 372.776C359.343 373.236 360.082 373.466 360.979 373.466ZM391.05 363H388.936C388.811 362.392 388.592 361.858 388.28 361.398C387.973 360.938 387.598 360.551 387.155 360.239C386.717 359.92 386.232 359.682 385.697 359.523C385.163 359.364 384.607 359.284 384.027 359.284C382.97 359.284 382.013 359.551 381.155 360.085C380.303 360.619 379.624 361.406 379.118 362.446C378.618 363.486 378.368 364.761 378.368 366.273C378.368 367.784 378.618 369.06 379.118 370.099C379.624 371.139 380.303 371.926 381.155 372.46C382.013 372.994 382.97 373.261 384.027 373.261C384.607 373.261 385.163 373.182 385.697 373.023C386.232 372.864 386.717 372.628 387.155 372.315C387.598 371.997 387.973 371.608 388.28 371.148C388.592 370.682 388.811 370.148 388.936 369.545H391.05C390.891 370.437 390.601 371.236 390.18 371.94C389.76 372.645 389.237 373.244 388.612 373.739C387.987 374.227 387.286 374.599 386.507 374.855C385.734 375.111 384.908 375.239 384.027 375.239C382.538 375.239 381.214 374.875 380.055 374.148C378.896 373.42 377.984 372.386 377.32 371.045C376.655 369.705 376.322 368.114 376.322 366.273C376.322 364.432 376.655 362.841 377.32 361.5C377.984 360.159 378.896 359.125 380.055 358.398C381.214 357.67 382.538 357.307 384.027 357.307C384.908 357.307 385.734 357.435 386.507 357.69C387.286 357.946 387.987 358.321 388.612 358.815C389.237 359.304 389.76 359.901 390.18 360.605C390.601 361.304 390.891 362.102 391.05 363ZM399.511 375.273C398.329 375.273 397.292 374.991 396.4 374.429C395.513 373.866 394.82 373.08 394.32 372.068C393.826 371.057 393.579 369.875 393.579 368.523C393.579 367.159 393.826 365.969 394.32 364.952C394.82 363.935 395.513 363.145 396.4 362.582C397.292 362.02 398.329 361.739 399.511 361.739C400.692 361.739 401.727 362.02 402.613 362.582C403.505 363.145 404.198 363.935 404.692 364.952C405.192 365.969 405.442 367.159 405.442 368.523C405.442 369.875 405.192 371.057 404.692 372.068C404.198 373.08 403.505 373.866 402.613 374.429C401.727 374.991 400.692 375.273 399.511 375.273ZM399.511 373.466C400.408 373.466 401.147 373.236 401.727 372.776C402.306 372.315 402.735 371.71 403.013 370.96C403.292 370.21 403.431 369.398 403.431 368.523C403.431 367.648 403.292 366.832 403.013 366.077C402.735 365.321 402.306 364.71 401.727 364.244C401.147 363.778 400.408 363.545 399.511 363.545C398.613 363.545 397.874 363.778 397.295 364.244C396.715 364.71 396.286 365.321 396.008 366.077C395.729 366.832 395.59 367.648 395.59 368.523C395.59 369.398 395.729 370.21 396.008 370.96C396.286 371.71 396.715 372.315 397.295 372.776C397.874 373.236 398.613 373.466 399.511 373.466ZM413.456 375.273C412.365 375.273 411.402 374.997 410.567 374.446C409.732 373.889 409.078 373.105 408.607 372.094C408.135 371.077 407.899 369.875 407.899 368.489C407.899 367.114 408.135 365.92 408.607 364.909C409.078 363.898 409.734 363.116 410.575 362.565C411.416 362.014 412.388 361.739 413.49 361.739C414.342 361.739 415.016 361.881 415.51 362.165C416.01 362.443 416.391 362.761 416.652 363.119C416.919 363.472 417.126 363.761 417.274 363.989H417.445V357.545H419.456V375H417.513V372.989H417.274C417.126 373.227 416.916 373.528 416.643 373.892C416.371 374.25 415.982 374.571 415.476 374.855C414.97 375.134 414.297 375.273 413.456 375.273ZM413.729 373.466C414.536 373.466 415.217 373.256 415.774 372.835C416.331 372.409 416.754 371.821 417.044 371.071C417.334 370.315 417.479 369.443 417.479 368.455C417.479 367.477 417.337 366.622 417.053 365.889C416.768 365.151 416.348 364.577 415.791 364.168C415.234 363.753 414.547 363.545 413.729 363.545C412.876 363.545 412.166 363.764 411.598 364.202C411.036 364.634 410.612 365.222 410.328 365.966C410.05 366.705 409.911 367.534 409.911 368.455C409.911 369.386 410.053 370.233 410.337 370.994C410.626 371.75 411.053 372.352 411.615 372.801C412.183 373.244 412.888 373.466 413.729 373.466ZM428.908 375.273C427.646 375.273 426.558 374.994 425.643 374.438C424.734 373.875 424.033 373.091 423.538 372.085C423.05 371.074 422.805 369.898 422.805 368.557C422.805 367.216 423.05 366.034 423.538 365.011C424.033 363.983 424.72 363.182 425.601 362.608C426.487 362.028 427.521 361.739 428.703 361.739C429.385 361.739 430.058 361.852 430.723 362.08C431.388 362.307 431.993 362.676 432.538 363.188C433.084 363.693 433.518 364.364 433.842 365.199C434.166 366.034 434.328 367.062 434.328 368.284V369.136H424.237V367.398H432.283C432.283 366.659 432.135 366 431.839 365.42C431.55 364.841 431.135 364.384 430.595 364.048C430.061 363.713 429.43 363.545 428.703 363.545C427.902 363.545 427.209 363.744 426.624 364.142C426.044 364.534 425.598 365.045 425.286 365.676C424.973 366.307 424.817 366.983 424.817 367.705V368.864C424.817 369.852 424.987 370.69 425.328 371.378C425.675 372.06 426.155 372.58 426.768 372.938C427.382 373.29 428.095 373.466 428.908 373.466C429.436 373.466 429.913 373.392 430.339 373.244C430.771 373.091 431.143 372.864 431.456 372.562C431.768 372.256 432.01 371.875 432.18 371.42L434.124 371.966C433.919 372.625 433.575 373.205 433.092 373.705C432.609 374.199 432.013 374.585 431.303 374.864C430.592 375.136 429.794 375.273 428.908 375.273Z" fill="white"/>
<rect x="32" y="32" width="65" height="65" rx="32.5" fill="#F26A1B"/>
<mask id="mask0_3231_6071" style="mask-type:alpha" maskUnits="userSpaceOnUse" x="34" y="34" width="61" height="61">
<rect x="34.9541" y="34.9551" width="59.0909" height="59.0909" fill="#D9D9D9"/>
</mask>
<g mask="url(#mask0_3231_6071)">
<path d="M55.8799 79.5104V49.4922L79.459 64.5013L55.8799 79.5104Z" fill="white"/>
</g>
</g>
<defs>
<filter id="filter0_f_3231_6071" x="-419" y="-358" width="1524" height="1130" filterUnits="userSpaceOnUse" color-interpolation-filters="sRGB">
<feFlood flood-opacity="0" result="BackgroundImageFix"/>
<feBlend mode="normal" in="SourceGraphic" in2="BackgroundImageFix" result="shape"/>
<feGaussianBlur stdDeviation="257" result="effect1_foregroundBlur_3231_6071"/>
</filter>
<clipPath id="clip0_3231_6071">
<rect width="686" height="414.73" rx="9" fill="white"/>
</clipPath>
</defs>
</svg>
