<svg width="686" height="416" viewBox="0 0 686 416" fill="none" xmlns="http://www.w3.org/2000/svg">
<g clip-path="url(#clip0_3231_6084)">
<rect width="686" height="416" rx="9" fill="#252020"/>
<g filter="url(#filter0_f_3231_6084)">
<ellipse cx="343" cy="208" rx="248" ry="51" fill="#F26A1B"/>
</g>
<g opacity="0.1">
<path d="M684.658 182.266C646.425 166.839 609.192 149.153 572.746 129.971C569.946 128.475 567.16 126.964 564.373 125.426C603.281 104.084 643.541 85.2553 684.658 68.5011C702.909 61.6413 709.452 37.5615 696.971 22.4305C686.783 9.65665 668.208 7.56766 655.473 17.7867C623.038 43.2921 589.154 66.7932 554.368 88.8545C551.681 90.5483 548.979 92.1998 546.263 93.8512C547.304 49.3756 551.174 4.99879 557.253 -39.0957C560.461 -58.3765 542.928 -76.1046 523.622 -72.83C508.059 -70.4587 497.181 -56.3016 498.659 -40.7754C509.677 8.25929 516.009 58.8325 517.022 110.535C517.064 112.652 517.107 114.769 517.135 116.886C517.163 119.3 517.177 121.7 517.191 124.113C517.191 124.537 517.191 124.96 517.191 125.384C517.191 125.779 517.191 126.16 517.191 126.555C517.191 126.583 517.191 126.612 517.191 126.64C517.191 129.223 517.163 131.806 517.135 134.389C517.135 134.756 517.135 135.137 517.121 135.504C517.121 136.45 517.093 137.381 517.078 138.327C516.178 190.693 509.832 241.901 498.673 291.542C497.209 307.069 508.073 321.226 523.636 323.597C542.942 326.872 560.475 309.158 557.267 289.863C551.188 245.797 547.318 201.448 546.277 157.001C584.13 180.121 620.491 205.668 655.487 232.98C670.53 245.415 694.593 239.036 701.417 220.63C707.356 205.4 699.869 188.208 684.672 182.252L684.658 182.266Z" fill="#F26A1B" fill-opacity="0.7"/>
<path d="M433.221 155.15C428.141 157.535 423.047 159.878 417.925 162.179C402.53 169.109 387.122 175.997 371.432 182.25C353.252 189.138 346.736 213.119 359.148 228.236C369.293 241.038 387.868 243.155 400.631 232.965C405.049 229.436 409.524 226.02 414.027 222.604C418.544 219.231 423.033 215.843 427.578 212.541C436.64 205.892 445.731 199.273 454.933 192.836C476.266 177.084 457.705 144.451 433.221 155.122V155.15Z" fill="#F26A1B" fill-opacity="0.7"/>
<path d="M454.92 57.9023C450.319 54.6841 445.745 51.4236 441.2 48.1349C427.523 38.2263 413.873 28.2895 400.618 17.7881C385.589 5.42358 361.611 11.7752 354.772 30.1103C348.792 45.326 356.25 62.5178 371.419 68.5166C376.668 70.5914 381.874 72.7792 387.053 74.967C392.217 77.1971 397.395 79.4131 402.517 81.7139C412.79 86.2588 423.048 90.8461 433.208 95.631C457.467 106.288 476.38 73.8519 454.92 57.9164V57.9023Z" fill="#F26A1B" fill-opacity="0.7"/>
</g>
<path d="M34.1136 358.545H36.6364L42.5682 373.034H42.7727L48.7045 358.545H51.2273V376H49.25V362.739H49.0795L43.625 376H41.7159L36.2614 362.739H36.0909V376H34.1136V358.545ZM60.5107 376.273C59.3288 376.273 58.2919 375.991 57.3999 375.429C56.5135 374.866 55.8203 374.08 55.3203 373.068C54.826 372.057 54.5788 370.875 54.5788 369.523C54.5788 368.159 54.826 366.969 55.3203 365.952C55.8203 364.935 56.5135 364.145 57.3999 363.582C58.2919 363.02 59.3288 362.739 60.5107 362.739C61.6925 362.739 62.7266 363.02 63.6129 363.582C64.505 364.145 65.1982 364.935 65.6925 365.952C66.1925 366.969 66.4425 368.159 66.4425 369.523C66.4425 370.875 66.1925 372.057 65.6925 373.068C65.1982 374.08 64.505 374.866 63.6129 375.429C62.7266 375.991 61.6925 376.273 60.5107 376.273ZM60.5107 374.466C61.4084 374.466 62.147 374.236 62.7266 373.776C63.3061 373.315 63.7351 372.71 64.0135 371.96C64.2919 371.21 64.4311 370.398 64.4311 369.523C64.4311 368.648 64.2919 367.832 64.0135 367.077C63.7351 366.321 63.3061 365.71 62.7266 365.244C62.147 364.778 61.4084 364.545 60.5107 364.545C59.6129 364.545 58.8743 364.778 58.2947 365.244C57.7152 365.71 57.2862 366.321 57.0078 367.077C56.7294 367.832 56.5902 368.648 56.5902 369.523C56.5902 370.398 56.7294 371.21 57.0078 371.96C57.2862 372.71 57.7152 373.315 58.2947 373.776C58.8743 374.236 59.6129 374.466 60.5107 374.466ZM74.456 376.273C73.3651 376.273 72.402 375.997 71.5668 375.446C70.7315 374.889 70.0781 374.105 69.6065 373.094C69.1349 372.077 68.8991 370.875 68.8991 369.489C68.8991 368.114 69.1349 366.92 69.6065 365.909C70.0781 364.898 70.7344 364.116 71.5753 363.565C72.4162 363.014 73.3878 362.739 74.4901 362.739C75.3423 362.739 76.0156 362.881 76.5099 363.165C77.0099 363.443 77.3906 363.761 77.652 364.119C77.919 364.472 78.1264 364.761 78.2741 364.989H78.4446V358.545H80.456V376H78.5128V373.989H78.2741C78.1264 374.227 77.9162 374.528 77.6435 374.892C77.3707 375.25 76.9815 375.571 76.4759 375.855C75.9702 376.134 75.2969 376.273 74.456 376.273ZM74.7287 374.466C75.5355 374.466 76.2173 374.256 76.7741 373.835C77.331 373.409 77.7543 372.821 78.044 372.071C78.3338 371.315 78.4787 370.443 78.4787 369.455C78.4787 368.477 78.3366 367.622 78.0526 366.889C77.7685 366.151 77.348 365.577 76.7912 365.168C76.2344 364.753 75.5469 364.545 74.7287 364.545C73.8764 364.545 73.1662 364.764 72.598 365.202C72.0355 365.634 71.6122 366.222 71.3281 366.966C71.0497 367.705 70.9105 368.534 70.9105 369.455C70.9105 370.386 71.0526 371.233 71.3366 371.994C71.6264 372.75 72.0526 373.352 72.6151 373.801C73.1832 374.244 73.8878 374.466 74.7287 374.466ZM84.419 376V362.909H86.4304V376H84.419ZM85.4418 360.727C85.0497 360.727 84.7116 360.594 84.4276 360.327C84.1491 360.06 84.0099 359.739 84.0099 359.364C84.0099 358.989 84.1491 358.668 84.4276 358.401C84.7116 358.134 85.0497 358 85.4418 358C85.8338 358 86.169 358.134 86.4474 358.401C86.7315 358.668 86.8736 358.989 86.8736 359.364C86.8736 359.739 86.7315 360.06 86.4474 360.327C86.169 360.594 85.8338 360.727 85.4418 360.727ZM95.9439 362.909V364.614H88.8871V362.909H95.9439ZM91.0007 376V361.102C91.0007 360.352 91.1768 359.727 91.5291 359.227C91.8814 358.727 92.3388 358.352 92.9013 358.102C93.4638 357.852 94.0575 357.727 94.6825 357.727C95.1768 357.727 95.5803 357.767 95.8928 357.847C96.2053 357.926 96.4382 358 96.5916 358.068L96.0121 359.807C95.9098 359.773 95.7678 359.73 95.5859 359.679C95.4098 359.628 95.1768 359.602 94.8871 359.602C94.2223 359.602 93.7422 359.77 93.4467 360.105C93.157 360.44 93.0121 360.932 93.0121 361.58V376H91.0007ZM100.058 380.909C99.7173 380.909 99.4134 380.881 99.1463 380.824C98.8793 380.773 98.6946 380.722 98.5923 380.67L99.1037 378.898C99.5923 379.023 100.024 379.068 100.399 379.034C100.774 379 101.107 378.832 101.396 378.531C101.692 378.236 101.962 377.756 102.206 377.091L102.581 376.068L97.7401 362.909H99.9219L103.536 373.341H103.672L107.286 362.909H109.467L103.911 377.909C103.661 378.585 103.351 379.145 102.982 379.588C102.612 380.037 102.183 380.369 101.695 380.585C101.212 380.801 100.666 380.909 100.058 380.909ZM119.145 376V358.545H129.679V360.42H121.259V366.318H129.134V368.193H121.259V374.125H129.815V376H119.145ZM134.716 362.909L137.852 368.261L140.989 362.909H143.307L139.08 369.455L143.307 376H140.989L137.852 370.92L134.716 376H132.398L136.557 369.455L132.398 362.909H134.716ZM146.177 376V362.909H148.188V376H146.177ZM147.2 360.727C146.808 360.727 146.469 360.594 146.185 360.327C145.907 360.06 145.768 359.739 145.768 359.364C145.768 358.989 145.907 358.668 146.185 358.401C146.469 358.134 146.808 358 147.2 358C147.592 358 147.927 358.134 148.205 358.401C148.489 358.668 148.631 358.989 148.631 359.364C148.631 359.739 148.489 360.06 148.205 360.327C147.927 360.594 147.592 360.727 147.2 360.727ZM161.145 365.841L159.338 366.352C159.224 366.051 159.057 365.759 158.835 365.474C158.619 365.185 158.324 364.946 157.949 364.759C157.574 364.571 157.094 364.477 156.509 364.477C155.707 364.477 155.04 364.662 154.506 365.031C153.977 365.395 153.713 365.858 153.713 366.42C153.713 366.92 153.895 367.315 154.259 367.605C154.622 367.895 155.19 368.136 155.963 368.33L157.906 368.807C159.077 369.091 159.949 369.526 160.523 370.111C161.097 370.69 161.384 371.437 161.384 372.352C161.384 373.102 161.168 373.773 160.736 374.364C160.31 374.955 159.713 375.42 158.946 375.761C158.179 376.102 157.287 376.273 156.27 376.273C154.935 376.273 153.83 375.983 152.955 375.403C152.08 374.824 151.526 373.977 151.293 372.864L153.202 372.386C153.384 373.091 153.727 373.619 154.233 373.972C154.744 374.324 155.412 374.5 156.236 374.5C157.173 374.5 157.918 374.301 158.469 373.903C159.026 373.5 159.304 373.017 159.304 372.455C159.304 372 159.145 371.619 158.827 371.312C158.509 371 158.02 370.767 157.361 370.614L155.179 370.102C153.98 369.818 153.099 369.378 152.537 368.781C151.98 368.179 151.702 367.426 151.702 366.523C151.702 365.784 151.909 365.131 152.324 364.562C152.744 363.994 153.315 363.548 154.037 363.224C154.764 362.901 155.588 362.739 156.509 362.739C157.804 362.739 158.821 363.023 159.56 363.591C160.304 364.159 160.832 364.909 161.145 365.841ZM170.104 362.909V364.614H163.32V362.909H170.104ZM165.298 359.773H167.309V372.25C167.309 372.818 167.391 373.244 167.556 373.528C167.727 373.807 167.942 373.994 168.204 374.091C168.471 374.182 168.752 374.227 169.048 374.227C169.269 374.227 169.451 374.216 169.593 374.193C169.735 374.165 169.849 374.142 169.934 374.125L170.343 375.932C170.207 375.983 170.016 376.034 169.772 376.085C169.528 376.142 169.218 376.17 168.843 376.17C168.275 376.17 167.718 376.048 167.173 375.804C166.633 375.56 166.184 375.188 165.826 374.688C165.474 374.188 165.298 373.557 165.298 372.795V359.773ZM173.13 376V362.909H175.141V376H173.13ZM174.153 360.727C173.761 360.727 173.423 360.594 173.138 360.327C172.86 360.06 172.721 359.739 172.721 359.364C172.721 358.989 172.86 358.668 173.138 358.401C173.423 358.134 173.761 358 174.153 358C174.545 358 174.88 358.134 175.158 358.401C175.442 358.668 175.585 358.989 175.585 359.364C175.585 359.739 175.442 360.06 175.158 360.327C174.88 360.594 174.545 360.727 174.153 360.727ZM180.837 368.125V376H178.825V362.909H180.768V364.955H180.939C181.246 364.29 181.712 363.756 182.337 363.352C182.962 362.943 183.768 362.739 184.757 362.739C185.643 362.739 186.419 362.92 187.084 363.284C187.749 363.642 188.266 364.188 188.635 364.92C189.004 365.648 189.189 366.568 189.189 367.682V376H187.178V367.818C187.178 366.79 186.911 365.989 186.376 365.415C185.842 364.835 185.109 364.545 184.178 364.545C183.536 364.545 182.962 364.685 182.456 364.963C181.956 365.241 181.561 365.648 181.271 366.182C180.982 366.716 180.837 367.364 180.837 368.125ZM198.148 381.182C197.177 381.182 196.342 381.057 195.643 380.807C194.944 380.562 194.362 380.239 193.896 379.835C193.435 379.438 193.069 379.011 192.796 378.557L194.398 377.432C194.58 377.67 194.81 377.943 195.089 378.25C195.367 378.562 195.748 378.832 196.231 379.06C196.719 379.293 197.359 379.409 198.148 379.409C199.205 379.409 200.077 379.153 200.765 378.642C201.452 378.131 201.796 377.33 201.796 376.239V373.58H201.626C201.478 373.818 201.268 374.114 200.995 374.466C200.728 374.812 200.342 375.122 199.836 375.395C199.336 375.662 198.66 375.795 197.808 375.795C196.751 375.795 195.802 375.545 194.961 375.045C194.126 374.545 193.464 373.818 192.975 372.864C192.492 371.909 192.251 370.75 192.251 369.386C192.251 368.045 192.487 366.878 192.958 365.884C193.43 364.884 194.086 364.111 194.927 363.565C195.768 363.014 196.739 362.739 197.842 362.739C198.694 362.739 199.37 362.881 199.87 363.165C200.376 363.443 200.762 363.761 201.029 364.119C201.302 364.472 201.512 364.761 201.66 364.989H201.864V362.909H203.808V376.375C203.808 377.5 203.552 378.415 203.04 379.119C202.535 379.83 201.853 380.349 200.995 380.679C200.143 381.014 199.194 381.182 198.148 381.182ZM198.08 373.989C198.887 373.989 199.569 373.804 200.126 373.435C200.683 373.065 201.106 372.534 201.396 371.841C201.685 371.148 201.83 370.318 201.83 369.352C201.83 368.409 201.688 367.577 201.404 366.855C201.12 366.134 200.7 365.568 200.143 365.159C199.586 364.75 198.898 364.545 198.08 364.545C197.228 364.545 196.518 364.761 195.95 365.193C195.387 365.625 194.964 366.205 194.68 366.932C194.401 367.659 194.262 368.466 194.262 369.352C194.262 370.261 194.404 371.065 194.688 371.764C194.978 372.457 195.404 373.003 195.967 373.401C196.535 373.793 197.239 373.989 198.08 373.989ZM228.558 364H226.444C226.319 363.392 226.1 362.858 225.788 362.398C225.481 361.938 225.106 361.551 224.663 361.239C224.225 360.92 223.739 360.682 223.205 360.523C222.671 360.364 222.114 360.284 221.535 360.284C220.478 360.284 219.521 360.551 218.663 361.085C217.81 361.619 217.131 362.406 216.626 363.446C216.126 364.486 215.876 365.761 215.876 367.273C215.876 368.784 216.126 370.06 216.626 371.099C217.131 372.139 217.81 372.926 218.663 373.46C219.521 373.994 220.478 374.261 221.535 374.261C222.114 374.261 222.671 374.182 223.205 374.023C223.739 373.864 224.225 373.628 224.663 373.315C225.106 372.997 225.481 372.608 225.788 372.148C226.1 371.682 226.319 371.148 226.444 370.545H228.558C228.398 371.437 228.109 372.236 227.688 372.94C227.268 373.645 226.745 374.244 226.12 374.739C225.495 375.227 224.793 375.599 224.015 375.855C223.242 376.111 222.415 376.239 221.535 376.239C220.046 376.239 218.722 375.875 217.563 375.148C216.404 374.42 215.492 373.386 214.827 372.045C214.163 370.705 213.83 369.114 213.83 367.273C213.83 365.432 214.163 363.841 214.827 362.5C215.492 361.159 216.404 360.125 217.563 359.398C218.722 358.67 220.046 358.307 221.535 358.307C222.415 358.307 223.242 358.435 224.015 358.69C224.793 358.946 225.495 359.321 226.12 359.815C226.745 360.304 227.268 360.901 227.688 361.605C228.109 362.304 228.398 363.102 228.558 364ZM237.018 376.273C235.837 376.273 234.8 375.991 233.908 375.429C233.021 374.866 232.328 374.08 231.828 373.068C231.334 372.057 231.087 370.875 231.087 369.523C231.087 368.159 231.334 366.969 231.828 365.952C232.328 364.935 233.021 364.145 233.908 363.582C234.8 363.02 235.837 362.739 237.018 362.739C238.2 362.739 239.234 363.02 240.121 363.582C241.013 364.145 241.706 364.935 242.2 365.952C242.7 366.969 242.95 368.159 242.95 369.523C242.95 370.875 242.7 372.057 242.2 373.068C241.706 374.08 241.013 374.866 240.121 375.429C239.234 375.991 238.2 376.273 237.018 376.273ZM237.018 374.466C237.916 374.466 238.655 374.236 239.234 373.776C239.814 373.315 240.243 372.71 240.521 371.96C240.8 371.21 240.939 370.398 240.939 369.523C240.939 368.648 240.8 367.832 240.521 367.077C240.243 366.321 239.814 365.71 239.234 365.244C238.655 364.778 237.916 364.545 237.018 364.545C236.121 364.545 235.382 364.778 234.803 365.244C234.223 365.71 233.794 366.321 233.516 367.077C233.237 367.832 233.098 368.648 233.098 369.523C233.098 370.398 233.237 371.21 233.516 371.96C233.794 372.71 234.223 373.315 234.803 373.776C235.382 374.236 236.121 374.466 237.018 374.466ZM250.964 376.273C249.873 376.273 248.91 375.997 248.075 375.446C247.239 374.889 246.586 374.105 246.114 373.094C245.643 372.077 245.407 370.875 245.407 369.489C245.407 368.114 245.643 366.92 246.114 365.909C246.586 364.898 247.242 364.116 248.083 363.565C248.924 363.014 249.896 362.739 250.998 362.739C251.85 362.739 252.523 362.881 253.018 363.165C253.518 363.443 253.898 363.761 254.16 364.119C254.427 364.472 254.634 364.761 254.782 364.989H254.952V358.545H256.964V376H255.021V373.989H254.782C254.634 374.227 254.424 374.528 254.151 374.892C253.879 375.25 253.489 375.571 252.984 375.855C252.478 376.134 251.805 376.273 250.964 376.273ZM251.237 374.466C252.043 374.466 252.725 374.256 253.282 373.835C253.839 373.409 254.262 372.821 254.552 372.071C254.842 371.315 254.987 370.443 254.987 369.455C254.987 368.477 254.844 367.622 254.56 366.889C254.276 366.151 253.856 365.577 253.299 365.168C252.742 364.753 252.055 364.545 251.237 364.545C250.384 364.545 249.674 364.764 249.106 365.202C248.543 365.634 248.12 366.222 247.836 366.966C247.558 367.705 247.418 368.534 247.418 369.455C247.418 370.386 247.56 371.233 247.844 371.994C248.134 372.75 248.56 373.352 249.123 373.801C249.691 374.244 250.396 374.466 251.237 374.466ZM266.415 376.273C265.154 376.273 264.066 375.994 263.151 375.438C262.242 374.875 261.54 374.091 261.046 373.085C260.558 372.074 260.313 370.898 260.313 369.557C260.313 368.216 260.558 367.034 261.046 366.011C261.54 364.983 262.228 364.182 263.109 363.608C263.995 363.028 265.029 362.739 266.211 362.739C266.893 362.739 267.566 362.852 268.231 363.08C268.896 363.307 269.501 363.676 270.046 364.188C270.592 364.693 271.026 365.364 271.35 366.199C271.674 367.034 271.836 368.062 271.836 369.284V370.136H261.745V368.398H269.79C269.79 367.659 269.643 367 269.347 366.42C269.058 365.841 268.643 365.384 268.103 365.048C267.569 364.713 266.938 364.545 266.211 364.545C265.41 364.545 264.717 364.744 264.131 365.142C263.552 365.534 263.106 366.045 262.793 366.676C262.481 367.307 262.325 367.983 262.325 368.705V369.864C262.325 370.852 262.495 371.69 262.836 372.378C263.183 373.06 263.663 373.58 264.276 373.938C264.89 374.29 265.603 374.466 266.415 374.466C266.944 374.466 267.421 374.392 267.847 374.244C268.279 374.091 268.651 373.864 268.964 373.562C269.276 373.256 269.518 372.875 269.688 372.42L271.631 372.966C271.427 373.625 271.083 374.205 270.6 374.705C270.117 375.199 269.521 375.585 268.81 375.864C268.1 376.136 267.302 376.273 266.415 376.273ZM275.168 376V358.545H277.18V364.989H277.35C277.498 364.761 277.702 364.472 277.964 364.119C278.231 363.761 278.612 363.443 279.106 363.165C279.606 362.881 280.282 362.739 281.134 362.739C282.237 362.739 283.208 363.014 284.049 363.565C284.89 364.116 285.546 364.898 286.018 365.909C286.489 366.92 286.725 368.114 286.725 369.489C286.725 370.875 286.489 372.077 286.018 373.094C285.546 374.105 284.893 374.889 284.058 375.446C283.222 375.997 282.259 376.273 281.168 376.273C280.327 376.273 279.654 376.134 279.148 375.855C278.643 375.571 278.254 375.25 277.981 374.892C277.708 374.528 277.498 374.227 277.35 373.989H277.112V376H275.168ZM277.146 369.455C277.146 370.443 277.29 371.315 277.58 372.071C277.87 372.821 278.293 373.409 278.85 373.835C279.407 374.256 280.089 374.466 280.896 374.466C281.737 374.466 282.438 374.244 283.001 373.801C283.569 373.352 283.995 372.75 284.279 371.994C284.569 371.233 284.714 370.386 284.714 369.455C284.714 368.534 284.572 367.705 284.288 366.966C284.009 366.222 283.586 365.634 283.018 365.202C282.455 364.764 281.748 364.545 280.896 364.545C280.077 364.545 279.39 364.753 278.833 365.168C278.276 365.577 277.856 366.151 277.572 366.889C277.288 367.622 277.146 368.477 277.146 369.455ZM293.654 376.307C292.825 376.307 292.072 376.151 291.396 375.838C290.719 375.52 290.183 375.062 289.785 374.466C289.387 373.864 289.188 373.136 289.188 372.284C289.188 371.534 289.336 370.926 289.631 370.46C289.927 369.989 290.322 369.619 290.816 369.352C291.31 369.085 291.856 368.886 292.452 368.756C293.055 368.619 293.66 368.511 294.268 368.432C295.063 368.33 295.708 368.253 296.202 368.202C296.702 368.145 297.066 368.051 297.293 367.92C297.526 367.79 297.643 367.562 297.643 367.239V367.17C297.643 366.33 297.413 365.676 296.952 365.21C296.498 364.744 295.808 364.511 294.881 364.511C293.921 364.511 293.168 364.722 292.623 365.142C292.077 365.562 291.694 366.011 291.472 366.489L289.563 365.807C289.904 365.011 290.359 364.392 290.927 363.949C291.501 363.5 292.126 363.187 292.802 363.011C293.484 362.83 294.154 362.739 294.813 362.739C295.234 362.739 295.717 362.79 296.262 362.892C296.813 362.989 297.344 363.19 297.856 363.497C298.373 363.804 298.802 364.267 299.143 364.886C299.484 365.506 299.654 366.335 299.654 367.375V376H297.643V374.227H297.54C297.404 374.511 297.177 374.815 296.859 375.139C296.54 375.463 296.117 375.739 295.589 375.966C295.06 376.193 294.415 376.307 293.654 376.307ZM293.961 374.5C294.756 374.5 295.427 374.344 295.972 374.031C296.523 373.719 296.938 373.315 297.217 372.821C297.501 372.327 297.643 371.807 297.643 371.261V369.42C297.558 369.523 297.37 369.616 297.08 369.702C296.796 369.781 296.467 369.852 296.092 369.915C295.722 369.972 295.362 370.023 295.009 370.068C294.663 370.108 294.381 370.142 294.165 370.17C293.643 370.239 293.154 370.349 292.7 370.503C292.251 370.651 291.887 370.875 291.609 371.176C291.336 371.472 291.2 371.875 291.2 372.386C291.2 373.085 291.458 373.614 291.975 373.972C292.498 374.324 293.16 374.5 293.961 374.5ZM312.598 365.841L310.791 366.352C310.678 366.051 310.51 365.759 310.288 365.474C310.072 365.185 309.777 364.946 309.402 364.759C309.027 364.571 308.547 364.477 307.962 364.477C307.161 364.477 306.493 364.662 305.959 365.031C305.43 365.395 305.166 365.858 305.166 366.42C305.166 366.92 305.348 367.315 305.712 367.605C306.075 367.895 306.643 368.136 307.416 368.33L309.359 368.807C310.53 369.091 311.402 369.526 311.976 370.111C312.55 370.69 312.837 371.437 312.837 372.352C312.837 373.102 312.621 373.773 312.189 374.364C311.763 374.955 311.166 375.42 310.399 375.761C309.632 376.102 308.74 376.273 307.723 376.273C306.388 376.273 305.283 375.983 304.408 375.403C303.533 374.824 302.979 373.977 302.746 372.864L304.655 372.386C304.837 373.091 305.18 373.619 305.686 373.972C306.197 374.324 306.865 374.5 307.689 374.5C308.626 374.5 309.371 374.301 309.922 373.903C310.479 373.5 310.757 373.017 310.757 372.455C310.757 372 310.598 371.619 310.28 371.312C309.962 371 309.473 370.767 308.814 370.614L306.632 370.102C305.433 369.818 304.553 369.378 303.99 368.781C303.433 368.179 303.155 367.426 303.155 366.523C303.155 365.784 303.362 365.131 303.777 364.562C304.197 363.994 304.768 363.548 305.49 363.224C306.217 362.901 307.041 362.739 307.962 362.739C309.257 362.739 310.274 363.023 311.013 363.591C311.757 364.159 312.286 364.909 312.598 365.841ZM321.353 376.273C320.092 376.273 319.004 375.994 318.089 375.438C317.18 374.875 316.478 374.091 315.984 373.085C315.495 372.074 315.251 370.898 315.251 369.557C315.251 368.216 315.495 367.034 315.984 366.011C316.478 364.983 317.165 364.182 318.046 363.608C318.933 363.028 319.967 362.739 321.148 362.739C321.83 362.739 322.504 362.852 323.168 363.08C323.833 363.307 324.438 363.676 324.984 364.188C325.529 364.693 325.964 365.364 326.288 366.199C326.612 367.034 326.773 368.062 326.773 369.284V370.136H316.683V368.398H324.728C324.728 367.659 324.58 367 324.285 366.42C323.995 365.841 323.58 365.384 323.04 365.048C322.506 364.713 321.876 364.545 321.148 364.545C320.347 364.545 319.654 364.744 319.069 365.142C318.489 365.534 318.043 366.045 317.731 366.676C317.418 367.307 317.262 367.983 317.262 368.705V369.864C317.262 370.852 317.433 371.69 317.773 372.378C318.12 373.06 318.6 373.58 319.214 373.938C319.827 374.29 320.54 374.466 321.353 374.466C321.881 374.466 322.359 374.392 322.785 374.244C323.217 374.091 323.589 373.864 323.901 373.562C324.214 373.256 324.455 372.875 324.626 372.42L326.569 372.966C326.364 373.625 326.021 374.205 325.538 374.705C325.055 375.199 324.458 375.585 323.748 375.864C323.038 376.136 322.239 376.273 321.353 376.273Z" fill="white"/>
<rect x="32" y="33" width="65" height="65" rx="32.5" fill="#F26A1B"/>
<mask id="mask0_3231_6084" style="mask-type:alpha" maskUnits="userSpaceOnUse" x="34" y="35" width="61" height="61">
<rect x="34.9541" y="35.9551" width="59.0909" height="59.0909" fill="#D9D9D9"/>
</mask>
<g mask="url(#mask0_3231_6084)">
<path d="M55.8799 80.5104V50.4922L79.459 65.5013L55.8799 80.5104Z" fill="white"/>
</g>
</g>
<defs>
<filter id="filter0_f_3231_6084" x="-419" y="-357" width="1524" height="1130" filterUnits="userSpaceOnUse" color-interpolation-filters="sRGB">
<feFlood flood-opacity="0" result="BackgroundImageFix"/>
<feBlend mode="normal" in="SourceGraphic" in2="BackgroundImageFix" result="shape"/>
<feGaussianBlur stdDeviation="257" result="effect1_foregroundBlur_3231_6084"/>
</filter>
<clipPath id="clip0_3231_6084">
<rect width="686" height="416" rx="9" fill="white"/>
</clipPath>
</defs>
</svg>
