<svg width="686" height="415" viewBox="0 0 686 415" fill="none" xmlns="http://www.w3.org/2000/svg">
<g clip-path="url(#clip0_3231_6004)">
<rect width="686" height="414.73" rx="9" fill="#252020"/>
<g filter="url(#filter0_f_3231_6004)">
<ellipse cx="343" cy="207" rx="248" ry="51" fill="#F26A1B"/>
</g>
<g opacity="0.1">
<path d="M684.658 181.709C646.425 166.328 609.192 148.697 572.746 129.573C569.946 128.082 567.16 126.576 564.373 125.042C603.281 103.766 643.541 84.9941 684.658 68.2911C702.909 61.4522 709.452 37.446 696.971 22.3611C686.783 9.62628 668.208 7.54368 655.473 17.7316C623.038 43.1591 589.154 66.5884 554.368 88.5824C551.681 90.271 548.979 91.9174 546.263 93.5638C547.304 49.224 551.174 4.98264 557.253 -38.9772C560.461 -58.1991 542.928 -75.8732 523.622 -72.6085C508.059 -70.2445 497.181 -56.1306 498.659 -40.6518C509.677 8.2332 516.009 58.652 517.022 110.196C517.064 112.307 517.107 114.418 517.135 116.529C517.163 118.935 517.177 121.327 517.191 123.733C517.191 124.156 517.191 124.578 517.191 125C517.191 125.394 517.191 125.774 517.191 126.168C517.191 126.196 517.191 126.224 517.191 126.252C517.191 128.827 517.163 131.403 517.135 133.978C517.135 134.343 517.135 134.723 517.121 135.089C517.121 136.032 517.093 136.961 517.078 137.904C516.178 190.109 509.832 241.161 498.673 290.652C497.209 306.13 508.073 320.244 523.636 322.608C542.942 325.873 560.475 308.213 557.267 288.977C551.188 245.045 547.318 200.832 546.277 156.52C584.13 179.57 620.491 205.04 655.487 232.268C670.53 244.665 694.593 238.305 701.417 219.956C707.356 204.772 699.869 187.633 684.672 181.695L684.658 181.709Z" fill="#F26A1B" fill-opacity="0.7"/>
<path d="M433.221 154.675C428.141 157.053 423.047 159.389 417.925 161.682C402.53 168.592 387.122 175.459 371.432 181.692C353.252 188.559 346.736 212.467 359.148 227.538C369.293 240.301 387.868 242.412 400.631 232.252C405.049 228.734 409.524 225.329 414.027 221.923C418.544 218.56 423.033 215.183 427.578 211.89C436.64 205.262 445.731 198.663 454.933 192.246C476.266 176.542 457.705 144.008 433.221 154.647V154.675Z" fill="#F26A1B" fill-opacity="0.7"/>
<path d="M454.92 57.7251C450.319 54.5168 445.745 51.2662 441.2 47.9875C427.523 38.1092 413.873 28.2028 400.618 17.7334C385.589 5.40666 361.611 11.7389 354.772 30.018C348.792 45.1873 356.25 62.3266 371.419 68.307C376.668 70.3756 381.874 72.5567 387.053 74.7378C392.217 76.9611 397.395 79.1703 402.517 81.464C412.79 85.9951 423.048 90.5684 433.208 95.3387C457.467 105.963 476.38 73.6261 454.92 57.7392V57.7251Z" fill="#F26A1B" fill-opacity="0.7"/>
</g>
<path d="M36.2273 357.545V375H34.1136V357.545H36.2273ZM42.2038 367.125V375H40.1925V361.909H42.1357V363.955H42.3061C42.6129 363.29 43.0788 362.756 43.7038 362.352C44.3288 361.943 45.1357 361.739 46.1243 361.739C47.0107 361.739 47.7862 361.92 48.451 362.284C49.1158 362.642 49.6328 363.188 50.0021 363.92C50.3714 364.648 50.5561 365.568 50.5561 366.682V375H48.5447V366.818C48.5447 365.79 48.2777 364.989 47.7436 364.415C47.2095 363.835 46.4766 363.545 45.5447 363.545C44.9027 363.545 44.3288 363.685 43.8232 363.963C43.3232 364.241 42.9283 364.648 42.6385 365.182C42.3487 365.716 42.2038 366.364 42.2038 367.125ZM61.7315 366.58V368.455H54.0952V366.58H61.7315ZM70.9297 375H65.5433V357.545H71.1683C72.8615 357.545 74.3104 357.895 75.5149 358.594C76.7195 359.287 77.6428 360.284 78.2848 361.585C78.9268 362.881 79.2479 364.432 79.2479 366.239C79.2479 368.057 78.924 369.622 78.2763 370.935C77.6286 372.241 76.6854 373.247 75.4467 373.952C74.2081 374.651 72.7024 375 70.9297 375ZM67.657 373.125H70.7933C72.2365 373.125 73.4325 372.847 74.3814 372.29C75.3303 371.733 76.0376 370.94 76.5036 369.912C76.9695 368.884 77.2024 367.659 77.2024 366.239C77.2024 364.83 76.9723 363.616 76.5121 362.599C76.0518 361.577 75.3643 360.793 74.4496 360.247C73.5348 359.696 72.3956 359.42 71.032 359.42H67.657V373.125ZM88.0092 375.273C86.7479 375.273 85.6598 374.994 84.745 374.438C83.8359 373.875 83.1342 373.091 82.6399 372.085C82.1513 371.074 81.907 369.898 81.907 368.557C81.907 367.216 82.1513 366.034 82.6399 365.011C83.1342 363.983 83.8217 363.182 84.7024 362.608C85.5888 362.028 86.6229 361.739 87.8047 361.739C88.4865 361.739 89.1598 361.852 89.8246 362.08C90.4893 362.307 91.0945 362.676 91.6399 363.188C92.1854 363.693 92.62 364.364 92.9439 365.199C93.2678 366.034 93.4297 367.062 93.4297 368.284V369.136H83.3388V367.398H91.3842C91.3842 366.659 91.2365 366 90.9411 365.42C90.6513 364.841 90.2365 364.384 89.6967 364.048C89.1626 363.713 88.532 363.545 87.8047 363.545C87.0036 363.545 86.3104 363.744 85.7251 364.142C85.1456 364.534 84.6996 365.045 84.3871 365.676C84.0746 366.307 83.9183 366.983 83.9183 367.705V368.864C83.9183 369.852 84.0888 370.69 84.4297 371.378C84.7763 372.06 85.2564 372.58 85.87 372.938C86.4837 373.29 87.1967 373.466 88.0092 373.466C88.5376 373.466 89.0149 373.392 89.4411 373.244C89.8729 373.091 90.245 372.864 90.5575 372.562C90.87 372.256 91.1115 371.875 91.282 371.42L93.2251 371.966C93.0206 372.625 92.6768 373.205 92.1939 373.705C91.7109 374.199 91.1143 374.585 90.4041 374.864C89.6939 375.136 88.8956 375.273 88.0092 375.273ZM96.4893 379.909V361.909H98.4325V363.989H98.6712C98.8189 363.761 99.0234 363.472 99.2848 363.119C99.5518 362.761 99.9325 362.443 100.427 362.165C100.927 361.881 101.603 361.739 102.455 361.739C103.558 361.739 104.529 362.014 105.37 362.565C106.211 363.116 106.867 363.898 107.339 364.909C107.81 365.92 108.046 367.114 108.046 368.489C108.046 369.875 107.81 371.077 107.339 372.094C106.867 373.105 106.214 373.889 105.379 374.446C104.543 374.997 103.58 375.273 102.489 375.273C101.648 375.273 100.975 375.134 100.469 374.855C99.9638 374.571 99.5746 374.25 99.3018 373.892C99.0291 373.528 98.8189 373.227 98.6712 372.989H98.5007V379.909H96.4893ZM98.4666 368.455C98.4666 369.443 98.6115 370.315 98.9013 371.071C99.1911 371.821 99.6143 372.409 100.171 372.835C100.728 373.256 101.41 373.466 102.217 373.466C103.058 373.466 103.759 373.244 104.322 372.801C104.89 372.352 105.316 371.75 105.6 370.994C105.89 370.233 106.035 369.386 106.035 368.455C106.035 367.534 105.893 366.705 105.609 365.966C105.33 365.222 104.907 364.634 104.339 364.202C103.776 363.764 103.069 363.545 102.217 363.545C101.398 363.545 100.711 363.753 100.154 364.168C99.5973 364.577 99.1768 365.151 98.8928 365.889C98.6087 366.622 98.4666 367.477 98.4666 368.455ZM116.808 361.909V363.614H110.023V361.909H116.808ZM112.001 358.773H114.012V371.25C114.012 371.818 114.094 372.244 114.259 372.528C114.43 372.807 114.646 372.994 114.907 373.091C115.174 373.182 115.455 373.227 115.751 373.227C115.972 373.227 116.154 373.216 116.296 373.193C116.438 373.165 116.552 373.142 116.637 373.125L117.046 374.932C116.91 374.983 116.719 375.034 116.475 375.085C116.231 375.142 115.921 375.17 115.546 375.17C114.978 375.17 114.421 375.048 113.876 374.804C113.336 374.56 112.887 374.188 112.529 373.688C112.177 373.188 112.001 372.557 112.001 371.795V358.773ZM122.126 367.125V375H120.114V357.545H122.126V363.955H122.296C122.603 363.278 123.063 362.741 123.677 362.344C124.296 361.94 125.12 361.739 126.148 361.739C127.04 361.739 127.822 361.918 128.492 362.276C129.163 362.628 129.683 363.17 130.052 363.903C130.427 364.631 130.614 365.557 130.614 366.682V375H128.603V366.818C128.603 365.778 128.333 364.974 127.793 364.406C127.259 363.832 126.518 363.545 125.569 363.545C124.91 363.545 124.319 363.685 123.796 363.963C123.279 364.241 122.87 364.648 122.569 365.182C122.273 365.716 122.126 366.364 122.126 367.125ZM142.033 375H139.817L146.226 357.545H148.408L154.817 375H152.601L147.385 360.307H147.249L142.033 375ZM142.851 368.182H151.783V370.057H142.851V368.182ZM159.274 367.125V375H157.263V361.909H159.206V363.955H159.376C159.683 363.29 160.149 362.756 160.774 362.352C161.399 361.943 162.206 361.739 163.195 361.739C164.081 361.739 164.857 361.92 165.521 362.284C166.186 362.642 166.703 363.188 167.072 363.92C167.442 364.648 167.626 365.568 167.626 366.682V375H165.615V366.818C165.615 365.79 165.348 364.989 164.814 364.415C164.28 363.835 163.547 363.545 162.615 363.545C161.973 363.545 161.399 363.685 160.893 363.963C160.393 364.241 159.999 364.648 159.709 365.182C159.419 365.716 159.274 366.364 159.274 367.125ZM175.154 375.307C174.325 375.307 173.572 375.151 172.896 374.838C172.219 374.52 171.683 374.062 171.285 373.466C170.887 372.864 170.688 372.136 170.688 371.284C170.688 370.534 170.836 369.926 171.131 369.46C171.427 368.989 171.822 368.619 172.316 368.352C172.81 368.085 173.356 367.886 173.952 367.756C174.555 367.619 175.16 367.511 175.768 367.432C176.563 367.33 177.208 367.253 177.702 367.202C178.202 367.145 178.566 367.051 178.793 366.92C179.026 366.79 179.143 366.562 179.143 366.239V366.17C179.143 365.33 178.913 364.676 178.452 364.21C177.998 363.744 177.308 363.511 176.381 363.511C175.421 363.511 174.668 363.722 174.123 364.142C173.577 364.562 173.194 365.011 172.972 365.489L171.063 364.807C171.404 364.011 171.859 363.392 172.427 362.949C173.001 362.5 173.626 362.187 174.302 362.011C174.984 361.83 175.654 361.739 176.313 361.739C176.734 361.739 177.217 361.79 177.762 361.892C178.313 361.989 178.844 362.19 179.356 362.497C179.873 362.804 180.302 363.267 180.643 363.886C180.984 364.506 181.154 365.335 181.154 366.375V375H179.143V373.227H179.04C178.904 373.511 178.677 373.815 178.359 374.139C178.04 374.463 177.617 374.739 177.089 374.966C176.56 375.193 175.915 375.307 175.154 375.307ZM175.461 373.5C176.256 373.5 176.927 373.344 177.472 373.031C178.023 372.719 178.438 372.315 178.717 371.821C179.001 371.327 179.143 370.807 179.143 370.261V368.42C179.058 368.523 178.87 368.616 178.58 368.702C178.296 368.781 177.967 368.852 177.592 368.915C177.222 368.972 176.862 369.023 176.509 369.068C176.163 369.108 175.881 369.142 175.665 369.17C175.143 369.239 174.654 369.349 174.2 369.503C173.751 369.651 173.387 369.875 173.109 370.176C172.836 370.472 172.7 370.875 172.7 371.386C172.7 372.085 172.958 372.614 173.475 372.972C173.998 373.324 174.66 373.5 175.461 373.5ZM186.837 357.545V375H184.825V357.545H186.837ZM191.816 379.909C191.475 379.909 191.171 379.881 190.904 379.824C190.637 379.773 190.452 379.722 190.35 379.67L190.862 377.898C191.35 378.023 191.782 378.068 192.157 378.034C192.532 378 192.864 377.832 193.154 377.531C193.45 377.236 193.719 376.756 193.964 376.091L194.339 375.068L189.498 361.909H191.68L195.293 372.341H195.43L199.043 361.909H201.225L195.668 376.909C195.418 377.585 195.109 378.145 194.739 378.588C194.37 379.037 193.941 379.369 193.452 379.585C192.969 379.801 192.424 379.909 191.816 379.909ZM213.153 364.841L211.346 365.352C211.232 365.051 211.065 364.759 210.843 364.474C210.627 364.185 210.332 363.946 209.957 363.759C209.582 363.571 209.102 363.477 208.516 363.477C207.715 363.477 207.048 363.662 206.513 364.031C205.985 364.395 205.721 364.858 205.721 365.42C205.721 365.92 205.903 366.315 206.266 366.605C206.63 366.895 207.198 367.136 207.971 367.33L209.914 367.807C211.085 368.091 211.957 368.526 212.531 369.111C213.104 369.69 213.391 370.437 213.391 371.352C213.391 372.102 213.175 372.773 212.744 373.364C212.317 373.955 211.721 374.42 210.954 374.761C210.187 375.102 209.295 375.273 208.278 375.273C206.942 375.273 205.837 374.983 204.962 374.403C204.087 373.824 203.533 372.977 203.3 371.864L205.21 371.386C205.391 372.091 205.735 372.619 206.241 372.972C206.752 373.324 207.42 373.5 208.244 373.5C209.181 373.5 209.925 373.301 210.477 372.903C211.033 372.5 211.312 372.017 211.312 371.455C211.312 371 211.153 370.619 210.835 370.312C210.516 370 210.028 369.767 209.369 369.614L207.187 369.102C205.988 368.818 205.107 368.378 204.545 367.781C203.988 367.179 203.71 366.426 203.71 365.523C203.71 364.784 203.917 364.131 204.332 363.562C204.752 362.994 205.323 362.548 206.045 362.224C206.772 361.901 207.596 361.739 208.516 361.739C209.812 361.739 210.829 362.023 211.567 362.591C212.312 363.159 212.84 363.909 213.153 364.841ZM216.419 375V361.909H218.43V375H216.419ZM217.442 359.727C217.05 359.727 216.712 359.594 216.428 359.327C216.149 359.06 216.01 358.739 216.01 358.364C216.01 357.989 216.149 357.668 216.428 357.401C216.712 357.134 217.05 357 217.442 357C217.834 357 218.169 357.134 218.447 357.401C218.732 357.668 218.874 357.989 218.874 358.364C218.874 358.739 218.732 359.06 218.447 359.327C218.169 359.594 217.834 359.727 217.442 359.727ZM231.387 364.841L229.58 365.352C229.467 365.051 229.299 364.759 229.077 364.474C228.862 364.185 228.566 363.946 228.191 363.759C227.816 363.571 227.336 363.477 226.751 363.477C225.95 363.477 225.282 363.662 224.748 364.031C224.219 364.395 223.955 364.858 223.955 365.42C223.955 365.92 224.137 366.315 224.501 366.605C224.864 366.895 225.433 367.136 226.205 367.33L228.148 367.807C229.319 368.091 230.191 368.526 230.765 369.111C231.339 369.69 231.626 370.437 231.626 371.352C231.626 372.102 231.41 372.773 230.978 373.364C230.552 373.955 229.955 374.42 229.188 374.761C228.421 375.102 227.529 375.273 226.512 375.273C225.177 375.273 224.072 374.983 223.197 374.403C222.322 373.824 221.768 372.977 221.535 371.864L223.444 371.386C223.626 372.091 223.969 372.619 224.475 372.972C224.987 373.324 225.654 373.5 226.478 373.5C227.415 373.5 228.16 373.301 228.711 372.903C229.268 372.5 229.546 372.017 229.546 371.455C229.546 371 229.387 370.619 229.069 370.312C228.751 370 228.262 369.767 227.603 369.614L225.421 369.102C224.222 368.818 223.342 368.378 222.779 367.781C222.222 367.179 221.944 366.426 221.944 365.523C221.944 364.784 222.151 364.131 222.566 363.562C222.987 362.994 223.558 362.548 224.279 362.224C225.006 361.901 225.83 361.739 226.751 361.739C228.046 361.739 229.063 362.023 229.802 362.591C230.546 363.159 231.075 363.909 231.387 364.841Z" fill="white"/>
<rect x="32" y="32" width="65" height="65" rx="32.5" fill="#F26A1B"/>
<mask id="mask0_3231_6004" style="mask-type:alpha" maskUnits="userSpaceOnUse" x="34" y="34" width="61" height="61">
<rect x="34.9541" y="34.9551" width="59.0909" height="59.0909" fill="#D9D9D9"/>
</mask>
<g mask="url(#mask0_3231_6004)">
<path d="M55.8799 79.5104V49.4922L79.459 64.5013L55.8799 79.5104Z" fill="white"/>
</g>
</g>
<defs>
<filter id="filter0_f_3231_6004" x="-419" y="-358" width="1524" height="1130" filterUnits="userSpaceOnUse" color-interpolation-filters="sRGB">
<feFlood flood-opacity="0" result="BackgroundImageFix"/>
<feBlend mode="normal" in="SourceGraphic" in2="BackgroundImageFix" result="shape"/>
<feGaussianBlur stdDeviation="257" result="effect1_foregroundBlur_3231_6004"/>
</filter>
<clipPath id="clip0_3231_6004">
<rect width="686" height="414.73" rx="9" fill="white"/>
</clipPath>
</defs>
</svg>
