<svg width="686" height="415" viewBox="0 0 686 415" fill="none" xmlns="http://www.w3.org/2000/svg">
<g clip-path="url(#clip0_3231_5991)">
<rect width="686" height="414.73" rx="9" fill="#252020"/>
<g filter="url(#filter0_f_3231_5991)">
<ellipse cx="343" cy="207" rx="248" ry="51" fill="#F26A1B"/>
</g>
<g opacity="0.1">
<path d="M684.658 181.709C646.425 166.328 609.192 148.697 572.746 129.573C569.946 128.082 567.16 126.576 564.373 125.042C603.281 103.766 643.541 84.9941 684.658 68.2911C702.909 61.4522 709.452 37.446 696.971 22.3611C686.783 9.62628 668.208 7.54368 655.473 17.7316C623.038 43.1591 589.154 66.5884 554.368 88.5824C551.681 90.271 548.979 91.9174 546.263 93.5638C547.304 49.224 551.174 4.98264 557.253 -38.9772C560.461 -58.1991 542.928 -75.8732 523.622 -72.6085C508.059 -70.2445 497.181 -56.1306 498.659 -40.6518C509.677 8.2332 516.009 58.652 517.022 110.196C517.064 112.307 517.107 114.418 517.135 116.529C517.163 118.935 517.177 121.327 517.191 123.733C517.191 124.156 517.191 124.578 517.191 125C517.191 125.394 517.191 125.774 517.191 126.168C517.191 126.196 517.191 126.224 517.191 126.252C517.191 128.827 517.163 131.403 517.135 133.978C517.135 134.343 517.135 134.723 517.121 135.089C517.121 136.032 517.093 136.961 517.078 137.904C516.178 190.109 509.832 241.161 498.673 290.652C497.209 306.13 508.073 320.244 523.636 322.608C542.942 325.873 560.475 308.213 557.267 288.977C551.188 245.045 547.318 200.832 546.277 156.52C584.13 179.57 620.491 205.04 655.487 232.268C670.53 244.665 694.593 238.305 701.417 219.956C707.356 204.772 699.869 187.633 684.672 181.695L684.658 181.709Z" fill="#F26A1B" fill-opacity="0.7"/>
<path d="M433.221 154.675C428.141 157.053 423.047 159.389 417.925 161.682C402.53 168.592 387.122 175.459 371.432 181.692C353.252 188.559 346.736 212.467 359.148 227.538C369.293 240.301 387.868 242.412 400.631 232.252C405.049 228.734 409.524 225.329 414.027 221.923C418.544 218.56 423.033 215.183 427.578 211.89C436.64 205.262 445.731 198.663 454.933 192.246C476.266 176.542 457.705 144.008 433.221 154.647V154.675Z" fill="#F26A1B" fill-opacity="0.7"/>
<path d="M454.92 57.7251C450.319 54.5168 445.745 51.2662 441.2 47.9875C427.523 38.1092 413.873 28.2028 400.618 17.7334C385.589 5.40666 361.611 11.7389 354.772 30.018C348.792 45.1873 356.25 62.3266 371.419 68.307C376.668 70.3756 381.874 72.5567 387.053 74.7378C392.217 76.9611 397.395 79.1703 402.517 81.464C412.79 85.9951 423.048 90.5684 433.208 95.3387C457.467 105.963 476.38 73.6261 454.92 57.7392V57.7251Z" fill="#F26A1B" fill-opacity="0.7"/>
</g>
<path d="M48.1591 363H46.0455C45.9205 362.392 45.7017 361.858 45.3892 361.398C45.0824 360.938 44.7074 360.551 44.2642 360.239C43.8267 359.92 43.3409 359.682 42.8068 359.523C42.2727 359.364 41.7159 359.284 41.1364 359.284C40.0795 359.284 39.1222 359.551 38.2642 360.085C37.4119 360.619 36.733 361.406 36.2273 362.446C35.7273 363.486 35.4773 364.761 35.4773 366.273C35.4773 367.784 35.7273 369.06 36.2273 370.099C36.733 371.139 37.4119 371.926 38.2642 372.46C39.1222 372.994 40.0795 373.261 41.1364 373.261C41.7159 373.261 42.2727 373.182 42.8068 373.023C43.3409 372.864 43.8267 372.628 44.2642 372.315C44.7074 371.997 45.0824 371.608 45.3892 371.148C45.7017 370.682 45.9205 370.148 46.0455 369.545H48.1591C48 370.437 47.7102 371.236 47.2898 371.94C46.8693 372.645 46.3466 373.244 45.7216 373.739C45.0966 374.227 44.3949 374.599 43.6165 374.855C42.8438 375.111 42.017 375.239 41.1364 375.239C39.6477 375.239 38.3239 374.875 37.1648 374.148C36.0057 373.42 35.0938 372.386 34.429 371.045C33.7642 369.705 33.4318 368.114 33.4318 366.273C33.4318 364.432 33.7642 362.841 34.429 361.5C35.0938 360.159 36.0057 359.125 37.1648 358.398C38.3239 357.67 39.6477 357.307 41.1364 357.307C42.017 357.307 42.8438 357.435 43.6165 357.69C44.3949 357.946 45.0966 358.321 45.7216 358.815C46.3466 359.304 46.8693 359.901 47.2898 360.605C47.7102 361.304 48 362.102 48.1591 363ZM51.3018 375V361.909H53.245V363.886H53.3814C53.62 363.239 54.0518 362.713 54.6768 362.31C55.3018 361.906 56.0064 361.705 56.7905 361.705C56.9382 361.705 57.1229 361.707 57.3445 361.713C57.5661 361.719 57.7337 361.727 57.8473 361.739V363.784C57.7791 363.767 57.6229 363.741 57.3786 363.707C57.1399 363.668 56.8871 363.648 56.62 363.648C55.9837 363.648 55.4155 363.781 54.9155 364.048C54.4212 364.31 54.0291 364.673 53.7393 365.139C53.4553 365.599 53.3132 366.125 53.3132 366.716V375H51.3018ZM65.3217 375.273C64.0604 375.273 62.9723 374.994 62.0575 374.438C61.1484 373.875 60.4467 373.091 59.9524 372.085C59.4638 371.074 59.2195 369.898 59.2195 368.557C59.2195 367.216 59.4638 366.034 59.9524 365.011C60.4467 363.983 61.1342 363.182 62.0149 362.608C62.9013 362.028 63.9354 361.739 65.1172 361.739C65.799 361.739 66.4723 361.852 67.1371 362.08C67.8018 362.307 68.407 362.676 68.9524 363.188C69.4979 363.693 69.9325 364.364 70.2564 365.199C70.5803 366.034 70.7422 367.062 70.7422 368.284V369.136H60.6513V367.398H68.6967C68.6967 366.659 68.549 366 68.2536 365.42C67.9638 364.841 67.549 364.384 67.0092 364.048C66.4751 363.713 65.8445 363.545 65.1172 363.545C64.3161 363.545 63.6229 363.744 63.0376 364.142C62.4581 364.534 62.0121 365.045 61.6996 365.676C61.3871 366.307 61.2308 366.983 61.2308 367.705V368.864C61.2308 369.852 61.4013 370.69 61.7422 371.378C62.0888 372.06 62.5689 372.58 63.1825 372.938C63.7962 373.29 64.5092 373.466 65.3217 373.466C65.8501 373.466 66.3274 373.392 66.7536 373.244C67.1854 373.091 67.5575 372.864 67.87 372.562C68.1825 372.256 68.424 371.875 68.5945 371.42L70.5376 371.966C70.3331 372.625 69.9893 373.205 69.5064 373.705C69.0234 374.199 68.4268 374.585 67.7166 374.864C67.0064 375.136 66.2081 375.273 65.3217 375.273ZM77.6541 375.307C76.8246 375.307 76.0717 375.151 75.3956 374.838C74.7195 374.52 74.1825 374.062 73.7848 373.466C73.3871 372.864 73.1882 372.136 73.1882 371.284C73.1882 370.534 73.3359 369.926 73.6314 369.46C73.9268 368.989 74.3217 368.619 74.8161 368.352C75.3104 368.085 75.8558 367.886 76.4524 367.756C77.0547 367.619 77.6598 367.511 78.2678 367.432C79.0632 367.33 79.7081 367.253 80.2024 367.202C80.7024 367.145 81.0661 367.051 81.2933 366.92C81.5263 366.79 81.6428 366.562 81.6428 366.239V366.17C81.6428 365.33 81.4126 364.676 80.9524 364.21C80.4979 363.744 79.8075 363.511 78.8814 363.511C77.9212 363.511 77.1683 363.722 76.6229 364.142C76.0774 364.562 75.6939 365.011 75.4723 365.489L73.5632 364.807C73.9041 364.011 74.3587 363.392 74.9268 362.949C75.5007 362.5 76.1257 362.187 76.8018 362.011C77.4837 361.83 78.1541 361.739 78.8132 361.739C79.2337 361.739 79.7166 361.79 80.2621 361.892C80.8132 361.989 81.3445 362.19 81.8558 362.497C82.3729 362.804 82.8018 363.267 83.1428 363.886C83.4837 364.506 83.6541 365.335 83.6541 366.375V375H81.6428V373.227H81.5405C81.4041 373.511 81.1768 373.815 80.8587 374.139C80.5405 374.463 80.1172 374.739 79.5888 374.966C79.0604 375.193 78.4155 375.307 77.6541 375.307ZM77.9609 373.5C78.7564 373.5 79.4268 373.344 79.9723 373.031C80.5234 372.719 80.9382 372.315 81.2166 371.821C81.5007 371.327 81.6428 370.807 81.6428 370.261V368.42C81.5575 368.523 81.37 368.616 81.0803 368.702C80.7962 368.781 80.4666 368.852 80.0916 368.915C79.7223 368.972 79.3615 369.023 79.0092 369.068C78.6626 369.108 78.3814 369.142 78.1655 369.17C77.6428 369.239 77.1541 369.349 76.6996 369.503C76.2507 369.651 75.8871 369.875 75.6087 370.176C75.3359 370.472 75.1996 370.875 75.1996 371.386C75.1996 372.085 75.4581 372.614 75.9751 372.972C76.4979 373.324 77.1598 373.5 77.9609 373.5ZM93.0185 361.909V363.614H86.2344V361.909H93.0185ZM88.2116 358.773H90.223V371.25C90.223 371.818 90.3054 372.244 90.4702 372.528C90.6406 372.807 90.8565 372.994 91.1179 373.091C91.3849 373.182 91.6662 373.227 91.9616 373.227C92.1832 373.227 92.3651 373.216 92.5071 373.193C92.6491 373.165 92.7628 373.142 92.848 373.125L93.2571 374.932C93.1207 374.983 92.9304 375.034 92.6861 375.085C92.4418 375.142 92.1321 375.17 91.7571 375.17C91.1889 375.17 90.6321 375.048 90.0866 374.804C89.5469 374.56 89.098 374.188 88.7401 373.688C88.3878 373.188 88.2116 372.557 88.2116 371.795V358.773ZM101.392 375.273C100.131 375.273 99.0426 374.994 98.1278 374.438C97.2188 373.875 96.517 373.091 96.0227 372.085C95.5341 371.074 95.2898 369.898 95.2898 368.557C95.2898 367.216 95.5341 366.034 96.0227 365.011C96.517 363.983 97.2045 363.182 98.0852 362.608C98.9716 362.028 100.006 361.739 101.188 361.739C101.869 361.739 102.543 361.852 103.207 362.08C103.872 362.307 104.477 362.676 105.023 363.188C105.568 363.693 106.003 364.364 106.327 365.199C106.651 366.034 106.812 367.062 106.812 368.284V369.136H96.7216V367.398H104.767C104.767 366.659 104.619 366 104.324 365.42C104.034 364.841 103.619 364.384 103.08 364.048C102.545 363.713 101.915 363.545 101.188 363.545C100.386 363.545 99.6932 363.744 99.108 364.142C98.5284 364.534 98.0824 365.045 97.7699 365.676C97.4574 366.307 97.3011 366.983 97.3011 367.705V368.864C97.3011 369.852 97.4716 370.69 97.8125 371.378C98.1591 372.06 98.6392 372.58 99.2528 372.938C99.8665 373.29 100.58 373.466 101.392 373.466C101.92 373.466 102.398 373.392 102.824 373.244C103.256 373.091 103.628 372.864 103.94 372.562C104.253 372.256 104.494 371.875 104.665 371.42L106.608 371.966C106.403 372.625 106.06 373.205 105.577 373.705C105.094 374.199 104.497 374.585 103.787 374.864C103.077 375.136 102.278 375.273 101.392 375.273ZM130.94 363H128.827C128.702 362.392 128.483 361.858 128.17 361.398C127.864 360.938 127.489 360.551 127.045 360.239C126.608 359.92 126.122 359.682 125.588 359.523C125.054 359.364 124.497 359.284 123.918 359.284C122.861 359.284 121.903 359.551 121.045 360.085C120.193 360.619 119.514 361.406 119.009 362.446C118.509 363.486 118.259 364.761 118.259 366.273C118.259 367.784 118.509 369.06 119.009 370.099C119.514 371.139 120.193 371.926 121.045 372.46C121.903 372.994 122.861 373.261 123.918 373.261C124.497 373.261 125.054 373.182 125.588 373.023C126.122 372.864 126.608 372.628 127.045 372.315C127.489 371.997 127.864 371.608 128.17 371.148C128.483 370.682 128.702 370.148 128.827 369.545H130.94C130.781 370.437 130.491 371.236 130.071 371.94C129.651 372.645 129.128 373.244 128.503 373.739C127.878 374.227 127.176 374.599 126.398 374.855C125.625 375.111 124.798 375.239 123.918 375.239C122.429 375.239 121.105 374.875 119.946 374.148C118.787 373.42 117.875 372.386 117.21 371.045C116.545 369.705 116.213 368.114 116.213 366.273C116.213 364.432 116.545 362.841 117.21 361.5C117.875 360.159 118.787 359.125 119.946 358.398C121.105 357.67 122.429 357.307 123.918 357.307C124.798 357.307 125.625 357.435 126.398 357.69C127.176 357.946 127.878 358.321 128.503 358.815C129.128 359.304 129.651 359.901 130.071 360.605C130.491 361.304 130.781 362.102 130.94 363ZM142.333 369.648V361.909H144.344V375H142.333V372.784H142.197C141.89 373.449 141.413 374.014 140.765 374.48C140.117 374.94 139.299 375.17 138.31 375.17C137.492 375.17 136.765 374.991 136.129 374.634C135.492 374.27 134.992 373.724 134.629 372.997C134.265 372.264 134.083 371.341 134.083 370.227V361.909H136.094V370.091C136.094 371.045 136.362 371.807 136.896 372.375C137.435 372.943 138.123 373.227 138.958 373.227C139.458 373.227 139.967 373.099 140.484 372.844C141.006 372.588 141.444 372.196 141.796 371.668C142.154 371.139 142.333 370.466 142.333 369.648ZM157.301 364.841L155.494 365.352C155.381 365.051 155.213 364.759 154.991 364.474C154.776 364.185 154.48 363.946 154.105 363.759C153.73 363.571 153.25 363.477 152.665 363.477C151.864 363.477 151.196 363.662 150.662 364.031C150.134 364.395 149.869 364.858 149.869 365.42C149.869 365.92 150.051 366.315 150.415 366.605C150.778 366.895 151.347 367.136 152.119 367.33L154.062 367.807C155.233 368.091 156.105 368.526 156.679 369.111C157.253 369.69 157.54 370.437 157.54 371.352C157.54 372.102 157.324 372.773 156.892 373.364C156.466 373.955 155.869 374.42 155.102 374.761C154.335 375.102 153.443 375.273 152.426 375.273C151.091 375.273 149.986 374.983 149.111 374.403C148.236 373.824 147.682 372.977 147.449 371.864L149.358 371.386C149.54 372.091 149.884 372.619 150.389 372.972C150.901 373.324 151.568 373.5 152.392 373.5C153.33 373.5 154.074 373.301 154.625 372.903C155.182 372.5 155.46 372.017 155.46 371.455C155.46 371 155.301 370.619 154.983 370.312C154.665 370 154.176 369.767 153.517 369.614L151.335 369.102C150.136 368.818 149.256 368.378 148.693 367.781C148.136 367.179 147.858 366.426 147.858 365.523C147.858 364.784 148.065 364.131 148.48 363.562C148.901 362.994 149.472 362.548 150.193 362.224C150.92 361.901 151.744 361.739 152.665 361.739C153.96 361.739 154.977 362.023 155.716 362.591C156.46 363.159 156.989 363.909 157.301 364.841ZM166.261 361.909V363.614H159.477V361.909H166.261ZM161.454 358.773H163.465V371.25C163.465 371.818 163.548 372.244 163.712 372.528C163.883 372.807 164.099 372.994 164.36 373.091C164.627 373.182 164.908 373.227 165.204 373.227C165.425 373.227 165.607 373.216 165.749 373.193C165.891 373.165 166.005 373.142 166.09 373.125L166.499 374.932C166.363 374.983 166.173 375.034 165.928 375.085C165.684 375.142 165.374 375.17 164.999 375.17C164.431 375.17 163.874 375.048 163.329 374.804C162.789 374.56 162.34 374.188 161.982 373.688C161.63 373.188 161.454 372.557 161.454 371.795V358.773ZM174.464 375.273C173.282 375.273 172.245 374.991 171.353 374.429C170.467 373.866 169.773 373.08 169.273 372.068C168.779 371.057 168.532 369.875 168.532 368.523C168.532 367.159 168.779 365.969 169.273 364.952C169.773 363.935 170.467 363.145 171.353 362.582C172.245 362.02 173.282 361.739 174.464 361.739C175.646 361.739 176.68 362.02 177.566 362.582C178.458 363.145 179.151 363.935 179.646 364.952C180.146 365.969 180.396 367.159 180.396 368.523C180.396 369.875 180.146 371.057 179.646 372.068C179.151 373.08 178.458 373.866 177.566 374.429C176.68 374.991 175.646 375.273 174.464 375.273ZM174.464 373.466C175.362 373.466 176.1 373.236 176.68 372.776C177.259 372.315 177.688 371.71 177.967 370.96C178.245 370.21 178.384 369.398 178.384 368.523C178.384 367.648 178.245 366.832 177.967 366.077C177.688 365.321 177.259 364.71 176.68 364.244C176.1 363.778 175.362 363.545 174.464 363.545C173.566 363.545 172.827 363.778 172.248 364.244C171.668 364.71 171.239 365.321 170.961 366.077C170.683 366.832 170.543 367.648 170.543 368.523C170.543 369.398 170.683 370.21 170.961 370.96C171.239 371.71 171.668 372.315 172.248 372.776C172.827 373.236 173.566 373.466 174.464 373.466ZM183.466 375V361.909H185.409V363.955H185.58C185.852 363.256 186.293 362.713 186.901 362.327C187.509 361.935 188.239 361.739 189.091 361.739C189.955 361.739 190.673 361.935 191.247 362.327C191.827 362.713 192.278 363.256 192.602 363.955H192.739C193.074 363.278 193.577 362.741 194.247 362.344C194.918 361.94 195.722 361.739 196.659 361.739C197.83 361.739 198.787 362.105 199.531 362.838C200.276 363.565 200.648 364.699 200.648 366.239V375H198.636V366.239C198.636 365.273 198.372 364.582 197.844 364.168C197.315 363.753 196.693 363.545 195.977 363.545C195.057 363.545 194.344 363.824 193.838 364.381C193.332 364.932 193.08 365.631 193.08 366.477V375H191.034V366.034C191.034 365.29 190.793 364.69 190.31 364.236C189.827 363.776 189.205 363.545 188.443 363.545C187.92 363.545 187.432 363.685 186.977 363.963C186.528 364.241 186.165 364.628 185.886 365.122C185.614 365.611 185.477 366.176 185.477 366.818V375H183.466ZM216.734 375H211.348V357.545H216.973C218.666 357.545 220.115 357.895 221.32 358.594C222.524 359.287 223.447 360.284 224.089 361.585C224.732 362.881 225.053 364.432 225.053 366.239C225.053 368.057 224.729 369.622 224.081 370.935C223.433 372.241 222.49 373.247 221.251 373.952C220.013 374.651 218.507 375 216.734 375ZM213.462 373.125H216.598C218.041 373.125 219.237 372.847 220.186 372.29C221.135 371.733 221.842 370.94 222.308 369.912C222.774 368.884 223.007 367.659 223.007 366.239C223.007 364.83 222.777 363.616 222.317 362.599C221.857 361.577 221.169 360.793 220.254 360.247C219.339 359.696 218.2 359.42 216.837 359.42H213.462V373.125ZM233.643 375.273C232.462 375.273 231.425 374.991 230.533 374.429C229.646 373.866 228.953 373.08 228.453 372.068C227.959 371.057 227.712 369.875 227.712 368.523C227.712 367.159 227.959 365.969 228.453 364.952C228.953 363.935 229.646 363.145 230.533 362.582C231.425 362.02 232.462 361.739 233.643 361.739C234.825 361.739 235.859 362.02 236.746 362.582C237.638 363.145 238.331 363.935 238.825 364.952C239.325 365.969 239.575 367.159 239.575 368.523C239.575 369.875 239.325 371.057 238.825 372.068C238.331 373.08 237.638 373.866 236.746 374.429C235.859 374.991 234.825 375.273 233.643 375.273ZM233.643 373.466C234.541 373.466 235.28 373.236 235.859 372.776C236.439 372.315 236.868 371.71 237.146 370.96C237.425 370.21 237.564 369.398 237.564 368.523C237.564 367.648 237.425 366.832 237.146 366.077C236.868 365.321 236.439 364.71 235.859 364.244C235.28 363.778 234.541 363.545 233.643 363.545C232.746 363.545 232.007 363.778 231.428 364.244C230.848 364.71 230.419 365.321 230.141 366.077C229.862 366.832 229.723 367.648 229.723 368.523C229.723 369.398 229.862 370.21 230.141 370.96C230.419 371.71 230.848 372.315 231.428 372.776C232.007 373.236 232.746 373.466 233.643 373.466ZM247.964 375.273C246.737 375.273 245.68 374.983 244.793 374.403C243.907 373.824 243.225 373.026 242.748 372.009C242.271 370.991 242.032 369.83 242.032 368.523C242.032 367.193 242.276 366.02 242.765 365.003C243.259 363.98 243.947 363.182 244.827 362.608C245.714 362.028 246.748 361.739 247.93 361.739C248.85 361.739 249.68 361.909 250.418 362.25C251.157 362.591 251.762 363.068 252.234 363.682C252.705 364.295 252.998 365.011 253.112 365.83H251.1C250.947 365.233 250.606 364.705 250.077 364.244C249.555 363.778 248.85 363.545 247.964 363.545C247.18 363.545 246.492 363.75 245.901 364.159C245.316 364.562 244.859 365.134 244.529 365.872C244.205 366.605 244.043 367.466 244.043 368.455C244.043 369.466 244.202 370.347 244.521 371.097C244.844 371.847 245.299 372.429 245.884 372.844C246.475 373.259 247.168 373.466 247.964 373.466C248.487 373.466 248.961 373.375 249.387 373.193C249.813 373.011 250.174 372.75 250.469 372.409C250.765 372.068 250.975 371.659 251.1 371.182H253.112C252.998 371.955 252.717 372.651 252.268 373.27C251.825 373.884 251.237 374.372 250.504 374.736C249.776 375.094 248.93 375.273 247.964 375.273ZM264.302 369.648V361.909H266.313V375H264.302V372.784H264.165C263.859 373.449 263.381 374.014 262.734 374.48C262.086 374.94 261.268 375.17 260.279 375.17C259.461 375.17 258.734 374.991 258.097 374.634C257.461 374.27 256.961 373.724 256.597 372.997C256.234 372.264 256.052 371.341 256.052 370.227V361.909H258.063V370.091C258.063 371.045 258.33 371.807 258.864 372.375C259.404 372.943 260.092 373.227 260.927 373.227C261.427 373.227 261.935 373.099 262.452 372.844C262.975 372.588 263.413 372.196 263.765 371.668C264.123 371.139 264.302 370.466 264.302 369.648ZM269.997 375V361.909H271.94V363.955H272.111C272.384 363.256 272.824 362.713 273.432 362.327C274.04 361.935 274.77 361.739 275.622 361.739C276.486 361.739 277.205 361.935 277.778 362.327C278.358 362.713 278.81 363.256 279.134 363.955H279.27C279.605 363.278 280.108 362.741 280.778 362.344C281.449 361.94 282.253 361.739 283.19 361.739C284.361 361.739 285.318 362.105 286.062 362.838C286.807 363.565 287.179 364.699 287.179 366.239V375H285.168V366.239C285.168 365.273 284.903 364.582 284.375 364.168C283.847 363.753 283.224 363.545 282.509 363.545C281.588 363.545 280.875 363.824 280.369 364.381C279.864 364.932 279.611 365.631 279.611 366.477V375H277.565V366.034C277.565 365.29 277.324 364.69 276.841 364.236C276.358 363.776 275.736 363.545 274.974 363.545C274.452 363.545 273.963 363.685 273.509 363.963C273.06 364.241 272.696 364.628 272.418 365.122C272.145 365.611 272.009 366.176 272.009 366.818V375H269.997ZM296.345 375.273C295.084 375.273 293.996 374.994 293.081 374.438C292.172 373.875 291.47 373.091 290.976 372.085C290.487 371.074 290.243 369.898 290.243 368.557C290.243 367.216 290.487 366.034 290.976 365.011C291.47 363.983 292.158 363.182 293.038 362.608C293.925 362.028 294.959 361.739 296.141 361.739C296.822 361.739 297.496 361.852 298.161 362.08C298.825 362.307 299.43 362.676 299.976 363.188C300.521 363.693 300.956 364.364 301.28 365.199C301.604 366.034 301.766 367.062 301.766 368.284V369.136H291.675V367.398H299.72C299.72 366.659 299.572 366 299.277 365.42C298.987 364.841 298.572 364.384 298.033 364.048C297.499 363.713 296.868 363.545 296.141 363.545C295.339 363.545 294.646 363.744 294.061 364.142C293.482 364.534 293.036 365.045 292.723 365.676C292.411 366.307 292.254 366.983 292.254 367.705V368.864C292.254 369.852 292.425 370.69 292.766 371.378C293.112 372.06 293.592 372.58 294.206 372.938C294.82 373.29 295.533 373.466 296.345 373.466C296.874 373.466 297.351 373.392 297.777 373.244C298.209 373.091 298.581 372.864 298.893 372.562C299.206 372.256 299.447 371.875 299.618 371.42L301.561 371.966C301.357 372.625 301.013 373.205 300.53 373.705C300.047 374.199 299.45 374.585 298.74 374.864C298.03 375.136 297.232 375.273 296.345 375.273ZM306.837 367.125V375H304.825V361.909H306.768V363.955H306.939C307.246 363.29 307.712 362.756 308.337 362.352C308.962 361.943 309.768 361.739 310.757 361.739C311.643 361.739 312.419 361.92 313.084 362.284C313.749 362.642 314.266 363.188 314.635 363.92C315.004 364.648 315.189 365.568 315.189 366.682V375H313.178V366.818C313.178 365.79 312.911 364.989 312.376 364.415C311.842 363.835 311.109 363.545 310.178 363.545C309.536 363.545 308.962 363.685 308.456 363.963C307.956 364.241 307.561 364.648 307.271 365.182C306.982 365.716 306.837 366.364 306.837 367.125ZM324.558 361.909V363.614H317.773V361.909H324.558ZM319.751 358.773H321.762V371.25C321.762 371.818 321.844 372.244 322.009 372.528C322.18 372.807 322.396 372.994 322.657 373.091C322.924 373.182 323.205 373.227 323.501 373.227C323.722 373.227 323.904 373.216 324.046 373.193C324.188 373.165 324.302 373.142 324.387 373.125L324.796 374.932C324.66 374.983 324.469 375.034 324.225 375.085C323.981 375.142 323.671 375.17 323.296 375.17C322.728 375.17 322.171 375.048 321.626 374.804C321.086 374.56 320.637 374.188 320.279 373.688C319.927 373.188 319.751 372.557 319.751 371.795V358.773ZM331.435 375.307C330.606 375.307 329.853 375.151 329.177 374.838C328.501 374.52 327.964 374.062 327.566 373.466C327.168 372.864 326.969 372.136 326.969 371.284C326.969 370.534 327.117 369.926 327.413 369.46C327.708 368.989 328.103 368.619 328.597 368.352C329.092 368.085 329.637 367.886 330.234 367.756C330.836 367.619 331.441 367.511 332.049 367.432C332.844 367.33 333.489 367.253 333.984 367.202C334.484 367.145 334.847 367.051 335.075 366.92C335.308 366.79 335.424 366.562 335.424 366.239V366.17C335.424 365.33 335.194 364.676 334.734 364.21C334.279 363.744 333.589 363.511 332.663 363.511C331.702 363.511 330.95 363.722 330.404 364.142C329.859 364.562 329.475 365.011 329.254 365.489L327.344 364.807C327.685 364.011 328.14 363.392 328.708 362.949C329.282 362.5 329.907 362.187 330.583 362.011C331.265 361.83 331.935 361.739 332.594 361.739C333.015 361.739 333.498 361.79 334.043 361.892C334.594 361.989 335.126 362.19 335.637 362.497C336.154 362.804 336.583 363.267 336.924 363.886C337.265 364.506 337.435 365.335 337.435 366.375V375H335.424V373.227H335.322C335.185 373.511 334.958 373.815 334.64 374.139C334.322 374.463 333.898 374.739 333.37 374.966C332.842 375.193 332.197 375.307 331.435 375.307ZM331.742 373.5C332.538 373.5 333.208 373.344 333.754 373.031C334.305 372.719 334.719 372.315 334.998 371.821C335.282 371.327 335.424 370.807 335.424 370.261V368.42C335.339 368.523 335.151 368.616 334.862 368.702C334.577 368.781 334.248 368.852 333.873 368.915C333.504 368.972 333.143 369.023 332.79 369.068C332.444 369.108 332.163 369.142 331.947 369.17C331.424 369.239 330.935 369.349 330.481 369.503C330.032 369.651 329.668 369.875 329.39 370.176C329.117 370.472 328.981 370.875 328.981 371.386C328.981 372.085 329.239 372.614 329.756 372.972C330.279 373.324 330.941 373.5 331.742 373.5ZM346.8 361.909V363.614H340.016V361.909H346.8ZM341.993 358.773H344.004V371.25C344.004 371.818 344.087 372.244 344.251 372.528C344.422 372.807 344.638 372.994 344.899 373.091C345.166 373.182 345.447 373.227 345.743 373.227C345.964 373.227 346.146 373.216 346.288 373.193C346.43 373.165 346.544 373.142 346.629 373.125L347.038 374.932C346.902 374.983 346.712 375.034 346.467 375.085C346.223 375.142 345.913 375.17 345.538 375.17C344.97 375.17 344.413 375.048 343.868 374.804C343.328 374.56 342.879 374.188 342.521 373.688C342.169 373.188 341.993 372.557 341.993 371.795V358.773ZM349.825 375V361.909H351.837V375H349.825ZM350.848 359.727C350.456 359.727 350.118 359.594 349.834 359.327C349.555 359.06 349.416 358.739 349.416 358.364C349.416 357.989 349.555 357.668 349.834 357.401C350.118 357.134 350.456 357 350.848 357C351.24 357 351.575 357.134 351.854 357.401C352.138 357.668 352.28 357.989 352.28 358.364C352.28 358.739 352.138 359.06 351.854 359.327C351.575 359.594 351.24 359.727 350.848 359.727ZM360.839 375.273C359.657 375.273 358.62 374.991 357.728 374.429C356.842 373.866 356.148 373.08 355.648 372.068C355.154 371.057 354.907 369.875 354.907 368.523C354.907 367.159 355.154 365.969 355.648 364.952C356.148 363.935 356.842 363.145 357.728 362.582C358.62 362.02 359.657 361.739 360.839 361.739C362.021 361.739 363.055 362.02 363.941 362.582C364.833 363.145 365.526 363.935 366.021 364.952C366.521 365.969 366.771 367.159 366.771 368.523C366.771 369.875 366.521 371.057 366.021 372.068C365.526 373.08 364.833 373.866 363.941 374.429C363.055 374.991 362.021 375.273 360.839 375.273ZM360.839 373.466C361.737 373.466 362.475 373.236 363.055 372.776C363.634 372.315 364.063 371.71 364.342 370.96C364.62 370.21 364.759 369.398 364.759 368.523C364.759 367.648 364.62 366.832 364.342 366.077C364.063 365.321 363.634 364.71 363.055 364.244C362.475 363.778 361.737 363.545 360.839 363.545C359.941 363.545 359.202 363.778 358.623 364.244C358.043 364.71 357.614 365.321 357.336 366.077C357.058 366.832 356.918 367.648 356.918 368.523C356.918 369.398 357.058 370.21 357.336 370.96C357.614 371.71 358.043 372.315 358.623 372.776C359.202 373.236 359.941 373.466 360.839 373.466ZM371.852 367.125V375H369.841V361.909H371.784V363.955H371.955C372.261 363.29 372.727 362.756 373.352 362.352C373.977 361.943 374.784 361.739 375.773 361.739C376.659 361.739 377.435 361.92 378.099 362.284C378.764 362.642 379.281 363.188 379.651 363.92C380.02 364.648 380.205 365.568 380.205 366.682V375H378.193V366.818C378.193 365.79 377.926 364.989 377.392 364.415C376.858 363.835 376.125 363.545 375.193 363.545C374.551 363.545 373.977 363.685 373.472 363.963C372.972 364.241 372.577 364.648 372.287 365.182C371.997 365.716 371.852 366.364 371.852 367.125Z" fill="white"/>
<rect x="32" y="32" width="65" height="65" rx="32.5" fill="#F26A1B"/>
<mask id="mask0_3231_5991" style="mask-type:alpha" maskUnits="userSpaceOnUse" x="34" y="34" width="61" height="61">
<rect x="34.9541" y="34.9551" width="59.0909" height="59.0909" fill="#D9D9D9"/>
</mask>
<g mask="url(#mask0_3231_5991)">
<path d="M55.8799 79.5104V49.4922L79.459 64.5013L55.8799 79.5104Z" fill="white"/>
</g>
</g>
<defs>
<filter id="filter0_f_3231_5991" x="-419" y="-358" width="1524" height="1130" filterUnits="userSpaceOnUse" color-interpolation-filters="sRGB">
<feFlood flood-opacity="0" result="BackgroundImageFix"/>
<feBlend mode="normal" in="SourceGraphic" in2="BackgroundImageFix" result="shape"/>
<feGaussianBlur stdDeviation="257" result="effect1_foregroundBlur_3231_5991"/>
</filter>
<clipPath id="clip0_3231_5991">
<rect width="686" height="414.73" rx="9" fill="white"/>
</clipPath>
</defs>
</svg>
