<svg width="686" height="415" viewBox="0 0 686 415" fill="none" xmlns="http://www.w3.org/2000/svg">
<g clip-path="url(#clip0_3231_6030)">
<rect width="686" height="414.73" rx="9" fill="#252020"/>
<g filter="url(#filter0_f_3231_6030)">
<ellipse cx="343" cy="207" rx="248" ry="51" fill="#F26A1B"/>
</g>
<g opacity="0.1">
<path d="M684.658 181.709C646.425 166.328 609.192 148.697 572.746 129.573C569.946 128.082 567.16 126.576 564.373 125.042C603.281 103.766 643.541 84.9941 684.658 68.2911C702.909 61.4522 709.452 37.446 696.971 22.3611C686.783 9.62628 668.208 7.54368 655.473 17.7316C623.038 43.1591 589.154 66.5884 554.368 88.5824C551.681 90.271 548.979 91.9174 546.263 93.5638C547.304 49.224 551.174 4.98264 557.253 -38.9772C560.461 -58.1991 542.928 -75.8732 523.622 -72.6085C508.059 -70.2445 497.181 -56.1306 498.659 -40.6518C509.677 8.2332 516.009 58.652 517.022 110.196C517.064 112.307 517.107 114.418 517.135 116.529C517.163 118.935 517.177 121.327 517.191 123.733C517.191 124.156 517.191 124.578 517.191 125C517.191 125.394 517.191 125.774 517.191 126.168C517.191 126.196 517.191 126.224 517.191 126.252C517.191 128.827 517.163 131.403 517.135 133.978C517.135 134.343 517.135 134.723 517.121 135.089C517.121 136.032 517.093 136.961 517.078 137.904C516.178 190.109 509.832 241.161 498.673 290.652C497.209 306.13 508.073 320.244 523.636 322.608C542.942 325.873 560.475 308.213 557.267 288.977C551.188 245.045 547.318 200.832 546.277 156.52C584.13 179.57 620.491 205.04 655.487 232.268C670.53 244.665 694.593 238.305 701.417 219.956C707.356 204.772 699.869 187.633 684.672 181.695L684.658 181.709Z" fill="#F26A1B" fill-opacity="0.7"/>
<path d="M433.221 154.675C428.141 157.053 423.047 159.389 417.925 161.682C402.53 168.592 387.122 175.459 371.432 181.692C353.252 188.559 346.736 212.467 359.148 227.538C369.293 240.301 387.868 242.412 400.631 232.252C405.049 228.734 409.524 225.329 414.027 221.923C418.544 218.56 423.033 215.183 427.578 211.89C436.64 205.262 445.731 198.663 454.933 192.246C476.266 176.542 457.705 144.008 433.221 154.647V154.675Z" fill="#F26A1B" fill-opacity="0.7"/>
<path d="M454.92 57.7251C450.319 54.5168 445.745 51.2662 441.2 47.9875C427.523 38.1092 413.873 28.2028 400.618 17.7334C385.589 5.40666 361.611 11.7389 354.772 30.018C348.792 45.1873 356.25 62.3266 371.419 68.307C376.668 70.3756 381.874 72.5567 387.053 74.7378C392.217 76.9611 397.395 79.1703 402.517 81.464C412.79 85.9951 423.048 90.5684 433.208 95.3387C457.467 105.963 476.38 73.6261 454.92 57.7392V57.7251Z" fill="#F26A1B" fill-opacity="0.7"/>
</g>
<path d="M43.6591 361.909C43.5568 361.045 43.142 360.375 42.4148 359.898C41.6875 359.42 40.7955 359.182 39.7386 359.182C38.9659 359.182 38.2898 359.307 37.7102 359.557C37.1364 359.807 36.6875 360.151 36.3636 360.588C36.0455 361.026 35.8864 361.523 35.8864 362.08C35.8864 362.545 35.9972 362.946 36.2188 363.281C36.446 363.611 36.7358 363.886 37.0881 364.108C37.4403 364.324 37.8097 364.503 38.196 364.645C38.5824 364.781 38.9375 364.892 39.2614 364.977L41.0341 365.455C41.4886 365.574 41.9943 365.739 42.5511 365.949C43.1136 366.159 43.6506 366.446 44.1619 366.81C44.679 367.168 45.1051 367.628 45.4403 368.19C45.7756 368.753 45.9432 369.443 45.9432 370.261C45.9432 371.205 45.696 372.057 45.2017 372.818C44.7131 373.58 43.9972 374.185 43.054 374.634C42.1165 375.082 40.9773 375.307 39.6364 375.307C38.3864 375.307 37.304 375.105 36.3892 374.702C35.4801 374.298 34.7642 373.736 34.2415 373.014C33.7244 372.293 33.4318 371.455 33.3636 370.5H35.5455C35.6023 371.159 35.8239 371.705 36.2102 372.136C36.6023 372.562 37.0966 372.881 37.6932 373.091C38.2955 373.295 38.9432 373.398 39.6364 373.398C40.4432 373.398 41.1676 373.267 41.8097 373.006C42.4517 372.739 42.9602 372.369 43.3352 371.898C43.7102 371.42 43.8977 370.864 43.8977 370.227C43.8977 369.648 43.7358 369.176 43.4119 368.812C43.0881 368.449 42.6619 368.153 42.1335 367.926C41.6051 367.699 41.0341 367.5 40.4205 367.33L38.2727 366.716C36.9091 366.324 35.8295 365.764 35.0341 365.037C34.2386 364.31 33.8409 363.358 33.8409 362.182C33.8409 361.205 34.1051 360.352 34.6335 359.625C35.1676 358.892 35.8835 358.324 36.7812 357.92C37.6847 357.511 38.6932 357.307 39.8068 357.307C40.9318 357.307 41.9318 357.509 42.8068 357.912C43.6818 358.31 44.375 358.855 44.8864 359.548C45.4034 360.241 45.6761 361.028 45.7045 361.909H43.6591ZM54.6342 375.273C53.3729 375.273 52.2848 374.994 51.37 374.438C50.4609 373.875 49.7592 373.091 49.2649 372.085C48.7763 371.074 48.532 369.898 48.532 368.557C48.532 367.216 48.7763 366.034 49.2649 365.011C49.7592 363.983 50.4467 363.182 51.3274 362.608C52.2138 362.028 53.2479 361.739 54.4297 361.739C55.1115 361.739 55.7848 361.852 56.4496 362.08C57.1143 362.307 57.7195 362.676 58.2649 363.188C58.8104 363.693 59.245 364.364 59.5689 365.199C59.8928 366.034 60.0547 367.062 60.0547 368.284V369.136H49.9638V367.398H58.0092C58.0092 366.659 57.8615 366 57.5661 365.42C57.2763 364.841 56.8615 364.384 56.3217 364.048C55.7876 363.713 55.157 363.545 54.4297 363.545C53.6286 363.545 52.9354 363.744 52.3501 364.142C51.7706 364.534 51.3246 365.045 51.0121 365.676C50.6996 366.307 50.5433 366.983 50.5433 367.705V368.864C50.5433 369.852 50.7138 370.69 51.0547 371.378C51.4013 372.06 51.8814 372.58 52.495 372.938C53.1087 373.29 53.8217 373.466 54.6342 373.466C55.1626 373.466 55.6399 373.392 56.0661 373.244C56.4979 373.091 56.87 372.864 57.1825 372.562C57.495 372.256 57.7365 371.875 57.907 371.42L59.8501 371.966C59.6456 372.625 59.3018 373.205 58.8189 373.705C58.3359 374.199 57.7393 374.585 57.0291 374.864C56.3189 375.136 55.5206 375.273 54.6342 375.273ZM68.8075 361.909V363.614H62.0234V361.909H68.8075ZM64.0007 358.773H66.0121V371.25C66.0121 371.818 66.0945 372.244 66.2592 372.528C66.4297 372.807 66.6456 372.994 66.907 373.091C67.174 373.182 67.4553 373.227 67.7507 373.227C67.9723 373.227 68.1541 373.216 68.2962 373.193C68.4382 373.165 68.5518 373.142 68.6371 373.125L69.0462 374.932C68.9098 374.983 68.7195 375.034 68.4751 375.085C68.2308 375.142 67.9212 375.17 67.5462 375.17C66.978 375.17 66.4212 375.048 65.8757 374.804C65.3359 374.56 64.8871 374.188 64.5291 373.688C64.1768 373.188 64.0007 372.557 64.0007 371.795V358.773ZM80.0831 369.648V361.909H82.0945V375H80.0831V372.784H79.9467C79.6399 373.449 79.1626 374.014 78.5149 374.48C77.8672 374.94 77.049 375.17 76.0604 375.17C75.2422 375.17 74.5149 374.991 73.8786 374.634C73.2422 374.27 72.7422 373.724 72.3786 372.997C72.0149 372.264 71.8331 371.341 71.8331 370.227V361.909H73.8445V370.091C73.8445 371.045 74.1115 371.807 74.6456 372.375C75.1854 372.943 75.8729 373.227 76.7081 373.227C77.2081 373.227 77.7166 373.099 78.2337 372.844C78.7564 372.588 79.1939 372.196 79.5462 371.668C79.9041 371.139 80.0831 370.466 80.0831 369.648ZM85.7784 379.909V361.909H87.7216V363.989H87.9602C88.108 363.761 88.3125 363.472 88.5739 363.119C88.8409 362.761 89.2216 362.443 89.7159 362.165C90.2159 361.881 90.892 361.739 91.7443 361.739C92.8466 361.739 93.8182 362.014 94.6591 362.565C95.5 363.116 96.1563 363.898 96.6278 364.909C97.0994 365.92 97.3352 367.114 97.3352 368.489C97.3352 369.875 97.0994 371.077 96.6278 372.094C96.1563 373.105 95.5028 373.889 94.6676 374.446C93.8324 374.997 92.8693 375.273 91.7784 375.273C90.9375 375.273 90.2642 375.134 89.7585 374.855C89.2528 374.571 88.8636 374.25 88.5909 373.892C88.3182 373.528 88.108 373.227 87.9602 372.989H87.7898V379.909H85.7784ZM87.7557 368.455C87.7557 369.443 87.9006 370.315 88.1903 371.071C88.4801 371.821 88.9034 372.409 89.4602 372.835C90.017 373.256 90.6989 373.466 91.5057 373.466C92.3466 373.466 93.0483 373.244 93.6108 372.801C94.179 372.352 94.6051 371.75 94.8892 370.994C95.179 370.233 95.3239 369.386 95.3239 368.455C95.3239 367.534 95.1818 366.705 94.8977 365.966C94.6193 365.222 94.196 364.634 93.6278 364.202C93.0653 363.764 92.358 363.545 91.5057 363.545C90.6875 363.545 90 363.753 89.4432 364.168C88.8864 364.577 88.4659 365.151 88.1818 365.889C87.8977 366.622 87.7557 367.477 87.7557 368.455ZM107.153 379.909V361.909H109.097V363.989H109.335C109.483 363.761 109.688 363.472 109.949 363.119C110.216 362.761 110.597 362.443 111.091 362.165C111.591 361.881 112.267 361.739 113.119 361.739C114.222 361.739 115.193 362.014 116.034 362.565C116.875 363.116 117.531 363.898 118.003 364.909C118.474 365.92 118.71 367.114 118.71 368.489C118.71 369.875 118.474 371.077 118.003 372.094C117.531 373.105 116.878 373.889 116.043 374.446C115.207 374.997 114.244 375.273 113.153 375.273C112.313 375.273 111.639 375.134 111.134 374.855C110.628 374.571 110.239 374.25 109.966 373.892C109.693 373.528 109.483 373.227 109.335 372.989H109.165V379.909H107.153ZM109.131 368.455C109.131 369.443 109.276 370.315 109.565 371.071C109.855 371.821 110.278 372.409 110.835 372.835C111.392 373.256 112.074 373.466 112.881 373.466C113.722 373.466 114.423 373.244 114.986 372.801C115.554 372.352 115.98 371.75 116.264 370.994C116.554 370.233 116.699 369.386 116.699 368.455C116.699 367.534 116.557 366.705 116.273 365.966C115.994 365.222 115.571 364.634 115.003 364.202C114.44 363.764 113.733 363.545 112.881 363.545C112.063 363.545 111.375 363.753 110.818 364.168C110.261 364.577 109.841 365.151 109.557 365.889C109.273 366.622 109.131 367.477 109.131 368.455ZM121.778 375V361.909H123.722V363.886H123.858C124.097 363.239 124.528 362.713 125.153 362.31C125.778 361.906 126.483 361.705 127.267 361.705C127.415 361.705 127.599 361.707 127.821 361.713C128.043 361.719 128.21 361.727 128.324 361.739V363.784C128.256 363.767 128.099 363.741 127.855 363.707C127.616 363.668 127.364 363.648 127.097 363.648C126.46 363.648 125.892 363.781 125.392 364.048C124.898 364.31 124.506 364.673 124.216 365.139C123.932 365.599 123.79 366.125 123.79 366.716V375H121.778ZM135.628 375.273C134.446 375.273 133.409 374.991 132.517 374.429C131.631 373.866 130.938 373.08 130.438 372.068C129.943 371.057 129.696 369.875 129.696 368.523C129.696 367.159 129.943 365.969 130.438 364.952C130.938 363.935 131.631 363.145 132.517 362.582C133.409 362.02 134.446 361.739 135.628 361.739C136.81 361.739 137.844 362.02 138.73 362.582C139.622 363.145 140.315 363.935 140.81 364.952C141.31 365.969 141.56 367.159 141.56 368.523C141.56 369.875 141.31 371.057 140.81 372.068C140.315 373.08 139.622 373.866 138.73 374.429C137.844 374.991 136.81 375.273 135.628 375.273ZM135.628 373.466C136.526 373.466 137.264 373.236 137.844 372.776C138.423 372.315 138.852 371.71 139.131 370.96C139.409 370.21 139.548 369.398 139.548 368.523C139.548 367.648 139.409 366.832 139.131 366.077C138.852 365.321 138.423 364.71 137.844 364.244C137.264 363.778 136.526 363.545 135.628 363.545C134.73 363.545 133.991 363.778 133.412 364.244C132.832 364.71 132.403 365.321 132.125 366.077C131.847 366.832 131.707 367.648 131.707 368.523C131.707 369.398 131.847 370.21 132.125 370.96C132.403 371.71 132.832 372.315 133.412 372.776C133.991 373.236 134.73 373.466 135.628 373.466ZM144.63 361.909H146.641V375.955C146.641 376.761 146.502 377.46 146.224 378.051C145.951 378.642 145.536 379.099 144.979 379.423C144.428 379.747 143.732 379.909 142.891 379.909C142.823 379.909 142.755 379.909 142.687 379.909C142.619 379.909 142.55 379.909 142.482 379.909V378.034C142.55 378.034 142.613 378.034 142.67 378.034C142.727 378.034 142.789 378.034 142.857 378.034C143.471 378.034 143.92 377.852 144.204 377.489C144.488 377.131 144.63 376.619 144.63 375.955V361.909ZM145.619 359.727C145.227 359.727 144.888 359.594 144.604 359.327C144.326 359.06 144.187 358.739 144.187 358.364C144.187 357.989 144.326 357.668 144.604 357.401C144.888 357.134 145.227 357 145.619 357C146.011 357 146.346 357.134 146.624 357.401C146.908 357.668 147.05 357.989 147.05 358.364C147.05 358.739 146.908 359.06 146.624 359.327C146.346 359.594 146.011 359.727 145.619 359.727ZM155.814 375.273C154.553 375.273 153.464 374.994 152.55 374.438C151.641 373.875 150.939 373.091 150.445 372.085C149.956 371.074 149.712 369.898 149.712 368.557C149.712 367.216 149.956 366.034 150.445 365.011C150.939 363.983 151.626 363.182 152.507 362.608C153.393 362.028 154.428 361.739 155.609 361.739C156.291 361.739 156.964 361.852 157.629 362.08C158.294 362.307 158.899 362.676 159.445 363.188C159.99 363.693 160.425 364.364 160.749 365.199C161.072 366.034 161.234 367.062 161.234 368.284V369.136H151.143V367.398H159.189C159.189 366.659 159.041 366 158.746 365.42C158.456 364.841 158.041 364.384 157.501 364.048C156.967 363.713 156.337 363.545 155.609 363.545C154.808 363.545 154.115 363.744 153.53 364.142C152.95 364.534 152.504 365.045 152.192 365.676C151.879 366.307 151.723 366.983 151.723 367.705V368.864C151.723 369.852 151.893 370.69 152.234 371.378C152.581 372.06 153.061 372.58 153.675 372.938C154.288 373.29 155.001 373.466 155.814 373.466C156.342 373.466 156.82 373.392 157.246 373.244C157.678 373.091 158.05 372.864 158.362 372.562C158.675 372.256 158.916 371.875 159.087 371.42L161.03 371.966C160.825 372.625 160.482 373.205 159.999 373.705C159.516 374.199 158.919 374.585 158.209 374.864C157.499 375.136 156.7 375.273 155.814 375.273ZM169.612 375.273C168.385 375.273 167.328 374.983 166.442 374.403C165.555 373.824 164.874 373.026 164.396 372.009C163.919 370.991 163.68 369.83 163.68 368.523C163.68 367.193 163.925 366.02 164.413 365.003C164.908 363.98 165.595 363.182 166.476 362.608C167.362 362.028 168.396 361.739 169.578 361.739C170.499 361.739 171.328 361.909 172.067 362.25C172.805 362.591 173.411 363.068 173.882 363.682C174.354 364.295 174.646 365.011 174.76 365.83H172.749C172.595 365.233 172.254 364.705 171.726 364.244C171.203 363.778 170.499 363.545 169.612 363.545C168.828 363.545 168.141 363.75 167.55 364.159C166.964 364.562 166.507 365.134 166.178 365.872C165.854 366.605 165.692 367.466 165.692 368.455C165.692 369.466 165.851 370.347 166.169 371.097C166.493 371.847 166.947 372.429 167.533 372.844C168.124 373.259 168.817 373.466 169.612 373.466C170.135 373.466 170.609 373.375 171.036 373.193C171.462 373.011 171.822 372.75 172.118 372.409C172.413 372.068 172.624 371.659 172.749 371.182H174.76C174.646 371.955 174.365 372.651 173.916 373.27C173.473 373.884 172.885 374.372 172.152 374.736C171.425 375.094 170.578 375.273 169.612 375.273ZM183.393 361.909V363.614H176.609V361.909H183.393ZM178.587 358.773H180.598V371.25C180.598 371.818 180.68 372.244 180.845 372.528C181.016 372.807 181.232 372.994 181.493 373.091C181.76 373.182 182.041 373.227 182.337 373.227C182.558 373.227 182.74 373.216 182.882 373.193C183.024 373.165 183.138 373.142 183.223 373.125L183.632 374.932C183.496 374.983 183.305 375.034 183.061 375.085C182.817 375.142 182.507 375.17 182.132 375.17C181.564 375.17 181.007 375.048 180.462 374.804C179.922 374.56 179.473 374.188 179.115 373.688C178.763 373.188 178.587 372.557 178.587 371.795V358.773ZM198.999 361.909V363.614H191.942V361.909H198.999ZM194.055 375V360.102C194.055 359.352 194.232 358.727 194.584 358.227C194.936 357.727 195.393 357.352 195.956 357.102C196.518 356.852 197.112 356.727 197.737 356.727C198.232 356.727 198.635 356.767 198.947 356.847C199.26 356.926 199.493 357 199.646 357.068L199.067 358.807C198.964 358.773 198.822 358.73 198.641 358.679C198.464 358.628 198.232 358.602 197.942 358.602C197.277 358.602 196.797 358.77 196.501 359.105C196.212 359.44 196.067 359.932 196.067 360.58V375H194.055ZM201.817 375V361.909H203.761V363.886H203.897C204.136 363.239 204.567 362.713 205.192 362.31C205.817 361.906 206.522 361.705 207.306 361.705C207.454 361.705 207.638 361.707 207.86 361.713C208.082 361.719 208.249 361.727 208.363 361.739V363.784C208.295 363.767 208.138 363.741 207.894 363.707C207.656 363.668 207.403 363.648 207.136 363.648C206.499 363.648 205.931 363.781 205.431 364.048C204.937 364.31 204.545 364.673 204.255 365.139C203.971 365.599 203.829 366.125 203.829 366.716V375H201.817ZM215.667 375.273C214.485 375.273 213.448 374.991 212.556 374.429C211.67 373.866 210.977 373.08 210.477 372.068C209.982 371.057 209.735 369.875 209.735 368.523C209.735 367.159 209.982 365.969 210.477 364.952C210.977 363.935 211.67 363.145 212.556 362.582C213.448 362.02 214.485 361.739 215.667 361.739C216.849 361.739 217.883 362.02 218.769 362.582C219.661 363.145 220.354 363.935 220.849 364.952C221.349 365.969 221.599 367.159 221.599 368.523C221.599 369.875 221.349 371.057 220.849 372.068C220.354 373.08 219.661 373.866 218.769 374.429C217.883 374.991 216.849 375.273 215.667 375.273ZM215.667 373.466C216.565 373.466 217.303 373.236 217.883 372.776C218.462 372.315 218.891 371.71 219.17 370.96C219.448 370.21 219.587 369.398 219.587 368.523C219.587 367.648 219.448 366.832 219.17 366.077C218.891 365.321 218.462 364.71 217.883 364.244C217.303 363.778 216.565 363.545 215.667 363.545C214.769 363.545 214.031 363.778 213.451 364.244C212.871 364.71 212.442 365.321 212.164 366.077C211.886 366.832 211.746 367.648 211.746 368.523C211.746 369.398 211.886 370.21 212.164 370.96C212.442 371.71 212.871 372.315 213.451 372.776C214.031 373.236 214.769 373.466 215.667 373.466ZM224.669 375V361.909H226.612V363.955H226.783C227.055 363.256 227.496 362.713 228.104 362.327C228.712 361.935 229.442 361.739 230.294 361.739C231.158 361.739 231.876 361.935 232.45 362.327C233.03 362.713 233.482 363.256 233.805 363.955H233.942C234.277 363.278 234.78 362.741 235.45 362.344C236.121 361.94 236.925 361.739 237.862 361.739C239.033 361.739 239.99 362.105 240.734 362.838C241.479 363.565 241.851 364.699 241.851 366.239V375H239.839V366.239C239.839 365.273 239.575 364.582 239.047 364.168C238.518 363.753 237.896 363.545 237.18 363.545C236.26 363.545 235.547 363.824 235.041 364.381C234.536 364.932 234.283 365.631 234.283 366.477V375H232.237V366.034C232.237 365.29 231.996 364.69 231.513 364.236C231.03 363.776 230.408 363.545 229.646 363.545C229.124 363.545 228.635 363.685 228.18 363.963C227.732 364.241 227.368 364.628 227.089 365.122C226.817 365.611 226.68 366.176 226.68 366.818V375H224.669ZM257.767 375.273C256.506 375.273 255.418 374.994 254.503 374.438C253.594 373.875 252.892 373.091 252.398 372.085C251.909 371.074 251.665 369.898 251.665 368.557C251.665 367.216 251.909 366.034 252.398 365.011C252.892 363.983 253.58 363.182 254.46 362.608C255.347 362.028 256.381 361.739 257.562 361.739C258.244 361.739 258.918 361.852 259.582 362.08C260.247 362.307 260.852 362.676 261.398 363.188C261.943 363.693 262.378 364.364 262.702 365.199C263.026 366.034 263.188 367.062 263.188 368.284V369.136H253.097V367.398H261.142C261.142 366.659 260.994 366 260.699 365.42C260.409 364.841 259.994 364.384 259.455 364.048C258.92 363.713 258.29 363.545 257.562 363.545C256.761 363.545 256.068 363.744 255.483 364.142C254.903 364.534 254.457 365.045 254.145 365.676C253.832 366.307 253.676 366.983 253.676 367.705V368.864C253.676 369.852 253.847 370.69 254.188 371.378C254.534 372.06 255.014 372.58 255.628 372.938C256.241 373.29 256.955 373.466 257.767 373.466C258.295 373.466 258.773 373.392 259.199 373.244C259.631 373.091 260.003 372.864 260.315 372.562C260.628 372.256 260.869 371.875 261.04 371.42L262.983 371.966C262.778 372.625 262.435 373.205 261.952 373.705C261.469 374.199 260.872 374.585 260.162 374.864C259.452 375.136 258.653 375.273 257.767 375.273ZM267.396 361.909L270.532 367.261L273.668 361.909H275.987L271.759 368.455L275.987 375H273.668L270.532 369.92L267.396 375H265.077L269.237 368.455L265.077 361.909H267.396ZM278.857 375V361.909H280.868V375H278.857ZM279.879 359.727C279.487 359.727 279.149 359.594 278.865 359.327C278.587 359.06 278.447 358.739 278.447 358.364C278.447 357.989 278.587 357.668 278.865 357.401C279.149 357.134 279.487 357 279.879 357C280.271 357 280.607 357.134 280.885 357.401C281.169 357.668 281.311 357.989 281.311 358.364C281.311 358.739 281.169 359.06 280.885 359.327C280.607 359.594 280.271 359.727 279.879 359.727ZM293.825 364.841L292.018 365.352C291.904 365.051 291.737 364.759 291.515 364.474C291.299 364.185 291.004 363.946 290.629 363.759C290.254 363.571 289.773 363.477 289.188 363.477C288.387 363.477 287.719 363.662 287.185 364.031C286.657 364.395 286.393 364.858 286.393 365.42C286.393 365.92 286.575 366.315 286.938 366.605C287.302 366.895 287.87 367.136 288.643 367.33L290.586 367.807C291.756 368.091 292.629 368.526 293.202 369.111C293.776 369.69 294.063 370.437 294.063 371.352C294.063 372.102 293.847 372.773 293.415 373.364C292.989 373.955 292.393 374.42 291.626 374.761C290.859 375.102 289.967 375.273 288.95 375.273C287.614 375.273 286.509 374.983 285.634 374.403C284.759 373.824 284.205 372.977 283.972 371.864L285.881 371.386C286.063 372.091 286.407 372.619 286.913 372.972C287.424 373.324 288.092 373.5 288.915 373.5C289.853 373.5 290.597 373.301 291.148 372.903C291.705 372.5 291.984 372.017 291.984 371.455C291.984 371 291.825 370.619 291.506 370.312C291.188 370 290.7 369.767 290.04 369.614L287.859 369.102C286.66 368.818 285.779 368.378 285.217 367.781C284.66 367.179 284.381 366.426 284.381 365.523C284.381 364.784 284.589 364.131 285.004 363.562C285.424 362.994 285.995 362.548 286.717 362.224C287.444 361.901 288.268 361.739 289.188 361.739C290.484 361.739 291.501 362.023 292.239 362.591C292.984 363.159 293.512 363.909 293.825 364.841ZM302.784 361.909V363.614H296V361.909H302.784ZM297.977 358.773H299.989V371.25C299.989 371.818 300.071 372.244 300.236 372.528C300.406 372.807 300.622 372.994 300.884 373.091C301.151 373.182 301.432 373.227 301.727 373.227C301.949 373.227 302.131 373.216 302.273 373.193C302.415 373.165 302.528 373.142 302.614 373.125L303.023 374.932C302.886 374.983 302.696 375.034 302.452 375.085C302.207 375.142 301.898 375.17 301.523 375.17C300.955 375.17 300.398 375.048 299.852 374.804C299.313 374.56 298.864 374.188 298.506 373.688C298.153 373.188 297.977 372.557 297.977 371.795V358.773ZM305.81 375V361.909H307.821V375H305.81ZM306.832 359.727C306.44 359.727 306.102 359.594 305.818 359.327C305.54 359.06 305.401 358.739 305.401 358.364C305.401 357.989 305.54 357.668 305.818 357.401C306.102 357.134 306.44 357 306.832 357C307.224 357 307.56 357.134 307.838 357.401C308.122 357.668 308.264 357.989 308.264 358.364C308.264 358.739 308.122 359.06 307.838 359.327C307.56 359.594 307.224 359.727 306.832 359.727ZM313.516 367.125V375H311.505V361.909H313.448V363.955H313.619C313.925 363.29 314.391 362.756 315.016 362.352C315.641 361.943 316.448 361.739 317.437 361.739C318.323 361.739 319.099 361.92 319.763 362.284C320.428 362.642 320.945 363.188 321.315 363.92C321.684 364.648 321.869 365.568 321.869 366.682V375H319.857V366.818C319.857 365.79 319.59 364.989 319.056 364.415C318.522 363.835 317.789 363.545 316.857 363.545C316.215 363.545 315.641 363.685 315.136 363.963C314.636 364.241 314.241 364.648 313.951 365.182C313.661 365.716 313.516 366.364 313.516 367.125ZM330.828 380.182C329.857 380.182 329.021 380.057 328.322 379.807C327.624 379.562 327.041 379.239 326.575 378.835C326.115 378.438 325.749 378.011 325.476 377.557L327.078 376.432C327.26 376.67 327.49 376.943 327.768 377.25C328.047 377.562 328.428 377.832 328.911 378.06C329.399 378.293 330.038 378.409 330.828 378.409C331.885 378.409 332.757 378.153 333.445 377.642C334.132 377.131 334.476 376.33 334.476 375.239V372.58H334.305C334.158 372.818 333.947 373.114 333.675 373.466C333.408 373.812 333.021 374.122 332.516 374.395C332.016 374.662 331.339 374.795 330.487 374.795C329.43 374.795 328.482 374.545 327.641 374.045C326.805 373.545 326.143 372.818 325.655 371.864C325.172 370.909 324.93 369.75 324.93 368.386C324.93 367.045 325.166 365.878 325.638 364.884C326.109 363.884 326.766 363.111 327.607 362.565C328.447 362.014 329.419 361.739 330.521 361.739C331.374 361.739 332.05 361.881 332.55 362.165C333.055 362.443 333.442 362.761 333.709 363.119C333.982 363.472 334.192 363.761 334.339 363.989H334.544V361.909H336.487V375.375C336.487 376.5 336.232 377.415 335.72 378.119C335.214 378.83 334.533 379.349 333.675 379.679C332.822 380.014 331.874 380.182 330.828 380.182ZM330.76 372.989C331.567 372.989 332.249 372.804 332.805 372.435C333.362 372.065 333.786 371.534 334.075 370.841C334.365 370.148 334.51 369.318 334.51 368.352C334.51 367.409 334.368 366.577 334.084 365.855C333.8 365.134 333.379 364.568 332.822 364.159C332.266 363.75 331.578 363.545 330.76 363.545C329.908 363.545 329.197 363.761 328.629 364.193C328.067 364.625 327.643 365.205 327.359 365.932C327.081 366.659 326.942 367.466 326.942 368.352C326.942 369.261 327.084 370.065 327.368 370.764C327.658 371.457 328.084 372.003 328.646 372.401C329.214 372.793 329.919 372.989 330.76 372.989ZM351.862 375.273C350.771 375.273 349.808 374.997 348.973 374.446C348.138 373.889 347.484 373.105 347.013 372.094C346.541 371.077 346.305 369.875 346.305 368.489C346.305 367.114 346.541 365.92 347.013 364.909C347.484 363.898 348.141 363.116 348.982 362.565C349.822 362.014 350.794 361.739 351.896 361.739C352.749 361.739 353.422 361.881 353.916 362.165C354.416 362.443 354.797 362.761 355.058 363.119C355.325 363.472 355.533 363.761 355.68 363.989H355.851V357.545H357.862V375H355.919V372.989H355.68C355.533 373.227 355.322 373.528 355.05 373.892C354.777 374.25 354.388 374.571 353.882 374.855C353.376 375.134 352.703 375.273 351.862 375.273ZM352.135 373.466C352.942 373.466 353.624 373.256 354.18 372.835C354.737 372.409 355.161 371.821 355.45 371.071C355.74 370.315 355.885 369.443 355.885 368.455C355.885 367.477 355.743 366.622 355.459 365.889C355.175 365.151 354.754 364.577 354.197 364.168C353.641 363.753 352.953 363.545 352.135 363.545C351.283 363.545 350.572 363.764 350.004 364.202C349.442 364.634 349.018 365.222 348.734 365.966C348.456 366.705 348.317 367.534 348.317 368.455C348.317 369.386 348.459 370.233 348.743 370.994C349.033 371.75 349.459 372.352 350.021 372.801C350.589 373.244 351.294 373.466 352.135 373.466ZM367.143 375.273C365.962 375.273 364.925 374.991 364.033 374.429C363.146 373.866 362.453 373.08 361.953 372.068C361.459 371.057 361.212 369.875 361.212 368.523C361.212 367.159 361.459 365.969 361.953 364.952C362.453 363.935 363.146 363.145 364.033 362.582C364.925 362.02 365.962 361.739 367.143 361.739C368.325 361.739 369.359 362.02 370.246 362.582C371.138 363.145 371.831 363.935 372.325 364.952C372.825 365.969 373.075 367.159 373.075 368.523C373.075 369.875 372.825 371.057 372.325 372.068C371.831 373.08 371.138 373.866 370.246 374.429C369.359 374.991 368.325 375.273 367.143 375.273ZM367.143 373.466C368.041 373.466 368.78 373.236 369.359 372.776C369.939 372.315 370.368 371.71 370.646 370.96C370.925 370.21 371.064 369.398 371.064 368.523C371.064 367.648 370.925 366.832 370.646 366.077C370.368 365.321 369.939 364.71 369.359 364.244C368.78 363.778 368.041 363.545 367.143 363.545C366.246 363.545 365.507 363.778 364.928 364.244C364.348 364.71 363.919 365.321 363.641 366.077C363.362 366.832 363.223 367.648 363.223 368.523C363.223 369.398 363.362 370.21 363.641 370.96C363.919 371.71 364.348 372.315 364.928 372.776C365.507 373.236 366.246 373.466 367.143 373.466ZM381.464 375.273C380.237 375.273 379.18 374.983 378.293 374.403C377.407 373.824 376.725 373.026 376.248 372.009C375.771 370.991 375.532 369.83 375.532 368.523C375.532 367.193 375.776 366.02 376.265 365.003C376.759 363.98 377.447 363.182 378.327 362.608C379.214 362.028 380.248 361.739 381.43 361.739C382.35 361.739 383.18 361.909 383.918 362.25C384.657 362.591 385.262 363.068 385.734 363.682C386.205 364.295 386.498 365.011 386.612 365.83H384.6C384.447 365.233 384.106 364.705 383.577 364.244C383.055 363.778 382.35 363.545 381.464 363.545C380.68 363.545 379.992 363.75 379.401 364.159C378.816 364.562 378.359 365.134 378.029 365.872C377.705 366.605 377.543 367.466 377.543 368.455C377.543 369.466 377.702 370.347 378.021 371.097C378.344 371.847 378.799 372.429 379.384 372.844C379.975 373.259 380.668 373.466 381.464 373.466C381.987 373.466 382.461 373.375 382.887 373.193C383.313 373.011 383.674 372.75 383.969 372.409C384.265 372.068 384.475 371.659 384.6 371.182H386.612C386.498 371.955 386.217 372.651 385.768 373.27C385.325 373.884 384.737 374.372 384.004 374.736C383.276 375.094 382.43 375.273 381.464 375.273ZM398.825 364.841L397.018 365.352C396.904 365.051 396.737 364.759 396.515 364.474C396.299 364.185 396.004 363.946 395.629 363.759C395.254 363.571 394.773 363.477 394.188 363.477C393.387 363.477 392.719 363.662 392.185 364.031C391.657 364.395 391.393 364.858 391.393 365.42C391.393 365.92 391.575 366.315 391.938 366.605C392.302 366.895 392.87 367.136 393.643 367.33L395.586 367.807C396.756 368.091 397.629 368.526 398.202 369.111C398.776 369.69 399.063 370.437 399.063 371.352C399.063 372.102 398.847 372.773 398.415 373.364C397.989 373.955 397.393 374.42 396.626 374.761C395.859 375.102 394.967 375.273 393.95 375.273C392.614 375.273 391.509 374.983 390.634 374.403C389.759 373.824 389.205 372.977 388.972 371.864L390.881 371.386C391.063 372.091 391.407 372.619 391.913 372.972C392.424 373.324 393.092 373.5 393.915 373.5C394.853 373.5 395.597 373.301 396.148 372.903C396.705 372.5 396.984 372.017 396.984 371.455C396.984 371 396.825 370.619 396.506 370.312C396.188 370 395.7 369.767 395.04 369.614L392.859 369.102C391.66 368.818 390.779 368.378 390.217 367.781C389.66 367.179 389.381 366.426 389.381 365.523C389.381 364.784 389.589 364.131 390.004 363.562C390.424 362.994 390.995 362.548 391.717 362.224C392.444 361.901 393.268 361.739 394.188 361.739C395.484 361.739 396.501 362.023 397.239 362.591C397.984 363.159 398.512 363.909 398.825 364.841Z" fill="white"/>
<rect x="32" y="32" width="65" height="65" rx="32.5" fill="#F26A1B"/>
<mask id="mask0_3231_6030" style="mask-type:alpha" maskUnits="userSpaceOnUse" x="34" y="34" width="61" height="61">
<rect x="34.9541" y="34.9551" width="59.0909" height="59.0909" fill="#D9D9D9"/>
</mask>
<g mask="url(#mask0_3231_6030)">
<path d="M55.8799 79.5104V49.4922L79.459 64.5013L55.8799 79.5104Z" fill="white"/>
</g>
</g>
<defs>
<filter id="filter0_f_3231_6030" x="-419" y="-358" width="1524" height="1130" filterUnits="userSpaceOnUse" color-interpolation-filters="sRGB">
<feFlood flood-opacity="0" result="BackgroundImageFix"/>
<feBlend mode="normal" in="SourceGraphic" in2="BackgroundImageFix" result="shape"/>
<feGaussianBlur stdDeviation="257" result="effect1_foregroundBlur_3231_6030"/>
</filter>
<clipPath id="clip0_3231_6030">
<rect width="686" height="414.73" rx="9" fill="white"/>
</clipPath>
</defs>
</svg>
