<svg width="686" height="415" viewBox="0 0 686 415" fill="none" xmlns="http://www.w3.org/2000/svg">
<g clip-path="url(#clip0_3231_6043)">
<rect width="686" height="414.73" rx="9" fill="#252020"/>
<g filter="url(#filter0_f_3231_6043)">
<ellipse cx="343" cy="207" rx="248" ry="51" fill="#F26A1B"/>
</g>
<g opacity="0.1">
<path d="M684.658 181.709C646.425 166.328 609.192 148.697 572.746 129.573C569.946 128.082 567.16 126.576 564.373 125.042C603.281 103.766 643.541 84.9941 684.658 68.2911C702.909 61.4522 709.452 37.446 696.971 22.3611C686.783 9.62628 668.208 7.54368 655.473 17.7316C623.038 43.1591 589.154 66.5884 554.368 88.5824C551.681 90.271 548.979 91.9174 546.263 93.5638C547.304 49.224 551.174 4.98264 557.253 -38.9772C560.461 -58.1991 542.928 -75.8732 523.622 -72.6085C508.059 -70.2445 497.181 -56.1306 498.659 -40.6518C509.677 8.2332 516.009 58.652 517.022 110.196C517.064 112.307 517.107 114.418 517.135 116.529C517.163 118.935 517.177 121.327 517.191 123.733C517.191 124.156 517.191 124.578 517.191 125C517.191 125.394 517.191 125.774 517.191 126.168C517.191 126.196 517.191 126.224 517.191 126.252C517.191 128.827 517.163 131.403 517.135 133.978C517.135 134.343 517.135 134.723 517.121 135.089C517.121 136.032 517.093 136.961 517.078 137.904C516.178 190.109 509.832 241.161 498.673 290.652C497.209 306.13 508.073 320.244 523.636 322.608C542.942 325.873 560.475 308.213 557.267 288.977C551.188 245.045 547.318 200.832 546.277 156.52C584.13 179.57 620.491 205.04 655.487 232.268C670.53 244.665 694.593 238.305 701.417 219.956C707.356 204.772 699.869 187.633 684.672 181.695L684.658 181.709Z" fill="#F26A1B" fill-opacity="0.7"/>
<path d="M433.221 154.675C428.141 157.053 423.047 159.389 417.925 161.682C402.53 168.592 387.122 175.459 371.432 181.692C353.252 188.559 346.736 212.467 359.148 227.538C369.293 240.301 387.868 242.412 400.631 232.252C405.049 228.734 409.524 225.329 414.027 221.923C418.544 218.56 423.033 215.183 427.578 211.89C436.64 205.262 445.731 198.663 454.933 192.246C476.266 176.542 457.705 144.008 433.221 154.647V154.675Z" fill="#F26A1B" fill-opacity="0.7"/>
<path d="M454.92 57.7251C450.319 54.5168 445.745 51.2662 441.2 47.9875C427.523 38.1092 413.873 28.2028 400.618 17.7334C385.589 5.40666 361.611 11.7389 354.772 30.018C348.792 45.1873 356.25 62.3266 371.419 68.307C376.668 70.3756 381.874 72.5567 387.053 74.7378C392.217 76.9611 397.395 79.1703 402.517 81.464C412.79 85.9951 423.048 90.5684 433.208 95.3387C457.467 105.963 476.38 73.6261 454.92 57.7392V57.7251Z" fill="#F26A1B" fill-opacity="0.7"/>
</g>
<path d="M34.1136 375V357.545H44.6477V359.42H36.2273V365.318H44.1023V367.193H36.2273V373.125H44.7841V375H34.1136ZM49.6847 361.909L52.821 367.261L55.9574 361.909H58.2756L54.0483 368.455L58.2756 375H55.9574L52.821 369.92L49.6847 375H47.3665L51.5256 368.455L47.3665 361.909H49.6847ZM66.8388 361.909V363.614H60.0547V361.909H66.8388ZM62.032 358.773H64.0433V371.25C64.0433 371.818 64.1257 372.244 64.2905 372.528C64.4609 372.807 64.6768 372.994 64.9382 373.091C65.2053 373.182 65.4865 373.227 65.782 373.227C66.0036 373.227 66.1854 373.216 66.3274 373.193C66.4695 373.165 66.5831 373.142 66.6683 373.125L67.0774 374.932C66.9411 374.983 66.7507 375.034 66.5064 375.085C66.2621 375.142 65.9524 375.17 65.5774 375.17C65.0092 375.17 64.4524 375.048 63.907 374.804C63.3672 374.56 62.9183 374.188 62.5604 373.688C62.2081 373.188 62.032 372.557 62.032 371.795V358.773ZM69.8643 375V361.909H71.8075V363.886H71.9439C72.1825 363.239 72.6143 362.713 73.2393 362.31C73.8643 361.906 74.5689 361.705 75.353 361.705C75.5007 361.705 75.6854 361.707 75.907 361.713C76.1286 361.719 76.2962 361.727 76.4098 361.739V363.784C76.3416 363.767 76.1854 363.741 75.9411 363.707C75.7024 363.668 75.4496 363.648 75.1825 363.648C74.5462 363.648 73.978 363.781 73.478 364.048C72.9837 364.31 72.5916 364.673 72.3018 365.139C72.0178 365.599 71.8757 366.125 71.8757 366.716V375H69.8643ZM82.6463 375.307C81.8168 375.307 81.0639 375.151 80.3878 374.838C79.7116 374.52 79.1747 374.062 78.777 373.466C78.3793 372.864 78.1804 372.136 78.1804 371.284C78.1804 370.534 78.3281 369.926 78.6236 369.46C78.919 368.989 79.3139 368.619 79.8082 368.352C80.3026 368.085 80.848 367.886 81.4446 367.756C82.0469 367.619 82.652 367.511 83.2599 367.432C84.0554 367.33 84.7003 367.253 85.1946 367.202C85.6946 367.145 86.0582 367.051 86.2855 366.92C86.5185 366.79 86.6349 366.562 86.6349 366.239V366.17C86.6349 365.33 86.4048 364.676 85.9446 364.21C85.4901 363.744 84.7997 363.511 83.8736 363.511C82.9134 363.511 82.1605 363.722 81.6151 364.142C81.0696 364.562 80.6861 365.011 80.4645 365.489L78.5554 364.807C78.8963 364.011 79.3509 363.392 79.919 362.949C80.4929 362.5 81.1179 362.187 81.794 362.011C82.4759 361.83 83.1463 361.739 83.8054 361.739C84.2259 361.739 84.7088 361.79 85.2543 361.892C85.8054 361.989 86.3366 362.19 86.848 362.497C87.3651 362.804 87.794 363.267 88.1349 363.886C88.4759 364.506 88.6463 365.335 88.6463 366.375V375H86.6349V373.227H86.5327C86.3963 373.511 86.169 373.815 85.8509 374.139C85.5327 374.463 85.1094 374.739 84.581 374.966C84.0526 375.193 83.4077 375.307 82.6463 375.307ZM82.9531 373.5C83.7486 373.5 84.419 373.344 84.9645 373.031C85.5156 372.719 85.9304 372.315 86.2088 371.821C86.4929 371.327 86.6349 370.807 86.6349 370.261V368.42C86.5497 368.523 86.3622 368.616 86.0724 368.702C85.7884 368.781 85.4588 368.852 85.0838 368.915C84.7145 368.972 84.3537 369.023 84.0014 369.068C83.6548 369.108 83.3736 369.142 83.1577 369.17C82.6349 369.239 82.1463 369.349 81.6918 369.503C81.2429 369.651 80.8793 369.875 80.6009 370.176C80.3281 370.472 80.1918 370.875 80.1918 371.386C80.1918 372.085 80.4503 372.614 80.9673 372.972C81.4901 373.324 82.152 373.5 82.9531 373.5ZM97.6357 375.273C96.4084 375.273 95.3516 374.983 94.4652 374.403C93.5788 373.824 92.897 373.026 92.4197 372.009C91.9425 370.991 91.7038 369.83 91.7038 368.523C91.7038 367.193 91.9482 366.02 92.4368 365.003C92.9311 363.98 93.6186 363.182 94.4993 362.608C95.3857 362.028 96.4197 361.739 97.6016 361.739C98.522 361.739 99.3516 361.909 100.09 362.25C100.829 362.591 101.434 363.068 101.906 363.682C102.377 364.295 102.67 365.011 102.783 365.83H100.772C100.619 365.233 100.278 364.705 99.7493 364.244C99.2266 363.778 98.522 363.545 97.6357 363.545C96.8516 363.545 96.1641 363.75 95.5732 364.159C94.9879 364.562 94.5305 365.134 94.201 365.872C93.8771 366.605 93.7152 367.466 93.7152 368.455C93.7152 369.466 93.8743 370.347 94.1925 371.097C94.5163 371.847 94.9709 372.429 95.5561 372.844C96.147 373.259 96.8402 373.466 97.6357 373.466C98.1584 373.466 98.6328 373.375 99.0589 373.193C99.4851 373.011 99.8459 372.75 100.141 372.409C100.437 372.068 100.647 371.659 100.772 371.182H102.783C102.67 371.955 102.388 372.651 101.94 373.27C101.496 373.884 100.908 374.372 100.175 374.736C99.4482 375.094 98.6016 375.273 97.6357 375.273ZM111.417 361.909V363.614H104.633V361.909H111.417ZM106.61 358.773H108.621V371.25C108.621 371.818 108.704 372.244 108.869 372.528C109.039 372.807 109.255 372.994 109.516 373.091C109.783 373.182 110.065 373.227 110.36 373.227C110.582 373.227 110.763 373.216 110.906 373.193C111.048 373.165 111.161 373.142 111.246 373.125L111.656 374.932C111.519 374.983 111.329 375.034 111.085 375.085C110.84 375.142 110.531 375.17 110.156 375.17C109.587 375.17 109.031 375.048 108.485 374.804C107.945 374.56 107.496 374.188 107.138 373.688C106.786 373.188 106.61 372.557 106.61 371.795V358.773ZM121.465 375V357.545H127.363C128.732 357.545 129.852 357.793 130.721 358.287C131.596 358.776 132.244 359.438 132.664 360.273C133.085 361.108 133.295 362.04 133.295 363.068C133.295 364.097 133.085 365.031 132.664 365.872C132.249 366.713 131.607 367.384 130.738 367.884C129.869 368.378 128.755 368.625 127.397 368.625H123.17V366.75H127.329C128.266 366.75 129.019 366.588 129.587 366.264C130.156 365.94 130.567 365.503 130.823 364.952C131.085 364.395 131.215 363.767 131.215 363.068C131.215 362.369 131.085 361.744 130.823 361.193C130.567 360.642 130.153 360.21 129.579 359.898C129.005 359.58 128.244 359.42 127.295 359.42H123.579V375H121.465ZM138.438 357.545V375H136.427V357.545H138.438ZM145.974 375.307C145.145 375.307 144.392 375.151 143.716 374.838C143.04 374.52 142.503 374.062 142.105 373.466C141.707 372.864 141.509 372.136 141.509 371.284C141.509 370.534 141.656 369.926 141.952 369.46C142.247 368.989 142.642 368.619 143.136 368.352C143.631 368.085 144.176 367.886 144.773 367.756C145.375 367.619 145.98 367.511 146.588 367.432C147.384 367.33 148.028 367.253 148.523 367.202C149.023 367.145 149.386 367.051 149.614 366.92C149.847 366.79 149.963 366.562 149.963 366.239V366.17C149.963 365.33 149.733 364.676 149.273 364.21C148.818 363.744 148.128 363.511 147.202 363.511C146.241 363.511 145.489 363.722 144.943 364.142C144.398 364.562 144.014 365.011 143.793 365.489L141.884 364.807C142.224 364.011 142.679 363.392 143.247 362.949C143.821 362.5 144.446 362.187 145.122 362.011C145.804 361.83 146.474 361.739 147.134 361.739C147.554 361.739 148.037 361.79 148.582 361.892C149.134 361.989 149.665 362.19 150.176 362.497C150.693 362.804 151.122 363.267 151.463 363.886C151.804 364.506 151.974 365.335 151.974 366.375V375H149.963V373.227H149.861C149.724 373.511 149.497 373.815 149.179 374.139C148.861 374.463 148.438 374.739 147.909 374.966C147.381 375.193 146.736 375.307 145.974 375.307ZM146.281 373.5C147.077 373.5 147.747 373.344 148.293 373.031C148.844 372.719 149.259 372.315 149.537 371.821C149.821 371.327 149.963 370.807 149.963 370.261V368.42C149.878 368.523 149.69 368.616 149.401 368.702C149.116 368.781 148.787 368.852 148.412 368.915C148.043 368.972 147.682 369.023 147.33 369.068C146.983 369.108 146.702 369.142 146.486 369.17C145.963 369.239 145.474 369.349 145.02 369.503C144.571 369.651 144.207 369.875 143.929 370.176C143.656 370.472 143.52 370.875 143.52 371.386C143.52 372.085 143.778 372.614 144.295 372.972C144.818 373.324 145.48 373.5 146.281 373.5ZM157.657 367.125V375H155.646V361.909H157.589V363.955H157.759C158.066 363.29 158.532 362.756 159.157 362.352C159.782 361.943 160.589 361.739 161.577 361.739C162.464 361.739 163.239 361.92 163.904 362.284C164.569 362.642 165.086 363.188 165.455 363.92C165.825 364.648 166.009 365.568 166.009 366.682V375H163.998V366.818C163.998 365.79 163.731 364.989 163.197 364.415C162.663 363.835 161.93 363.545 160.998 363.545C160.356 363.545 159.782 363.685 159.276 363.963C158.776 364.241 158.381 364.648 158.092 365.182C157.802 365.716 157.657 366.364 157.657 367.125ZM182.094 375H176.707V357.545H182.332C184.026 357.545 185.474 357.895 186.679 358.594C187.884 359.287 188.807 360.284 189.449 361.585C190.091 362.881 190.412 364.432 190.412 366.239C190.412 368.057 190.088 369.622 189.44 370.935C188.793 372.241 187.849 373.247 186.611 373.952C185.372 374.651 183.866 375 182.094 375ZM178.821 373.125H181.957C183.401 373.125 184.597 372.847 185.545 372.29C186.494 371.733 187.202 370.94 187.668 369.912C188.134 368.884 188.366 367.659 188.366 366.239C188.366 364.83 188.136 363.616 187.676 362.599C187.216 361.577 186.528 360.793 185.614 360.247C184.699 359.696 183.56 359.42 182.196 359.42H178.821V373.125ZM199.003 375.273C197.821 375.273 196.784 374.991 195.892 374.429C195.006 373.866 194.312 373.08 193.812 372.068C193.318 371.057 193.071 369.875 193.071 368.523C193.071 367.159 193.318 365.969 193.812 364.952C194.312 363.935 195.006 363.145 195.892 362.582C196.784 362.02 197.821 361.739 199.003 361.739C200.185 361.739 201.219 362.02 202.105 362.582C202.997 363.145 203.69 363.935 204.185 364.952C204.685 365.969 204.935 367.159 204.935 368.523C204.935 369.875 204.685 371.057 204.185 372.068C203.69 373.08 202.997 373.866 202.105 374.429C201.219 374.991 200.185 375.273 199.003 375.273ZM199.003 373.466C199.901 373.466 200.639 373.236 201.219 372.776C201.798 372.315 202.227 371.71 202.506 370.96C202.784 370.21 202.923 369.398 202.923 368.523C202.923 367.648 202.784 366.832 202.506 366.077C202.227 365.321 201.798 364.71 201.219 364.244C200.639 363.778 199.901 363.545 199.003 363.545C198.105 363.545 197.366 363.778 196.787 364.244C196.207 364.71 195.778 365.321 195.5 366.077C195.222 366.832 195.082 367.648 195.082 368.523C195.082 369.398 195.222 370.21 195.5 370.96C195.778 371.71 196.207 372.315 196.787 372.776C197.366 373.236 198.105 373.466 199.003 373.466ZM213.323 375.273C212.096 375.273 211.039 374.983 210.153 374.403C209.266 373.824 208.585 373.026 208.107 372.009C207.63 370.991 207.391 369.83 207.391 368.523C207.391 367.193 207.636 366.02 208.124 365.003C208.619 363.98 209.306 363.182 210.187 362.608C211.073 362.028 212.107 361.739 213.289 361.739C214.21 361.739 215.039 361.909 215.778 362.25C216.516 362.591 217.121 363.068 217.593 363.682C218.065 364.295 218.357 365.011 218.471 365.83H216.46C216.306 365.233 215.965 364.705 215.437 364.244C214.914 363.778 214.21 363.545 213.323 363.545C212.539 363.545 211.852 363.75 211.261 364.159C210.675 364.562 210.218 365.134 209.888 365.872C209.565 366.605 209.403 367.466 209.403 368.455C209.403 369.466 209.562 370.347 209.88 371.097C210.204 371.847 210.658 372.429 211.244 372.844C211.835 373.259 212.528 373.466 213.323 373.466C213.846 373.466 214.32 373.375 214.746 373.193C215.173 373.011 215.533 372.75 215.829 372.409C216.124 372.068 216.335 371.659 216.46 371.182H218.471C218.357 371.955 218.076 372.651 217.627 373.27C217.184 373.884 216.596 374.372 215.863 374.736C215.136 375.094 214.289 375.273 213.323 375.273ZM229.661 369.648V361.909H231.673V375H229.661V372.784H229.525C229.218 373.449 228.741 374.014 228.093 374.48C227.445 374.94 226.627 375.17 225.638 375.17C224.82 375.17 224.093 374.991 223.457 374.634C222.82 374.27 222.32 373.724 221.957 372.997C221.593 372.264 221.411 371.341 221.411 370.227V361.909H223.423V370.091C223.423 371.045 223.69 371.807 224.224 372.375C224.763 372.943 225.451 373.227 226.286 373.227C226.786 373.227 227.295 373.099 227.812 372.844C228.335 372.588 228.772 372.196 229.124 371.668C229.482 371.139 229.661 370.466 229.661 369.648ZM235.357 375V361.909H237.3V363.955H237.47C237.743 363.256 238.183 362.713 238.791 362.327C239.399 361.935 240.129 361.739 240.982 361.739C241.845 361.739 242.564 361.935 243.138 362.327C243.717 362.713 244.169 363.256 244.493 363.955H244.629C244.964 363.278 245.467 362.741 246.138 362.344C246.808 361.94 247.612 361.739 248.55 361.739C249.72 361.739 250.678 362.105 251.422 362.838C252.166 363.565 252.538 364.699 252.538 366.239V375H250.527V366.239C250.527 365.273 250.263 364.582 249.734 364.168C249.206 363.753 248.584 363.545 247.868 363.545C246.947 363.545 246.234 363.824 245.729 364.381C245.223 364.932 244.97 365.631 244.97 366.477V375H242.925V366.034C242.925 365.29 242.683 364.69 242.2 364.236C241.717 363.776 241.095 363.545 240.334 363.545C239.811 363.545 239.322 363.685 238.868 363.963C238.419 364.241 238.055 364.628 237.777 365.122C237.504 365.611 237.368 366.176 237.368 366.818V375H235.357ZM261.705 375.273C260.443 375.273 259.355 374.994 258.44 374.438C257.531 373.875 256.83 373.091 256.335 372.085C255.847 371.074 255.602 369.898 255.602 368.557C255.602 367.216 255.847 366.034 256.335 365.011C256.83 363.983 257.517 363.182 258.398 362.608C259.284 362.028 260.318 361.739 261.5 361.739C262.182 361.739 262.855 361.852 263.52 362.08C264.185 362.307 264.79 362.676 265.335 363.188C265.881 363.693 266.315 364.364 266.639 365.199C266.963 366.034 267.125 367.062 267.125 368.284V369.136H257.034V367.398H265.08C265.08 366.659 264.932 366 264.636 365.42C264.347 364.841 263.932 364.384 263.392 364.048C262.858 363.713 262.227 363.545 261.5 363.545C260.699 363.545 260.006 363.744 259.42 364.142C258.841 364.534 258.395 365.045 258.082 365.676C257.77 366.307 257.614 366.983 257.614 367.705V368.864C257.614 369.852 257.784 370.69 258.125 371.378C258.472 372.06 258.952 372.58 259.565 372.938C260.179 373.29 260.892 373.466 261.705 373.466C262.233 373.466 262.71 373.392 263.136 373.244C263.568 373.091 263.94 372.864 264.253 372.562C264.565 372.256 264.807 371.875 264.977 371.42L266.92 371.966C266.716 372.625 266.372 373.205 265.889 373.705C265.406 374.199 264.81 374.585 264.099 374.864C263.389 375.136 262.591 375.273 261.705 375.273ZM272.196 367.125V375H270.185V361.909H272.128V363.955H272.298C272.605 363.29 273.071 362.756 273.696 362.352C274.321 361.943 275.128 361.739 276.116 361.739C277.003 361.739 277.778 361.92 278.443 362.284C279.108 362.642 279.625 363.188 279.994 363.92C280.364 364.648 280.548 365.568 280.548 366.682V375H278.537V366.818C278.537 365.79 278.27 364.989 277.736 364.415C277.202 363.835 276.469 363.545 275.537 363.545C274.895 363.545 274.321 363.685 273.815 363.963C273.315 364.241 272.92 364.648 272.631 365.182C272.341 365.716 272.196 366.364 272.196 367.125ZM289.917 361.909V363.614H283.133V361.909H289.917ZM285.11 358.773H287.121V371.25C287.121 371.818 287.204 372.244 287.369 372.528C287.539 372.807 287.755 372.994 288.016 373.091C288.283 373.182 288.565 373.227 288.86 373.227C289.082 373.227 289.263 373.216 289.406 373.193C289.548 373.165 289.661 373.142 289.746 373.125L290.156 374.932C290.019 374.983 289.829 375.034 289.585 375.085C289.34 375.142 289.031 375.17 288.656 375.17C288.087 375.17 287.531 375.048 286.985 374.804C286.445 374.56 285.996 374.188 285.638 373.688C285.286 373.188 285.11 372.557 285.11 371.795V358.773ZM301.981 364.841L300.174 365.352C300.06 365.051 299.893 364.759 299.671 364.474C299.455 364.185 299.16 363.946 298.785 363.759C298.41 363.571 297.93 363.477 297.344 363.477C296.543 363.477 295.876 363.662 295.342 364.031C294.813 364.395 294.549 364.858 294.549 365.42C294.549 365.92 294.731 366.315 295.094 366.605C295.458 366.895 296.026 367.136 296.799 367.33L298.742 367.807C299.913 368.091 300.785 368.526 301.359 369.111C301.933 369.69 302.219 370.437 302.219 371.352C302.219 372.102 302.004 372.773 301.572 373.364C301.146 373.955 300.549 374.42 299.782 374.761C299.015 375.102 298.123 375.273 297.106 375.273C295.771 375.273 294.665 374.983 293.79 374.403C292.915 373.824 292.362 372.977 292.129 371.864L294.038 371.386C294.219 372.091 294.563 372.619 295.069 372.972C295.58 373.324 296.248 373.5 297.072 373.5C298.009 373.5 298.754 373.301 299.305 372.903C299.862 372.5 300.14 372.017 300.14 371.455C300.14 371 299.981 370.619 299.663 370.312C299.344 370 298.856 369.767 298.197 369.614L296.015 369.102C294.816 368.818 293.935 368.378 293.373 367.781C292.816 367.179 292.538 366.426 292.538 365.523C292.538 364.784 292.745 364.131 293.16 363.562C293.58 362.994 294.151 362.548 294.873 362.224C295.6 361.901 296.424 361.739 297.344 361.739C298.64 361.739 299.657 362.023 300.396 362.591C301.14 363.159 301.668 363.909 301.981 364.841Z" fill="white"/>
<rect x="32" y="32" width="65" height="65" rx="32.5" fill="#F26A1B"/>
<mask id="mask0_3231_6043" style="mask-type:alpha" maskUnits="userSpaceOnUse" x="34" y="34" width="61" height="61">
<rect x="34.9541" y="34.9551" width="59.0909" height="59.0909" fill="#D9D9D9"/>
</mask>
<g mask="url(#mask0_3231_6043)">
<path d="M55.8799 79.5104V49.4922L79.459 64.5013L55.8799 79.5104Z" fill="white"/>
</g>
</g>
<defs>
<filter id="filter0_f_3231_6043" x="-419" y="-358" width="1524" height="1130" filterUnits="userSpaceOnUse" color-interpolation-filters="sRGB">
<feFlood flood-opacity="0" result="BackgroundImageFix"/>
<feBlend mode="normal" in="SourceGraphic" in2="BackgroundImageFix" result="shape"/>
<feGaussianBlur stdDeviation="257" result="effect1_foregroundBlur_3231_6043"/>
</filter>
<clipPath id="clip0_3231_6043">
<rect width="686" height="414.73" rx="9" fill="white"/>
</clipPath>
</defs>
</svg>
