<svg width="686" height="415" viewBox="0 0 686 415" fill="none" xmlns="http://www.w3.org/2000/svg">
<g clip-path="url(#clip0_3231_6017)">
<rect width="686" height="414.73" rx="9" fill="#252020"/>
<g filter="url(#filter0_f_3231_6017)">
<ellipse cx="343" cy="207" rx="248" ry="51" fill="#F26A1B"/>
</g>
<g opacity="0.1">
<path d="M684.658 181.709C646.425 166.328 609.192 148.697 572.746 129.573C569.946 128.082 567.16 126.576 564.373 125.042C603.281 103.766 643.541 84.9941 684.658 68.2911C702.909 61.4522 709.452 37.446 696.971 22.3611C686.783 9.62628 668.208 7.54368 655.473 17.7316C623.038 43.1591 589.154 66.5884 554.368 88.5824C551.681 90.271 548.979 91.9174 546.263 93.5638C547.304 49.224 551.174 4.98264 557.253 -38.9772C560.461 -58.1991 542.928 -75.8732 523.622 -72.6085C508.059 -70.2445 497.181 -56.1306 498.659 -40.6518C509.677 8.2332 516.009 58.652 517.022 110.196C517.064 112.307 517.107 114.418 517.135 116.529C517.163 118.935 517.177 121.327 517.191 123.733C517.191 124.156 517.191 124.578 517.191 125C517.191 125.394 517.191 125.774 517.191 126.168C517.191 126.196 517.191 126.224 517.191 126.252C517.191 128.827 517.163 131.403 517.135 133.978C517.135 134.343 517.135 134.723 517.121 135.089C517.121 136.032 517.093 136.961 517.078 137.904C516.178 190.109 509.832 241.161 498.673 290.652C497.209 306.13 508.073 320.244 523.636 322.608C542.942 325.873 560.475 308.213 557.267 288.977C551.188 245.045 547.318 200.832 546.277 156.52C584.13 179.57 620.491 205.04 655.487 232.268C670.53 244.665 694.593 238.305 701.417 219.956C707.356 204.772 699.869 187.633 684.672 181.695L684.658 181.709Z" fill="#F26A1B" fill-opacity="0.7"/>
<path d="M433.221 154.675C428.141 157.053 423.047 159.389 417.925 161.682C402.53 168.592 387.122 175.459 371.432 181.692C353.252 188.559 346.736 212.467 359.148 227.538C369.293 240.301 387.868 242.412 400.631 232.252C405.049 228.734 409.524 225.329 414.027 221.923C418.544 218.56 423.033 215.183 427.578 211.89C436.64 205.262 445.731 198.663 454.933 192.246C476.266 176.542 457.705 144.008 433.221 154.647V154.675Z" fill="#F26A1B" fill-opacity="0.7"/>
<path d="M454.92 57.7251C450.319 54.5168 445.745 51.2662 441.2 47.9875C427.523 38.1092 413.873 28.2028 400.618 17.7334C385.589 5.40666 361.611 11.7389 354.772 30.018C348.792 45.1873 356.25 62.3266 371.419 68.307C376.668 70.3756 381.874 72.5567 387.053 74.7378C392.217 76.9611 397.395 79.1703 402.517 81.464C412.79 85.9951 423.048 90.5684 433.208 95.3387C457.467 105.963 476.38 73.6261 454.92 57.7392V57.7251Z" fill="#F26A1B" fill-opacity="0.7"/>
</g>
<path d="M48.1591 332H46.0455C45.9205 331.392 45.7017 330.858 45.3892 330.398C45.0824 329.938 44.7074 329.551 44.2642 329.239C43.8267 328.92 43.3409 328.682 42.8068 328.523C42.2727 328.364 41.7159 328.284 41.1364 328.284C40.0795 328.284 39.1222 328.551 38.2642 329.085C37.4119 329.619 36.733 330.406 36.2273 331.446C35.7273 332.486 35.4773 333.761 35.4773 335.273C35.4773 336.784 35.7273 338.06 36.2273 339.099C36.733 340.139 37.4119 340.926 38.2642 341.46C39.1222 341.994 40.0795 342.261 41.1364 342.261C41.7159 342.261 42.2727 342.182 42.8068 342.023C43.3409 341.864 43.8267 341.628 44.2642 341.315C44.7074 340.997 45.0824 340.608 45.3892 340.148C45.7017 339.682 45.9205 339.148 46.0455 338.545H48.1591C48 339.437 47.7102 340.236 47.2898 340.94C46.8693 341.645 46.3466 342.244 45.7216 342.739C45.0966 343.227 44.3949 343.599 43.6165 343.855C42.8438 344.111 42.017 344.239 41.1364 344.239C39.6477 344.239 38.3239 343.875 37.1648 343.148C36.0057 342.42 35.0938 341.386 34.429 340.045C33.7642 338.705 33.4318 337.114 33.4318 335.273C33.4318 333.432 33.7642 331.841 34.429 330.5C35.0938 329.159 36.0057 328.125 37.1648 327.398C38.3239 326.67 39.6477 326.307 41.1364 326.307C42.017 326.307 42.8438 326.435 43.6165 326.69C44.3949 326.946 45.0966 327.321 45.7216 327.815C46.3466 328.304 46.8693 328.901 47.2898 329.605C47.7102 330.304 48 331.102 48.1591 332ZM51.3018 344V330.909H53.245V332.886H53.3814C53.62 332.239 54.0518 331.713 54.6768 331.31C55.3018 330.906 56.0064 330.705 56.7905 330.705C56.9382 330.705 57.1229 330.707 57.3445 330.713C57.5661 330.719 57.7337 330.727 57.8473 330.739V332.784C57.7791 332.767 57.6229 332.741 57.3786 332.707C57.1399 332.668 56.8871 332.648 56.62 332.648C55.9837 332.648 55.4155 332.781 54.9155 333.048C54.4212 333.31 54.0291 333.673 53.7393 334.139C53.4553 334.599 53.3132 335.125 53.3132 335.716V344H51.3018ZM65.3217 344.273C64.0604 344.273 62.9723 343.994 62.0575 343.438C61.1484 342.875 60.4467 342.091 59.9524 341.085C59.4638 340.074 59.2195 338.898 59.2195 337.557C59.2195 336.216 59.4638 335.034 59.9524 334.011C60.4467 332.983 61.1342 332.182 62.0149 331.608C62.9013 331.028 63.9354 330.739 65.1172 330.739C65.799 330.739 66.4723 330.852 67.1371 331.08C67.8018 331.307 68.407 331.676 68.9524 332.188C69.4979 332.693 69.9325 333.364 70.2564 334.199C70.5803 335.034 70.7422 336.062 70.7422 337.284V338.136H60.6513V336.398H68.6967C68.6967 335.659 68.549 335 68.2536 334.42C67.9638 333.841 67.549 333.384 67.0092 333.048C66.4751 332.713 65.8445 332.545 65.1172 332.545C64.3161 332.545 63.6229 332.744 63.0376 333.142C62.4581 333.534 62.0121 334.045 61.6996 334.676C61.3871 335.307 61.2308 335.983 61.2308 336.705V337.864C61.2308 338.852 61.4013 339.69 61.7422 340.378C62.0888 341.06 62.5689 341.58 63.1825 341.938C63.7962 342.29 64.5092 342.466 65.3217 342.466C65.8501 342.466 66.3274 342.392 66.7536 342.244C67.1854 342.091 67.5575 341.864 67.87 341.562C68.1825 341.256 68.424 340.875 68.5945 340.42L70.5376 340.966C70.3331 341.625 69.9893 342.205 69.5064 342.705C69.0234 343.199 68.4268 343.585 67.7166 343.864C67.0064 344.136 66.2081 344.273 65.3217 344.273ZM77.6541 344.307C76.8246 344.307 76.0717 344.151 75.3956 343.838C74.7195 343.52 74.1825 343.062 73.7848 342.466C73.3871 341.864 73.1882 341.136 73.1882 340.284C73.1882 339.534 73.3359 338.926 73.6314 338.46C73.9268 337.989 74.3217 337.619 74.8161 337.352C75.3104 337.085 75.8558 336.886 76.4524 336.756C77.0547 336.619 77.6598 336.511 78.2678 336.432C79.0632 336.33 79.7081 336.253 80.2024 336.202C80.7024 336.145 81.0661 336.051 81.2933 335.92C81.5263 335.79 81.6428 335.562 81.6428 335.239V335.17C81.6428 334.33 81.4126 333.676 80.9524 333.21C80.4979 332.744 79.8075 332.511 78.8814 332.511C77.9212 332.511 77.1683 332.722 76.6229 333.142C76.0774 333.562 75.6939 334.011 75.4723 334.489L73.5632 333.807C73.9041 333.011 74.3587 332.392 74.9268 331.949C75.5007 331.5 76.1257 331.187 76.8018 331.011C77.4837 330.83 78.1541 330.739 78.8132 330.739C79.2337 330.739 79.7166 330.79 80.2621 330.892C80.8132 330.989 81.3445 331.19 81.8558 331.497C82.3729 331.804 82.8018 332.267 83.1428 332.886C83.4837 333.506 83.6541 334.335 83.6541 335.375V344H81.6428V342.227H81.5405C81.4041 342.511 81.1768 342.815 80.8587 343.139C80.5405 343.463 80.1172 343.739 79.5888 343.966C79.0604 344.193 78.4155 344.307 77.6541 344.307ZM77.9609 342.5C78.7564 342.5 79.4268 342.344 79.9723 342.031C80.5234 341.719 80.9382 341.315 81.2166 340.821C81.5007 340.327 81.6428 339.807 81.6428 339.261V337.42C81.5575 337.523 81.37 337.616 81.0803 337.702C80.7962 337.781 80.4666 337.852 80.0916 337.915C79.7223 337.972 79.3615 338.023 79.0092 338.068C78.6626 338.108 78.3814 338.142 78.1655 338.17C77.6428 338.239 77.1541 338.349 76.6996 338.503C76.2507 338.651 75.8871 338.875 75.6087 339.176C75.3359 339.472 75.1996 339.875 75.1996 340.386C75.1996 341.085 75.4581 341.614 75.9751 341.972C76.4979 342.324 77.1598 342.5 77.9609 342.5ZM93.0185 330.909V332.614H86.2344V330.909H93.0185ZM88.2116 327.773H90.223V340.25C90.223 340.818 90.3054 341.244 90.4702 341.528C90.6406 341.807 90.8565 341.994 91.1179 342.091C91.3849 342.182 91.6662 342.227 91.9616 342.227C92.1832 342.227 92.3651 342.216 92.5071 342.193C92.6491 342.165 92.7628 342.142 92.848 342.125L93.2571 343.932C93.1207 343.983 92.9304 344.034 92.6861 344.085C92.4418 344.142 92.1321 344.17 91.7571 344.17C91.1889 344.17 90.6321 344.048 90.0866 343.804C89.5469 343.56 89.098 343.188 88.7401 342.688C88.3878 342.188 88.2116 341.557 88.2116 340.795V327.773ZM101.392 344.273C100.131 344.273 99.0426 343.994 98.1278 343.438C97.2188 342.875 96.517 342.091 96.0227 341.085C95.5341 340.074 95.2898 338.898 95.2898 337.557C95.2898 336.216 95.5341 335.034 96.0227 334.011C96.517 332.983 97.2045 332.182 98.0852 331.608C98.9716 331.028 100.006 330.739 101.188 330.739C101.869 330.739 102.543 330.852 103.207 331.08C103.872 331.307 104.477 331.676 105.023 332.188C105.568 332.693 106.003 333.364 106.327 334.199C106.651 335.034 106.812 336.062 106.812 337.284V338.136H96.7216V336.398H104.767C104.767 335.659 104.619 335 104.324 334.42C104.034 333.841 103.619 333.384 103.08 333.048C102.545 332.713 101.915 332.545 101.188 332.545C100.386 332.545 99.6932 332.744 99.108 333.142C98.5284 333.534 98.0824 334.045 97.7699 334.676C97.4574 335.307 97.3011 335.983 97.3011 336.705V337.864C97.3011 338.852 97.4716 339.69 97.8125 340.378C98.1591 341.06 98.6392 341.58 99.2528 341.938C99.8665 342.29 100.58 342.466 101.392 342.466C101.92 342.466 102.398 342.392 102.824 342.244C103.256 342.091 103.628 341.864 103.94 341.562C104.253 341.256 104.494 340.875 104.665 340.42L106.608 340.966C106.403 341.625 106.06 342.205 105.577 342.705C105.094 343.199 104.497 343.585 103.787 343.864C103.077 344.136 102.278 344.273 101.392 344.273ZM122.281 344H116.895V326.545H122.52C124.213 326.545 125.662 326.895 126.866 327.594C128.071 328.287 128.994 329.284 129.636 330.585C130.278 331.881 130.599 333.432 130.599 335.239C130.599 337.057 130.276 338.622 129.628 339.935C128.98 341.241 128.037 342.247 126.798 342.952C125.56 343.651 124.054 344 122.281 344ZM119.009 342.125H122.145C123.588 342.125 124.784 341.847 125.733 341.29C126.682 340.733 127.389 339.94 127.855 338.912C128.321 337.884 128.554 336.659 128.554 335.239C128.554 333.83 128.324 332.616 127.864 331.599C127.403 330.577 126.716 329.793 125.801 329.247C124.886 328.696 123.747 328.42 122.384 328.42H119.009V342.125ZM139.361 344.273C138.099 344.273 137.011 343.994 136.097 343.438C135.188 342.875 134.486 342.091 133.991 341.085C133.503 340.074 133.259 338.898 133.259 337.557C133.259 336.216 133.503 335.034 133.991 334.011C134.486 332.983 135.173 332.182 136.054 331.608C136.94 331.028 137.974 330.739 139.156 330.739C139.838 330.739 140.511 330.852 141.176 331.08C141.841 331.307 142.446 331.676 142.991 332.188C143.537 332.693 143.972 333.364 144.295 334.199C144.619 335.034 144.781 336.062 144.781 337.284V338.136H134.69V336.398H142.736C142.736 335.659 142.588 335 142.293 334.42C142.003 333.841 141.588 333.384 141.048 333.048C140.514 332.713 139.884 332.545 139.156 332.545C138.355 332.545 137.662 332.744 137.077 333.142C136.497 333.534 136.051 334.045 135.739 334.676C135.426 335.307 135.27 335.983 135.27 336.705V337.864C135.27 338.852 135.44 339.69 135.781 340.378C136.128 341.06 136.608 341.58 137.222 341.938C137.835 342.29 138.548 342.466 139.361 342.466C139.889 342.466 140.366 342.392 140.793 342.244C141.224 342.091 141.597 341.864 141.909 341.562C142.222 341.256 142.463 340.875 142.634 340.42L144.577 340.966C144.372 341.625 144.028 342.205 143.545 342.705C143.063 343.199 142.466 343.585 141.756 343.864C141.045 344.136 140.247 344.273 139.361 344.273ZM153.534 330.909V332.614H146.75V330.909H153.534ZM148.727 327.773H150.739V340.25C150.739 340.818 150.821 341.244 150.986 341.528C151.156 341.807 151.372 341.994 151.634 342.091C151.901 342.182 152.182 342.227 152.477 342.227C152.699 342.227 152.881 342.216 153.023 342.193C153.165 342.165 153.278 342.142 153.364 342.125L153.773 343.932C153.636 343.983 153.446 344.034 153.202 344.085C152.957 344.142 152.648 344.17 152.273 344.17C151.705 344.17 151.148 344.048 150.602 343.804C150.063 343.56 149.614 343.188 149.256 342.688C148.903 342.188 148.727 341.557 148.727 340.795V327.773ZM160.412 344.307C159.582 344.307 158.83 344.151 158.153 343.838C157.477 343.52 156.94 343.062 156.543 342.466C156.145 341.864 155.946 341.136 155.946 340.284C155.946 339.534 156.094 338.926 156.389 338.46C156.685 337.989 157.08 337.619 157.574 337.352C158.068 337.085 158.614 336.886 159.21 336.756C159.813 336.619 160.418 336.511 161.026 336.432C161.821 336.33 162.466 336.253 162.96 336.202C163.46 336.145 163.824 336.051 164.051 335.92C164.284 335.79 164.401 335.562 164.401 335.239V335.17C164.401 334.33 164.17 333.676 163.71 333.21C163.256 332.744 162.565 332.511 161.639 332.511C160.679 332.511 159.926 332.722 159.381 333.142C158.835 333.562 158.452 334.011 158.23 334.489L156.321 333.807C156.662 333.011 157.116 332.392 157.685 331.949C158.259 331.5 158.884 331.187 159.56 331.011C160.241 330.83 160.912 330.739 161.571 330.739C161.991 330.739 162.474 330.79 163.02 330.892C163.571 330.989 164.102 331.19 164.614 331.497C165.131 331.804 165.56 332.267 165.901 332.886C166.241 333.506 166.412 334.335 166.412 335.375V344H164.401V342.227H164.298C164.162 342.511 163.935 342.815 163.616 343.139C163.298 343.463 162.875 343.739 162.347 343.966C161.818 344.193 161.173 344.307 160.412 344.307ZM160.719 342.5C161.514 342.5 162.185 342.344 162.73 342.031C163.281 341.719 163.696 341.315 163.974 340.821C164.259 340.327 164.401 339.807 164.401 339.261V337.42C164.315 337.523 164.128 337.616 163.838 337.702C163.554 337.781 163.224 337.852 162.849 337.915C162.48 337.972 162.119 338.023 161.767 338.068C161.42 338.108 161.139 338.142 160.923 338.17C160.401 338.239 159.912 338.349 159.457 338.503C159.009 338.651 158.645 338.875 158.366 339.176C158.094 339.472 157.957 339.875 157.957 340.386C157.957 341.085 158.216 341.614 158.733 341.972C159.256 342.324 159.918 342.5 160.719 342.5ZM170.083 344V330.909H172.094V344H170.083ZM171.106 328.727C170.714 328.727 170.376 328.594 170.092 328.327C169.813 328.06 169.674 327.739 169.674 327.364C169.674 326.989 169.813 326.668 170.092 326.401C170.376 326.134 170.714 326 171.106 326C171.498 326 171.833 326.134 172.112 326.401C172.396 326.668 172.538 326.989 172.538 327.364C172.538 327.739 172.396 328.06 172.112 328.327C171.833 328.594 171.498 328.727 171.106 328.727ZM177.79 326.545V344H175.778V326.545H177.79ZM186.962 344.273C185.701 344.273 184.613 343.994 183.698 343.438C182.789 342.875 182.087 342.091 181.593 341.085C181.104 340.074 180.86 338.898 180.86 337.557C180.86 336.216 181.104 335.034 181.593 334.011C182.087 332.983 182.775 332.182 183.656 331.608C184.542 331.028 185.576 330.739 186.758 330.739C187.44 330.739 188.113 330.852 188.778 331.08C189.442 331.307 190.048 331.676 190.593 332.188C191.138 332.693 191.573 333.364 191.897 334.199C192.221 335.034 192.383 336.062 192.383 337.284V338.136H182.292V336.398H190.337C190.337 335.659 190.19 335 189.894 334.42C189.604 333.841 189.19 333.384 188.65 333.048C188.116 332.713 187.485 332.545 186.758 332.545C185.957 332.545 185.263 332.744 184.678 333.142C184.099 333.534 183.653 334.045 183.34 334.676C183.028 335.307 182.871 335.983 182.871 336.705V337.864C182.871 338.852 183.042 339.69 183.383 340.378C183.729 341.06 184.21 341.58 184.823 341.938C185.437 342.29 186.15 342.466 186.962 342.466C187.491 342.466 187.968 342.392 188.394 342.244C188.826 342.091 189.198 341.864 189.511 341.562C189.823 341.256 190.065 340.875 190.235 340.42L192.178 340.966C191.974 341.625 191.63 342.205 191.147 342.705C190.664 343.199 190.067 343.585 189.357 343.864C188.647 344.136 187.849 344.273 186.962 344.273ZM200.386 344.273C199.295 344.273 198.332 343.997 197.496 343.446C196.661 342.889 196.008 342.105 195.536 341.094C195.065 340.077 194.829 338.875 194.829 337.489C194.829 336.114 195.065 334.92 195.536 333.909C196.008 332.898 196.664 332.116 197.505 331.565C198.346 331.014 199.317 330.739 200.42 330.739C201.272 330.739 201.945 330.881 202.44 331.165C202.94 331.443 203.32 331.761 203.582 332.119C203.849 332.472 204.056 332.761 204.204 332.989H204.374V326.545H206.386V344H204.442V341.989H204.204C204.056 342.227 203.846 342.528 203.573 342.892C203.3 343.25 202.911 343.571 202.406 343.855C201.9 344.134 201.227 344.273 200.386 344.273ZM200.658 342.466C201.465 342.466 202.147 342.256 202.704 341.835C203.261 341.409 203.684 340.821 203.974 340.071C204.263 339.315 204.408 338.443 204.408 337.455C204.408 336.477 204.266 335.622 203.982 334.889C203.698 334.151 203.278 333.577 202.721 333.168C202.164 332.753 201.477 332.545 200.658 332.545C199.806 332.545 199.096 332.764 198.528 333.202C197.965 333.634 197.542 334.222 197.258 334.966C196.979 335.705 196.84 336.534 196.84 337.455C196.84 338.386 196.982 339.233 197.266 339.994C197.556 340.75 197.982 341.352 198.545 341.801C199.113 342.244 199.817 342.466 200.658 342.466ZM218.087 344H215.871L222.281 326.545H224.462L230.871 344H228.656L223.44 329.307H223.303L218.087 344ZM218.906 337.182H227.837V339.057H218.906V337.182ZM233.317 344V330.909H235.261V332.886H235.397C235.636 332.239 236.067 331.713 236.692 331.31C237.317 330.906 238.022 330.705 238.806 330.705C238.954 330.705 239.138 330.707 239.36 330.713C239.582 330.719 239.749 330.727 239.863 330.739V332.784C239.795 332.767 239.638 332.741 239.394 332.707C239.156 332.668 238.903 332.648 238.636 332.648C237.999 332.648 237.431 332.781 236.931 333.048C236.437 333.31 236.045 333.673 235.755 334.139C235.471 334.599 235.329 335.125 235.329 335.716V344H233.317ZM247.167 344.273C245.94 344.273 244.883 343.983 243.996 343.403C243.11 342.824 242.428 342.026 241.951 341.009C241.474 339.991 241.235 338.83 241.235 337.523C241.235 336.193 241.479 335.02 241.968 334.003C242.462 332.98 243.15 332.182 244.031 331.608C244.917 331.028 245.951 330.739 247.133 330.739C248.053 330.739 248.883 330.909 249.621 331.25C250.36 331.591 250.965 332.068 251.437 332.682C251.908 333.295 252.201 334.011 252.315 334.83H250.303C250.15 334.233 249.809 333.705 249.281 333.244C248.758 332.778 248.053 332.545 247.167 332.545C246.383 332.545 245.695 332.75 245.104 333.159C244.519 333.562 244.062 334.134 243.732 334.872C243.408 335.605 243.246 336.466 243.246 337.455C243.246 338.466 243.406 339.347 243.724 340.097C244.048 340.847 244.502 341.429 245.087 341.844C245.678 342.259 246.371 342.466 247.167 342.466C247.69 342.466 248.164 342.375 248.59 342.193C249.016 342.011 249.377 341.75 249.673 341.409C249.968 341.068 250.178 340.659 250.303 340.182H252.315C252.201 340.955 251.92 341.651 251.471 342.27C251.028 342.884 250.44 343.372 249.707 343.736C248.979 344.094 248.133 344.273 247.167 344.273ZM257.266 336.125V344H255.255V326.545H257.266V332.955H257.437C257.744 332.278 258.204 331.741 258.817 331.344C259.437 330.94 260.261 330.739 261.289 330.739C262.181 330.739 262.962 330.918 263.633 331.276C264.303 331.628 264.823 332.17 265.192 332.903C265.567 333.631 265.755 334.557 265.755 335.682V344H263.744V335.818C263.744 334.778 263.474 333.974 262.934 333.406C262.4 332.832 261.658 332.545 260.71 332.545C260.05 332.545 259.46 332.685 258.937 332.963C258.42 333.241 258.011 333.648 257.71 334.182C257.414 334.716 257.266 335.364 257.266 336.125ZM269.435 344V330.909H271.446V344H269.435ZM270.457 328.727C270.065 328.727 269.727 328.594 269.443 328.327C269.165 328.06 269.026 327.739 269.026 327.364C269.026 326.989 269.165 326.668 269.443 326.401C269.727 326.134 270.065 326 270.457 326C270.849 326 271.185 326.134 271.463 326.401C271.747 326.668 271.889 326.989 271.889 327.364C271.889 327.739 271.747 328.06 271.463 328.327C271.185 328.594 270.849 328.727 270.457 328.727ZM280.823 330.909V332.614H274.039V330.909H280.823ZM276.016 327.773H278.028V340.25C278.028 340.818 278.11 341.244 278.275 341.528C278.445 341.807 278.661 341.994 278.923 342.091C279.19 342.182 279.471 342.227 279.766 342.227C279.988 342.227 280.17 342.216 280.312 342.193C280.454 342.165 280.567 342.142 280.653 342.125L281.062 343.932C280.925 343.983 280.735 344.034 280.491 344.085C280.246 344.142 279.937 344.17 279.562 344.17C278.994 344.17 278.437 344.048 277.891 343.804C277.352 343.56 276.903 343.188 276.545 342.688C276.192 342.188 276.016 341.557 276.016 340.795V327.773ZM289.197 344.273C287.935 344.273 286.847 343.994 285.933 343.438C285.023 342.875 284.322 342.091 283.827 341.085C283.339 340.074 283.094 338.898 283.094 337.557C283.094 336.216 283.339 335.034 283.827 334.011C284.322 332.983 285.009 332.182 285.89 331.608C286.776 331.028 287.81 330.739 288.992 330.739C289.674 330.739 290.347 330.852 291.012 331.08C291.677 331.307 292.282 331.676 292.827 332.188C293.373 332.693 293.808 333.364 294.131 334.199C294.455 335.034 294.617 336.062 294.617 337.284V338.136H284.526V336.398H292.572C292.572 335.659 292.424 335 292.129 334.42C291.839 333.841 291.424 333.384 290.884 333.048C290.35 332.713 289.719 332.545 288.992 332.545C288.191 332.545 287.498 332.744 286.913 333.142C286.333 333.534 285.887 334.045 285.575 334.676C285.262 335.307 285.106 335.983 285.106 336.705V337.864C285.106 338.852 285.276 339.69 285.617 340.378C285.964 341.06 286.444 341.58 287.058 341.938C287.671 342.29 288.384 342.466 289.197 342.466C289.725 342.466 290.202 342.392 290.629 342.244C291.06 342.091 291.433 341.864 291.745 341.562C292.058 341.256 292.299 340.875 292.469 340.42L294.413 340.966C294.208 341.625 293.864 342.205 293.381 342.705C292.898 343.199 292.302 343.585 291.592 343.864C290.881 344.136 290.083 344.273 289.197 344.273ZM302.995 344.273C301.768 344.273 300.711 343.983 299.825 343.403C298.938 342.824 298.256 342.026 297.779 341.009C297.302 339.991 297.063 338.83 297.063 337.523C297.063 336.193 297.308 335.02 297.796 334.003C298.29 332.98 298.978 332.182 299.859 331.608C300.745 331.028 301.779 330.739 302.961 330.739C303.881 330.739 304.711 330.909 305.45 331.25C306.188 331.591 306.793 332.068 307.265 332.682C307.737 333.295 308.029 334.011 308.143 334.83H306.131C305.978 334.233 305.637 333.705 305.109 333.244C304.586 332.778 303.881 332.545 302.995 332.545C302.211 332.545 301.523 332.75 300.933 333.159C300.347 333.562 299.89 334.134 299.56 334.872C299.237 335.605 299.075 336.466 299.075 337.455C299.075 338.466 299.234 339.347 299.552 340.097C299.876 340.847 300.33 341.429 300.915 341.844C301.506 342.259 302.2 342.466 302.995 342.466C303.518 342.466 303.992 342.375 304.418 342.193C304.844 342.011 305.205 341.75 305.501 341.409C305.796 341.068 306.006 340.659 306.131 340.182H308.143C308.029 340.955 307.748 341.651 307.299 342.27C306.856 342.884 306.268 343.372 305.535 343.736C304.808 344.094 303.961 344.273 302.995 344.273ZM316.776 330.909V332.614H309.992V330.909H316.776ZM311.969 327.773H313.981V340.25C313.981 340.818 314.063 341.244 314.228 341.528C314.398 341.807 314.614 341.994 314.876 342.091C315.143 342.182 315.424 342.227 315.719 342.227C315.941 342.227 316.123 342.216 316.265 342.193C316.407 342.165 316.521 342.142 316.606 342.125L317.015 343.932C316.879 343.983 316.688 344.034 316.444 344.085C316.2 344.142 315.89 344.17 315.515 344.17C314.947 344.17 314.39 344.048 313.844 343.804C313.305 343.56 312.856 343.188 312.498 342.688C312.146 342.188 311.969 341.557 311.969 340.795V327.773ZM328.052 338.648V330.909H330.063V344H328.052V341.784H327.915C327.609 342.449 327.131 343.014 326.484 343.48C325.836 343.94 325.018 344.17 324.029 344.17C323.211 344.17 322.484 343.991 321.847 343.634C321.211 343.27 320.711 342.724 320.347 341.997C319.984 341.264 319.802 340.341 319.802 339.227V330.909H321.813V339.091C321.813 340.045 322.08 340.807 322.614 341.375C323.154 341.943 323.842 342.227 324.677 342.227C325.177 342.227 325.685 342.099 326.202 341.844C326.725 341.588 327.163 341.196 327.515 340.668C327.873 340.139 328.052 339.466 328.052 338.648ZM333.747 344V330.909H335.69V332.886H335.827C336.065 332.239 336.497 331.713 337.122 331.31C337.747 330.906 338.452 330.705 339.236 330.705C339.384 330.705 339.568 330.707 339.79 330.713C340.011 330.719 340.179 330.727 340.293 330.739V332.784C340.224 332.767 340.068 332.741 339.824 332.707C339.585 332.668 339.332 332.648 339.065 332.648C338.429 332.648 337.861 332.781 337.361 333.048C336.866 333.31 336.474 333.673 336.185 334.139C335.901 334.599 335.759 335.125 335.759 335.716V344H333.747ZM347.767 344.273C346.506 344.273 345.418 343.994 344.503 343.438C343.594 342.875 342.892 342.091 342.398 341.085C341.909 340.074 341.665 338.898 341.665 337.557C341.665 336.216 341.909 335.034 342.398 334.011C342.892 332.983 343.58 332.182 344.46 331.608C345.347 331.028 346.381 330.739 347.562 330.739C348.244 330.739 348.918 330.852 349.582 331.08C350.247 331.307 350.852 331.676 351.398 332.188C351.943 332.693 352.378 333.364 352.702 334.199C353.026 335.034 353.188 336.062 353.188 337.284V338.136H343.097V336.398H351.142C351.142 335.659 350.994 335 350.699 334.42C350.409 333.841 349.994 333.384 349.455 333.048C348.92 332.713 348.29 332.545 347.562 332.545C346.761 332.545 346.068 332.744 345.483 333.142C344.903 333.534 344.457 334.045 344.145 334.676C343.832 335.307 343.676 335.983 343.676 336.705V337.864C343.676 338.852 343.847 339.69 344.188 340.378C344.534 341.06 345.014 341.58 345.628 341.938C346.241 342.29 346.955 342.466 347.767 342.466C348.295 342.466 348.773 342.392 349.199 342.244C349.631 342.091 350.003 341.864 350.315 341.562C350.628 341.256 350.869 340.875 351.04 340.42L352.983 340.966C352.778 341.625 352.435 342.205 351.952 342.705C351.469 343.199 350.872 343.585 350.162 343.864C349.452 344.136 348.653 344.273 347.767 344.273ZM366.849 344.307C366.02 344.307 365.267 344.151 364.591 343.838C363.915 343.52 363.378 343.062 362.98 342.466C362.582 341.864 362.384 341.136 362.384 340.284C362.384 339.534 362.531 338.926 362.827 338.46C363.122 337.989 363.517 337.619 364.011 337.352C364.506 337.085 365.051 336.886 365.648 336.756C366.25 336.619 366.855 336.511 367.463 336.432C368.259 336.33 368.903 336.253 369.398 336.202C369.898 336.145 370.261 336.051 370.489 335.92C370.722 335.79 370.838 335.562 370.838 335.239V335.17C370.838 334.33 370.608 333.676 370.148 333.21C369.693 332.744 369.003 332.511 368.077 332.511C367.116 332.511 366.364 332.722 365.818 333.142C365.273 333.562 364.889 334.011 364.668 334.489L362.759 333.807C363.099 333.011 363.554 332.392 364.122 331.949C364.696 331.5 365.321 331.187 365.997 331.011C366.679 330.83 367.349 330.739 368.009 330.739C368.429 330.739 368.912 330.79 369.457 330.892C370.009 330.989 370.54 331.19 371.051 331.497C371.568 331.804 371.997 332.267 372.338 332.886C372.679 333.506 372.849 334.335 372.849 335.375V344H370.838V342.227H370.736C370.599 342.511 370.372 342.815 370.054 343.139C369.736 343.463 369.313 343.739 368.784 343.966C368.256 344.193 367.611 344.307 366.849 344.307ZM367.156 342.5C367.952 342.5 368.622 342.344 369.168 342.031C369.719 341.719 370.134 341.315 370.412 340.821C370.696 340.327 370.838 339.807 370.838 339.261V337.42C370.753 337.523 370.565 337.616 370.276 337.702C369.991 337.781 369.662 337.852 369.287 337.915C368.918 337.972 368.557 338.023 368.205 338.068C367.858 338.108 367.577 338.142 367.361 338.17C366.838 338.239 366.349 338.349 365.895 338.503C365.446 338.651 365.082 338.875 364.804 339.176C364.531 339.472 364.395 339.875 364.395 340.386C364.395 341.085 364.653 341.614 365.17 341.972C365.693 342.324 366.355 342.5 367.156 342.5ZM378.532 336.125V344H376.521V330.909H378.464V332.955H378.634C378.941 332.29 379.407 331.756 380.032 331.352C380.657 330.943 381.464 330.739 382.452 330.739C383.339 330.739 384.114 330.92 384.779 331.284C385.444 331.642 385.961 332.188 386.33 332.92C386.7 333.648 386.884 334.568 386.884 335.682V344H384.873V335.818C384.873 334.79 384.606 333.989 384.072 333.415C383.538 332.835 382.805 332.545 381.873 332.545C381.231 332.545 380.657 332.685 380.151 332.963C379.651 333.241 379.256 333.648 378.967 334.182C378.677 334.716 378.532 335.364 378.532 336.125ZM395.503 344.273C394.412 344.273 393.449 343.997 392.614 343.446C391.778 342.889 391.125 342.105 390.653 341.094C390.182 340.077 389.946 338.875 389.946 337.489C389.946 336.114 390.182 334.92 390.653 333.909C391.125 332.898 391.781 332.116 392.622 331.565C393.463 331.014 394.435 330.739 395.537 330.739C396.389 330.739 397.063 330.881 397.557 331.165C398.057 331.443 398.438 331.761 398.699 332.119C398.966 332.472 399.173 332.761 399.321 332.989H399.491V326.545H401.503V344H399.56V341.989H399.321C399.173 342.227 398.963 342.528 398.69 342.892C398.418 343.25 398.028 343.571 397.523 343.855C397.017 344.134 396.344 344.273 395.503 344.273ZM395.776 342.466C396.582 342.466 397.264 342.256 397.821 341.835C398.378 341.409 398.801 340.821 399.091 340.071C399.381 339.315 399.526 338.443 399.526 337.455C399.526 336.477 399.384 335.622 399.099 334.889C398.815 334.151 398.395 333.577 397.838 333.168C397.281 332.753 396.594 332.545 395.776 332.545C394.923 332.545 394.213 332.764 393.645 333.202C393.082 333.634 392.659 334.222 392.375 334.966C392.097 335.705 391.957 336.534 391.957 337.455C391.957 338.386 392.099 339.233 392.384 339.994C392.673 340.75 393.099 341.352 393.662 341.801C394.23 342.244 394.935 342.466 395.776 342.466ZM34.1136 375V357.545H40.0114C41.375 357.545 42.4943 357.778 43.3693 358.244C44.2443 358.705 44.892 359.338 45.3125 360.145C45.733 360.952 45.9432 361.869 45.9432 362.898C45.9432 363.926 45.733 364.838 45.3125 365.634C44.892 366.429 44.2472 367.054 43.3778 367.509C42.5085 367.957 41.3977 368.182 40.0455 368.182H35.2727V366.273H39.9773C40.9091 366.273 41.6591 366.136 42.2273 365.864C42.8011 365.591 43.2159 365.205 43.4716 364.705C43.733 364.199 43.8636 363.597 43.8636 362.898C43.8636 362.199 43.733 361.588 43.4716 361.065C43.2102 360.543 42.7926 360.139 42.2188 359.855C41.6449 359.565 40.8864 359.42 39.9432 359.42H36.2273V375H34.1136ZM42.3295 367.159L46.625 375H44.1705L39.9432 367.159H42.3295ZM54.5405 375.273C53.2791 375.273 52.1911 374.994 51.2763 374.438C50.3672 373.875 49.6655 373.091 49.1712 372.085C48.6825 371.074 48.4382 369.898 48.4382 368.557C48.4382 367.216 48.6825 366.034 49.1712 365.011C49.6655 363.983 50.353 363.182 51.2337 362.608C52.12 362.028 53.1541 361.739 54.3359 361.739C55.0178 361.739 55.6911 361.852 56.3558 362.08C57.0206 362.307 57.6257 362.676 58.1712 363.188C58.7166 363.693 59.1513 364.364 59.4751 365.199C59.799 366.034 59.9609 367.062 59.9609 368.284V369.136H49.87V367.398H57.9155C57.9155 366.659 57.7678 366 57.4723 365.42C57.1825 364.841 56.7678 364.384 56.228 364.048C55.6939 363.713 55.0632 363.545 54.3359 363.545C53.5348 363.545 52.8416 363.744 52.2564 364.142C51.6768 364.534 51.2308 365.045 50.9183 365.676C50.6058 366.307 50.4496 366.983 50.4496 367.705V368.864C50.4496 369.852 50.62 370.69 50.9609 371.378C51.3075 372.06 51.7876 372.58 52.4013 372.938C53.0149 373.29 53.728 373.466 54.5405 373.466C55.0689 373.466 55.5462 373.392 55.9723 373.244C56.4041 373.091 56.7763 372.864 57.0888 372.562C57.4013 372.256 57.6428 371.875 57.8132 371.42L59.7564 371.966C59.5518 372.625 59.2081 373.205 58.7251 373.705C58.2422 374.199 57.6456 374.585 56.9354 374.864C56.2251 375.136 55.4268 375.273 54.5405 375.273ZM71.9524 379.909V372.989H71.782C71.6342 373.227 71.424 373.528 71.1513 373.892C70.8786 374.25 70.4893 374.571 69.9837 374.855C69.478 375.134 68.8047 375.273 67.9638 375.273C66.8729 375.273 65.9098 374.997 65.0746 374.446C64.2393 373.889 63.5859 373.105 63.1143 372.094C62.6428 371.077 62.407 369.875 62.407 368.489C62.407 367.114 62.6428 365.92 63.1143 364.909C63.5859 363.898 64.2422 363.116 65.0831 362.565C65.924 362.014 66.8956 361.739 67.9979 361.739C68.8501 361.739 69.5234 361.881 70.0178 362.165C70.5178 362.443 70.8984 362.761 71.1598 363.119C71.4268 363.472 71.6342 363.761 71.782 363.989H72.0206V361.909H73.9638V379.909H71.9524ZM68.2365 373.466C69.0433 373.466 69.7251 373.256 70.282 372.835C70.8388 372.409 71.2621 371.821 71.5518 371.071C71.8416 370.315 71.9865 369.443 71.9865 368.455C71.9865 367.477 71.8445 366.622 71.5604 365.889C71.2763 365.151 70.8558 364.577 70.299 364.168C69.7422 363.753 69.0547 363.545 68.2365 363.545C67.3842 363.545 66.674 363.764 66.1058 364.202C65.5433 364.634 65.12 365.222 64.8359 365.966C64.5575 366.705 64.4183 367.534 64.4183 368.455C64.4183 369.386 64.5604 370.233 64.8445 370.994C65.1342 371.75 65.5604 372.352 66.1229 372.801C66.6911 373.244 67.3956 373.466 68.2365 373.466ZM85.8956 369.648V361.909H87.907V375H85.8956V372.784H85.7592C85.4524 373.449 84.9751 374.014 84.3274 374.48C83.6797 374.94 82.8615 375.17 81.8729 375.17C81.0547 375.17 80.3274 374.991 79.6911 374.634C79.0547 374.27 78.5547 373.724 78.1911 372.997C77.8274 372.264 77.6456 371.341 77.6456 370.227V361.909H79.657V370.091C79.657 371.045 79.924 371.807 80.4581 372.375C80.9979 372.943 81.6854 373.227 82.5206 373.227C83.0206 373.227 83.5291 373.099 84.0462 372.844C84.5689 372.588 85.0064 372.196 85.3587 371.668C85.7166 371.139 85.8956 370.466 85.8956 369.648ZM91.5909 375V361.909H93.6023V375H91.5909ZM92.6136 359.727C92.2216 359.727 91.8835 359.594 91.5994 359.327C91.321 359.06 91.1818 358.739 91.1818 358.364C91.1818 357.989 91.321 357.668 91.5994 357.401C91.8835 357.134 92.2216 357 92.6136 357C93.0057 357 93.3409 357.134 93.6193 357.401C93.9034 357.668 94.0455 357.989 94.0455 358.364C94.0455 358.739 93.9034 359.06 93.6193 359.327C93.3409 359.594 93.0057 359.727 92.6136 359.727ZM97.2862 375V361.909H99.2294V363.886H99.3658C99.6044 363.239 100.036 362.713 100.661 362.31C101.286 361.906 101.991 361.705 102.775 361.705C102.923 361.705 103.107 361.707 103.329 361.713C103.55 361.719 103.718 361.727 103.832 361.739V363.784C103.763 363.767 103.607 363.741 103.363 363.707C103.124 363.668 102.871 363.648 102.604 363.648C101.968 363.648 101.4 363.781 100.9 364.048C100.406 364.31 100.013 364.673 99.7237 365.139C99.4396 365.599 99.2976 366.125 99.2976 366.716V375H97.2862ZM111.306 375.273C110.045 375.273 108.957 374.994 108.042 374.438C107.133 373.875 106.431 373.091 105.937 372.085C105.448 371.074 105.204 369.898 105.204 368.557C105.204 367.216 105.448 366.034 105.937 365.011C106.431 363.983 107.119 363.182 107.999 362.608C108.886 362.028 109.92 361.739 111.102 361.739C111.783 361.739 112.457 361.852 113.121 362.08C113.786 362.307 114.391 362.676 114.937 363.188C115.482 363.693 115.917 364.364 116.241 365.199C116.565 366.034 116.727 367.062 116.727 368.284V369.136H106.636V367.398H114.681C114.681 366.659 114.533 366 114.238 365.42C113.948 364.841 113.533 364.384 112.994 364.048C112.46 363.713 111.829 363.545 111.102 363.545C110.3 363.545 109.607 363.744 109.022 364.142C108.442 364.534 107.996 365.045 107.684 365.676C107.371 366.307 107.215 366.983 107.215 367.705V368.864C107.215 369.852 107.386 370.69 107.727 371.378C108.073 372.06 108.553 372.58 109.167 372.938C109.781 373.29 110.494 373.466 111.306 373.466C111.835 373.466 112.312 373.392 112.738 373.244C113.17 373.091 113.542 372.864 113.854 372.562C114.167 372.256 114.408 371.875 114.579 371.42L116.522 371.966C116.317 372.625 115.974 373.205 115.491 373.705C115.008 374.199 114.411 374.585 113.701 374.864C112.991 375.136 112.192 375.273 111.306 375.273ZM119.786 375V361.909H121.729V363.955H121.9C122.173 363.256 122.613 362.713 123.221 362.327C123.829 361.935 124.559 361.739 125.411 361.739C126.275 361.739 126.994 361.935 127.567 362.327C128.147 362.713 128.599 363.256 128.923 363.955H129.059C129.394 363.278 129.897 362.741 130.567 362.344C131.238 361.94 132.042 361.739 132.979 361.739C134.15 361.739 135.107 362.105 135.852 362.838C136.596 363.565 136.968 364.699 136.968 366.239V375H134.957V366.239C134.957 365.273 134.692 364.582 134.164 364.168C133.636 363.753 133.013 363.545 132.298 363.545C131.377 363.545 130.664 363.824 130.158 364.381C129.653 364.932 129.4 365.631 129.4 366.477V375H127.354V366.034C127.354 365.29 127.113 364.69 126.63 364.236C126.147 363.776 125.525 363.545 124.763 363.545C124.241 363.545 123.752 363.685 123.298 363.963C122.849 364.241 122.485 364.628 122.207 365.122C121.934 365.611 121.798 366.176 121.798 366.818V375H119.786ZM146.134 375.273C144.873 375.273 143.785 374.994 142.87 374.438C141.961 373.875 141.259 373.091 140.765 372.085C140.276 371.074 140.032 369.898 140.032 368.557C140.032 367.216 140.276 366.034 140.765 365.011C141.259 363.983 141.947 363.182 142.827 362.608C143.714 362.028 144.748 361.739 145.93 361.739C146.612 361.739 147.285 361.852 147.95 362.08C148.614 362.307 149.219 362.676 149.765 363.188C150.31 363.693 150.745 364.364 151.069 365.199C151.393 366.034 151.555 367.062 151.555 368.284V369.136H141.464V367.398H149.509C149.509 366.659 149.362 366 149.066 365.42C148.776 364.841 148.362 364.384 147.822 364.048C147.288 363.713 146.657 363.545 145.93 363.545C145.129 363.545 144.435 363.744 143.85 364.142C143.271 364.534 142.825 365.045 142.512 365.676C142.2 366.307 142.043 366.983 142.043 367.705V368.864C142.043 369.852 142.214 370.69 142.555 371.378C142.901 372.06 143.381 372.58 143.995 372.938C144.609 373.29 145.322 373.466 146.134 373.466C146.663 373.466 147.14 373.392 147.566 373.244C147.998 373.091 148.37 372.864 148.683 372.562C148.995 372.256 149.237 371.875 149.407 371.42L151.35 371.966C151.146 372.625 150.802 373.205 150.319 373.705C149.836 374.199 149.239 374.585 148.529 374.864C147.819 375.136 147.021 375.273 146.134 375.273ZM156.626 367.125V375H154.614V361.909H156.558V363.955H156.728C157.035 363.29 157.501 362.756 158.126 362.352C158.751 361.943 159.558 361.739 160.546 361.739C161.433 361.739 162.208 361.92 162.873 362.284C163.538 362.642 164.055 363.188 164.424 363.92C164.793 364.648 164.978 365.568 164.978 366.682V375H162.967V366.818C162.967 365.79 162.7 364.989 162.165 364.415C161.631 363.835 160.898 363.545 159.967 363.545C159.325 363.545 158.751 363.685 158.245 363.963C157.745 364.241 157.35 364.648 157.06 365.182C156.771 365.716 156.626 366.364 156.626 367.125ZM174.347 361.909V363.614H167.562V361.909H174.347ZM169.54 358.773H171.551V371.25C171.551 371.818 171.634 372.244 171.798 372.528C171.969 372.807 172.185 372.994 172.446 373.091C172.713 373.182 172.994 373.227 173.29 373.227C173.511 373.227 173.693 373.216 173.835 373.193C173.977 373.165 174.091 373.142 174.176 373.125L174.585 374.932C174.449 374.983 174.259 375.034 174.014 375.085C173.77 375.142 173.46 375.17 173.085 375.17C172.517 375.17 171.96 375.048 171.415 374.804C170.875 374.56 170.426 374.188 170.068 373.688C169.716 373.188 169.54 372.557 169.54 371.795V358.773ZM186.411 364.841L184.604 365.352C184.49 365.051 184.322 364.759 184.101 364.474C183.885 364.185 183.589 363.946 183.214 363.759C182.839 363.571 182.359 363.477 181.774 363.477C180.973 363.477 180.305 363.662 179.771 364.031C179.243 364.395 178.979 364.858 178.979 365.42C178.979 365.92 179.161 366.315 179.524 366.605C179.888 366.895 180.456 367.136 181.229 367.33L183.172 367.807C184.342 368.091 185.214 368.526 185.788 369.111C186.362 369.69 186.649 370.437 186.649 371.352C186.649 372.102 186.433 372.773 186.001 373.364C185.575 373.955 184.979 374.42 184.212 374.761C183.445 375.102 182.553 375.273 181.536 375.273C180.2 375.273 179.095 374.983 178.22 374.403C177.345 373.824 176.791 372.977 176.558 371.864L178.467 371.386C178.649 372.091 178.993 372.619 179.499 372.972C180.01 373.324 180.678 373.5 181.501 373.5C182.439 373.5 183.183 373.301 183.734 372.903C184.291 372.5 184.57 372.017 184.57 371.455C184.57 371 184.411 370.619 184.092 370.312C183.774 370 183.286 369.767 182.626 369.614L180.445 369.102C179.246 368.818 178.365 368.378 177.803 367.781C177.246 367.179 176.967 366.426 176.967 365.523C176.967 364.784 177.175 364.131 177.589 363.562C178.01 362.994 178.581 362.548 179.303 362.224C180.03 361.901 180.854 361.739 181.774 361.739C183.07 361.739 184.087 362.023 184.825 362.591C185.57 363.159 186.098 363.909 186.411 364.841Z" fill="white"/>
<rect x="32" y="32" width="65" height="65" rx="32.5" fill="#F26A1B"/>
<mask id="mask0_3231_6017" style="mask-type:alpha" maskUnits="userSpaceOnUse" x="34" y="34" width="61" height="61">
<rect x="34.9541" y="34.9551" width="59.0909" height="59.0909" fill="#D9D9D9"/>
</mask>
<g mask="url(#mask0_3231_6017)">
<path d="M55.8799 79.5104V49.4922L79.459 64.5013L55.8799 79.5104Z" fill="white"/>
</g>
</g>
<defs>
<filter id="filter0_f_3231_6017" x="-419" y="-358" width="1524" height="1130" filterUnits="userSpaceOnUse" color-interpolation-filters="sRGB">
<feFlood flood-opacity="0" result="BackgroundImageFix"/>
<feBlend mode="normal" in="SourceGraphic" in2="BackgroundImageFix" result="shape"/>
<feGaussianBlur stdDeviation="257" result="effect1_foregroundBlur_3231_6017"/>
</filter>
<clipPath id="clip0_3231_6017">
<rect width="686" height="414.73" rx="9" fill="white"/>
</clipPath>
</defs>
</svg>
