<svg width="686" height="415" viewBox="0 0 686 415" fill="none" xmlns="http://www.w3.org/2000/svg">
<g clip-path="url(#clip0_3130_5959)">
<rect width="686" height="414.73" rx="9" fill="#FDF7F2"/>
<g opacity="0.2">
<path d="M663.517 53.0087C649.406 47.3321 635.664 40.8245 622.212 33.7663C621.179 33.2158 620.15 32.6601 619.122 32.094C633.482 24.2413 648.341 17.313 663.517 11.1482C670.253 8.62405 672.668 -0.236252 668.062 -5.80381C664.301 -10.504 657.446 -11.2727 652.746 -7.51251C640.774 1.87235 628.268 10.5197 615.429 18.6373C614.437 19.2606 613.44 19.8682 612.438 20.4759C612.822 4.11081 614.25 -12.2179 616.494 -28.4428C617.678 -35.5373 611.207 -42.0604 604.081 -40.8555C598.337 -39.983 594.323 -34.7738 594.868 -29.0608C598.934 -11.0182 601.272 7.59053 601.646 26.6147C601.661 27.3938 601.677 28.1728 601.687 28.9519C601.698 29.84 601.703 30.7229 601.708 31.611C601.708 31.7668 601.708 31.9226 601.708 32.0784C601.708 32.2238 601.708 32.3641 601.708 32.5095C601.708 32.5199 601.708 32.5303 601.708 32.5407C601.708 33.4911 601.698 34.4415 601.687 35.392C601.687 35.527 601.687 35.6672 601.682 35.8022C601.682 36.1502 601.672 36.493 601.666 36.841C601.334 56.1093 598.992 74.9517 594.873 93.2177C594.333 98.9306 598.342 104.14 604.087 105.012C611.212 106.217 617.683 99.6993 616.499 92.5996C614.256 76.3851 612.827 60.0668 612.443 43.7121C626.414 52.2193 639.834 61.6197 652.751 71.6694C658.303 76.2449 667.184 73.8974 669.703 67.1249C671.894 61.521 669.131 55.1952 663.522 53.0035L663.517 53.0087Z" fill="#F26A1B" fill-opacity="0.6"/>
<path d="M570.716 43.0311C568.841 43.9088 566.961 44.771 565.07 45.6175C559.389 48.1676 553.702 50.7021 547.911 53.0028C541.201 55.5373 538.796 64.3613 543.377 69.9236C547.121 74.6342 553.977 75.4133 558.687 71.6635C560.318 70.3651 561.97 69.1082 563.632 67.8514C565.299 66.6101 566.956 65.3636 568.633 64.1483C571.978 61.7021 575.333 59.2663 578.73 56.898C586.603 51.102 579.753 39.0943 570.716 43.0207V43.0311Z" fill="#F26A1B" fill-opacity="0.6"/>
<path d="M578.725 7.24856C577.026 6.06441 575.339 4.86469 573.661 3.65458C568.613 0.00866127 563.575 -3.64765 558.683 -7.5117C553.136 -12.0613 544.286 -9.72418 541.762 -2.97767C539.555 2.62105 542.307 8.94687 547.906 11.1542C549.843 11.9176 551.765 12.7226 553.676 13.5276C555.582 14.3482 557.493 15.1636 559.384 16.0102C563.175 17.6825 566.961 19.3705 570.711 21.1311C579.665 25.0523 586.645 13.1173 578.725 7.25375V7.24856Z" fill="#F26A1B" fill-opacity="0.6"/>
</g>
<path d="M45.5682 357.545H47.6818V369.102C47.6818 370.295 47.4006 371.361 46.8381 372.298C46.2813 373.23 45.4943 373.966 44.4773 374.506C43.4602 375.04 42.267 375.307 40.8977 375.307C39.5284 375.307 38.3352 375.04 37.3182 374.506C36.3011 373.966 35.5114 373.23 34.9489 372.298C34.392 371.361 34.1136 370.295 34.1136 369.102V357.545H36.2273V368.932C36.2273 369.784 36.4148 370.543 36.7898 371.207C37.1648 371.866 37.6989 372.386 38.392 372.767C39.0909 373.142 39.9261 373.33 40.8977 373.33C41.8693 373.33 42.7045 373.142 43.4034 372.767C44.1023 372.386 44.6364 371.866 45.0057 371.207C45.3807 370.543 45.5682 369.784 45.5682 368.932V357.545ZM53.6413 367.125V375H51.63V361.909H53.5732V363.955H53.7436C54.0504 363.29 54.5163 362.756 55.1413 362.352C55.7663 361.943 56.5732 361.739 57.5618 361.739C58.4482 361.739 59.2237 361.92 59.8885 362.284C60.5533 362.642 61.0703 363.188 61.4396 363.92C61.8089 364.648 61.9936 365.568 61.9936 366.682V375H59.9822V366.818C59.9822 365.79 59.7152 364.989 59.1811 364.415C58.647 363.835 57.9141 363.545 56.9822 363.545C56.3402 363.545 55.7663 363.685 55.2607 363.963C54.7607 364.241 54.3658 364.648 54.076 365.182C53.7862 365.716 53.6413 366.364 53.6413 367.125ZM70.6122 375.273C69.5213 375.273 68.5582 374.997 67.723 374.446C66.8878 373.889 66.2344 373.105 65.7628 372.094C65.2912 371.077 65.0554 369.875 65.0554 368.489C65.0554 367.114 65.2912 365.92 65.7628 364.909C66.2344 363.898 66.8906 363.116 67.7315 362.565C68.5724 362.014 69.544 361.739 70.6463 361.739C71.4986 361.739 72.1719 361.881 72.6662 362.165C73.1662 362.443 73.5469 362.761 73.8082 363.119C74.0753 363.472 74.2827 363.761 74.4304 363.989H74.6009V357.545H76.6122V375H74.669V372.989H74.4304C74.2827 373.227 74.0724 373.528 73.7997 373.892C73.527 374.25 73.1378 374.571 72.6321 374.855C72.1264 375.134 71.4531 375.273 70.6122 375.273ZM70.8849 373.466C71.6918 373.466 72.3736 373.256 72.9304 372.835C73.4872 372.409 73.9105 371.821 74.2003 371.071C74.4901 370.315 74.6349 369.443 74.6349 368.455C74.6349 367.477 74.4929 366.622 74.2088 365.889C73.9247 365.151 73.5043 364.577 72.9474 364.168C72.3906 363.753 71.7031 363.545 70.8849 363.545C70.0327 363.545 69.3224 363.764 68.7543 364.202C68.1918 364.634 67.7685 365.222 67.4844 365.966C67.206 366.705 67.0668 367.534 67.0668 368.455C67.0668 369.386 67.2088 370.233 67.4929 370.994C67.7827 371.75 68.2088 372.352 68.7713 372.801C69.3395 373.244 70.044 373.466 70.8849 373.466ZM86.0639 375.273C84.8026 375.273 83.7145 374.994 82.7997 374.438C81.8906 373.875 81.1889 373.091 80.6946 372.085C80.206 371.074 79.9616 369.898 79.9616 368.557C79.9616 367.216 80.206 366.034 80.6946 365.011C81.1889 363.983 81.8764 363.182 82.7571 362.608C83.6435 362.028 84.6776 361.739 85.8594 361.739C86.5412 361.739 87.2145 361.852 87.8793 362.08C88.544 362.307 89.1491 362.676 89.6946 363.188C90.2401 363.693 90.6747 364.364 90.9986 365.199C91.3224 366.034 91.4844 367.062 91.4844 368.284V369.136H81.3935V367.398H89.4389C89.4389 366.659 89.2912 366 88.9957 365.42C88.706 364.841 88.2912 364.384 87.7514 364.048C87.2173 363.713 86.5866 363.545 85.8594 363.545C85.0582 363.545 84.3651 363.744 83.7798 364.142C83.2003 364.534 82.7543 365.045 82.4418 365.676C82.1293 366.307 81.973 366.983 81.973 367.705V368.864C81.973 369.852 82.1435 370.69 82.4844 371.378C82.831 372.06 83.3111 372.58 83.9247 372.938C84.5384 373.29 85.2514 373.466 86.0639 373.466C86.5923 373.466 87.0696 373.392 87.4957 373.244C87.9276 373.091 88.2997 372.864 88.6122 372.562C88.9247 372.256 89.1662 371.875 89.3366 371.42L91.2798 371.966C91.0753 372.625 90.7315 373.205 90.2486 373.705C89.7656 374.199 89.169 374.585 88.4588 374.864C87.7486 375.136 86.9503 375.273 86.0639 375.273ZM94.544 375V361.909H96.4872V363.886H96.6236C96.8622 363.239 97.294 362.713 97.919 362.31C98.544 361.906 99.2486 361.705 100.033 361.705C100.18 361.705 100.365 361.707 100.587 361.713C100.808 361.719 100.976 361.727 101.089 361.739V363.784C101.021 363.767 100.865 363.741 100.621 363.707C100.382 363.668 100.129 363.648 99.8622 363.648C99.2259 363.648 98.6577 363.781 98.1577 364.048C97.6634 364.31 97.2713 364.673 96.9815 365.139C96.6974 365.599 96.5554 366.125 96.5554 366.716V375H94.544ZM112.746 364.841L110.94 365.352C110.826 365.051 110.658 364.759 110.437 364.474C110.221 364.185 109.925 363.946 109.55 363.759C109.175 363.571 108.695 363.477 108.11 363.477C107.309 363.477 106.641 363.662 106.107 364.031C105.579 364.395 105.315 364.858 105.315 365.42C105.315 365.92 105.496 366.315 105.86 366.605C106.224 366.895 106.792 367.136 107.565 367.33L109.508 367.807C110.678 368.091 111.55 368.526 112.124 369.111C112.698 369.69 112.985 370.437 112.985 371.352C112.985 372.102 112.769 372.773 112.337 373.364C111.911 373.955 111.315 374.42 110.548 374.761C109.781 375.102 108.888 375.273 107.871 375.273C106.536 375.273 105.431 374.983 104.556 374.403C103.681 373.824 103.127 372.977 102.894 371.864L104.803 371.386C104.985 372.091 105.329 372.619 105.835 372.972C106.346 373.324 107.013 373.5 107.837 373.5C108.775 373.5 109.519 373.301 110.07 372.903C110.627 372.5 110.906 372.017 110.906 371.455C110.906 371 110.746 370.619 110.428 370.312C110.11 370 109.621 369.767 108.962 369.614L106.781 369.102C105.582 368.818 104.701 368.378 104.138 367.781C103.582 367.179 103.303 366.426 103.303 365.523C103.303 364.784 103.511 364.131 103.925 363.562C104.346 362.994 104.917 362.548 105.638 362.224C106.366 361.901 107.19 361.739 108.11 361.739C109.406 361.739 110.423 362.023 111.161 362.591C111.906 363.159 112.434 363.909 112.746 364.841ZM121.706 361.909V363.614H114.922V361.909H121.706ZM116.899 358.773H118.911V371.25C118.911 371.818 118.993 372.244 119.158 372.528C119.328 372.807 119.544 372.994 119.805 373.091C120.072 373.182 120.354 373.227 120.649 373.227C120.871 373.227 121.053 373.216 121.195 373.193C121.337 373.165 121.45 373.142 121.536 373.125L121.945 374.932C121.808 374.983 121.618 375.034 121.374 375.085C121.129 375.142 120.82 375.17 120.445 375.17C119.876 375.17 119.32 375.048 118.774 374.804C118.234 374.56 117.786 374.188 117.428 373.688C117.075 373.188 116.899 372.557 116.899 371.795V358.773ZM128.584 375.307C127.754 375.307 127.001 375.151 126.325 374.838C125.649 374.52 125.112 374.062 124.714 373.466C124.317 372.864 124.118 372.136 124.118 371.284C124.118 370.534 124.266 369.926 124.561 369.46C124.857 368.989 125.251 368.619 125.746 368.352C126.24 368.085 126.786 367.886 127.382 367.756C127.984 367.619 128.589 367.511 129.197 367.432C129.993 367.33 130.638 367.253 131.132 367.202C131.632 367.145 131.996 367.051 132.223 366.92C132.456 366.79 132.572 366.562 132.572 366.239V366.17C132.572 365.33 132.342 364.676 131.882 364.21C131.428 363.744 130.737 363.511 129.811 363.511C128.851 363.511 128.098 363.722 127.553 364.142C127.007 364.562 126.624 365.011 126.402 365.489L124.493 364.807C124.834 364.011 125.288 363.392 125.857 362.949C126.43 362.5 127.055 362.187 127.732 362.011C128.413 361.83 129.084 361.739 129.743 361.739C130.163 361.739 130.646 361.79 131.192 361.892C131.743 361.989 132.274 362.19 132.786 362.497C133.303 362.804 133.732 363.267 134.072 363.886C134.413 364.506 134.584 365.335 134.584 366.375V375H132.572V373.227H132.47C132.334 373.511 132.107 373.815 131.788 374.139C131.47 374.463 131.047 374.739 130.518 374.966C129.99 375.193 129.345 375.307 128.584 375.307ZM128.891 373.5C129.686 373.5 130.357 373.344 130.902 373.031C131.453 372.719 131.868 372.315 132.146 371.821C132.43 371.327 132.572 370.807 132.572 370.261V368.42C132.487 368.523 132.3 368.616 132.01 368.702C131.726 368.781 131.396 368.852 131.021 368.915C130.652 368.972 130.291 369.023 129.939 369.068C129.592 369.108 129.311 369.142 129.095 369.17C128.572 369.239 128.084 369.349 127.629 369.503C127.18 369.651 126.817 369.875 126.538 370.176C126.266 370.472 126.129 370.875 126.129 371.386C126.129 372.085 126.388 372.614 126.905 372.972C127.428 373.324 128.089 373.5 128.891 373.5ZM140.266 367.125V375H138.255V361.909H140.198V363.955H140.369C140.675 363.29 141.141 362.756 141.766 362.352C142.391 361.943 143.198 361.739 144.187 361.739C145.073 361.739 145.849 361.92 146.513 362.284C147.178 362.642 147.695 363.188 148.065 363.92C148.434 364.648 148.619 365.568 148.619 366.682V375H146.607V366.818C146.607 365.79 146.34 364.989 145.806 364.415C145.272 363.835 144.539 363.545 143.607 363.545C142.965 363.545 142.391 363.685 141.886 363.963C141.386 364.241 140.991 364.648 140.701 365.182C140.411 365.716 140.266 366.364 140.266 367.125ZM157.237 375.273C156.146 375.273 155.183 374.997 154.348 374.446C153.513 373.889 152.859 373.105 152.388 372.094C151.916 371.077 151.68 369.875 151.68 368.489C151.68 367.114 151.916 365.92 152.388 364.909C152.859 363.898 153.516 363.116 154.357 362.565C155.197 362.014 156.169 361.739 157.271 361.739C158.124 361.739 158.797 361.881 159.291 362.165C159.791 362.443 160.172 362.761 160.433 363.119C160.7 363.472 160.908 363.761 161.055 363.989H161.226V357.545H163.237V375H161.294V372.989H161.055C160.908 373.227 160.697 373.528 160.425 373.892C160.152 374.25 159.763 374.571 159.257 374.855C158.751 375.134 158.078 375.273 157.237 375.273ZM157.51 373.466C158.317 373.466 158.999 373.256 159.555 372.835C160.112 372.409 160.536 371.821 160.825 371.071C161.115 370.315 161.26 369.443 161.26 368.455C161.26 367.477 161.118 366.622 160.834 365.889C160.55 365.151 160.129 364.577 159.572 364.168C159.016 363.753 158.328 363.545 157.51 363.545C156.658 363.545 155.947 363.764 155.379 364.202C154.817 364.634 154.393 365.222 154.109 365.966C153.831 366.705 153.692 367.534 153.692 368.455C153.692 369.386 153.834 370.233 154.118 370.994C154.408 371.75 154.834 372.352 155.396 372.801C155.964 373.244 156.669 373.466 157.51 373.466ZM188.268 363H186.155C186.03 362.392 185.811 361.858 185.499 361.398C185.192 360.938 184.817 360.551 184.374 360.239C183.936 359.92 183.45 359.682 182.916 359.523C182.382 359.364 181.825 359.284 181.246 359.284C180.189 359.284 179.232 359.551 178.374 360.085C177.521 360.619 176.842 361.406 176.337 362.446C175.837 363.486 175.587 364.761 175.587 366.273C175.587 367.784 175.837 369.06 176.337 370.099C176.842 371.139 177.521 371.926 178.374 372.46C179.232 372.994 180.189 373.261 181.246 373.261C181.825 373.261 182.382 373.182 182.916 373.023C183.45 372.864 183.936 372.628 184.374 372.315C184.817 371.997 185.192 371.608 185.499 371.148C185.811 370.682 186.03 370.148 186.155 369.545H188.268C188.109 370.437 187.82 371.236 187.399 371.94C186.979 372.645 186.456 373.244 185.831 373.739C185.206 374.227 184.504 374.599 183.726 374.855C182.953 375.111 182.126 375.239 181.246 375.239C179.757 375.239 178.433 374.875 177.274 374.148C176.115 373.42 175.203 372.386 174.538 371.045C173.874 369.705 173.541 368.114 173.541 366.273C173.541 364.432 173.874 362.841 174.538 361.5C175.203 360.159 176.115 359.125 177.274 358.398C178.433 357.67 179.757 357.307 181.246 357.307C182.126 357.307 182.953 357.435 183.726 357.69C184.504 357.946 185.206 358.321 185.831 358.815C186.456 359.304 186.979 359.901 187.399 360.605C187.82 361.304 188.109 362.102 188.268 363ZM196.729 375.273C195.548 375.273 194.511 374.991 193.619 374.429C192.732 373.866 192.039 373.08 191.539 372.068C191.045 371.057 190.798 369.875 190.798 368.523C190.798 367.159 191.045 365.969 191.539 364.952C192.039 363.935 192.732 363.145 193.619 362.582C194.511 362.02 195.548 361.739 196.729 361.739C197.911 361.739 198.945 362.02 199.832 362.582C200.724 363.145 201.417 363.935 201.911 364.952C202.411 365.969 202.661 367.159 202.661 368.523C202.661 369.875 202.411 371.057 201.911 372.068C201.417 373.08 200.724 373.866 199.832 374.429C198.945 374.991 197.911 375.273 196.729 375.273ZM196.729 373.466C197.627 373.466 198.366 373.236 198.945 372.776C199.525 372.315 199.954 371.71 200.232 370.96C200.511 370.21 200.65 369.398 200.65 368.523C200.65 367.648 200.511 366.832 200.232 366.077C199.954 365.321 199.525 364.71 198.945 364.244C198.366 363.778 197.627 363.545 196.729 363.545C195.832 363.545 195.093 363.778 194.513 364.244C193.934 364.71 193.505 365.321 193.227 366.077C192.948 366.832 192.809 367.648 192.809 368.523C192.809 369.398 192.948 370.21 193.227 370.96C193.505 371.71 193.934 372.315 194.513 372.776C195.093 373.236 195.832 373.466 196.729 373.466ZM205.732 375V361.909H207.675V363.955H207.845C208.118 363.256 208.558 362.713 209.166 362.327C209.774 361.935 210.504 361.739 211.357 361.739C212.22 361.739 212.939 361.935 213.513 362.327C214.092 362.713 214.544 363.256 214.868 363.955H215.004C215.339 363.278 215.842 362.741 216.513 362.344C217.183 361.94 217.987 361.739 218.925 361.739C220.095 361.739 221.053 362.105 221.797 362.838C222.541 363.565 222.913 364.699 222.913 366.239V375H220.902V366.239C220.902 365.273 220.638 364.582 220.109 364.168C219.581 363.753 218.959 363.545 218.243 363.545C217.322 363.545 216.609 363.824 216.104 364.381C215.598 364.932 215.345 365.631 215.345 366.477V375H213.3V366.034C213.3 365.29 213.058 364.69 212.575 364.236C212.092 363.776 211.47 363.545 210.709 363.545C210.186 363.545 209.697 363.685 209.243 363.963C208.794 364.241 208.43 364.628 208.152 365.122C207.879 365.611 207.743 366.176 207.743 366.818V375H205.732ZM226.591 379.909V361.909H228.534V363.989H228.773C228.92 363.761 229.125 363.472 229.386 363.119C229.653 362.761 230.034 362.443 230.528 362.165C231.028 361.881 231.705 361.739 232.557 361.739C233.659 361.739 234.631 362.014 235.472 362.565C236.313 363.116 236.969 363.898 237.44 364.909C237.912 365.92 238.148 367.114 238.148 368.489C238.148 369.875 237.912 371.077 237.44 372.094C236.969 373.105 236.315 373.889 235.48 374.446C234.645 374.997 233.682 375.273 232.591 375.273C231.75 375.273 231.077 375.134 230.571 374.855C230.065 374.571 229.676 374.25 229.403 373.892C229.131 373.528 228.92 373.227 228.773 372.989H228.602V379.909H226.591ZM228.568 368.455C228.568 369.443 228.713 370.315 229.003 371.071C229.293 371.821 229.716 372.409 230.273 372.835C230.83 373.256 231.511 373.466 232.318 373.466C233.159 373.466 233.861 373.244 234.423 372.801C234.991 372.352 235.418 371.75 235.702 370.994C235.991 370.233 236.136 369.386 236.136 368.455C236.136 367.534 235.994 366.705 235.71 365.966C235.432 365.222 235.009 364.634 234.44 364.202C233.878 363.764 233.17 363.545 232.318 363.545C231.5 363.545 230.813 363.753 230.256 364.168C229.699 364.577 229.278 365.151 228.994 365.889C228.71 366.622 228.568 367.477 228.568 368.455ZM243.227 357.545V375H241.216V357.545H243.227ZM252.4 375.273C251.138 375.273 250.05 374.994 249.136 374.438C248.227 373.875 247.525 373.091 247.031 372.085C246.542 371.074 246.298 369.898 246.298 368.557C246.298 367.216 246.542 366.034 247.031 365.011C247.525 363.983 248.212 363.182 249.093 362.608C249.979 362.028 251.013 361.739 252.195 361.739C252.877 361.739 253.55 361.852 254.215 362.08C254.88 362.307 255.485 362.676 256.031 363.188C256.576 363.693 257.011 364.364 257.335 365.199C257.658 366.034 257.82 367.062 257.82 368.284V369.136H247.729V367.398H255.775C255.775 366.659 255.627 366 255.332 365.42C255.042 364.841 254.627 364.384 254.087 364.048C253.553 363.713 252.923 363.545 252.195 363.545C251.394 363.545 250.701 363.744 250.116 364.142C249.536 364.534 249.09 365.045 248.778 365.676C248.465 366.307 248.309 366.983 248.309 367.705V368.864C248.309 369.852 248.479 370.69 248.82 371.378C249.167 372.06 249.647 372.58 250.261 372.938C250.874 373.29 251.587 373.466 252.4 373.466C252.928 373.466 253.406 373.392 253.832 373.244C254.263 373.091 254.636 372.864 254.948 372.562C255.261 372.256 255.502 371.875 255.673 371.42L257.616 371.966C257.411 372.625 257.067 373.205 256.585 373.705C256.102 374.199 255.505 374.585 254.795 374.864C254.085 375.136 253.286 375.273 252.4 375.273ZM262.028 361.909L265.165 367.261L268.301 361.909H270.619L266.392 368.455L270.619 375H268.301L265.165 369.92L262.028 375H259.71L263.869 368.455L259.71 361.909H262.028ZM294.558 363H292.444C292.319 362.392 292.1 361.858 291.788 361.398C291.481 360.938 291.106 360.551 290.663 360.239C290.225 359.92 289.739 359.682 289.205 359.523C288.671 359.364 288.114 359.284 287.535 359.284C286.478 359.284 285.521 359.551 284.663 360.085C283.81 360.619 283.131 361.406 282.626 362.446C282.126 363.486 281.876 364.761 281.876 366.273C281.876 367.784 282.126 369.06 282.626 370.099C283.131 371.139 283.81 371.926 284.663 372.46C285.521 372.994 286.478 373.261 287.535 373.261C288.114 373.261 288.671 373.182 289.205 373.023C289.739 372.864 290.225 372.628 290.663 372.315C291.106 371.997 291.481 371.608 291.788 371.148C292.1 370.682 292.319 370.148 292.444 369.545H294.558C294.398 370.437 294.109 371.236 293.688 371.94C293.268 372.645 292.745 373.244 292.12 373.739C291.495 374.227 290.793 374.599 290.015 374.855C289.242 375.111 288.415 375.239 287.535 375.239C286.046 375.239 284.722 374.875 283.563 374.148C282.404 373.42 281.492 372.386 280.827 371.045C280.163 369.705 279.83 368.114 279.83 366.273C279.83 364.432 280.163 362.841 280.827 361.5C281.492 360.159 282.404 359.125 283.563 358.398C284.722 357.67 286.046 357.307 287.535 357.307C288.415 357.307 289.242 357.435 290.015 357.69C290.793 357.946 291.495 358.321 292.12 358.815C292.745 359.304 293.268 359.901 293.688 360.605C294.109 361.304 294.398 362.102 294.558 363ZM303.018 375.273C301.837 375.273 300.8 374.991 299.908 374.429C299.021 373.866 298.328 373.08 297.828 372.068C297.334 371.057 297.087 369.875 297.087 368.523C297.087 367.159 297.334 365.969 297.828 364.952C298.328 363.935 299.021 363.145 299.908 362.582C300.8 362.02 301.837 361.739 303.018 361.739C304.2 361.739 305.234 362.02 306.121 362.582C307.013 363.145 307.706 363.935 308.2 364.952C308.7 365.969 308.95 367.159 308.95 368.523C308.95 369.875 308.7 371.057 308.2 372.068C307.706 373.08 307.013 373.866 306.121 374.429C305.234 374.991 304.2 375.273 303.018 375.273ZM303.018 373.466C303.916 373.466 304.655 373.236 305.234 372.776C305.814 372.315 306.243 371.71 306.521 370.96C306.8 370.21 306.939 369.398 306.939 368.523C306.939 367.648 306.8 366.832 306.521 366.077C306.243 365.321 305.814 364.71 305.234 364.244C304.655 363.778 303.916 363.545 303.018 363.545C302.121 363.545 301.382 363.778 300.803 364.244C300.223 364.71 299.794 365.321 299.516 366.077C299.237 366.832 299.098 367.648 299.098 368.523C299.098 369.398 299.237 370.21 299.516 370.96C299.794 371.71 300.223 372.315 300.803 372.776C301.382 373.236 302.121 373.466 303.018 373.466ZM316.964 375.273C315.873 375.273 314.91 374.997 314.075 374.446C313.239 373.889 312.586 373.105 312.114 372.094C311.643 371.077 311.407 369.875 311.407 368.489C311.407 367.114 311.643 365.92 312.114 364.909C312.586 363.898 313.242 363.116 314.083 362.565C314.924 362.014 315.896 361.739 316.998 361.739C317.85 361.739 318.523 361.881 319.018 362.165C319.518 362.443 319.898 362.761 320.16 363.119C320.427 363.472 320.634 363.761 320.782 363.989H320.952V357.545H322.964V375H321.021V372.989H320.782C320.634 373.227 320.424 373.528 320.151 373.892C319.879 374.25 319.489 374.571 318.984 374.855C318.478 375.134 317.805 375.273 316.964 375.273ZM317.237 373.466C318.043 373.466 318.725 373.256 319.282 372.835C319.839 372.409 320.262 371.821 320.552 371.071C320.842 370.315 320.987 369.443 320.987 368.455C320.987 367.477 320.844 366.622 320.56 365.889C320.276 365.151 319.856 364.577 319.299 364.168C318.742 363.753 318.055 363.545 317.237 363.545C316.384 363.545 315.674 363.764 315.106 364.202C314.543 364.634 314.12 365.222 313.836 365.966C313.558 366.705 313.418 367.534 313.418 368.455C313.418 369.386 313.56 370.233 313.844 370.994C314.134 371.75 314.56 372.352 315.123 372.801C315.691 373.244 316.396 373.466 317.237 373.466ZM332.415 375.273C331.154 375.273 330.066 374.994 329.151 374.438C328.242 373.875 327.54 373.091 327.046 372.085C326.558 371.074 326.313 369.898 326.313 368.557C326.313 367.216 326.558 366.034 327.046 365.011C327.54 363.983 328.228 363.182 329.109 362.608C329.995 362.028 331.029 361.739 332.211 361.739C332.893 361.739 333.566 361.852 334.231 362.08C334.896 362.307 335.501 362.676 336.046 363.188C336.592 363.693 337.026 364.364 337.35 365.199C337.674 366.034 337.836 367.062 337.836 368.284V369.136H327.745V367.398H335.79C335.79 366.659 335.643 366 335.347 365.42C335.058 364.841 334.643 364.384 334.103 364.048C333.569 363.713 332.938 363.545 332.211 363.545C331.41 363.545 330.717 363.744 330.131 364.142C329.552 364.534 329.106 365.045 328.793 365.676C328.481 366.307 328.325 366.983 328.325 367.705V368.864C328.325 369.852 328.495 370.69 328.836 371.378C329.183 372.06 329.663 372.58 330.276 372.938C330.89 373.29 331.603 373.466 332.415 373.466C332.944 373.466 333.421 373.392 333.847 373.244C334.279 373.091 334.651 372.864 334.964 372.562C335.276 372.256 335.518 371.875 335.688 371.42L337.631 371.966C337.427 372.625 337.083 373.205 336.6 373.705C336.117 374.199 335.521 374.585 334.81 374.864C334.1 375.136 333.302 375.273 332.415 375.273ZM347.918 375V357.545H354.021C355.237 357.545 356.239 357.756 357.029 358.176C357.819 358.591 358.407 359.151 358.793 359.855C359.18 360.554 359.373 361.33 359.373 362.182C359.373 362.932 359.239 363.551 358.972 364.04C358.711 364.528 358.364 364.915 357.933 365.199C357.506 365.483 357.043 365.693 356.543 365.83V366C357.077 366.034 357.614 366.222 358.154 366.562C358.694 366.903 359.146 367.392 359.509 368.028C359.873 368.665 360.055 369.443 360.055 370.364C360.055 371.239 359.856 372.026 359.458 372.724C359.06 373.423 358.433 373.977 357.575 374.386C356.717 374.795 355.6 375 354.225 375H347.918ZM350.032 373.125H354.225C355.606 373.125 356.586 372.858 357.165 372.324C357.751 371.784 358.043 371.131 358.043 370.364C358.043 369.773 357.893 369.227 357.592 368.727C357.29 368.222 356.862 367.818 356.305 367.517C355.748 367.21 355.089 367.057 354.327 367.057H350.032V373.125ZM350.032 365.216H353.952C354.589 365.216 355.163 365.091 355.674 364.841C356.191 364.591 356.6 364.239 356.901 363.784C357.208 363.33 357.362 362.795 357.362 362.182C357.362 361.415 357.094 360.764 356.56 360.23C356.026 359.69 355.18 359.42 354.021 359.42H350.032V365.216ZM367.107 375.307C366.278 375.307 365.525 375.151 364.849 374.838C364.173 374.52 363.636 374.062 363.238 373.466C362.84 372.864 362.641 372.136 362.641 371.284C362.641 370.534 362.789 369.926 363.085 369.46C363.38 368.989 363.775 368.619 364.269 368.352C364.763 368.085 365.309 367.886 365.906 367.756C366.508 367.619 367.113 367.511 367.721 367.432C368.516 367.33 369.161 367.253 369.656 367.202C370.156 367.145 370.519 367.051 370.746 366.92C370.979 366.79 371.096 366.562 371.096 366.239V366.17C371.096 365.33 370.866 364.676 370.406 364.21C369.951 363.744 369.261 363.511 368.335 363.511C367.374 363.511 366.621 363.722 366.076 364.142C365.531 364.562 365.147 365.011 364.925 365.489L363.016 364.807C363.357 364.011 363.812 363.392 364.38 362.949C364.954 362.5 365.579 362.187 366.255 362.011C366.937 361.83 367.607 361.739 368.266 361.739C368.687 361.739 369.17 361.79 369.715 361.892C370.266 361.989 370.798 362.19 371.309 362.497C371.826 362.804 372.255 363.267 372.596 363.886C372.937 364.506 373.107 365.335 373.107 366.375V375H371.096V373.227H370.994C370.857 373.511 370.63 373.815 370.312 374.139C369.994 374.463 369.57 374.739 369.042 374.966C368.513 375.193 367.869 375.307 367.107 375.307ZM367.414 373.5C368.21 373.5 368.88 373.344 369.425 373.031C369.977 372.719 370.391 372.315 370.67 371.821C370.954 371.327 371.096 370.807 371.096 370.261V368.42C371.011 368.523 370.823 368.616 370.533 368.702C370.249 368.781 369.92 368.852 369.545 368.915C369.175 368.972 368.815 369.023 368.462 369.068C368.116 369.108 367.835 369.142 367.619 369.17C367.096 369.239 366.607 369.349 366.153 369.503C365.704 369.651 365.34 369.875 365.062 370.176C364.789 370.472 364.653 370.875 364.653 371.386C364.653 372.085 364.911 372.614 365.428 372.972C365.951 373.324 366.613 373.5 367.414 373.5ZM386.051 364.841L384.244 365.352C384.131 365.051 383.963 364.759 383.741 364.474C383.526 364.185 383.23 363.946 382.855 363.759C382.48 363.571 382 363.477 381.415 363.477C380.614 363.477 379.946 363.662 379.412 364.031C378.884 364.395 378.619 364.858 378.619 365.42C378.619 365.92 378.801 366.315 379.165 366.605C379.528 366.895 380.097 367.136 380.869 367.33L382.812 367.807C383.983 368.091 384.855 368.526 385.429 369.111C386.003 369.69 386.29 370.437 386.29 371.352C386.29 372.102 386.074 372.773 385.642 373.364C385.216 373.955 384.619 374.42 383.852 374.761C383.085 375.102 382.193 375.273 381.176 375.273C379.841 375.273 378.736 374.983 377.861 374.403C376.986 373.824 376.432 372.977 376.199 371.864L378.108 371.386C378.29 372.091 378.634 372.619 379.139 372.972C379.651 373.324 380.318 373.5 381.142 373.5C382.08 373.5 382.824 373.301 383.375 372.903C383.932 372.5 384.21 372.017 384.21 371.455C384.21 371 384.051 370.619 383.733 370.312C383.415 370 382.926 369.767 382.267 369.614L380.085 369.102C378.886 368.818 378.006 368.378 377.443 367.781C376.886 367.179 376.608 366.426 376.608 365.523C376.608 364.784 376.815 364.131 377.23 363.562C377.651 362.994 378.222 362.548 378.943 362.224C379.67 361.901 380.494 361.739 381.415 361.739C382.71 361.739 383.727 362.023 384.466 362.591C385.21 363.159 385.739 363.909 386.051 364.841ZM394.806 375.273C393.545 375.273 392.457 374.994 391.542 374.438C390.633 373.875 389.931 373.091 389.437 372.085C388.948 371.074 388.704 369.898 388.704 368.557C388.704 367.216 388.948 366.034 389.437 365.011C389.931 363.983 390.619 363.182 391.499 362.608C392.386 362.028 393.42 361.739 394.602 361.739C395.283 361.739 395.957 361.852 396.621 362.08C397.286 362.307 397.891 362.676 398.437 363.188C398.982 363.693 399.417 364.364 399.741 365.199C400.065 366.034 400.227 367.062 400.227 368.284V369.136H390.136V367.398H398.181C398.181 366.659 398.033 366 397.738 365.42C397.448 364.841 397.033 364.384 396.494 364.048C395.96 363.713 395.329 363.545 394.602 363.545C393.8 363.545 393.107 363.744 392.522 364.142C391.942 364.534 391.496 365.045 391.184 365.676C390.871 366.307 390.715 366.983 390.715 367.705V368.864C390.715 369.852 390.886 370.69 391.227 371.378C391.573 372.06 392.053 372.58 392.667 372.938C393.281 373.29 393.994 373.466 394.806 373.466C395.335 373.466 395.812 373.392 396.238 373.244C396.67 373.091 397.042 372.864 397.354 372.562C397.667 372.256 397.908 371.875 398.079 371.42L400.022 371.966C399.817 372.625 399.474 373.205 398.991 373.705C398.508 374.199 397.911 374.585 397.201 374.864C396.491 375.136 395.692 375.273 394.806 375.273Z" fill="#231F20"/>
<rect x="32" y="32" width="44" height="44" rx="22" fill="#F26A1B"/>
<mask id="mask0_3130_5959" style="mask-type:alpha" maskUnits="userSpaceOnUse" x="34" y="34" width="40" height="40">
<rect x="34" y="34" width="40" height="40" fill="#D9D9D9"/>
</mask>
<g mask="url(#mask0_3130_5959)">
<path d="M48.165 64.1597V43.8397L64.1263 53.9997L48.165 64.1597Z" fill="white"/>
</g>
</g>
<defs>
<clipPath id="clip0_3130_5959">
<rect width="686" height="414.73" fill="white"/>
</clipPath>
</defs>
</svg>
