<svg width="41" height="41" viewBox="0 0 41 41" fill="none" xmlns="http://www.w3.org/2000/svg">
<g id="Frame" clip-path="url(#clip0_2140_7580)">
<path id="Vector" d="M34.2695 16.919V17.529H32.0505V16.8075C32.0505 12.7318 30.5996 9.28498 27.6984 6.46856C24.7977 3.65262 21.2921 2.2445 17.183 2.2445C15.0279 2.2445 12.9952 2.71704 11.0854 3.66209C9.17626 4.60716 7.5001 5.87322 6.05701 7.46018L6.01899 7.502H6.07551H11.089V9.721H2.13101V0.775H4.35051V5.9345V6.00004L4.39416 5.95115C6.03563 4.11261 7.96295 2.6653 10.1763 1.60906C12.3896 0.553003 14.725 0.025 17.183 0.025C21.9279 0.025 25.9612 1.66283 29.2844 4.9388C32.6079 8.21506 34.2695 12.2079 34.2695 16.919ZM16.8169 31.7365H16.8175H17.2304L18.5202 33.8709C18.2682 33.9202 18.0087 33.9497 17.7416 33.9595C17.4612 33.9698 17.1726 33.975 16.8756 33.975C12.3512 33.911 8.49648 32.2899 5.31017 29.1113C2.12975 25.9386 0.479368 22.0793 0.358664 17.5325H2.57841C2.72463 21.4385 4.15686 24.759 6.87478 27.4926C9.59872 30.232 12.9132 31.6466 16.8169 31.7365ZM16.2735 6.9135H18.4925V16.473V16.4835L18.5 16.4909L22.7474 20.6386L21.559 22.6099L16.2735 17.405V6.9135ZM30.4347 37.1964L30.4323 37.1792L30.4152 37.1755C29.7535 37.035 29.1283 36.8046 28.5395 36.484C27.9507 36.1634 27.4174 35.7451 26.9398 35.229L26.9299 35.2183L26.9157 35.2217L24.4335 35.8174L23.588 34.4048L25.6922 32.5071L25.7045 32.496L25.6991 32.4804C25.5231 31.9678 25.435 31.432 25.435 30.873C25.435 30.3144 25.5231 29.7722 25.6992 29.2464L25.7044 29.2308L25.6922 29.2199L23.5497 27.3027L24.4332 25.8519L26.9342 26.5052L26.9487 26.509L26.9588 26.498C27.4368 25.9819 27.9667 25.5669 28.5489 25.253C29.1316 24.9388 29.7538 24.7049 30.4156 24.5514L30.4323 24.5475L30.4347 24.5306L30.8547 21.6175H32.7037L33.1042 24.5304L33.1066 24.5477L33.1236 24.5514C33.8241 24.7049 34.4654 24.9451 35.0478 25.2718C35.63 25.5987 36.1535 26.0202 36.6184 26.5362L36.6285 26.5475L36.6432 26.5437L39.2018 25.8904L40.0472 27.3603L37.8854 29.2773L37.8734 29.2879L37.8781 29.3033C38.0417 29.842 38.1235 30.3813 38.1235 30.921C38.1235 31.4607 38.0417 31.9613 37.8784 32.4227L37.8728 32.4385L37.8854 32.4497L40.0854 34.4049L39.24 35.8173L36.6429 35.1832L36.628 35.1796L36.618 35.1913C36.1659 35.72 35.6426 36.1476 35.048 36.4741C34.4529 36.8011 33.8116 37.035 33.124 37.1755L33.1066 37.1791L33.1042 37.1966L32.7037 40.1095H30.8547L30.4347 37.1964ZM28.7748 27.8688L28.7925 27.8865L28.7748 27.8688C27.9916 28.6523 27.6005 29.6544 27.6005 30.873C27.6005 32.0919 27.9916 33.094 28.7748 33.8772C29.5583 34.6607 30.5604 35.052 31.779 35.052C32.9979 35.052 34 34.6607 34.7832 33.8772C35.5667 33.094 35.958 32.0919 35.958 30.873C35.958 29.6544 35.5667 28.6523 34.7832 27.8688C34 27.0856 32.9979 26.6945 31.779 26.6945C30.5604 26.6945 29.5583 27.0856 28.7748 27.8688Z" fill="url(#paint0_linear_2140_7580)" stroke="url(#paint1_linear_2140_7580)" stroke-width="0.05"/>
</g>
<defs>
<linearGradient id="paint0_linear_2140_7580" x1="20.2253" y1="0" x2="20.2253" y2="40.1345" gradientUnits="userSpaceOnUse">
<stop stop-color="#F26A1B"/>
<stop offset="1" stop-color="#F7B690"/>
</linearGradient>
<linearGradient id="paint1_linear_2140_7580" x1="20.2253" y1="0" x2="20.2253" y2="40.1345" gradientUnits="userSpaceOnUse">
<stop stop-color="#F26A1B"/>
<stop offset="1" stop-color="#F7B690"/>
</linearGradient>
<clipPath id="clip0_2140_7580">
<rect width="41" height="41" fill="white"/>
</clipPath>
</defs>
</svg>
