<svg width="48" height="48" viewBox="0 0 48 48" fill="none" xmlns="http://www.w3.org/2000/svg">
<g id="captive_portal">
<mask id="mask0_2374_7085" style="mask-type:alpha" maskUnits="userSpaceOnUse" x="0" y="0" width="48" height="48">
<rect id="Bounding box" width="48" height="48" fill="#D9D9D9"/>
</mask>
<g mask="url(#mask0_2374_7085)">
<path id="captive_portal_2" d="M41.3997 42.9949L34.6522 36.2478L34.6095 36.2051V36.2655V41.9095H32.3905V32.3905H41.9095V34.6095H36.2155H36.1551L36.1978 34.6522L42.9454 41.4003L41.3997 42.9949ZM42.6068 27.9555H40.2596C40.4299 27.3199 40.5548 26.6841 40.6343 26.0481C40.7151 25.4017 40.7555 24.746 40.7555 24.081C40.7555 23.2922 40.7001 22.4968 40.5893 21.6951C40.4781 20.8932 40.309 20.0989 40.082 19.3121L40.0768 19.294H40.058H31.746H31.7175L31.7212 19.3223C31.8265 20.1142 31.9125 20.9038 31.9791 21.6911C32.0457 22.4777 32.079 23.2644 32.079 24.051C32.079 24.7139 32.0628 25.3713 32.0305 26.0233C31.9989 26.6673 31.9517 27.3114 31.8888 27.9555H29.6207C29.6998 27.3082 29.7592 26.6653 29.799 26.0271C29.8393 25.3792 29.8595 24.7314 29.8595 24.0835C29.8595 23.2866 29.8313 22.4898 29.7749 21.6932C29.7186 20.8962 29.6293 20.1035 29.5072 19.3152L29.5039 19.294H29.4825H18.575H18.5537L18.5503 19.315C18.4232 20.108 18.3283 20.8992 18.2656 21.6885C18.2025 22.4775 18.171 23.2667 18.171 24.056C18.171 24.845 18.2025 25.6257 18.2656 26.398C18.3283 27.1706 18.4162 27.9429 18.5293 28.7151L18.5324 28.7365H18.554H28.1865V30.9555H18.9885H18.9557L18.9644 30.9871C19.4617 32.8051 20.0715 34.5778 20.7939 36.3051C21.5174 38.0346 22.5806 39.5288 23.9833 40.7876L23.9904 40.794H24C24.6822 40.794 25.3476 40.7588 25.9962 40.6884C26.6354 40.6186 27.2885 40.5148 27.9555 40.3767V42.5567C27.2865 42.6954 26.6316 42.7996 25.9908 42.8691C25.3441 42.9397 24.6805 42.975 24 42.975C21.3749 42.975 18.9083 42.4765 16.5999 41.4795C14.291 40.4824 12.2829 39.1293 10.5752 37.4203C8.86747 35.711 7.51555 33.7116 6.51942 31.422C5.52318 29.133 5.025 26.687 5.025 24.084C5.025 21.4302 5.52304 18.9481 6.51896 16.6374C7.5151 14.3265 8.86686 12.3116 10.5742 10.5926C12.2816 8.87396 14.2894 7.51624 16.5979 6.51945C18.906 5.5232 21.3721 5.025 23.9965 5.025C26.6212 5.025 29.088 5.5232 31.3971 6.51945C33.7066 7.51558 35.7153 8.8728 37.4233 10.5911C39.1313 12.3095 40.4837 14.3238 41.4805 16.6344C42.4768 18.9444 42.975 21.4265 42.975 24.081C42.975 24.7443 42.948 25.3955 42.8941 26.0344L42.919 26.0365L42.8941 26.0344C42.8411 26.6666 42.7453 27.3069 42.6068 27.9555ZM7.91106 28.7187L7.9164 28.7365H7.935H16.254H16.2828L16.2788 28.708C16.1698 27.9369 16.0881 27.1657 16.0334 26.3942C15.9791 25.6232 15.952 24.8521 15.952 24.081C15.952 23.2845 15.975 22.4891 16.021 21.6949C16.0673 20.9009 16.1429 20.11 16.2478 19.3223L16.2515 19.294H16.223H7.9395H7.92068L7.91547 19.3121C7.68915 20.0989 7.52073 20.8927 7.41023 21.6936C7.29975 22.4944 7.2445 23.295 7.2445 24.0955C7.2445 24.879 7.29841 25.655 7.40624 26.4235C7.51409 27.1918 7.68237 27.9568 7.91106 28.7187ZM8.6546 17.0389L8.6367 17.075H8.677H16.609H16.6287L16.6333 17.0558C17.045 15.3418 17.5839 13.6822 18.2501 12.0771C18.9159 10.4724 19.7815 8.96457 20.847 7.55357L20.889 7.4979L20.8212 7.51419C18.1818 8.14834 15.7959 9.28569 13.6638 10.9262C11.531 12.5672 9.86127 14.6049 8.6546 17.0389ZM20.7723 40.4556L20.8329 40.4672L20.7975 40.4166C19.8035 39.0001 18.9671 37.4976 18.2885 35.9092L18.2655 35.919L18.2885 35.9092C17.6094 34.3209 17.0779 32.6762 16.6939 30.975L16.6895 30.9555H16.6695H8.677H8.63764L8.65437 30.9911C9.80736 33.446 11.4483 35.5094 13.5771 37.1812C15.7059 38.853 18.1044 39.9445 20.7723 40.4556ZM18.9641 17.0444L18.957 17.075H18.9885H29.0425H29.0743L29.0668 17.0441C28.62 15.2041 27.9885 13.4374 27.172 11.7441C26.3552 10.0505 25.304 8.5199 24.0182 7.15238L24 7.13302L23.9818 7.15236C22.6877 8.52588 21.6343 10.058 20.8215 11.7487L20.844 11.7595L20.8215 11.7487C20.0093 13.439 19.3902 15.2042 18.9641 17.0444ZM31.3939 17.0565L31.3989 17.075H31.418H39.323H39.3633L39.3454 17.0389C38.1387 14.6049 36.4732 12.5585 34.3489 10.8998C32.2246 9.24151 29.851 8.12306 27.2284 7.54459L27.1647 7.53054L27.2027 7.58355C28.2169 9 29.0541 10.5091 29.7144 12.111C30.3746 13.7134 30.9345 15.3619 31.3939 17.0565Z" fill="url(#paint0_linear_2374_7085)" stroke="url(#paint1_linear_2374_7085)" stroke-width="0.05"/>
</g>
</g>
<defs>
<linearGradient id="paint0_linear_2374_7085" x1="24" y1="5" x2="24" y2="43.0305" gradientUnits="userSpaceOnUse">
<stop stop-color="#F26A1B"/>
<stop offset="1" stop-color="#F7B690"/>
</linearGradient>
<linearGradient id="paint1_linear_2374_7085" x1="24" y1="5" x2="24" y2="43.0305" gradientUnits="userSpaceOnUse">
<stop stop-color="#F26A1B"/>
<stop offset="1" stop-color="#F7B690"/>
</linearGradient>
</defs>
</svg>
