<svg width="48" height="48" viewBox="0 0 48 48" fill="none" xmlns="http://www.w3.org/2000/svg">
<g id="cloud_lock">
<mask id="mask0_2140_7636" style="mask-type:alpha" maskUnits="userSpaceOnUse" x="0" y="0" width="48" height="48">
<rect id="Bounding box" width="48" height="48" fill="#D9D9D9"/>
</mask>
<g mask="url(#mask0_2140_7636)">
<path id="cloud_lock_2" d="M16.526 14.4152C14.5133 16.5022 13.5038 18.9955 13.498 21.894H12.5155C10.5191 21.894 8.80755 22.6122 7.38226 24.0479C5.95709 25.4834 5.2445 27.2493 5.2445 29.344C5.2445 31.3723 5.96616 33.1151 7.40874 34.5711C8.85141 36.0272 10.5938 36.7555 12.6345 36.7555H28.475V38.975H12.6345C9.99254 38.975 7.73105 38.0324 5.84869 36.1463C3.96601 34.2603 3.025 31.994 3.025 29.346C3.025 26.8805 3.85088 24.7231 5.50315 22.8727C7.15573 21.0219 9.18848 19.9806 11.6024 19.7479L11.6215 19.746L11.6247 19.7271C12.1367 16.6278 13.5627 14.0747 15.9028 12.067C18.2432 10.0596 20.9689 9.05601 24.081 9.05601C27.4103 9.05601 30.2276 10.1907 32.5345 12.4603C34.8361 14.7251 36.1219 17.4849 36.3922 20.7407C36.007 20.8067 35.628 20.8859 35.255 20.9782C34.8864 21.0691 34.5327 21.1964 34.194 21.36V21.0345H34.1941L34.1939 21.0327C34.0012 18.3419 32.9325 16.0427 30.9885 14.1362C29.0441 12.2288 26.6871 11.275 23.919 11.275C21.0099 11.275 18.5451 12.3219 16.526 14.4152ZM34.0575 30.0825H34.0825V30.0575V27.8655C34.0825 26.9042 34.426 26.0821 35.1136 25.3977L35.096 25.38L35.1136 25.3977C35.801 24.713 36.6267 24.371 37.592 24.371C38.5573 24.371 39.3779 24.713 40.0552 25.3976C40.7326 26.0819 41.071 26.9041 41.071 27.8655V30.0575V30.0825H41.096C41.619 30.0825 42.0625 30.2366 42.4279 30.5441L42.444 30.525L42.4279 30.5441C42.7936 30.8516 42.975 31.2212 42.975 31.654V37.3655C42.975 37.8095 42.8178 38.1882 42.5028 38.5028L42.5205 38.5205L42.5028 38.5028C42.188 38.818 41.8156 38.975 41.3845 38.975H33.7885C33.3445 38.975 32.9657 38.8178 32.6507 38.5028C32.336 38.1882 32.179 37.8095 32.179 37.3655V31.654C32.179 31.2212 32.3603 30.8516 32.7256 30.5441C33.0913 30.2366 33.5348 30.0825 34.0575 30.0825ZM35.4365 30.0575V30.0825H35.4615H39.692H39.717V30.0575V27.8695C39.717 27.2493 39.5191 26.736 39.1224 26.3315C38.7255 25.9269 38.2143 25.725 37.591 25.725C36.968 25.725 36.4523 25.9267 36.0459 26.3308L36.0635 26.3485L36.0459 26.3308C35.6394 26.7353 35.4365 27.2507 35.4365 27.875V30.0575Z" fill="url(#paint0_linear_2140_7636)" stroke="url(#paint1_linear_2140_7636)" stroke-width="0.05"/>
</g>
</g>
<defs>
<linearGradient id="paint0_linear_2140_7636" x1="23" y1="9.03101" x2="23" y2="39" gradientUnits="userSpaceOnUse">
<stop stop-color="#F26A1B"/>
<stop offset="1" stop-color="#F7B690"/>
</linearGradient>
<linearGradient id="paint1_linear_2140_7636" x1="23" y1="9.03101" x2="23" y2="39" gradientUnits="userSpaceOnUse">
<stop stop-color="#F26A1B"/>
<stop offset="1" stop-color="#F7B690"/>
</linearGradient>
</defs>
</svg>
