<svg width="48" height="48" viewBox="0 0 48 48" fill="none" xmlns="http://www.w3.org/2000/svg">
<g id="finance">
<mask id="mask0_2140_7594" style="mask-type:alpha" maskUnits="userSpaceOnUse" x="0" y="0" width="48" height="48">
<rect id="Bounding box" width="48" height="48" fill="#D9D9D9"/>
</mask>
<g mask="url(#mask0_2140_7594)">
<path id="finance_2" d="M9.3845 38.7555H41.475V40.975H9.3845C8.60699 40.975 7.93646 40.6931 7.37168 40.1283C6.80689 39.5635 6.525 38.893 6.525 38.1155V6.025H8.744V38.1155C8.744 38.277 8.81171 38.4241 8.94382 38.5562L8.94385 38.5562C9.07596 38.688 9.22304 38.7555 9.3845 38.7555ZM13.9675 33.917V18.6135H18.4055V33.917H13.9675ZM23.3865 33.917V8.3905H27.844V33.917H23.3865ZM32.6635 33.917V26.756H37.121V33.917H32.6635Z" fill="url(#paint0_linear_2140_7594)" stroke="url(#paint1_linear_2140_7594)" stroke-width="0.05"/>
</g>
</g>
<defs>
<linearGradient id="paint0_linear_2140_7594" x1="24" y1="6" x2="24" y2="41" gradientUnits="userSpaceOnUse">
<stop stop-color="#F26A1B"/>
<stop offset="1" stop-color="#F7B690"/>
</linearGradient>
<linearGradient id="paint1_linear_2140_7594" x1="24" y1="6" x2="24" y2="41" gradientUnits="userSpaceOnUse">
<stop stop-color="#F26A1B"/>
<stop offset="1" stop-color="#F7B690"/>
</linearGradient>
</defs>
</svg>
