<svg width="48" height="48" viewBox="0 0 48 48" fill="none" xmlns="http://www.w3.org/2000/svg">
<g id="lock_reset">
<mask id="mask0_2140_7612" style="mask-type:alpha" maskUnits="userSpaceOnUse" x="0" y="0" width="48" height="48">
<rect id="Bounding box" width="48" height="48" fill="#D9D9D9"/>
</mask>
<g mask="url(#mask0_2140_7612)">
<path id="lock_reset_2" d="M5.02507 19.152V9.025H7.24457V15.0465L7.2916 15.0583C8.90986 12.0415 11.1823 9.61523 14.1094 7.77918C17.0361 5.94316 20.3328 5.025 24.0001 5.025C26.6251 5.025 29.0918 5.52303 31.4002 6.51895C33.709 7.51509 35.7172 8.86684 37.4249 10.5742C39.1326 12.2815 40.4845 14.2894 41.4806 16.5979C42.4769 18.906 42.9751 21.3721 42.9751 23.9965C42.9751 26.6212 42.477 29.088 41.4811 31.3971C40.485 33.7067 39.1332 35.7153 37.4259 37.4233C35.7185 39.1313 33.7107 40.4837 31.4022 41.4805C29.0941 42.4768 26.628 42.975 24.0036 42.975C21.2509 42.975 18.6866 42.4372 16.3104 41.3617C13.9339 40.286 11.8875 38.8347 10.1708 37.0079C8.45448 35.1811 7.13385 33.0407 6.20896 30.5867C5.28658 28.1402 4.90178 25.5634 5.05468 22.856H7.32328C7.15784 25.2724 7.4672 27.5587 8.25157 29.7145C9.03868 31.8776 10.1956 33.7836 11.7222 35.4325C13.2489 37.081 15.0662 38.3886 17.1741 39.3552C19.2823 40.3221 21.5577 40.8055 24.0001 40.8055C28.6629 40.8055 32.6218 39.1786 35.8752 35.9252C39.1287 32.6718 40.7556 28.7129 40.7556 24.05C40.7556 19.3871 39.1287 15.4282 35.8752 12.1748C32.6218 8.9214 28.6629 7.2945 24.0001 7.2945C20.6237 7.2945 17.5881 8.18297 14.8938 9.96013C12.2004 11.7369 10.1844 14.0493 8.84644 16.8969L8.8297 16.9325H8.86907H15.1211V19.152H5.02507ZM20.3076 22.198H20.3326V22.173V19.8845C20.3326 18.8769 20.6917 18.011 21.4108 17.2856C22.1299 16.5603 22.9925 16.198 24.0001 16.198C25.0076 16.198 25.8735 16.5603 26.5989 17.2857C27.3243 18.0111 27.6866 18.8769 27.6866 19.8845V22.173V22.198H27.7116C28.2601 22.198 28.726 22.3633 29.1108 22.6935C29.4955 23.0235 29.6866 23.4201 29.6866 23.8845V29.8845C29.6866 30.3505 29.5221 30.7442 29.1926 31.0671L29.2101 31.085L29.1926 31.0672C28.8629 31.3905 28.4659 31.552 28.0001 31.552H20.0001C19.5342 31.552 19.1405 31.3905 18.8172 31.0673L18.7996 31.085L18.8172 31.0673C18.494 30.7444 18.3326 30.3507 18.3326 29.8845V23.8845C18.3326 23.42 18.5206 23.0233 18.899 22.6933C19.2773 22.3634 19.7462 22.198 20.3076 22.198ZM21.6866 22.173V22.198H21.7116H26.3076H26.3326V22.173V19.892C26.3326 19.2346 26.1071 18.6795 25.6563 18.2283L25.6562 18.2283C25.2051 17.7775 24.6525 17.552 24.0001 17.552C23.3476 17.552 22.7981 17.7775 22.3533 18.2284L22.3533 18.2285C21.9088 18.6797 21.6866 19.2347 21.6866 19.892V22.173Z" fill="url(#paint0_linear_2140_7612)" stroke="url(#paint1_linear_2140_7612)" stroke-width="0.05"/>
</g>
</g>
<defs>
<linearGradient id="paint0_linear_2140_7612" x1="23.9986" y1="5" x2="23.9986" y2="43" gradientUnits="userSpaceOnUse">
<stop stop-color="#F26A1B"/>
<stop offset="1" stop-color="#F7B690"/>
</linearGradient>
<linearGradient id="paint1_linear_2140_7612" x1="23.9986" y1="5" x2="23.9986" y2="43" gradientUnits="userSpaceOnUse">
<stop stop-color="#F26A1B"/>
<stop offset="1" stop-color="#F7B690"/>
</linearGradient>
</defs>
</svg>
