<svg width="48" height="48" viewBox="0 0 48 48" fill="none" xmlns="http://www.w3.org/2000/svg">
<g id="manage_accounts">
<mask id="mask0_2138_5235" style="mask-type:alpha" maskUnits="userSpaceOnUse" x="0" y="0" width="48" height="48">
<rect id="Bounding box" width="48" height="48" fill="#D9D9D9"/>
</mask>
<g mask="url(#mask0_2138_5235)">
<path id="manage_accounts_2" d="M20.4693 36.229H7.2695H7.2445V36.204V34.677C7.2445 34.1594 7.37908 33.6698 7.6479 33.2084C7.9177 32.7454 8.37318 32.3547 9.01167 32.0352M20.4693 36.229L9.023 32.0575M20.4693 36.229C20.5841 36.6565 20.7252 37.0555 20.8927 37.4258C21.0557 37.7867 21.2473 38.1275 21.4678 38.448H5.025V34.677C5.025 33.63 5.28667 32.7131 5.80933 31.9253C6.33203 31.1375 7.0896 30.5135 8.08331 30.0538C10.2642 29.0773 12.2859 28.3624 14.1484 27.9088C16.0104 27.4556 17.9609 27.229 20 27.229H20.498C20.6616 27.229 20.815 27.2236 20.9581 27.2126M20.4693 36.229L20.9581 27.2126M9.01167 32.0352C9.01172 32.0352 9.01177 32.0352 9.01182 32.0351L9.023 32.0575M9.01167 32.0352C9.01165 32.0352 9.01163 32.0352 9.01161 32.0352L9.023 32.0575M9.01167 32.0352C10.8519 31.0934 12.6437 30.4266 14.387 30.0351C16.13 29.6437 18.001 29.448 20 29.448H20.4467M9.023 32.0575C10.8617 31.1165 12.6515 30.4505 14.3925 30.0595C16.1335 29.6685 18.0027 29.473 20 29.473H20.469M20.4467 29.448C20.4459 29.4554 20.445 29.4627 20.4442 29.4701L20.469 29.473M20.4467 29.448C20.5003 28.9901 20.5637 28.5928 20.6371 28.2562C20.7093 27.925 20.8163 27.5771 20.9581 27.2126M20.4467 29.448H20.469V29.473M20.469 29.473L20.9581 27.2126M32.8558 37.2159L32.8536 37.1986L32.8367 37.1947C32.2337 37.0542 31.6383 36.8231 31.0505 36.5011C30.4629 36.1792 29.9704 35.8 29.5725 35.3637L29.5622 35.3524L29.5474 35.3564L27.1427 36.0094L26.2782 34.5779L28.3625 32.7377L28.375 32.7268L28.3697 32.7111C28.2402 32.3248 28.175 31.8342 28.175 31.2385C28.175 30.6425 28.2402 30.1453 28.3698 29.7462L28.3748 29.7308L28.3627 29.7199L26.2976 27.8607L27.1616 26.4292L29.5472 27.1011L29.5626 27.1054L29.573 27.0933C29.9577 26.6446 30.4468 26.2625 31.0407 25.9471C31.635 25.6313 32.2336 25.4033 32.8367 25.2629L32.8536 25.2589L32.8558 25.2416L33.218 22.3865H35.0665L35.4292 25.2417L35.4314 25.2588L35.4482 25.2628C36.0379 25.4033 36.6301 25.6313 37.2248 25.9471C37.8186 26.2626 38.3142 26.6384 38.712 27.0744L38.7223 27.0857L38.7371 27.0816L41.1228 26.4291L41.968 27.8412L39.9023 29.7004L39.89 29.7115L39.8954 29.7271C40.0379 30.1435 40.1095 30.6449 40.1095 31.232C40.1095 31.8191 40.0379 32.3118 39.8955 32.7106L39.8898 32.7265L39.9025 32.7377L41.987 34.5781L41.1417 36.0094L38.7371 35.3564L38.7226 35.3524L38.7123 35.3634C38.3016 35.7999 37.8026 36.1792 37.215 36.5011C36.6267 36.8231 36.0378 37.0543 35.4482 37.1947L35.4314 37.1987L35.4292 37.2159L35.0665 40.071H33.218L32.8558 37.2159ZM36.8968 34.0006L36.879 33.983L36.8968 34.0006C37.603 33.2863 37.9555 32.3642 37.9555 31.2365C37.9555 30.0962 37.6024 29.1715 36.8947 28.4648C36.187 27.7581 35.2618 27.4055 34.1215 27.4055C32.9938 27.4055 32.0723 27.7588 31.3594 28.4668C30.6463 29.1744 30.2905 30.0997 30.2905 31.24C30.2905 32.3678 30.6469 33.2893 31.3608 34.0022L31.3785 33.9845L31.3608 34.0022C32.0751 34.7151 32.9971 35.071 34.1245 35.071C35.2652 35.071 36.1901 34.7147 36.8968 34.0006ZM20 23.1675C18.0809 23.1675 16.5005 22.5483 15.2566 21.3108C14.0128 20.0733 13.3905 18.4896 13.3905 16.5575C13.3905 14.6385 14.0128 13.058 15.2567 11.8142C16.5005 10.5703 18.081 9.948 20 9.948C21.919 9.948 23.4995 10.5703 24.7433 11.8142C25.9872 13.058 26.6095 14.6385 26.6095 16.5575C26.6095 18.4896 25.9872 20.0733 24.7434 21.3108C23.4995 22.5483 21.9191 23.1675 20 23.1675ZM20 20.948C21.2548 20.948 22.3009 20.5336 23.1366 19.7042C23.9727 18.8748 24.3905 17.8253 24.3905 16.5575C24.3905 15.3027 23.9727 14.2565 23.1367 13.4208C22.301 12.5852 21.2548 12.1675 20 12.1675C18.7452 12.1675 17.699 12.5852 16.8633 13.4208C16.0273 14.2565 15.6095 15.3027 15.6095 16.5575C15.6095 17.8253 16.0273 18.8748 16.8634 19.7043C17.6991 20.5336 18.7452 20.948 20 20.948Z" fill="url(#paint0_linear_2138_5235)" stroke="url(#paint1_linear_2138_5235)" stroke-width="0.05"/>
</g>
</g>
<defs>
<linearGradient id="paint0_linear_2138_5235" x1="23.5095" y1="9.923" x2="23.5095" y2="40.096" gradientUnits="userSpaceOnUse">
<stop stop-color="#F26A1B"/>
<stop offset="1" stop-color="#F7B690"/>
</linearGradient>
<linearGradient id="paint1_linear_2138_5235" x1="23.5095" y1="9.923" x2="23.5095" y2="40.096" gradientUnits="userSpaceOnUse">
<stop stop-color="#F26A1B"/>
<stop offset="1" stop-color="#F7B690"/>
</linearGradient>
</defs>
</svg>
