<svg width="48" height="48" viewBox="0 0 48 48" fill="none" xmlns="http://www.w3.org/2000/svg">
<g id="new_releases">
<mask id="mask0_2140_7588" style="mask-type:alpha" maskUnits="userSpaceOnUse" x="0" y="0" width="48" height="48">
<rect id="Bounding box" width="48" height="48" fill="#D9D9D9"/>
</mask>
<g mask="url(#mask0_2140_7588)">
<path id="new_releases_2" d="M14.1563 37.6219L14.1506 37.6122L14.1397 37.61L7.13149 36.1801L7.88303 29.2567L7.8842 29.2459L7.87715 29.2377L3.37967 24L7.8771 18.7933L7.88421 18.7851L7.88303 18.7743L7.13149 11.8699L14.1397 10.4205L14.1507 10.4182L14.1563 10.4086L17.7144 4.30158L23.9899 7.14228L24.0002 7.14694L24.0105 7.14228L30.2861 4.30152L33.8942 10.4087L33.8998 10.4182L33.9106 10.4205L40.8883 11.8698L40.1173 18.7742L40.1161 18.7851L40.1233 18.7933L44.6207 24L40.1232 29.2377L40.1161 29.246L40.1173 29.2568L40.8883 36.1801L33.9107 37.61L33.8998 37.6122L33.8942 37.6217L30.2861 43.6985L24.0105 40.8577L24.0002 40.8531L23.9899 40.8577L17.7144 43.6984L14.1563 37.6219ZM18.7065 40.7565L18.7179 40.7734L18.7368 40.7656L24.0003 38.577L29.3753 40.7657L29.3943 40.7734L29.4056 40.7562L32.6347 35.8219L38.3792 34.4013L38.4001 34.3961L38.3981 34.3746L37.8376 28.4929L41.7844 24.0165L41.7989 24.0001L41.7845 23.9836L37.8376 19.4457L38.3981 13.5449L38.4001 13.5231L38.3789 13.5182L32.6345 12.1779L29.344 7.24363L29.3326 7.22658L29.3137 7.23439L24.0001 9.42298L18.6251 7.23435L18.606 7.22658L18.5948 7.24381L15.3657 12.1779L9.6215 13.5182L9.60023 13.5231L9.60229 13.5449L10.1628 19.4457L6.21582 23.9836L6.20145 24.0001L6.21593 24.0165L10.1628 28.4929L9.60229 34.4362L9.60025 34.4578L9.62142 34.4628L15.3659 35.8221L18.7065 40.7565ZM17.2342 22.07L21.8512 26.8484L21.8688 26.8666L21.8868 26.8487L30.797 17.9999L32.4714 19.5163L21.8692 30.0378L15.5283 23.7461L17.2342 22.07Z" fill="url(#paint0_linear_2140_7588)" stroke="url(#paint1_linear_2140_7588)" stroke-width="0.05"/>
</g>
</g>
<defs>
<linearGradient id="paint0_linear_2140_7588" x1="24.0002" y1="4.2695" x2="24.0002" y2="43.7305" gradientUnits="userSpaceOnUse">
<stop stop-color="#F26A1B"/>
<stop offset="1" stop-color="#F7B690"/>
</linearGradient>
<linearGradient id="paint1_linear_2140_7588" x1="24.0002" y1="4.2695" x2="24.0002" y2="43.7305" gradientUnits="userSpaceOnUse">
<stop stop-color="#F26A1B"/>
<stop offset="1" stop-color="#F7B690"/>
</linearGradient>
</defs>
</svg>
