<svg width="48" height="48" viewBox="0 0 48 48" fill="none" xmlns="http://www.w3.org/2000/svg">
<g id="passkey">
<mask id="mask0_2140_7630" style="mask-type:alpha" maskUnits="userSpaceOnUse" x="0" y="0" width="48" height="48">
<rect id="Bounding box" width="48" height="48" fill="#D9D9D9"/>
</mask>
<g mask="url(#mask0_2140_7630)">
<path id="passkey_2" d="M35.05 34.4755V34.4568L35.0321 34.4515C33.7335 34.0694 32.6738 33.3396 31.8524 32.2619C31.0315 31.1844 30.621 29.9449 30.621 28.5425C30.621 26.8335 31.2247 25.3757 32.4327 24.1677C33.6407 22.9597 35.0985 22.356 36.8075 22.356C38.5162 22.356 39.9708 22.9599 41.1728 24.1682C42.3744 25.3768 42.975 26.8353 42.975 28.545C42.975 29.8717 42.6029 31.0483 41.8588 32.0759C41.1139 33.104 40.1644 33.8363 39.0102 34.2731L38.9739 34.2869L39.0013 34.3142L41.1951 36.5041L38.5593 39.1459L38.5417 39.1635L38.5593 39.1812L41.1952 41.823L37.6924 45.3337L35.05 42.7016V34.4755ZM17.3127 21.0914L17.295 21.109L17.3127 21.0914C16.0311 19.8101 15.3905 18.2482 15.3905 16.404C15.3905 14.5599 16.0311 12.9978 17.3127 11.7162C18.5939 10.435 20.1558 9.79453 22 9.79453C23.8442 9.79453 25.4061 10.435 26.6873 11.7162C27.9689 12.9978 28.6095 14.5599 28.6095 16.404C28.6095 18.2482 27.9689 19.8101 26.6873 21.0914L26.705 21.109L26.6873 21.0914C25.4061 22.3729 23.8442 23.0135 22 23.0135C20.1558 23.0135 18.5939 22.3729 17.3127 21.0914ZM35.5285 26.3687L35.546 26.3865L35.5285 26.3687C35.1724 26.7184 34.994 27.1421 34.994 27.6385C34.994 28.1349 35.1724 28.5618 35.5283 28.9177C35.8843 29.2737 36.3111 29.452 36.8075 29.452C37.3042 29.452 37.728 29.2736 38.0773 28.9175C38.4269 28.5616 38.602 28.1348 38.602 27.6385C38.602 27.1423 38.4269 26.7186 38.0772 26.3689C37.7278 26.0195 37.3041 25.8445 36.8075 25.8445C36.3113 25.8445 35.8845 26.0195 35.5285 26.3687ZM7.025 38.975V35.204C7.025 34.1344 7.30833 33.2036 7.87435 32.4106C8.44106 31.6169 9.17726 31.0068 10.0834 30.5803C12.1874 29.6452 14.2153 28.9407 16.1669 28.4668C18.1187 27.9929 20.0631 27.756 22 27.756C22.8368 27.756 23.6615 27.8008 24.4743 27.8904C25.2801 27.9792 26.1044 28.1059 26.9471 28.2704C26.8738 29.9821 27.2302 31.5928 28.0163 33.1021C28.8033 34.6133 29.9243 35.8275 31.379 36.7443V38.975H7.025Z" fill="url(#paint0_linear_2140_7630)" stroke="url(#paint1_linear_2140_7630)" stroke-width="0.05"/>
</g>
</g>
<defs>
<linearGradient id="paint0_linear_2140_7630" x1="25" y1="9.76953" x2="25" y2="45.369" gradientUnits="userSpaceOnUse">
<stop stop-color="#F26A1B"/>
<stop offset="1" stop-color="#F7B690"/>
</linearGradient>
<linearGradient id="paint1_linear_2140_7630" x1="25" y1="9.76953" x2="25" y2="45.369" gradientUnits="userSpaceOnUse">
<stop stop-color="#F26A1B"/>
<stop offset="1" stop-color="#F7B690"/>
</linearGradient>
</defs>
</svg>
