<svg width="48" height="48" viewBox="0 0 48 48" fill="none" xmlns="http://www.w3.org/2000/svg">
<g id="published_with_changes">
<mask id="mask0_2374_7092" style="mask-type:alpha" maskUnits="userSpaceOnUse" x="0" y="0" width="48" height="48">
<rect id="Bounding box" width="48" height="48" fill="#D9D9D9"/>
</mask>
<g mask="url(#mask0_2374_7092)">
<path id="published_with_changes_2" d="M21.1092 42.7936C18.8641 42.4285 16.7793 41.7016 14.8545 40.6127C12.921 39.5192 11.2547 38.1467 9.85531 36.4953C8.45594 34.8437 7.36188 32.9546 6.57317 30.8278C5.78461 28.7014 5.39023 26.4256 5.39023 24C5.39023 21.1221 6.0649 18.3869 7.41441 15.794C8.76405 13.2013 10.6681 10.8982 13.1271 8.88485L13.1812 8.8405H13.1112H6.80573V6.621H17.1092V16.925H14.8902V10.423V10.3732L14.8503 10.403C12.5475 12.118 10.7649 14.1618 9.50266 16.5343C8.24047 18.9071 7.60923 21.3958 7.60923 24C7.60923 28.1875 8.87388 31.8105 11.4035 34.8679C13.9286 37.9196 17.1642 39.8054 21.1092 40.5249V42.7936ZM21.1674 28.8177L32.4997 17.4854L34.0644 19.05L21.1497 31.9646L13.9351 24.75L15.4997 23.1854L21.1321 28.8177L21.1497 28.8354L21.1674 28.8177ZM36.596 13.1321C34.0709 10.0804 30.8353 8.19465 26.8902 7.47514V5.20624C31.4431 5.92496 35.1992 8.01916 38.1597 11.4892C41.1259 14.9664 42.6092 19.1362 42.6092 24C42.6092 26.8779 41.9346 29.6163 40.585 32.2155C39.2354 34.8146 37.3313 37.121 34.8724 39.1347L34.8182 39.179H34.8882H41.1937V41.398H30.8902V31.094H33.1092V37.596V37.6464L33.1494 37.6159C35.452 35.8679 37.2346 33.8127 38.4968 31.4503C39.759 29.0878 40.3902 26.6042 40.3902 24C40.3902 19.8125 39.1256 16.1895 36.596 13.1321Z" fill="url(#paint0_linear_2374_7092)" stroke="url(#paint1_linear_2374_7092)" stroke-width="0.05"/>
</g>
</g>
<defs>
<linearGradient id="paint0_linear_2374_7092" x1="23.9997" y1="5.177" x2="23.9997" y2="42.823" gradientUnits="userSpaceOnUse">
<stop stop-color="#F26A1B"/>
<stop offset="1" stop-color="#F7B690"/>
</linearGradient>
<linearGradient id="paint1_linear_2374_7092" x1="23.9997" y1="5.177" x2="23.9997" y2="42.823" gradientUnits="userSpaceOnUse">
<stop stop-color="#F26A1B"/>
<stop offset="1" stop-color="#F7B690"/>
</linearGradient>
</defs>
</svg>
