<svg width="49" height="48" viewBox="0 0 49 48" fill="none" xmlns="http://www.w3.org/2000/svg">
<g id="security">
<mask id="mask0_2140_7672" style="mask-type:alpha" maskUnits="userSpaceOnUse" x="0" y="0" width="49" height="48">
<rect id="Bounding box" x="0.666992" width="48" height="48" fill="#D9D9D9"/>
</mask>
<g mask="url(#mask0_2140_7672)">
<path id="security_2" d="M24.642 40.6114V40.6459L24.6748 40.6352C28.1236 39.5051 30.992 37.4019 33.2796 34.3263C35.5666 31.251 36.9041 27.8096 37.2919 24.0024L37.2947 23.9749H37.267H24.692V7.53841V7.50244L24.6583 7.51497L11.9278 12.2495L11.9115 12.2555V12.2729V21.9769C11.9115 22.3516 11.9198 22.6809 11.9365 22.9649C11.9532 23.249 11.9885 23.5951 12.0422 24.0032L12.0451 24.0249H12.067H24.642V40.6114ZM24.667 42.9355C20.33 41.7567 16.7504 39.1808 13.9279 35.2064C11.1039 31.23 9.69199 26.8203 9.69199 21.9769V10.7097L24.667 5.1036L39.642 10.7097V21.9769C39.642 26.8203 38.2301 31.23 35.4061 35.2064C32.5836 39.1808 29.004 41.7567 24.667 42.9355Z" fill="url(#paint0_linear_2140_7672)" stroke="url(#paint1_linear_2140_7672)" stroke-width="0.05"/>
</g>
</g>
<defs>
<linearGradient id="paint0_linear_2140_7672" x1="24.667" y1="5.0769" x2="24.667" y2="42.9614" gradientUnits="userSpaceOnUse">
<stop stop-color="#F26A1B"/>
<stop offset="1" stop-color="#F7B690"/>
</linearGradient>
<linearGradient id="paint1_linear_2140_7672" x1="24.667" y1="5.0769" x2="24.667" y2="42.9614" gradientUnits="userSpaceOnUse">
<stop stop-color="#F26A1B"/>
<stop offset="1" stop-color="#F7B690"/>
</linearGradient>
</defs>
</svg>
