<svg width="48" height="48" viewBox="0 0 48 48" fill="none" xmlns="http://www.w3.org/2000/svg">
<g id="settings_account_box">
<mask id="mask0_2140_7666" style="mask-type:alpha" maskUnits="userSpaceOnUse" x="0" y="0" width="48" height="48">
<rect id="Bounding box" width="48" height="48" fill="#D9D9D9"/>
</mask>
<g mask="url(#mask0_2140_7666)">
<path id="settings_account_box_2" d="M10.2225 25.1672C10.1932 24.7524 10.1786 24.3697 10.1786 24.019C10.1786 23.6814 10.1932 23.3051 10.2225 22.8903C10.2521 22.4757 10.3002 22.0739 10.3667 21.6847L10.3693 21.6695L10.357 21.6604L5.3208 17.9356L9.29455 10.9666L14.8468 13.4653L14.8609 13.4716L14.8729 13.4619C15.482 12.9652 16.1682 12.4979 16.9315 12.0602C17.6942 11.6226 18.4232 11.2978 19.1184 11.0854L19.1334 11.0808L19.1358 11.0653L20.0556 5.025H27.9436L28.8439 11.0347L28.8461 11.0493L28.8599 11.0545C29.5947 11.3257 30.3296 11.6623 31.0646 12.0644L31.0766 12.0425L31.0646 12.0644C31.7986 12.4659 32.4599 12.9314 33.0484 13.4611L33.0604 13.4719L33.0752 13.4654L38.7235 10.9665L42.6785 17.9357L37.4691 21.826L37.4591 21.8335V21.846C37.4591 21.886 37.4599 21.9165 37.4615 21.9371C37.4624 21.9472 37.4635 21.9562 37.4652 21.963C37.4659 21.966 37.4673 21.9706 37.4699 21.975H35.3014C35.2692 21.7746 35.237 21.5791 35.2047 21.3883C35.1722 21.1951 35.1299 20.9972 35.078 20.7946L39.726 17.3546L39.7437 17.3414L39.7329 17.3222L37.7329 13.7802L37.7218 13.7607L37.7012 13.7695L32.4368 16.0239C31.735 15.2378 30.8897 14.5445 29.9011 13.9441C28.9121 13.3435 27.8934 12.9712 26.8451 12.8278L26.1669 7.26647L26.1642 7.2445H26.1421H21.8571H21.8349L21.8323 7.26655L21.1729 12.81C20.0696 13.0314 19.0531 13.4086 18.1236 13.9418C17.194 14.4751 16.3276 15.1628 15.5245 16.0047L10.2979 13.7695L10.2773 13.7607L10.2663 13.7802L8.26632 17.3222L8.25541 17.3415L8.2733 17.3547L12.8824 20.737C12.7384 21.2606 12.6282 21.792 12.5518 22.331C12.4747 22.8759 12.4361 23.4386 12.4361 24.019C12.4361 24.5742 12.4747 25.1177 12.5518 25.6496C12.6282 26.1761 12.7322 26.7075 12.8638 27.2438L8.2732 30.6454L8.25546 30.6586L8.26632 30.6778L10.2663 34.2198L10.2773 34.2393L10.2979 34.2305L15.5053 31.9952C16.3454 32.8454 17.3096 33.5486 18.3977 34.1048C19.4847 34.6604 20.6295 35.0718 21.8321 35.3391V42.975H20.0556L19.1553 36.9848L19.153 36.9697L19.1387 36.9648C18.4558 36.7321 17.72 36.3936 16.9314 35.9492L16.9191 35.971L16.9313 35.9492C16.1426 35.5052 15.4632 35.035 14.893 34.5386L14.8809 34.5281L14.8662 34.5347L9.29457 37.0718L5.32076 30.0455M10.2225 25.1672L10.1976 25.169L10.2225 25.1672C10.2225 25.1672 10.2225 25.1672 10.2225 25.1672ZM10.2225 25.1672C10.2521 25.5821 10.3002 25.9646 10.3666 26.3148L10.3696 26.3303L10.3569 26.3396L5.32076 30.0455M5.32076 30.0455L5.30985 30.0262L5.28809 30.0385L5.3029 30.0586L5.32076 30.0455ZM28.8706 42.192V42.217H28.8956H42.0496H42.0746V42.192V40.7075V40.6988L42.0692 40.692C41.2643 39.6739 40.2923 38.8767 39.1534 38.3007C38.0138 37.7245 36.7867 37.4365 35.4726 37.4365C34.1458 37.4365 32.9124 37.7245 31.7728 38.3007C30.6338 38.8767 29.6681 39.6739 28.8759 40.6922L28.8706 40.6989V40.7075V42.192ZM33.4838 30.8669L33.5016 30.8845L33.4838 30.8669C32.9471 31.4104 32.6786 32.0705 32.6786 32.846C32.6786 33.6218 32.9471 34.282 33.4838 34.8251C34.0207 35.3687 34.6841 35.6405 35.4726 35.6405C36.2485 35.6405 36.9087 35.3686 37.4518 34.8252C37.9952 34.2821 38.2671 33.6219 38.2671 32.846C38.2671 32.0704 37.9952 31.4102 37.4518 30.8668C36.9087 30.3237 36.2485 30.052 35.4726 30.052C34.6842 30.052 34.0207 30.3237 33.4838 30.8669ZM27.1559 19.4202C28.0921 20.0999 28.7574 20.9705 29.1522 22.0325H28.4151C28.1523 22.0325 27.8845 22.0506 27.6118 22.0867C27.3455 22.122 27.0903 22.1719 26.8461 22.2364C26.5448 21.7199 26.1378 21.3202 25.6252 21.0376C25.1074 20.7522 24.5462 20.6095 23.9421 20.6095C23.0071 20.6095 22.2078 20.941 21.5454 21.6033C20.8831 22.2657 20.5516 23.065 20.5516 24C20.5516 24.5834 20.6891 25.1405 20.9639 25.671C21.2362 26.1967 21.6172 26.5982 22.1068 26.8748C22.054 27.222 22.0049 27.6019 21.9592 28.0148L21.9592 28.0148C21.9145 28.4226 21.8853 28.8337 21.8717 29.2478C20.83 28.8205 19.9816 28.1474 19.3259 27.228C18.6639 26.2992 18.3326 25.2235 18.3326 24C18.3326 22.4372 18.8798 21.1123 19.9747 20.0237C21.07 18.9347 22.392 18.3905 23.9421 18.3905C25.1393 18.3905 26.2103 18.7337 27.1559 19.4202ZM27.0579 27.2101L27.0401 27.1925L27.0579 27.2101C27.585 26.6763 28.2355 26.4095 29.0111 26.4095H41.9341C42.6969 26.4095 43.3443 26.6763 43.8779 27.2102L43.8956 27.1925L43.8779 27.2102C44.4118 27.7438 44.6786 28.3912 44.6786 29.154V42.077C44.6786 42.8394 44.4118 43.4869 43.8779 44.0208C43.3443 44.5544 42.6969 44.821 41.9341 44.821H29.0111C28.2355 44.821 27.585 44.5543 27.0579 44.0209C26.5306 43.487 26.2671 42.8395 26.2671 42.077V29.154C26.2671 28.3911 26.5306 27.7436 27.0579 27.2101Z" fill="url(#paint0_linear_2140_7666)" stroke="url(#paint1_linear_2140_7666)" stroke-width="0.05"/>
</g>
</g>
<defs>
<linearGradient id="paint0_linear_2140_7666" x1="24.9958" y1="5" x2="24.9958" y2="44.846" gradientUnits="userSpaceOnUse">
<stop stop-color="#F26A1B"/>
<stop offset="1" stop-color="#F7B690"/>
</linearGradient>
<linearGradient id="paint1_linear_2140_7666" x1="24.9958" y1="5" x2="24.9958" y2="44.846" gradientUnits="userSpaceOnUse">
<stop stop-color="#F26A1B"/>
<stop offset="1" stop-color="#F7B690"/>
</linearGradient>
</defs>
</svg>
