<svg width="48" height="48" viewBox="0 0 48 48" fill="none" xmlns="http://www.w3.org/2000/svg">
<g id="shield_person">
<mask id="mask0_2140_7606" style="mask-type:alpha" maskUnits="userSpaceOnUse" x="0" y="0" width="48" height="48">
<rect id="Bounding box" width="48" height="48" fill="#D9D9D9"/>
</mask>
<g mask="url(#mask0_2140_7606)">
<path id="shield_person_2" d="M24.0088 7.43412L24 7.43082L23.9912 7.43412L11.2607 12.2191L11.2445 12.2252V12.2425V21.946C11.2445 24.0615 11.5492 26.0917 12.1586 28.0365C12.7683 29.9811 13.6266 31.7711 14.7333 33.4065L14.7459 33.4252L14.7658 33.4146C16.2206 32.6334 17.7033 32.0411 19.214 31.6377C20.7247 31.2343 22.32 31.0325 24 31.0325C25.68 31.0325 27.2753 31.2343 28.7861 31.6377C30.2967 32.0411 31.7794 32.6334 33.2342 33.4146L33.2541 33.4252L33.2667 33.4065C34.3734 31.7711 35.2317 29.9811 35.8414 28.0365C36.4508 26.0917 36.7555 24.0615 36.7555 21.946V12.2425V12.2252L36.7393 12.2191L24.0088 7.43412ZM16.1614 35.2164L16.1334 35.231L16.1541 35.2549C17.2221 36.4871 18.4135 37.5584 19.7283 38.4686C21.0429 39.379 22.4643 40.0845 23.9922 40.5853L24 40.5878L24.0078 40.5853C25.5357 40.0845 26.9539 39.3789 28.2623 38.4685C29.5704 37.5583 30.7584 36.4871 31.8264 35.2549L31.8471 35.231L31.8191 35.2164C30.5894 34.5745 29.3204 34.0866 28.0122 33.7528C26.7035 33.4189 25.3661 33.252 24 33.252C22.6339 33.252 21.2934 33.4189 19.9783 33.7528C18.6638 34.0866 17.3914 34.5745 16.1614 35.2164ZM24 25.1095C22.2013 25.1095 20.6918 24.4985 19.4697 23.2763C18.2476 22.0546 17.6365 20.545 17.6365 18.746C17.6365 16.9474 18.2476 15.4378 19.4697 14.2157C20.6918 12.9936 22.2013 12.3825 24 12.3825C25.7987 12.3825 27.3082 12.9936 28.5303 14.2157C29.7524 15.4378 30.3635 16.9474 30.3635 18.746C30.3635 20.545 29.7524 22.0546 28.5303 23.2763C27.3082 24.4985 25.7987 25.1095 24 25.1095ZM24 22.8905C25.2033 22.8905 26.1957 22.5012 26.9752 21.7217C27.755 20.9422 28.1445 19.9496 28.1445 18.746C28.1445 17.5427 27.755 16.5503 26.9752 15.7708C26.1957 14.9914 25.2033 14.602 24 14.602C22.7967 14.602 21.8043 14.9914 21.0248 15.7708C20.245 16.5503 19.8555 17.5427 19.8555 18.746C19.8555 19.9496 20.245 20.9422 21.0248 21.7217C21.8043 22.5012 22.7967 22.8905 24 22.8905ZM24 42.9046C19.663 41.7131 16.0834 39.1309 13.2609 35.1565C10.4369 31.1801 9.025 26.7768 9.025 21.946V10.6789L24 5.07272L38.975 10.6789V21.946C38.975 26.7768 37.5631 31.1801 34.7391 35.1565C31.9166 39.1309 28.337 41.7131 24 42.9046Z" fill="url(#paint0_linear_2140_7606)" stroke="url(#paint1_linear_2140_7606)" stroke-width="0.05"/>
</g>
</g>
<defs>
<linearGradient id="paint0_linear_2140_7606" x1="24" y1="5.04602" x2="24" y2="42.9305" gradientUnits="userSpaceOnUse">
<stop stop-color="#F26A1B"/>
<stop offset="1" stop-color="#F7B690"/>
</linearGradient>
<linearGradient id="paint1_linear_2140_7606" x1="24" y1="5.04602" x2="24" y2="42.9305" gradientUnits="userSpaceOnUse">
<stop stop-color="#F26A1B"/>
<stop offset="1" stop-color="#F7B690"/>
</linearGradient>
</defs>
</svg>
