<svg width="49" height="48" viewBox="0 0 49 48" fill="none" xmlns="http://www.w3.org/2000/svg">
<g id="vpn_lock">
<mask id="mask0_2140_7678" style="mask-type:alpha" maskUnits="userSpaceOnUse" x="0" y="0" width="49" height="48">
<rect id="Bounding box" x="0.333008" width="48" height="48" fill="#D9D9D9"/>
</mask>
<g mask="url(#mask0_2140_7678)">
<path id="vpn_lock_2" d="M41.058 22.5377C41.0378 21.9437 40.9956 21.4446 40.9314 21.0406H43.1315C43.1957 21.3698 43.2411 21.8034 43.2675 22.3418C43.2945 22.8914 43.308 23.4338 43.308 23.9691C43.308 26.6249 42.8176 29.1121 41.837 31.4308C40.8562 33.7497 39.5118 35.7629 37.8038 37.4709C36.0958 39.1789 34.0927 40.5233 31.7942 41.5041C29.4962 42.4847 27.0195 42.9751 24.364 42.9751C21.7082 42.9751 19.2262 42.4847 16.9178 41.5041C14.6089 40.5233 12.5956 39.1789 10.8776 37.4708C9.15934 35.7629 7.8098 33.7546 6.82902 31.4458C5.84841 29.1377 5.35801 26.6559 5.35801 24.0001C5.35801 21.3442 5.84841 18.8624 6.82902 16.5543C7.80983 14.2455 9.14593 12.2371 10.8373 10.5292C12.5286 8.82118 14.5131 7.47681 16.7909 6.49603C19.0686 5.51543 21.4979 5.02507 24.079 5.02507C25.4494 5.02507 26.8301 5.15375 28.221 5.41115C29.6036 5.66708 30.7119 5.97037 31.5465 6.32067V9.26957C31.5465 10.3828 31.1239 11.3656 30.2768 12.219C29.4298 13.0722 28.4437 13.4981 27.3175 13.4981H22.079H22.054V13.5231V17.5231C22.054 18.124 21.8382 18.6402 21.4058 19.0729C20.9731 19.5053 20.4569 19.7211 19.856 19.7211H15.856H15.831V19.7461V24.0001V24.0251H15.856H28.333C28.9676 24.0251 29.497 24.2413 29.9227 24.6736L29.9227 24.6736C30.349 25.1058 30.562 25.6321 30.562 26.2541V32.5076V32.5326H30.587H32.587C33.5357 32.5326 34.3728 32.7977 35.0993 33.3278C35.8257 33.858 36.3211 34.5472 36.5861 35.396L36.5992 35.4379L36.6286 35.4053C38.0792 33.7929 39.1853 32.023 39.9468 30.0958C40.7079 28.1685 41.0885 26.1841 41.0885 24.1426C41.0885 23.6806 41.0783 23.1456 41.058 22.5377ZM22.0756 40.9093L22.104 40.9133V40.8846V36.5076V36.4826H22.079C20.9857 36.4826 20.0504 36.0936 19.2717 35.3149C18.493 34.5362 18.104 33.6009 18.104 32.5076V30.5076V30.4972L18.0967 30.4899L7.98919 20.3824L7.9555 20.3487L7.94692 20.3956C7.81352 21.1243 7.71858 21.7435 7.66216 22.2533C7.60571 22.763 7.57751 23.3081 7.57751 23.8886C7.57751 28.2583 8.94999 32.0443 11.695 35.2453C14.44 38.446 17.9005 40.3342 22.0756 40.9093ZM35.2735 8.40846L35.2735 8.40845C35.5455 8.14261 35.8815 8.00957 36.283 8.00957H37.0635H37.0885V7.98457V5.98457C37.0885 4.94221 37.4419 4.05295 38.1491 3.31537C38.8561 2.57789 39.7131 2.20957 40.7215 2.20957C41.7427 2.20957 42.6028 2.57795 43.3034 3.31529C44.0039 4.05285 44.354 4.94214 44.354 5.98457V7.98457V8.00957H44.379H45.1905C45.6053 8.00957 45.9442 8.14276 46.2093 8.40824L46.2093 8.40826C46.4748 8.67341 46.608 9.01231 46.608 9.42707V16.3041C46.608 16.7185 46.4748 17.0574 46.2093 17.3229C45.9442 17.588 45.6053 17.7211 45.1905 17.7211H36.283C35.8815 17.7211 35.5455 17.5882 35.2735 17.3227C35.0017 17.0571 34.8655 16.7183 34.8655 16.3041V9.42707C34.8655 9.01249 35.0017 8.67366 35.2735 8.40846ZM38.585 7.98457V8.00957H38.61H42.833H42.858V7.98457V5.98457C42.858 5.37084 42.6558 4.83739 42.2516 4.38541C41.8468 3.93269 41.3362 3.70607 40.7215 3.70607C40.1068 3.70607 39.5962 3.93269 39.1914 4.38541C38.7872 4.83739 38.585 5.37084 38.585 5.98457V7.98457Z" fill="url(#paint0_linear_2140_7678)" stroke="url(#paint1_linear_2140_7678)" stroke-width="0.05"/>
</g>
</g>
<defs>
<linearGradient id="paint0_linear_2140_7678" x1="25.983" y1="2.18457" x2="25.983" y2="43.0001" gradientUnits="userSpaceOnUse">
<stop stop-color="#F26A1B"/>
<stop offset="1" stop-color="#F7B690"/>
</linearGradient>
<linearGradient id="paint1_linear_2140_7678" x1="25.983" y1="2.18457" x2="25.983" y2="43.0001" gradientUnits="userSpaceOnUse">
<stop stop-color="#F26A1B"/>
<stop offset="1" stop-color="#F7B690"/>
</linearGradient>
</defs>
</svg>
