<svg width="138" height="36" viewBox="0 0 138 36" fill="none" xmlns="http://www.w3.org/2000/svg">
<path d="M30.5181 21.6267C28.0728 20.643 25.6914 19.5153 23.3604 18.2922C23.1813 18.1968 23.0031 18.1005 22.8249 18.0024C25.3134 16.6416 27.8883 15.441 30.5181 14.3727C31.6854 13.9353 32.1039 12.3999 31.3056 11.4351C30.654 10.6206 29.466 10.4874 28.6515 11.139C26.577 12.7653 24.4098 14.2638 22.185 15.6705C22.0131 15.7785 21.8403 15.8838 21.6666 15.9891C21.7332 13.1532 21.9807 10.3236 22.3695 7.51198C22.5747 6.28258 21.4533 5.15218 20.2185 5.36098C19.2231 5.51218 18.5274 6.41488 18.6219 7.40488C19.3266 10.5315 19.7316 13.7562 19.7964 17.0529C19.7991 17.1879 19.8018 17.3229 19.8036 17.4579C19.8054 17.6118 19.8063 17.7648 19.8072 17.9187C19.8072 17.9457 19.8072 17.9727 19.8072 17.9997C19.8072 18.0249 19.8072 18.0492 19.8072 18.0744C19.8072 18.0762 19.8072 18.078 19.8072 18.0798C19.8072 18.2445 19.8054 18.4092 19.8036 18.5739C19.8036 18.5973 19.8036 18.6216 19.8027 18.645C19.8027 18.7053 19.8009 18.7647 19.8 18.825C19.7424 22.164 19.3365 25.4292 18.6228 28.5945C18.5292 29.5845 19.224 30.4872 20.2194 30.6384C21.4542 30.8472 22.5756 29.7177 22.3704 28.4874C21.9816 25.6776 21.7341 22.8498 21.6675 20.0157C24.0885 21.4899 26.4141 23.1189 28.6524 24.8604C29.6145 25.6533 31.1535 25.2465 31.59 24.0729C31.9698 23.1018 31.491 22.0056 30.519 21.6258L30.5181 21.6267Z" fill="#F26A1B"/>
<path d="M14.4391 19.8976C14.1142 20.0497 13.7884 20.1991 13.4608 20.3458C12.4762 20.7877 11.4907 21.2269 10.4872 21.6256C9.32442 22.0648 8.90772 23.5939 9.70152 24.5578C10.3504 25.3741 11.5384 25.5091 12.3547 24.8593C12.6373 24.6343 12.9235 24.4165 13.2115 24.1987C13.5004 23.9836 13.7875 23.7676 14.0782 23.557C14.6578 23.1331 15.2392 22.711 15.8278 22.3006C17.1922 21.2962 16.0051 19.2154 14.4391 19.8958V19.8976Z" fill="#F26A1B"/>
<path d="M15.8264 13.6959C15.5321 13.4907 15.2396 13.2828 14.9489 13.0731C14.0741 12.4413 13.2011 11.8077 12.3533 11.1381C11.3921 10.3497 9.85848 10.7547 9.42108 11.9238C9.03858 12.894 9.51558 13.9902 10.4858 14.3727C10.8215 14.505 11.1545 14.6445 11.4857 14.784C11.816 14.9262 12.1472 15.0675 12.4748 15.2142C13.1318 15.504 13.7879 15.7965 14.4377 16.1016C15.9893 16.7811 17.1989 14.7129 15.8264 13.6968V13.6959Z" fill="#F26A1B"/>
<path d="M49.4536 26.1603C49.4536 26.2305 49.4383 26.2944 49.4077 26.3511C49.3771 26.4087 49.3177 26.4546 49.2295 26.4897C49.1413 26.5248 49.0225 26.5536 48.8731 26.5752C48.7237 26.5968 48.5302 26.6085 48.2926 26.6085C47.9848 26.6085 47.7346 26.595 47.5411 26.5689C47.3476 26.5428 47.2027 26.4942 47.1064 26.424C47.0092 26.3538 46.9309 26.2746 46.8688 26.1864L40.5931 17.6562V26.1864C40.5931 26.2476 40.5751 26.307 40.54 26.3646C40.5049 26.4222 40.4428 26.4654 40.3555 26.496C40.2673 26.5266 40.1512 26.5527 40.0063 26.5752C39.8614 26.5968 39.6787 26.6085 39.4591 26.6085C39.2395 26.6085 39.0676 26.5977 38.9182 26.5752C38.7688 26.5527 38.65 26.5266 38.5618 26.496C38.4736 26.4654 38.4124 26.4213 38.3773 26.3646C38.3422 26.3079 38.3242 26.2485 38.3242 26.1864V9.81273C38.3242 9.74253 38.3413 9.68133 38.3773 9.62823C38.4124 9.57513 38.4736 9.53373 38.5618 9.50313C38.65 9.47253 38.7679 9.44643 38.9182 9.42393C39.0676 9.40233 39.2476 9.39062 39.4591 9.39062C39.6706 9.39062 39.8614 9.40143 40.0063 9.42393C40.1512 9.44643 40.2673 9.47253 40.3555 9.50313C40.4437 9.53373 40.5049 9.57603 40.54 9.62823C40.5751 9.68133 40.5931 9.74253 40.5931 9.81273V17.3934L46.6312 9.81273C46.6843 9.73353 46.7455 9.66783 46.8157 9.61473C46.8859 9.56163 46.9714 9.52023 47.0731 9.48963C47.1739 9.45903 47.2972 9.43473 47.4421 9.41673C47.587 9.39963 47.7742 9.39062 48.0028 9.39062C48.2314 9.39062 48.4159 9.40143 48.5563 9.42393C48.6967 9.44643 48.8092 9.47433 48.8929 9.50943C48.9766 9.54453 49.0333 9.58863 49.0639 9.64083C49.0945 9.69393 49.1098 9.75063 49.1098 9.81183C49.1098 9.92613 49.081 10.0404 49.0243 10.1547C48.9667 10.269 48.8596 10.4274 48.7012 10.629L43.0456 17.3925L49.1368 25.4871C49.2862 25.7157 49.3762 25.8714 49.4068 25.9551C49.4374 26.0388 49.4527 26.1063 49.4527 26.1594L49.4536 26.1603Z" fill="white"/>
<path d="M65.4001 25.7256C65.4703 25.9191 65.5081 26.0748 65.5126 26.1936C65.5171 26.3124 65.4838 26.4024 65.4136 26.4636C65.3434 26.5248 65.2264 26.5644 65.0644 26.5824C64.9015 26.5995 64.6837 26.6085 64.4119 26.6085C64.1401 26.6085 63.9214 26.6022 63.7594 26.5887C63.5965 26.5752 63.4732 26.5536 63.3904 26.523C63.3067 26.4924 63.2455 26.4501 63.2059 26.3979C63.1663 26.3457 63.1285 26.2791 63.0934 26.1999L61.63 22.0473H54.5371L53.1394 26.1477C53.1133 26.2269 53.0782 26.2953 53.0341 26.352C52.99 26.4096 52.9261 26.4573 52.8433 26.4969C52.7596 26.5365 52.6408 26.5644 52.4869 26.5824C52.333 26.5995 52.1332 26.6085 51.8866 26.6085C51.64 26.6085 51.4231 26.5977 51.2602 26.5752C51.0973 26.5527 50.983 26.5113 50.9173 26.4501C50.8516 26.3889 50.8201 26.2989 50.8246 26.1801C50.8291 26.0613 50.866 25.9056 50.9371 25.7121L56.6584 9.86583C56.6935 9.76953 56.7394 9.69033 56.797 9.62823C56.8537 9.56703 56.9374 9.51843 57.0472 9.48333C57.157 9.44823 57.2974 9.42393 57.4693 9.41043C57.6412 9.39693 57.8581 9.39062 58.1218 9.39062C58.4026 9.39062 58.6357 9.39693 58.8202 9.41043C59.0047 9.42393 59.1541 9.44823 59.2684 9.48333C59.3827 9.51843 59.4709 9.56883 59.5321 9.63453C59.5933 9.70023 59.6419 9.78213 59.677 9.87843L65.3983 25.7247L65.4001 25.7256ZM58.057 11.7378H58.0435L55.1032 20.241H61.036L58.0561 11.7378H58.057Z" fill="white"/>
<path d="M73.1718 26.1344C73.1367 26.2316 73.0881 26.3108 73.0269 26.372C72.9657 26.4332 72.8793 26.4818 72.7695 26.5169C72.6597 26.552 72.5193 26.5763 72.3474 26.5898C72.1755 26.6033 71.9631 26.6096 71.7084 26.6096C71.5149 26.6096 71.3457 26.6069 71.2008 26.6033C71.0559 26.5988 70.9308 26.588 70.8255 26.57C70.7202 26.552 70.6302 26.5322 70.5555 26.5106C70.4808 26.489 70.4169 26.4602 70.3647 26.4251C70.3116 26.39 70.2702 26.3486 70.2396 26.3C70.209 26.2514 70.1802 26.1929 70.1541 26.1218L64.5777 10.2755C64.5075 10.082 64.4697 9.92628 64.4652 9.80748C64.4607 9.68868 64.4985 9.59868 64.5777 9.53748C64.6569 9.47628 64.7838 9.43668 64.9602 9.41868C65.1357 9.40158 65.3733 9.39258 65.6721 9.39258C65.9178 9.39258 66.114 9.39888 66.2589 9.41238C66.4038 9.42588 66.5163 9.45018 66.5955 9.48528C66.6747 9.52038 66.7341 9.56628 66.7737 9.62388C66.8133 9.68148 66.8502 9.75348 66.8862 9.84168L71.7777 24.1985H71.7912L76.5504 9.86778C76.5765 9.77148 76.6071 9.69228 76.6431 9.63018C76.6782 9.56898 76.7394 9.52038 76.8276 9.48528C76.9149 9.45018 77.0382 9.42588 77.1966 9.41238C77.355 9.39888 77.5656 9.39258 77.8293 9.39258C78.093 9.39258 78.3171 9.40338 78.4755 9.42588C78.6339 9.44838 78.741 9.48978 78.7986 9.55098C78.8553 9.61218 78.8778 9.70218 78.8643 9.82098C78.8508 9.93978 78.8094 10.0955 78.7392 10.289L73.1754 26.1353L73.1718 26.1344Z" fill="white"/>
<path d="M83.5931 26.1873C83.5931 26.2575 83.5751 26.3187 83.54 26.3718C83.5049 26.4249 83.4428 26.4663 83.3555 26.4969C83.2673 26.5275 83.1512 26.5536 83.0063 26.5761C82.8614 26.5977 82.6787 26.6094 82.4591 26.6094C82.2395 26.6094 82.0676 26.5986 81.9182 26.5761C81.7688 26.5536 81.65 26.5275 81.5618 26.4969C81.4736 26.4663 81.4124 26.424 81.3773 26.3718C81.3422 26.3187 81.3242 26.2575 81.3242 26.1873V9.81273C81.3242 9.74253 81.344 9.68133 81.3836 9.62823C81.4232 9.57513 81.4889 9.53373 81.5816 9.50313C81.6743 9.47253 81.7922 9.44643 81.938 9.42393C82.0829 9.40233 82.2566 9.39062 82.4591 9.39062C82.6787 9.39062 82.8614 9.40143 83.0063 9.42393C83.1512 9.44643 83.2673 9.47253 83.3555 9.50313C83.4428 9.53373 83.5049 9.57603 83.54 9.62823C83.5751 9.68133 83.5931 9.74253 83.5931 9.81273V26.1864V26.1873Z" fill="white"/>
<path d="M100.631 25.7256C100.701 25.9191 100.738 26.0748 100.743 26.1936C100.748 26.3124 100.714 26.4024 100.644 26.4636C100.574 26.5248 100.457 26.5644 100.295 26.5824C100.132 26.5995 99.9142 26.6085 99.6424 26.6085C99.3706 26.6085 99.1519 26.6022 98.9899 26.5887C98.827 26.5752 98.7046 26.5536 98.6209 26.523C98.5372 26.4924 98.476 26.4501 98.4364 26.3979C98.3968 26.3457 98.359 26.2791 98.3239 26.1999L96.8605 22.0473H89.7676L88.3699 26.1477C88.3438 26.2269 88.3087 26.2953 88.2646 26.352C88.2205 26.4096 88.1566 26.4573 88.0738 26.4969C87.9901 26.5365 87.8713 26.5644 87.7174 26.5824C87.5635 26.5995 87.3637 26.6085 87.1171 26.6085C86.8705 26.6085 86.6536 26.5977 86.4907 26.5752C86.3278 26.5527 86.2135 26.5113 86.1478 26.4501C86.0821 26.3889 86.0506 26.2989 86.0551 26.1801C86.0596 26.0613 86.0965 25.9056 86.1676 25.7121L91.8889 9.86583C91.924 9.76953 91.9699 9.69033 92.0275 9.62823C92.0842 9.56703 92.1679 9.51843 92.2777 9.48333C92.3875 9.44823 92.5279 9.42393 92.6998 9.41043C92.8717 9.39693 93.0886 9.39062 93.3523 9.39062C93.6331 9.39062 93.8662 9.39693 94.0507 9.41043C94.2352 9.42393 94.3846 9.44823 94.4989 9.48333C94.6132 9.51843 94.7014 9.56883 94.7626 9.63453C94.8238 9.70023 94.8724 9.78213 94.9075 9.87843L100.629 25.7247L100.631 25.7256ZM93.2875 11.7378H93.274L90.3337 20.241H96.2665L93.2866 11.7378H93.2875Z" fill="white"/>
<path d="M122.9 25.7256C122.97 25.9191 123.007 26.0748 123.013 26.1936C123.017 26.3124 122.984 26.4024 122.914 26.4636C122.843 26.5248 122.726 26.5644 122.564 26.5824C122.402 26.5995 122.184 26.6085 121.912 26.6085C121.64 26.6085 121.421 26.6022 121.259 26.5887C121.097 26.5752 120.974 26.5536 120.89 26.523C120.807 26.4924 120.746 26.4501 120.706 26.3979C120.666 26.3457 120.629 26.2791 120.593 26.1999L119.13 22.0473H112.037L110.639 26.1477C110.613 26.2269 110.578 26.2953 110.534 26.352C110.49 26.4096 110.426 26.4573 110.343 26.4969C110.26 26.5365 110.141 26.5644 109.987 26.5824C109.833 26.5995 109.633 26.6085 109.387 26.6085C109.14 26.6085 108.923 26.5977 108.76 26.5752C108.597 26.5527 108.483 26.5113 108.417 26.4501C108.352 26.3889 108.32 26.2989 108.325 26.1801C108.329 26.0613 108.366 25.9056 108.437 25.7121L114.158 9.86583C114.194 9.76953 114.239 9.69033 114.297 9.62823C114.354 9.56703 114.437 9.51843 114.547 9.48333C114.657 9.44823 114.797 9.42393 114.969 9.41043C115.141 9.39693 115.358 9.39062 115.622 9.39062C115.903 9.39062 116.136 9.39693 116.32 9.41043C116.505 9.42393 116.654 9.44823 116.768 9.48333C116.883 9.51843 116.971 9.56883 117.032 9.63453C117.093 9.70023 117.142 9.78213 117.177 9.87843L122.898 25.7247L122.9 25.7256ZM115.557 11.7378H115.544L112.603 20.241H118.536L115.556 11.7378H115.557Z" fill="white"/>
<path d="M127.745 26.1873C127.745 26.2575 127.727 26.3187 127.692 26.3718C127.657 26.4249 127.595 26.4663 127.508 26.4969C127.42 26.5275 127.304 26.5536 127.159 26.5761C127.014 26.5977 126.831 26.6094 126.611 26.6094C126.392 26.6094 126.22 26.5986 126.071 26.5761C125.921 26.5536 125.802 26.5275 125.714 26.4969C125.626 26.4663 125.565 26.424 125.53 26.3718C125.495 26.3187 125.477 26.2575 125.477 26.1873V9.81273C125.477 9.74253 125.496 9.68133 125.536 9.62823C125.576 9.57513 125.641 9.53373 125.734 9.50313C125.827 9.47253 125.945 9.44643 126.09 9.42393C126.235 9.40233 126.409 9.39062 126.611 9.39062C126.831 9.39062 127.014 9.40143 127.159 9.42393C127.304 9.44643 127.42 9.47253 127.508 9.50313C127.595 9.53373 127.657 9.57603 127.692 9.62823C127.727 9.68133 127.745 9.74253 127.745 9.81273V26.1864V26.1873Z" fill="white"/>
</svg>
