<svg width="616" height="267" viewBox="0 0 616 267" fill="none" xmlns="http://www.w3.org/2000/svg">
<g clip-path="url(#clip0_2517_11434)">
<path d="M165 149H330.5" stroke="url(#paint0_linear_2517_11434)"/>
<path d="M496 149H330.5" stroke="url(#paint1_linear_2517_11434)"/>
<path d="M210 75H236.5C251.412 75 263.5 87.0883 263.5 102V123C263.5 137.912 275.588 150 290.5 150H314.5" stroke="url(#paint2_linear_2517_11434)"/>
<path d="M210 223H236.5C251.412 223 263.5 210.912 263.5 196V175C263.5 160.088 275.588 148 290.5 148H314.5" stroke="url(#paint3_linear_2517_11434)"/>
<path d="M410.5 74H384C369.088 74 357 86.0883 357 101V122C357 136.912 344.912 149 330 149H306" stroke="url(#paint4_linear_2517_11434)"/>
<path d="M410.5 224H384C369.088 224 357 211.912 357 197V176C357 161.088 344.912 149 330 149H306" stroke="url(#paint5_linear_2517_11434)"/>
<mask id="path-7-inside-1_2517_11434" fill="white">
<path d="M133 147C133 50.3502 211.35 -28 308 -28C404.65 -28 483 50.3502 483 147C483 243.65 404.65 322 308 322C211.35 322 133 243.65 133 147Z"/>
</mask>
<path d="M133 -28H483H133ZM484 147.5C484 244.426 405.426 323 308.5 323H307.5C210.574 323 132 244.426 132 147.5L134 147C134 243.098 211.902 321 308 321C404.098 321 482 243.098 482 147L484 147.5ZM307.5 323C210.574 323 132 244.426 132 147.5C132 50.574 210.574 -28 307.5 -28H308C211.902 -28 134 50.3502 134 147C134 243.098 211.902 321 308 321L307.5 323ZM308.5 -28C405.426 -28 484 50.574 484 147.5C484 244.426 405.426 323 308.5 323L308 321C404.098 321 482 243.098 482 147C482 50.3502 404.098 -28 308 -28H308.5Z" fill="url(#paint6_linear_2517_11434)" mask="url(#path-7-inside-1_2517_11434)"/>
<g filter="url(#filter0_d_2517_11434)">
<rect x="276" y="121" width="64" height="56" rx="20" fill="url(#paint7_linear_2517_11434)"/>
<path d="M323.486 154.728C319.629 153.175 315.873 151.394 312.196 149.462C311.914 149.311 311.633 149.159 311.352 149.004C315.277 146.855 319.338 144.959 323.486 143.272C325.327 142.581 325.987 140.156 324.728 138.632C323.7 137.346 321.826 137.136 320.542 138.165C317.27 140.733 313.851 143.1 310.342 145.321C310.071 145.492 309.799 145.658 309.525 145.825C309.63 141.346 310.02 136.877 310.633 132.437C310.957 130.495 309.188 128.71 307.241 129.04C305.671 129.278 304.573 130.704 304.723 132.267C305.834 137.205 306.473 142.298 306.575 147.505C306.579 147.718 306.584 147.931 306.586 148.144C306.589 148.387 306.591 148.629 306.592 148.872C306.592 148.915 306.592 148.957 306.592 149C306.592 149.04 306.592 149.078 306.592 149.118C306.592 149.121 306.592 149.124 306.592 149.126C306.592 149.387 306.589 149.647 306.586 149.907C306.586 149.944 306.586 149.982 306.585 150.019C306.585 150.114 306.582 150.208 306.581 150.303C306.49 155.577 305.85 160.733 304.724 165.732C304.576 167.296 305.672 168.722 307.242 168.96C309.19 169.29 310.958 167.506 310.635 165.563C310.022 161.126 309.631 156.66 309.526 152.184C313.345 154.512 317.013 157.085 320.543 159.835C322.06 161.087 324.488 160.445 325.176 158.591C325.775 157.058 325.02 155.327 323.487 154.727L323.486 154.728Z" fill="white"/>
<path d="M298.121 151.998C297.608 152.238 297.094 152.474 296.578 152.706C295.025 153.404 293.47 154.097 291.888 154.727C290.054 155.421 289.396 157.836 290.648 159.358C291.672 160.647 293.546 160.86 294.833 159.834C295.279 159.479 295.73 159.135 296.184 158.791C296.64 158.451 297.093 158.11 297.551 157.777C298.466 157.108 299.383 156.441 300.311 155.793C302.463 154.207 300.591 150.921 298.121 151.995V151.998Z" fill="white"/>
<path d="M300.311 142.204C299.847 141.88 299.385 141.551 298.927 141.22C297.547 140.222 296.17 139.222 294.833 138.164C293.317 136.919 290.898 137.559 290.208 139.405C289.605 140.937 290.357 142.669 291.888 143.273C292.417 143.482 292.942 143.702 293.465 143.922C293.986 144.147 294.508 144.37 295.025 144.602C296.061 145.059 297.096 145.521 298.121 146.003C300.568 147.076 302.476 143.81 300.311 142.205V142.204Z" fill="white"/>
</g>
<rect x="94.5" y="54.5" width="115" height="39" rx="12.3571" fill="white"/>
<rect x="94.5" y="54.5" width="115" height="39" rx="12.3571" stroke="url(#paint8_linear_2517_11434)"/>
<mask id="mask0_2517_11434" style="mask-type:alpha" maskUnits="userSpaceOnUse" x="104" y="62" width="24" height="24">
<rect x="104" y="62" width="24" height="24" fill="#D9D9D9"/>
</mask>
<g mask="url(#mask0_2517_11434)">
<path d="M115.25 82.75V74.8135C114.248 74.8135 113.287 74.6237 112.367 74.2442C111.448 73.8647 110.636 73.3224 109.931 72.6172C109.226 71.912 108.688 71.098 108.317 70.175C107.945 69.252 107.76 68.2898 107.76 67.2885V65.7885H109.26C110.244 65.7885 111.196 65.9801 112.118 66.3635C113.039 66.7466 113.851 67.2902 114.554 67.9942C115.077 68.5174 115.506 69.1017 115.841 69.7472C116.177 70.3927 116.417 71.0783 116.562 71.804C116.677 71.604 116.805 71.4145 116.947 71.2355C117.089 71.0566 117.247 70.88 117.421 70.7057C118.125 70.0017 118.939 69.4581 119.863 69.075C120.786 68.6916 121.748 68.5 122.75 68.5H124.25V70C124.25 71.0018 124.058 71.9645 123.675 72.888C123.291 73.8115 122.747 74.6255 122.043 75.33C121.339 76.0343 120.531 76.572 119.62 76.9432C118.709 77.3144 117.753 77.5 116.75 77.5V82.75H115.25ZM115.26 73.2885C115.26 72.4885 115.106 71.726 114.797 71.001C114.489 70.276 114.051 69.6301 113.485 69.0635C112.918 68.4968 112.272 68.0593 111.547 67.751C110.822 67.4426 110.06 67.2885 109.26 67.2885C109.26 68.0885 109.41 68.8551 109.71 69.5885C110.01 70.3218 110.443 70.9718 111.01 71.5385C111.576 72.1051 112.226 72.5385 112.96 72.8385C113.693 73.1385 114.46 73.2885 115.26 73.2885ZM116.75 76C117.55 76 118.313 75.85 119.038 75.55C119.763 75.25 120.408 74.8166 120.975 74.25C121.542 73.6833 121.979 73.0333 122.288 72.3C122.596 71.5666 122.75 70.8 122.75 70C121.95 70 121.183 70.1541 120.45 70.4625C119.717 70.7708 119.067 71.2083 118.5 71.775C117.933 72.3416 117.5 72.9875 117.2 73.7125C116.9 74.4375 116.75 75.2 116.75 76Z" fill="url(#paint9_linear_2517_11434)"/>
</g>
<path d="M136.959 78V69.2727H140.07C140.749 69.2727 141.311 69.3963 141.757 69.6435C142.203 69.8906 142.537 70.2287 142.759 70.6577C142.98 71.0838 143.091 71.5639 143.091 72.098C143.091 72.6349 142.979 73.1179 142.754 73.5469C142.533 73.973 142.197 74.3111 141.749 74.5611C141.303 74.8082 140.741 74.9318 140.065 74.9318H137.926V73.8153H139.946C140.375 73.8153 140.723 73.7415 140.99 73.5938C141.257 73.4432 141.453 73.2386 141.578 72.9801C141.703 72.7216 141.766 72.4276 141.766 72.098C141.766 71.7685 141.703 71.4759 141.578 71.2202C141.453 70.9645 141.256 70.7642 140.986 70.6193C140.719 70.4744 140.366 70.402 139.929 70.402H138.276V78H136.959ZM145.806 69.2727V78H144.532V69.2727H145.806ZM149.425 78.1449C149.011 78.1449 148.636 78.0682 148.3 77.9148C147.965 77.7585 147.7 77.5327 147.504 77.2372C147.31 76.9418 147.214 76.5795 147.214 76.1506C147.214 75.7812 147.285 75.4773 147.427 75.2386C147.569 75 147.761 74.8111 148.002 74.6719C148.244 74.5327 148.513 74.4276 148.812 74.3565C149.11 74.2855 149.414 74.2315 149.724 74.1946C150.116 74.1491 150.434 74.1122 150.678 74.0838C150.923 74.0526 151.1 74.0028 151.211 73.9347C151.322 73.8665 151.377 73.7557 151.377 73.6023V73.5724C151.377 73.2003 151.272 72.9119 151.062 72.7074C150.854 72.5028 150.545 72.4006 150.133 72.4006C149.704 72.4006 149.366 72.4957 149.119 72.6861C148.874 72.8736 148.705 73.0824 148.612 73.3125L147.414 73.0398C147.556 72.642 147.763 72.321 148.036 72.0767C148.312 71.8295 148.629 71.6506 148.987 71.5398C149.344 71.4261 149.721 71.3693 150.116 71.3693C150.377 71.3693 150.654 71.4006 150.947 71.4631C151.242 71.5227 151.518 71.6335 151.773 71.7955C152.032 71.9574 152.244 72.1889 152.408 72.4901C152.573 72.7884 152.656 73.1761 152.656 73.6534V78H151.411V77.1051H151.36C151.278 77.2699 151.154 77.4318 150.989 77.5909C150.825 77.75 150.613 77.8821 150.354 77.9872C150.096 78.0923 149.786 78.1449 149.425 78.1449ZM149.702 77.1222C150.055 77.1222 150.356 77.0526 150.606 76.9134C150.859 76.7741 151.05 76.5923 151.181 76.3679C151.315 76.1406 151.381 75.8977 151.381 75.6392V74.7955C151.336 74.8409 151.248 74.8835 151.117 74.9233C150.989 74.9602 150.843 74.9929 150.678 75.0213C150.513 75.0469 150.353 75.071 150.197 75.0938C150.04 75.1136 149.91 75.1307 149.805 75.1449C149.558 75.1761 149.332 75.2287 149.127 75.3026C148.925 75.3764 148.763 75.483 148.641 75.6222C148.522 75.7585 148.462 75.9403 148.462 76.1676C148.462 76.483 148.579 76.7216 148.812 76.8835C149.045 77.0426 149.342 77.1222 149.702 77.1222ZM155.627 74.1136V78H154.353V71.4545H155.576V72.5199H155.657C155.807 72.1733 156.043 71.8949 156.364 71.6847C156.688 71.4744 157.096 71.3693 157.587 71.3693C158.033 71.3693 158.424 71.4631 158.759 71.6506C159.094 71.8352 159.354 72.1108 159.539 72.4773C159.723 72.8437 159.816 73.2969 159.816 73.8366V78H158.542V73.9901C158.542 73.5156 158.418 73.1449 158.171 72.8778C157.924 72.608 157.584 72.473 157.152 72.473C156.857 72.473 156.594 72.5369 156.364 72.6648C156.137 72.7926 155.956 72.9801 155.823 73.2273C155.692 73.4716 155.627 73.767 155.627 74.1136ZM162.799 74.1136V78H161.525V71.4545H162.748V72.5199H162.828C162.979 72.1733 163.215 71.8949 163.536 71.6847C163.86 71.4744 164.267 71.3693 164.759 71.3693C165.205 71.3693 165.596 71.4631 165.931 71.6506C166.266 71.8352 166.526 72.1108 166.711 72.4773C166.895 72.8437 166.988 73.2969 166.988 73.8366V78H165.713V73.9901C165.713 73.5156 165.59 73.1449 165.343 72.8778C165.096 72.608 164.756 72.473 164.324 72.473C164.029 72.473 163.766 72.5369 163.536 72.6648C163.309 72.7926 163.128 72.9801 162.995 73.2273C162.864 73.4716 162.799 73.767 162.799 74.1136ZM168.696 78V71.4545H169.971V78H168.696ZM169.34 70.4446C169.118 70.4446 168.928 70.3707 168.769 70.223C168.613 70.0724 168.534 69.8935 168.534 69.6861C168.534 69.4759 168.613 69.2969 168.769 69.1491C168.928 68.9986 169.118 68.9233 169.34 68.9233C169.561 68.9233 169.75 68.9986 169.907 69.1491C170.066 69.2969 170.145 69.4759 170.145 69.6861C170.145 69.8935 170.066 70.0724 169.907 70.223C169.75 70.3707 169.561 70.4446 169.34 70.4446ZM172.959 74.1136V78H171.685V71.4545H172.908V72.5199H172.989C173.139 72.1733 173.375 71.8949 173.696 71.6847C174.02 71.4744 174.428 71.3693 174.919 71.3693C175.365 71.3693 175.756 71.4631 176.091 71.6506C176.426 71.8352 176.686 72.1108 176.871 72.4773C177.055 72.8437 177.148 73.2969 177.148 73.8366V78H175.874V73.9901C175.874 73.5156 175.75 73.1449 175.503 72.8778C175.256 72.608 174.916 72.473 174.484 72.473C174.189 72.473 173.926 72.5369 173.696 72.6648C173.469 72.7926 173.288 72.9801 173.155 73.2273C173.024 73.4716 172.959 73.767 172.959 74.1136ZM181.601 80.5909C181.081 80.5909 180.634 80.5227 180.259 80.3864C179.886 80.25 179.582 80.0696 179.347 79.8452C179.111 79.6207 178.935 79.375 178.818 79.108L179.913 78.6562C179.99 78.7812 180.092 78.9134 180.22 79.0526C180.351 79.1946 180.527 79.3153 180.749 79.4148C180.973 79.5142 181.261 79.5639 181.614 79.5639C182.097 79.5639 182.496 79.446 182.811 79.2102C183.126 78.9773 183.284 78.6051 183.284 78.0938V76.8068H183.203C183.126 76.946 183.016 77.1009 182.871 77.2713C182.729 77.4418 182.533 77.5895 182.283 77.7145C182.033 77.8395 181.707 77.902 181.307 77.902C180.79 77.902 180.324 77.7812 179.909 77.5398C179.497 77.2955 179.17 76.9361 178.929 76.4616C178.69 75.9844 178.571 75.3977 178.571 74.7017C178.571 74.0057 178.689 73.4091 178.925 72.9119C179.163 72.4148 179.49 72.0341 179.905 71.7699C180.32 71.5028 180.79 71.3693 181.315 71.3693C181.722 71.3693 182.05 71.4375 182.3 71.5739C182.55 71.7074 182.744 71.8636 182.884 72.0426C183.026 72.2216 183.135 72.3793 183.212 72.5156H183.305V71.4545H184.554V78.1449C184.554 78.7074 184.423 79.169 184.162 79.5298C183.901 79.8906 183.547 80.1577 183.101 80.331C182.658 80.5043 182.158 80.5909 181.601 80.5909ZM181.588 76.8452C181.955 76.8452 182.264 76.7599 182.517 76.5895C182.773 76.4162 182.966 76.169 183.097 75.848C183.23 75.5241 183.297 75.1364 183.297 74.6847C183.297 74.2443 183.232 73.8565 183.101 73.5213C182.97 73.1861 182.778 72.9247 182.526 72.7372C182.273 72.5469 181.96 72.4517 181.588 72.4517C181.205 72.4517 180.885 72.5511 180.629 72.75C180.374 72.946 180.18 73.2131 180.05 73.5511C179.922 73.8892 179.858 74.267 179.858 74.6847C179.858 75.1136 179.923 75.4901 180.054 75.8139C180.185 76.1378 180.378 76.3906 180.634 76.5724C180.892 76.7543 181.21 76.8452 181.588 76.8452Z" fill="#231F20"/>
<rect x="45.5" y="129.5" width="128" height="39" rx="12.3571" fill="white"/>
<rect x="45.5" y="129.5" width="128" height="39" rx="12.3571" stroke="url(#paint10_linear_2517_11434)"/>
<mask id="mask1_2517_11434" style="mask-type:alpha" maskUnits="userSpaceOnUse" x="55" y="137" width="24" height="24">
<rect x="55" y="137" width="24" height="24" fill="#D9D9D9"/>
</mask>
<g mask="url(#mask1_2517_11434)">
<path d="M67 157.942C66.5987 157.942 66.2438 157.837 65.9355 157.625C65.6272 157.413 65.4115 157.136 65.2885 156.792H65C64.591 156.792 64.2388 156.645 63.9433 156.349C63.6478 156.054 63.5 155.701 63.5 155.292V152.012C62.491 151.4 61.6971 150.58 61.1182 149.552C60.5394 148.524 60.25 147.423 60.25 146.25C60.25 144.368 60.9045 142.772 62.2135 141.463C63.5225 140.154 65.118 139.5 67 139.5C68.882 139.5 70.4775 140.154 71.7865 141.463C73.0955 142.772 73.75 144.368 73.75 146.25C73.75 147.444 73.4606 148.549 72.8818 149.567C72.3029 150.585 71.509 151.4 70.5 152.012V155.292C70.5 155.701 70.3523 156.054 70.0568 156.349C69.7613 156.645 69.409 156.792 69 156.792H68.7115C68.5885 157.136 68.3728 157.413 68.0645 157.625C67.7562 157.837 67.4013 157.942 67 157.942ZM65 155.292H69V154.354H65V155.292ZM65 153.469H69V152.5H65V153.469ZM64.8 151H66.4037V148.089L64.6808 146.365C64.5628 146.247 64.5022 146.109 64.499 145.951C64.4958 145.793 64.5564 145.651 64.6808 145.527C64.8051 145.403 64.9448 145.341 65.1 145.341C65.2552 145.341 65.3949 145.403 65.5192 145.527L67 147.008L68.4808 145.527C68.5988 145.409 68.7369 145.348 68.8953 145.345C69.0536 145.342 69.1949 145.403 69.3193 145.527C69.4436 145.651 69.5057 145.791 69.5057 145.946C69.5057 146.101 69.4436 146.241 69.3193 146.365L67.5963 148.089V151H69.2C70.1 150.567 70.8333 149.929 71.4 149.088C71.9667 148.246 72.25 147.3 72.25 146.25C72.25 144.783 71.7417 143.542 70.725 142.525C69.7083 141.508 68.4667 141 67 141C65.5333 141 64.2917 141.508 63.275 142.525C62.2583 143.542 61.75 144.783 61.75 146.25C61.75 147.3 62.0333 148.246 62.6 149.088C63.1667 149.929 63.9 150.567 64.8 151Z" fill="url(#paint11_linear_2517_11434)"/>
</g>
<path d="M90.7841 153H87.9588V144.273H90.8736C91.7287 144.273 92.4631 144.447 93.0767 144.797C93.6903 145.143 94.1605 145.642 94.4872 146.293C94.8168 146.94 94.9815 147.717 94.9815 148.624C94.9815 149.533 94.8153 150.314 94.483 150.967C94.1534 151.621 93.6761 152.124 93.0511 152.476C92.4261 152.825 91.6705 153 90.7841 153ZM89.2756 151.849H90.7116C91.3764 151.849 91.929 151.724 92.3693 151.474C92.8097 151.222 93.1392 150.857 93.358 150.379C93.5767 149.899 93.6861 149.314 93.6861 148.624C93.6861 147.939 93.5767 147.358 93.358 146.881C93.142 146.403 92.8196 146.041 92.3906 145.794C91.9616 145.547 91.429 145.423 90.7926 145.423H89.2756V151.849ZM99.3377 153.132C98.6928 153.132 98.1374 152.994 97.6715 152.719C97.2085 152.44 96.8505 152.05 96.5977 151.547C96.3477 151.041 96.2227 150.449 96.2227 149.77C96.2227 149.099 96.3477 148.509 96.5977 147.997C96.8505 147.486 97.2028 147.087 97.6545 146.8C98.109 146.513 98.6403 146.369 99.2482 146.369C99.6175 146.369 99.9755 146.43 100.322 146.553C100.669 146.675 100.98 146.866 101.255 147.128C101.531 147.389 101.748 147.729 101.907 148.146C102.066 148.561 102.146 149.065 102.146 149.659V150.111H96.9428V149.156H100.897C100.897 148.821 100.829 148.524 100.693 148.266C100.556 148.004 100.365 147.798 100.118 147.648C99.8732 147.497 99.5863 147.422 99.2567 147.422C98.8988 147.422 98.5863 147.51 98.3192 147.686C98.055 147.859 97.8505 148.087 97.7056 148.368C97.5636 148.646 97.4925 148.949 97.4925 149.276V150.021C97.4925 150.459 97.5692 150.831 97.7227 151.138C97.8789 151.445 98.0962 151.679 98.3746 151.841C98.6531 152 98.9783 152.08 99.3505 152.08C99.592 152.08 99.8121 152.045 100.011 151.977C100.21 151.906 100.382 151.801 100.527 151.662C100.672 151.523 100.782 151.351 100.859 151.146L102.065 151.364C101.968 151.719 101.795 152.03 101.545 152.297C101.298 152.561 100.987 152.767 100.612 152.915C100.24 153.06 99.815 153.132 99.3377 153.132ZM108.972 146.455L106.598 153H105.234L102.857 146.455H104.224L105.882 151.491H105.95L107.604 146.455H108.972ZM112.767 153.132C112.123 153.132 111.567 152.994 111.101 152.719C110.638 152.44 110.28 152.05 110.027 151.547C109.777 151.041 109.652 150.449 109.652 149.77C109.652 149.099 109.777 148.509 110.027 147.997C110.28 147.486 110.632 147.087 111.084 146.8C111.539 146.513 112.07 146.369 112.678 146.369C113.047 146.369 113.405 146.43 113.752 146.553C114.098 146.675 114.409 146.866 114.685 147.128C114.961 147.389 115.178 147.729 115.337 148.146C115.496 148.561 115.576 149.065 115.576 149.659V150.111H110.373V149.156H114.327C114.327 148.821 114.259 148.524 114.123 148.266C113.986 148.004 113.794 147.798 113.547 147.648C113.303 147.497 113.016 147.422 112.686 147.422C112.328 147.422 112.016 147.51 111.749 147.686C111.485 147.859 111.28 148.087 111.135 148.368C110.993 148.646 110.922 148.949 110.922 149.276V150.021C110.922 150.459 110.999 150.831 111.152 151.138C111.309 151.445 111.526 151.679 111.804 151.841C112.083 152 112.408 152.08 112.78 152.08C113.022 152.08 113.242 152.045 113.441 151.977C113.64 151.906 113.811 151.801 113.956 151.662C114.101 151.523 114.212 151.351 114.289 151.146L115.495 151.364C115.398 151.719 115.225 152.03 114.975 152.297C114.728 152.561 114.417 152.767 114.042 152.915C113.669 153.06 113.245 153.132 112.767 153.132ZM118.263 144.273V153H116.989V144.273H118.263ZM122.735 153.132C122.121 153.132 121.586 152.991 121.128 152.71C120.671 152.429 120.316 152.036 120.063 151.53C119.81 151.024 119.684 150.433 119.684 149.757C119.684 149.078 119.81 148.484 120.063 147.976C120.316 147.467 120.671 147.072 121.128 146.791C121.586 146.51 122.121 146.369 122.735 146.369C123.348 146.369 123.884 146.51 124.341 146.791C124.799 147.072 125.154 147.467 125.407 147.976C125.659 148.484 125.786 149.078 125.786 149.757C125.786 150.433 125.659 151.024 125.407 151.53C125.154 152.036 124.799 152.429 124.341 152.71C123.884 152.991 123.348 153.132 122.735 153.132ZM122.739 152.062C123.137 152.062 123.466 151.957 123.728 151.747C123.989 151.537 124.182 151.257 124.307 150.908C124.435 150.558 124.499 150.173 124.499 149.753C124.499 149.335 124.435 148.952 124.307 148.602C124.182 148.25 123.989 147.967 123.728 147.754C123.466 147.541 123.137 147.435 122.739 147.435C122.338 147.435 122.006 147.541 121.742 147.754C121.48 147.967 121.286 148.25 121.158 148.602C121.033 148.952 120.971 149.335 120.971 149.753C120.971 150.173 121.033 150.558 121.158 150.908C121.286 151.257 121.48 151.537 121.742 151.747C122.006 151.957 122.338 152.062 122.739 152.062ZM127.208 155.455V146.455H128.452V147.516H128.559C128.633 147.379 128.739 147.222 128.879 147.043C129.018 146.864 129.211 146.707 129.458 146.574C129.705 146.438 130.032 146.369 130.438 146.369C130.967 146.369 131.438 146.503 131.853 146.77C132.268 147.037 132.593 147.422 132.829 147.925C133.067 148.428 133.187 149.033 133.187 149.74C133.187 150.447 133.069 151.054 132.833 151.56C132.597 152.062 132.273 152.45 131.862 152.723C131.45 152.993 130.979 153.128 130.451 153.128C130.053 153.128 129.728 153.061 129.475 152.928C129.225 152.794 129.029 152.638 128.887 152.459C128.745 152.28 128.636 152.121 128.559 151.982H128.482V155.455H127.208ZM128.457 149.727C128.457 150.187 128.523 150.591 128.657 150.938C128.79 151.284 128.984 151.555 129.237 151.751C129.489 151.945 129.799 152.041 130.165 152.041C130.546 152.041 130.864 151.94 131.12 151.739C131.376 151.534 131.569 151.257 131.7 150.908C131.833 150.558 131.9 150.165 131.9 149.727C131.9 149.295 131.835 148.908 131.704 148.564C131.576 148.22 131.383 147.949 131.124 147.75C130.869 147.551 130.549 147.452 130.165 147.452C129.796 147.452 129.484 147.547 129.228 147.737C128.975 147.928 128.783 148.193 128.653 148.534C128.522 148.875 128.457 149.273 128.457 149.727ZM134.614 153V146.455H135.837V147.52H135.918C136.055 147.159 136.278 146.878 136.587 146.676C136.897 146.472 137.268 146.369 137.7 146.369C138.137 146.369 138.504 146.472 138.799 146.676C139.097 146.881 139.317 147.162 139.46 147.52H139.528C139.684 147.17 139.933 146.892 140.273 146.685C140.614 146.474 141.021 146.369 141.492 146.369C142.086 146.369 142.57 146.555 142.945 146.928C143.323 147.3 143.512 147.861 143.512 148.611V153H142.238V148.73C142.238 148.287 142.117 147.966 141.876 147.767C141.634 147.568 141.346 147.469 141.011 147.469C140.596 147.469 140.273 147.597 140.043 147.852C139.813 148.105 139.698 148.43 139.698 148.828V153H138.428V148.649C138.428 148.294 138.317 148.009 138.096 147.793C137.874 147.577 137.586 147.469 137.231 147.469C136.989 147.469 136.766 147.533 136.562 147.661C136.36 147.786 136.197 147.96 136.072 148.185C135.95 148.409 135.888 148.669 135.888 148.964V153H134.614ZM148.041 153.132C147.396 153.132 146.841 152.994 146.375 152.719C145.912 152.44 145.554 152.05 145.301 151.547C145.051 151.041 144.926 150.449 144.926 149.77C144.926 149.099 145.051 148.509 145.301 147.997C145.554 147.486 145.906 147.087 146.358 146.8C146.812 146.513 147.343 146.369 147.951 146.369C148.321 146.369 148.679 146.43 149.025 146.553C149.372 146.675 149.683 146.866 149.958 147.128C150.234 147.389 150.451 147.729 150.61 148.146C150.77 148.561 150.849 149.065 150.849 149.659V150.111H145.646V149.156H149.6C149.6 148.821 149.532 148.524 149.396 148.266C149.26 148.004 149.068 147.798 148.821 147.648C148.576 147.497 148.289 147.422 147.96 147.422C147.602 147.422 147.289 147.51 147.022 147.686C146.758 147.859 146.554 148.087 146.409 148.368C146.267 148.646 146.196 148.949 146.196 149.276V150.021C146.196 150.459 146.272 150.831 146.426 151.138C146.582 151.445 146.799 151.679 147.078 151.841C147.356 152 147.681 152.08 148.054 152.08C148.295 152.08 148.515 152.045 148.714 151.977C148.913 151.906 149.085 151.801 149.23 151.662C149.375 151.523 149.485 151.351 149.562 151.146L150.768 151.364C150.672 151.719 150.498 152.03 150.248 152.297C150.001 152.561 149.69 152.767 149.315 152.915C148.943 153.06 148.518 153.132 148.041 153.132ZM153.537 149.114V153H152.263V146.455H153.486V147.52H153.567C153.717 147.173 153.953 146.895 154.274 146.685C154.598 146.474 155.006 146.369 155.497 146.369C155.943 146.369 156.334 146.463 156.669 146.651C157.004 146.835 157.264 147.111 157.449 147.477C157.634 147.844 157.726 148.297 157.726 148.837V153H156.452V148.99C156.452 148.516 156.328 148.145 156.081 147.878C155.834 147.608 155.494 147.473 155.062 147.473C154.767 147.473 154.504 147.537 154.274 147.665C154.047 147.793 153.866 147.98 153.733 148.227C153.602 148.472 153.537 148.767 153.537 149.114ZM162.49 146.455V147.477H158.915V146.455H162.49ZM159.874 144.886H161.148V151.078C161.148 151.325 161.185 151.511 161.259 151.636C161.332 151.759 161.428 151.842 161.544 151.888C161.663 151.93 161.793 151.952 161.932 151.952C162.034 151.952 162.124 151.945 162.2 151.93C162.277 151.916 162.337 151.905 162.379 151.896L162.609 152.949C162.536 152.977 162.43 153.006 162.294 153.034C162.158 153.065 161.987 153.082 161.783 153.085C161.447 153.091 161.135 153.031 160.845 152.906C160.555 152.781 160.321 152.588 160.142 152.327C159.963 152.065 159.874 151.737 159.874 151.342V144.886Z" fill="#231F20"/>
<rect x="104.5" y="203.5" width="121" height="39" rx="12.3571" fill="white"/>
<rect x="104.5" y="203.5" width="121" height="39" rx="12.3571" stroke="url(#paint12_linear_2517_11434)"/>
<mask id="mask2_2517_11434" style="mask-type:alpha" maskUnits="userSpaceOnUse" x="114" y="211" width="24" height="24">
<rect x="114" y="211" width="24" height="24" fill="#D9D9D9"/>
</mask>
<g mask="url(#mask2_2517_11434)">
<path d="M126 230.333C127.167 230.333 128.164 229.922 128.992 229.1C129.819 228.278 130.233 227.283 130.233 226.117V222C130.233 220.833 129.819 219.839 128.992 219.017C128.164 218.194 127.167 217.783 126 217.783C124.833 217.783 123.836 218.194 123.008 219.017C122.181 219.839 121.767 220.833 121.767 222V226.117C121.767 227.283 122.181 228.278 123.008 229.1C123.836 229.922 124.833 230.333 126 230.333ZM124 227H128V225.333H124V227ZM124 222.783H128V221.117H124V222.783ZM126 232C124.917 232 123.91 231.739 122.979 231.217C122.049 230.694 121.344 229.956 120.867 229H118V227.333H120.233C120.139 226.933 120.09 226.531 120.087 226.125C120.085 225.72 120.083 225.311 120.083 224.9H118V223.233H120.083C120.083 222.8 120.087 222.369 120.096 221.942C120.104 221.514 120.161 221.089 120.267 220.667H118V219H120.933C121.167 218.561 121.46 218.17 121.812 217.825C122.165 217.481 122.561 217.189 123 216.95L121.183 215.133L122.317 214L124.6 216.283C125.067 216.122 125.539 216.042 126.017 216.042C126.494 216.042 126.967 216.122 127.433 216.283L129.733 214L130.867 215.133L129.05 216.95C129.489 217.189 129.879 217.482 130.221 217.829C130.562 218.176 130.861 218.567 131.117 219H134V220.667H131.733C131.85 221.089 131.907 221.514 131.904 221.942C131.901 222.369 131.9 222.8 131.9 223.233H134V224.9H131.9C131.9 225.311 131.901 225.72 131.904 226.125C131.907 226.531 131.861 226.933 131.767 227.333H134V229H131.15C130.683 229.967 129.982 230.708 129.046 231.225C128.11 231.742 127.094 232 126 232Z" fill="url(#paint13_linear_2517_11434)"/>
</g>
<path d="M146.528 219.406V218.273H153.283V219.406H150.56V227H149.247V219.406H146.528ZM156.545 227.132C155.9 227.132 155.344 226.994 154.879 226.719C154.415 226.44 154.058 226.05 153.805 225.547C153.555 225.041 153.43 224.449 153.43 223.77C153.43 223.099 153.555 222.509 153.805 221.997C154.058 221.486 154.41 221.087 154.862 220.8C155.316 220.513 155.847 220.369 156.455 220.369C156.825 220.369 157.183 220.43 157.529 220.553C157.876 220.675 158.187 220.866 158.462 221.128C158.738 221.389 158.955 221.729 159.114 222.146C159.273 222.561 159.353 223.065 159.353 223.659V224.111H154.15V223.156H158.104C158.104 222.821 158.036 222.524 157.9 222.266C157.763 222.004 157.572 221.798 157.325 221.648C157.08 221.497 156.793 221.422 156.464 221.422C156.106 221.422 155.793 221.51 155.526 221.686C155.262 221.859 155.058 222.087 154.913 222.368C154.771 222.646 154.7 222.949 154.7 223.276V224.021C154.7 224.459 154.776 224.831 154.93 225.138C155.086 225.445 155.303 225.679 155.582 225.841C155.86 226 156.185 226.08 156.558 226.08C156.799 226.08 157.019 226.045 157.218 225.977C157.417 225.906 157.589 225.801 157.734 225.662C157.879 225.523 157.989 225.351 158.066 225.146L159.272 225.364C159.175 225.719 159.002 226.03 158.752 226.297C158.505 226.561 158.194 226.767 157.819 226.915C157.447 227.06 157.022 227.132 156.545 227.132ZM165.672 222.053L164.517 222.257C164.468 222.109 164.392 221.969 164.287 221.835C164.184 221.702 164.045 221.592 163.869 221.507C163.693 221.422 163.473 221.379 163.208 221.379C162.848 221.379 162.547 221.46 162.305 221.622C162.064 221.781 161.943 221.987 161.943 222.24C161.943 222.459 162.024 222.635 162.186 222.768C162.348 222.902 162.609 223.011 162.97 223.097L164.01 223.335C164.612 223.474 165.061 223.689 165.356 223.979C165.652 224.268 165.799 224.645 165.799 225.108C165.799 225.5 165.686 225.849 165.458 226.156C165.234 226.46 164.92 226.699 164.517 226.872C164.116 227.045 163.652 227.132 163.123 227.132C162.39 227.132 161.792 226.976 161.329 226.663C160.866 226.348 160.582 225.901 160.477 225.321L161.708 225.134C161.785 225.455 161.943 225.697 162.181 225.862C162.42 226.024 162.731 226.105 163.115 226.105C163.532 226.105 163.866 226.018 164.116 225.845C164.366 225.669 164.491 225.455 164.491 225.202C164.491 224.997 164.414 224.825 164.261 224.686C164.11 224.547 163.879 224.442 163.566 224.371L162.458 224.128C161.848 223.989 161.396 223.767 161.103 223.463C160.814 223.159 160.669 222.774 160.669 222.308C160.669 221.922 160.777 221.584 160.993 221.294C161.208 221.004 161.507 220.778 161.887 220.616C162.268 220.452 162.704 220.369 163.196 220.369C163.903 220.369 164.46 220.523 164.866 220.83C165.272 221.134 165.541 221.541 165.672 222.053ZM170.256 220.455V221.477H166.68V220.455H170.256ZM167.639 218.886H168.913V225.078C168.913 225.325 168.95 225.511 169.024 225.636C169.098 225.759 169.193 225.842 169.31 225.888C169.429 225.93 169.558 225.952 169.697 225.952C169.8 225.952 169.889 225.945 169.966 225.93C170.043 225.916 170.102 225.905 170.145 225.896L170.375 226.949C170.301 226.977 170.196 227.006 170.06 227.034C169.923 227.065 169.753 227.082 169.548 227.085C169.213 227.091 168.901 227.031 168.611 226.906C168.321 226.781 168.087 226.588 167.908 226.327C167.729 226.065 167.639 225.737 167.639 225.342V218.886ZM171.665 227V220.455H172.939V227H171.665ZM172.309 219.445C172.087 219.445 171.897 219.371 171.738 219.223C171.581 219.072 171.503 218.893 171.503 218.686C171.503 218.476 171.581 218.297 171.738 218.149C171.897 217.999 172.087 217.923 172.309 217.923C172.53 217.923 172.719 217.999 172.875 218.149C173.034 218.297 173.114 218.476 173.114 218.686C173.114 218.893 173.034 219.072 172.875 219.223C172.719 219.371 172.53 219.445 172.309 219.445ZM175.928 223.114V227H174.653V220.455H175.876V221.52H175.957C176.108 221.173 176.344 220.895 176.665 220.685C176.989 220.474 177.396 220.369 177.888 220.369C178.334 220.369 178.724 220.463 179.06 220.651C179.395 220.835 179.655 221.111 179.839 221.477C180.024 221.844 180.116 222.297 180.116 222.837V227H178.842V222.99C178.842 222.516 178.719 222.145 178.472 221.878C178.224 221.608 177.885 221.473 177.453 221.473C177.158 221.473 176.895 221.537 176.665 221.665C176.438 221.793 176.257 221.98 176.124 222.227C175.993 222.472 175.928 222.767 175.928 223.114ZM184.57 229.591C184.05 229.591 183.602 229.523 183.227 229.386C182.855 229.25 182.551 229.07 182.315 228.845C182.08 228.621 181.903 228.375 181.787 228.108L182.882 227.656C182.959 227.781 183.061 227.913 183.189 228.053C183.32 228.195 183.496 228.315 183.717 228.415C183.942 228.514 184.23 228.564 184.582 228.564C185.065 228.564 185.464 228.446 185.78 228.21C186.095 227.977 186.253 227.605 186.253 227.094V225.807H186.172C186.095 225.946 185.984 226.101 185.839 226.271C185.697 226.442 185.501 226.589 185.251 226.714C185.001 226.839 184.676 226.902 184.276 226.902C183.759 226.902 183.293 226.781 182.878 226.54C182.466 226.295 182.139 225.936 181.898 225.462C181.659 224.984 181.54 224.398 181.54 223.702C181.54 223.006 181.658 222.409 181.893 221.912C182.132 221.415 182.459 221.034 182.874 220.77C183.288 220.503 183.759 220.369 184.284 220.369C184.69 220.369 185.018 220.438 185.268 220.574C185.518 220.707 185.713 220.864 185.852 221.043C185.994 221.222 186.104 221.379 186.18 221.516H186.274V220.455H187.523V227.145C187.523 227.707 187.392 228.169 187.131 228.53C186.869 228.891 186.516 229.158 186.07 229.331C185.626 229.504 185.126 229.591 184.57 229.591ZM184.557 225.845C184.923 225.845 185.233 225.76 185.486 225.589C185.741 225.416 185.935 225.169 186.065 224.848C186.199 224.524 186.266 224.136 186.266 223.685C186.266 223.244 186.2 222.857 186.07 222.521C185.939 222.186 185.747 221.925 185.494 221.737C185.241 221.547 184.929 221.452 184.557 221.452C184.173 221.452 183.854 221.551 183.598 221.75C183.342 221.946 183.149 222.213 183.018 222.551C182.891 222.889 182.827 223.267 182.827 223.685C182.827 224.114 182.892 224.49 183.023 224.814C183.153 225.138 183.347 225.391 183.602 225.572C183.861 225.754 184.179 225.845 184.557 225.845Z" fill="#231F20"/>
<rect x="389.5" y="203.5" width="121" height="39" rx="12.3571" fill="white"/>
<rect x="389.5" y="203.5" width="121" height="39" rx="12.3571" stroke="url(#paint14_linear_2517_11434)"/>
<mask id="mask3_2517_11434" style="mask-type:alpha" maskUnits="userSpaceOnUse" x="399" y="211" width="24" height="24">
<rect x="399" y="211" width="24" height="24" fill="#D9D9D9"/>
</mask>
<g mask="url(#mask3_2517_11434)">
<path d="M403.942 221.716L406.487 222.796C406.79 222.189 407.118 221.595 407.469 221.013C407.821 220.432 408.203 219.871 408.617 219.33L406.869 218.988C406.817 218.975 406.768 218.977 406.72 218.993C406.671 219.009 406.628 219.036 406.59 219.075L403.942 221.716ZM407.487 223.569L410.56 226.637C411.425 226.244 412.265 225.773 413.081 225.223C413.897 224.673 414.62 224.082 415.251 223.451C416.461 222.241 417.368 220.977 417.971 219.658C418.574 218.339 418.904 216.839 418.961 215.158C417.276 215.215 415.776 215.544 414.46 216.145C413.145 216.746 411.882 217.652 410.672 218.862C410.041 219.493 409.451 220.218 408.901 221.037C408.351 221.856 407.879 222.7 407.487 223.569ZM412.921 221.187C412.607 220.877 412.451 220.496 412.451 220.043C412.451 219.59 412.607 219.207 412.921 218.893C413.235 218.579 413.621 218.423 414.079 218.423C414.536 218.423 414.922 218.579 415.236 218.893C415.55 219.207 415.706 219.59 415.706 220.043C415.706 220.496 415.55 220.877 415.236 221.187C414.922 221.5 414.536 221.657 414.079 221.657C413.621 221.657 413.235 221.5 412.921 221.187ZM412.397 230.181L415.045 227.539C415.083 227.501 415.11 227.456 415.123 227.406C415.137 227.356 415.14 227.307 415.131 227.26L414.783 225.512C414.242 225.921 413.682 226.301 413.103 226.651C412.524 227.001 411.928 227.33 411.317 227.637L412.397 230.181ZM420.169 213.955C420.302 216.001 420.032 217.878 419.359 219.584C418.685 221.29 417.601 222.89 416.104 224.382C416.066 224.42 416.029 224.458 415.994 224.495C415.96 224.532 415.923 224.567 415.884 224.602L416.363 227.004C416.412 227.267 416.398 227.52 416.321 227.764C416.244 228.008 416.113 228.223 415.928 228.408L411.97 232.373L410.081 227.941L406.172 224.039L401.746 222.133L405.7 218.185C405.889 218 406.107 217.867 406.353 217.787C406.598 217.707 406.853 217.693 407.115 217.747L409.53 218.229C409.569 218.194 409.604 218.16 409.636 218.127C409.667 218.094 409.702 218.06 409.741 218.025C411.237 216.529 412.837 215.443 414.539 214.768C416.242 214.093 418.118 213.822 420.169 213.955ZM403.426 227.024C403.913 226.532 404.506 226.287 405.204 226.287C405.903 226.287 406.498 226.531 406.989 227.018C407.476 227.505 407.717 228.098 407.712 228.797C407.707 229.495 407.461 230.09 406.974 230.581C406.584 230.966 405.975 231.291 405.146 231.556C404.317 231.82 403.202 232.037 401.801 232.206C401.971 230.805 402.187 229.688 402.449 228.853C402.711 228.019 403.036 227.409 403.426 227.024ZM404.309 227.928C404.098 228.15 403.905 228.503 403.729 228.985C403.553 229.468 403.419 230.031 403.328 230.674C403.971 230.578 404.534 230.443 405.017 230.268C405.499 230.093 405.852 229.897 406.074 229.682C406.33 229.444 406.462 229.15 406.469 228.801C406.475 228.452 406.354 228.149 406.105 227.893C405.848 227.643 405.545 227.523 405.197 227.531C404.848 227.539 404.552 227.672 404.309 227.928Z" fill="url(#paint15_linear_2517_11434)"/>
</g>
<path d="M434.784 227H431.959V218.273H434.874C435.729 218.273 436.463 218.447 437.077 218.797C437.69 219.143 438.161 219.642 438.487 220.293C438.817 220.94 438.982 221.717 438.982 222.624C438.982 223.533 438.815 224.314 438.483 224.967C438.153 225.621 437.676 226.124 437.051 226.476C436.426 226.825 435.67 227 434.784 227ZM433.276 225.849H434.712C435.376 225.849 435.929 225.724 436.369 225.474C436.81 225.222 437.139 224.857 437.358 224.379C437.577 223.899 437.686 223.314 437.686 222.624C437.686 221.939 437.577 221.358 437.358 220.881C437.142 220.403 436.82 220.041 436.391 219.794C435.962 219.547 435.429 219.423 434.793 219.423H433.276V225.849ZM443.338 227.132C442.693 227.132 442.137 226.994 441.672 226.719C441.208 226.44 440.85 226.05 440.598 225.547C440.348 225.041 440.223 224.449 440.223 223.77C440.223 223.099 440.348 222.509 440.598 221.997C440.85 221.486 441.203 221.087 441.654 220.8C442.109 220.513 442.64 220.369 443.248 220.369C443.618 220.369 443.975 220.43 444.322 220.553C444.669 220.675 444.98 220.866 445.255 221.128C445.531 221.389 445.748 221.729 445.907 222.146C446.066 222.561 446.146 223.065 446.146 223.659V224.111H440.943V223.156H444.897C444.897 222.821 444.829 222.524 444.693 222.266C444.556 222.004 444.365 221.798 444.118 221.648C443.873 221.497 443.586 221.422 443.257 221.422C442.899 221.422 442.586 221.51 442.319 221.686C442.055 221.859 441.85 222.087 441.706 222.368C441.564 222.646 441.493 222.949 441.493 223.276V224.021C441.493 224.459 441.569 224.831 441.723 225.138C441.879 225.445 442.096 225.679 442.375 225.841C442.653 226 442.978 226.08 443.35 226.08C443.592 226.08 443.812 226.045 444.011 225.977C444.21 225.906 444.382 225.801 444.527 225.662C444.672 225.523 444.782 225.351 444.859 225.146L446.065 225.364C445.968 225.719 445.795 226.03 445.545 226.297C445.298 226.561 444.987 226.767 444.612 226.915C444.24 227.06 443.815 227.132 443.338 227.132ZM447.56 229.455V220.455H448.804V221.516H448.911C448.984 221.379 449.091 221.222 449.23 221.043C449.369 220.864 449.563 220.707 449.81 220.574C450.057 220.438 450.384 220.369 450.79 220.369C451.318 220.369 451.79 220.503 452.205 220.77C452.619 221.037 452.945 221.422 453.18 221.925C453.419 222.428 453.538 223.033 453.538 223.74C453.538 224.447 453.42 225.054 453.185 225.56C452.949 226.062 452.625 226.45 452.213 226.723C451.801 226.993 451.331 227.128 450.803 227.128C450.405 227.128 450.08 227.061 449.827 226.928C449.577 226.794 449.381 226.638 449.239 226.459C449.097 226.28 448.987 226.121 448.911 225.982H448.834V229.455H447.56ZM448.808 223.727C448.808 224.187 448.875 224.591 449.009 224.938C449.142 225.284 449.335 225.555 449.588 225.751C449.841 225.945 450.151 226.041 450.517 226.041C450.898 226.041 451.216 225.94 451.472 225.739C451.727 225.534 451.92 225.257 452.051 224.908C452.185 224.558 452.251 224.165 452.251 223.727C452.251 223.295 452.186 222.908 452.055 222.564C451.928 222.22 451.734 221.949 451.476 221.75C451.22 221.551 450.901 221.452 450.517 221.452C450.148 221.452 449.835 221.547 449.58 221.737C449.327 221.928 449.135 222.193 449.004 222.534C448.874 222.875 448.808 223.273 448.808 223.727ZM456.24 218.273V227H454.966V218.273H456.24ZM460.711 227.132C460.098 227.132 459.562 226.991 459.105 226.71C458.647 226.429 458.292 226.036 458.039 225.53C457.787 225.024 457.66 224.433 457.66 223.757C457.66 223.078 457.787 222.484 458.039 221.976C458.292 221.467 458.647 221.072 459.105 220.791C459.562 220.51 460.098 220.369 460.711 220.369C461.325 220.369 461.86 220.51 462.318 220.791C462.775 221.072 463.13 221.467 463.383 221.976C463.636 222.484 463.762 223.078 463.762 223.757C463.762 224.433 463.636 225.024 463.383 225.53C463.13 226.036 462.775 226.429 462.318 226.71C461.86 226.991 461.325 227.132 460.711 227.132ZM460.716 226.062C461.113 226.062 461.443 225.957 461.704 225.747C461.966 225.537 462.159 225.257 462.284 224.908C462.412 224.558 462.475 224.173 462.475 223.753C462.475 223.335 462.412 222.952 462.284 222.602C462.159 222.25 461.966 221.967 461.704 221.754C461.443 221.541 461.113 221.435 460.716 221.435C460.315 221.435 459.983 221.541 459.718 221.754C459.457 221.967 459.262 222.25 459.135 222.602C459.01 222.952 458.947 223.335 458.947 223.753C458.947 224.173 459.01 224.558 459.135 224.908C459.262 225.257 459.457 225.537 459.718 225.747C459.983 225.957 460.315 226.062 460.716 226.062ZM465.767 229.455C465.577 229.455 465.404 229.439 465.248 229.408C465.091 229.379 464.975 229.348 464.898 229.314L465.205 228.27C465.438 228.332 465.645 228.359 465.827 228.351C466.009 228.342 466.169 228.274 466.309 228.146C466.451 228.018 466.576 227.81 466.684 227.52L466.841 227.085L464.446 220.455H465.81L467.468 225.534H467.536L469.194 220.455H470.561L467.864 227.874C467.739 228.214 467.58 228.503 467.387 228.739C467.194 228.977 466.963 229.156 466.696 229.276C466.429 229.395 466.12 229.455 465.767 229.455ZM471.759 227V220.455H472.982V221.52H473.063C473.199 221.159 473.422 220.878 473.732 220.676C474.042 220.472 474.412 220.369 474.844 220.369C475.282 220.369 475.648 220.472 475.944 220.676C476.242 220.881 476.462 221.162 476.604 221.52H476.672C476.828 221.17 477.077 220.892 477.418 220.685C477.759 220.474 478.165 220.369 478.637 220.369C479.23 220.369 479.715 220.555 480.09 220.928C480.468 221.3 480.657 221.861 480.657 222.611V227H479.382V222.73C479.382 222.287 479.262 221.966 479.02 221.767C478.779 221.568 478.49 221.469 478.155 221.469C477.74 221.469 477.418 221.597 477.188 221.852C476.958 222.105 476.843 222.43 476.843 222.828V227H475.573V222.649C475.573 222.294 475.462 222.009 475.24 221.793C475.019 221.577 474.73 221.469 474.375 221.469C474.134 221.469 473.911 221.533 473.706 221.661C473.505 221.786 473.341 221.96 473.216 222.185C473.094 222.409 473.033 222.669 473.033 222.964V227H471.759ZM485.185 227.132C484.54 227.132 483.985 226.994 483.519 226.719C483.056 226.44 482.698 226.05 482.445 225.547C482.195 225.041 482.07 224.449 482.07 223.77C482.07 223.099 482.195 222.509 482.445 221.997C482.698 221.486 483.05 221.087 483.502 220.8C483.957 220.513 484.488 220.369 485.096 220.369C485.465 220.369 485.823 220.43 486.17 220.553C486.516 220.675 486.827 220.866 487.103 221.128C487.379 221.389 487.596 221.729 487.755 222.146C487.914 222.561 487.994 223.065 487.994 223.659V224.111H482.79V223.156H486.745C486.745 222.821 486.677 222.524 486.54 222.266C486.404 222.004 486.212 221.798 485.965 221.648C485.721 221.497 485.434 221.422 485.104 221.422C484.746 221.422 484.434 221.51 484.167 221.686C483.903 221.859 483.698 222.087 483.553 222.368C483.411 222.646 483.34 222.949 483.34 223.276V224.021C483.34 224.459 483.417 224.831 483.57 225.138C483.727 225.445 483.944 225.679 484.222 225.841C484.501 226 484.826 226.08 485.198 226.08C485.44 226.08 485.66 226.045 485.859 225.977C486.058 225.906 486.229 225.801 486.374 225.662C486.519 225.523 486.63 225.351 486.707 225.146L487.913 225.364C487.816 225.719 487.643 226.03 487.393 226.297C487.146 226.561 486.835 226.767 486.46 226.915C486.087 227.06 485.663 227.132 485.185 227.132ZM490.681 223.114V227H489.407V220.455H490.63V221.52H490.711C490.862 221.173 491.098 220.895 491.419 220.685C491.743 220.474 492.15 220.369 492.642 220.369C493.088 220.369 493.478 220.463 493.814 220.651C494.149 220.835 494.409 221.111 494.593 221.477C494.778 221.844 494.87 222.297 494.87 222.837V227H493.596V222.99C493.596 222.516 493.473 222.145 493.225 221.878C492.978 221.608 492.639 221.473 492.207 221.473C491.912 221.473 491.649 221.537 491.419 221.665C491.191 221.793 491.011 221.98 490.877 222.227C490.747 222.472 490.681 222.767 490.681 223.114ZM499.635 220.455V221.477H496.059V220.455H499.635ZM497.018 218.886H498.292V225.078C498.292 225.325 498.329 225.511 498.403 225.636C498.477 225.759 498.572 225.842 498.689 225.888C498.808 225.93 498.937 225.952 499.076 225.952C499.179 225.952 499.268 225.945 499.345 225.93C499.422 225.916 499.481 225.905 499.524 225.896L499.754 226.949C499.68 226.977 499.575 227.006 499.439 227.034C499.302 227.065 499.132 227.082 498.927 227.085C498.592 227.091 498.279 227.031 497.99 226.906C497.7 226.781 497.466 226.588 497.287 226.327C497.108 226.065 497.018 225.737 497.018 225.342V218.886Z" fill="#231F20"/>
<rect x="431.5" y="129.5" width="139" height="39" rx="12.3571" fill="white"/>
<rect x="431.5" y="129.5" width="139" height="39" rx="12.3571" stroke="url(#paint16_linear_2517_11434)"/>
<mask id="mask4_2517_11434" style="mask-type:alpha" maskUnits="userSpaceOnUse" x="441" y="137" width="24" height="24">
<rect x="441" y="137" width="24" height="24" fill="#D9D9D9"/>
</mask>
<g mask="url(#mask4_2517_11434)">
<path d="M449.24 154.628H456.76V153.372H449.24V154.628ZM449.24 150.507H456.76V149.25H449.24V150.507ZM447.064 158.5C446.634 158.5 446.266 158.347 445.96 158.04C445.653 157.734 445.5 157.366 445.5 156.936V141.064C445.5 140.634 445.653 140.266 445.96 139.96C446.266 139.653 446.634 139.5 447.064 139.5H455.504L460.5 144.496V156.936C460.5 157.366 460.347 157.734 460.04 158.04C459.734 158.347 459.366 158.5 458.936 158.5H447.064ZM454.876 145.087V140.757H447.064C446.987 140.757 446.917 140.788 446.853 140.852C446.789 140.917 446.757 140.987 446.757 141.064V156.936C446.757 157.013 446.789 157.083 446.853 157.148C446.917 157.212 446.987 157.243 447.064 157.243H458.936C459.013 157.243 459.083 157.212 459.148 157.148C459.212 157.083 459.244 157.013 459.244 156.936V145.087H454.876Z" fill="url(#paint17_linear_2517_11434)"/>
</g>
<path d="M476.784 153H473.959V144.273H476.874C477.729 144.273 478.463 144.447 479.077 144.797C479.69 145.143 480.161 145.642 480.487 146.293C480.817 146.94 480.982 147.717 480.982 148.624C480.982 149.533 480.815 150.314 480.483 150.967C480.153 151.621 479.676 152.124 479.051 152.476C478.426 152.825 477.67 153 476.784 153ZM475.276 151.849H476.712C477.376 151.849 477.929 151.724 478.369 151.474C478.81 151.222 479.139 150.857 479.358 150.379C479.577 149.899 479.686 149.314 479.686 148.624C479.686 147.939 479.577 147.358 479.358 146.881C479.142 146.403 478.82 146.041 478.391 145.794C477.962 145.547 477.429 145.423 476.793 145.423H475.276V151.849ZM485.274 153.132C484.66 153.132 484.125 152.991 483.667 152.71C483.21 152.429 482.855 152.036 482.602 151.53C482.349 151.024 482.223 150.433 482.223 149.757C482.223 149.078 482.349 148.484 482.602 147.976C482.855 147.467 483.21 147.072 483.667 146.791C484.125 146.51 484.66 146.369 485.274 146.369C485.887 146.369 486.423 146.51 486.88 146.791C487.338 147.072 487.693 147.467 487.946 147.976C488.199 148.484 488.325 149.078 488.325 149.757C488.325 150.433 488.199 151.024 487.946 151.53C487.693 152.036 487.338 152.429 486.88 152.71C486.423 152.991 485.887 153.132 485.274 153.132ZM485.278 152.062C485.676 152.062 486.005 151.957 486.267 151.747C486.528 151.537 486.721 151.257 486.846 150.908C486.974 150.558 487.038 150.173 487.038 149.753C487.038 149.335 486.974 148.952 486.846 148.602C486.721 148.25 486.528 147.967 486.267 147.754C486.005 147.541 485.676 147.435 485.278 147.435C484.877 147.435 484.545 147.541 484.281 147.754C484.02 147.967 483.825 148.25 483.697 148.602C483.572 148.952 483.51 149.335 483.51 149.753C483.51 150.173 483.572 150.558 483.697 150.908C483.825 151.257 484.02 151.537 484.281 151.747C484.545 151.957 484.877 152.062 485.278 152.062ZM492.504 153.132C491.871 153.132 491.325 152.989 490.868 152.702C490.413 152.412 490.064 152.013 489.82 151.504C489.575 150.996 489.453 150.413 489.453 149.757C489.453 149.092 489.578 148.506 489.828 147.997C490.078 147.486 490.43 147.087 490.885 146.8C491.339 146.513 491.875 146.369 492.491 146.369C492.989 146.369 493.432 146.462 493.821 146.646C494.21 146.828 494.524 147.084 494.763 147.413C495.004 147.743 495.148 148.128 495.193 148.568H493.953C493.885 148.261 493.729 147.997 493.484 147.776C493.243 147.554 492.919 147.443 492.513 147.443C492.158 147.443 491.847 147.537 491.58 147.724C491.315 147.909 491.109 148.173 490.962 148.517C490.814 148.858 490.74 149.261 490.74 149.727C490.74 150.205 490.813 150.616 490.957 150.963C491.102 151.31 491.307 151.578 491.571 151.768C491.838 151.959 492.152 152.054 492.513 152.054C492.754 152.054 492.973 152.01 493.169 151.922C493.368 151.831 493.534 151.702 493.668 151.534C493.804 151.366 493.899 151.165 493.953 150.929H495.193C495.148 151.352 495.01 151.73 494.78 152.062C494.55 152.395 494.241 152.656 493.855 152.847C493.472 153.037 493.021 153.132 492.504 153.132ZM500.702 150.286V146.455H501.98V153H500.728V151.866H500.659C500.509 152.216 500.267 152.507 499.935 152.74C499.605 152.97 499.195 153.085 498.703 153.085C498.283 153.085 497.911 152.993 497.587 152.808C497.266 152.621 497.013 152.344 496.828 151.977C496.647 151.611 496.556 151.158 496.556 150.618V146.455H497.83V150.464C497.83 150.911 497.953 151.266 498.201 151.53C498.448 151.794 498.769 151.926 499.164 151.926C499.402 151.926 499.64 151.866 499.875 151.747C500.114 151.628 500.311 151.447 500.468 151.206C500.627 150.964 500.705 150.658 500.702 150.286ZM503.692 153V146.455H504.915V147.52H504.996C505.133 147.159 505.356 146.878 505.665 146.676C505.975 146.472 506.346 146.369 506.778 146.369C507.215 146.369 507.582 146.472 507.877 146.676C508.175 146.881 508.396 147.162 508.538 147.52H508.606C508.762 147.17 509.011 146.892 509.352 146.685C509.692 146.474 510.099 146.369 510.57 146.369C511.164 146.369 511.648 146.555 512.023 146.928C512.401 147.3 512.59 147.861 512.59 148.611V153H511.316V148.73C511.316 148.287 511.195 147.966 510.954 147.767C510.712 147.568 510.424 147.469 510.089 147.469C509.674 147.469 509.352 147.597 509.121 147.852C508.891 148.105 508.776 148.43 508.776 148.828V153H507.506V148.649C507.506 148.294 507.396 148.009 507.174 147.793C506.952 147.577 506.664 147.469 506.309 147.469C506.067 147.469 505.844 147.533 505.64 147.661C505.438 147.786 505.275 147.96 505.15 148.185C505.028 148.409 504.967 148.669 504.967 148.964V153H503.692ZM517.119 153.132C516.474 153.132 515.919 152.994 515.453 152.719C514.99 152.44 514.632 152.05 514.379 151.547C514.129 151.041 514.004 150.449 514.004 149.77C514.004 149.099 514.129 148.509 514.379 147.997C514.632 147.486 514.984 147.087 515.436 146.8C515.89 146.513 516.422 146.369 517.029 146.369C517.399 146.369 517.757 146.43 518.103 146.553C518.45 146.675 518.761 146.866 519.037 147.128C519.312 147.389 519.529 147.729 519.689 148.146C519.848 148.561 519.927 149.065 519.927 149.659V150.111H514.724V149.156H518.679C518.679 148.821 518.61 148.524 518.474 148.266C518.338 148.004 518.146 147.798 517.899 147.648C517.654 147.497 517.368 147.422 517.038 147.422C516.68 147.422 516.368 147.51 516.1 147.686C515.836 147.859 515.632 148.087 515.487 148.368C515.345 148.646 515.274 148.949 515.274 149.276V150.021C515.274 150.459 515.35 150.831 515.504 151.138C515.66 151.445 515.877 151.679 516.156 151.841C516.434 152 516.76 152.08 517.132 152.08C517.373 152.08 517.593 152.045 517.792 151.977C517.991 151.906 518.163 151.801 518.308 151.662C518.453 151.523 518.564 151.351 518.64 151.146L519.846 151.364C519.75 151.719 519.576 152.03 519.326 152.297C519.079 152.561 518.768 152.767 518.393 152.915C518.021 153.06 517.596 153.132 517.119 153.132ZM522.615 149.114V153H521.341V146.455H522.564V147.52H522.645C522.795 147.173 523.031 146.895 523.352 146.685C523.676 146.474 524.084 146.369 524.575 146.369C525.021 146.369 525.412 146.463 525.747 146.651C526.082 146.835 526.342 147.111 526.527 147.477C526.712 147.844 526.804 148.297 526.804 148.837V153H525.53V148.99C525.53 148.516 525.406 148.145 525.159 147.878C524.912 147.608 524.572 147.473 524.141 147.473C523.845 147.473 523.582 147.537 523.352 147.665C523.125 147.793 522.945 147.98 522.811 148.227C522.68 148.472 522.615 148.767 522.615 149.114ZM531.568 146.455V147.477H527.993V146.455H531.568ZM528.952 144.886H530.226V151.078C530.226 151.325 530.263 151.511 530.337 151.636C530.411 151.759 530.506 151.842 530.622 151.888C530.741 151.93 530.871 151.952 531.01 151.952C531.112 151.952 531.202 151.945 531.278 151.93C531.355 151.916 531.415 151.905 531.457 151.896L531.688 152.949C531.614 152.977 531.509 153.006 531.372 153.034C531.236 153.065 531.065 153.082 530.861 153.085C530.526 153.091 530.213 153.031 529.923 152.906C529.634 152.781 529.399 152.588 529.22 152.327C529.041 152.065 528.952 151.737 528.952 151.342V144.886ZM534.882 153.145C534.468 153.145 534.093 153.068 533.757 152.915C533.422 152.759 533.157 152.533 532.961 152.237C532.767 151.942 532.671 151.58 532.671 151.151C532.671 150.781 532.742 150.477 532.884 150.239C533.026 150 533.218 149.811 533.459 149.672C533.701 149.533 533.971 149.428 534.269 149.357C534.567 149.286 534.871 149.232 535.181 149.195C535.573 149.149 535.891 149.112 536.135 149.084C536.38 149.053 536.557 149.003 536.668 148.935C536.779 148.866 536.834 148.756 536.834 148.602V148.572C536.834 148.2 536.729 147.912 536.519 147.707C536.311 147.503 536.002 147.401 535.59 147.401C535.161 147.401 534.823 147.496 534.576 147.686C534.331 147.874 534.162 148.082 534.069 148.312L532.871 148.04C533.013 147.642 533.221 147.321 533.493 147.077C533.769 146.83 534.086 146.651 534.444 146.54C534.801 146.426 535.178 146.369 535.573 146.369C535.834 146.369 536.111 146.401 536.404 146.463C536.699 146.523 536.975 146.634 537.23 146.795C537.489 146.957 537.701 147.189 537.865 147.49C538.03 147.788 538.113 148.176 538.113 148.653V153H536.868V152.105H536.817C536.735 152.27 536.611 152.432 536.446 152.591C536.282 152.75 536.07 152.882 535.811 152.987C535.553 153.092 535.243 153.145 534.882 153.145ZM535.159 152.122C535.512 152.122 535.813 152.053 536.063 151.913C536.316 151.774 536.507 151.592 536.638 151.368C536.772 151.141 536.838 150.898 536.838 150.639V149.795C536.793 149.841 536.705 149.884 536.574 149.923C536.446 149.96 536.3 149.993 536.135 150.021C535.971 150.047 535.81 150.071 535.654 150.094C535.498 150.114 535.367 150.131 535.262 150.145C535.015 150.176 534.789 150.229 534.584 150.303C534.382 150.376 534.221 150.483 534.098 150.622C533.979 150.759 533.919 150.94 533.919 151.168C533.919 151.483 534.036 151.722 534.269 151.884C534.502 152.043 534.799 152.122 535.159 152.122ZM542.865 146.455V147.477H539.29V146.455H542.865ZM540.249 144.886H541.523V151.078C541.523 151.325 541.56 151.511 541.634 151.636C541.707 151.759 541.803 151.842 541.919 151.888C542.038 151.93 542.168 151.952 542.307 151.952C542.409 151.952 542.499 151.945 542.575 151.93C542.652 151.916 542.712 151.905 542.754 151.896L542.984 152.949C542.911 152.977 542.805 153.006 542.669 153.034C542.533 153.065 542.362 153.082 542.158 153.085C541.822 153.091 541.51 153.031 541.22 152.906C540.93 152.781 540.696 152.588 540.517 152.327C540.338 152.065 540.249 151.737 540.249 151.342V144.886ZM544.275 153V146.455H545.549V153H544.275ZM544.918 145.445C544.696 145.445 544.506 145.371 544.347 145.223C544.191 145.072 544.113 144.893 544.113 144.686C544.113 144.476 544.191 144.297 544.347 144.149C544.506 143.999 544.696 143.923 544.918 143.923C545.14 143.923 545.328 143.999 545.485 144.149C545.644 144.297 545.723 144.476 545.723 144.686C545.723 144.893 545.644 145.072 545.485 145.223C545.328 145.371 545.14 145.445 544.918 145.445ZM550.02 153.132C549.406 153.132 548.871 152.991 548.413 152.71C547.956 152.429 547.601 152.036 547.348 151.53C547.095 151.024 546.969 150.433 546.969 149.757C546.969 149.078 547.095 148.484 547.348 147.976C547.601 147.467 547.956 147.072 548.413 146.791C548.871 146.51 549.406 146.369 550.02 146.369C550.634 146.369 551.169 146.51 551.626 146.791C552.084 147.072 552.439 147.467 552.692 147.976C552.945 148.484 553.071 149.078 553.071 149.757C553.071 150.433 552.945 151.024 552.692 151.53C552.439 152.036 552.084 152.429 551.626 152.71C551.169 152.991 550.634 153.132 550.02 153.132ZM550.024 152.062C550.422 152.062 550.751 151.957 551.013 151.747C551.274 151.537 551.467 151.257 551.592 150.908C551.72 150.558 551.784 150.173 551.784 149.753C551.784 149.335 551.72 148.952 551.592 148.602C551.467 148.25 551.274 147.967 551.013 147.754C550.751 147.541 550.422 147.435 550.024 147.435C549.624 147.435 549.291 147.541 549.027 147.754C548.766 147.967 548.571 148.25 548.443 148.602C548.318 148.952 548.256 149.335 548.256 149.753C548.256 150.173 548.318 150.558 548.443 150.908C548.571 151.257 548.766 151.537 549.027 151.747C549.291 151.957 549.624 152.062 550.024 152.062ZM555.767 149.114V153H554.493V146.455H555.716V147.52H555.797C555.948 147.173 556.184 146.895 556.505 146.685C556.828 146.474 557.236 146.369 557.728 146.369C558.174 146.369 558.564 146.463 558.9 146.651C559.235 146.835 559.495 147.111 559.679 147.477C559.864 147.844 559.956 148.297 559.956 148.837V153H558.682V148.99C558.682 148.516 558.559 148.145 558.311 147.878C558.064 147.608 557.725 147.473 557.293 147.473C556.998 147.473 556.735 147.537 556.505 147.665C556.277 147.793 556.097 147.98 555.963 148.227C555.833 148.472 555.767 148.767 555.767 149.114Z" fill="#231F20"/>
<rect x="394.5" y="54.5" width="126" height="39" rx="12.3571" fill="white"/>
<rect x="394.5" y="54.5" width="126" height="39" rx="12.3571" stroke="url(#paint18_linear_2517_11434)"/>
<mask id="mask5_2517_11434" style="mask-type:alpha" maskUnits="userSpaceOnUse" x="404" y="62" width="24" height="24">
<rect x="404" y="62" width="24" height="24" fill="#D9D9D9"/>
</mask>
<g mask="url(#mask5_2517_11434)">
<path d="M413.909 83.5L413.481 80.4807C413.163 80.3731 412.826 80.2182 412.469 80.016C412.112 79.8138 411.801 79.5991 411.537 79.3717L408.732 80.618L406.631 76.9295L409.129 75.075C409.099 74.9083 409.078 74.7307 409.065 74.5422C409.052 74.3537 409.045 74.1762 409.045 74.0095C409.045 73.8493 409.052 73.6756 409.065 73.4882C409.078 73.3007 409.099 73.113 409.129 72.925L406.631 71.064L408.732 67.4012L411.527 68.6315C411.811 68.402 412.126 68.1877 412.472 67.9887C412.818 67.7899 413.151 67.639 413.471 67.536L413.909 64.5H418.091L418.519 67.5288C418.865 67.6558 419.2 67.8106 419.527 67.9932C419.853 68.1759 420.156 68.3887 420.435 68.6315L423.274 67.4012L425.369 71.064L422.833 72.927C422.876 73.1133 422.901 73.297 422.91 73.478C422.919 73.6588 422.923 73.8328 422.923 74C422.923 74.1607 422.917 74.3298 422.905 74.5075C422.893 74.685 422.867 74.8744 422.828 75.0758L425.351 76.9295L423.25 80.618L420.435 79.3622C420.144 79.6024 419.836 79.8215 419.51 80.0195C419.183 80.2177 418.853 80.3682 418.519 80.4712L418.091 83.5H413.909ZM414.953 82.2435H417.03L417.389 79.4905C417.913 79.3572 418.399 79.1615 418.846 78.9035C419.293 78.6457 419.722 78.3169 420.132 77.9172L422.701 79.0192L423.696 77.2717L421.432 75.5898C421.504 75.3059 421.558 75.0352 421.594 74.7775C421.63 74.5198 421.648 74.2607 421.648 74C421.648 73.7287 421.631 73.4673 421.599 73.216C421.567 72.9647 421.511 72.7025 421.432 72.4295L423.716 70.7282L422.721 68.9807L420.123 70.0878C419.777 69.7053 419.361 69.3679 418.874 69.0758C418.388 68.7834 417.889 68.5947 417.38 68.5095L417.048 65.7565H414.958L414.627 68.5C414.088 68.6137 413.591 68.8011 413.136 69.0622C412.681 69.3232 412.254 69.6602 411.855 70.073L409.28 68.9807L408.285 70.7282L410.546 72.3955C410.469 72.6507 410.413 72.9116 410.376 73.1783C410.339 73.4449 410.321 73.722 410.321 74.0095C410.321 74.281 410.339 74.5468 410.376 74.807C410.413 75.0673 410.466 75.3282 410.536 75.5898L408.285 77.2717L409.28 79.0192L411.846 77.9217C412.239 78.3226 412.664 78.6525 413.121 78.9115C413.577 79.1705 414.076 79.3667 414.617 79.5L414.953 82.2435ZM415.985 76.8782C416.785 76.8782 417.465 76.5987 418.024 76.0395C418.583 75.4803 418.863 74.8005 418.863 74C418.863 73.1995 418.583 72.5197 418.024 71.9605C417.465 71.4013 416.785 71.1217 415.985 71.1217C415.185 71.1217 414.506 71.4013 413.946 71.9605C413.386 72.5197 413.107 73.1995 413.107 74C413.107 74.8005 413.386 75.4803 413.946 76.0395C414.506 76.5987 415.185 76.8782 415.985 76.8782Z" fill="url(#paint19_linear_2517_11434)"/>
</g>
<path d="M436.959 69.2727H438.557L441.335 76.0568H441.438L444.216 69.2727H445.814V78H444.561V71.6847H444.48L441.906 77.9872H440.866L438.293 71.6804H438.212V78H436.959V69.2727ZM449.531 78.1449C449.116 78.1449 448.741 78.0682 448.406 77.9148C448.071 77.7585 447.805 77.5327 447.609 77.2372C447.416 76.9418 447.319 76.5795 447.319 76.1506C447.319 75.7812 447.39 75.4773 447.532 75.2386C447.674 75 447.866 74.8111 448.108 74.6719C448.349 74.5327 448.619 74.4276 448.917 74.3565C449.216 74.2855 449.52 74.2315 449.829 74.1946C450.221 74.1491 450.539 74.1122 450.784 74.0838C451.028 74.0526 451.206 74.0028 451.316 73.9347C451.427 73.8665 451.483 73.7557 451.483 73.6023V73.5724C451.483 73.2003 451.377 72.9119 451.167 72.7074C450.96 72.5028 450.65 72.4006 450.238 72.4006C449.809 72.4006 449.471 72.4957 449.224 72.6861C448.98 72.8736 448.811 73.0824 448.717 73.3125L447.52 73.0398C447.662 72.642 447.869 72.321 448.142 72.0767C448.417 71.8295 448.734 71.6506 449.092 71.5398C449.45 71.4261 449.826 71.3693 450.221 71.3693C450.483 71.3693 450.76 71.4006 451.052 71.4631C451.348 71.5227 451.623 71.6335 451.879 71.7955C452.137 71.9574 452.349 72.1889 452.514 72.4901C452.679 72.7884 452.761 73.1761 452.761 73.6534V78H451.517V77.1051H451.466C451.383 77.2699 451.26 77.4318 451.095 77.5909C450.93 77.75 450.718 77.8821 450.46 77.9872C450.201 78.0923 449.892 78.1449 449.531 78.1449ZM449.808 77.1222C450.16 77.1222 450.461 77.0526 450.711 76.9134C450.964 76.7741 451.156 76.5923 451.287 76.3679C451.42 76.1406 451.487 75.8977 451.487 75.6392V74.7955C451.441 74.8409 451.353 74.8835 451.223 74.9233C451.095 74.9602 450.949 74.9929 450.784 75.0213C450.619 75.0469 450.458 75.071 450.302 75.0938C450.146 75.1136 450.015 75.1307 449.91 75.1449C449.663 75.1761 449.437 75.2287 449.233 75.3026C449.031 75.3764 448.869 75.483 448.747 75.6222C448.627 75.7585 448.568 75.9403 448.568 76.1676C448.568 76.483 448.684 76.7216 448.917 76.8835C449.15 77.0426 449.447 77.1222 449.808 77.1222ZM454.458 78V71.4545H455.732V78H454.458ZM455.102 70.4446C454.88 70.4446 454.69 70.3707 454.531 70.223C454.374 70.0724 454.296 69.8935 454.296 69.6861C454.296 69.4759 454.374 69.2969 454.531 69.1491C454.69 68.9986 454.88 68.9233 455.102 68.9233C455.323 68.9233 455.512 68.9986 455.668 69.1491C455.827 69.2969 455.907 69.4759 455.907 69.6861C455.907 69.8935 455.827 70.0724 455.668 70.223C455.512 70.3707 455.323 70.4446 455.102 70.4446ZM458.721 74.1136V78H457.446V71.4545H458.669V72.5199H458.75C458.901 72.1733 459.137 71.8949 459.458 71.6847C459.782 71.4744 460.189 71.3693 460.681 71.3693C461.127 71.3693 461.517 71.4631 461.853 71.6506C462.188 71.8352 462.448 72.1108 462.632 72.4773C462.817 72.8437 462.909 73.2969 462.909 73.8366V78H461.635V73.9901C461.635 73.5156 461.512 73.1449 461.265 72.8778C461.017 72.608 460.678 72.473 460.246 72.473C459.951 72.473 459.688 72.5369 459.458 72.6648C459.23 72.7926 459.05 72.9801 458.917 73.2273C458.786 73.4716 458.721 73.767 458.721 74.1136ZM467.674 71.4545V72.4773H464.098V71.4545H467.674ZM465.057 69.8864H466.331V76.0781C466.331 76.3253 466.368 76.5114 466.442 76.6364C466.516 76.7585 466.611 76.8423 466.728 76.8878C466.847 76.9304 466.976 76.9517 467.115 76.9517C467.218 76.9517 467.307 76.9446 467.384 76.9304C467.461 76.9162 467.52 76.9048 467.563 76.8963L467.793 77.9489C467.719 77.9773 467.614 78.0057 467.478 78.0341C467.341 78.0653 467.171 78.0824 466.966 78.0852C466.631 78.0909 466.319 78.0312 466.029 77.9062C465.739 77.7812 465.505 77.5881 465.326 77.3267C465.147 77.0653 465.057 76.7372 465.057 76.3423V69.8864ZM471.834 78.1321C471.189 78.1321 470.634 77.9943 470.168 77.7188C469.705 77.4403 469.347 77.0497 469.094 76.5469C468.844 76.0412 468.719 75.4489 468.719 74.7699C468.719 74.0994 468.844 73.5085 469.094 72.9972C469.347 72.4858 469.699 72.0866 470.151 71.7997C470.605 71.5128 471.136 71.3693 471.744 71.3693C472.114 71.3693 472.472 71.4304 472.818 71.5526C473.165 71.6747 473.476 71.8665 473.751 72.1278C474.027 72.3892 474.244 72.7287 474.403 73.1463C474.563 73.5611 474.642 74.0653 474.642 74.6591V75.1108H469.439V74.1562H473.393C473.393 73.821 473.325 73.5241 473.189 73.2656C473.053 73.0043 472.861 72.7983 472.614 72.6477C472.369 72.4972 472.082 72.4219 471.753 72.4219C471.395 72.4219 471.082 72.5099 470.815 72.6861C470.551 72.8594 470.347 73.0866 470.202 73.3679C470.06 73.6463 469.989 73.9489 469.989 74.2756V75.0213C469.989 75.4588 470.065 75.831 470.219 76.1378C470.375 76.4446 470.592 76.679 470.871 76.8409C471.149 77 471.474 77.0795 471.847 77.0795C472.088 77.0795 472.308 77.0455 472.507 76.9773C472.706 76.9062 472.878 76.8011 473.023 76.6619C473.168 76.5227 473.278 76.3509 473.355 76.1463L474.561 76.3636C474.464 76.7187 474.291 77.0298 474.041 77.2969C473.794 77.5611 473.483 77.767 473.108 77.9148C472.736 78.0597 472.311 78.1321 471.834 78.1321ZM477.33 74.1136V78H476.056V71.4545H477.279V72.5199H477.36C477.51 72.1733 477.746 71.8949 478.067 71.6847C478.391 71.4744 478.799 71.3693 479.29 71.3693C479.736 71.3693 480.127 71.4631 480.462 71.6506C480.797 71.8352 481.057 72.1108 481.242 72.4773C481.426 72.8437 481.519 73.2969 481.519 73.8366V78H480.245V73.9901C480.245 73.5156 480.121 73.1449 479.874 72.8778C479.627 72.608 479.287 72.473 478.855 72.473C478.56 72.473 478.297 72.5369 478.067 72.6648C477.84 72.7926 477.659 72.9801 477.526 73.2273C477.395 73.4716 477.33 73.767 477.33 74.1136ZM485.132 78.1449C484.718 78.1449 484.343 78.0682 484.007 77.9148C483.672 77.7585 483.407 77.5327 483.211 77.2372C483.017 76.9418 482.921 76.5795 482.921 76.1506C482.921 75.7812 482.992 75.4773 483.134 75.2386C483.276 75 483.468 74.8111 483.709 74.6719C483.951 74.5327 484.221 74.4276 484.519 74.3565C484.817 74.2855 485.121 74.2315 485.431 74.1946C485.823 74.1491 486.141 74.1122 486.385 74.0838C486.63 74.0526 486.807 74.0028 486.918 73.9347C487.029 73.8665 487.084 73.7557 487.084 73.6023V73.5724C487.084 73.2003 486.979 72.9119 486.769 72.7074C486.561 72.5028 486.252 72.4006 485.84 72.4006C485.411 72.4006 485.073 72.4957 484.826 72.6861C484.581 72.8736 484.412 73.0824 484.319 73.3125L483.121 73.0398C483.263 72.642 483.471 72.321 483.743 72.0767C484.019 71.8295 484.336 71.6506 484.694 71.5398C485.051 71.4261 485.428 71.3693 485.823 71.3693C486.084 71.3693 486.361 71.4006 486.654 71.4631C486.949 71.5227 487.225 71.6335 487.48 71.7955C487.739 71.9574 487.951 72.1889 488.115 72.4901C488.28 72.7884 488.363 73.1761 488.363 73.6534V78H487.118V77.1051H487.067C486.985 77.2699 486.861 77.4318 486.696 77.5909C486.532 77.75 486.32 77.8821 486.061 77.9872C485.803 78.0923 485.493 78.1449 485.132 78.1449ZM485.409 77.1222C485.762 77.1222 486.063 77.0526 486.313 76.9134C486.566 76.7741 486.757 76.5923 486.888 76.3679C487.022 76.1406 487.088 75.8977 487.088 75.6392V74.7955C487.043 74.8409 486.955 74.8835 486.824 74.9233C486.696 74.9602 486.55 74.9929 486.385 75.0213C486.221 75.0469 486.06 75.071 485.904 75.0938C485.748 75.1136 485.617 75.1307 485.512 75.1449C485.265 75.1761 485.039 75.2287 484.834 75.3026C484.632 75.3764 484.471 75.483 484.348 75.6222C484.229 75.7585 484.169 75.9403 484.169 76.1676C484.169 76.483 484.286 76.7216 484.519 76.8835C484.752 77.0426 485.049 77.1222 485.409 77.1222ZM491.334 74.1136V78H490.06V71.4545H491.283V72.5199H491.364C491.514 72.1733 491.75 71.8949 492.071 71.6847C492.395 71.4744 492.803 71.3693 493.294 71.3693C493.74 71.3693 494.131 71.4631 494.466 71.6506C494.801 71.8352 495.061 72.1108 495.246 72.4773C495.43 72.8437 495.523 73.2969 495.523 73.8366V78H494.249V73.9901C494.249 73.5156 494.125 73.1449 493.878 72.8778C493.631 72.608 493.291 72.473 492.859 72.473C492.564 72.473 492.301 72.5369 492.071 72.6648C491.844 72.7926 491.663 72.9801 491.53 73.2273C491.399 73.4716 491.334 73.767 491.334 74.1136ZM499.989 78.1321C499.355 78.1321 498.81 77.9886 498.352 77.7017C497.898 77.4119 497.548 77.0128 497.304 76.5043C497.06 75.9957 496.938 75.4134 496.938 74.7571C496.938 74.0923 497.062 73.5057 497.312 72.9972C497.562 72.4858 497.915 72.0866 498.369 71.7997C498.824 71.5128 499.359 71.3693 499.976 71.3693C500.473 71.3693 500.916 71.4616 501.305 71.6463C501.695 71.8281 502.009 72.0838 502.247 72.4134C502.489 72.7429 502.632 73.1278 502.678 73.5682H501.438C501.369 73.2614 501.213 72.9972 500.969 72.7756C500.727 72.554 500.403 72.4432 499.997 72.4432C499.642 72.4432 499.331 72.5369 499.064 72.7244C498.8 72.9091 498.594 73.1733 498.446 73.517C498.298 73.858 498.224 74.2614 498.224 74.7273C498.224 75.2045 498.297 75.6165 498.442 75.9631C498.587 76.3097 498.791 76.5781 499.055 76.7685C499.322 76.9588 499.636 77.054 499.997 77.054C500.239 77.054 500.457 77.0099 500.653 76.9219C500.852 76.831 501.018 76.7017 501.152 76.5341C501.288 76.3665 501.384 76.1648 501.438 75.929H502.678C502.632 76.3523 502.494 76.7301 502.264 77.0625C502.034 77.3949 501.726 77.6562 501.339 77.8466C500.956 78.0369 500.506 78.1321 499.989 78.1321ZM506.861 78.1321C506.216 78.1321 505.661 77.9943 505.195 77.7188C504.732 77.4403 504.374 77.0497 504.121 76.5469C503.871 76.0412 503.746 75.4489 503.746 74.7699C503.746 74.0994 503.871 73.5085 504.121 72.9972C504.374 72.4858 504.726 72.0866 505.178 71.7997C505.632 71.5128 506.164 71.3693 506.772 71.3693C507.141 71.3693 507.499 71.4304 507.846 71.5526C508.192 71.6747 508.503 71.8665 508.779 72.1278C509.054 72.3892 509.272 72.7287 509.431 73.1463C509.59 73.5611 509.669 74.0653 509.669 74.6591V75.1108H504.466V74.1562H508.421C508.421 73.821 508.353 73.5241 508.216 73.2656C508.08 73.0043 507.888 72.7983 507.641 72.6477C507.397 72.4972 507.11 72.4219 506.78 72.4219C506.422 72.4219 506.11 72.5099 505.843 72.6861C505.578 72.8594 505.374 73.0866 505.229 73.3679C505.087 73.6463 505.016 73.9489 505.016 74.2756V75.0213C505.016 75.4588 505.093 75.831 505.246 76.1378C505.402 76.4446 505.62 76.679 505.898 76.8409C506.176 77 506.502 77.0795 506.874 77.0795C507.115 77.0795 507.336 77.0455 507.534 76.9773C507.733 76.9062 507.905 76.8011 508.05 76.6619C508.195 76.5227 508.306 76.3509 508.382 76.1463L509.588 76.3636C509.492 76.7187 509.319 77.0298 509.069 77.2969C508.821 77.5611 508.51 77.767 508.135 77.9148C507.763 78.0597 507.338 78.1321 506.861 78.1321Z" fill="#231F20"/>
</g>
<defs>
<filter id="filter0_d_2517_11434" x="276" y="121" width="64" height="58" filterUnits="userSpaceOnUse" color-interpolation-filters="sRGB">
<feFlood flood-opacity="0" result="BackgroundImageFix"/>
<feColorMatrix in="SourceAlpha" type="matrix" values="0 0 0 0 0 0 0 0 0 0 0 0 0 0 0 0 0 0 127 0" result="hardAlpha"/>
<feOffset dy="2"/>
<feComposite in2="hardAlpha" operator="out"/>
<feColorMatrix type="matrix" values="0 0 0 0 0.384314 0 0 0 0 0.211765 0 0 0 0 0.121569 0 0 0 1 0"/>
<feBlend mode="normal" in2="BackgroundImageFix" result="effect1_dropShadow_2517_11434"/>
<feBlend mode="normal" in="SourceGraphic" in2="effect1_dropShadow_2517_11434" result="shape"/>
</filter>
<linearGradient id="paint0_linear_2517_11434" x1="329.482" y1="148" x2="166.019" y2="150.074" gradientUnits="userSpaceOnUse">
<stop stop-color="#FDE2D3"/>
<stop offset="1" stop-color="#F26A1B"/>
</linearGradient>
<linearGradient id="paint1_linear_2517_11434" x1="331.518" y1="148" x2="494.981" y2="150.074" gradientUnits="userSpaceOnUse">
<stop stop-color="#FDE2D3"/>
<stop offset="1" stop-color="#F26A1B"/>
</linearGradient>
<linearGradient id="paint2_linear_2517_11434" x1="262.25" y1="75" x2="262.25" y2="150" gradientUnits="userSpaceOnUse">
<stop stop-color="#F26A1B"/>
<stop offset="1" stop-color="#FDE2D3"/>
</linearGradient>
<linearGradient id="paint3_linear_2517_11434" x1="262.25" y1="223" x2="262.25" y2="148" gradientUnits="userSpaceOnUse">
<stop stop-color="#F26A1B"/>
<stop offset="1" stop-color="#FDE2D3"/>
</linearGradient>
<linearGradient id="paint4_linear_2517_11434" x1="358.25" y1="74" x2="358.25" y2="149" gradientUnits="userSpaceOnUse">
<stop stop-color="#F26A1B"/>
<stop offset="1" stop-color="#FDE2D3"/>
</linearGradient>
<linearGradient id="paint5_linear_2517_11434" x1="358.25" y1="224" x2="358.25" y2="149" gradientUnits="userSpaceOnUse">
<stop stop-color="#F26A1B"/>
<stop offset="1" stop-color="#FDE2D3"/>
</linearGradient>
<linearGradient id="paint6_linear_2517_11434" x1="308" y1="-28" x2="308" y2="322" gradientUnits="userSpaceOnUse">
<stop stop-color="#FCD6C1"/>
<stop offset="1" stop-color="white"/>
</linearGradient>
<linearGradient id="paint7_linear_2517_11434" x1="308" y1="143.5" x2="308" y2="117.5" gradientUnits="userSpaceOnUse">
<stop stop-color="#231F20"/>
<stop offset="1" stop-color="#F26A1B"/>
</linearGradient>
<linearGradient id="paint8_linear_2517_11434" x1="152" y1="54" x2="152" y2="94" gradientUnits="userSpaceOnUse">
<stop stop-color="#F69A65"/>
<stop offset="1" stop-color="#8C3E10"/>
</linearGradient>
<linearGradient id="paint9_linear_2517_11434" x1="116.005" y1="65.7885" x2="116.005" y2="82.75" gradientUnits="userSpaceOnUse">
<stop stop-color="#4A4340"/>
<stop offset="1" stop-color="#D05E1C"/>
</linearGradient>
<linearGradient id="paint10_linear_2517_11434" x1="109.5" y1="129" x2="109.5" y2="169" gradientUnits="userSpaceOnUse">
<stop stop-color="#F69A65"/>
<stop offset="1" stop-color="#8C3E10"/>
</linearGradient>
<linearGradient id="paint11_linear_2517_11434" x1="67" y1="139.5" x2="67" y2="157.942" gradientUnits="userSpaceOnUse">
<stop stop-color="#4A4340"/>
<stop offset="1" stop-color="#D05E1C"/>
</linearGradient>
<linearGradient id="paint12_linear_2517_11434" x1="165" y1="203" x2="165" y2="243" gradientUnits="userSpaceOnUse">
<stop stop-color="#F69A65"/>
<stop offset="1" stop-color="#8C3E10"/>
</linearGradient>
<linearGradient id="paint13_linear_2517_11434" x1="126" y1="214" x2="126" y2="232" gradientUnits="userSpaceOnUse">
<stop stop-color="#4A4340"/>
<stop offset="1" stop-color="#D05E1C"/>
</linearGradient>
<linearGradient id="paint14_linear_2517_11434" x1="450" y1="203" x2="450" y2="243" gradientUnits="userSpaceOnUse">
<stop stop-color="#F69A65"/>
<stop offset="1" stop-color="#8C3E10"/>
</linearGradient>
<linearGradient id="paint15_linear_2517_11434" x1="410.974" y1="213.922" x2="410.974" y2="232.373" gradientUnits="userSpaceOnUse">
<stop stop-color="#4A4340"/>
<stop offset="1" stop-color="#D05E1C"/>
</linearGradient>
<linearGradient id="paint16_linear_2517_11434" x1="501" y1="129" x2="501" y2="169" gradientUnits="userSpaceOnUse">
<stop stop-color="#F69A65"/>
<stop offset="1" stop-color="#8C3E10"/>
</linearGradient>
<linearGradient id="paint17_linear_2517_11434" x1="453" y1="139.5" x2="453" y2="158.5" gradientUnits="userSpaceOnUse">
<stop stop-color="#4A4340"/>
<stop offset="1" stop-color="#D05E1C"/>
</linearGradient>
<linearGradient id="paint18_linear_2517_11434" x1="457.5" y1="54" x2="457.5" y2="94" gradientUnits="userSpaceOnUse">
<stop stop-color="#F69A65"/>
<stop offset="1" stop-color="#8C3E10"/>
</linearGradient>
<linearGradient id="paint19_linear_2517_11434" x1="416" y1="64.5" x2="416" y2="83.5" gradientUnits="userSpaceOnUse">
<stop stop-color="#4A4340"/>
<stop offset="1" stop-color="#D05E1C"/>
</linearGradient>
<clipPath id="clip0_2517_11434">
<rect width="616" height="267" fill="white"/>
</clipPath>
</defs>
</svg>
