<svg width="475" height="190" viewBox="0 0 475 190" fill="none" xmlns="http://www.w3.org/2000/svg">
<path d="M103 22H129.5C144.412 22 156.5 34.0883 156.5 49V70C156.5 84.9117 168.588 97 183.5 97H207.5" stroke="url(#paint0_linear_2517_11627)"/>
<path d="M269.5 97H290.5C305.412 97 317.5 84.9117 317.5 70V49C317.5 34.0883 329.588 22 344.5 22H368" stroke="url(#paint1_linear_2517_11627)"/>
<path d="M269.5 97H432" stroke="url(#paint2_linear_2517_11627)"/>
<path d="M269.5 97H290.5C305.412 97 317.5 109.088 317.5 124V141C317.5 155.912 329.588 168 344.5 168H368" stroke="url(#paint3_linear_2517_11627)"/>
<path d="M103 167H129.5C144.412 167 156.5 154.912 156.5 140V124C156.5 109.088 168.588 97 183.5 97H207.5" stroke="url(#paint4_linear_2517_11627)"/>
<path d="M42 97H207.5" stroke="url(#paint5_linear_2517_11627)"/>
<g filter="url(#filter0_d_2517_11627)">
<rect x="205" y="69" width="64" height="56" rx="20" fill="url(#paint6_linear_2517_11627)"/>
<path d="M252.486 102.728C248.629 101.175 244.873 99.3936 241.196 97.4619C240.914 97.3113 240.633 97.1592 240.352 97.0043C244.277 94.8551 248.338 92.959 252.486 91.2718C254.327 90.581 254.987 88.1562 253.728 86.6324C252.7 85.3461 250.826 85.1357 249.542 86.1648C246.27 88.7332 242.851 91.0998 239.342 93.3215C239.071 93.492 238.799 93.6583 238.525 93.8246C238.63 89.3459 239.02 84.877 239.633 80.4366C239.957 78.495 238.188 76.7098 236.241 77.0395C234.671 77.2783 233.573 78.704 233.723 80.2675C234.834 85.2054 235.473 90.2982 235.575 95.5047C235.579 95.7179 235.584 95.9311 235.586 96.1443C235.589 96.3874 235.591 96.629 235.592 96.8721C235.592 96.9147 235.592 96.9573 235.592 97C235.592 97.0398 235.592 97.0782 235.592 97.118C235.592 97.1208 235.592 97.1236 235.592 97.1265C235.592 97.3866 235.589 97.6467 235.586 97.9068C235.586 97.9438 235.586 97.9822 235.585 98.0191C235.585 98.1144 235.582 98.2082 235.581 98.3034C235.49 103.577 234.85 108.733 233.724 113.732C233.576 115.296 234.672 116.722 236.242 116.96C238.19 117.29 239.958 115.506 239.635 113.563C239.022 109.126 238.631 104.66 238.526 100.184C242.345 102.512 246.013 105.085 249.543 107.835C251.06 109.087 253.488 108.445 254.176 106.591C254.775 105.058 254.02 103.327 252.487 102.727L252.486 102.728Z" fill="white"/>
<path d="M227.121 99.998C226.608 100.238 226.094 100.474 225.578 100.706C224.025 101.404 222.47 102.097 220.888 102.727C219.054 103.421 218.396 105.836 219.648 107.358C220.672 108.647 222.546 108.86 223.833 107.834C224.279 107.479 224.73 107.135 225.184 106.791C225.64 106.451 226.093 106.11 226.551 105.777C227.466 105.108 228.383 104.441 229.311 103.793C231.463 102.207 229.591 98.9206 227.121 99.9951V99.998Z" fill="white"/>
<path d="M229.311 90.2038C228.847 89.8797 228.385 89.5514 227.927 89.2202C226.547 88.2224 225.17 87.2217 223.833 86.1642C222.317 84.9191 219.898 85.5587 219.208 87.4051C218.605 88.9373 219.357 90.6686 220.888 91.2727C221.417 91.4816 221.942 91.7019 222.465 91.9223C222.986 92.1468 223.508 92.37 224.025 92.6017C225.061 93.0594 226.096 93.5213 227.121 94.0032C229.568 95.0763 231.476 91.81 229.311 90.2052V90.2038Z" fill="white"/>
</g>
<rect x="368" y="1" width="42" height="42" rx="13.8571" fill="white"/>
<rect x="368" y="1" width="42" height="42" rx="13.8571" stroke="url(#paint7_linear_2517_11627)" stroke-width="2"/>
<mask id="mask0_2517_11627" style="mask-type:alpha" maskUnits="userSpaceOnUse" x="377" y="10" width="25" height="24">
<rect x="377.5" y="10" width="24" height="24" fill="#D9D9D9"/>
</mask>
<g mask="url(#mask0_2517_11627)">
<path d="M389.501 31.5C388.758 31.5 388.127 31.2401 387.607 30.7203C387.087 30.2006 386.827 29.5695 386.827 28.827C386.827 28.7243 386.834 28.6182 386.849 28.5087C386.864 28.3991 386.886 28.2929 386.916 28.1902L384.542 26.852C384.301 27.0917 384.021 27.2772 383.702 27.4085C383.383 27.54 383.04 27.6058 382.673 27.6058C381.931 27.6058 381.299 27.3451 380.78 26.8238C380.26 26.3024 380 25.6694 380 24.9248C380 24.1801 380.26 23.5465 380.78 23.024C381.299 22.5017 381.931 22.2405 382.673 22.2405C383.059 22.2405 383.421 22.3171 383.759 22.4703C384.097 22.6234 384.391 22.8366 384.642 23.1098L387.867 21.4848C387.792 21.0949 387.803 20.7102 387.901 20.3307C387.999 19.9512 388.177 19.6096 388.436 19.3057L387.385 17.727C387.262 17.7732 387.131 17.8077 386.994 17.8307C386.856 17.8537 386.714 17.8652 386.567 17.8652C385.825 17.8652 385.194 17.6047 384.674 17.0835C384.154 16.5622 383.894 15.9292 383.894 15.1845C383.894 14.4397 384.154 13.8061 384.674 13.2837C385.194 12.7612 385.826 12.5 386.569 12.5C387.311 12.5 387.946 12.7608 388.471 13.2825C388.997 13.8042 389.26 14.4376 389.26 15.1827C389.26 15.5096 389.202 15.8208 389.088 16.1163C388.973 16.4119 388.817 16.6751 388.621 16.9057L389.689 18.4848C389.822 18.4386 389.952 18.4039 390.079 18.3807C390.206 18.3577 390.342 18.3462 390.487 18.3462C390.768 18.3462 391.032 18.3843 391.28 18.4605C391.528 18.5368 391.759 18.6481 391.973 18.7943L393.873 17.2422C393.8 17.0756 393.742 16.9048 393.699 16.7298C393.656 16.5547 393.635 16.3724 393.635 16.1827C393.635 15.4376 393.895 14.8042 394.415 14.2825C394.934 13.7608 395.566 13.5 396.309 13.5C397.052 13.5 397.686 13.7607 398.212 14.282C398.737 14.8033 399 15.4363 399 16.181C399 16.9257 398.737 17.5593 398.212 18.0818C397.686 18.6041 397.051 18.8652 396.308 18.8652C396.024 18.8652 395.761 18.823 395.517 18.7385C395.274 18.6538 395.045 18.5384 394.831 18.3923L392.94 19.9595C393.02 20.1293 393.079 20.3033 393.119 20.4815C393.159 20.6597 393.179 20.8421 393.179 21.0288C393.179 21.7741 392.916 22.4075 392.39 22.929C391.865 23.4507 391.23 23.7115 390.487 23.7115C390.099 23.7115 389.738 23.6333 389.402 23.477C389.066 23.3205 388.772 23.1058 388.521 22.8328L385.312 24.4423C385.364 24.6243 385.384 24.8074 385.371 24.9918C385.359 25.1759 385.327 25.3601 385.277 25.5443L387.656 26.898C387.897 26.6583 388.173 26.4728 388.484 26.3413C388.795 26.2099 389.133 26.1443 389.5 26.1443C390.243 26.1443 390.878 26.4042 391.404 26.9242C391.929 27.4443 392.192 28.0757 392.192 28.8185C392.192 29.5613 391.929 30.1939 391.404 30.7163C390.878 31.2388 390.244 31.5 389.501 31.5ZM382.678 26.1058C383.009 26.1058 383.29 25.9925 383.52 25.766C383.75 25.5393 383.865 25.2585 383.865 24.9235C383.865 24.5887 383.751 24.3062 383.522 24.076C383.294 23.8458 383.011 23.7308 382.673 23.7308C382.345 23.7308 382.067 23.845 381.84 24.0735C381.613 24.302 381.5 24.5852 381.5 24.923C381.5 25.2513 381.613 25.5305 381.84 25.7605C382.067 25.9907 382.346 26.1058 382.678 26.1058ZM386.572 16.3655C386.904 16.3655 387.184 16.2522 387.414 16.0255C387.645 15.799 387.76 15.5183 387.76 15.1833C387.76 14.8483 387.645 14.5673 387.417 14.3405C387.188 14.1135 386.905 14 386.567 14C386.239 14 385.962 14.1151 385.735 14.3453C385.508 14.5754 385.394 14.8546 385.394 15.1827C385.394 15.5109 385.508 15.7901 385.735 16.0203C385.962 16.2504 386.241 16.3655 386.572 16.3655ZM389.505 30.0095C389.836 30.0095 390.115 29.8962 390.342 29.6698C390.569 29.4431 390.683 29.1623 390.683 28.8275C390.683 28.4925 390.569 28.2115 390.343 27.9845C390.116 27.7577 389.835 27.6443 389.5 27.6443C389.172 27.6443 388.893 27.7593 388.663 27.9895C388.432 28.2195 388.317 28.4987 388.317 28.827C388.317 29.1552 388.432 29.4343 388.663 29.6645C388.893 29.8945 389.173 30.0095 389.505 30.0095ZM390.476 22.2115C390.807 22.2115 391.086 22.0982 391.313 21.8717C391.54 21.6451 391.654 21.3643 391.654 21.0293C391.654 20.6944 391.54 20.4135 391.314 20.1865C391.087 19.9597 390.806 19.8462 390.471 19.8462C390.143 19.8462 389.864 19.9613 389.634 20.1913C389.404 20.4214 389.289 20.7006 389.289 21.0288C389.289 21.3571 389.404 21.6363 389.634 21.8663C389.864 22.0964 390.144 22.2115 390.476 22.2115ZM396.312 17.3655C396.644 17.3655 396.925 17.2522 397.155 17.0255C397.385 16.799 397.5 16.5183 397.5 16.1833C397.5 15.8483 397.386 15.5673 397.157 15.3405C396.929 15.1135 396.646 15 396.308 15C395.979 15 395.702 15.1133 395.475 15.34C395.248 15.5667 395.135 15.8476 395.135 16.1827C395.135 16.5109 395.248 16.7901 395.475 17.0202C395.702 17.2504 395.981 17.3655 396.312 17.3655Z" fill="url(#paint8_linear_2517_11627)"/>
</g>
<rect x="62" y="146" width="42" height="42" rx="13.8571" fill="white"/>
<rect x="62" y="146" width="42" height="42" rx="13.8571" stroke="url(#paint9_linear_2517_11627)" stroke-width="2"/>
<mask id="mask1_2517_11627" style="mask-type:alpha" maskUnits="userSpaceOnUse" x="71" y="155" width="24" height="24">
<rect x="71" y="155" width="24" height="24" fill="#D9D9D9"/>
</mask>
<g mask="url(#mask1_2517_11627)">
<path d="M88 170.817C87.2628 170.817 86.6362 170.559 86.1202 170.043C85.6042 169.527 85.3462 168.901 85.3462 168.164C85.3462 167.426 85.6042 166.8 86.1202 166.284C86.6362 165.768 87.2628 165.51 88 165.51C88.7372 165.51 89.3638 165.768 89.8798 166.284C90.3958 166.8 90.6538 167.426 90.6538 168.164C90.6538 168.901 90.3958 169.527 89.8798 170.043C89.3638 170.559 88.7372 170.817 88 170.817ZM88 169.317C88.3218 169.317 88.5946 169.205 88.8182 168.982C89.0419 168.758 89.1538 168.485 89.1538 168.164C89.1538 167.842 89.0419 167.569 88.8182 167.345C88.5946 167.121 88.3218 167.01 88 167.01C87.6782 167.01 87.4054 167.121 87.1818 167.345C86.9581 167.569 86.8462 167.842 86.8462 168.164C86.8462 168.485 86.9581 168.758 87.1818 168.982C87.4054 169.205 87.6782 169.317 88 169.317ZM82.3463 177.269V174.715C82.3463 174.426 82.4153 174.154 82.5533 173.899C82.6912 173.644 82.8844 173.44 83.1328 173.288C83.6309 172.991 84.1563 172.745 84.709 172.549C85.2617 172.354 85.826 172.209 86.402 172.116L88 174.125L89.5885 172.116C90.1677 172.209 90.7312 172.354 91.279 172.549C91.8267 172.745 92.351 172.991 92.852 173.288C93.1007 173.44 93.2948 173.642 93.4345 173.896C93.5743 174.15 93.6474 174.42 93.6538 174.706V177.269H82.3463ZM83.8212 175.769H87.3865L85.8348 173.792C85.4814 173.882 85.1379 173.998 84.8042 174.141C84.4706 174.284 84.1429 174.444 83.8212 174.619V175.769ZM88.6135 175.769H92.1538V174.619C91.8423 174.433 91.5197 174.273 91.186 174.138C90.8525 174.004 90.5091 173.892 90.1557 173.802L88.6135 175.769ZM76.3123 175.5C75.8106 175.5 75.3831 175.323 75.0298 174.969C74.6766 174.615 74.5 174.189 74.5 173.692V160.308C74.5 159.811 74.677 159.385 75.031 159.031C75.385 158.677 75.8106 158.5 76.3077 158.5H89.6923C90.1894 158.5 90.615 158.677 90.969 159.031C91.323 159.385 91.5 159.811 91.5 160.308V164.654C91.291 164.417 91.0683 164.194 90.8318 163.988C90.5953 163.781 90.318 163.637 90 163.556V160.308C90 160.218 89.9712 160.144 89.9135 160.087C89.8558 160.029 89.7821 160 89.6923 160H76.3077C76.2179 160 76.1442 160.029 76.0865 160.087C76.0288 160.144 76 160.218 76 160.308V173.692C76 173.782 76.0288 173.856 76.0865 173.913C76.1442 173.971 76.2179 174 76.3077 174H80.0538C80.0231 174.119 80 174.238 79.9845 174.358C79.9692 174.477 79.9615 174.596 79.9615 174.715V175.5H76.3123ZM78.25 163.865H85.4615C85.7987 163.628 86.1631 163.452 86.5548 163.337C86.9464 163.221 87.3448 163.157 87.75 163.144V162.365H78.25V163.865ZM78.25 167.75H83.0095C83.0223 167.483 83.0583 167.227 83.1173 166.98C83.1763 166.733 83.2532 166.49 83.348 166.25H78.25V167.75ZM78.25 171.635H81.373C81.55 171.491 81.7362 171.359 81.9317 171.24C82.1272 171.12 82.3269 171.013 82.5308 170.919V170.135H78.25V171.635ZM76 174V160V163.541V163.125V174Z" fill="url(#paint10_linear_2517_11627)"/>
</g>
<rect x="1" y="76" width="42" height="42" rx="13.8571" fill="white"/>
<rect x="1" y="76" width="42" height="42" rx="13.8571" stroke="url(#paint11_linear_2517_11627)" stroke-width="2"/>
<mask id="mask2_2517_11627" style="mask-type:alpha" maskUnits="userSpaceOnUse" x="10" y="85" width="24" height="24">
<rect x="10" y="85" width="24" height="24" fill="#D9D9D9"/>
</mask>
<g mask="url(#mask2_2517_11627)">
<path d="M19.1923 93.6923V92.1923H27.8077V93.6923H19.1923ZM19.1923 96.577V95.077H27.8077V96.577H19.1923ZM21.923 106.5H16C15.3013 106.5 14.71 106.258 14.226 105.774C13.742 105.29 13.5 104.699 13.5 104V101.116H16.5V87.5H30.5V95.9578C30.2435 95.9436 29.9893 95.9593 29.7375 96.0048C29.4855 96.0503 29.2397 96.1256 29 96.2308V89H18V101.116H23.673L22.173 102.615H15V104C15 104.283 15.0958 104.521 15.2875 104.712C15.4792 104.904 15.7167 105 16 105H21.923V106.5ZM24.1155 106.5V103.858L29.5443 98.4537C29.6686 98.3294 29.8032 98.2419 29.948 98.1912C30.0928 98.1407 30.2377 98.1155 30.3827 98.1155C30.5378 98.1155 30.6893 98.1449 30.8375 98.2037C30.9855 98.2627 31.1185 98.3512 31.2365 98.4692L32.1615 99.4038C32.2692 99.5283 32.3525 99.6629 32.4115 99.8077C32.4705 99.9526 32.5 100.097 32.5 100.242C32.5 100.387 32.4731 100.535 32.4193 100.685C32.3654 100.835 32.2795 100.972 32.1615 101.096L26.7578 106.5H24.1155ZM25.3077 105.308H26.2578L29.5038 102.046L29.0443 101.571L28.5788 101.102L25.3077 104.358V105.308ZM29.0443 101.571L28.5788 101.102L29.5038 102.046L29.0443 101.571Z" fill="url(#paint12_linear_2517_11627)"/>
</g>
<rect x="432" y="76" width="42" height="42" rx="13.8571" fill="white"/>
<rect x="432" y="76" width="42" height="42" rx="13.8571" stroke="url(#paint13_linear_2517_11627)" stroke-width="2"/>
<mask id="mask3_2517_11627" style="mask-type:alpha" maskUnits="userSpaceOnUse" x="441" y="85" width="24" height="24">
<rect x="441" y="85" width="24" height="24" fill="#D9D9D9"/>
</mask>
<g mask="url(#mask3_2517_11627)">
<path d="M443.5 92V90.3077C443.5 89.8026 443.675 89.375 444.025 89.025C444.375 88.675 444.803 88.5 445.308 88.5H460.692C461.197 88.5 461.625 88.675 461.975 89.025C462.325 89.375 462.5 89.8026 462.5 90.3077V92H461V90.3077C461 90.2179 460.971 90.1442 460.913 90.0865C460.856 90.0288 460.782 90 460.692 90H445.308C445.218 90 445.144 90.0288 445.087 90.0865C445.029 90.1442 445 90.2179 445 90.3077V92H443.5ZM449.5 105.5V103.5H445.308C444.803 103.5 444.375 103.325 444.025 102.975C443.675 102.625 443.5 102.197 443.5 101.692V100H445V101.692C445 101.782 445.029 101.856 445.087 101.914C445.144 101.971 445.218 102 445.308 102H460.692C460.782 102 460.856 101.971 460.913 101.914C460.971 101.856 461 101.782 461 101.692V100H462.5V101.692C462.5 102.197 462.325 102.625 461.975 102.975C461.625 103.325 461.197 103.5 460.692 103.5H456.5V105.5H449.5ZM445.608 96L448.208 93.4L447.154 92.3462L443.5 96L447.154 99.6538L448.208 98.6L445.608 96ZM460.392 96L457.792 98.6L458.846 99.6538L462.5 96L458.846 92.3462L457.792 93.4L460.392 96Z" fill="url(#paint14_linear_2517_11627)"/>
</g>
<rect x="62" y="1" width="42" height="42" rx="13.8571" fill="white"/>
<rect x="62" y="1" width="42" height="42" rx="13.8571" stroke="url(#paint15_linear_2517_11627)" stroke-width="2"/>
<mask id="mask4_2517_11627" style="mask-type:alpha" maskUnits="userSpaceOnUse" x="71" y="10" width="24" height="24">
<rect x="71" y="10" width="24" height="24" fill="#D9D9D9"/>
</mask>
<g mask="url(#mask4_2517_11627)">
<path d="M78.9995 27.6537L73.3457 21.9999L78.9995 16.3462L80.0687 17.4154L75.4687 22.0154L80.0532 26.5999L78.9995 27.6537ZM86.9995 27.6537L85.9302 26.5844L90.5302 21.9844L85.9457 17.3999L86.9995 16.3462L92.6532 21.9999L86.9995 27.6537Z" fill="url(#paint16_linear_2517_11627)"/>
</g>
<rect x="368" y="147" width="42" height="42" rx="13.8571" fill="white"/>
<rect x="368" y="147" width="42" height="42" rx="13.8571" stroke="url(#paint17_linear_2517_11627)" stroke-width="2"/>
<mask id="mask5_2517_11627" style="mask-type:alpha" maskUnits="userSpaceOnUse" x="377" y="156" width="24" height="24">
<rect x="377" y="156" width="24" height="24" fill="#D9D9D9"/>
</mask>
<g mask="url(#mask5_2517_11627)">
<path d="M381.308 175.5C380.803 175.5 380.375 175.325 380.025 174.975C379.675 174.625 379.5 174.197 379.5 173.692V162.308C379.5 161.803 379.675 161.375 380.025 161.025C380.375 160.675 380.803 160.5 381.308 160.5H396.692C397.197 160.5 397.625 160.675 397.975 161.025C398.325 161.375 398.5 161.803 398.5 162.308V173.692C398.5 174.197 398.325 174.625 397.975 174.975C397.625 175.325 397.197 175.5 396.692 175.5H381.308ZM381.308 174H396.692C396.769 174 396.84 173.968 396.904 173.904C396.968 173.84 397 173.769 397 173.692V164H381V173.692C381 173.769 381.032 173.84 381.096 173.904C381.16 173.968 381.231 174 381.308 174ZM384.5 172.644L383.456 171.6L386.031 169L383.431 166.4L384.5 165.356L388.144 169L384.5 172.644ZM389.25 172.75V171.25H394.75V172.75H389.25Z" fill="url(#paint18_linear_2517_11627)"/>
</g>
<defs>
<filter id="filter0_d_2517_11627" x="205" y="69" width="64" height="60" filterUnits="userSpaceOnUse" color-interpolation-filters="sRGB">
<feFlood flood-opacity="0" result="BackgroundImageFix"/>
<feColorMatrix in="SourceAlpha" type="matrix" values="0 0 0 0 0 0 0 0 0 0 0 0 0 0 0 0 0 0 127 0" result="hardAlpha"/>
<feOffset dy="4"/>
<feComposite in2="hardAlpha" operator="out"/>
<feColorMatrix type="matrix" values="0 0 0 0 0.384314 0 0 0 0 0.211765 0 0 0 0 0.121569 0 0 0 1 0"/>
<feBlend mode="normal" in2="BackgroundImageFix" result="effect1_dropShadow_2517_11627"/>
<feBlend mode="normal" in="SourceGraphic" in2="effect1_dropShadow_2517_11627" result="shape"/>
</filter>
<linearGradient id="paint0_linear_2517_11627" x1="155.25" y1="22" x2="155.25" y2="97" gradientUnits="userSpaceOnUse">
<stop stop-color="#F26A1B"/>
<stop offset="1" stop-color="#FDE2D3"/>
</linearGradient>
<linearGradient id="paint1_linear_2517_11627" x1="318.75" y1="22" x2="318.75" y2="97" gradientUnits="userSpaceOnUse">
<stop stop-color="#F26A1B"/>
<stop offset="1" stop-color="#FDE2D3"/>
</linearGradient>
<linearGradient id="paint2_linear_2517_11627" x1="431" y1="95.9997" x2="270.5" y2="97.9997" gradientUnits="userSpaceOnUse">
<stop stop-color="#F26A1B"/>
<stop offset="1" stop-color="#FDE2D3"/>
</linearGradient>
<linearGradient id="paint3_linear_2517_11627" x1="318.75" y1="97" x2="318.75" y2="168" gradientUnits="userSpaceOnUse">
<stop stop-color="#FDE2D3"/>
<stop offset="1" stop-color="#F26A1B"/>
</linearGradient>
<linearGradient id="paint4_linear_2517_11627" x1="155.25" y1="97" x2="155.25" y2="167" gradientUnits="userSpaceOnUse">
<stop stop-color="#FDE2D3"/>
<stop offset="1" stop-color="#F26A1B"/>
</linearGradient>
<linearGradient id="paint5_linear_2517_11627" x1="206.482" y1="95.9997" x2="43.0194" y2="98.0742" gradientUnits="userSpaceOnUse">
<stop stop-color="#FDE2D3"/>
<stop offset="1" stop-color="#F26A1B"/>
</linearGradient>
<linearGradient id="paint6_linear_2517_11627" x1="237" y1="91.5" x2="237" y2="65.5" gradientUnits="userSpaceOnUse">
<stop stop-color="#231F20"/>
<stop offset="1" stop-color="#F26A1B"/>
</linearGradient>
<linearGradient id="paint7_linear_2517_11627" x1="389" y1="2" x2="389" y2="42" gradientUnits="userSpaceOnUse">
<stop stop-color="#F26A1B"/>
<stop offset="1" stop-color="#FBCAAE"/>
</linearGradient>
<linearGradient id="paint8_linear_2517_11627" x1="389.5" y1="12.5" x2="389.5" y2="31.5" gradientUnits="userSpaceOnUse">
<stop stop-color="#4A4340"/>
<stop offset="1" stop-color="#D05E1C"/>
</linearGradient>
<linearGradient id="paint9_linear_2517_11627" x1="83" y1="147" x2="83" y2="187" gradientUnits="userSpaceOnUse">
<stop stop-color="#F26A1B"/>
<stop offset="1" stop-color="#FBCAAE"/>
</linearGradient>
<linearGradient id="paint10_linear_2517_11627" x1="84.0769" y1="158.5" x2="84.0769" y2="177.269" gradientUnits="userSpaceOnUse">
<stop stop-color="#4A4340"/>
<stop offset="1" stop-color="#D05E1C"/>
</linearGradient>
<linearGradient id="paint11_linear_2517_11627" x1="22" y1="77" x2="22" y2="117" gradientUnits="userSpaceOnUse">
<stop stop-color="#F26A1B"/>
<stop offset="1" stop-color="#FBCAAE"/>
</linearGradient>
<linearGradient id="paint12_linear_2517_11627" x1="23" y1="87.5" x2="23" y2="106.5" gradientUnits="userSpaceOnUse">
<stop stop-color="#4A4340"/>
<stop offset="1" stop-color="#D05E1C"/>
</linearGradient>
<linearGradient id="paint13_linear_2517_11627" x1="453" y1="77" x2="453" y2="117" gradientUnits="userSpaceOnUse">
<stop stop-color="#F26A1B"/>
<stop offset="1" stop-color="#FBCAAE"/>
</linearGradient>
<linearGradient id="paint14_linear_2517_11627" x1="453" y1="88.5" x2="453" y2="105.5" gradientUnits="userSpaceOnUse">
<stop stop-color="#4A4340"/>
<stop offset="1" stop-color="#D05E1C"/>
</linearGradient>
<linearGradient id="paint15_linear_2517_11627" x1="83" y1="2" x2="83" y2="42" gradientUnits="userSpaceOnUse">
<stop stop-color="#F26A1B"/>
<stop offset="1" stop-color="#FBCAAE"/>
</linearGradient>
<linearGradient id="paint16_linear_2517_11627" x1="82.9995" y1="16.3462" x2="82.9995" y2="27.6537" gradientUnits="userSpaceOnUse">
<stop stop-color="#4A4340"/>
<stop offset="1" stop-color="#D05E1C"/>
</linearGradient>
<linearGradient id="paint17_linear_2517_11627" x1="389" y1="148" x2="389" y2="188" gradientUnits="userSpaceOnUse">
<stop stop-color="#F26A1B"/>
<stop offset="1" stop-color="#FBCAAE"/>
</linearGradient>
<linearGradient id="paint18_linear_2517_11627" x1="389" y1="160.5" x2="389" y2="175.5" gradientUnits="userSpaceOnUse">
<stop stop-color="#4A4340"/>
<stop offset="1" stop-color="#D05E1C"/>
</linearGradient>
</defs>
</svg>
