<svg width="466" height="270" viewBox="0 0 466 270" fill="none" xmlns="http://www.w3.org/2000/svg">
<g opacity="0.1">
<path d="M41.7195 159.42L76.0095 139.62L75.5095 138.76L41.4995 158.42H26.3695L7.26953 169.42C7.39953 169.72 7.52953 170.03 7.66953 170.34L26.6695 159.39L41.7195 159.42Z" fill="url(#paint0_radial_3183_6697)"/>
<path d="M51.91 178.96L51.41 178.09L28.41 191.35H20.5L21.28 192.35H28.7L51.91 178.96Z" fill="url(#paint1_radial_3183_6697)"/>
<path d="M75.97 152.36L75.5 151.54L16.34 185.63C16.53 185.91 16.71 186.19 16.9 186.46L75.97 152.36Z" fill="url(#paint2_radial_3183_6697)"/>
<path d="M246.11 37.2197L301.16 5.43968L299.6 5.17969L245.6 36.3497L246.11 37.2197Z" fill="url(#paint3_radial_3183_6697)"/>
<path d="M283.55 2.89001L281.9 2.70001L269.67 9.76001L270.17 10.62L283.55 2.89001Z" fill="url(#paint4_radial_3183_6697)"/>
<path d="M172.97 17.9799L156.13 27.6999C155.095 27.4163 153.997 27.4618 152.99 27.8299L129.63 14.3499L128.31 14.7399L152.05 28.4399C151.935 28.5439 151.842 28.6698 151.777 28.8102C151.712 28.9505 151.675 29.1025 151.67 29.2572C151.664 29.4119 151.689 29.5662 151.744 29.7109C151.799 29.8556 151.883 29.9879 151.99 30.0999L138.4 37.9399L160.12 50.4799L160.62 49.6199L140.4 37.9399L152.89 30.7299C153.96 31.1631 155.147 31.2126 156.25 30.8699L175.17 41.7899L175.67 40.9299L157.31 30.3299C157.486 30.2134 157.629 30.0535 157.725 29.8657C157.821 29.6778 157.868 29.4684 157.86 29.2574C157.852 29.0464 157.79 28.8411 157.679 28.6612C157.569 28.4812 157.414 28.3327 157.23 28.2299L174.97 17.9799L157.04 7.62988L155.58 7.93988L172.97 17.9799Z" fill="url(#paint5_radial_3183_6697)"/>
<path d="M198.08 16.54V1.66998L197.08 1.75998V15.93L172.93 29.93C172.307 29.7129 171.648 29.6231 170.99 29.6661C170.332 29.709 169.689 29.8838 169.1 30.18C168.834 30.2695 168.603 30.4402 168.439 30.668C168.276 30.8959 168.187 31.1694 168.187 31.45C168.187 31.7306 168.276 32.0041 168.439 32.2319C168.603 32.4598 168.834 32.6305 169.1 32.72C169.782 33.0653 170.536 33.2452 171.3 33.2452C172.064 33.2452 172.818 33.0653 173.5 32.72C174.5 32.11 174.68 31.19 173.93 30.5L197.83 16.7L198.08 16.54Z" fill="url(#paint6_radial_3183_6697)"/>
<path d="M435.83 206.38L436.58 205.66L424.25 198.54V183.15L317.06 121.26L316.62 120.5L316.18 120.75L315.74 120.5L315.63 120.43H291.19L316.19 106L453.84 185.48L454.4 184.65L317.9 105.84C322.14 105.69 333.11 105.84 340.33 106.04H340.5L342.18 105.04L460.87 173.56C461.02 173.26 461.17 172.96 461.31 172.66L343.15 104.54L351.79 99.54L353.41 100.48L353.49 100.53L435.5 147.63C434.77 148.32 434.91 149.23 435.95 149.83C436.63 150.175 437.382 150.355 438.145 150.355C438.908 150.355 439.66 150.175 440.34 149.83C440.606 149.741 440.837 149.57 441.001 149.342C441.164 149.114 441.253 148.841 441.253 148.56C441.253 148.279 441.164 148.006 441.001 147.778C440.837 147.55 440.606 147.379 440.34 147.29C439.747 146.993 439.101 146.819 438.439 146.778C437.778 146.737 437.115 146.829 436.49 147.05L355.5 100.54H378.83V100.61L378.95 100.54H392.3L460.3 139.77V161.96L464.78 164.55C464.9 164.23 465.01 163.91 465.12 163.55L461.3 161.34V139.17L436.3 124.72L440.4 122.36V111.19L461.4 99.06C461.26 98.76 461.11 98.46 460.96 98.16L439.64 110.47L439.39 110.61V121.78L435.29 124.15L416.91 113.54V105.07L434.5 94.92L434.75 94.77V78.43L443.81 73.19L443.13 72.43L394.42 100.54L392.77 99.59L392.65 99.52H380.76L437.56 66.73L436.81 66.01L378.76 99.54H353.76L352.76 98.96L383.5 81.23L383 80.36L351.84 98.36L336.38 89.44H337.68L379.77 65.13H399.48C399.656 65.4566 399.923 65.7244 400.25 65.9C400.932 66.2453 401.686 66.4252 402.45 66.4252C403.214 66.4252 403.968 66.2453 404.65 65.9C405.65 65.3 405.83 64.38 405.08 63.69L422.41 53.69L421.55 53.03L404.08 63.11C403.457 62.8935 402.798 62.804 402.14 62.847C401.482 62.8899 400.839 63.0644 400.25 63.36C399.927 63.5405 399.661 63.807 399.48 64.13H379.5L337.4 88.44H334.6L317.18 78.38L365.58 50.44H394.28L406.93 43.13L405.93 42.54L393.93 49.44H365.23L316.09 77.8L301.5 69.33L362.5 34.13C363.586 34.5176 364.774 34.5176 365.86 34.13L381.92 43.4L394.6 36.08L393.6 35.53L381.96 42.25L366.83 33.54C366.963 33.4257 367.069 33.2832 367.14 33.1228C367.211 32.9625 367.245 32.7884 367.24 32.6131C367.235 32.4378 367.192 32.2658 367.112 32.1096C367.032 31.9534 366.919 31.8169 366.78 31.71L375.27 26.81L374.13 26.31L365.78 31.13C364.746 30.7999 363.634 30.7999 362.6 31.13L345.6 21.29L351.54 17.86C351.12 17.72 350.7 17.57 350.27 17.44L344.6 20.71L337.27 16.48C337.95 15.8 337.79 14.91 336.78 14.33C336.099 13.98 335.345 13.7974 334.58 13.7974C333.815 13.7974 333.061 13.98 332.38 14.33C331.38 14.93 331.2 15.85 331.95 16.54L270.95 51.74L267.17 49.54L267.05 49.48H246.98L280.12 30.34H295.21L328.43 11.16L327.02 10.82L294.94 29.34H279.85L245.57 49.14L245.76 49.48H238.35L220.35 39.06L253.78 19.76L254.03 19.62V0.429993H253.03V19.04L219.35 38.48L216.25 36.69L215.75 37.56L218.35 39.06L202.5 48.17L199.39 46.37L198.89 47.24L201.5 48.74L184.41 58.61L184.16 58.75V59.39L180.5 57.28L180 58.14L184.16 60.55V69.46L175.6 64.46L175.1 65.33L184.16 70.56V71.8L170.05 79.95L157.31 72.59L156.81 73.45L169.01 80.54L155.01 88.65L142.26 81.3L141.76 82.16L154.01 89.23L93.82 123.98H71.23L30.5 147.54V132.54L232.31 16.05L232.56 15.91V0H231.56V15.33L73.83 106.4H42.5L0.0799999 130.91C0.0799999 131.31 0.02 131.71 0 132.11L42.81 107.4H72.1L29.75 131.85L29.5 131.99V148.11L4.5 162.54L4.84 163.54L71.5 125.01H94.05L154.97 89.84L161.97 93.84L145.11 103.58C144.469 103.326 143.781 103.21 143.092 103.24C142.403 103.269 141.728 103.443 141.11 103.75C140.844 103.839 140.613 104.01 140.449 104.238C140.286 104.466 140.197 104.739 140.197 105.02C140.197 105.301 140.286 105.574 140.449 105.802C140.613 106.03 140.844 106.2 141.11 106.29C141.702 106.583 142.346 106.756 143.005 106.799C143.664 106.842 144.325 106.754 144.95 106.54L149.15 108.97L136.77 116.12L136.52 116.26V129.36L67.84 169L67.59 169.14V188.45L52.14 197.37C51.5174 197.153 50.8576 197.063 50.1996 197.106C49.5417 197.149 48.8991 197.324 48.31 197.62C47.9834 197.796 47.7156 198.063 47.54 198.39H26.41C26.71 198.72 27.01 199.06 27.32 199.39H47.5C47.5809 199.556 47.6929 199.706 47.83 199.83L35.1 207.21L35.87 207.92L48.87 200.41C49.4926 200.627 50.1524 200.717 50.8104 200.674C51.4683 200.631 52.1109 200.456 52.7 200.16C53.7 199.56 53.89 198.64 53.14 197.95L68.34 189.17L68.59 189.03V169.72L137.21 130.1L137.46 129.96V116.86L150.09 109.54L174.32 123.54L89.32 172.64L89.07 172.78V193.97L47.76 217.81L48.62 218.47L89.77 194.72L90.02 194.57V173.38L175.32 124.13L186.19 130.41L171.28 139.02L171.03 139.17V161.35L68.68 220.44L86.43 230.69C86.2455 230.791 86.0904 230.939 85.9798 231.118C85.8692 231.297 85.8068 231.502 85.7987 231.712C85.7907 231.923 85.8372 232.132 85.9338 232.319C86.0304 232.506 86.1738 232.665 86.35 232.78L78.78 237.15L79.85 237.69L87.41 233.33C88.5095 233.67 89.6927 233.621 90.76 233.19L103.25 240.4L95.38 244.95L96.53 245.44L105.25 240.44L91.67 232.54C91.7781 232.429 91.8626 232.297 91.9184 232.152C91.9741 232.007 92 231.852 91.9943 231.697C91.9887 231.542 91.9518 231.39 91.8857 231.249C91.8197 231.109 91.7259 230.983 91.61 230.88L118.97 215.09L119.22 214.94V203.79L216.22 147.79L229.01 155.18L141.93 205.45L141.68 205.59V220.59L124.14 230.72L123.89 230.86V247.21L114.77 252.47L116.02 252.9L208.82 199.32L209.07 199.18V183.73L243.79 163.68L244.72 164.22V186.41L258.51 194.41L241.59 204.18H229.71L135.26 258.72L136.62 259.08L229.98 205.18H241.9L259.55 194.99L272.33 202.37L242.5 219.54C241.55 219.69 232.23 219.77 227.35 219.77H227.22L152.47 262.82L153.94 263.12L227.48 220.77C229.48 220.77 242.38 220.77 242.94 220.44L273.37 202.87L286.17 210.26L241.38 236.12H222.76L192.5 253.76H184.38L164.5 265.24L166.03 265.51L184.67 254.76H192.79L223.01 237.15H241.6L287.12 210.87L311.72 225.07H279.8L237.13 249.7C236.506 249.489 235.846 249.403 235.189 249.448C234.532 249.492 233.89 249.666 233.3 249.96C233.038 250.052 232.81 250.223 232.649 250.449C232.488 250.676 232.402 250.947 232.402 251.225C232.402 251.503 232.488 251.774 232.649 252.001C232.81 252.227 233.038 252.398 233.3 252.49C233.981 252.84 234.735 253.023 235.5 253.023C236.265 253.023 237.019 252.84 237.7 252.49C238.7 251.89 238.88 250.97 238.13 250.28L280.07 226.07H340.67L310.89 243.26H279.6L235.24 268.87L235.74 269.73L279.87 244.26H309.16L266.8 268.71L267.3 269.58L342.67 226.07H352.3L357.69 229.18L341.61 238.46C340.987 238.243 340.328 238.153 339.67 238.196C339.012 238.239 338.369 238.414 337.78 238.71C337.514 238.799 337.283 238.97 337.119 239.198C336.956 239.426 336.867 239.699 336.867 239.98C336.867 240.261 336.956 240.534 337.119 240.762C337.283 240.99 337.514 241.16 337.78 241.25C338.46 241.595 339.212 241.775 339.975 241.775C340.738 241.775 341.49 241.595 342.17 241.25C343.22 240.65 343.36 239.73 342.61 239.04L358.69 229.76L380.5 242.36L381.61 241.85L352.66 225.13H352.58L281.5 184.18C282.24 183.49 282.1 182.57 281.06 181.97C280.38 181.625 279.628 181.445 278.865 181.445C278.102 181.445 277.35 181.625 276.67 181.97C276.404 182.059 276.173 182.23 276.009 182.458C275.846 182.686 275.757 182.959 275.757 183.24C275.757 183.521 275.846 183.794 276.009 184.022C276.173 184.25 276.404 184.421 276.67 184.51C277.259 184.806 277.902 184.981 278.56 185.024C279.218 185.067 279.877 184.977 280.5 184.76L350.59 225.07H313.72L245.72 185.83V163.65L244.79 163.11L253.63 158L390.63 237.08L390.74 237.15H391.25L393.18 236.15H391.01L254.67 157.42L267.47 150.03L389.47 220.47C390.47 221.05 406.81 220.72 413.94 220.54L416.52 222.03L417.43 221.4L414.2 219.54H414.06C405.3 219.76 391 219.96 389.97 219.61L268.5 149.46L279.67 143.01C279.821 143.166 279.993 143.301 280.18 143.41C280.769 143.706 281.412 143.881 282.07 143.924C282.728 143.967 283.387 143.877 284.01 143.66L390.38 205.08L390.5 205.14H416.29L428.98 212.54L429.78 211.85L416.64 204.26L416.52 204.19H390.74L295.35 149.12H323.96L380.01 181.48C379.26 182.17 379.41 183.09 380.45 183.69C381.13 184.035 381.882 184.215 382.645 184.215C383.408 184.215 384.16 184.035 384.84 183.69C385.102 183.598 385.33 183.427 385.491 183.201C385.652 182.974 385.738 182.703 385.738 182.425C385.738 182.147 385.652 181.876 385.491 181.649C385.33 181.423 385.102 181.252 384.84 181.16C384.252 180.86 383.61 180.682 382.952 180.638C382.293 180.593 381.633 180.682 381.01 180.9L324.35 148.14L324.23 148.07H293.62L284.98 143.07C285.73 142.38 285.58 141.46 284.54 140.86C284.32 140.741 284.089 140.644 283.85 140.57L316.18 121.9L423.25 183.72V199.11L435.83 206.38ZM415.91 112.94L409.58 109.28L415.91 105.63V112.94ZM433.71 79.01V94.2L408.58 108.71L395.42 101.11L433.71 79.01ZM289.5 120.25L276.7 112.86L290.19 105.07L291.76 105.97L291.88 106.04H292.02C299.26 105.86 310.27 105.69 314.46 105.83L289.5 120.25ZM210.89 102.43L192.89 112.8V110.61L170.55 97.72L197.55 82.1V94.77L210.89 102.43ZM200.82 80.27L225.05 94.27L211.9 101.87L198.64 94.22V81.54L200.82 80.27ZM198.64 80.37V79.01L199.82 79.69L198.64 80.37ZM217.97 118.37C217.496 118.112 216.976 117.949 216.44 117.89V114.11L223.77 109.88L251.83 126.08L239.83 132.98L218.43 120.54C219.17 119.87 219.03 118.95 217.99 118.35L217.97 118.37ZM251.6 99.54H239.72L237.94 100.54L227.07 94.26L234.79 89.81L251.6 99.54ZM235.79 89.25L247.79 82.35H250.85L279.62 98.96L278.62 99.54H253.62L235.79 89.25ZM236.94 101.14L223.79 108.74L212.92 102.46L226.07 94.86L236.94 101.14ZM222.79 109.31L216.5 112.94V105.63L222.79 109.31ZM224.79 109.31L237.94 101.72L266.01 117.92L252.85 125.51L224.79 109.31ZM238.94 101.14L239.94 100.54H253.3L274.68 112.89L266.97 117.34L238.94 101.14ZM255.33 100.54H278.84L280.58 99.54L289.21 104.54L275.72 112.33L255.33 100.54ZM281.58 98.96L298.03 89.46H315.03L315.15 89.53L290.15 103.94L281.58 98.96ZM280.58 98.38L252.8 82.38H279.04L280.73 81.38L294.62 89.38L294.73 89.45H296.03L280.58 98.38ZM280.73 80.22L266.08 71.76L284.88 60.91L299.5 69.33L280.73 80.22ZM279.73 80.79L278.73 81.35H251.03L250.24 80.89L265.04 72.34L279.73 80.79ZM234.79 88.68L210.56 74.68L227.01 65.17C227.189 65.4828 227.453 65.7392 227.77 65.91C228.45 66.2552 229.202 66.4351 229.965 66.4351C230.728 66.4351 231.48 66.2552 232.16 65.91C232.491 65.7375 232.763 65.4692 232.94 65.14H252.64L264.08 71.75L234.79 88.68ZM233.79 89.25L226.07 93.71L201.84 79.71L209.56 75.25L233.79 89.25ZM192.95 113.98L211.95 102.98L215.5 105.03V113.54L197.08 124.17L192.99 121.8L192.95 113.98ZM215.46 114.7V117.87C214.807 117.902 214.169 118.076 213.59 118.38C213.324 118.469 213.093 118.64 212.929 118.868C212.766 119.096 212.677 119.369 212.677 119.65C212.677 119.931 212.766 120.204 212.929 120.432C213.093 120.66 213.324 120.83 213.59 120.92C214.182 121.213 214.826 121.386 215.485 121.429C216.144 121.472 216.805 121.384 217.43 121.17L238.9 133.54L226.11 140.93L198.04 124.72L215.46 114.7ZM239.9 134.15L252.7 141.54L239.9 148.93L227.11 141.54L239.9 134.15ZM240.9 133.57L252.9 126.67L258.6 129.96L259.1 129.09L253.9 126.09L267.06 118.5L279.85 125.88L253.75 140.96L240.9 133.57ZM268.01 117.92L275.72 113.47L288.52 120.85L280.8 125.31L268.01 117.92ZM340.21 105.07C333.58 104.9 319.02 104.6 316.21 105.07C313.38 104.64 298.82 104.94 292.21 105.07L291.27 104.52L316.27 90.1L341.27 104.52L340.21 105.07ZM350.79 98.96L342.15 103.96L317.15 89.55L317.28 89.48H334.28L350.79 98.96ZM316.18 78.96L332.6 88.44H317.04L316.18 88.93L315.44 88.5L315.33 88.44H299.77L316.18 78.96ZM315.18 78.38L297.77 88.44H295L281.73 80.77L300.5 69.91L315.18 78.38ZM292.08 56.73V40.6L332.91 17.04C333.996 17.4276 335.184 17.4276 336.27 17.04L361.56 31.65C361.413 31.7576 361.292 31.8973 361.207 32.0585C361.122 32.2197 361.075 32.3982 361.069 32.5804C361.063 32.7625 361.099 32.9436 361.174 33.1099C361.249 33.2762 361.36 33.4233 361.5 33.54L300.5 68.74L285.85 60.29L291.8 56.85L292.08 56.73ZM291.08 41.19V56.19L284.88 59.77L271.93 52.29L291.08 41.19ZM270.93 52.83L283.88 60.31L265.08 71.16L253.03 64.16L252.91 64.09H251.35L270.93 52.83ZM219.31 39.6L238.08 50.44H266.78L269.93 52.25L250.08 63.71H232.62C232.481 63.5761 232.326 63.4586 232.16 63.36C231.571 63.0638 230.928 62.8891 230.27 62.8461C229.612 62.8032 228.953 62.8929 228.33 63.11L203.5 48.74L219.31 39.6ZM185.12 59.34L202.46 49.34L227.33 63.7C227.236 63.7833 227.152 63.8773 227.08 63.98L209.56 74.1L185.12 59.99V59.34ZM185.12 61.14L208.56 74.67L200.84 79.12L185.12 70.04V61.14ZM184.87 72.54L185.12 72.4V71.16L197.66 78.4V80.92L169.66 97.11L163.99 93.83L178.99 85.15L170.99 80.54L184.87 72.54ZM155.97 89.23L169.97 81.12L176.97 85.12L162.97 93.23L155.97 89.23ZM145.89 105.95C146.023 105.848 146.132 105.719 146.21 105.572C146.289 105.424 146.335 105.262 146.345 105.095C146.356 104.928 146.33 104.761 146.271 104.605C146.211 104.449 146.119 104.307 146 104.19L162.94 94.41L168.61 97.69L150.09 108.38L145.89 105.95ZM151.09 108.95L169.61 98.26L191.95 111.15V113.34L175.32 122.94L151.09 108.95ZM176.32 123.54L191.95 114.54V122.37L196.04 124.73L187.19 129.84L176.32 123.54ZM118.5 203.07L118.25 203.22V214.39L90.7 230.29C89.6888 229.922 88.5882 229.876 87.55 230.16L70.68 220.44L171.78 162.07L172.03 161.93V139.74L187.19 130.99L215.26 147.19L118.5 203.07ZM188.22 130.41L197.07 125.3L225.11 141.54L216.26 146.65L188.22 130.41ZM217.29 147.19L226.14 142.08L238.93 149.47L230.05 154.54L217.29 147.19ZM208.39 183L208.14 183.15V198.54L124.96 246.54V231.38L185.32 196.54L184.82 195.68L142.72 219.98V206.18L230.05 155.76L242.83 163.14L208.39 183ZM243.83 162.54L231.05 155.16L239.9 150.06L252.67 157.43L243.83 162.54ZM253.67 156.85L240.9 149.48L253.7 142.09L266.5 149.46L253.67 156.85ZM281.85 140.38C281.255 140.428 280.676 140.598 280.15 140.88C279.91 140.989 279.701 141.157 279.544 141.369C279.387 141.581 279.286 141.829 279.25 142.09L267.5 148.88L254.7 141.54L280.8 126.47L281.85 127.07V140.38ZM282.85 140.01V126.46L281.8 125.85L289.52 121.4H289.58H315.01L282.85 140.01Z" fill="url(#paint7_radial_3183_6697)"/>
<path d="M49.5003 73.19L10.3003 95.82C10.0103 96.38 9.71027 96.93 9.43027 97.48L50.6303 73.69H79.0303L92.8803 81.69L83.3603 87.1801C82.7376 86.9635 82.0778 86.8741 81.4199 86.917C80.7621 86.96 80.1195 87.1344 79.5303 87.4301C79.2073 87.6106 78.9408 87.8771 78.7603 88.2H42.7603L3.97027 110.59C3.82027 111.06 3.67027 111.53 3.53027 112L43.0103 89.2H78.7603C78.9358 89.5267 79.2036 89.7945 79.5303 89.97C80.2122 90.3153 80.9659 90.4953 81.7303 90.4953C82.4947 90.4953 83.2483 90.3153 83.9303 89.97C84.9303 89.37 85.1103 88.45 84.3603 87.76L93.8803 82.26L101.18 86.48L101.68 85.61L94.8803 81.69L110.74 72.54L118.03 76.76L118.53 75.89L111.73 71.97L129.63 61.63L136.93 65.85L137.43 64.98L130.63 61.06L138.35 56.6L141.83 58.6L142.33 57.73L139.33 56.01L150.33 49.68L149.83 48.82L138.38 55.43L125.1 47.76C125.91 47.07 125.79 46.11 124.72 45.49C124.114 45.1894 123.453 45.0149 122.778 44.9771C122.102 44.9392 121.426 45.0389 120.79 45.27L119.79 44.68V28.34L107.9 21.54L106.68 22L118.68 28.95V44.14L91.3003 28.28L90.1903 28.79L119.8 45.89C119.12 46.57 119.28 47.46 120.29 48.04C121.446 48.6262 122.788 48.7305 124.02 48.33L137.35 56.02L129.63 60.47L81.7103 32.81L80.6503 33.35L128.65 61.05L110.76 71.38L87.6903 58.06L87.5703 57.99H67.5003C67.3211 57.7066 67.0735 57.4728 66.7803 57.31C65.6217 56.7314 64.2822 56.6309 63.0503 57.03L51.9003 50.54L51.0203 51.18L62.0203 57.54C61.2103 58.24 61.3303 59.19 62.4003 59.81C63.0822 60.1554 63.8359 60.3353 64.6003 60.3353C65.3647 60.3353 66.1183 60.1554 66.8003 59.81C67.1579 59.6208 67.4428 59.3184 67.6103 58.95H87.2903L109.74 71.95L93.8803 81.1L79.3003 72.69H50.6003L35.4303 63.93L34.6703 64.65L49.5003 73.19Z" fill="url(#paint8_radial_3183_6697)"/>
<path d="M65.5599 43.5396C66.2419 43.8849 66.9955 44.0648 67.7599 44.0648C68.5243 44.0648 69.278 43.8849 69.9599 43.5396C70.2258 43.4501 70.457 43.2794 70.6207 43.0515C70.7844 42.8237 70.8725 42.5502 70.8725 42.2696C70.8725 41.989 70.7844 41.7155 70.6207 41.4877C70.457 41.2598 70.2258 41.0891 69.9599 40.9996C69.2197 40.6194 68.3904 40.4466 67.5599 40.4996L64.6699 42.2096C64.6764 42.493 64.7636 42.7686 64.9212 43.0042C65.0789 43.2398 65.3004 43.4255 65.5599 43.5396Z" fill="url(#paint9_radial_3183_6697)"/>
</g>
<path d="M224.631 253.472V269.998C223.258 270.028 221.9 269.708 220.685 269.067L135.646 220.002C134.549 219.385 134 218.541 134 217.714V203.421C134.014 203.088 134.098 202.762 134.248 202.464C134.398 202.166 134.61 201.904 134.869 201.694L147.171 208.798L224.631 253.472Z" fill="#F26A1B"/>
<path opacity="0.5" d="M224.631 253.472V269.998C223.258 270.028 221.9 269.708 220.685 269.067L135.646 220.002C134.549 219.385 134 218.541 134 217.714V203.421C134.014 203.088 134.098 202.762 134.248 202.464C134.398 202.166 134.61 201.904 134.869 201.694L147.171 208.798L224.631 253.472Z" fill="white"/>
<path d="M224.632 253.472V269.997C226.007 270.028 227.368 269.708 228.584 269.066L313.617 220.001C314.715 219.385 315.263 218.54 315.263 217.714V203.414C315.25 203.081 315.165 202.755 315.015 202.457C314.865 202.159 314.653 201.897 314.394 201.688L302.092 208.791L224.632 253.472Z" fill="#F26A1B"/>
<path opacity="0.65" d="M224.632 253.472V269.997C226.007 270.028 227.368 269.708 228.584 269.066L313.617 220.001C314.715 219.385 315.263 218.54 315.263 217.714V203.414C315.25 203.081 315.165 202.755 315.015 202.457C314.865 202.159 314.653 201.897 314.394 201.688L302.092 208.791L224.632 253.472Z" fill="white"/>
<path d="M313.617 205.696L228.584 254.755C227.355 255.375 225.998 255.698 224.622 255.698C223.246 255.698 221.889 255.375 220.66 254.755L135.646 205.702C134.549 205.086 134 204.259 134 203.421C134.014 203.088 134.098 202.761 134.248 202.464C134.398 202.166 134.61 201.903 134.869 201.694C135.104 201.476 135.365 201.287 135.646 201.133L220.679 152.093C221.906 151.469 223.264 151.144 224.641 151.144C226.017 151.144 227.375 151.469 228.602 152.093L313.617 201.127C315.799 202.391 315.799 204.45 313.617 205.696Z" fill="#F26A1B"/>
<path opacity="0.8" d="M313.617 205.696L228.584 254.755C227.355 255.375 225.998 255.698 224.622 255.698C223.246 255.698 221.889 255.375 220.66 254.755L135.646 205.702C134.549 205.086 134 204.259 134 203.421C134.014 203.088 134.098 202.761 134.248 202.464C134.398 202.166 134.61 201.903 134.869 201.694C135.104 201.476 135.365 201.287 135.646 201.133L220.679 152.093C221.906 151.469 223.264 151.144 224.641 151.144C226.017 151.144 227.375 151.469 228.602 152.093L313.617 201.127C315.799 202.391 315.799 204.45 313.617 205.696Z" fill="white"/>
<path d="M224.632 152.124C225.841 152.101 227.037 152.383 228.109 152.944L313.117 201.972C313.851 202.397 314.264 202.921 314.264 203.421C314.264 203.92 313.845 204.432 313.123 204.851L228.091 253.916C227.012 254.452 225.824 254.73 224.619 254.73C223.415 254.73 222.227 254.452 221.148 253.916L136.134 204.851C135.4 204.438 134.98 203.914 134.98 203.421C134.998 203.224 135.057 203.033 135.152 202.86C135.248 202.687 135.378 202.536 135.535 202.416C135.722 202.247 135.929 202.102 136.152 201.984L221.191 152.944C222.257 152.379 223.45 152.097 224.656 152.124M224.656 151.143C223.277 151.114 221.913 151.441 220.697 152.093L135.646 201.133C135.364 201.286 135.103 201.474 134.869 201.694C134.61 201.904 134.398 202.166 134.248 202.464C134.098 202.762 134.014 203.088 134 203.421C134 204.259 134.549 205.08 135.646 205.702L220.66 254.755C221.889 255.375 223.246 255.698 224.622 255.698C225.998 255.698 227.356 255.375 228.584 254.755L313.617 205.696C315.8 204.463 315.8 202.391 313.617 201.127L228.603 152.093C227.384 151.443 226.019 151.116 224.638 151.143H224.656Z" fill="white"/>
<path d="M221.999 162.039L152.937 201.885C151.475 202.73 151.475 204.093 152.937 204.937L221.999 244.777C222.816 245.194 223.721 245.411 224.638 245.411C225.555 245.411 226.46 245.194 227.277 244.777L296.37 204.931C297.831 204.086 297.831 202.724 296.37 201.879L227.277 162.039C226.46 161.622 225.555 161.405 224.638 161.405C223.721 161.405 222.816 161.622 221.999 162.039Z" fill="#455A64"/>
<path d="M296.351 201.892L227.277 162.039C226.464 161.613 225.555 161.401 224.638 161.422V164.105L295.895 205.203L296.351 204.938C297.813 204.099 297.813 202.736 296.351 201.892Z" fill="#37474F"/>
<path d="M224.631 161.422C223.713 161.401 222.805 161.613 221.992 162.039L152.93 201.885C151.469 202.73 151.469 204.093 152.93 204.938L153.386 205.203L224.631 164.105V161.422Z" fill="#263238"/>
<g opacity="0.5">
<path opacity="0.3" d="M229.405 234.703C227.938 235.56 226.247 235.958 224.552 235.844V245.432C225.707 245.428 226.837 245.092 227.808 244.464L295.544 205.37C296.808 204.673 297.394 204.057 297.394 203.212V195.461L229.405 234.703Z" fill="#F26A1B"/>
<path opacity="0.276923" d="M229.405 226.126C227.94 226.989 226.248 227.387 224.552 227.267V236.856C225.707 236.851 226.837 236.515 227.808 235.888L295.544 196.794C296.808 196.097 297.394 195.486 297.394 194.642V186.891L229.405 226.126Z" fill="#F26A1B"/>
<path opacity="0.253846" d="M229.405 217.536C227.938 218.393 226.247 218.791 224.552 218.677V228.265C225.707 228.261 226.837 227.925 227.808 227.297L295.544 188.222C296.808 187.525 297.394 186.908 297.394 186.063V178.312L229.405 217.536Z" fill="#F26A1B"/>
<path opacity="0.230769" d="M229.405 208.977C227.94 209.84 226.248 210.237 224.552 210.118V219.706C225.706 219.701 226.836 219.368 227.808 218.744L295.544 179.644C296.808 178.947 297.394 178.337 297.394 177.492V169.741L229.405 208.977Z" fill="#F26A1B"/>
<path opacity="0.207692" d="M229.405 200.406C227.938 201.263 226.247 201.661 224.552 201.547V211.136C225.707 211.131 226.837 210.795 227.808 210.167L295.544 171.073C296.808 170.377 297.394 169.766 297.394 168.915V161.164L229.405 200.406Z" fill="#F26A1B"/>
<path opacity="0.184615" d="M229.405 191.836C227.938 192.694 226.247 193.089 224.552 192.97V202.559C225.706 202.554 226.836 202.22 227.808 201.597L295.544 162.497C296.808 161.806 297.394 161.19 297.394 160.345V152.594L229.405 191.836Z" fill="#F26A1B"/>
<path opacity="0.161538" d="M229.405 183.259C227.939 184.119 226.247 184.516 224.552 184.399V193.988C225.707 193.983 226.837 193.647 227.808 193.02L295.544 153.926C296.808 153.229 297.394 152.619 297.394 151.774V144.017L229.405 183.259Z" fill="#F26A1B"/>
<path opacity="0.138462" d="M229.405 174.687C227.938 175.545 226.247 175.941 224.552 175.822V185.41C225.706 185.405 226.836 185.072 227.808 184.449L295.544 145.348C296.808 144.658 297.394 144.041 297.394 143.196V135.445L229.405 174.687Z" fill="#F26A1B"/>
<path opacity="0.115385" d="M229.405 166.11C227.94 166.973 226.248 167.37 224.552 167.251V176.839C225.707 176.835 226.837 176.499 227.808 175.871L295.544 136.759C296.808 136.062 297.394 135.451 297.394 134.607V126.893L229.405 166.11Z" fill="#F26A1B"/>
<path opacity="0.092308" d="M229.405 157.539C227.938 158.397 226.247 158.792 224.552 158.673V168.262C225.706 168.257 226.836 167.923 227.808 167.3L295.544 128.2C296.808 127.509 297.394 126.893 297.394 126.048V118.297L229.405 157.539Z" fill="#F26A1B"/>
<path opacity="0.069231" d="M229.405 148.961C227.94 149.824 226.248 150.222 224.552 150.102V159.691C225.707 159.686 226.837 159.35 227.808 158.722L295.544 119.628C296.808 118.932 297.394 118.321 297.394 117.476V109.725L229.405 148.961Z" fill="#F26A1B"/>
<path opacity="0.046154" d="M229.405 140.39C227.938 141.248 226.247 141.645 224.552 141.531V151.126C225.707 151.119 226.836 150.783 227.808 150.158L295.544 111.058C296.808 110.361 297.394 109.744 297.394 108.899V101.148L229.405 140.39Z" fill="#F26A1B"/>
<path opacity="0.023077" d="M229.405 131.826C227.94 132.688 226.248 133.086 224.552 132.966V142.555C225.707 142.55 226.837 142.214 227.808 141.587L295.544 102.48C296.808 101.784 297.394 101.173 297.394 100.328V92.5774L229.405 131.826Z" fill="#F26A1B"/>
</g>
<g opacity="0.7">
<path opacity="0.5" d="M219.699 234.703C221.168 235.561 222.861 235.958 224.558 235.844C224.527 235.844 224.558 235.844 224.558 235.844V245.432C223.402 245.429 222.272 245.093 221.302 244.464L153.584 205.37C152.32 204.673 151.735 204.057 151.735 203.212V195.461L219.699 234.703Z" fill="#F26A1B"/>
<path opacity="0.461538" d="M219.699 226.126C221.166 226.99 222.86 227.388 224.558 227.267V236.856C223.402 236.852 222.272 236.516 221.302 235.888L153.584 196.794C152.32 196.097 151.734 195.486 151.734 194.642V186.891L219.699 226.126Z" fill="#F26A1B"/>
<path opacity="0.423077" d="M219.699 217.536C221.168 218.394 222.86 218.791 224.558 218.677C224.527 218.677 224.558 218.677 224.558 218.677V228.265C223.402 228.262 222.272 227.926 221.302 227.297L153.584 188.203C152.32 187.506 151.734 186.89 151.734 186.045V178.312L219.699 217.536Z" fill="#F26A1B"/>
<path opacity="0.384615" d="M219.699 208.977C221.166 209.841 222.86 210.238 224.558 210.118V219.706C223.403 219.702 222.274 219.369 221.302 218.744L153.578 179.644C152.314 178.947 151.729 178.337 151.729 177.492V169.741L219.699 208.977Z" fill="#F26A1B"/>
<path opacity="0.346154" d="M219.699 200.406C221.168 201.264 222.861 201.661 224.558 201.547C224.527 201.547 224.558 201.547 224.558 201.547V211.136C223.402 211.132 222.272 210.796 221.302 210.167L153.584 171.073C152.32 170.377 151.735 169.766 151.735 168.915V161.164L219.699 200.406Z" fill="#F26A1B"/>
<path opacity="0.307692" d="M219.699 191.836C221.168 192.695 222.861 193.09 224.558 192.97V202.559C223.403 202.555 222.274 202.221 221.302 201.597L153.578 162.497C152.314 161.806 151.729 161.19 151.729 160.345V152.594L219.699 191.836Z" fill="#F26A1B"/>
<path opacity="0.269231" d="M219.699 183.259C221.167 184.119 222.86 184.517 224.558 184.399C224.527 184.399 224.558 184.399 224.558 184.399V193.988C223.402 193.984 222.272 193.648 221.302 193.02L153.584 153.926C152.32 153.229 151.734 152.619 151.734 151.774V144.017L219.699 183.259Z" fill="#F26A1B"/>
<path opacity="0.230769" d="M219.699 174.687C221.168 175.546 222.861 175.942 224.558 175.822V185.41C223.403 185.406 222.274 185.073 221.302 184.449L153.578 145.348C152.314 144.658 151.729 144.041 151.729 143.196V135.445L219.699 174.687Z" fill="#F26A1B"/>
<path opacity="0.192308" d="M219.699 166.11C221.166 166.973 222.86 167.371 224.558 167.251C224.527 167.251 224.558 167.251 224.558 167.251V176.839C223.402 176.836 222.272 176.5 221.302 175.871L153.578 136.759C152.314 136.062 151.729 135.451 151.729 134.607V126.893L219.699 166.11Z" fill="#F26A1B"/>
<path opacity="0.153846" d="M219.699 157.539C221.168 158.398 222.861 158.793 224.558 158.673C224.527 158.673 224.558 158.673 224.558 158.673V168.262C223.403 168.258 222.274 167.924 221.302 167.3L153.578 128.2C152.314 127.509 151.729 126.893 151.729 126.048V118.297L219.699 157.539Z" fill="#F26A1B"/>
<path opacity="0.115385" d="M219.699 148.961C221.166 149.825 222.86 150.223 224.558 150.102C224.527 150.102 224.558 150.102 224.558 150.102V159.691C223.402 159.687 222.272 159.351 221.302 158.722L153.584 119.628C152.32 118.932 151.735 118.321 151.735 117.476V109.725L219.699 148.961Z" fill="#F26A1B"/>
<path opacity="0.076923" d="M219.699 140.39C221.168 141.248 222.86 141.646 224.558 141.531V151.126C223.403 151.119 222.273 150.784 221.302 150.158L153.584 111.064C152.32 110.367 151.734 109.75 151.734 108.906V101.148L219.699 140.39Z" fill="#F26A1B"/>
<path opacity="0.038462" d="M219.699 131.826C221.166 132.689 222.86 133.087 224.558 132.966V142.555C223.402 142.551 222.272 142.215 221.302 141.587L153.578 102.48C152.314 101.784 151.729 101.173 151.729 100.328V92.5774L219.699 131.826Z" fill="#F26A1B"/>
</g>
<path d="M7.15 120.28L130.65 49.43C132.38 48.43 133.79 49.24 133.79 51.25V142.59C133.727 143.679 133.41 144.737 132.864 145.682C132.319 146.626 131.561 147.43 130.65 148.03L7.15 218.88C5.41 219.88 4 219.07 4 217.07V125.73C4.06306 124.639 4.38082 123.577 4.92782 122.631C5.47483 121.685 6.23587 120.879 7.15 120.28Z" fill="#F26A1B"/>
<path opacity="0.9" d="M7.15 120.28L130.65 49.43C132.38 48.43 133.79 49.24 133.79 51.25V142.59C133.727 143.679 133.41 144.737 132.864 145.682C132.319 146.626 131.561 147.43 130.65 148.03L7.15 218.88C5.41 219.88 4 219.07 4 217.07V125.73C4.06306 124.639 4.38082 123.577 4.92782 122.631C5.47483 121.685 6.23587 120.879 7.15 120.28Z" fill="white"/>
<path d="M18.5253 204.949C18.4686 204.979 18.8276 186.805 19.3263 164.366C19.8249 141.926 20.2749 123.697 20.3316 123.667C20.3883 123.637 20.0294 141.805 19.5305 164.257C19.0315 186.709 18.582 204.919 18.5253 204.949Z" fill="#263238"/>
<path d="M18.003 131.107C17.4165 131.533 16.8219 131.889 16.231 132.166C15.6402 132.519 15.0493 132.796 14.4698 132.991C15.0544 132.566 15.6471 132.211 16.2361 131.935C16.8288 131.581 17.4216 131.303 18.003 131.107Z" fill="#263238"/>
<path d="M18.2266 127.108C17.6401 127.535 17.0455 127.89 16.4546 128.167C15.8639 128.52 15.2729 128.797 14.6934 128.992C15.278 128.567 15.8707 128.212 16.4598 127.936C17.0524 127.582 17.6452 127.304 18.2266 127.108Z" fill="#263238"/>
<path d="M17.9093 135.347C17.3227 135.774 16.7282 136.129 16.1372 136.406C15.5465 136.759 14.9555 137.036 14.376 137.231C14.9607 136.806 15.5533 136.452 16.1424 136.175C16.735 135.821 17.3278 135.543 17.9093 135.347Z" fill="#263238"/>
<path d="M17.8145 139.582C17.228 140.009 16.6334 140.364 16.0425 140.642C15.4518 140.995 14.8608 141.271 14.2813 141.467C14.8659 141.041 15.4586 140.687 16.0476 140.41C16.6403 140.057 17.2331 139.779 17.8145 139.582Z" fill="#263238"/>
<path d="M17.7208 143.824C17.1343 144.25 16.5397 144.606 15.9488 144.883C15.358 145.236 14.7671 145.513 14.1875 145.708C14.7722 145.283 15.3648 144.928 15.9539 144.652C16.5465 144.298 17.1394 144.02 17.7208 143.824Z" fill="#263238"/>
<path d="M17.6261 148.058C17.0395 148.485 16.445 148.84 15.854 149.117C15.2633 149.47 14.6723 149.747 14.0928 149.942C14.6774 149.517 15.2701 149.163 15.8592 148.886C16.4518 148.532 17.0446 148.254 17.6261 148.058Z" fill="#263238"/>
<path d="M17.5323 152.312C16.9458 152.739 16.3512 153.094 15.7603 153.371C15.1695 153.724 14.5786 154.001 13.9991 154.196C14.5837 153.771 15.1764 153.416 15.7654 153.14C16.3581 152.786 16.9509 152.508 17.5323 152.312Z" fill="#263238"/>
<path d="M17.4386 156.534C16.8517 156.957 16.2575 157.312 15.6665 157.593C15.0759 157.942 14.4853 158.218 13.9053 158.418C14.4899 157.993 15.0826 157.638 15.6717 157.362C16.2643 157.008 16.8571 156.73 17.4386 156.534Z" fill="#263238"/>
<path d="M17.3438 160.769C16.7573 161.196 16.1627 161.551 15.5718 161.828C14.9811 162.181 14.3901 162.458 13.8106 162.653C14.3952 162.228 14.9879 161.874 15.5769 161.597C16.1696 161.243 16.7624 160.965 17.3438 160.769Z" fill="#263238"/>
<path d="M17.2501 165.003C16.6636 165.43 16.069 165.785 15.4781 166.063C14.8873 166.415 14.2964 166.692 13.7168 166.888C14.3015 166.462 14.8941 166.108 15.4832 165.831C16.0758 165.478 16.6687 165.2 17.2501 165.003Z" fill="#263238"/>
<path d="M17.1554 169.238C16.5689 169.664 15.9743 170.02 15.3834 170.297C14.7926 170.65 14.2017 170.926 13.6222 171.122C14.2071 170.7 14.7994 170.346 15.3885 170.066C15.9811 169.716 16.5735 169.438 17.1554 169.238Z" fill="#263238"/>
<path d="M17.0616 173.479C16.4751 173.906 15.8805 174.261 15.2896 174.538C14.6988 174.891 14.1079 175.168 13.5284 175.363C14.113 174.938 14.7057 174.583 15.2947 174.307C15.8874 173.953 16.4802 173.675 17.0616 173.479Z" fill="#263238"/>
<path d="M16.9679 177.713C16.3813 178.14 15.7868 178.495 15.1958 178.773C14.6051 179.125 14.0141 179.402 13.4346 179.598C14.0192 179.172 14.6119 178.818 15.201 178.541C15.7936 178.187 16.3864 177.91 16.9679 177.713Z" fill="#263238"/>
<path d="M16.8731 181.949C16.2866 182.375 15.692 182.731 15.1011 183.008C14.5104 183.361 13.9194 183.638 13.3399 183.833C13.9245 183.408 14.5172 183.053 15.1062 182.777C15.6989 182.423 16.2917 182.145 16.8731 181.949Z" fill="#263238"/>
<path d="M16.7794 186.19C16.1928 186.616 15.5983 186.972 15.0074 187.249C14.4166 187.602 13.8257 187.879 13.2461 188.074C13.8308 187.649 14.4234 187.294 15.0125 187.018C15.6051 186.664 16.198 186.386 16.7794 186.19Z" fill="#263238"/>
<path d="M16.6847 190.424C16.0981 190.851 15.5036 191.206 14.9126 191.484C14.3219 191.836 13.7309 192.113 13.1514 192.309C13.736 191.883 14.3287 191.529 14.9178 191.252C15.5104 190.898 16.1032 190.621 16.6847 190.424Z" fill="#263238"/>
<path d="M32.1584 123.316C32.157 123.38 30.1085 124.523 27.5734 125.875C25.0383 127.227 22.9921 128.268 22.9935 128.204C22.995 128.139 25.0491 126.993 27.5785 125.644C30.1079 124.295 32.1598 123.251 32.1584 123.316Z" fill="#263238"/>
<path d="M30.8364 182.82C30.8356 182.859 28.7877 183.977 26.2526 185.329C23.7175 186.681 21.6701 187.773 21.6716 187.708C21.673 187.644 23.7259 186.556 26.2553 185.207C28.7847 183.858 30.8371 182.788 30.8364 182.82Z" fill="#263238"/>
<path d="M44.7314 125.227C44.73 125.292 40.8893 127.391 36.1538 129.916C31.4182 132.442 27.5798 134.438 27.5813 134.374C27.5827 134.31 31.4235 132.204 36.1874 129.663C40.9513 127.123 44.7328 125.163 44.7314 125.227Z" fill="#FF725E"/>
<path d="M64.5413 114.661C64.5399 114.726 60.6992 116.825 55.9693 119.347C51.2394 121.87 47.3954 123.869 47.3968 123.805C47.3983 123.741 51.2389 121.642 55.9745 119.116C60.71 116.59 64.5427 114.597 64.5413 114.661Z" fill="#263238"/>
<path d="M56.8814 122.937C56.88 123.002 51.2075 126.078 44.2488 129.789C37.29 133.5 31.6142 136.477 31.6156 136.413C31.617 136.348 37.2895 133.272 44.2539 129.558C51.2183 125.843 56.8828 122.873 56.8814 122.937Z" fill="#263238"/>
<path d="M56.7867 127.173C56.7852 127.237 51.1128 130.313 44.154 134.024C37.1953 137.736 31.5194 140.712 31.5209 140.648C31.5223 140.584 37.1948 137.508 44.1592 133.793C51.1236 130.079 56.7881 127.109 56.7867 127.173Z" fill="#FF725E"/>
<path d="M73.899 130.605C73.8975 130.67 68.2251 133.746 61.2607 137.46C54.2963 141.174 48.6317 144.145 48.6332 144.081C48.6346 144.016 54.3071 140.94 61.2658 137.229C68.2245 133.517 73.9004 130.541 73.899 130.605Z" fill="#FF725E"/>
<path d="M66.5833 126.151C66.5819 126.215 60.9094 129.292 53.945 133.006C46.9806 136.72 41.3105 139.694 41.3119 139.629C41.3133 139.565 46.9858 136.489 53.9502 132.775C60.9146 129.06 66.5852 126.068 66.5833 126.151Z" fill="#263238"/>
<path d="M86.9105 106.922C86.9091 106.986 81.2366 110.062 74.2722 113.776C67.3078 117.491 61.6376 120.464 61.639 120.4C61.6405 120.336 67.3129 117.259 74.2773 113.545C81.2417 109.831 86.9119 106.857 86.9105 106.922Z" fill="#263238"/>
<path d="M32.0588 127.801C32.0574 127.865 30.0089 129.009 27.4738 130.361C24.9387 131.713 22.8925 132.753 22.8939 132.689C22.8953 132.625 24.9495 131.478 27.4789 130.129C30.0083 128.78 32.0602 127.737 32.0588 127.801Z" fill="#FF725E"/>
<path d="M30.9289 178.643C30.9275 178.707 28.879 179.85 26.3439 181.202C23.8088 182.554 21.7626 183.595 21.764 183.531C21.7655 183.466 23.8196 182.32 26.349 180.971C28.8785 179.622 30.9303 178.579 30.9289 178.643Z" fill="#263238"/>
<path d="M36.2248 142.342C36.2234 142.406 34.1692 143.553 31.6398 144.902C29.1104 146.251 27.0585 147.294 27.0599 147.23C27.0614 147.166 29.1155 146.019 31.6449 144.67C34.1743 143.321 36.2267 142.258 36.2248 142.342Z" fill="#263238"/>
<path d="M44.0723 154.863C44.0711 154.921 40.2303 157.027 35.4947 159.553C30.7592 162.078 26.9209 164.068 26.9222 164.01C26.9235 163.952 30.7643 161.847 35.4999 159.321C40.2354 156.796 44.0738 154.799 44.0723 154.863Z" fill="#FF725E"/>
<path d="M63.8821 144.298C63.8808 144.356 60.04 146.462 55.3102 148.984C50.5803 151.507 46.7364 153.5 46.7377 153.442C46.7389 153.384 50.5797 151.278 55.3153 148.753C60.0509 146.227 63.8835 144.234 63.8821 144.298Z" fill="#263238"/>
<path d="M56.2222 152.567C56.2208 152.632 50.5483 155.708 43.5896 159.419C36.6308 163.13 30.955 166.107 30.9564 166.042C30.9578 165.978 36.6303 162.902 43.5947 159.188C50.5591 155.473 56.2236 152.503 56.2222 152.567Z" fill="#263238"/>
<path d="M56.1285 156.803C56.127 156.867 50.4545 159.943 43.4958 163.654C36.5371 167.366 30.8612 170.342 30.8627 170.278C30.8641 170.214 36.5366 167.137 43.501 163.423C50.4654 159.709 56.1299 156.738 56.1285 156.803Z" fill="#FF725E"/>
<path d="M65.9251 155.762C65.9237 155.826 60.2512 158.902 53.2868 162.616C46.3224 166.331 40.6523 169.304 40.6537 169.24C40.6551 169.175 46.3276 166.099 53.292 162.385C60.2564 158.671 65.9263 155.71 65.9251 155.762Z" fill="#263238"/>
<path d="M86.2523 136.552C86.2509 136.616 80.5784 139.692 73.614 143.406C66.6496 147.121 60.9794 150.094 60.9808 150.03C60.9823 149.965 66.6547 146.889 73.6191 143.175C80.5835 139.461 86.2537 136.487 86.2523 136.552Z" fill="#263238"/>
<path d="M35.5666 171.953C35.5652 172.018 33.511 173.164 30.9816 174.513C28.4522 175.862 26.4003 176.906 26.4017 176.841C26.4032 176.777 28.4573 175.631 30.9867 174.282C33.5161 172.933 35.5677 171.902 35.5666 171.953Z" fill="#263238"/>
<path d="M16.5872 194.839C16.0006 195.266 15.4061 195.621 14.8151 195.898C14.2244 196.251 13.6335 196.528 13.0539 196.723C13.6392 196.306 14.2312 195.954 14.8201 195.673C15.4125 195.323 16.0048 195.044 16.5872 194.839Z" fill="#263238"/>
<path d="M16.4923 199.08C15.9057 199.506 15.3112 199.862 14.7202 200.139C14.1295 200.492 13.5385 200.768 12.959 200.964C13.5437 200.538 14.1363 200.184 14.7254 199.908C15.318 199.554 15.9109 199.276 16.4923 199.08Z" fill="#263238"/>
<path d="M16.3985 203.315C15.812 203.741 15.2174 204.097 14.6265 204.374C14.0357 204.727 13.4448 205.004 12.8653 205.199C13.4499 204.774 14.0426 204.419 14.6316 204.143C15.2243 203.789 15.8171 203.511 16.3985 203.315Z" fill="#263238"/>
<path d="M30.548 195.768C30.5466 195.832 28.4981 196.975 25.963 198.327C23.428 199.679 21.3817 200.72 21.3832 200.656C21.3846 200.591 23.4388 199.445 25.9682 198.096C28.4976 196.747 30.5495 195.704 30.548 195.768Z" fill="#FF725E"/>
<path d="M55.7476 173.934C55.7462 173.998 50.0737 177.074 43.115 180.785C36.1562 184.497 30.4804 187.473 30.4818 187.409C30.4832 187.344 36.1557 184.268 43.1201 180.554C50.0845 176.84 55.749 173.869 55.7476 173.934Z" fill="#FF725E"/>
<path d="M65.5443 172.893C65.5429 172.958 59.8704 176.034 52.906 179.748C45.9416 183.462 40.2714 186.436 40.2728 186.372C40.2742 186.307 45.9467 183.231 52.9111 179.517C59.8755 175.802 65.5457 172.829 65.5443 172.893Z" fill="#263238"/>
<path d="M35.1857 189.084C35.1843 189.148 33.1301 190.295 30.6007 191.644C28.0713 192.993 26.0194 194.036 26.0209 193.972C26.0223 193.908 28.0765 192.762 30.6059 191.412C33.1353 190.063 35.1872 189.02 35.1857 189.084Z" fill="#263238"/>
<path opacity="0.3" d="M132.05 50C132.69 50 132.79 50.78 132.79 51.25V142.59C132.733 143.504 132.464 144.392 132.006 145.185C131.548 145.978 130.913 146.654 130.15 147.16L6.65 218.02C6.37631 218.193 6.06308 218.292 5.74 218.31C5.1 218.31 5 217.53 5 217.07V125.73C5.05659 124.815 5.32439 123.925 5.78242 123.13C6.24044 122.336 6.87624 121.658 7.64 121.15L131.15 50.3C131.417 50.1204 131.728 50.0167 132.05 50ZM132.05 49C131.554 49.0189 131.071 49.1672 130.65 49.43L7.15 120.28C6.23587 120.879 5.47483 121.685 4.92782 122.631C4.38082 123.577 4.06306 124.639 4 125.73V217.07C4 218.49 4.71 219.31 5.74 219.31C6.23912 219.29 6.72469 219.142 7.15 218.88L130.65 148.03C131.561 147.431 132.319 146.626 132.864 145.682C133.41 144.737 133.727 143.679 133.79 142.59V51.25C133.79 49.82 133.08 49 132.05 49Z" fill="#F26A1B"/>
<path d="M442.37 120.28L318.89 49.43C317.16 48.43 315.75 49.24 315.75 51.25V142.59C315.814 143.679 316.131 144.737 316.676 145.682C317.221 146.626 317.979 147.43 318.89 148.03L442.37 218.88C444.1 219.88 445.51 219.07 445.51 217.07V125.73C445.448 124.64 445.132 123.579 444.587 122.632C444.042 121.686 443.283 120.88 442.37 120.28Z" fill="#F26A1B"/>
<path opacity="0.9" d="M442.37 120.28L318.89 49.43C317.16 48.43 315.75 49.24 315.75 51.25V142.59C315.814 143.679 316.131 144.737 316.676 145.682C317.221 146.626 317.979 147.43 318.89 148.03L442.37 218.88C444.1 219.88 445.51 219.07 445.51 217.07V125.73C445.448 124.64 445.132 123.579 444.587 122.632C444.042 121.686 443.283 120.88 442.37 120.28Z" fill="white"/>
<path opacity="0.3" d="M317.46 50C317.785 50.0179 318.099 50.1214 318.37 50.3L441.89 121.15C442.654 121.658 443.29 122.336 443.748 123.13C444.206 123.925 444.474 124.815 444.53 125.73V217.07C444.53 217.53 444.43 218.31 443.79 218.31C443.467 218.292 443.154 218.193 442.88 218.02L319.38 147.16C318.617 146.654 317.982 145.978 317.524 145.185C317.066 144.392 316.798 143.504 316.74 142.59V51.25C316.74 50.78 316.84 50 317.48 50M317.48 49C316.48 49 315.74 49.82 315.74 51.25V142.59C315.804 143.679 316.121 144.737 316.666 145.682C317.211 146.626 317.969 147.431 318.88 148.03L442.37 218.88C442.791 219.143 443.274 219.291 443.77 219.31C444.77 219.31 445.51 218.49 445.51 217.07V125.73C445.448 124.64 445.132 123.579 444.587 122.632C444.042 121.686 443.283 120.881 442.37 120.28L318.89 49.43C318.469 49.1672 317.986 49.0189 317.49 49H317.48Z" fill="#F26A1B"/>
<path opacity="0.3" d="M324.23 140.94V136.87L336.41 125.14L345.54 144.49L354.72 133.93L362.13 147.39L383.69 119.54L392.53 139.49L406.18 118.66L424.55 171.64L437.96 188.46V206.6L324.23 140.94Z" fill="#F26A1B"/>
<path d="M406.181 188.68C406.048 188.68 405.921 188.627 405.827 188.533C405.733 188.439 405.681 188.312 405.681 188.18V186.18C405.683 186.048 405.737 185.922 405.83 185.829C405.923 185.736 406.049 185.682 406.181 185.68C406.313 185.68 406.44 185.732 406.534 185.826C406.628 185.92 406.681 186.047 406.681 186.18V188.18C406.681 188.312 406.628 188.439 406.534 188.533C406.44 188.627 406.313 188.68 406.181 188.68ZM406.181 182.68C406.048 182.68 405.921 182.627 405.827 182.533C405.733 182.439 405.681 182.312 405.681 182.18V180.18C405.683 180.048 405.737 179.922 405.83 179.829C405.923 179.736 406.049 179.682 406.181 179.68C406.313 179.68 406.44 179.732 406.534 179.826C406.628 179.92 406.681 180.047 406.681 180.18V182.18C406.681 182.312 406.628 182.439 406.534 182.533C406.44 182.627 406.313 182.68 406.181 182.68ZM406.181 176.68C406.048 176.68 405.921 176.627 405.827 176.533C405.733 176.439 405.681 176.312 405.681 176.18V174.18C405.683 174.048 405.737 173.922 405.83 173.829C405.923 173.736 406.049 173.682 406.181 173.68C406.313 173.68 406.44 173.732 406.534 173.826C406.628 173.92 406.681 174.047 406.681 174.18V176.18C406.681 176.312 406.628 176.439 406.534 176.533C406.44 176.627 406.313 176.68 406.181 176.68ZM406.181 170.68C406.048 170.68 405.921 170.627 405.827 170.533C405.733 170.439 405.681 170.312 405.681 170.18V168.18C405.683 168.048 405.737 167.922 405.83 167.829C405.923 167.736 406.049 167.682 406.181 167.68C406.313 167.68 406.44 167.732 406.534 167.826C406.628 167.92 406.681 168.047 406.681 168.18V170.18C406.681 170.312 406.628 170.439 406.534 170.533C406.44 170.627 406.313 170.68 406.181 170.68ZM406.181 164.68C406.048 164.68 405.921 164.627 405.827 164.533C405.733 164.439 405.681 164.312 405.681 164.18V162.18C405.683 162.048 405.737 161.922 405.83 161.829C405.923 161.736 406.049 161.682 406.181 161.68C406.313 161.68 406.44 161.732 406.534 161.826C406.628 161.92 406.681 162.047 406.681 162.18V164.18C406.681 164.312 406.628 164.439 406.534 164.533C406.44 164.627 406.313 164.68 406.181 164.68ZM406.181 158.68C406.048 158.68 405.921 158.627 405.827 158.533C405.733 158.439 405.681 158.312 405.681 158.18V156.18C405.683 156.048 405.737 155.922 405.83 155.829C405.923 155.736 406.049 155.682 406.181 155.68C406.313 155.68 406.44 155.732 406.534 155.826C406.628 155.92 406.681 156.047 406.681 156.18V158.18C406.681 158.312 406.628 158.439 406.534 158.533C406.44 158.627 406.313 158.68 406.181 158.68ZM406.181 152.68C406.048 152.68 405.921 152.627 405.827 152.533C405.733 152.439 405.681 152.312 405.681 152.18V150.18C405.683 150.048 405.737 149.922 405.83 149.829C405.923 149.736 406.049 149.682 406.181 149.68C406.313 149.68 406.44 149.732 406.534 149.826C406.628 149.92 406.681 150.047 406.681 150.18V152.18C406.681 152.312 406.628 152.439 406.534 152.533C406.44 152.627 406.313 152.68 406.181 152.68ZM406.181 146.68C406.048 146.68 405.921 146.627 405.827 146.533C405.733 146.439 405.681 146.312 405.681 146.18V144.18C405.683 144.048 405.737 143.922 405.83 143.829C405.923 143.736 406.049 143.682 406.181 143.68C406.313 143.68 406.44 143.732 406.534 143.826C406.628 143.92 406.681 144.047 406.681 144.18V146.18C406.681 146.312 406.628 146.439 406.534 146.533C406.44 146.627 406.313 146.68 406.181 146.68ZM406.181 140.68C406.048 140.68 405.921 140.627 405.827 140.533C405.733 140.439 405.681 140.312 405.681 140.18V138.18C405.683 138.048 405.737 137.922 405.83 137.829C405.923 137.736 406.049 137.682 406.181 137.68C406.313 137.68 406.44 137.732 406.534 137.826C406.628 137.92 406.681 138.047 406.681 138.18V140.18C406.681 140.312 406.628 140.439 406.534 140.533C406.44 140.627 406.313 140.68 406.181 140.68ZM406.181 134.68C406.048 134.68 405.921 134.627 405.827 134.533C405.733 134.439 405.681 134.312 405.681 134.18V132.18C405.683 132.048 405.737 131.922 405.83 131.829C405.923 131.736 406.049 131.682 406.181 131.68C406.313 131.68 406.44 131.732 406.534 131.826C406.628 131.92 406.681 132.047 406.681 132.18V134.18C406.681 134.312 406.628 134.439 406.534 134.533C406.44 134.627 406.313 134.68 406.181 134.68ZM406.181 128.68C406.048 128.68 405.921 128.627 405.827 128.533C405.733 128.439 405.681 128.312 405.681 128.18V126.18C405.683 126.048 405.737 125.922 405.83 125.829C405.923 125.736 406.049 125.682 406.181 125.68C406.313 125.68 406.44 125.732 406.534 125.826C406.628 125.92 406.681 126.047 406.681 126.18V128.18C406.681 128.312 406.628 128.439 406.534 128.533C406.44 128.627 406.313 128.68 406.181 128.68ZM406.181 122.68C406.048 122.68 405.921 122.627 405.827 122.533C405.733 122.439 405.681 122.312 405.681 122.18V120.18C405.683 120.048 405.737 119.922 405.83 119.829C405.923 119.736 406.049 119.682 406.181 119.68C406.313 119.68 406.44 119.732 406.534 119.826C406.628 119.92 406.681 120.047 406.681 120.18V122.18C406.681 122.312 406.628 122.439 406.534 122.533C406.44 122.627 406.313 122.68 406.181 122.68Z" fill="white"/>
<path d="M383.771 171.74C383.638 171.74 383.511 171.688 383.417 171.594C383.323 171.5 383.271 171.373 383.271 171.24V169.24C383.271 169.108 383.323 168.98 383.417 168.887C383.511 168.793 383.638 168.74 383.771 168.74C383.903 168.74 384.03 168.793 384.124 168.887C384.218 168.98 384.271 169.108 384.271 169.24V171.24C384.271 171.373 384.218 171.5 384.124 171.594C384.03 171.688 383.903 171.74 383.771 171.74ZM383.771 165.74C383.638 165.74 383.511 165.688 383.417 165.594C383.323 165.5 383.271 165.373 383.271 165.24V163.24C383.271 163.108 383.323 162.98 383.417 162.887C383.511 162.793 383.638 162.74 383.771 162.74C383.903 162.74 384.03 162.793 384.124 162.887C384.218 162.98 384.271 163.108 384.271 163.24V165.24C384.271 165.373 384.218 165.5 384.124 165.594C384.03 165.688 383.903 165.74 383.771 165.74ZM383.771 159.74C383.638 159.74 383.511 159.688 383.417 159.594C383.323 159.5 383.271 159.373 383.271 159.24V157.24C383.271 157.108 383.323 156.98 383.417 156.887C383.511 156.793 383.638 156.74 383.771 156.74C383.903 156.74 384.03 156.793 384.124 156.887C384.218 156.98 384.271 157.108 384.271 157.24V159.24C384.271 159.373 384.218 159.5 384.124 159.594C384.03 159.688 383.903 159.74 383.771 159.74ZM383.771 153.74C383.638 153.74 383.511 153.688 383.417 153.594C383.323 153.5 383.271 153.373 383.271 153.24V151.24C383.271 151.108 383.323 150.98 383.417 150.887C383.511 150.793 383.638 150.74 383.771 150.74C383.903 150.74 384.03 150.793 384.124 150.887C384.218 150.98 384.271 151.108 384.271 151.24V153.24C384.271 153.373 384.218 153.5 384.124 153.594C384.03 153.688 383.903 153.74 383.771 153.74ZM383.771 147.74C383.638 147.74 383.511 147.688 383.417 147.594C383.323 147.5 383.271 147.373 383.271 147.24V145.24C383.271 145.108 383.323 144.98 383.417 144.887C383.511 144.793 383.638 144.74 383.771 144.74C383.903 144.74 384.03 144.793 384.124 144.887C384.218 144.98 384.271 145.108 384.271 145.24V147.24C384.271 147.373 384.218 147.5 384.124 147.594C384.03 147.688 383.903 147.74 383.771 147.74ZM383.771 141.74C383.638 141.74 383.511 141.688 383.417 141.594C383.323 141.5 383.271 141.373 383.271 141.24V139.24C383.271 139.108 383.323 138.98 383.417 138.887C383.511 138.793 383.638 138.74 383.771 138.74C383.903 138.74 384.03 138.793 384.124 138.887C384.218 138.98 384.271 139.108 384.271 139.24V141.24C384.271 141.373 384.218 141.5 384.124 141.594C384.03 141.688 383.903 141.74 383.771 141.74ZM383.771 135.74C383.638 135.74 383.511 135.688 383.417 135.594C383.323 135.5 383.271 135.373 383.271 135.24V133.24C383.271 133.108 383.323 132.98 383.417 132.887C383.511 132.793 383.638 132.74 383.771 132.74C383.903 132.74 384.03 132.793 384.124 132.887C384.218 132.98 384.271 133.108 384.271 133.24V135.24C384.271 135.373 384.218 135.5 384.124 135.594C384.03 135.688 383.903 135.74 383.771 135.74ZM383.771 129.74C383.638 129.74 383.511 129.688 383.417 129.594C383.323 129.5 383.271 129.373 383.271 129.24V127.24C383.271 127.108 383.323 126.98 383.417 126.887C383.511 126.793 383.638 126.74 383.771 126.74C383.903 126.74 384.03 126.793 384.124 126.887C384.218 126.98 384.271 127.108 384.271 127.24V129.24C384.271 129.373 384.218 129.5 384.124 129.594C384.03 129.688 383.903 129.74 383.771 129.74ZM383.771 123.74C383.638 123.74 383.511 123.688 383.417 123.594C383.323 123.5 383.271 123.373 383.271 123.24V121.24C383.271 121.108 383.323 120.98 383.417 120.887C383.511 120.793 383.638 120.74 383.771 120.74C383.903 120.74 384.03 120.793 384.124 120.887C384.218 120.98 384.271 121.108 384.271 121.24V123.24C384.271 123.373 384.218 123.5 384.124 123.594C384.03 123.688 383.903 123.74 383.771 123.74Z" fill="white"/>
<path d="M336.41 147.68C336.278 147.68 336.15 147.627 336.057 147.533C335.963 147.439 335.91 147.312 335.91 147.18V145.18C335.91 145.047 335.963 144.92 336.057 144.826C336.15 144.732 336.278 144.68 336.41 144.68C336.543 144.68 336.67 144.732 336.764 144.826C336.858 144.92 336.91 145.047 336.91 145.18V147.18C336.91 147.312 336.858 147.439 336.764 147.533C336.67 147.627 336.543 147.68 336.41 147.68ZM336.41 141.68C336.278 141.68 336.15 141.627 336.057 141.533C335.963 141.439 335.91 141.312 335.91 141.18V139.18C335.91 139.047 335.963 138.92 336.057 138.826C336.15 138.732 336.278 138.68 336.41 138.68C336.543 138.68 336.67 138.732 336.764 138.826C336.858 138.92 336.91 139.047 336.91 139.18V141.18C336.91 141.312 336.858 141.439 336.764 141.533C336.67 141.627 336.543 141.68 336.41 141.68ZM336.41 135.68C336.278 135.68 336.15 135.627 336.057 135.533C335.963 135.439 335.91 135.312 335.91 135.18V133.18C335.91 133.047 335.963 132.92 336.057 132.826C336.15 132.732 336.278 132.68 336.41 132.68C336.543 132.68 336.67 132.732 336.764 132.826C336.858 132.92 336.91 133.047 336.91 133.18V135.18C336.91 135.312 336.858 135.439 336.764 135.533C336.67 135.627 336.543 135.68 336.41 135.68ZM336.41 129.68C336.278 129.68 336.15 129.627 336.057 129.533C335.963 129.439 335.91 129.312 335.91 129.18V127.18C335.91 127.047 335.963 126.92 336.057 126.826C336.15 126.732 336.278 126.68 336.41 126.68C336.543 126.68 336.67 126.732 336.764 126.826C336.858 126.92 336.91 127.047 336.91 127.18V129.18C336.91 129.312 336.858 129.439 336.764 129.533C336.67 129.627 336.543 129.68 336.41 129.68Z" fill="white"/>
<path d="M354.46 156.06C354.328 156.057 354.202 156.004 354.109 155.91C354.016 155.817 353.963 155.691 353.96 155.56V153.56C353.96 153.427 354.013 153.3 354.106 153.206C354.2 153.112 354.327 153.06 354.46 153.06C354.593 153.06 354.72 153.112 354.814 153.206C354.907 153.3 354.96 153.427 354.96 153.56V155.56C354.96 155.692 354.907 155.819 354.814 155.913C354.72 156.007 354.593 156.06 354.46 156.06ZM354.46 150.06C354.328 150.057 354.202 150.004 354.109 149.91C354.016 149.817 353.963 149.691 353.96 149.56V147.56C353.96 147.427 354.013 147.3 354.106 147.206C354.2 147.112 354.327 147.06 354.46 147.06C354.593 147.06 354.72 147.112 354.814 147.206C354.907 147.3 354.96 147.427 354.96 147.56V149.56C354.96 149.692 354.907 149.819 354.814 149.913C354.72 150.007 354.593 150.06 354.46 150.06ZM354.46 144.06C354.328 144.057 354.202 144.004 354.109 143.91C354.016 143.817 353.963 143.691 353.96 143.56V141.56C353.96 141.427 354.013 141.3 354.106 141.206C354.2 141.112 354.327 141.06 354.46 141.06C354.593 141.06 354.72 141.112 354.814 141.206C354.907 141.3 354.96 141.427 354.96 141.56V143.56C354.96 143.692 354.907 143.819 354.814 143.913C354.72 144.007 354.593 144.06 354.46 144.06ZM354.46 138.06C354.328 138.057 354.202 138.004 354.109 137.91C354.016 137.817 353.963 137.691 353.96 137.56V135.56C353.96 135.427 354.013 135.3 354.106 135.206C354.2 135.112 354.327 135.06 354.46 135.06C354.593 135.06 354.72 135.112 354.814 135.206C354.907 135.3 354.96 135.427 354.96 135.56V137.56C354.96 137.692 354.907 137.819 354.814 137.913C354.72 138.007 354.593 138.06 354.46 138.06Z" fill="white"/>
<path opacity="0.3" d="M342.89 119.19C342.89 120.33 341.89 120.67 340.6 119.94L333.33 115.68C332.713 115.33 332.185 114.842 331.788 114.254C331.39 113.665 331.135 112.993 331.04 112.29C331.04 111.14 332.04 110.81 333.33 111.54L340.59 115.77C341.215 116.12 341.748 116.612 342.148 117.206C342.547 117.8 342.802 118.48 342.89 119.19Z" fill="#F26A1B"/>
<path opacity="0.3" d="M360.78 132.47C360.78 133.62 359.78 133.95 358.49 133.22L351.24 128.99C350.621 128.642 350.09 128.154 349.691 127.566C349.292 126.978 349.035 126.305 348.94 125.6C348.94 124.46 349.94 124.12 351.24 124.85L358.49 129.08C359.109 129.428 359.638 129.916 360.036 130.504C360.433 131.093 360.688 131.766 360.78 132.47Z" fill="#F26A1B"/>
<path opacity="0.3" d="M389.691 116.18C389.691 117.32 388.691 117.66 387.401 116.93L380.141 112.68C379.522 112.329 378.993 111.839 378.596 111.249C378.199 110.66 377.943 109.985 377.851 109.28C377.851 108.14 378.851 107.81 380.141 108.54L387.401 112.76C388.021 113.114 388.551 113.607 388.948 114.201C389.346 114.794 389.6 115.472 389.691 116.18Z" fill="#F26A1B"/>
<path opacity="0.3" d="M413.25 115.68C413.25 116.82 412.25 117.16 410.95 116.42L403.7 112.2C403.079 111.851 402.548 111.362 402.149 110.771C401.75 110.181 401.493 109.506 401.4 108.8C401.4 107.66 402.4 107.33 403.7 108.06L410.95 112.28C411.57 112.631 412.1 113.121 412.499 113.711C412.898 114.3 413.155 114.974 413.25 115.68Z" fill="#F26A1B"/>
<g filter="url(#filter0_d_3183_6697)">
<path d="M168.603 103.768C159.433 97.6097 159.45 87.6502 168.641 81.5232L214.285 51.0939C223.475 44.9669 238.359 44.9924 247.529 51.151L283.225 75.126C292.394 81.2845 292.377 91.244 283.186 97.3711L237.543 127.8C228.352 133.927 213.468 133.902 204.299 127.743L168.603 103.768Z" fill="url(#paint10_linear_3183_6697)"/>
<path d="M252.06 81.4481C245.392 83.3351 238.569 84.9513 231.659 86.3777C231.125 86.4854 230.591 86.5908 230.054 86.6939C232.25 81.691 234.925 76.7852 237.965 71.9808C239.385 69.8963 237.216 67.3497 233.788 67.1257C230.938 66.9077 228.368 68.2743 228.05 70.1809C227.175 74.9935 225.872 79.7594 224.278 84.4802C224.153 84.8441 224.022 85.2056 223.889 85.5683C218.508 81.7808 213.491 77.7669 208.783 73.5933C206.794 71.7227 202.416 71.7015 200.42 73.5752C198.778 75.0633 199.178 77.1436 201.286 78.3131C208.732 81.4798 215.786 85.1632 222.318 89.3818C222.586 89.5545 222.853 89.7271 223.119 89.901C223.422 90.0995 223.721 90.298 224.022 90.4977C224.074 90.533 224.126 90.5682 224.179 90.6034C224.228 90.6363 224.275 90.668 224.324 90.7009C224.328 90.7033 224.331 90.7056 224.335 90.708C224.655 90.9229 224.971 91.1402 225.288 91.3575C225.333 91.388 225.38 91.4198 225.424 91.4515C225.541 91.5302 225.653 91.61 225.769 91.6899C232.145 96.1223 237.7 100.91 242.463 105.967C244.204 107.38 247.31 107.657 249.54 106.564C252.347 105.235 252.334 102.307 249.544 100.967C243.328 97.8043 237.351 94.4347 231.715 90.8223C239.288 89.6069 246.977 88.7173 254.715 88.0877C258.127 87.8749 260.33 85.3484 258.899 83.2507C257.75 81.4908 254.689 80.681 252.06 81.4457L252.06 81.4481Z" fill="white"/>
<path d="M217.42 100.046C217.084 100.666 216.74 101.283 216.388 101.9C215.332 103.753 214.268 105.604 213.091 107.426C211.683 109.507 213.844 112.043 217.261 112.272C220.109 112.495 222.682 111.131 223.007 109.225C223.12 108.565 223.253 107.909 223.39 107.251C223.534 106.596 223.673 105.942 223.829 105.29C224.133 103.985 224.443 102.68 224.791 101.382C225.493 98.3015 219.14 97.1252 217.417 100.044L217.42 100.046Z" fill="white"/>
<path d="M208.07 90.1521C207.099 90.2659 206.126 90.3738 205.153 90.4771C202.223 90.7869 199.294 91.092 196.344 91.3175C192.942 91.5349 190.746 94.0522 192.167 96.1451C193.309 97.9074 196.367 98.7195 198.997 97.9606C199.907 97.698 200.826 97.4482 201.741 97.2008C202.66 96.9581 203.579 96.713 204.501 96.4797C206.342 96.006 208.186 95.5369 210.043 95.0925C214.382 93.9673 212.716 89.6996 208.071 90.1532L208.07 90.1521Z" fill="white"/>
</g>
<defs>
<filter id="filter0_d_3183_6697" x="152" y="39.9999" width="147.827" height="102.894" filterUnits="userSpaceOnUse" color-interpolation-filters="sRGB">
<feFlood flood-opacity="0" result="BackgroundImageFix"/>
<feColorMatrix in="SourceAlpha" type="matrix" values="0 0 0 0 0 0 0 0 0 0 0 0 0 0 0 0 0 0 127 0" result="hardAlpha"/>
<feOffset dy="4"/>
<feComposite in2="hardAlpha" operator="out"/>
<feColorMatrix type="matrix" values="0 0 0 0 0.384314 0 0 0 0 0.211765 0 0 0 0 0.121569 0 0 0 1 0"/>
<feBlend mode="normal" in2="BackgroundImageFix" result="effect1_dropShadow_3183_6697"/>
<feBlend mode="normal" in="SourceGraphic" in2="effect1_dropShadow_3183_6697" result="shape"/>
</filter>
<radialGradient id="paint0_radial_3183_6697" cx="0" cy="0" r="1" gradientUnits="userSpaceOnUse" gradientTransform="translate(41.6395 154.55) scale(28.2929 38.6502)">
<stop offset="0.370859" stop-color="#E24329" stop-opacity="0.1"/>
<stop offset="1" stop-color="#FCA326"/>
</radialGradient>
<radialGradient id="paint1_radial_3183_6697" cx="0" cy="0" r="1" gradientUnits="userSpaceOnUse" gradientTransform="translate(36.205 185.22) scale(12.9281 17.4526)">
<stop offset="0.370859" stop-color="#E24329" stop-opacity="0.1"/>
<stop offset="1" stop-color="#FCA326"/>
</radialGradient>
<radialGradient id="paint2_radial_3183_6697" cx="0" cy="0" r="1" gradientUnits="userSpaceOnUse" gradientTransform="translate(46.155 169) scale(24.5433 42.738)">
<stop offset="0.370859" stop-color="#E24329" stop-opacity="0.1"/>
<stop offset="1" stop-color="#FCA326"/>
</radialGradient>
<radialGradient id="paint3_radial_3183_6697" cx="0" cy="0" r="1" gradientUnits="userSpaceOnUse" gradientTransform="translate(273.38 21.1997) scale(22.8681 39.2132)">
<stop offset="0.370859" stop-color="#E24329" stop-opacity="0.1"/>
<stop offset="1" stop-color="#FCA326"/>
</radialGradient>
<radialGradient id="paint4_radial_3183_6697" cx="0" cy="0" r="1" gradientUnits="userSpaceOnUse" gradientTransform="translate(276.61 6.66001) scale(5.7129 9.69314)">
<stop offset="0.370859" stop-color="#E24329" stop-opacity="0.1"/>
<stop offset="1" stop-color="#FCA326"/>
</radialGradient>
<radialGradient id="paint5_radial_3183_6697" cx="0" cy="0" r="1" gradientUnits="userSpaceOnUse" gradientTransform="translate(151.99 29.0549) scale(19.493 52.4433)">
<stop offset="0.370859" stop-color="#E24329" stop-opacity="0.1"/>
<stop offset="1" stop-color="#FCA326"/>
</radialGradient>
<radialGradient id="paint6_radial_3183_6697" cx="0" cy="0" r="1" gradientUnits="userSpaceOnUse" gradientTransform="translate(183.134 17.4576) scale(12.3036 38.6444)">
<stop offset="0.370859" stop-color="#E24329" stop-opacity="0.1"/>
<stop offset="1" stop-color="#FCA326"/>
</radialGradient>
<radialGradient id="paint7_radial_3183_6697" cx="0" cy="0" r="1" gradientUnits="userSpaceOnUse" gradientTransform="translate(232.56 134.865) scale(191.44 330.118)">
<stop offset="0.370859" stop-color="#E24329" stop-opacity="0.1"/>
<stop offset="1" stop-color="#FCA326"/>
</radialGradient>
<radialGradient id="paint8_radial_3183_6697" cx="0" cy="0" r="1" gradientUnits="userSpaceOnUse" gradientTransform="translate(76.9303 66.77) scale(60.4218 110.712)">
<stop offset="0.370859" stop-color="#E24329" stop-opacity="0.1"/>
<stop offset="1" stop-color="#FCA326"/>
</radialGradient>
<radialGradient id="paint9_radial_3183_6697" cx="0" cy="0" r="1" gradientUnits="userSpaceOnUse" gradientTransform="translate(67.7712 42.2775) scale(2.55293 4.37488)">
<stop offset="0.370859" stop-color="#E24329" stop-opacity="0.1"/>
<stop offset="1" stop-color="#FCA326"/>
</radialGradient>
<linearGradient id="paint10_linear_3183_6697" x1="219.147" y1="84.9021" x2="199.387" y2="55.2626" gradientUnits="userSpaceOnUse">
<stop stop-color="#231F20"/>
<stop offset="1" stop-color="#F26A1B"/>
</linearGradient>
</defs>
</svg>
