<svg width="288" height="254" viewBox="0 0 288 254" fill="none" xmlns="http://www.w3.org/2000/svg">
<path opacity="0.3" d="M273.189 28.5234H248.969C243.236 28.5234 238.589 33.1707 238.589 38.9034V63.1234C238.589 68.8562 243.236 73.5034 248.969 73.5034H273.189C278.922 73.5034 283.569 68.8562 283.569 63.1234V38.9034C283.569 33.1707 278.922 28.5234 273.189 28.5234Z" stroke="url(#paint0_linear_3183_6890)"/>
<path d="M55.1594 1.2736H36.4094C30.6767 1.2736 26.0294 5.92088 26.0294 11.6536V30.4136C26.0294 36.1463 30.6767 40.7936 36.4094 40.7936H55.1594C60.8921 40.7936 65.5394 36.1463 65.5394 30.4136V11.6536C65.5394 5.92088 60.8921 1.2736 55.1594 1.2736Z" fill="white"/>
<path opacity="0.3" d="M53.6994 40.6436H49.6094H43.1494H39.1494C37.6537 40.6913 36.1565 40.6312 34.6694 40.4636C32.9945 40.1616 31.4213 39.4466 30.0925 38.3832C28.7637 37.3198 27.7212 35.9416 27.0594 34.3736C26.713 33.5137 26.4778 32.6131 26.3594 31.6936C26.277 30.7293 26.2502 29.761 26.2794 28.7936C26.2794 26.8036 26.2794 24.7636 26.2794 22.6636C26.2794 20.5636 26.2794 18.4136 26.2794 16.2136V12.8936C26.2403 11.7786 26.3174 10.6626 26.5094 9.56359C26.9985 7.29848 28.2486 5.26921 30.0517 3.81362C31.8548 2.35804 34.1021 1.56396 36.4194 1.56359H53.9594C55.0499 1.52802 56.1414 1.59498 57.2194 1.76359C59.2819 2.18518 61.1642 3.23282 62.6094 4.76359C63.3085 5.50087 63.8857 6.34477 64.3194 7.26359C64.7575 8.14509 65.0545 9.08994 65.1994 10.0636C65.3494 11.0194 65.4197 11.9861 65.4094 12.9536C65.4094 13.9236 65.4094 14.8736 65.4094 15.8036C65.4094 19.5336 65.4094 23.0036 65.4094 26.1736C65.4094 27.7636 65.4094 29.2736 65.4094 30.6936C65.3718 32.0223 65.0834 33.332 64.5594 34.5536C63.7006 36.5208 62.2454 38.1684 60.3994 39.2636C59.2459 39.9787 57.9544 40.4421 56.6094 40.6236C56.5996 40.6254 56.5898 40.6272 56.5801 40.629C56.5333 40.6377 56.5421 40.7588 56.5894 40.7536V40.7536C57.9557 40.6004 59.2744 40.1608 60.4594 39.4636C62.3798 38.389 63.9099 36.7329 64.8294 34.7336C65.3957 33.4736 65.7083 32.1144 65.7494 30.7336C65.7494 29.3036 65.7494 27.7936 65.7494 26.2036C65.7494 23.0336 65.7494 19.5636 65.7494 15.8336C65.7494 14.9036 65.7494 13.9836 65.7494 12.9836C65.7885 11.9814 65.7417 10.9778 65.6094 9.9836C65.4625 8.96186 65.1554 7.96968 64.6994 7.0436C64.2481 6.08478 63.6473 5.20379 62.9194 4.4336C61.4181 2.80607 59.4466 1.68744 57.2794 1.2336C56.1704 1.04064 55.044 0.966881 53.9194 1.01359H36.3994C33.9609 1.01313 31.5963 1.85024 29.7013 3.38482C27.8063 4.9194 26.4959 7.05833 25.9894 9.44359C25.7898 10.5754 25.7127 11.7253 25.7594 12.8736V15.8836C25.7594 18.0836 25.7594 20.2036 25.7594 22.3336C25.7594 24.4636 25.7594 26.4636 25.7594 28.4636C25.7359 29.4647 25.7693 30.4663 25.8594 31.4636C25.9826 32.4264 26.2348 33.3682 26.6094 34.2636C27.3095 35.8971 28.4091 37.3283 29.807 38.4257C31.205 39.5231 32.8564 40.2514 34.6094 40.5436C36.1166 40.7104 37.6345 40.7605 39.1494 40.6936H43.1494H49.6094L53.6994 40.6436ZM53.6994 40.6436H54.7594M54.7594 40.6436C54.879 40.6305 54.9998 40.6305 55.1194 40.6436H54.7594Z" stroke="url(#paint1_linear_3183_6890)"/>
<path d="M59.1794 169.604H34.9594C29.2267 169.604 24.5794 174.251 24.5794 179.984V204.214C24.5794 209.946 29.2267 214.594 34.9594 214.594H59.1794C64.9121 214.594 69.5594 209.946 69.5594 204.214V179.984C69.5594 174.251 64.9121 169.604 59.1794 169.604Z" fill="white"/>
<path opacity="0.3" d="M57.6294 214.504L52.9094 214.454L35.5394 214.364C33.6453 214.427 31.7693 213.978 30.1094 213.064C28.3198 212.055 26.8741 210.533 25.9594 208.694C25.4734 207.735 25.1555 206.7 25.0194 205.634C24.9031 204.518 24.863 203.395 24.8994 202.274C24.8994 199.984 24.8994 197.614 24.8994 195.194C24.8994 190.344 24.8994 185.254 24.8994 179.974C24.8981 178.642 25.1591 177.323 25.6674 176.092C26.1758 174.862 26.9216 173.743 27.8623 172.801C28.8029 171.858 29.92 171.11 31.1497 170.599C32.3795 170.088 33.6978 169.825 35.0294 169.824H59.1294C61.5199 169.799 63.8426 170.618 65.6897 172.136C67.5367 173.654 68.7899 175.774 69.2294 178.124C69.3945 179.229 69.4548 180.347 69.4094 181.464V184.774C69.4094 189.094 69.4094 193.104 69.4094 196.774C69.4094 198.604 69.4094 200.354 69.4094 202.004C69.5072 203.546 69.4165 205.094 69.1394 206.614C68.6722 208.584 67.6348 210.372 66.1568 211.756C64.6789 213.14 62.8259 214.057 60.8294 214.394C60.397 214.475 60.0462 214.523 59.7823 214.552C59.6753 214.564 59.652 214.443 59.7541 214.409V214.409C59.7642 214.405 59.7749 214.404 59.7856 214.404C60.192 214.409 60.5982 214.379 60.9994 214.314C62.5766 214.083 64.0791 213.491 65.3894 212.584C67.4787 211.129 68.968 208.965 69.5794 206.494C69.8802 204.953 69.991 203.381 69.9094 201.814C69.9094 200.164 69.9094 198.414 69.9094 196.584C69.9094 192.904 69.9094 188.894 69.9094 184.584V181.294C69.9611 180.151 69.9042 179.006 69.7394 177.874C69.3 175.475 68.0503 173.301 66.1994 171.714C64.2451 170.054 61.763 169.147 59.1994 169.154H35.0994C33.7 169.155 32.3145 169.432 31.0223 169.969C29.73 170.506 28.5562 171.293 27.5681 172.284C26.5799 173.274 25.7968 174.45 25.2634 175.744C24.73 177.038 24.4568 178.424 24.4594 179.824C24.4594 185.104 24.4594 190.194 24.4594 195.044C24.4594 197.464 24.4594 199.834 24.4594 202.124C24.4193 203.265 24.4594 204.408 24.5794 205.544C24.7299 206.656 25.068 207.735 25.5794 208.734C26.5332 210.645 28.0425 212.225 29.9094 213.264C31.6321 214.205 33.5779 214.661 35.5394 214.584L52.9094 214.504H57.6294ZM57.6294 214.504H58.8594M58.8594 214.504H59.2794C59.1398 214.518 58.999 214.518 58.8594 214.504Z" stroke="url(#paint2_linear_3183_6890)"/>
<path d="M86.8728 148.956C86.9772 148.954 86.9737 149.02 86.8695 149.014V149.014L84.8695 149.064L77.5695 149.144L53.4795 149.224H49.9995C49.4188 149.243 48.8375 149.223 48.2595 149.164C47.682 149.082 47.1194 148.917 46.5895 148.674C45.5929 148.198 44.7086 147.516 43.995 146.673C43.2814 145.83 42.7546 144.845 42.4495 143.784C42.1567 142.811 42.0118 141.799 42.0195 140.784C42.0195 139.784 42.0195 138.884 42.0195 137.974C42.0195 136.174 42.0195 134.484 42.0895 132.974C42.0895 129.974 42.1895 127.464 42.2195 125.674C42.2195 124.854 42.2395 124.187 42.2795 123.674V123.674C42.2761 123.555 42.3509 123.555 42.3395 123.674V123.674C42.3395 124.174 42.3395 124.84 42.3395 125.674C42.3395 127.464 42.3395 129.944 42.3395 132.974C42.3395 134.524 42.3395 136.214 42.3395 138.024C42.3395 139.834 42.1295 141.804 42.7695 143.694C43.0617 144.684 43.5578 145.602 44.226 146.389C44.8942 147.176 45.7198 147.815 46.6495 148.264C47.1405 148.48 47.6586 148.628 48.1895 148.704C48.7443 148.759 49.3022 148.779 49.8595 148.764H53.3395L77.4295 148.834L84.7295 148.914L86.7295 148.964C86.7773 148.96 86.825 148.958 86.8728 148.956Z" stroke="url(#paint3_linear_3183_6890)"/>
<path d="M51.7395 57.2535H11.5495C5.81681 57.2535 1.16953 61.9008 1.16953 67.6335V107.824C1.16953 113.556 5.81681 118.204 11.5495 118.204H51.7395C57.4722 118.204 62.1195 113.556 62.1195 107.824V67.6335C62.1195 61.9008 57.4722 57.2535 51.7395 57.2535Z" fill="white"/>
<path d="M49.4795 118.104L42.8995 118.054L18.6895 117.974C16.1395 117.904 13.4395 118.004 10.6895 117.904C9.27242 117.782 7.89686 117.363 6.65273 116.674C5.4086 115.985 4.32392 115.041 3.46953 113.904C2.57374 112.702 1.94938 111.32 1.63953 109.854C1.43563 108.302 1.36871 106.736 1.43953 105.174C1.43953 101.974 1.43953 98.6835 1.43953 95.3035C1.43953 88.5435 1.43953 81.4435 1.43953 74.0935V68.5235C1.41346 67.6032 1.47372 66.6825 1.61953 65.7735C1.79154 64.864 2.08764 63.9824 2.49953 63.1535C2.90317 62.3171 3.42891 61.5453 4.05953 60.8635C4.67996 60.161 5.40114 59.5544 6.19953 59.0635C7.80112 58.0505 9.65453 57.5066 11.5495 57.4935H50.4595C51.3103 57.4744 52.1616 57.5011 53.0095 57.5735C53.8359 57.6656 54.6464 57.8674 55.4195 58.1735C56.9281 58.7491 58.2775 59.6763 59.3559 60.8781C60.4342 62.0799 61.2102 63.5216 61.6195 65.0835C61.9331 66.609 62.0474 68.1687 61.9595 69.7235V74.3135C61.9595 80.3235 61.9595 85.9335 61.9595 91.0335C61.9595 96.1335 61.9595 100.764 61.9595 104.824C62.0936 106.696 61.986 108.578 61.6395 110.424C61.2549 111.951 60.5148 113.366 59.4795 114.554C58.0484 116.217 56.126 117.383 53.9895 117.884C53.4962 117.981 52.9994 118.059 52.5002 118.118C52.4375 118.125 52.4278 118.098 52.4896 118.086V118.086C52.4925 118.085 52.501 118.083 52.504 118.083C53.0745 118.067 53.6423 117.997 54.1995 117.874C56.3817 117.414 58.3546 116.255 59.8195 114.574C60.8947 113.374 61.6663 111.933 62.0695 110.374C62.435 108.511 62.5627 106.609 62.4495 104.714C62.4495 100.654 62.4495 96.0435 62.4495 90.9235C62.4495 85.8035 62.4495 80.2035 62.4495 74.2035V69.6135C62.5485 68.0221 62.4342 66.4246 62.1095 64.8635C61.6881 63.2264 60.8808 61.7139 59.7552 60.4526C58.6296 59.1913 57.2184 58.2178 55.6395 57.6135C54.8294 57.2984 53.9827 57.0867 53.1195 56.9835C52.2519 56.9039 51.3805 56.8739 50.5095 56.8935H11.6695C9.671 56.899 7.7139 57.4637 6.01954 58.5235C5.18208 59.0414 4.42419 59.678 3.76954 60.4135C3.11212 61.1356 2.55999 61.947 2.12952 62.8235C1.7013 63.6949 1.39188 64.6198 1.20952 65.5735C1.05596 66.5153 0.995674 67.4699 1.02953 68.4235V73.9935C1.02953 81.3435 1.02953 88.4435 1.02953 95.2035C1.02953 98.5835 1.02953 101.874 1.02953 105.074C0.952531 106.664 1.02619 108.257 1.24953 109.834C1.5689 111.368 2.22464 112.813 3.16953 114.064C4.05584 115.253 5.18447 116.24 6.48081 116.961C7.77715 117.681 9.21166 118.119 10.6895 118.244C13.4695 118.294 16.1295 118.244 18.6895 118.244L42.8995 118.154L49.4795 118.104ZM49.4795 118.104H51.1895H51.7795" stroke="url(#paint4_linear_3183_6890)"/>
<path d="M18.5695 99.8635H10.8795V105.754H18.5695V99.8635Z" fill="url(#paint5_linear_3183_6890)"/>
<path d="M28.2995 86.2835H20.6095V105.754H28.2995V86.2835Z" fill="url(#paint6_linear_3183_6890)"/>
<path d="M38.9995 94.6635H31.3095V105.744H38.9995V94.6635Z" fill="url(#paint7_linear_3183_6890)"/>
<path d="M49.2095 80.6335H41.5195V105.744H49.2095V80.6335Z" fill="url(#paint8_linear_3183_6890)"/>
<path d="M14.1995 93.7935C13.442 93.7935 12.7015 93.5689 12.0717 93.148C11.4418 92.7272 10.951 92.129 10.6611 91.4292C10.3712 90.7294 10.2953 89.9593 10.4431 89.2163C10.5909 88.4734 10.9557 87.7909 11.4913 87.2553C12.0269 86.7197 12.7094 86.3549 13.4523 86.2071C14.1953 86.0593 14.9654 86.1352 15.6652 86.4251C16.365 86.7149 16.9632 87.2058 17.384 87.8357C17.8049 88.4655 18.0295 89.206 18.0295 89.9635C18.0295 90.9793 17.626 91.9535 16.9077 92.6717C16.1895 93.39 15.2153 93.7935 14.1995 93.7935ZM14.1995 87.1435C13.6394 87.1435 13.0918 87.3097 12.6262 87.6212C12.1606 87.9326 11.7979 88.3751 11.584 88.8928C11.3701 89.4105 11.3146 89.9801 11.4247 90.5293C11.5347 91.0786 11.8052 91.5828 12.202 91.9782C12.5988 92.3735 13.104 92.6423 13.6536 92.7504C14.2032 92.8584 14.7725 92.801 15.2895 92.5852C15.8064 92.3695 16.2477 92.0052 16.5574 91.5385C16.8672 91.0718 17.0315 90.5237 17.0295 89.9635C17.0269 89.2147 16.7276 88.4974 16.1971 87.9689C15.6667 87.4403 14.9484 87.1435 14.1995 87.1435Z" fill="url(#paint9_linear_3183_6890)"/>
<path d="M25.1995 79.2335C24.442 79.2335 23.7015 79.0089 23.0717 78.588C22.4418 78.1672 21.951 77.569 21.6611 76.8692C21.3712 76.1694 21.2953 75.3993 21.4431 74.6563C21.5909 73.9134 21.9557 73.2309 22.4913 72.6953C23.0269 72.1597 23.7094 71.7949 24.4523 71.6471C25.1953 71.4993 25.9654 71.5752 26.6652 71.8651C27.365 72.1549 27.9632 72.6458 28.384 73.2757C28.8049 73.9055 29.0295 74.646 29.0295 75.4035C29.0269 76.4185 28.6225 77.3911 27.9048 78.1088C27.1871 78.8265 26.2145 79.2309 25.1995 79.2335ZM25.1995 72.5735C24.6398 72.5735 24.0926 72.7395 23.6273 73.0505C23.1619 73.3614 22.7991 73.8034 22.5849 74.3205C22.3707 74.8376 22.3147 75.4067 22.4239 75.9556C22.5331 76.5046 22.8026 77.0088 23.1984 77.4046C23.5942 77.8004 24.0984 78.0699 24.6474 78.1791C25.1964 78.2883 25.7654 78.2323 26.2825 78.0181C26.7996 77.8039 27.2416 77.4412 27.5526 76.9758C27.8635 76.5104 28.0295 75.9632 28.0295 75.4035C28.0295 75.0319 27.9563 74.6639 27.8141 74.3205C27.6719 73.9772 27.4634 73.6652 27.2006 73.4024C26.9378 73.1396 26.6259 72.9312 26.2825 72.7889C25.9392 72.6467 25.5712 72.5735 25.1995 72.5735Z" fill="url(#paint10_linear_3183_6890)"/>
<path d="M35.1995 88.4635C34.442 88.4635 33.7015 88.2389 33.0717 87.818C32.4418 87.3972 31.951 86.799 31.6611 86.0992C31.3712 85.3994 31.2953 84.6293 31.4431 83.8863C31.5909 83.1434 31.9557 82.4609 32.4913 81.9253C33.0269 81.3897 33.7094 81.0249 34.4523 80.8771C35.1953 80.7293 35.9654 80.8052 36.6652 81.0951C37.365 81.3849 37.9632 81.8758 38.384 82.5057C38.8049 83.1355 39.0295 83.876 39.0295 84.6335C39.0269 85.6485 38.6225 86.6211 37.9048 87.3388C37.1871 88.0565 36.2145 88.4609 35.1995 88.4635ZM35.1995 81.8135C34.6394 81.8135 34.0918 81.9798 33.6262 82.2912C33.1606 82.6026 32.7979 83.0451 32.584 83.5628C32.3701 84.0805 32.3146 84.6501 32.4247 85.1993C32.5347 85.7485 32.8052 86.2528 33.202 86.6482C33.5988 87.0436 34.104 87.3123 34.6536 87.4204C35.2032 87.5284 35.7725 87.4709 36.2895 87.2552C36.8064 87.0395 37.2477 86.6752 37.5574 86.2085C37.8672 85.7418 38.0315 85.1937 38.0295 84.6335C38.0295 83.883 37.7314 83.1631 37.2006 82.6324C36.6699 82.1017 35.9501 81.8035 35.1995 81.8035V81.8135Z" fill="url(#paint11_linear_3183_6890)"/>
<path d="M45.7895 75.0835C45.032 75.0835 44.2915 74.8589 43.6617 74.4381C43.0319 74.0172 42.541 73.419 42.2511 72.7192C41.9612 72.0194 41.8853 71.2493 42.0331 70.5063C42.1809 69.7634 42.5457 69.0809 43.0813 68.5453C43.6169 68.0097 44.2994 67.6449 45.0423 67.4971C45.7853 67.3493 46.5554 67.4252 47.2552 67.7151C47.955 68.0049 48.5532 68.4958 48.9741 69.1257C49.3949 69.7555 49.6195 70.496 49.6195 71.2535C49.6169 72.2685 49.2125 73.2411 48.4948 73.9588C47.7771 74.6765 46.8045 75.0809 45.7895 75.0835ZM45.7895 68.4235C45.2298 68.4235 44.6826 68.5895 44.2173 68.9005C43.7519 69.2114 43.3891 69.6534 43.1749 70.1705C42.9607 70.6876 42.9047 71.2567 43.0139 71.8056C43.1231 72.3546 43.3926 72.8589 43.7884 73.2546C44.1842 73.6504 44.6884 73.9199 45.2374 74.0291C45.7864 74.1383 46.3554 74.0823 46.8725 73.8681C47.3896 73.6539 47.8316 73.2912 48.1426 72.8258C48.4535 72.3604 48.6195 71.8132 48.6195 71.2535C48.609 70.5099 48.3062 69.8003 47.7766 69.2782C47.247 68.7561 46.5332 68.4635 45.7895 68.4635V68.4235Z" fill="url(#paint12_linear_3183_6890)"/>
<path d="M43.1213 73.3959L36.9458 82.1829L37.7639 82.7579L43.9395 73.9709L43.1213 73.3959Z" fill="url(#paint13_linear_3183_6890)"/>
<path d="M28.1295 77.7447L27.4068 78.4358L32.1065 83.3504L32.8292 82.6592L28.1295 77.7447Z" fill="url(#paint14_linear_3183_6890)"/>
<path d="M22.5781 77.9578L15.6491 86.8842L16.4391 87.4974L23.368 78.571L22.5781 77.9578Z" fill="url(#paint15_linear_3183_6890)"/>
<path d="M46.4395 118.914C46.4415 119.492 46.2717 120.058 45.9516 120.54C45.6315 121.021 45.1756 121.397 44.6416 121.619C44.1076 121.842 43.5197 121.9 42.9523 121.788C42.385 121.676 41.8638 121.397 41.4548 120.988C41.0458 120.579 40.7675 120.058 40.6552 119.491C40.5428 118.923 40.6015 118.335 40.8237 117.801C41.046 117.267 41.4218 116.812 41.9035 116.491C42.3852 116.171 42.9512 116.002 43.5295 116.004C44.3013 116.004 45.0415 116.31 45.5872 116.856C46.1329 117.402 46.4395 118.142 46.4395 118.914Z" fill="url(#paint16_linear_3183_6890)"/>
<path d="M116.559 104.534C116.419 104.534 116.299 96.1337 116.299 85.7737C116.299 75.4137 116.419 67.0137 116.559 67.0137C116.699 67.0137 116.819 75.4137 116.819 85.7737C116.819 96.1337 116.699 104.534 116.559 104.534Z" stroke="url(#paint17_linear_3183_6890)"/>
<path d="M116.559 191.52C116.419 191.52 116.299 183.12 116.299 172.76C116.299 162.4 116.419 154 116.559 154C116.699 154 116.819 162.4 116.819 172.76C116.819 183.12 116.699 191.52 116.559 191.52Z" stroke="url(#paint18_linear_3183_6890)"/>
<path d="M134.929 192H94.7394C89.0067 192 84.3594 196.647 84.3594 202.38V242.57C84.3594 248.303 89.0067 252.95 94.7394 252.95H134.929C140.662 252.95 145.309 248.303 145.309 242.57V202.38C145.309 196.647 140.662 192 134.929 192Z" stroke="url(#paint19_linear_3183_6890)"/>
<mask id="mask0_3183_6890" style="mask-type:alpha" maskUnits="userSpaceOnUse" x="95" y="202" width="40" height="40">
<rect x="95" y="202" width="40" height="40" fill="#D9D9D9"/>
</mask>
<g mask="url(#mask0_3183_6890)">
<path d="M108.188 216.417C108.511 216.417 108.796 216.292 109.044 216.044C109.293 215.796 109.417 215.514 109.417 215.199C109.417 214.869 109.293 214.584 109.044 214.342C108.796 214.101 108.514 213.981 108.199 213.981C107.869 213.981 107.584 214.101 107.343 214.342C107.101 214.584 106.981 214.865 106.981 215.188C106.981 215.511 107.101 215.796 107.343 216.044C107.584 216.292 107.865 216.417 108.188 216.417ZM108.188 223.218C108.511 223.218 108.796 223.097 109.044 222.856C109.293 222.615 109.417 222.33 109.417 222C109.417 221.67 109.293 221.385 109.044 221.144C108.796 220.903 108.514 220.782 108.199 220.782C107.869 220.782 107.584 220.903 107.343 221.144C107.101 221.385 106.981 221.67 106.981 222C106.981 222.33 107.101 222.615 107.343 222.856C107.584 223.097 107.865 223.218 108.188 223.218ZM108.188 230.019C108.511 230.019 108.796 229.899 109.044 229.657C109.293 229.416 109.417 229.135 109.417 228.812C109.417 228.489 109.293 228.204 109.044 227.956C108.796 227.707 108.514 227.583 108.199 227.583C107.869 227.583 107.584 227.707 107.343 227.956C107.101 228.204 106.981 228.486 106.981 228.801C106.981 229.131 107.101 229.416 107.343 229.657C107.584 229.899 107.865 230.019 108.188 230.019ZM104.103 235.333C103.42 235.333 102.843 235.098 102.373 234.627C101.902 234.157 101.667 233.58 101.667 232.897V211.102C101.667 210.42 101.902 209.843 102.373 209.372C102.843 208.902 103.42 208.667 104.103 208.667H120.996L128.333 216.004V232.897C128.333 233.58 128.098 234.157 127.628 234.627C127.157 235.098 126.58 235.333 125.898 235.333H104.103ZM104.103 233.923H125.898C126.197 233.923 126.442 233.827 126.635 233.635C126.827 233.442 126.923 233.197 126.923 232.897V216.89H120.122V210.077H104.103C103.803 210.077 103.558 210.173 103.365 210.365C103.173 210.558 103.077 210.803 103.077 211.102V232.897C103.077 233.197 103.173 233.442 103.365 233.635C103.558 233.827 103.803 233.923 104.103 233.923Z" fill="url(#paint20_linear_3183_6890)"/>
</g>
<path d="M132.619 66.7035L126.039 66.6535L101.829 66.5735C99.2792 66.5035 96.5792 66.6035 93.8292 66.5035C92.4127 66.3797 91.038 65.9596 89.7942 65.2705C88.5504 64.5814 87.4653 63.6387 86.6092 62.5035C85.7115 61.2991 85.087 59.9137 84.7792 58.4435C84.5753 56.8957 84.5084 55.333 84.5792 53.7735C84.5792 50.5735 84.5792 47.2735 84.5792 43.9035C84.5792 37.1435 84.5792 30.0435 84.5792 22.6935V17.1235C84.5531 16.2032 84.6134 15.2825 84.7592 14.3735C84.9312 13.464 85.2273 12.5824 85.6392 11.7535C86.0428 10.917 86.5686 10.1453 87.1992 9.46348C87.828 8.75512 88.5595 8.14501 89.3692 7.65347C90.9786 6.64394 92.8393 6.10687 94.7392 6.10347H133.699C134.55 6.07938 135.402 6.1061 136.249 6.18348C137.074 6.27692 137.884 6.47519 138.659 6.77348C140.168 7.35219 141.517 8.2816 142.595 9.48489C143.673 10.6882 144.449 12.1308 144.859 13.6935C145.173 15.2189 145.287 16.7786 145.199 18.3335V22.9535C145.199 28.9635 145.199 34.5735 145.199 39.6735C145.199 44.7735 145.199 49.4035 145.199 53.4635C145.318 55.3175 145.201 57.1792 144.849 59.0035C144.465 60.5311 143.724 61.9462 142.689 63.1335C141.258 64.7969 139.336 65.9629 137.199 66.4635C136.447 66.6218 135.685 66.7353 134.919 66.8035H135.589C136.161 66.7877 136.73 66.7174 137.289 66.5935C139.471 66.1335 141.444 64.975 142.909 63.2935C143.984 62.0936 144.756 60.6533 145.159 59.0935C145.525 57.2305 145.652 55.3286 145.539 53.4335C145.539 49.3735 145.539 44.7635 145.539 39.6435C145.539 34.5235 145.539 28.9235 145.539 22.9235V18.3335C145.638 16.7421 145.524 15.1446 145.199 13.5835C144.784 11.9498 143.985 10.4387 142.868 9.17598C141.752 7.91325 140.35 6.93532 138.779 6.32348C137.969 6.00838 137.122 5.79671 136.259 5.69347C135.392 5.61389 134.52 5.58385 133.649 5.60347H94.8092C92.8106 5.60901 90.8535 6.17363 89.1592 7.23348C88.3217 7.75135 87.5638 8.38798 86.9092 9.12348C86.2518 9.84558 85.6997 10.6569 85.2692 11.5335C84.841 12.4049 84.5315 13.3298 84.3492 14.2835C84.1956 15.2252 84.1353 16.1799 84.1692 17.1335V22.5335C84.1692 29.8835 84.1692 36.9835 84.1692 43.7435C84.1692 47.1135 84.1692 50.4135 84.1692 53.6135C84.0922 55.2035 84.1658 56.7973 84.3892 58.3735C84.8536 60.6019 86.0217 62.6221 87.7214 64.1362C89.421 65.6504 91.5622 66.5784 93.8292 66.7835C96.6092 66.8435 99.2692 66.7835 101.829 66.7835L126.039 66.7035H132.619ZM132.619 66.7035H134.329H134.919" stroke="url(#paint21_linear_3183_6890)"/>
<mask id="mask1_3183_6890" style="mask-type:alpha" maskUnits="userSpaceOnUse" x="95" y="16" width="40" height="40">
<rect x="95" y="16" width="40" height="40" fill="#D9D9D9"/>
</mask>
<g mask="url(#mask1_3183_6890)">
<path d="M103.077 22.4104V33.64V33.5642V49.5896V22.4104ZM104.103 51C103.42 51 102.843 50.7647 102.373 50.2942C101.902 49.8236 101.667 49.2469 101.667 48.5642V23.4358C101.667 22.7531 101.902 22.1764 102.373 21.7058C102.843 21.2353 103.42 21 104.103 21H117.763L125 28.2371V33.9571C124.779 33.8818 124.547 33.8197 124.305 33.7708C124.062 33.7219 123.824 33.6783 123.59 33.64V28.9017H117.058V22.4104H104.103C103.846 22.4104 103.611 22.5172 103.398 22.7308C103.184 22.9444 103.077 23.1794 103.077 23.4358V48.5642C103.077 48.8206 103.184 49.0556 103.398 49.2692C103.611 49.4828 103.846 49.5896 104.103 49.5896H114.672C114.927 49.8874 115.199 50.149 115.489 50.3746C115.779 50.5999 116.09 50.8083 116.422 51H104.103ZM122.5 48.3075C123.852 48.3075 124.991 47.8443 125.918 46.9179C126.844 45.9913 127.308 44.8519 127.308 43.5C127.308 42.1481 126.844 41.0088 125.918 40.0821C124.991 39.1557 123.852 38.6925 122.5 38.6925C121.148 38.6925 120.009 39.1557 119.082 40.0821C118.156 41.0088 117.693 42.1481 117.693 43.5C117.693 44.8519 118.156 45.9913 119.082 46.9179C120.009 47.8443 121.148 48.3075 122.5 48.3075ZM131 52.9721L126.377 48.3504C125.837 48.7821 125.24 49.1179 124.585 49.3579C123.931 49.5979 123.236 49.7179 122.5 49.7179C120.773 49.7179 119.305 49.1129 118.095 47.9029C116.887 46.6932 116.282 45.224 116.282 43.4954C116.282 41.7671 116.887 40.2994 118.097 39.0925C119.307 37.8856 120.776 37.2821 122.505 37.2821C124.233 37.2821 125.701 37.8865 126.908 39.0954C128.114 40.3046 128.718 41.7728 128.718 43.5C128.718 44.2358 128.598 44.931 128.358 45.5854C128.118 46.2401 127.782 46.8374 127.35 47.3771L131.972 52L131 52.9721Z" fill="url(#paint22_linear_3183_6890)"/>
</g>
<path d="M119.42 66.8036C119.42 67.3791 119.249 67.9417 118.929 68.4203C118.609 68.8988 118.155 69.2718 117.623 69.492C117.091 69.7123 116.506 69.7699 115.942 69.6576C115.377 69.5454 114.859 69.2682 114.452 68.8612C114.045 68.4543 113.768 67.9358 113.656 67.3713C113.543 66.8068 113.601 66.2217 113.821 65.6899C114.041 65.1582 114.414 64.7037 114.893 64.384C115.371 64.0642 115.934 63.8936 116.51 63.8936C117.281 63.8936 118.022 64.2001 118.567 64.7459C119.113 65.2916 119.42 66.0318 119.42 66.8036Z" fill="url(#paint23_linear_3183_6890)"/>
<path d="M119.42 191.91C119.42 192.486 119.249 193.048 118.929 193.527C118.609 194.005 118.155 194.378 117.623 194.598C117.091 194.819 116.506 194.876 115.942 194.764C115.377 194.652 114.859 194.375 114.452 193.968C114.045 193.561 113.768 193.042 113.656 192.478C113.543 191.913 113.601 191.328 113.821 190.796C114.041 190.265 114.414 189.81 114.893 189.49C115.371 189.171 115.934 189 116.51 189C117.281 189 118.022 189.307 118.567 189.852C119.113 190.398 119.42 191.138 119.42 191.91Z" fill="url(#paint24_linear_3183_6890)"/>
<path d="M191.26 89.0004C191.4 89.0004 191.52 95.9204 191.52 104.45C191.52 112.98 191.4 119.9 191.26 119.9C191.12 119.9 191 112.98 191 104.45C191 95.9204 191.11 89.0004 191.26 89.0004Z" stroke="url(#paint25_linear_3183_6890)"/>
<path d="M191.26 161C191.4 161 191.52 167.92 191.52 176.45C191.52 184.98 191.4 191.9 191.26 191.9C191.12 191.9 191 184.98 191 176.45C191 167.92 191.11 161 191.26 161Z" stroke="url(#paint26_linear_3183_6890)"/>
<path d="M274.179 161.244L267.599 161.194L243.389 161.114C240.839 161.054 238.139 161.144 235.389 161.054C233.969 160.923 232.592 160.495 231.348 159.797C230.104 159.1 229.021 158.148 228.169 157.004C227.272 155.803 226.647 154.421 226.339 152.954C226.136 151.402 226.069 149.836 226.139 148.274C226.139 145.074 226.139 141.784 226.139 138.404C226.139 131.644 226.139 124.544 226.139 117.194V111.634C226.113 110.71 226.174 109.786 226.319 108.874C226.493 107.965 226.789 107.083 227.199 106.254C227.603 105.417 228.129 104.645 228.759 103.964C229.382 103.264 230.103 102.658 230.899 102.164C232.509 101.154 234.37 100.617 236.269 100.614H275.179C276.03 100.594 276.881 100.621 277.729 100.694C278.556 100.786 279.366 100.987 280.139 101.294C281.648 101.869 282.997 102.796 284.076 103.998C285.154 105.2 285.93 106.642 286.339 108.204C286.653 109.732 286.767 111.295 286.679 112.854V117.434C286.679 123.444 286.679 129.044 286.679 134.154C286.679 139.264 286.679 143.884 286.679 147.944C286.813 149.816 286.706 151.698 286.359 153.544C285.975 155.071 285.235 156.486 284.199 157.674C282.768 159.337 280.846 160.503 278.709 161.004C278.209 161.107 277.704 161.187 277.197 161.245C277.14 161.252 277.142 161.342 277.199 161.344V161.344C277.771 161.327 278.34 161.26 278.899 161.144C281.081 160.675 283.052 159.514 284.519 157.834C285.595 156.634 286.366 155.193 286.769 153.634C287.135 151.771 287.263 149.869 287.149 147.974C287.149 143.914 287.149 139.304 287.149 134.184C287.149 129.064 287.149 123.464 287.149 117.464V112.704C287.249 111.109 287.134 109.508 286.809 107.944C286.388 106.306 285.581 104.794 284.455 103.533C283.329 102.271 281.918 101.298 280.339 100.694C279.529 100.378 278.683 100.167 277.819 100.064C276.952 99.984 276.08 99.954 275.209 99.9736H236.369C234.371 99.9791 232.414 100.544 230.719 101.604C229.882 102.121 229.124 102.758 228.469 103.494C227.812 104.216 227.26 105.027 226.829 105.904C226.401 106.775 226.092 107.7 225.909 108.654C225.756 109.599 225.695 110.557 225.729 111.514V117.074C225.729 124.424 225.729 131.524 225.729 138.284C225.729 141.664 225.729 144.954 225.729 148.154C225.652 149.744 225.726 151.337 225.949 152.914C226.415 155.142 227.583 157.163 229.282 158.679C230.981 160.194 233.122 161.125 235.389 161.334C238.169 161.394 240.829 161.334 243.389 161.334L267.599 161.244H274.179ZM274.179 161.244H275.889M275.889 161.244C276.279 161.244 276.479 161.244 276.479 161.244H275.889V161.244Z" stroke="url(#paint27_linear_3183_6890)"/>
<mask id="mask2_3183_6890" style="mask-type:alpha" maskUnits="userSpaceOnUse" x="237" y="112" width="40" height="41">
<rect x="237" y="112" width="40" height="40" fill="#D9D9D9"/>
</mask>
<g mask="url(#mask2_3183_6890)">
<path d="M257 126.696C259.36 126.696 261.757 126.36 264.191 125.688C266.626 125.016 268.142 124.267 268.739 123.442C268.144 122.588 266.641 121.814 264.229 121.119C261.817 120.425 259.407 120.077 257 120.077C254.606 120.077 252.187 120.411 249.743 121.079C247.299 121.747 245.781 122.491 245.19 123.313C245.76 124.204 247.251 124.991 249.662 125.673C252.073 126.355 254.519 126.696 257 126.696ZM266.242 146.054H267.395V139.133L270.449 142.207L271.271 141.385L266.807 136.921L262.344 141.385L263.167 142.207L266.242 139.133V146.054ZM266.807 148.026C265.001 148.026 263.459 147.393 262.183 146.126C260.907 144.859 260.269 143.315 260.269 141.494C260.269 139.683 260.907 138.139 262.183 136.863C263.459 135.587 265.001 134.949 266.807 134.949C268.615 134.949 270.156 135.587 271.432 136.863C272.708 138.139 273.346 139.683 273.346 141.494C273.346 143.315 272.708 144.859 271.432 146.126C270.156 147.393 268.615 148.026 266.807 148.026ZM256.839 143.92C256.887 144.178 256.955 144.423 257.045 144.654C257.135 144.886 257.226 145.112 257.317 145.334C255.738 145.35 254.138 145.255 252.517 145.048C250.896 144.842 249.43 144.52 248.12 144.082C246.809 143.645 245.739 143.089 244.91 142.417C244.081 141.744 243.667 140.943 243.667 140.013V123.667C243.667 122.282 244.966 121.103 247.566 120.129C250.165 119.154 253.31 118.667 257 118.667C260.69 118.667 263.835 119.154 266.434 120.129C269.034 121.103 270.333 122.282 270.333 123.667V131.869C270.112 131.777 269.885 131.697 269.654 131.629C269.422 131.56 269.179 131.502 268.923 131.455V125.286C267.506 126.158 265.741 126.835 263.629 127.317C261.517 127.798 259.306 128.035 256.994 128.028C254.59 128.028 252.338 127.784 250.238 127.295C248.139 126.807 246.418 126.137 245.077 125.286V132.618C246.414 133.432 248.121 134.08 250.199 134.563C252.277 135.045 254.542 135.287 256.994 135.287C257.279 135.287 257.562 135.282 257.842 135.273C258.123 135.264 258.406 135.255 258.691 135.246C258.515 135.48 258.35 135.714 258.194 135.95C258.038 136.186 257.893 136.435 257.759 136.697H257.427C255.228 136.724 253.029 136.537 250.83 136.137C248.631 135.738 246.714 135.022 245.077 133.989V140.381C245.355 140.894 245.857 141.367 246.583 141.798C247.309 142.229 248.19 142.602 249.227 142.917C250.263 143.233 251.432 143.481 252.735 143.661C254.037 143.842 255.405 143.928 256.839 143.92Z" fill="url(#paint28_linear_3183_6890)"/>
</g>
<path d="M227.299 132.084C227.299 132.224 220.379 132.344 211.849 132.344C203.319 132.344 196.399 132.224 196.399 132.084C196.399 131.944 203.319 131.824 211.849 131.824C220.379 131.824 227.299 131.934 227.299 132.084Z" stroke="url(#paint29_linear_3183_6890)"/>
<path d="M228.579 132.084C228.579 132.662 228.408 133.226 228.087 133.707C227.765 134.187 227.309 134.562 226.774 134.782C226.24 135.003 225.653 135.06 225.086 134.947C224.519 134.833 223.999 134.554 223.591 134.145C223.183 133.735 222.906 133.214 222.794 132.647C222.683 132.08 222.742 131.493 222.965 130.959C223.187 130.426 223.563 129.97 224.044 129.651C224.526 129.331 225.091 129.162 225.669 129.164C226.052 129.164 226.432 129.239 226.785 129.386C227.139 129.533 227.46 129.748 227.731 130.019C228.001 130.291 228.215 130.613 228.361 130.967C228.506 131.321 228.581 131.701 228.579 132.084Z" fill="url(#paint30_linear_3183_6890)"/>
<path d="M264.519 179.694H240.299C234.567 179.694 229.919 184.341 229.919 190.074V214.294C229.919 220.027 234.567 224.674 240.299 224.674H264.519C270.252 224.674 274.899 220.027 274.899 214.294V190.074C274.899 184.341 270.252 179.694 264.519 179.694Z" fill="white"/>
<path opacity="0.3" d="M262.929 224.624L258.209 224.574L240.839 224.494C238.941 224.553 237.063 224.1 235.399 223.184C233.611 222.177 232.168 220.654 231.259 218.814C230.775 217.854 230.454 216.82 230.309 215.754C230.197 214.641 230.16 213.522 230.199 212.404C230.199 210.111 230.199 207.747 230.199 205.314C230.199 200.464 230.199 195.374 230.199 190.104C230.196 188.771 230.455 187.45 230.962 186.217C231.469 184.984 232.214 183.863 233.155 182.918C234.096 181.973 235.214 181.224 236.445 180.712C237.676 180.199 238.996 179.935 240.329 179.934H264.429C266.877 179.914 269.251 180.773 271.119 182.354C272.898 183.858 274.099 185.933 274.519 188.224C274.693 189.328 274.757 190.447 274.709 191.564V194.854C274.709 199.164 274.709 203.184 274.709 206.854C274.709 208.684 274.709 210.434 274.709 212.084C274.807 213.626 274.716 215.174 274.439 216.694C273.867 219.108 272.448 221.237 270.439 222.694C269.161 223.604 267.695 224.215 266.149 224.484C265.661 224.572 265.274 224.62 265 224.645C264.955 224.649 264.955 224.705 264.999 224.704V224.704C265.411 224.701 265.822 224.668 266.229 224.604C267.807 224.381 269.311 223.792 270.619 222.884C272.709 221.425 274.198 219.258 274.809 216.784C275.112 215.247 275.219 213.678 275.129 212.114C275.129 210.464 275.129 208.714 275.129 206.884C275.129 203.214 275.129 199.194 275.129 194.884C275.129 193.804 275.129 192.714 275.129 191.594C275.183 190.451 275.122 189.305 274.949 188.174C274.516 185.773 273.266 183.597 271.409 182.014C269.453 180.36 266.972 179.456 264.409 179.464H240.309C237.526 179.485 234.862 180.594 232.886 182.554C230.911 184.515 229.781 187.171 229.739 189.954C229.739 195.224 229.739 200.314 229.739 205.164C229.739 207.591 229.739 209.954 229.739 212.254C229.708 213.396 229.751 214.538 229.869 215.674C230.026 216.785 230.364 217.863 230.869 218.864C231.83 220.772 233.342 222.347 235.209 223.384C236.934 224.322 238.878 224.781 240.839 224.714L258.209 224.624H262.929ZM262.929 224.624H264.159M264.159 224.624H264.569C264.433 224.637 264.296 224.637 264.159 224.624Z" stroke="url(#paint31_linear_3183_6890)"/>
<path d="M87.2595 175.094V107.684C87.2569 107.05 87.3793 106.422 87.6197 105.835C87.8601 105.249 88.2138 104.716 88.6606 104.266C89.1074 103.817 89.6384 103.459 90.2234 103.215C90.8083 102.971 91.4357 102.845 92.0695 102.844H196.919C197.553 102.845 198.181 102.971 198.766 103.215C199.351 103.459 199.882 103.817 200.328 104.266C200.775 104.716 201.129 105.249 201.369 105.835C201.61 106.422 201.732 107.05 201.729 107.684V175.094H87.2595Z" fill="#FCD4BD"/>
<path d="M194.63 110H93.9998V169.95H194.63V110Z" fill="white"/>
<g filter="url(#filter0_d_3183_6890)">
<rect x="124" y="121" width="41.1429" height="36" rx="12.8571" fill="url(#paint32_linear_3183_6890)"/>
<path d="M154.527 142.683C152.047 141.684 149.633 140.539 147.269 139.297C147.088 139.2 146.907 139.103 146.726 139.003C149.25 137.621 151.86 136.403 154.527 135.318C155.71 134.874 156.135 133.315 155.325 132.335C154.665 131.508 153.46 131.373 152.634 132.035C150.531 133.686 148.333 135.207 146.078 136.636C145.903 136.745 145.728 136.852 145.552 136.959C145.62 134.08 145.87 131.207 146.265 128.352C146.473 127.104 145.336 125.957 144.084 126.169C143.074 126.322 142.369 127.239 142.465 128.244C143.179 131.418 143.59 134.692 143.656 138.039C143.658 138.176 143.661 138.313 143.663 138.45C143.665 138.606 143.666 138.762 143.667 138.918C143.667 138.945 143.667 138.973 143.667 139C143.667 139.026 143.667 139.051 143.667 139.076C143.667 139.078 143.667 139.08 143.667 139.082C143.667 139.249 143.665 139.416 143.663 139.583C143.663 139.607 143.663 139.632 143.662 139.655C143.662 139.717 143.66 139.777 143.659 139.838C143.601 143.228 143.189 146.543 142.466 149.757C142.371 150.762 143.075 151.678 144.085 151.832C145.337 152.044 146.474 150.897 146.266 149.648C145.871 146.795 145.62 143.924 145.553 141.047C148.008 142.544 150.366 144.198 152.635 145.966C153.611 146.771 155.171 146.358 155.614 145.166C155.999 144.18 155.513 143.067 154.528 142.682L154.527 142.683Z" fill="white"/>
<path d="M138.221 140.927C137.891 141.082 137.561 141.234 137.229 141.382C136.23 141.831 135.231 142.277 134.214 142.682C133.035 143.128 132.612 144.68 133.417 145.659C134.075 146.488 135.28 146.625 136.107 145.965C136.394 145.736 136.684 145.515 136.976 145.294C137.269 145.076 137.56 144.857 137.855 144.643C138.442 144.212 139.032 143.784 139.629 143.367C141.012 142.347 139.809 140.235 138.221 140.926V140.927Z" fill="white"/>
<path d="M139.628 134.631C139.33 134.423 139.033 134.212 138.738 133.999C137.851 133.358 136.966 132.714 136.107 132.035C135.132 131.234 133.577 131.645 133.134 132.832C132.746 133.817 133.229 134.93 134.213 135.319C134.554 135.453 134.891 135.594 135.227 135.736C135.562 135.88 135.898 136.024 136.23 136.173C136.896 136.467 137.561 136.764 138.22 137.074C139.793 137.764 141.02 135.664 139.628 134.632V134.631Z" fill="white"/>
</g>
<path d="M210.169 26.7742H169.979C164.247 26.7742 159.599 31.4215 159.599 37.1542V77.3442C159.599 83.0769 164.247 87.7242 169.979 87.7242H210.169C215.902 87.7242 220.549 83.0769 220.549 77.3442V37.1542C220.549 31.4215 215.902 26.7742 210.169 26.7742Z" fill="white"/>
<path d="M207.889 87.6242L201.309 87.5742L177.099 87.4942C174.559 87.4242 171.859 87.5242 169.099 87.4242C167.684 87.299 166.312 86.8783 165.07 86.1893C163.828 85.5003 162.744 84.5583 161.889 83.4242C160.992 82.2199 160.367 80.8344 160.059 79.3642C159.85 77.8169 159.783 76.2537 159.859 74.6942C159.859 71.4942 159.859 68.1942 159.859 64.8142C159.859 58.0542 159.859 50.9642 159.859 43.6142V38.0442C159.834 37.1206 159.894 36.1967 160.039 35.2842C160.208 34.3771 160.505 33.4985 160.919 32.6742C161.322 31.8341 161.847 31.0588 162.479 30.3742C163.1 29.6748 163.821 29.0715 164.619 28.5842C166.229 27.5751 168.089 27.0349 169.989 27.0242H208.939C209.79 26.9953 210.642 27.022 211.489 27.1042C212.314 27.2001 213.124 27.3983 213.899 27.6942C215.408 28.27 216.758 29.1986 217.835 30.4025C218.912 31.6064 219.685 33.0505 220.089 34.6142C220.411 36.1385 220.529 37.6989 220.439 39.2542V43.8442C220.439 49.8442 220.439 55.4442 220.439 60.5542C220.439 65.6642 220.439 70.2842 220.439 74.3542C220.568 76.2236 220.461 78.1018 220.119 79.9442C219.733 81.4743 218.993 82.8923 217.959 84.0842C216.528 85.7476 214.606 86.9137 212.469 87.4142C211.926 87.5214 211.378 87.6053 210.828 87.6656C210.773 87.6716 210.775 87.6989 210.829 87.6942V87.6942C211.401 87.6727 211.97 87.6024 212.529 87.4842C214.404 87.0786 216.13 86.1639 217.519 84.8407C218.907 83.5175 219.904 81.8371 220.399 79.9842C220.766 78.1214 220.891 76.219 220.769 74.3242C220.769 70.2542 220.769 65.6342 220.769 60.5242C220.769 55.4142 220.769 49.8142 220.769 43.8142C220.769 42.3042 220.769 40.7742 220.769 39.2242C220.868 37.6295 220.753 36.0288 220.429 34.4642C220.01 32.8393 219.212 31.3366 218.102 30.0784C216.992 28.8202 215.599 27.8422 214.039 27.2242C213.228 26.9138 212.382 26.7023 211.519 26.5942C210.651 26.5229 209.78 26.4962 208.909 26.5142H170.069C168.07 26.5233 166.113 27.0914 164.419 28.1542C163.582 28.6721 162.824 29.3087 162.169 30.0442C161.512 30.7663 160.96 31.5777 160.529 32.4542C160.101 33.3256 159.792 34.2506 159.609 35.2042C159.456 36.146 159.395 37.1006 159.429 38.0542V43.5042C159.429 50.8542 159.429 57.9442 159.429 64.7042C159.429 68.0842 159.429 71.3842 159.429 74.5842C159.362 76.1743 159.436 77.7671 159.649 79.3442C159.974 80.8789 160.633 82.3231 161.579 83.5742C162.466 84.7625 163.595 85.7493 164.891 86.4698C166.188 87.1903 167.622 87.628 169.099 87.7542C171.879 87.8142 174.539 87.7542 177.099 87.7542L201.309 87.6742L207.889 87.6242ZM207.889 87.6242H209.599C209.989 87.6242 210.179 87.6242 210.179 87.6242" stroke="url(#paint33_linear_3183_6890)"/>
<path d="M213.119 59.6542C214.649 65.0142 211.119 70.2542 205.669 70.2542H176.789C175.681 70.2595 174.586 70.0091 173.591 69.5227C172.595 69.0363 171.725 68.3268 171.047 67.4494C170.37 66.5721 169.905 65.5504 169.686 64.4638C169.468 63.3772 169.503 62.255 169.789 61.1842C169.856 60.9453 169.94 60.7114 170.039 60.4842C170.715 58.9142 171.899 57.6169 173.4 56.8008C174.902 55.9846 176.634 55.697 178.319 55.9842C178.676 53.0481 180.015 50.3188 182.118 48.2391C184.221 46.1594 186.965 44.8513 189.905 44.5271C192.845 44.2029 195.808 44.8816 198.314 46.453C200.82 48.0245 202.721 50.3965 203.709 53.1842C203.709 53.1842 211.199 52.7842 213.119 59.6542Z" fill="url(#paint34_linear_3183_6890)"/>
<path d="M188.689 75.3742V64.2942H184.349C184.233 64.2943 184.119 64.2622 184.02 64.2015C183.921 64.1408 183.841 64.0539 183.788 63.9505C183.735 63.847 183.712 63.7309 183.721 63.6151C183.73 63.4993 183.771 63.3883 183.839 63.2942L190.989 53.2042C191.047 53.1257 191.122 53.0618 191.209 53.0178C191.296 52.9738 191.392 52.9508 191.489 52.9508C191.587 52.9508 191.683 52.9738 191.77 53.0178C191.856 53.0618 191.932 53.1257 191.989 53.2042L199.129 63.2042C199.197 63.2982 199.238 63.4093 199.247 63.5251C199.257 63.6409 199.233 63.757 199.181 63.8605C199.128 63.9639 199.047 64.0508 198.948 64.1115C198.849 64.1721 198.735 64.2042 198.619 64.2042H194.389V75.3642L188.689 75.3742Z" fill="white"/>
<path d="M193.749 88.1542C193.751 88.7322 193.582 89.2977 193.262 89.7792C192.942 90.2607 192.487 90.6365 191.954 90.8591C191.42 91.0816 190.833 91.1409 190.266 91.0293C189.699 90.9178 189.177 90.6405 188.768 90.2325C188.359 89.8246 188.08 89.3043 187.966 88.7376C187.853 88.1709 187.91 87.5833 188.131 87.0491C188.351 86.515 188.726 86.0583 189.206 85.737C189.686 85.4157 190.251 85.2442 190.829 85.2442C191.602 85.2442 192.343 85.5505 192.891 86.0959C193.438 86.6414 193.747 87.3815 193.749 88.1542Z" fill="url(#paint35_linear_3183_6890)"/>
<path d="M210.169 183.265H169.979C164.247 183.265 159.599 187.913 159.599 193.645V233.835C159.599 239.568 164.247 244.215 169.979 244.215H210.169C215.902 244.215 220.549 239.568 220.549 233.835V193.645C220.549 187.913 215.902 183.265 210.169 183.265Z" fill="white"/>
<mask id="mask3_3183_6890" style="mask-type:alpha" maskUnits="userSpaceOnUse" x="168" y="194" width="40" height="40">
<rect x="168" y="194" width="40" height="40" fill="#D9D9D9"/>
</mask>
<g mask="url(#mask3_3183_6890)">
<path d="M193.88 228.167V223.092H187.295V206.297H182.126V211.425H172.167V199.833H182.126V204.887H193.88V199.833H203.833V211.425H193.88V206.297H188.705V221.682H193.88V216.553H203.833V228.167H193.88ZM195.29 210.015H202.423V201.244H195.29V210.015ZM195.29 226.756H202.423V217.964H195.29V226.756ZM173.577 210.015H180.716V201.244H173.577V210.015Z" fill="url(#paint36_linear_3183_6890)"/>
</g>
<path d="M207.889 244.115L201.309 244.065L177.099 243.985C174.559 243.915 171.859 244.015 169.099 243.915C167.684 243.79 166.312 243.37 165.07 242.681C163.828 241.992 162.744 241.05 161.889 239.915C160.992 238.711 160.367 237.326 160.059 235.855C159.85 234.308 159.783 232.745 159.859 231.185C159.859 227.985 159.859 224.685 159.859 221.305C159.859 214.545 159.859 207.455 159.859 200.105V194.535C159.834 193.612 159.894 192.688 160.039 191.775C160.208 190.868 160.505 189.99 160.919 189.165C161.322 188.325 161.847 187.55 162.479 186.865C163.1 186.166 163.821 185.563 164.619 185.075C166.229 184.066 168.089 183.526 169.989 183.515H208.939C209.79 183.486 210.642 183.513 211.489 183.595C212.314 183.691 213.124 183.889 213.899 184.185C215.408 184.761 216.758 185.69 217.835 186.894C218.912 188.098 219.685 189.542 220.089 191.105C220.411 192.63 220.529 194.19 220.439 195.745V200.335C220.439 206.335 220.439 211.935 220.439 217.045C220.439 222.155 220.439 226.775 220.439 230.845C220.568 232.715 220.461 234.593 220.119 236.435C219.733 237.965 218.993 239.384 217.959 240.575C216.528 242.239 214.606 243.405 212.469 243.905C211.926 244.013 211.378 244.096 210.828 244.157C210.773 244.163 210.775 244.19 210.829 244.185V244.185C211.401 244.164 211.97 244.094 212.529 243.975C214.404 243.57 216.13 242.655 217.519 241.332C218.907 240.009 219.904 238.328 220.399 236.475C220.766 234.613 220.891 232.71 220.769 230.815C220.769 226.745 220.769 222.125 220.769 217.015C220.769 211.905 220.769 206.305 220.769 200.305C220.769 198.795 220.769 197.265 220.769 195.715C220.868 194.121 220.753 192.52 220.429 190.955C220.01 189.331 219.212 187.828 218.102 186.57C216.992 185.311 215.599 184.333 214.039 183.715C213.228 183.405 212.382 183.193 211.519 183.085C210.651 183.014 209.78 182.987 208.909 183.005H170.069C168.07 183.015 166.113 183.583 164.419 184.645C163.582 185.163 162.824 185.8 162.169 186.535C161.512 187.258 160.96 188.069 160.529 188.945C160.101 189.817 159.792 190.742 159.609 191.695C159.456 192.637 159.395 193.592 159.429 194.545V199.995C159.429 207.345 159.429 214.435 159.429 221.195C159.429 224.575 159.429 227.875 159.429 231.075C159.362 232.665 159.436 234.258 159.649 235.835C159.974 237.37 160.633 238.814 161.579 240.065C162.466 241.254 163.595 242.241 164.891 242.961C166.188 243.681 167.622 244.119 169.099 244.245C171.879 244.305 174.539 244.245 177.099 244.245L201.309 244.165L207.889 244.115ZM207.889 244.115H209.599C209.989 244.115 210.179 244.115 210.179 244.115" stroke="url(#paint37_linear_3183_6890)"/>
<path d="M194.749 182.91C194.751 183.488 194.582 184.053 194.262 184.535C193.942 185.016 193.487 185.392 192.954 185.615C192.42 185.837 191.833 185.897 191.266 185.785C190.699 185.674 190.177 185.396 189.768 184.988C189.359 184.58 189.08 184.06 188.966 183.493C188.853 182.927 188.91 182.339 189.131 181.805C189.351 181.271 189.725 180.814 190.206 180.493C190.686 180.172 191.251 180 191.829 180C192.602 180 193.343 180.306 193.89 180.852C194.438 181.397 194.747 182.137 194.749 182.91Z" fill="url(#paint38_linear_3183_6890)"/>
<defs>
<filter id="filter0_d_3183_6890" x="124" y="121" width="41.1429" height="38.5714" filterUnits="userSpaceOnUse" color-interpolation-filters="sRGB">
<feFlood flood-opacity="0" result="BackgroundImageFix"/>
<feColorMatrix in="SourceAlpha" type="matrix" values="0 0 0 0 0 0 0 0 0 0 0 0 0 0 0 0 0 0 127 0" result="hardAlpha"/>
<feOffset dy="2.57143"/>
<feComposite in2="hardAlpha" operator="out"/>
<feColorMatrix type="matrix" values="0 0 0 0 0.384314 0 0 0 0 0.211765 0 0 0 0 0.121569 0 0 0 1 0"/>
<feBlend mode="normal" in2="BackgroundImageFix" result="effect1_dropShadow_3183_6890"/>
<feBlend mode="normal" in="SourceGraphic" in2="effect1_dropShadow_3183_6890" result="shape"/>
</filter>
<linearGradient id="paint0_linear_3183_6890" x1="283.292" y1="-16.4691" x2="238.859" y2="-16.4657" gradientUnits="userSpaceOnUse">
<stop stop-color="#F26A1B"/>
<stop offset="1" stop-color="#FDE2D3"/>
</linearGradient>
<linearGradient id="paint1_linear_3183_6890" x1="65.5165" y1="-38.8165" x2="25.9863" y2="-38.8135" gradientUnits="userSpaceOnUse">
<stop stop-color="#F26A1B"/>
<stop offset="1" stop-color="#FDE2D3"/>
</linearGradient>
<linearGradient id="paint2_linear_3183_6890" x1="69.6554" y1="123.701" x2="24.7173" y2="123.704" gradientUnits="userSpaceOnUse">
<stop stop-color="#F26A1B"/>
<stop offset="1" stop-color="#FDE2D3"/>
</linearGradient>
<linearGradient id="paint3_linear_3183_6890" x1="87.2793" y1="96.729" x2="42.2925" y2="96.735" gradientUnits="userSpaceOnUse">
<stop stop-color="#F26A1B"/>
<stop offset="1" stop-color="#FDE2D3"/>
</linearGradient>
<linearGradient id="paint4_linear_3183_6890" x1="62.1111" y1="-4.50747" x2="1.36896" y2="-4.5028" gradientUnits="userSpaceOnUse">
<stop stop-color="#F26A1B"/>
<stop offset="1" stop-color="#FDE2D3"/>
</linearGradient>
<linearGradient id="paint5_linear_3183_6890" x1="14.7245" y1="99.8635" x2="14.7245" y2="105.754" gradientUnits="userSpaceOnUse">
<stop stop-color="#4A4340"/>
<stop offset="1" stop-color="#D05E1C"/>
</linearGradient>
<linearGradient id="paint6_linear_3183_6890" x1="24.4545" y1="86.2835" x2="24.4545" y2="105.754" gradientUnits="userSpaceOnUse">
<stop stop-color="#4A4340"/>
<stop offset="1" stop-color="#D05E1C"/>
</linearGradient>
<linearGradient id="paint7_linear_3183_6890" x1="35.1545" y1="94.6635" x2="35.1545" y2="105.744" gradientUnits="userSpaceOnUse">
<stop stop-color="#4A4340"/>
<stop offset="1" stop-color="#D05E1C"/>
</linearGradient>
<linearGradient id="paint8_linear_3183_6890" x1="45.3645" y1="80.6335" x2="45.3645" y2="105.744" gradientUnits="userSpaceOnUse">
<stop stop-color="#4A4340"/>
<stop offset="1" stop-color="#D05E1C"/>
</linearGradient>
<linearGradient id="paint9_linear_3183_6890" x1="14.1995" y1="86.1335" x2="14.1995" y2="93.7935" gradientUnits="userSpaceOnUse">
<stop stop-color="#4A4340"/>
<stop offset="1" stop-color="#D05E1C"/>
</linearGradient>
<linearGradient id="paint10_linear_3183_6890" x1="25.1995" y1="71.5735" x2="25.1995" y2="79.2335" gradientUnits="userSpaceOnUse">
<stop stop-color="#4A4340"/>
<stop offset="1" stop-color="#D05E1C"/>
</linearGradient>
<linearGradient id="paint11_linear_3183_6890" x1="35.1995" y1="80.8035" x2="35.1995" y2="88.4635" gradientUnits="userSpaceOnUse">
<stop stop-color="#4A4340"/>
<stop offset="1" stop-color="#D05E1C"/>
</linearGradient>
<linearGradient id="paint12_linear_3183_6890" x1="45.7895" y1="67.4235" x2="45.7895" y2="75.0835" gradientUnits="userSpaceOnUse">
<stop stop-color="#4A4340"/>
<stop offset="1" stop-color="#D05E1C"/>
</linearGradient>
<linearGradient id="paint13_linear_3183_6890" x1="40.0335" y1="77.7894" x2="40.8517" y2="78.3644" gradientUnits="userSpaceOnUse">
<stop stop-color="#4A4340"/>
<stop offset="1" stop-color="#D05E1C"/>
</linearGradient>
<linearGradient id="paint14_linear_3183_6890" x1="27.7681" y1="78.0903" x2="32.4679" y2="83.0048" gradientUnits="userSpaceOnUse">
<stop stop-color="#4A4340"/>
<stop offset="1" stop-color="#D05E1C"/>
</linearGradient>
<linearGradient id="paint15_linear_3183_6890" x1="19.1136" y1="82.421" x2="19.9035" y2="83.0342" gradientUnits="userSpaceOnUse">
<stop stop-color="#4A4340"/>
<stop offset="1" stop-color="#D05E1C"/>
</linearGradient>
<linearGradient id="paint16_linear_3183_6890" x1="43.5195" y1="116.003" x2="43.5195" y2="121.843" gradientUnits="userSpaceOnUse">
<stop stop-color="#4A4340"/>
<stop offset="1" stop-color="#D05E1C"/>
</linearGradient>
<linearGradient id="paint17_linear_3183_6890" x1="116.816" y1="29.4832" x2="116.302" y2="29.4832" gradientUnits="userSpaceOnUse">
<stop stop-color="#F26A1B"/>
<stop offset="1" stop-color="#FDE2D3"/>
</linearGradient>
<linearGradient id="paint18_linear_3183_6890" x1="116.816" y1="116.47" x2="116.302" y2="116.47" gradientUnits="userSpaceOnUse">
<stop stop-color="#F26A1B"/>
<stop offset="1" stop-color="#FDE2D3"/>
</linearGradient>
<linearGradient id="paint19_linear_3183_6890" x1="144.934" y1="131.033" x2="84.7251" y2="131.038" gradientUnits="userSpaceOnUse">
<stop stop-color="#F26A1B"/>
<stop offset="1" stop-color="#FDE2D3"/>
</linearGradient>
<linearGradient id="paint20_linear_3183_6890" x1="115" y1="208.667" x2="115" y2="235.333" gradientUnits="userSpaceOnUse">
<stop stop-color="#4A4340"/>
<stop offset="1" stop-color="#D05E1C"/>
</linearGradient>
<linearGradient id="paint21_linear_3183_6890" x1="145.201" y1="-55.6319" x2="84.5083" y2="-55.6272" gradientUnits="userSpaceOnUse">
<stop stop-color="#F26A1B"/>
<stop offset="1" stop-color="#FDE2D3"/>
</linearGradient>
<linearGradient id="paint22_linear_3183_6890" x1="116.819" y1="21" x2="116.819" y2="52.9721" gradientUnits="userSpaceOnUse">
<stop stop-color="#4A4340"/>
<stop offset="1" stop-color="#D05E1C"/>
</linearGradient>
<linearGradient id="paint23_linear_3183_6890" x1="116.51" y1="63.8936" x2="116.51" y2="69.7136" gradientUnits="userSpaceOnUse">
<stop stop-color="#4A4340"/>
<stop offset="1" stop-color="#D05E1C"/>
</linearGradient>
<linearGradient id="paint24_linear_3183_6890" x1="116.51" y1="189" x2="116.51" y2="194.82" gradientUnits="userSpaceOnUse">
<stop stop-color="#4A4340"/>
<stop offset="1" stop-color="#D05E1C"/>
</linearGradient>
<linearGradient id="paint25_linear_3183_6890" x1="190.48" y1="89.1906" x2="190.619" y2="119.714" gradientUnits="userSpaceOnUse">
<stop stop-color="#F26A1B"/>
<stop offset="1" stop-color="#FDE2D3"/>
</linearGradient>
<linearGradient id="paint26_linear_3183_6890" x1="190.48" y1="161.191" x2="190.619" y2="191.714" gradientUnits="userSpaceOnUse">
<stop stop-color="#F26A1B"/>
<stop offset="1" stop-color="#FDE2D3"/>
</linearGradient>
<linearGradient id="paint27_linear_3183_6890" x1="286.811" y1="38.5582" x2="226.069" y2="38.5628" gradientUnits="userSpaceOnUse">
<stop stop-color="#F26A1B"/>
<stop offset="1" stop-color="#FDE2D3"/>
</linearGradient>
<linearGradient id="paint28_linear_3183_6890" x1="258.506" y1="118.667" x2="258.506" y2="148.026" gradientUnits="userSpaceOnUse">
<stop stop-color="#4A4340"/>
<stop offset="1" stop-color="#D05E1C"/>
</linearGradient>
<linearGradient id="paint29_linear_3183_6890" x1="227.109" y1="131.303" x2="196.585" y2="131.443" gradientUnits="userSpaceOnUse">
<stop stop-color="#F26A1B"/>
<stop offset="1" stop-color="#FDE2D3"/>
</linearGradient>
<linearGradient id="paint30_linear_3183_6890" x1="225.659" y1="129.164" x2="225.659" y2="135.004" gradientUnits="userSpaceOnUse">
<stop stop-color="#4A4340"/>
<stop offset="1" stop-color="#D05E1C"/>
</linearGradient>
<linearGradient id="paint31_linear_3183_6890" x1="274.881" y1="134.195" x2="230.002" y2="134.198" gradientUnits="userSpaceOnUse">
<stop stop-color="#F26A1B"/>
<stop offset="1" stop-color="#FDE2D3"/>
</linearGradient>
<linearGradient id="paint32_linear_3183_6890" x1="144.571" y1="135.464" x2="144.571" y2="118.75" gradientUnits="userSpaceOnUse">
<stop stop-color="#231F20"/>
<stop offset="1" stop-color="#F26A1B"/>
</linearGradient>
<linearGradient id="paint33_linear_3183_6890" x1="220.436" y1="-34.7804" x2="159.774" y2="-34.7757" gradientUnits="userSpaceOnUse">
<stop stop-color="#F26A1B"/>
<stop offset="1" stop-color="#FDE2D3"/>
</linearGradient>
<linearGradient id="paint34_linear_3183_6890" x1="191.512" y1="44.448" x2="191.512" y2="70.2543" gradientUnits="userSpaceOnUse">
<stop stop-color="#4A4340"/>
<stop offset="1" stop-color="#D05E1C"/>
</linearGradient>
<linearGradient id="paint35_linear_3183_6890" x1="190.829" y1="85.2442" x2="190.829" y2="91.0842" gradientUnits="userSpaceOnUse">
<stop stop-color="#4A4340"/>
<stop offset="1" stop-color="#D05E1C"/>
</linearGradient>
<linearGradient id="paint36_linear_3183_6890" x1="188" y1="199.833" x2="188" y2="228.167" gradientUnits="userSpaceOnUse">
<stop stop-color="#4A4340"/>
<stop offset="1" stop-color="#D05E1C"/>
</linearGradient>
<linearGradient id="paint37_linear_3183_6890" x1="220.436" y1="121.711" x2="159.774" y2="121.715" gradientUnits="userSpaceOnUse">
<stop stop-color="#F26A1B"/>
<stop offset="1" stop-color="#FDE2D3"/>
</linearGradient>
<linearGradient id="paint38_linear_3183_6890" x1="191.829" y1="180" x2="191.829" y2="185.84" gradientUnits="userSpaceOnUse">
<stop stop-color="#4A4340"/>
<stop offset="1" stop-color="#D05E1C"/>
</linearGradient>
</defs>
</svg>
