<svg width="616" height="267" viewBox="0 0 616 267" fill="none" xmlns="http://www.w3.org/2000/svg">
<g clip-path="url(#clip0_3183_6827)">
<path d="M165 134H330.5" stroke="url(#paint0_linear_3183_6827)"/>
<path d="M496 134H330.5" stroke="url(#paint1_linear_3183_6827)"/>
<path d="M210 60H236.5C251.412 60 263.5 72.0883 263.5 87V108C263.5 122.912 275.588 135 290.5 135H314.5" stroke="url(#paint2_linear_3183_6827)"/>
<path d="M210 208H236.5C251.412 208 263.5 195.912 263.5 181V160C263.5 145.088 275.588 133 290.5 133H314.5" stroke="url(#paint3_linear_3183_6827)"/>
<path d="M410.5 59H384C369.088 59 357 71.0883 357 86V107C357 121.912 344.912 134 330 134H306" stroke="url(#paint4_linear_3183_6827)"/>
<path d="M410.5 209H384C369.088 209 357 196.912 357 182V161C357 146.088 344.912 134 330 134H306" stroke="url(#paint5_linear_3183_6827)"/>
<mask id="path-7-inside-1_3183_6827" fill="white">
<path d="M133 175C133 78.3502 211.35 0 308 0C404.65 0 483 78.3502 483 175C483 271.65 404.65 350 308 350C211.35 350 133 271.65 133 175Z"/>
</mask>
<path d="M133 0H483H133ZM484 175.5C484 272.426 405.426 351 308.5 351H307.5C210.574 351 132 272.426 132 175.5L134 175C134 271.098 211.902 349 308 349C404.098 349 482 271.098 482 175L484 175.5ZM307.5 351C210.574 351 132 272.426 132 175.5C132 78.574 210.574 0 307.5 0H308C211.902 0 134 78.3502 134 175C134 271.098 211.902 349 308 349L307.5 351ZM308.5 0C405.426 0 484 78.574 484 175.5C484 272.426 405.426 351 308.5 351L308 349C404.098 349 482 271.098 482 175C482 78.3502 404.098 0 308 0H308.5Z" fill="url(#paint6_linear_3183_6827)" mask="url(#path-7-inside-1_3183_6827)"/>
<g filter="url(#filter0_d_3183_6827)">
<rect x="276" y="106" width="64" height="56" rx="20" fill="url(#paint7_linear_3183_6827)"/>
<path d="M323.487 139.728C319.63 138.175 315.874 136.394 312.197 134.462C311.915 134.311 311.634 134.159 311.353 134.004C315.278 131.855 319.339 129.959 323.487 128.272C325.328 127.581 325.988 125.156 324.729 123.632C323.701 122.346 321.827 122.136 320.543 123.165C317.271 125.733 313.852 128.1 310.343 130.321C310.072 130.492 309.8 130.658 309.526 130.825C309.631 126.346 310.021 121.877 310.634 117.437C310.958 115.495 309.189 113.71 307.242 114.04C305.672 114.278 304.574 115.704 304.723 117.267C305.835 122.205 306.474 127.298 306.576 132.505C306.58 132.718 306.584 132.931 306.587 133.144C306.59 133.387 306.592 133.629 306.593 133.872C306.593 133.915 306.593 133.957 306.593 134C306.593 134.04 306.593 134.078 306.593 134.118C306.593 134.121 306.593 134.124 306.593 134.126C306.593 134.387 306.59 134.647 306.587 134.907C306.587 134.944 306.587 134.982 306.586 135.019C306.586 135.114 306.583 135.208 306.582 135.303C306.491 140.577 305.851 145.733 304.725 150.732C304.577 152.296 305.673 153.722 307.243 153.96C309.191 154.29 310.959 152.506 310.636 150.563C310.023 146.126 309.632 141.66 309.527 137.184C313.346 139.512 317.014 142.085 320.544 144.835C322.061 146.087 324.489 145.445 325.177 143.591C325.776 142.058 325.021 140.327 323.488 139.727L323.487 139.728Z" fill="white"/>
<path d="M298.121 136.998C297.609 137.238 297.095 137.474 296.578 137.706C295.026 138.404 293.471 139.097 291.888 139.727C290.054 140.421 289.397 142.836 290.649 144.358C291.673 145.647 293.546 145.86 294.834 144.834C295.28 144.479 295.731 144.135 296.185 143.791C296.641 143.451 297.094 143.11 297.552 142.777C298.466 142.108 299.383 141.441 300.312 140.793C302.464 139.207 300.591 135.921 298.121 136.995V136.998Z" fill="white"/>
<path d="M300.311 127.204C299.847 126.88 299.385 126.551 298.927 126.22C297.547 125.222 296.17 124.222 294.833 123.164C293.317 121.919 290.898 122.559 290.208 124.405C289.605 125.937 290.357 127.669 291.888 128.273C292.417 128.482 292.942 128.702 293.465 128.922C293.986 129.147 294.508 129.37 295.025 129.602C296.061 130.059 297.096 130.521 298.121 131.003C300.568 132.076 302.476 128.81 300.311 127.205V127.204Z" fill="white"/>
</g>
<rect x="94.5" y="39.5" width="115" height="39" rx="12.3571" fill="white"/>
<rect x="94.5" y="39.5" width="115" height="39" rx="12.3571" stroke="url(#paint8_linear_3183_6827)"/>
<mask id="mask0_3183_6827" style="mask-type:alpha" maskUnits="userSpaceOnUse" x="104" y="47" width="24" height="24">
<rect x="104" y="47" width="24" height="24" fill="#D9D9D9"/>
</mask>
<g mask="url(#mask0_3183_6827)">
<path d="M115.25 67.75V59.8135C114.247 59.8135 113.287 59.6238 112.367 59.2443C111.448 58.8648 110.636 58.3224 109.931 57.6173C109.226 56.9121 108.688 56.098 108.317 55.175C107.945 54.252 107.76 53.2898 107.76 52.2885V50.7885H109.26C110.244 50.7885 111.196 50.9802 112.118 51.3635C113.039 51.7467 113.851 52.2903 114.554 52.9943C115.077 53.5174 115.506 54.1018 115.841 54.7473C116.177 55.3928 116.417 56.0783 116.562 56.804C116.677 56.604 116.805 56.4145 116.947 56.2355C117.089 56.0567 117.247 55.8801 117.421 55.7058C118.125 55.0018 118.939 54.4582 119.863 54.075C120.786 53.6917 121.748 53.5 122.75 53.5H124.25V55C124.25 56.0018 124.058 56.9645 123.675 57.888C123.291 58.8115 122.747 59.6255 122.043 60.33C121.339 61.0343 120.531 61.5721 119.62 61.9433C118.709 62.3144 117.752 62.5 116.75 62.5V67.75H115.25ZM115.26 58.2885C115.26 57.4885 115.106 56.726 114.797 56.001C114.489 55.276 114.051 54.6302 113.485 54.0635C112.918 53.4968 112.272 53.0593 111.547 52.751C110.822 52.4427 110.06 52.2885 109.26 52.2885C109.26 53.0885 109.41 53.8552 109.71 54.5885C110.01 55.3218 110.443 55.9718 111.01 56.5385C111.576 57.1052 112.226 57.5385 112.96 57.8385C113.693 58.1385 114.46 58.2885 115.26 58.2885ZM116.75 61C117.55 61 118.312 60.85 119.038 60.55C119.763 60.25 120.408 59.8167 120.975 59.25C121.542 58.6833 121.979 58.0333 122.288 57.3C122.596 56.5667 122.75 55.8 122.75 55C121.95 55 121.183 55.1542 120.45 55.4625C119.717 55.7708 119.067 56.2083 118.5 56.775C117.933 57.3417 117.5 57.9875 117.2 58.7125C116.9 59.4375 116.75 60.2 116.75 61Z" fill="url(#paint9_linear_3183_6827)"/>
</g>
<path d="M136.959 63V54.2727H140.07C140.749 54.2727 141.311 54.3963 141.757 54.6435C142.203 54.8906 142.537 55.2287 142.759 55.6577C142.98 56.0838 143.091 56.5639 143.091 57.098C143.091 57.6349 142.979 58.1179 142.754 58.5469C142.533 58.973 142.197 59.3111 141.749 59.5611C141.303 59.8082 140.741 59.9318 140.065 59.9318H137.926V58.8153H139.946C140.375 58.8153 140.723 58.7415 140.99 58.5938C141.257 58.4432 141.453 58.2386 141.578 57.9801C141.703 57.7216 141.766 57.4276 141.766 57.098C141.766 56.7685 141.703 56.4759 141.578 56.2202C141.453 55.9645 141.256 55.7642 140.986 55.6193C140.719 55.4744 140.366 55.402 139.929 55.402H138.276V63H136.959ZM145.806 54.2727V63H144.532V54.2727H145.806ZM149.425 63.1449C149.011 63.1449 148.636 63.0682 148.3 62.9148C147.965 62.7585 147.7 62.5327 147.504 62.2372C147.31 61.9418 147.214 61.5795 147.214 61.1506C147.214 60.7812 147.285 60.4773 147.427 60.2386C147.569 60 147.761 59.8111 148.002 59.6719C148.244 59.5327 148.513 59.4276 148.812 59.3565C149.11 59.2855 149.414 59.2315 149.724 59.1946C150.116 59.1491 150.434 59.1122 150.678 59.0838C150.923 59.0526 151.1 59.0028 151.211 58.9347C151.322 58.8665 151.377 58.7557 151.377 58.6023V58.5724C151.377 58.2003 151.272 57.9119 151.062 57.7074C150.854 57.5028 150.545 57.4006 150.133 57.4006C149.704 57.4006 149.366 57.4957 149.119 57.6861C148.874 57.8736 148.705 58.0824 148.612 58.3125L147.414 58.0398C147.556 57.642 147.763 57.321 148.036 57.0767C148.312 56.8295 148.629 56.6506 148.987 56.5398C149.344 56.4261 149.721 56.3693 150.116 56.3693C150.377 56.3693 150.654 56.4006 150.947 56.4631C151.242 56.5227 151.518 56.6335 151.773 56.7955C152.032 56.9574 152.244 57.1889 152.408 57.4901C152.573 57.7884 152.656 58.1761 152.656 58.6534V63H151.411V62.1051H151.36C151.278 62.2699 151.154 62.4318 150.989 62.5909C150.825 62.75 150.613 62.8821 150.354 62.9872C150.096 63.0923 149.786 63.1449 149.425 63.1449ZM149.702 62.1222C150.055 62.1222 150.356 62.0526 150.606 61.9134C150.859 61.7741 151.05 61.5923 151.181 61.3679C151.315 61.1406 151.381 60.8977 151.381 60.6392V59.7955C151.336 59.8409 151.248 59.8835 151.117 59.9233C150.989 59.9602 150.843 59.9929 150.678 60.0213C150.513 60.0469 150.353 60.071 150.197 60.0938C150.04 60.1136 149.91 60.1307 149.805 60.1449C149.558 60.1761 149.332 60.2287 149.127 60.3026C148.925 60.3764 148.763 60.483 148.641 60.6222C148.522 60.7585 148.462 60.9403 148.462 61.1676C148.462 61.483 148.579 61.7216 148.812 61.8835C149.045 62.0426 149.342 62.1222 149.702 62.1222ZM155.627 59.1136V63H154.353V56.4545H155.576V57.5199H155.657C155.807 57.1733 156.043 56.8949 156.364 56.6847C156.688 56.4744 157.096 56.3693 157.587 56.3693C158.033 56.3693 158.424 56.4631 158.759 56.6506C159.094 56.8352 159.354 57.1108 159.539 57.4773C159.723 57.8437 159.816 58.2969 159.816 58.8366V63H158.542V58.9901C158.542 58.5156 158.418 58.1449 158.171 57.8778C157.924 57.608 157.584 57.473 157.152 57.473C156.857 57.473 156.594 57.5369 156.364 57.6648C156.137 57.7926 155.956 57.9801 155.823 58.2273C155.692 58.4716 155.627 58.767 155.627 59.1136ZM162.799 59.1136V63H161.525V56.4545H162.748V57.5199H162.828C162.979 57.1733 163.215 56.8949 163.536 56.6847C163.86 56.4744 164.267 56.3693 164.759 56.3693C165.205 56.3693 165.596 56.4631 165.931 56.6506C166.266 56.8352 166.526 57.1108 166.711 57.4773C166.895 57.8437 166.988 58.2969 166.988 58.8366V63H165.713V58.9901C165.713 58.5156 165.59 58.1449 165.343 57.8778C165.096 57.608 164.756 57.473 164.324 57.473C164.029 57.473 163.766 57.5369 163.536 57.6648C163.309 57.7926 163.128 57.9801 162.995 58.2273C162.864 58.4716 162.799 58.767 162.799 59.1136ZM168.696 63V56.4545H169.971V63H168.696ZM169.34 55.4446C169.118 55.4446 168.928 55.3707 168.769 55.223C168.613 55.0724 168.534 54.8935 168.534 54.6861C168.534 54.4759 168.613 54.2969 168.769 54.1491C168.928 53.9986 169.118 53.9233 169.34 53.9233C169.561 53.9233 169.75 53.9986 169.907 54.1491C170.066 54.2969 170.145 54.4759 170.145 54.6861C170.145 54.8935 170.066 55.0724 169.907 55.223C169.75 55.3707 169.561 55.4446 169.34 55.4446ZM172.959 59.1136V63H171.685V56.4545H172.908V57.5199H172.989C173.139 57.1733 173.375 56.8949 173.696 56.6847C174.02 56.4744 174.428 56.3693 174.919 56.3693C175.365 56.3693 175.756 56.4631 176.091 56.6506C176.426 56.8352 176.686 57.1108 176.871 57.4773C177.055 57.8437 177.148 58.2969 177.148 58.8366V63H175.874V58.9901C175.874 58.5156 175.75 58.1449 175.503 57.8778C175.256 57.608 174.916 57.473 174.484 57.473C174.189 57.473 173.926 57.5369 173.696 57.6648C173.469 57.7926 173.288 57.9801 173.155 58.2273C173.024 58.4716 172.959 58.767 172.959 59.1136ZM181.601 65.5909C181.081 65.5909 180.634 65.5227 180.259 65.3864C179.886 65.25 179.582 65.0696 179.347 64.8452C179.111 64.6207 178.935 64.375 178.818 64.108L179.913 63.6562C179.99 63.7812 180.092 63.9134 180.22 64.0526C180.351 64.1946 180.527 64.3153 180.749 64.4148C180.973 64.5142 181.261 64.5639 181.614 64.5639C182.097 64.5639 182.496 64.446 182.811 64.2102C183.126 63.9773 183.284 63.6051 183.284 63.0938V61.8068H183.203C183.126 61.946 183.016 62.1009 182.871 62.2713C182.729 62.4418 182.533 62.5895 182.283 62.7145C182.033 62.8395 181.707 62.902 181.307 62.902C180.79 62.902 180.324 62.7812 179.909 62.5398C179.497 62.2955 179.17 61.9361 178.929 61.4616C178.69 60.9844 178.571 60.3977 178.571 59.7017C178.571 59.0057 178.689 58.4091 178.925 57.9119C179.163 57.4148 179.49 57.0341 179.905 56.7699C180.32 56.5028 180.79 56.3693 181.315 56.3693C181.722 56.3693 182.05 56.4375 182.3 56.5739C182.55 56.7074 182.744 56.8636 182.884 57.0426C183.026 57.2216 183.135 57.3793 183.212 57.5156H183.305V56.4545H184.554V63.1449C184.554 63.7074 184.423 64.169 184.162 64.5298C183.901 64.8906 183.547 65.1577 183.101 65.331C182.658 65.5043 182.158 65.5909 181.601 65.5909ZM181.588 61.8452C181.955 61.8452 182.264 61.7599 182.517 61.5895C182.773 61.4162 182.966 61.169 183.097 60.848C183.23 60.5241 183.297 60.1364 183.297 59.6847C183.297 59.2443 183.232 58.8565 183.101 58.5213C182.97 58.1861 182.778 57.9247 182.526 57.7372C182.273 57.5469 181.96 57.4517 181.588 57.4517C181.205 57.4517 180.885 57.5511 180.629 57.75C180.374 57.946 180.18 58.2131 180.05 58.5511C179.922 58.8892 179.858 59.267 179.858 59.6847C179.858 60.1136 179.923 60.4901 180.054 60.8139C180.185 61.1378 180.378 61.3906 180.634 61.5724C180.892 61.7543 181.21 61.8452 181.588 61.8452Z" fill="#231F20"/>
<rect x="45.5" y="114.5" width="128" height="39" rx="12.3571" fill="white"/>
<rect x="45.5" y="114.5" width="128" height="39" rx="12.3571" stroke="url(#paint10_linear_3183_6827)"/>
<mask id="mask1_3183_6827" style="mask-type:alpha" maskUnits="userSpaceOnUse" x="55" y="122" width="24" height="24">
<rect x="55" y="122" width="24" height="24" fill="#D9D9D9"/>
</mask>
<g mask="url(#mask1_3183_6827)">
<path d="M67 142.942C66.5987 142.942 66.2438 142.837 65.9355 142.625C65.6272 142.413 65.4115 142.136 65.2885 141.792H65C64.591 141.792 64.2388 141.645 63.9433 141.349C63.6478 141.054 63.5 140.701 63.5 140.292V137.012C62.491 136.4 61.6971 135.58 61.1182 134.552C60.5394 133.524 60.25 132.423 60.25 131.25C60.25 129.368 60.9045 127.772 62.2135 126.463C63.5225 125.154 65.118 124.5 67 124.5C68.882 124.5 70.4775 125.154 71.7865 126.463C73.0955 127.772 73.75 129.368 73.75 131.25C73.75 132.444 73.4606 133.549 72.8818 134.567C72.3029 135.585 71.509 136.4 70.5 137.012V140.292C70.5 140.701 70.3523 141.054 70.0568 141.349C69.7613 141.645 69.409 141.792 69 141.792H68.7115C68.5885 142.136 68.3728 142.413 68.0645 142.625C67.7562 142.837 67.4013 142.942 67 142.942ZM65 140.292H69V139.354H65V140.292ZM65 138.469H69V137.5H65V138.469ZM64.8 136H66.4037V133.089L64.6808 131.365C64.5628 131.247 64.5022 131.109 64.499 130.951C64.4958 130.793 64.5564 130.651 64.6808 130.527C64.8051 130.403 64.9448 130.341 65.1 130.341C65.2552 130.341 65.3949 130.403 65.5192 130.527L67 132.008L68.4808 130.527C68.5988 130.409 68.7369 130.348 68.8953 130.345C69.0536 130.342 69.1949 130.403 69.3193 130.527C69.4436 130.651 69.5057 130.791 69.5057 130.946C69.5057 131.101 69.4436 131.241 69.3193 131.365L67.5963 133.089V136H69.2C70.1 135.567 70.8333 134.929 71.4 134.088C71.9667 133.246 72.25 132.3 72.25 131.25C72.25 129.783 71.7417 128.542 70.725 127.525C69.7083 126.508 68.4667 126 67 126C65.5333 126 64.2917 126.508 63.275 127.525C62.2583 128.542 61.75 129.783 61.75 131.25C61.75 132.3 62.0333 133.246 62.6 134.088C63.1667 134.929 63.9 135.567 64.8 136Z" fill="url(#paint11_linear_3183_6827)"/>
</g>
<path d="M90.7841 138H87.9588V129.273H90.8736C91.7287 129.273 92.4631 129.447 93.0767 129.797C93.6903 130.143 94.1605 130.642 94.4872 131.293C94.8168 131.94 94.9815 132.717 94.9815 133.624C94.9815 134.533 94.8153 135.314 94.483 135.967C94.1534 136.621 93.6761 137.124 93.0511 137.476C92.4261 137.825 91.6705 138 90.7841 138ZM89.2756 136.849H90.7116C91.3764 136.849 91.929 136.724 92.3693 136.474C92.8097 136.222 93.1392 135.857 93.358 135.379C93.5767 134.899 93.6861 134.314 93.6861 133.624C93.6861 132.939 93.5767 132.358 93.358 131.881C93.142 131.403 92.8196 131.041 92.3906 130.794C91.9616 130.547 91.429 130.423 90.7926 130.423H89.2756V136.849ZM99.3377 138.132C98.6928 138.132 98.1374 137.994 97.6715 137.719C97.2085 137.44 96.8505 137.05 96.5977 136.547C96.3477 136.041 96.2227 135.449 96.2227 134.77C96.2227 134.099 96.3477 133.509 96.5977 132.997C96.8505 132.486 97.2028 132.087 97.6545 131.8C98.109 131.513 98.6403 131.369 99.2482 131.369C99.6175 131.369 99.9755 131.43 100.322 131.553C100.669 131.675 100.98 131.866 101.255 132.128C101.531 132.389 101.748 132.729 101.907 133.146C102.066 133.561 102.146 134.065 102.146 134.659V135.111H96.9428V134.156H100.897C100.897 133.821 100.829 133.524 100.693 133.266C100.556 133.004 100.365 132.798 100.118 132.648C99.8732 132.497 99.5863 132.422 99.2567 132.422C98.8988 132.422 98.5863 132.51 98.3192 132.686C98.055 132.859 97.8505 133.087 97.7056 133.368C97.5636 133.646 97.4925 133.949 97.4925 134.276V135.021C97.4925 135.459 97.5692 135.831 97.7227 136.138C97.8789 136.445 98.0962 136.679 98.3746 136.841C98.6531 137 98.9783 137.08 99.3505 137.08C99.592 137.08 99.8121 137.045 100.011 136.977C100.21 136.906 100.382 136.801 100.527 136.662C100.672 136.523 100.782 136.351 100.859 136.146L102.065 136.364C101.968 136.719 101.795 137.03 101.545 137.297C101.298 137.561 100.987 137.767 100.612 137.915C100.24 138.06 99.815 138.132 99.3377 138.132ZM108.972 131.455L106.598 138H105.234L102.857 131.455H104.224L105.882 136.491H105.95L107.604 131.455H108.972ZM112.767 138.132C112.123 138.132 111.567 137.994 111.101 137.719C110.638 137.44 110.28 137.05 110.027 136.547C109.777 136.041 109.652 135.449 109.652 134.77C109.652 134.099 109.777 133.509 110.027 132.997C110.28 132.486 110.632 132.087 111.084 131.8C111.539 131.513 112.07 131.369 112.678 131.369C113.047 131.369 113.405 131.43 113.752 131.553C114.098 131.675 114.409 131.866 114.685 132.128C114.961 132.389 115.178 132.729 115.337 133.146C115.496 133.561 115.576 134.065 115.576 134.659V135.111H110.373V134.156H114.327C114.327 133.821 114.259 133.524 114.123 133.266C113.986 133.004 113.794 132.798 113.547 132.648C113.303 132.497 113.016 132.422 112.686 132.422C112.328 132.422 112.016 132.51 111.749 132.686C111.485 132.859 111.28 133.087 111.135 133.368C110.993 133.646 110.922 133.949 110.922 134.276V135.021C110.922 135.459 110.999 135.831 111.152 136.138C111.309 136.445 111.526 136.679 111.804 136.841C112.083 137 112.408 137.08 112.78 137.08C113.022 137.08 113.242 137.045 113.441 136.977C113.64 136.906 113.811 136.801 113.956 136.662C114.101 136.523 114.212 136.351 114.289 136.146L115.495 136.364C115.398 136.719 115.225 137.03 114.975 137.297C114.728 137.561 114.417 137.767 114.042 137.915C113.669 138.06 113.245 138.132 112.767 138.132ZM118.263 129.273V138H116.989V129.273H118.263ZM122.735 138.132C122.121 138.132 121.586 137.991 121.128 137.71C120.671 137.429 120.316 137.036 120.063 136.53C119.81 136.024 119.684 135.433 119.684 134.757C119.684 134.078 119.81 133.484 120.063 132.976C120.316 132.467 120.671 132.072 121.128 131.791C121.586 131.51 122.121 131.369 122.735 131.369C123.348 131.369 123.884 131.51 124.341 131.791C124.799 132.072 125.154 132.467 125.407 132.976C125.659 133.484 125.786 134.078 125.786 134.757C125.786 135.433 125.659 136.024 125.407 136.53C125.154 137.036 124.799 137.429 124.341 137.71C123.884 137.991 123.348 138.132 122.735 138.132ZM122.739 137.062C123.137 137.062 123.466 136.957 123.728 136.747C123.989 136.537 124.182 136.257 124.307 135.908C124.435 135.558 124.499 135.173 124.499 134.753C124.499 134.335 124.435 133.952 124.307 133.602C124.182 133.25 123.989 132.967 123.728 132.754C123.466 132.541 123.137 132.435 122.739 132.435C122.338 132.435 122.006 132.541 121.742 132.754C121.48 132.967 121.286 133.25 121.158 133.602C121.033 133.952 120.971 134.335 120.971 134.753C120.971 135.173 121.033 135.558 121.158 135.908C121.286 136.257 121.48 136.537 121.742 136.747C122.006 136.957 122.338 137.062 122.739 137.062ZM127.208 140.455V131.455H128.452V132.516H128.559C128.633 132.379 128.739 132.222 128.879 132.043C129.018 131.864 129.211 131.707 129.458 131.574C129.705 131.438 130.032 131.369 130.438 131.369C130.967 131.369 131.438 131.503 131.853 131.77C132.268 132.037 132.593 132.422 132.829 132.925C133.067 133.428 133.187 134.033 133.187 134.74C133.187 135.447 133.069 136.054 132.833 136.56C132.597 137.062 132.273 137.45 131.862 137.723C131.45 137.993 130.979 138.128 130.451 138.128C130.053 138.128 129.728 138.061 129.475 137.928C129.225 137.794 129.029 137.638 128.887 137.459C128.745 137.28 128.636 137.121 128.559 136.982H128.482V140.455H127.208ZM128.457 134.727C128.457 135.187 128.523 135.591 128.657 135.938C128.79 136.284 128.984 136.555 129.237 136.751C129.489 136.945 129.799 137.041 130.165 137.041C130.546 137.041 130.864 136.94 131.12 136.739C131.376 136.534 131.569 136.257 131.7 135.908C131.833 135.558 131.9 135.165 131.9 134.727C131.9 134.295 131.835 133.908 131.704 133.564C131.576 133.22 131.383 132.949 131.124 132.75C130.869 132.551 130.549 132.452 130.165 132.452C129.796 132.452 129.484 132.547 129.228 132.737C128.975 132.928 128.783 133.193 128.653 133.534C128.522 133.875 128.457 134.273 128.457 134.727ZM134.614 138V131.455H135.837V132.52H135.918C136.055 132.159 136.278 131.878 136.587 131.676C136.897 131.472 137.268 131.369 137.7 131.369C138.137 131.369 138.504 131.472 138.799 131.676C139.097 131.881 139.317 132.162 139.46 132.52H139.528C139.684 132.17 139.933 131.892 140.273 131.685C140.614 131.474 141.021 131.369 141.492 131.369C142.086 131.369 142.57 131.555 142.945 131.928C143.323 132.3 143.512 132.861 143.512 133.611V138H142.238V133.73C142.238 133.287 142.117 132.966 141.876 132.767C141.634 132.568 141.346 132.469 141.011 132.469C140.596 132.469 140.273 132.597 140.043 132.852C139.813 133.105 139.698 133.43 139.698 133.828V138H138.428V133.649C138.428 133.294 138.317 133.009 138.096 132.793C137.874 132.577 137.586 132.469 137.231 132.469C136.989 132.469 136.766 132.533 136.562 132.661C136.36 132.786 136.197 132.96 136.072 133.185C135.95 133.409 135.888 133.669 135.888 133.964V138H134.614ZM148.041 138.132C147.396 138.132 146.841 137.994 146.375 137.719C145.912 137.44 145.554 137.05 145.301 136.547C145.051 136.041 144.926 135.449 144.926 134.77C144.926 134.099 145.051 133.509 145.301 132.997C145.554 132.486 145.906 132.087 146.358 131.8C146.812 131.513 147.343 131.369 147.951 131.369C148.321 131.369 148.679 131.43 149.025 131.553C149.372 131.675 149.683 131.866 149.958 132.128C150.234 132.389 150.451 132.729 150.61 133.146C150.77 133.561 150.849 134.065 150.849 134.659V135.111H145.646V134.156H149.6C149.6 133.821 149.532 133.524 149.396 133.266C149.26 133.004 149.068 132.798 148.821 132.648C148.576 132.497 148.289 132.422 147.96 132.422C147.602 132.422 147.289 132.51 147.022 132.686C146.758 132.859 146.554 133.087 146.409 133.368C146.267 133.646 146.196 133.949 146.196 134.276V135.021C146.196 135.459 146.272 135.831 146.426 136.138C146.582 136.445 146.799 136.679 147.078 136.841C147.356 137 147.681 137.08 148.054 137.08C148.295 137.08 148.515 137.045 148.714 136.977C148.913 136.906 149.085 136.801 149.23 136.662C149.375 136.523 149.485 136.351 149.562 136.146L150.768 136.364C150.672 136.719 150.498 137.03 150.248 137.297C150.001 137.561 149.69 137.767 149.315 137.915C148.943 138.06 148.518 138.132 148.041 138.132ZM153.537 134.114V138H152.263V131.455H153.486V132.52H153.567C153.717 132.173 153.953 131.895 154.274 131.685C154.598 131.474 155.006 131.369 155.497 131.369C155.943 131.369 156.334 131.463 156.669 131.651C157.004 131.835 157.264 132.111 157.449 132.477C157.634 132.844 157.726 133.297 157.726 133.837V138H156.452V133.99C156.452 133.516 156.328 133.145 156.081 132.878C155.834 132.608 155.494 132.473 155.062 132.473C154.767 132.473 154.504 132.537 154.274 132.665C154.047 132.793 153.866 132.98 153.733 133.227C153.602 133.472 153.537 133.767 153.537 134.114ZM162.49 131.455V132.477H158.915V131.455H162.49ZM159.874 129.886H161.148V136.078C161.148 136.325 161.185 136.511 161.259 136.636C161.332 136.759 161.428 136.842 161.544 136.888C161.663 136.93 161.793 136.952 161.932 136.952C162.034 136.952 162.124 136.945 162.2 136.93C162.277 136.916 162.337 136.905 162.379 136.896L162.609 137.949C162.536 137.977 162.43 138.006 162.294 138.034C162.158 138.065 161.987 138.082 161.783 138.085C161.447 138.091 161.135 138.031 160.845 137.906C160.555 137.781 160.321 137.588 160.142 137.327C159.963 137.065 159.874 136.737 159.874 136.342V129.886Z" fill="#231F20"/>
<rect x="104.5" y="188.5" width="121" height="39" rx="12.3571" fill="white"/>
<rect x="104.5" y="188.5" width="121" height="39" rx="12.3571" stroke="url(#paint12_linear_3183_6827)"/>
<mask id="mask2_3183_6827" style="mask-type:alpha" maskUnits="userSpaceOnUse" x="114" y="196" width="24" height="24">
<rect x="114" y="196" width="24" height="24" fill="#D9D9D9"/>
</mask>
<g mask="url(#mask2_3183_6827)">
<path d="M126 215.333C127.167 215.333 128.164 214.922 128.992 214.1C129.819 213.278 130.233 212.283 130.233 211.117V207C130.233 205.833 129.819 204.839 128.992 204.017C128.164 203.194 127.167 202.783 126 202.783C124.833 202.783 123.836 203.194 123.008 204.017C122.181 204.839 121.767 205.833 121.767 207V211.117C121.767 212.283 122.181 213.278 123.008 214.1C123.836 214.922 124.833 215.333 126 215.333ZM124 212H128V210.333H124V212ZM124 207.783H128V206.117H124V207.783ZM126 217C124.917 217 123.91 216.739 122.979 216.217C122.049 215.694 121.344 214.956 120.867 214H118V212.333H120.233C120.139 211.933 120.09 211.531 120.087 211.125C120.085 210.72 120.083 210.311 120.083 209.9H118V208.233H120.083C120.083 207.8 120.087 207.369 120.096 206.942C120.104 206.514 120.161 206.089 120.267 205.667H118V204H120.933C121.167 203.561 121.46 203.17 121.812 202.825C122.165 202.481 122.561 202.189 123 201.95L121.183 200.133L122.317 199L124.6 201.283C125.067 201.122 125.539 201.042 126.017 201.042C126.494 201.042 126.967 201.122 127.433 201.283L129.733 199L130.867 200.133L129.05 201.95C129.489 202.189 129.879 202.482 130.221 202.829C130.562 203.176 130.861 203.567 131.117 204H134V205.667H131.733C131.85 206.089 131.907 206.514 131.904 206.942C131.901 207.369 131.9 207.8 131.9 208.233H134V209.9H131.9C131.9 210.311 131.901 210.72 131.904 211.125C131.907 211.531 131.861 211.933 131.767 212.333H134V214H131.15C130.683 214.967 129.982 215.708 129.046 216.225C128.11 216.742 127.094 217 126 217Z" fill="url(#paint13_linear_3183_6827)"/>
</g>
<path d="M146.528 204.406V203.273H153.283V204.406H150.56V212H149.247V204.406H146.528ZM156.545 212.132C155.9 212.132 155.344 211.994 154.879 211.719C154.415 211.44 154.058 211.05 153.805 210.547C153.555 210.041 153.43 209.449 153.43 208.77C153.43 208.099 153.555 207.509 153.805 206.997C154.058 206.486 154.41 206.087 154.862 205.8C155.316 205.513 155.847 205.369 156.455 205.369C156.825 205.369 157.183 205.43 157.529 205.553C157.876 205.675 158.187 205.866 158.462 206.128C158.738 206.389 158.955 206.729 159.114 207.146C159.273 207.561 159.353 208.065 159.353 208.659V209.111H154.15V208.156H158.104C158.104 207.821 158.036 207.524 157.9 207.266C157.763 207.004 157.572 206.798 157.325 206.648C157.08 206.497 156.793 206.422 156.464 206.422C156.106 206.422 155.793 206.51 155.526 206.686C155.262 206.859 155.058 207.087 154.913 207.368C154.771 207.646 154.7 207.949 154.7 208.276V209.021C154.7 209.459 154.776 209.831 154.93 210.138C155.086 210.445 155.303 210.679 155.582 210.841C155.86 211 156.185 211.08 156.558 211.08C156.799 211.08 157.019 211.045 157.218 210.977C157.417 210.906 157.589 210.801 157.734 210.662C157.879 210.523 157.989 210.351 158.066 210.146L159.272 210.364C159.175 210.719 159.002 211.03 158.752 211.297C158.505 211.561 158.194 211.767 157.819 211.915C157.447 212.06 157.022 212.132 156.545 212.132ZM165.672 207.053L164.517 207.257C164.468 207.109 164.392 206.969 164.287 206.835C164.184 206.702 164.045 206.592 163.869 206.507C163.693 206.422 163.473 206.379 163.208 206.379C162.848 206.379 162.547 206.46 162.305 206.622C162.064 206.781 161.943 206.987 161.943 207.24C161.943 207.459 162.024 207.635 162.186 207.768C162.348 207.902 162.609 208.011 162.97 208.097L164.01 208.335C164.612 208.474 165.061 208.689 165.356 208.979C165.652 209.268 165.799 209.645 165.799 210.108C165.799 210.5 165.686 210.849 165.458 211.156C165.234 211.46 164.92 211.699 164.517 211.872C164.116 212.045 163.652 212.132 163.123 212.132C162.39 212.132 161.792 211.976 161.329 211.663C160.866 211.348 160.582 210.901 160.477 210.321L161.708 210.134C161.785 210.455 161.943 210.697 162.181 210.862C162.42 211.024 162.731 211.105 163.115 211.105C163.532 211.105 163.866 211.018 164.116 210.845C164.366 210.669 164.491 210.455 164.491 210.202C164.491 209.997 164.414 209.825 164.261 209.686C164.11 209.547 163.879 209.442 163.566 209.371L162.458 209.128C161.848 208.989 161.396 208.767 161.103 208.463C160.814 208.159 160.669 207.774 160.669 207.308C160.669 206.922 160.777 206.584 160.993 206.294C161.208 206.004 161.507 205.778 161.887 205.616C162.268 205.452 162.704 205.369 163.196 205.369C163.903 205.369 164.46 205.523 164.866 205.83C165.272 206.134 165.541 206.541 165.672 207.053ZM170.256 205.455V206.477H166.68V205.455H170.256ZM167.639 203.886H168.913V210.078C168.913 210.325 168.95 210.511 169.024 210.636C169.098 210.759 169.193 210.842 169.31 210.888C169.429 210.93 169.558 210.952 169.697 210.952C169.8 210.952 169.889 210.945 169.966 210.93C170.043 210.916 170.102 210.905 170.145 210.896L170.375 211.949C170.301 211.977 170.196 212.006 170.06 212.034C169.923 212.065 169.753 212.082 169.548 212.085C169.213 212.091 168.901 212.031 168.611 211.906C168.321 211.781 168.087 211.588 167.908 211.327C167.729 211.065 167.639 210.737 167.639 210.342V203.886ZM171.665 212V205.455H172.939V212H171.665ZM172.309 204.445C172.087 204.445 171.897 204.371 171.738 204.223C171.581 204.072 171.503 203.893 171.503 203.686C171.503 203.476 171.581 203.297 171.738 203.149C171.897 202.999 172.087 202.923 172.309 202.923C172.53 202.923 172.719 202.999 172.875 203.149C173.034 203.297 173.114 203.476 173.114 203.686C173.114 203.893 173.034 204.072 172.875 204.223C172.719 204.371 172.53 204.445 172.309 204.445ZM175.928 208.114V212H174.653V205.455H175.876V206.52H175.957C176.108 206.173 176.344 205.895 176.665 205.685C176.989 205.474 177.396 205.369 177.888 205.369C178.334 205.369 178.724 205.463 179.06 205.651C179.395 205.835 179.655 206.111 179.839 206.477C180.024 206.844 180.116 207.297 180.116 207.837V212H178.842V207.99C178.842 207.516 178.719 207.145 178.472 206.878C178.224 206.608 177.885 206.473 177.453 206.473C177.158 206.473 176.895 206.537 176.665 206.665C176.438 206.793 176.257 206.98 176.124 207.227C175.993 207.472 175.928 207.767 175.928 208.114ZM184.57 214.591C184.05 214.591 183.602 214.523 183.227 214.386C182.855 214.25 182.551 214.07 182.315 213.845C182.08 213.621 181.903 213.375 181.787 213.108L182.882 212.656C182.959 212.781 183.061 212.913 183.189 213.053C183.32 213.195 183.496 213.315 183.717 213.415C183.942 213.514 184.23 213.564 184.582 213.564C185.065 213.564 185.464 213.446 185.78 213.21C186.095 212.977 186.253 212.605 186.253 212.094V210.807H186.172C186.095 210.946 185.984 211.101 185.839 211.271C185.697 211.442 185.501 211.589 185.251 211.714C185.001 211.839 184.676 211.902 184.276 211.902C183.759 211.902 183.293 211.781 182.878 211.54C182.466 211.295 182.139 210.936 181.898 210.462C181.659 209.984 181.54 209.398 181.54 208.702C181.54 208.006 181.658 207.409 181.893 206.912C182.132 206.415 182.459 206.034 182.874 205.77C183.288 205.503 183.759 205.369 184.284 205.369C184.69 205.369 185.018 205.438 185.268 205.574C185.518 205.707 185.713 205.864 185.852 206.043C185.994 206.222 186.104 206.379 186.18 206.516H186.274V205.455H187.523V212.145C187.523 212.707 187.392 213.169 187.131 213.53C186.869 213.891 186.516 214.158 186.07 214.331C185.626 214.504 185.126 214.591 184.57 214.591ZM184.557 210.845C184.923 210.845 185.233 210.76 185.486 210.589C185.741 210.416 185.935 210.169 186.065 209.848C186.199 209.524 186.266 209.136 186.266 208.685C186.266 208.244 186.2 207.857 186.07 207.521C185.939 207.186 185.747 206.925 185.494 206.737C185.241 206.547 184.929 206.452 184.557 206.452C184.173 206.452 183.854 206.551 183.598 206.75C183.342 206.946 183.149 207.213 183.018 207.551C182.891 207.889 182.827 208.267 182.827 208.685C182.827 209.114 182.892 209.49 183.023 209.814C183.153 210.138 183.347 210.391 183.602 210.572C183.861 210.754 184.179 210.845 184.557 210.845Z" fill="#231F20"/>
<rect x="389.5" y="188.5" width="121" height="39" rx="12.3571" fill="white"/>
<rect x="389.5" y="188.5" width="121" height="39" rx="12.3571" stroke="url(#paint14_linear_3183_6827)"/>
<mask id="mask3_3183_6827" style="mask-type:alpha" maskUnits="userSpaceOnUse" x="399" y="196" width="24" height="24">
<rect x="399" y="196" width="24" height="24" fill="#D9D9D9"/>
</mask>
<g mask="url(#mask3_3183_6827)">
<path d="M403.942 206.716L406.487 207.795C406.791 207.189 407.118 206.595 407.47 206.013C407.822 205.432 408.204 204.871 408.617 204.33L406.869 203.988C406.818 203.975 406.768 203.977 406.72 203.993C406.672 204.009 406.629 204.036 406.59 204.074L403.942 206.716ZM407.487 208.568L410.561 211.637C411.425 211.244 412.266 210.773 413.081 210.223C413.897 209.673 414.621 209.082 415.252 208.451C416.462 207.241 417.368 205.977 417.971 204.658C418.575 203.339 418.905 201.839 418.961 200.158C417.276 200.215 415.776 200.544 414.461 201.145C413.145 201.746 411.883 202.652 410.673 203.861C410.042 204.493 409.451 205.218 408.901 206.037C408.351 206.856 407.88 207.7 407.487 208.568ZM412.922 206.186C412.608 205.877 412.451 205.496 412.451 205.043C412.451 204.59 412.608 204.207 412.922 203.893C413.235 203.579 413.621 203.422 414.079 203.422C414.537 203.422 414.923 203.579 415.236 203.893C415.55 204.207 415.707 204.59 415.707 205.043C415.707 205.496 415.55 205.877 415.236 206.186C414.923 206.5 414.537 206.657 414.079 206.657C413.621 206.657 413.235 206.5 412.922 206.186ZM412.397 215.181L415.045 212.539C415.084 212.501 415.11 212.456 415.124 212.406C415.138 212.356 415.14 212.307 415.132 212.26L414.783 210.512C414.243 210.921 413.683 211.301 413.103 211.651C412.524 212.001 411.929 212.33 411.318 212.637L412.397 215.181ZM420.17 198.954C420.303 201.001 420.033 202.878 419.359 204.584C418.686 206.29 417.601 207.889 416.105 209.381C416.066 209.42 416.029 209.458 415.995 209.495C415.96 209.532 415.923 209.567 415.884 209.602L416.363 212.004C416.412 212.267 416.399 212.52 416.322 212.764C416.245 213.008 416.114 213.223 415.929 213.408L411.97 217.373L410.081 212.941L406.172 209.038L401.747 207.133L405.701 203.185C405.89 203 406.108 202.867 406.353 202.787C406.599 202.707 406.853 202.693 407.116 202.747L409.531 203.229C409.57 203.194 409.605 203.16 409.636 203.127C409.668 203.094 409.703 203.06 409.742 203.025C411.238 201.529 412.837 200.443 414.54 199.768C416.242 199.093 418.119 198.822 420.17 198.954ZM403.426 212.024C403.913 211.532 404.506 211.287 405.205 211.287C405.903 211.287 406.498 211.531 406.99 212.018C407.477 212.505 407.718 213.098 407.713 213.796C407.708 214.495 407.461 215.09 406.974 215.581C406.585 215.966 405.976 216.291 405.147 216.555C404.318 216.82 403.203 217.037 401.802 217.206C401.972 215.805 402.187 214.688 402.449 213.853C402.711 213.019 403.037 212.409 403.426 212.024ZM404.31 212.928C404.099 213.15 403.905 213.503 403.729 213.985C403.554 214.468 403.42 215.031 403.328 215.674C403.972 215.578 404.535 215.442 405.017 215.267C405.5 215.092 405.852 214.897 406.074 214.682C406.331 214.443 406.462 214.15 406.469 213.801C406.476 213.452 406.355 213.149 406.105 212.893C405.849 212.643 405.546 212.523 405.197 212.531C404.848 212.539 404.552 212.672 404.31 212.928Z" fill="url(#paint15_linear_3183_6827)"/>
</g>
<path d="M434.784 212H431.959V203.273H434.874C435.729 203.273 436.463 203.447 437.077 203.797C437.69 204.143 438.161 204.642 438.487 205.293C438.817 205.94 438.982 206.717 438.982 207.624C438.982 208.533 438.815 209.314 438.483 209.967C438.153 210.621 437.676 211.124 437.051 211.476C436.426 211.825 435.67 212 434.784 212ZM433.276 210.849H434.712C435.376 210.849 435.929 210.724 436.369 210.474C436.81 210.222 437.139 209.857 437.358 209.379C437.577 208.899 437.686 208.314 437.686 207.624C437.686 206.939 437.577 206.358 437.358 205.881C437.142 205.403 436.82 205.041 436.391 204.794C435.962 204.547 435.429 204.423 434.793 204.423H433.276V210.849ZM443.338 212.132C442.693 212.132 442.137 211.994 441.672 211.719C441.208 211.44 440.85 211.05 440.598 210.547C440.348 210.041 440.223 209.449 440.223 208.77C440.223 208.099 440.348 207.509 440.598 206.997C440.85 206.486 441.203 206.087 441.654 205.8C442.109 205.513 442.64 205.369 443.248 205.369C443.618 205.369 443.975 205.43 444.322 205.553C444.669 205.675 444.98 205.866 445.255 206.128C445.531 206.389 445.748 206.729 445.907 207.146C446.066 207.561 446.146 208.065 446.146 208.659V209.111H440.943V208.156H444.897C444.897 207.821 444.829 207.524 444.693 207.266C444.556 207.004 444.365 206.798 444.118 206.648C443.873 206.497 443.586 206.422 443.257 206.422C442.899 206.422 442.586 206.51 442.319 206.686C442.055 206.859 441.85 207.087 441.706 207.368C441.564 207.646 441.493 207.949 441.493 208.276V209.021C441.493 209.459 441.569 209.831 441.723 210.138C441.879 210.445 442.096 210.679 442.375 210.841C442.653 211 442.978 211.08 443.35 211.08C443.592 211.08 443.812 211.045 444.011 210.977C444.21 210.906 444.382 210.801 444.527 210.662C444.672 210.523 444.782 210.351 444.859 210.146L446.065 210.364C445.968 210.719 445.795 211.03 445.545 211.297C445.298 211.561 444.987 211.767 444.612 211.915C444.24 212.06 443.815 212.132 443.338 212.132ZM447.56 214.455V205.455H448.804V206.516H448.911C448.984 206.379 449.091 206.222 449.23 206.043C449.369 205.864 449.563 205.707 449.81 205.574C450.057 205.438 450.384 205.369 450.79 205.369C451.318 205.369 451.79 205.503 452.205 205.77C452.619 206.037 452.945 206.422 453.18 206.925C453.419 207.428 453.538 208.033 453.538 208.74C453.538 209.447 453.42 210.054 453.185 210.56C452.949 211.062 452.625 211.45 452.213 211.723C451.801 211.993 451.331 212.128 450.803 212.128C450.405 212.128 450.08 212.061 449.827 211.928C449.577 211.794 449.381 211.638 449.239 211.459C449.097 211.28 448.987 211.121 448.911 210.982H448.834V214.455H447.56ZM448.808 208.727C448.808 209.187 448.875 209.591 449.009 209.938C449.142 210.284 449.335 210.555 449.588 210.751C449.841 210.945 450.151 211.041 450.517 211.041C450.898 211.041 451.216 210.94 451.472 210.739C451.727 210.534 451.92 210.257 452.051 209.908C452.185 209.558 452.251 209.165 452.251 208.727C452.251 208.295 452.186 207.908 452.055 207.564C451.928 207.22 451.734 206.949 451.476 206.75C451.22 206.551 450.901 206.452 450.517 206.452C450.148 206.452 449.835 206.547 449.58 206.737C449.327 206.928 449.135 207.193 449.004 207.534C448.874 207.875 448.808 208.273 448.808 208.727ZM456.24 203.273V212H454.966V203.273H456.24ZM460.711 212.132C460.098 212.132 459.562 211.991 459.105 211.71C458.647 211.429 458.292 211.036 458.039 210.53C457.787 210.024 457.66 209.433 457.66 208.757C457.66 208.078 457.787 207.484 458.039 206.976C458.292 206.467 458.647 206.072 459.105 205.791C459.562 205.51 460.098 205.369 460.711 205.369C461.325 205.369 461.86 205.51 462.318 205.791C462.775 206.072 463.13 206.467 463.383 206.976C463.636 207.484 463.762 208.078 463.762 208.757C463.762 209.433 463.636 210.024 463.383 210.53C463.13 211.036 462.775 211.429 462.318 211.71C461.86 211.991 461.325 212.132 460.711 212.132ZM460.716 211.062C461.113 211.062 461.443 210.957 461.704 210.747C461.966 210.537 462.159 210.257 462.284 209.908C462.412 209.558 462.475 209.173 462.475 208.753C462.475 208.335 462.412 207.952 462.284 207.602C462.159 207.25 461.966 206.967 461.704 206.754C461.443 206.541 461.113 206.435 460.716 206.435C460.315 206.435 459.983 206.541 459.718 206.754C459.457 206.967 459.262 207.25 459.135 207.602C459.01 207.952 458.947 208.335 458.947 208.753C458.947 209.173 459.01 209.558 459.135 209.908C459.262 210.257 459.457 210.537 459.718 210.747C459.983 210.957 460.315 211.062 460.716 211.062ZM465.767 214.455C465.577 214.455 465.404 214.439 465.248 214.408C465.091 214.379 464.975 214.348 464.898 214.314L465.205 213.27C465.438 213.332 465.645 213.359 465.827 213.351C466.009 213.342 466.169 213.274 466.309 213.146C466.451 213.018 466.576 212.81 466.684 212.52L466.841 212.085L464.446 205.455H465.81L467.468 210.534H467.536L469.194 205.455H470.561L467.864 212.874C467.739 213.214 467.58 213.503 467.387 213.739C467.194 213.977 466.963 214.156 466.696 214.276C466.429 214.395 466.12 214.455 465.767 214.455ZM471.759 212V205.455H472.982V206.52H473.063C473.199 206.159 473.422 205.878 473.732 205.676C474.042 205.472 474.412 205.369 474.844 205.369C475.282 205.369 475.648 205.472 475.944 205.676C476.242 205.881 476.462 206.162 476.604 206.52H476.672C476.828 206.17 477.077 205.892 477.418 205.685C477.759 205.474 478.165 205.369 478.637 205.369C479.23 205.369 479.715 205.555 480.09 205.928C480.468 206.3 480.657 206.861 480.657 207.611V212H479.382V207.73C479.382 207.287 479.262 206.966 479.02 206.767C478.779 206.568 478.49 206.469 478.155 206.469C477.74 206.469 477.418 206.597 477.188 206.852C476.958 207.105 476.843 207.43 476.843 207.828V212H475.573V207.649C475.573 207.294 475.462 207.009 475.24 206.793C475.019 206.577 474.73 206.469 474.375 206.469C474.134 206.469 473.911 206.533 473.706 206.661C473.505 206.786 473.341 206.96 473.216 207.185C473.094 207.409 473.033 207.669 473.033 207.964V212H471.759ZM485.185 212.132C484.54 212.132 483.985 211.994 483.519 211.719C483.056 211.44 482.698 211.05 482.445 210.547C482.195 210.041 482.07 209.449 482.07 208.77C482.07 208.099 482.195 207.509 482.445 206.997C482.698 206.486 483.05 206.087 483.502 205.8C483.957 205.513 484.488 205.369 485.096 205.369C485.465 205.369 485.823 205.43 486.17 205.553C486.516 205.675 486.827 205.866 487.103 206.128C487.379 206.389 487.596 206.729 487.755 207.146C487.914 207.561 487.994 208.065 487.994 208.659V209.111H482.79V208.156H486.745C486.745 207.821 486.677 207.524 486.54 207.266C486.404 207.004 486.212 206.798 485.965 206.648C485.721 206.497 485.434 206.422 485.104 206.422C484.746 206.422 484.434 206.51 484.167 206.686C483.903 206.859 483.698 207.087 483.553 207.368C483.411 207.646 483.34 207.949 483.34 208.276V209.021C483.34 209.459 483.417 209.831 483.57 210.138C483.727 210.445 483.944 210.679 484.222 210.841C484.501 211 484.826 211.08 485.198 211.08C485.44 211.08 485.66 211.045 485.859 210.977C486.058 210.906 486.229 210.801 486.374 210.662C486.519 210.523 486.63 210.351 486.707 210.146L487.913 210.364C487.816 210.719 487.643 211.03 487.393 211.297C487.146 211.561 486.835 211.767 486.46 211.915C486.087 212.06 485.663 212.132 485.185 212.132ZM490.681 208.114V212H489.407V205.455H490.63V206.52H490.711C490.862 206.173 491.098 205.895 491.419 205.685C491.743 205.474 492.15 205.369 492.642 205.369C493.088 205.369 493.478 205.463 493.814 205.651C494.149 205.835 494.409 206.111 494.593 206.477C494.778 206.844 494.87 207.297 494.87 207.837V212H493.596V207.99C493.596 207.516 493.473 207.145 493.225 206.878C492.978 206.608 492.639 206.473 492.207 206.473C491.912 206.473 491.649 206.537 491.419 206.665C491.191 206.793 491.011 206.98 490.877 207.227C490.747 207.472 490.681 207.767 490.681 208.114ZM499.635 205.455V206.477H496.059V205.455H499.635ZM497.018 203.886H498.292V210.078C498.292 210.325 498.329 210.511 498.403 210.636C498.477 210.759 498.572 210.842 498.689 210.888C498.808 210.93 498.937 210.952 499.076 210.952C499.179 210.952 499.268 210.945 499.345 210.93C499.422 210.916 499.481 210.905 499.524 210.896L499.754 211.949C499.68 211.977 499.575 212.006 499.439 212.034C499.302 212.065 499.132 212.082 498.927 212.085C498.592 212.091 498.279 212.031 497.99 211.906C497.7 211.781 497.466 211.588 497.287 211.327C497.108 211.065 497.018 210.737 497.018 210.342V203.886Z" fill="#231F20"/>
<rect x="431.5" y="114.5" width="139" height="39" rx="12.3571" fill="white"/>
<rect x="431.5" y="114.5" width="139" height="39" rx="12.3571" stroke="url(#paint16_linear_3183_6827)"/>
<mask id="mask4_3183_6827" style="mask-type:alpha" maskUnits="userSpaceOnUse" x="441" y="122" width="24" height="24">
<rect x="441" y="122" width="24" height="24" fill="#D9D9D9"/>
</mask>
<g mask="url(#mask4_3183_6827)">
<path d="M449.24 139.628H456.76V138.372H449.24V139.628ZM449.24 135.507H456.76V134.25H449.24V135.507ZM447.064 143.5C446.634 143.5 446.266 143.347 445.96 143.04C445.653 142.734 445.5 142.366 445.5 141.936V126.064C445.5 125.634 445.653 125.266 445.96 124.96C446.266 124.653 446.634 124.5 447.064 124.5H455.504L460.5 129.496V141.936C460.5 142.366 460.347 142.734 460.04 143.04C459.734 143.347 459.366 143.5 458.936 143.5H447.064ZM454.876 130.087V125.757H447.064C446.987 125.757 446.917 125.788 446.853 125.852C446.789 125.917 446.757 125.987 446.757 126.064V141.936C446.757 142.013 446.789 142.083 446.853 142.148C446.917 142.212 446.987 142.243 447.064 142.243H458.936C459.013 142.243 459.083 142.212 459.148 142.148C459.212 142.083 459.244 142.013 459.244 141.936V130.087H454.876Z" fill="url(#paint17_linear_3183_6827)"/>
</g>
<path d="M476.784 138H473.959V129.273H476.874C477.729 129.273 478.463 129.447 479.077 129.797C479.69 130.143 480.161 130.642 480.487 131.293C480.817 131.94 480.982 132.717 480.982 133.624C480.982 134.533 480.815 135.314 480.483 135.967C480.153 136.621 479.676 137.124 479.051 137.476C478.426 137.825 477.67 138 476.784 138ZM475.276 136.849H476.712C477.376 136.849 477.929 136.724 478.369 136.474C478.81 136.222 479.139 135.857 479.358 135.379C479.577 134.899 479.686 134.314 479.686 133.624C479.686 132.939 479.577 132.358 479.358 131.881C479.142 131.403 478.82 131.041 478.391 130.794C477.962 130.547 477.429 130.423 476.793 130.423H475.276V136.849ZM485.274 138.132C484.66 138.132 484.125 137.991 483.667 137.71C483.21 137.429 482.855 137.036 482.602 136.53C482.349 136.024 482.223 135.433 482.223 134.757C482.223 134.078 482.349 133.484 482.602 132.976C482.855 132.467 483.21 132.072 483.667 131.791C484.125 131.51 484.66 131.369 485.274 131.369C485.887 131.369 486.423 131.51 486.88 131.791C487.338 132.072 487.693 132.467 487.946 132.976C488.199 133.484 488.325 134.078 488.325 134.757C488.325 135.433 488.199 136.024 487.946 136.53C487.693 137.036 487.338 137.429 486.88 137.71C486.423 137.991 485.887 138.132 485.274 138.132ZM485.278 137.062C485.676 137.062 486.005 136.957 486.267 136.747C486.528 136.537 486.721 136.257 486.846 135.908C486.974 135.558 487.038 135.173 487.038 134.753C487.038 134.335 486.974 133.952 486.846 133.602C486.721 133.25 486.528 132.967 486.267 132.754C486.005 132.541 485.676 132.435 485.278 132.435C484.877 132.435 484.545 132.541 484.281 132.754C484.02 132.967 483.825 133.25 483.697 133.602C483.572 133.952 483.51 134.335 483.51 134.753C483.51 135.173 483.572 135.558 483.697 135.908C483.825 136.257 484.02 136.537 484.281 136.747C484.545 136.957 484.877 137.062 485.278 137.062ZM492.504 138.132C491.871 138.132 491.325 137.989 490.868 137.702C490.413 137.412 490.064 137.013 489.82 136.504C489.575 135.996 489.453 135.413 489.453 134.757C489.453 134.092 489.578 133.506 489.828 132.997C490.078 132.486 490.43 132.087 490.885 131.8C491.339 131.513 491.875 131.369 492.491 131.369C492.989 131.369 493.432 131.462 493.821 131.646C494.21 131.828 494.524 132.084 494.763 132.413C495.004 132.743 495.148 133.128 495.193 133.568H493.953C493.885 133.261 493.729 132.997 493.484 132.776C493.243 132.554 492.919 132.443 492.513 132.443C492.158 132.443 491.847 132.537 491.58 132.724C491.315 132.909 491.109 133.173 490.962 133.517C490.814 133.858 490.74 134.261 490.74 134.727C490.74 135.205 490.813 135.616 490.957 135.963C491.102 136.31 491.307 136.578 491.571 136.768C491.838 136.959 492.152 137.054 492.513 137.054C492.754 137.054 492.973 137.01 493.169 136.922C493.368 136.831 493.534 136.702 493.668 136.534C493.804 136.366 493.899 136.165 493.953 135.929H495.193C495.148 136.352 495.01 136.73 494.78 137.062C494.55 137.395 494.241 137.656 493.855 137.847C493.472 138.037 493.021 138.132 492.504 138.132ZM500.702 135.286V131.455H501.98V138H500.728V136.866H500.659C500.509 137.216 500.267 137.507 499.935 137.74C499.605 137.97 499.195 138.085 498.703 138.085C498.283 138.085 497.911 137.993 497.587 137.808C497.266 137.621 497.013 137.344 496.828 136.977C496.647 136.611 496.556 136.158 496.556 135.618V131.455H497.83V135.464C497.83 135.911 497.953 136.266 498.201 136.53C498.448 136.794 498.769 136.926 499.164 136.926C499.402 136.926 499.64 136.866 499.875 136.747C500.114 136.628 500.311 136.447 500.468 136.206C500.627 135.964 500.705 135.658 500.702 135.286ZM503.692 138V131.455H504.915V132.52H504.996C505.133 132.159 505.356 131.878 505.665 131.676C505.975 131.472 506.346 131.369 506.778 131.369C507.215 131.369 507.582 131.472 507.877 131.676C508.175 131.881 508.396 132.162 508.538 132.52H508.606C508.762 132.17 509.011 131.892 509.352 131.685C509.692 131.474 510.099 131.369 510.57 131.369C511.164 131.369 511.648 131.555 512.023 131.928C512.401 132.3 512.59 132.861 512.59 133.611V138H511.316V133.73C511.316 133.287 511.195 132.966 510.954 132.767C510.712 132.568 510.424 132.469 510.089 132.469C509.674 132.469 509.352 132.597 509.121 132.852C508.891 133.105 508.776 133.43 508.776 133.828V138H507.506V133.649C507.506 133.294 507.396 133.009 507.174 132.793C506.952 132.577 506.664 132.469 506.309 132.469C506.067 132.469 505.844 132.533 505.64 132.661C505.438 132.786 505.275 132.96 505.15 133.185C505.028 133.409 504.967 133.669 504.967 133.964V138H503.692ZM517.119 138.132C516.474 138.132 515.919 137.994 515.453 137.719C514.99 137.44 514.632 137.05 514.379 136.547C514.129 136.041 514.004 135.449 514.004 134.77C514.004 134.099 514.129 133.509 514.379 132.997C514.632 132.486 514.984 132.087 515.436 131.8C515.89 131.513 516.422 131.369 517.029 131.369C517.399 131.369 517.757 131.43 518.103 131.553C518.45 131.675 518.761 131.866 519.037 132.128C519.312 132.389 519.529 132.729 519.689 133.146C519.848 133.561 519.927 134.065 519.927 134.659V135.111H514.724V134.156H518.679C518.679 133.821 518.61 133.524 518.474 133.266C518.338 133.004 518.146 132.798 517.899 132.648C517.654 132.497 517.368 132.422 517.038 132.422C516.68 132.422 516.368 132.51 516.1 132.686C515.836 132.859 515.632 133.087 515.487 133.368C515.345 133.646 515.274 133.949 515.274 134.276V135.021C515.274 135.459 515.35 135.831 515.504 136.138C515.66 136.445 515.877 136.679 516.156 136.841C516.434 137 516.76 137.08 517.132 137.08C517.373 137.08 517.593 137.045 517.792 136.977C517.991 136.906 518.163 136.801 518.308 136.662C518.453 136.523 518.564 136.351 518.64 136.146L519.846 136.364C519.75 136.719 519.576 137.03 519.326 137.297C519.079 137.561 518.768 137.767 518.393 137.915C518.021 138.06 517.596 138.132 517.119 138.132ZM522.615 134.114V138H521.341V131.455H522.564V132.52H522.645C522.795 132.173 523.031 131.895 523.352 131.685C523.676 131.474 524.084 131.369 524.575 131.369C525.021 131.369 525.412 131.463 525.747 131.651C526.082 131.835 526.342 132.111 526.527 132.477C526.712 132.844 526.804 133.297 526.804 133.837V138H525.53V133.99C525.53 133.516 525.406 133.145 525.159 132.878C524.912 132.608 524.572 132.473 524.141 132.473C523.845 132.473 523.582 132.537 523.352 132.665C523.125 132.793 522.945 132.98 522.811 133.227C522.68 133.472 522.615 133.767 522.615 134.114ZM531.568 131.455V132.477H527.993V131.455H531.568ZM528.952 129.886H530.226V136.078C530.226 136.325 530.263 136.511 530.337 136.636C530.411 136.759 530.506 136.842 530.622 136.888C530.741 136.93 530.871 136.952 531.01 136.952C531.112 136.952 531.202 136.945 531.278 136.93C531.355 136.916 531.415 136.905 531.457 136.896L531.688 137.949C531.614 137.977 531.509 138.006 531.372 138.034C531.236 138.065 531.065 138.082 530.861 138.085C530.526 138.091 530.213 138.031 529.923 137.906C529.634 137.781 529.399 137.588 529.22 137.327C529.041 137.065 528.952 136.737 528.952 136.342V129.886ZM534.882 138.145C534.468 138.145 534.093 138.068 533.757 137.915C533.422 137.759 533.157 137.533 532.961 137.237C532.767 136.942 532.671 136.58 532.671 136.151C532.671 135.781 532.742 135.477 532.884 135.239C533.026 135 533.218 134.811 533.459 134.672C533.701 134.533 533.971 134.428 534.269 134.357C534.567 134.286 534.871 134.232 535.181 134.195C535.573 134.149 535.891 134.112 536.135 134.084C536.38 134.053 536.557 134.003 536.668 133.935C536.779 133.866 536.834 133.756 536.834 133.602V133.572C536.834 133.2 536.729 132.912 536.519 132.707C536.311 132.503 536.002 132.401 535.59 132.401C535.161 132.401 534.823 132.496 534.576 132.686C534.331 132.874 534.162 133.082 534.069 133.312L532.871 133.04C533.013 132.642 533.221 132.321 533.493 132.077C533.769 131.83 534.086 131.651 534.444 131.54C534.801 131.426 535.178 131.369 535.573 131.369C535.834 131.369 536.111 131.401 536.404 131.463C536.699 131.523 536.975 131.634 537.23 131.795C537.489 131.957 537.701 132.189 537.865 132.49C538.03 132.788 538.113 133.176 538.113 133.653V138H536.868V137.105H536.817C536.735 137.27 536.611 137.432 536.446 137.591C536.282 137.75 536.07 137.882 535.811 137.987C535.553 138.092 535.243 138.145 534.882 138.145ZM535.159 137.122C535.512 137.122 535.813 137.053 536.063 136.913C536.316 136.774 536.507 136.592 536.638 136.368C536.772 136.141 536.838 135.898 536.838 135.639V134.795C536.793 134.841 536.705 134.884 536.574 134.923C536.446 134.96 536.3 134.993 536.135 135.021C535.971 135.047 535.81 135.071 535.654 135.094C535.498 135.114 535.367 135.131 535.262 135.145C535.015 135.176 534.789 135.229 534.584 135.303C534.382 135.376 534.221 135.483 534.098 135.622C533.979 135.759 533.919 135.94 533.919 136.168C533.919 136.483 534.036 136.722 534.269 136.884C534.502 137.043 534.799 137.122 535.159 137.122ZM542.865 131.455V132.477H539.29V131.455H542.865ZM540.249 129.886H541.523V136.078C541.523 136.325 541.56 136.511 541.634 136.636C541.707 136.759 541.803 136.842 541.919 136.888C542.038 136.93 542.168 136.952 542.307 136.952C542.409 136.952 542.499 136.945 542.575 136.93C542.652 136.916 542.712 136.905 542.754 136.896L542.984 137.949C542.911 137.977 542.805 138.006 542.669 138.034C542.533 138.065 542.362 138.082 542.158 138.085C541.822 138.091 541.51 138.031 541.22 137.906C540.93 137.781 540.696 137.588 540.517 137.327C540.338 137.065 540.249 136.737 540.249 136.342V129.886ZM544.275 138V131.455H545.549V138H544.275ZM544.918 130.445C544.696 130.445 544.506 130.371 544.347 130.223C544.191 130.072 544.113 129.893 544.113 129.686C544.113 129.476 544.191 129.297 544.347 129.149C544.506 128.999 544.696 128.923 544.918 128.923C545.14 128.923 545.328 128.999 545.485 129.149C545.644 129.297 545.723 129.476 545.723 129.686C545.723 129.893 545.644 130.072 545.485 130.223C545.328 130.371 545.14 130.445 544.918 130.445ZM550.02 138.132C549.406 138.132 548.871 137.991 548.413 137.71C547.956 137.429 547.601 137.036 547.348 136.53C547.095 136.024 546.969 135.433 546.969 134.757C546.969 134.078 547.095 133.484 547.348 132.976C547.601 132.467 547.956 132.072 548.413 131.791C548.871 131.51 549.406 131.369 550.02 131.369C550.634 131.369 551.169 131.51 551.626 131.791C552.084 132.072 552.439 132.467 552.692 132.976C552.945 133.484 553.071 134.078 553.071 134.757C553.071 135.433 552.945 136.024 552.692 136.53C552.439 137.036 552.084 137.429 551.626 137.71C551.169 137.991 550.634 138.132 550.02 138.132ZM550.024 137.062C550.422 137.062 550.751 136.957 551.013 136.747C551.274 136.537 551.467 136.257 551.592 135.908C551.72 135.558 551.784 135.173 551.784 134.753C551.784 134.335 551.72 133.952 551.592 133.602C551.467 133.25 551.274 132.967 551.013 132.754C550.751 132.541 550.422 132.435 550.024 132.435C549.624 132.435 549.291 132.541 549.027 132.754C548.766 132.967 548.571 133.25 548.443 133.602C548.318 133.952 548.256 134.335 548.256 134.753C548.256 135.173 548.318 135.558 548.443 135.908C548.571 136.257 548.766 136.537 549.027 136.747C549.291 136.957 549.624 137.062 550.024 137.062ZM555.767 134.114V138H554.493V131.455H555.716V132.52H555.797C555.948 132.173 556.184 131.895 556.505 131.685C556.828 131.474 557.236 131.369 557.728 131.369C558.174 131.369 558.564 131.463 558.9 131.651C559.235 131.835 559.495 132.111 559.679 132.477C559.864 132.844 559.956 133.297 559.956 133.837V138H558.682V133.99C558.682 133.516 558.559 133.145 558.311 132.878C558.064 132.608 557.725 132.473 557.293 132.473C556.998 132.473 556.735 132.537 556.505 132.665C556.277 132.793 556.097 132.98 555.963 133.227C555.833 133.472 555.767 133.767 555.767 134.114Z" fill="#231F20"/>
<rect x="394.5" y="39.5" width="126" height="39" rx="12.3571" fill="white"/>
<rect x="394.5" y="39.5" width="126" height="39" rx="12.3571" stroke="url(#paint18_linear_3183_6827)"/>
<mask id="mask5_3183_6827" style="mask-type:alpha" maskUnits="userSpaceOnUse" x="404" y="47" width="24" height="24">
<rect x="404" y="47" width="24" height="24" fill="#D9D9D9"/>
</mask>
<g mask="url(#mask5_3183_6827)">
<path d="M413.909 68.5L413.481 65.4807C413.163 65.3731 412.826 65.2182 412.469 65.016C412.112 64.8138 411.801 64.5991 411.536 64.3717L408.732 65.618L406.631 61.9295L409.129 60.075C409.099 59.9083 409.077 59.7307 409.064 59.5422C409.051 59.3537 409.045 59.1762 409.045 59.0095C409.045 58.8493 409.051 58.6756 409.064 58.4882C409.077 58.3007 409.099 58.113 409.129 57.925L406.631 56.064L408.732 52.4012L411.527 53.6315C411.811 53.402 412.125 53.1877 412.471 52.9887C412.817 52.7899 413.151 52.639 413.471 52.536L413.909 49.5H418.091L418.519 52.5288C418.865 52.6558 419.2 52.8106 419.526 52.9932C419.853 53.1759 420.155 53.3887 420.434 53.6315L423.274 52.4012L425.369 56.064L422.833 57.927C422.875 58.1133 422.901 58.297 422.91 58.478C422.919 58.6588 422.923 58.8328 422.923 59C422.923 59.1607 422.917 59.3298 422.905 59.5075C422.893 59.685 422.867 59.8744 422.827 60.0758L425.351 61.9295L423.25 65.618L420.434 64.3622C420.144 64.6024 419.836 64.8215 419.509 65.0195C419.183 65.2177 418.853 65.3682 418.519 65.4712L418.091 68.5H413.909ZM414.952 67.2435H417.029L417.389 64.4905C417.913 64.3572 418.399 64.1615 418.846 63.9035C419.293 63.6457 419.722 63.3169 420.132 62.9172L422.701 64.0192L423.696 62.2717L421.432 60.5898C421.504 60.3059 421.558 60.0352 421.594 59.7775C421.63 59.5198 421.647 59.2607 421.647 59C421.647 58.7287 421.631 58.4673 421.599 58.216C421.567 57.9647 421.511 57.7025 421.432 57.4295L423.715 55.7282L422.72 53.9807L420.122 55.0878C419.777 54.7053 419.36 54.3679 418.874 54.0758C418.387 53.7834 417.889 53.5947 417.379 53.5095L417.047 50.7565H414.958L414.627 53.5C414.088 53.6137 413.591 53.8011 413.136 54.0622C412.681 54.3232 412.254 54.6602 411.855 55.073L409.279 53.9807L408.284 55.7282L410.545 57.3955C410.469 57.6507 410.412 57.9116 410.376 58.1783C410.339 58.4449 410.32 58.722 410.32 59.0095C410.32 59.281 410.339 59.5468 410.376 59.807C410.412 60.0673 410.466 60.3282 410.536 60.5898L408.284 62.2717L409.279 64.0192L411.845 62.9217C412.239 63.3226 412.664 63.6525 413.12 63.9115C413.577 64.1705 414.076 64.3667 414.617 64.5L414.952 67.2435ZM415.984 61.8782C416.785 61.8782 417.465 61.5987 418.024 61.0395C418.583 60.4803 418.863 59.8005 418.863 59C418.863 58.1995 418.583 57.5197 418.024 56.9605C417.465 56.4013 416.785 56.1217 415.984 56.1217C415.185 56.1217 414.505 56.4013 413.946 56.9605C413.386 57.5197 413.106 58.1995 413.106 59C413.106 59.8005 413.386 60.4803 413.946 61.0395C414.505 61.5987 415.185 61.8782 415.984 61.8782Z" fill="url(#paint19_linear_3183_6827)"/>
</g>
<path d="M436.959 54.2727H438.557L441.335 61.0568H441.438L444.216 54.2727H445.814V63H444.561V56.6847H444.48L441.906 62.9872H440.866L438.293 56.6804H438.212V63H436.959V54.2727ZM449.531 63.1449C449.116 63.1449 448.741 63.0682 448.406 62.9148C448.071 62.7585 447.805 62.5327 447.609 62.2372C447.416 61.9418 447.319 61.5795 447.319 61.1506C447.319 60.7812 447.39 60.4773 447.532 60.2386C447.674 60 447.866 59.8111 448.108 59.6719C448.349 59.5327 448.619 59.4276 448.917 59.3565C449.216 59.2855 449.52 59.2315 449.829 59.1946C450.221 59.1491 450.539 59.1122 450.784 59.0838C451.028 59.0526 451.206 59.0028 451.316 58.9347C451.427 58.8665 451.483 58.7557 451.483 58.6023V58.5724C451.483 58.2003 451.377 57.9119 451.167 57.7074C450.96 57.5028 450.65 57.4006 450.238 57.4006C449.809 57.4006 449.471 57.4957 449.224 57.6861C448.98 57.8736 448.811 58.0824 448.717 58.3125L447.52 58.0398C447.662 57.642 447.869 57.321 448.142 57.0767C448.417 56.8295 448.734 56.6506 449.092 56.5398C449.45 56.4261 449.826 56.3693 450.221 56.3693C450.483 56.3693 450.76 56.4006 451.052 56.4631C451.348 56.5227 451.623 56.6335 451.879 56.7955C452.137 56.9574 452.349 57.1889 452.514 57.4901C452.679 57.7884 452.761 58.1761 452.761 58.6534V63H451.517V62.1051H451.466C451.383 62.2699 451.26 62.4318 451.095 62.5909C450.93 62.75 450.718 62.8821 450.46 62.9872C450.201 63.0923 449.892 63.1449 449.531 63.1449ZM449.808 62.1222C450.16 62.1222 450.461 62.0526 450.711 61.9134C450.964 61.7741 451.156 61.5923 451.287 61.3679C451.42 61.1406 451.487 60.8977 451.487 60.6392V59.7955C451.441 59.8409 451.353 59.8835 451.223 59.9233C451.095 59.9602 450.949 59.9929 450.784 60.0213C450.619 60.0469 450.458 60.071 450.302 60.0938C450.146 60.1136 450.015 60.1307 449.91 60.1449C449.663 60.1761 449.437 60.2287 449.233 60.3026C449.031 60.3764 448.869 60.483 448.747 60.6222C448.627 60.7585 448.568 60.9403 448.568 61.1676C448.568 61.483 448.684 61.7216 448.917 61.8835C449.15 62.0426 449.447 62.1222 449.808 62.1222ZM454.458 63V56.4545H455.732V63H454.458ZM455.102 55.4446C454.88 55.4446 454.69 55.3707 454.531 55.223C454.374 55.0724 454.296 54.8935 454.296 54.6861C454.296 54.4759 454.374 54.2969 454.531 54.1491C454.69 53.9986 454.88 53.9233 455.102 53.9233C455.323 53.9233 455.512 53.9986 455.668 54.1491C455.827 54.2969 455.907 54.4759 455.907 54.6861C455.907 54.8935 455.827 55.0724 455.668 55.223C455.512 55.3707 455.323 55.4446 455.102 55.4446ZM458.721 59.1136V63H457.446V56.4545H458.669V57.5199H458.75C458.901 57.1733 459.137 56.8949 459.458 56.6847C459.782 56.4744 460.189 56.3693 460.681 56.3693C461.127 56.3693 461.517 56.4631 461.853 56.6506C462.188 56.8352 462.448 57.1108 462.632 57.4773C462.817 57.8437 462.909 58.2969 462.909 58.8366V63H461.635V58.9901C461.635 58.5156 461.512 58.1449 461.265 57.8778C461.017 57.608 460.678 57.473 460.246 57.473C459.951 57.473 459.688 57.5369 459.458 57.6648C459.23 57.7926 459.05 57.9801 458.917 58.2273C458.786 58.4716 458.721 58.767 458.721 59.1136ZM467.674 56.4545V57.4773H464.098V56.4545H467.674ZM465.057 54.8864H466.331V61.0781C466.331 61.3253 466.368 61.5114 466.442 61.6364C466.516 61.7585 466.611 61.8423 466.728 61.8878C466.847 61.9304 466.976 61.9517 467.115 61.9517C467.218 61.9517 467.307 61.9446 467.384 61.9304C467.461 61.9162 467.52 61.9048 467.563 61.8963L467.793 62.9489C467.719 62.9773 467.614 63.0057 467.478 63.0341C467.341 63.0653 467.171 63.0824 466.966 63.0852C466.631 63.0909 466.319 63.0312 466.029 62.9062C465.739 62.7812 465.505 62.5881 465.326 62.3267C465.147 62.0653 465.057 61.7372 465.057 61.3423V54.8864ZM471.834 63.1321C471.189 63.1321 470.634 62.9943 470.168 62.7188C469.705 62.4403 469.347 62.0497 469.094 61.5469C468.844 61.0412 468.719 60.4489 468.719 59.7699C468.719 59.0994 468.844 58.5085 469.094 57.9972C469.347 57.4858 469.699 57.0866 470.151 56.7997C470.605 56.5128 471.136 56.3693 471.744 56.3693C472.114 56.3693 472.472 56.4304 472.818 56.5526C473.165 56.6747 473.476 56.8665 473.751 57.1278C474.027 57.3892 474.244 57.7287 474.403 58.1463C474.563 58.5611 474.642 59.0653 474.642 59.6591V60.1108H469.439V59.1562H473.393C473.393 58.821 473.325 58.5241 473.189 58.2656C473.053 58.0043 472.861 57.7983 472.614 57.6477C472.369 57.4972 472.082 57.4219 471.753 57.4219C471.395 57.4219 471.082 57.5099 470.815 57.6861C470.551 57.8594 470.347 58.0866 470.202 58.3679C470.06 58.6463 469.989 58.9489 469.989 59.2756V60.0213C469.989 60.4588 470.065 60.831 470.219 61.1378C470.375 61.4446 470.592 61.679 470.871 61.8409C471.149 62 471.474 62.0795 471.847 62.0795C472.088 62.0795 472.308 62.0455 472.507 61.9773C472.706 61.9062 472.878 61.8011 473.023 61.6619C473.168 61.5227 473.278 61.3509 473.355 61.1463L474.561 61.3636C474.464 61.7187 474.291 62.0298 474.041 62.2969C473.794 62.5611 473.483 62.767 473.108 62.9148C472.736 63.0597 472.311 63.1321 471.834 63.1321ZM477.33 59.1136V63H476.056V56.4545H477.279V57.5199H477.36C477.51 57.1733 477.746 56.8949 478.067 56.6847C478.391 56.4744 478.799 56.3693 479.29 56.3693C479.736 56.3693 480.127 56.4631 480.462 56.6506C480.797 56.8352 481.057 57.1108 481.242 57.4773C481.426 57.8437 481.519 58.2969 481.519 58.8366V63H480.245V58.9901C480.245 58.5156 480.121 58.1449 479.874 57.8778C479.627 57.608 479.287 57.473 478.855 57.473C478.56 57.473 478.297 57.5369 478.067 57.6648C477.84 57.7926 477.659 57.9801 477.526 58.2273C477.395 58.4716 477.33 58.767 477.33 59.1136ZM485.132 63.1449C484.718 63.1449 484.343 63.0682 484.007 62.9148C483.672 62.7585 483.407 62.5327 483.211 62.2372C483.017 61.9418 482.921 61.5795 482.921 61.1506C482.921 60.7812 482.992 60.4773 483.134 60.2386C483.276 60 483.468 59.8111 483.709 59.6719C483.951 59.5327 484.221 59.4276 484.519 59.3565C484.817 59.2855 485.121 59.2315 485.431 59.1946C485.823 59.1491 486.141 59.1122 486.385 59.0838C486.63 59.0526 486.807 59.0028 486.918 58.9347C487.029 58.8665 487.084 58.7557 487.084 58.6023V58.5724C487.084 58.2003 486.979 57.9119 486.769 57.7074C486.561 57.5028 486.252 57.4006 485.84 57.4006C485.411 57.4006 485.073 57.4957 484.826 57.6861C484.581 57.8736 484.412 58.0824 484.319 58.3125L483.121 58.0398C483.263 57.642 483.471 57.321 483.743 57.0767C484.019 56.8295 484.336 56.6506 484.694 56.5398C485.051 56.4261 485.428 56.3693 485.823 56.3693C486.084 56.3693 486.361 56.4006 486.654 56.4631C486.949 56.5227 487.225 56.6335 487.48 56.7955C487.739 56.9574 487.951 57.1889 488.115 57.4901C488.28 57.7884 488.363 58.1761 488.363 58.6534V63H487.118V62.1051H487.067C486.985 62.2699 486.861 62.4318 486.696 62.5909C486.532 62.75 486.32 62.8821 486.061 62.9872C485.803 63.0923 485.493 63.1449 485.132 63.1449ZM485.409 62.1222C485.762 62.1222 486.063 62.0526 486.313 61.9134C486.566 61.7741 486.757 61.5923 486.888 61.3679C487.022 61.1406 487.088 60.8977 487.088 60.6392V59.7955C487.043 59.8409 486.955 59.8835 486.824 59.9233C486.696 59.9602 486.55 59.9929 486.385 60.0213C486.221 60.0469 486.06 60.071 485.904 60.0938C485.748 60.1136 485.617 60.1307 485.512 60.1449C485.265 60.1761 485.039 60.2287 484.834 60.3026C484.632 60.3764 484.471 60.483 484.348 60.6222C484.229 60.7585 484.169 60.9403 484.169 61.1676C484.169 61.483 484.286 61.7216 484.519 61.8835C484.752 62.0426 485.049 62.1222 485.409 62.1222ZM491.334 59.1136V63H490.06V56.4545H491.283V57.5199H491.364C491.514 57.1733 491.75 56.8949 492.071 56.6847C492.395 56.4744 492.803 56.3693 493.294 56.3693C493.74 56.3693 494.131 56.4631 494.466 56.6506C494.801 56.8352 495.061 57.1108 495.246 57.4773C495.43 57.8437 495.523 58.2969 495.523 58.8366V63H494.249V58.9901C494.249 58.5156 494.125 58.1449 493.878 57.8778C493.631 57.608 493.291 57.473 492.859 57.473C492.564 57.473 492.301 57.5369 492.071 57.6648C491.844 57.7926 491.663 57.9801 491.53 58.2273C491.399 58.4716 491.334 58.767 491.334 59.1136ZM499.989 63.1321C499.355 63.1321 498.81 62.9886 498.352 62.7017C497.898 62.4119 497.548 62.0128 497.304 61.5043C497.06 60.9957 496.938 60.4134 496.938 59.7571C496.938 59.0923 497.062 58.5057 497.312 57.9972C497.562 57.4858 497.915 57.0866 498.369 56.7997C498.824 56.5128 499.359 56.3693 499.976 56.3693C500.473 56.3693 500.916 56.4616 501.305 56.6463C501.695 56.8281 502.009 57.0838 502.247 57.4134C502.489 57.7429 502.632 58.1278 502.678 58.5682H501.438C501.369 58.2614 501.213 57.9972 500.969 57.7756C500.727 57.554 500.403 57.4432 499.997 57.4432C499.642 57.4432 499.331 57.5369 499.064 57.7244C498.8 57.9091 498.594 58.1733 498.446 58.517C498.298 58.858 498.224 59.2614 498.224 59.7273C498.224 60.2045 498.297 60.6165 498.442 60.9631C498.587 61.3097 498.791 61.5781 499.055 61.7685C499.322 61.9588 499.636 62.054 499.997 62.054C500.239 62.054 500.457 62.0099 500.653 61.9219C500.852 61.831 501.018 61.7017 501.152 61.5341C501.288 61.3665 501.384 61.1648 501.438 60.929H502.678C502.632 61.3523 502.494 61.7301 502.264 62.0625C502.034 62.3949 501.726 62.6562 501.339 62.8466C500.956 63.0369 500.506 63.1321 499.989 63.1321ZM506.861 63.1321C506.216 63.1321 505.661 62.9943 505.195 62.7188C504.732 62.4403 504.374 62.0497 504.121 61.5469C503.871 61.0412 503.746 60.4489 503.746 59.7699C503.746 59.0994 503.871 58.5085 504.121 57.9972C504.374 57.4858 504.726 57.0866 505.178 56.7997C505.632 56.5128 506.164 56.3693 506.772 56.3693C507.141 56.3693 507.499 56.4304 507.846 56.5526C508.192 56.6747 508.503 56.8665 508.779 57.1278C509.054 57.3892 509.272 57.7287 509.431 58.1463C509.59 58.5611 509.669 59.0653 509.669 59.6591V60.1108H504.466V59.1562H508.421C508.421 58.821 508.353 58.5241 508.216 58.2656C508.08 58.0043 507.888 57.7983 507.641 57.6477C507.397 57.4972 507.11 57.4219 506.78 57.4219C506.422 57.4219 506.11 57.5099 505.843 57.6861C505.578 57.8594 505.374 58.0866 505.229 58.3679C505.087 58.6463 505.016 58.9489 505.016 59.2756V60.0213C505.016 60.4588 505.093 60.831 505.246 61.1378C505.402 61.4446 505.62 61.679 505.898 61.8409C506.176 62 506.502 62.0795 506.874 62.0795C507.115 62.0795 507.336 62.0455 507.534 61.9773C507.733 61.9062 507.905 61.8011 508.05 61.6619C508.195 61.5227 508.306 61.3509 508.382 61.1463L509.588 61.3636C509.492 61.7187 509.319 62.0298 509.069 62.2969C508.821 62.5611 508.51 62.767 508.135 62.9148C507.763 63.0597 507.338 63.1321 506.861 63.1321Z" fill="#231F20"/>
</g>
<defs>
<filter id="filter0_d_3183_6827" x="276" y="106" width="64" height="58" filterUnits="userSpaceOnUse" color-interpolation-filters="sRGB">
<feFlood flood-opacity="0" result="BackgroundImageFix"/>
<feColorMatrix in="SourceAlpha" type="matrix" values="0 0 0 0 0 0 0 0 0 0 0 0 0 0 0 0 0 0 127 0" result="hardAlpha"/>
<feOffset dy="2"/>
<feComposite in2="hardAlpha" operator="out"/>
<feColorMatrix type="matrix" values="0 0 0 0 0.384314 0 0 0 0 0.211765 0 0 0 0 0.121569 0 0 0 1 0"/>
<feBlend mode="normal" in2="BackgroundImageFix" result="effect1_dropShadow_3183_6827"/>
<feBlend mode="normal" in="SourceGraphic" in2="effect1_dropShadow_3183_6827" result="shape"/>
</filter>
<linearGradient id="paint0_linear_3183_6827" x1="329.482" y1="133" x2="166.019" y2="135.074" gradientUnits="userSpaceOnUse">
<stop stop-color="#FDE2D3"/>
<stop offset="1" stop-color="#F26A1B"/>
</linearGradient>
<linearGradient id="paint1_linear_3183_6827" x1="331.518" y1="133" x2="494.981" y2="135.074" gradientUnits="userSpaceOnUse">
<stop stop-color="#FDE2D3"/>
<stop offset="1" stop-color="#F26A1B"/>
</linearGradient>
<linearGradient id="paint2_linear_3183_6827" x1="262.25" y1="60" x2="262.25" y2="135" gradientUnits="userSpaceOnUse">
<stop stop-color="#F26A1B"/>
<stop offset="1" stop-color="#FDE2D3"/>
</linearGradient>
<linearGradient id="paint3_linear_3183_6827" x1="262.25" y1="208" x2="262.25" y2="133" gradientUnits="userSpaceOnUse">
<stop stop-color="#F26A1B"/>
<stop offset="1" stop-color="#FDE2D3"/>
</linearGradient>
<linearGradient id="paint4_linear_3183_6827" x1="358.25" y1="59" x2="358.25" y2="134" gradientUnits="userSpaceOnUse">
<stop stop-color="#F26A1B"/>
<stop offset="1" stop-color="#FDE2D3"/>
</linearGradient>
<linearGradient id="paint5_linear_3183_6827" x1="358.25" y1="209" x2="358.25" y2="134" gradientUnits="userSpaceOnUse">
<stop stop-color="#F26A1B"/>
<stop offset="1" stop-color="#FDE2D3"/>
</linearGradient>
<linearGradient id="paint6_linear_3183_6827" x1="308" y1="0" x2="308" y2="350" gradientUnits="userSpaceOnUse">
<stop stop-color="#FCD6C1"/>
<stop offset="1" stop-color="white"/>
</linearGradient>
<linearGradient id="paint7_linear_3183_6827" x1="308" y1="128.5" x2="308" y2="102.5" gradientUnits="userSpaceOnUse">
<stop stop-color="#231F20"/>
<stop offset="1" stop-color="#F26A1B"/>
</linearGradient>
<linearGradient id="paint8_linear_3183_6827" x1="152" y1="39" x2="152" y2="79" gradientUnits="userSpaceOnUse">
<stop stop-color="#F69A65"/>
<stop offset="1" stop-color="#8C3E10"/>
</linearGradient>
<linearGradient id="paint9_linear_3183_6827" x1="116.005" y1="50.7885" x2="116.005" y2="67.75" gradientUnits="userSpaceOnUse">
<stop stop-color="#4A4340"/>
<stop offset="1" stop-color="#D05E1C"/>
</linearGradient>
<linearGradient id="paint10_linear_3183_6827" x1="109.5" y1="114" x2="109.5" y2="154" gradientUnits="userSpaceOnUse">
<stop stop-color="#F69A65"/>
<stop offset="1" stop-color="#8C3E10"/>
</linearGradient>
<linearGradient id="paint11_linear_3183_6827" x1="67" y1="124.5" x2="67" y2="142.942" gradientUnits="userSpaceOnUse">
<stop stop-color="#4A4340"/>
<stop offset="1" stop-color="#D05E1C"/>
</linearGradient>
<linearGradient id="paint12_linear_3183_6827" x1="165" y1="188" x2="165" y2="228" gradientUnits="userSpaceOnUse">
<stop stop-color="#F69A65"/>
<stop offset="1" stop-color="#8C3E10"/>
</linearGradient>
<linearGradient id="paint13_linear_3183_6827" x1="126" y1="199" x2="126" y2="217" gradientUnits="userSpaceOnUse">
<stop stop-color="#4A4340"/>
<stop offset="1" stop-color="#D05E1C"/>
</linearGradient>
<linearGradient id="paint14_linear_3183_6827" x1="450" y1="188" x2="450" y2="228" gradientUnits="userSpaceOnUse">
<stop stop-color="#F69A65"/>
<stop offset="1" stop-color="#8C3E10"/>
</linearGradient>
<linearGradient id="paint15_linear_3183_6827" x1="410.975" y1="198.922" x2="410.975" y2="217.373" gradientUnits="userSpaceOnUse">
<stop stop-color="#4A4340"/>
<stop offset="1" stop-color="#D05E1C"/>
</linearGradient>
<linearGradient id="paint16_linear_3183_6827" x1="501" y1="114" x2="501" y2="154" gradientUnits="userSpaceOnUse">
<stop stop-color="#F69A65"/>
<stop offset="1" stop-color="#8C3E10"/>
</linearGradient>
<linearGradient id="paint17_linear_3183_6827" x1="453" y1="124.5" x2="453" y2="143.5" gradientUnits="userSpaceOnUse">
<stop stop-color="#4A4340"/>
<stop offset="1" stop-color="#D05E1C"/>
</linearGradient>
<linearGradient id="paint18_linear_3183_6827" x1="457.5" y1="39" x2="457.5" y2="79" gradientUnits="userSpaceOnUse">
<stop stop-color="#F69A65"/>
<stop offset="1" stop-color="#8C3E10"/>
</linearGradient>
<linearGradient id="paint19_linear_3183_6827" x1="416" y1="49.5" x2="416" y2="68.5" gradientUnits="userSpaceOnUse">
<stop stop-color="#4A4340"/>
<stop offset="1" stop-color="#D05E1C"/>
</linearGradient>
<clipPath id="clip0_3183_6827">
<rect width="616" height="267" fill="white"/>
</clipPath>
</defs>
</svg>
