<svg width="598" height="161" viewBox="0 0 598 161" fill="none" xmlns="http://www.w3.org/2000/svg">
<g filter="url(#filter0_bddd_2521_10461)">
<rect x="24" y="2" width="550" height="44" rx="12" fill="white" fill-opacity="0.85" shape-rendering="crispEdges"/>
<path d="M41.2784 30V18.3636H43.0341V23.4205H48.8352V18.3636H50.5966V30H48.8352V24.9261H43.0341V30H41.2784ZM53.017 30V21.2727H54.7159V30H53.017ZM53.875 19.9261C53.5795 19.9261 53.3258 19.8277 53.1136 19.6307C52.9053 19.4299 52.8011 19.1913 52.8011 18.9148C52.8011 18.6345 52.9053 18.3958 53.1136 18.1989C53.3258 17.9981 53.5795 17.8977 53.875 17.8977C54.1705 17.8977 54.4223 17.9981 54.6307 18.1989C54.8428 18.3958 54.9489 18.6345 54.9489 18.9148C54.9489 19.1913 54.8428 19.4299 54.6307 19.6307C54.4223 19.8277 54.1705 19.9261 53.875 19.9261ZM60.6605 33.4545C59.9673 33.4545 59.3707 33.3636 58.8707 33.1818C58.3745 33 57.9692 32.7595 57.6548 32.4602C57.3404 32.161 57.1056 31.8333 56.9503 31.4773L58.4105 30.875C58.5128 31.0417 58.6491 31.2178 58.8196 31.4034C58.9938 31.5928 59.2287 31.7538 59.5241 31.8864C59.8234 32.0189 60.2079 32.0852 60.6776 32.0852C61.3215 32.0852 61.8537 31.928 62.2741 31.6136C62.6946 31.303 62.9048 30.8068 62.9048 30.125V28.4091H62.7969C62.6946 28.5947 62.5469 28.8011 62.3537 29.0284C62.1643 29.2557 61.9029 29.4527 61.5696 29.6193C61.2363 29.786 60.8026 29.8693 60.2685 29.8693C59.5791 29.8693 58.9579 29.7083 58.4048 29.3864C57.8556 29.0606 57.42 28.5814 57.098 27.9489C56.7798 27.3125 56.6207 26.5303 56.6207 25.6023C56.6207 24.6742 56.7779 23.8788 57.0923 23.2159C57.4105 22.553 57.8461 22.0455 58.3991 21.6932C58.9522 21.3371 59.5791 21.1591 60.2798 21.1591C60.8215 21.1591 61.259 21.25 61.5923 21.4318C61.9257 21.6098 62.1851 21.8182 62.3707 22.0568C62.5601 22.2955 62.706 22.5057 62.8082 22.6875H62.9332V21.2727H64.598V30.1932C64.598 30.9432 64.4238 31.5587 64.0753 32.0398C63.7268 32.5208 63.2552 32.8769 62.6605 33.108C62.0696 33.339 61.4029 33.4545 60.6605 33.4545ZM60.6435 28.4602C61.1321 28.4602 61.545 28.3466 61.8821 28.1193C62.223 27.8883 62.4806 27.5587 62.6548 27.1307C62.8329 26.6989 62.9219 26.1818 62.9219 25.5795C62.9219 24.9924 62.8348 24.4754 62.6605 24.0284C62.4863 23.5814 62.2306 23.233 61.8935 22.983C61.5563 22.7292 61.1397 22.6023 60.6435 22.6023C60.1321 22.6023 59.706 22.7348 59.3651 23C59.0241 23.2614 58.7666 23.6174 58.5923 24.0682C58.4219 24.5189 58.3366 25.0227 58.3366 25.5795C58.3366 26.1515 58.4238 26.6534 58.598 27.0852C58.7723 27.517 59.0298 27.8542 59.3707 28.0966C59.7154 28.339 60.1397 28.4602 60.6435 28.4602ZM68.5753 24.8182V30H66.8764V18.3636H68.5526V22.6932H68.6605C68.8651 22.2235 69.1776 21.8504 69.598 21.5739C70.0185 21.2973 70.5677 21.1591 71.2457 21.1591C71.8442 21.1591 72.367 21.2822 72.8139 21.5284C73.2647 21.7746 73.6132 22.142 73.8594 22.6307C74.1094 23.1155 74.2344 23.7216 74.2344 24.4489V30H72.5355V24.6534C72.5355 24.0133 72.3707 23.517 72.0412 23.1648C71.7116 22.8087 71.2533 22.6307 70.6662 22.6307C70.2647 22.6307 69.9048 22.7159 69.5866 22.8864C69.2723 23.0568 69.0241 23.3068 68.8423 23.6364C68.6643 23.9621 68.5753 24.3561 68.5753 24.8182ZM85.8778 23.4432V24.9205H80.7188V23.4432H85.8778ZM92.5128 30V18.3636H94.2685V28.4886H99.5412V30H92.5128ZM105.169 30.1761C104.309 30.1761 103.569 29.9924 102.947 29.625C102.33 29.2538 101.853 28.733 101.516 28.0625C101.182 27.3883 101.016 26.5985 101.016 25.6932C101.016 24.7992 101.182 24.0114 101.516 23.3295C101.853 22.6477 102.322 22.1155 102.925 21.733C103.531 21.3504 104.239 21.1591 105.05 21.1591C105.542 21.1591 106.019 21.2405 106.482 21.4034C106.944 21.5663 107.358 21.822 107.726 22.1705C108.093 22.5189 108.383 22.9716 108.595 23.5284C108.807 24.0814 108.913 24.7538 108.913 25.5455V26.1477H101.976V24.875H107.249C107.249 24.428 107.158 24.0322 106.976 23.6875C106.794 23.339 106.538 23.0644 106.209 22.8636C105.883 22.6629 105.5 22.5625 105.061 22.5625C104.584 22.5625 104.167 22.6799 103.811 22.9148C103.459 23.1458 103.186 23.4489 102.993 23.8239C102.804 24.1951 102.709 24.5985 102.709 25.0341V26.0284C102.709 26.6117 102.811 27.108 103.016 27.517C103.224 27.9261 103.514 28.2386 103.885 28.4545C104.256 28.6667 104.69 28.7727 105.186 28.7727C105.508 28.7727 105.802 28.7273 106.067 28.6364C106.332 28.5417 106.561 28.4015 106.754 28.2159C106.947 28.0303 107.095 27.8011 107.197 27.5284L108.805 27.8182C108.677 28.2917 108.446 28.7064 108.112 29.0625C107.783 29.4148 107.368 29.6894 106.868 29.8864C106.372 30.0795 105.805 30.1761 105.169 30.1761ZM118.014 21.2727L114.849 30H113.031L109.861 21.2727H111.685L113.895 27.9886H113.986L116.19 21.2727H118.014ZM123.075 30.1761C122.215 30.1761 121.475 29.9924 120.854 29.625C120.236 29.2538 119.759 28.733 119.422 28.0625C119.089 27.3883 118.922 26.5985 118.922 25.6932C118.922 24.7992 119.089 24.0114 119.422 23.3295C119.759 22.6477 120.229 22.1155 120.831 21.733C121.437 21.3504 122.145 21.1591 122.956 21.1591C123.448 21.1591 123.926 21.2405 124.388 21.4034C124.85 21.5663 125.265 21.822 125.632 22.1705C126 22.5189 126.289 22.9716 126.501 23.5284C126.714 24.0814 126.82 24.7538 126.82 25.5455V26.1477H119.882V24.875H125.155C125.155 24.428 125.064 24.0322 124.882 23.6875C124.7 23.339 124.445 23.0644 124.115 22.8636C123.789 22.6629 123.407 22.5625 122.967 22.5625C122.49 22.5625 122.073 22.6799 121.717 22.9148C121.365 23.1458 121.092 23.4489 120.899 23.8239C120.71 24.1951 120.615 24.5985 120.615 25.0341V26.0284C120.615 26.6117 120.717 27.108 120.922 27.517C121.13 27.9261 121.42 28.2386 121.791 28.4545C122.162 28.6667 122.596 28.7727 123.092 28.7727C123.414 28.7727 123.708 28.7273 123.973 28.6364C124.238 28.5417 124.467 28.4015 124.661 28.2159C124.854 28.0303 125.001 27.8011 125.104 27.5284L126.712 27.8182C126.583 28.2917 126.352 28.7064 126.018 29.0625C125.689 29.4148 125.274 29.6894 124.774 29.8864C124.278 30.0795 123.712 30.1761 123.075 30.1761ZM130.403 18.3636V30H128.705V18.3636H130.403ZM138.043 30H136.179L140.366 18.3636H142.395L146.582 30H144.719L141.429 20.4773H141.338L138.043 30ZM138.355 25.4432H144.401V26.9205H138.355V25.4432ZM148.126 30V21.2727H149.768V22.6591H149.859C150.018 22.1894 150.299 21.8201 150.7 21.5511C151.106 21.2784 151.564 21.142 152.075 21.142C152.181 21.142 152.306 21.1458 152.45 21.1534C152.598 21.161 152.714 21.1705 152.797 21.1818V22.8068C152.729 22.7879 152.607 22.767 152.433 22.7443C152.259 22.7178 152.085 22.7045 151.911 22.7045C151.509 22.7045 151.151 22.7898 150.837 22.9602C150.526 23.1269 150.28 23.3598 150.098 23.6591C149.916 23.9545 149.825 24.2917 149.825 24.6705V30H148.126ZM157.631 30.1761C156.786 30.1761 156.059 29.9848 155.449 29.6023C154.843 29.2159 154.377 28.6837 154.051 28.0057C153.725 27.3277 153.562 26.5511 153.562 25.6761C153.562 24.7898 153.729 24.0076 154.062 23.3295C154.396 22.6477 154.866 22.1155 155.472 21.733C156.078 21.3504 156.792 21.1591 157.614 21.1591C158.277 21.1591 158.867 21.2822 159.386 21.5284C159.905 21.7708 160.324 22.1117 160.642 22.5511C160.964 22.9905 161.155 23.5038 161.216 24.0909H159.562C159.472 23.6818 159.263 23.3295 158.938 23.0341C158.616 22.7386 158.184 22.5909 157.642 22.5909C157.169 22.5909 156.754 22.7159 156.398 22.9659C156.045 23.2121 155.771 23.5644 155.574 24.0227C155.377 24.4773 155.278 25.0152 155.278 25.6364C155.278 26.2727 155.375 26.822 155.568 27.2841C155.761 27.7462 156.034 28.1042 156.386 28.358C156.742 28.6117 157.161 28.7386 157.642 28.7386C157.964 28.7386 158.256 28.6799 158.517 28.5625C158.782 28.4413 159.004 28.2689 159.182 28.0455C159.364 27.822 159.491 27.553 159.562 27.2386H161.216C161.155 27.803 160.972 28.3068 160.665 28.75C160.358 29.1932 159.947 29.5417 159.432 29.7955C158.92 30.0492 158.32 30.1761 157.631 30.1761ZM164.732 24.8182V30H163.033V18.3636H164.709V22.6932H164.817C165.021 22.2235 165.334 21.8504 165.754 21.5739C166.175 21.2973 166.724 21.1591 167.402 21.1591C168 21.1591 168.523 21.2822 168.97 21.5284C169.421 21.7746 169.769 22.142 170.016 22.6307C170.266 23.1155 170.391 23.7216 170.391 24.4489V30H168.692V24.6534C168.692 24.0133 168.527 23.517 168.197 23.1648C167.868 22.8087 167.41 22.6307 166.822 22.6307C166.421 22.6307 166.061 22.7159 165.743 22.8864C165.429 23.0568 165.18 23.3068 164.999 23.6364C164.821 23.9621 164.732 24.3561 164.732 24.8182ZM172.658 30V21.2727H174.357V30H172.658ZM173.516 19.9261C173.22 19.9261 172.966 19.8277 172.754 19.6307C172.546 19.4299 172.442 19.1913 172.442 18.9148C172.442 18.6345 172.546 18.3958 172.754 18.1989C172.966 17.9981 173.22 17.8977 173.516 17.8977C173.811 17.8977 174.063 17.9981 174.271 18.1989C174.483 18.3958 174.589 18.6345 174.589 18.9148C174.589 19.1913 174.483 19.4299 174.271 19.6307C174.063 19.8277 173.811 19.9261 173.516 19.9261ZM180.716 21.2727V22.6364H175.949V21.2727H180.716ZM177.227 19.1818H178.926V27.4375C178.926 27.767 178.975 28.0152 179.074 28.1818C179.172 28.3447 179.299 28.4564 179.455 28.517C179.614 28.5739 179.786 28.6023 179.972 28.6023C180.108 28.6023 180.227 28.5928 180.33 28.5739C180.432 28.5549 180.511 28.5398 180.568 28.5284L180.875 29.9318C180.777 29.9697 180.636 30.0076 180.455 30.0455C180.273 30.0871 180.045 30.1098 179.773 30.1136C179.326 30.1212 178.909 30.0417 178.523 29.875C178.136 29.7083 177.824 29.4508 177.585 29.1023C177.347 28.7538 177.227 28.3163 177.227 27.7898V19.1818ZM186.263 30.1761C185.403 30.1761 184.662 29.9924 184.041 29.625C183.424 29.2538 182.946 28.733 182.609 28.0625C182.276 27.3883 182.109 26.5985 182.109 25.6932C182.109 24.7992 182.276 24.0114 182.609 23.3295C182.946 22.6477 183.416 22.1155 184.018 21.733C184.625 21.3504 185.333 21.1591 186.143 21.1591C186.636 21.1591 187.113 21.2405 187.575 21.4034C188.037 21.5663 188.452 21.822 188.82 22.1705C189.187 22.5189 189.477 22.9716 189.689 23.5284C189.901 24.0814 190.007 24.7538 190.007 25.5455V26.1477H183.07V24.875H188.342C188.342 24.428 188.251 24.0322 188.07 23.6875C187.888 23.339 187.632 23.0644 187.303 22.8636C186.977 22.6629 186.594 22.5625 186.155 22.5625C185.678 22.5625 185.261 22.6799 184.905 22.9148C184.553 23.1458 184.28 23.4489 184.087 23.8239C183.897 24.1951 183.803 24.5985 183.803 25.0341V26.0284C183.803 26.6117 183.905 27.108 184.109 27.517C184.318 27.9261 184.607 28.2386 184.979 28.4545C185.35 28.6667 185.784 28.7727 186.28 28.7727C186.602 28.7727 186.895 28.7273 187.161 28.6364C187.426 28.5417 187.655 28.4015 187.848 28.2159C188.041 28.0303 188.189 27.8011 188.291 27.5284L189.899 27.8182C189.77 28.2917 189.539 28.7064 189.206 29.0625C188.876 29.4148 188.462 29.6894 187.962 29.8864C187.465 30.0795 186.899 30.1761 186.263 30.1761ZM195.568 30.1761C194.723 30.1761 193.996 29.9848 193.386 29.6023C192.78 29.2159 192.314 28.6837 191.989 28.0057C191.663 27.3277 191.5 26.5511 191.5 25.6761C191.5 24.7898 191.667 24.0076 192 23.3295C192.333 22.6477 192.803 22.1155 193.409 21.733C194.015 21.3504 194.729 21.1591 195.551 21.1591C196.214 21.1591 196.805 21.2822 197.324 21.5284C197.843 21.7708 198.261 22.1117 198.58 22.5511C198.902 22.9905 199.093 23.5038 199.153 24.0909H197.5C197.409 23.6818 197.201 23.3295 196.875 23.0341C196.553 22.7386 196.121 22.5909 195.58 22.5909C195.106 22.5909 194.691 22.7159 194.335 22.9659C193.983 23.2121 193.708 23.5644 193.511 24.0227C193.314 24.4773 193.216 25.0152 193.216 25.6364C193.216 26.2727 193.313 26.822 193.506 27.2841C193.699 27.7462 193.972 28.1042 194.324 28.358C194.68 28.6117 195.098 28.7386 195.58 28.7386C195.902 28.7386 196.193 28.6799 196.455 28.5625C196.72 28.4413 196.941 28.2689 197.119 28.0455C197.301 27.822 197.428 27.553 197.5 27.2386H199.153C199.093 27.803 198.909 28.3068 198.602 28.75C198.295 29.1932 197.884 29.5417 197.369 29.7955C196.858 30.0492 196.258 30.1761 195.568 30.1761ZM205.044 21.2727V22.6364H200.277V21.2727H205.044ZM201.555 19.1818H203.254V27.4375C203.254 27.767 203.304 28.0152 203.402 28.1818C203.5 28.3447 203.627 28.4564 203.783 28.517C203.942 28.5739 204.114 28.6023 204.3 28.6023C204.436 28.6023 204.555 28.5928 204.658 28.5739C204.76 28.5549 204.839 28.5398 204.896 28.5284L205.203 29.9318C205.105 29.9697 204.964 30.0076 204.783 30.0455C204.601 30.0871 204.374 30.1098 204.101 30.1136C203.654 30.1212 203.237 30.0417 202.851 29.875C202.464 29.7083 202.152 29.4508 201.913 29.1023C201.675 28.7538 201.555 28.3163 201.555 27.7898V19.1818ZM212.452 26.3807V21.2727H214.156V30H212.486V28.4886H212.395C212.194 28.9545 211.872 29.3428 211.429 29.6534C210.99 29.9602 210.442 30.1136 209.787 30.1136C209.226 30.1136 208.73 29.9905 208.298 29.7443C207.87 29.4943 207.533 29.125 207.287 28.6364C207.045 28.1477 206.923 27.5436 206.923 26.8239V21.2727H208.622V26.6193C208.622 27.214 208.787 27.6875 209.116 28.0398C209.446 28.392 209.874 28.5682 210.401 28.5682C210.719 28.5682 211.035 28.4886 211.349 28.3295C211.668 28.1705 211.931 27.9299 212.139 27.608C212.351 27.286 212.455 26.8769 212.452 26.3807ZM216.439 30V21.2727H218.081V22.6591H218.172C218.331 22.1894 218.611 21.8201 219.013 21.5511C219.418 21.2784 219.876 21.142 220.388 21.142C220.494 21.142 220.619 21.1458 220.763 21.1534C220.911 21.161 221.026 21.1705 221.109 21.1818V22.8068C221.041 22.7879 220.92 22.767 220.746 22.7443C220.571 22.7178 220.397 22.7045 220.223 22.7045C219.821 22.7045 219.464 22.7898 219.149 22.9602C218.839 23.1269 218.592 23.3598 218.411 23.6591C218.229 23.9545 218.138 24.2917 218.138 24.6705V30H216.439ZM226.028 30.1761C225.169 30.1761 224.428 29.9924 223.807 29.625C223.189 29.2538 222.712 28.733 222.375 28.0625C222.042 27.3883 221.875 26.5985 221.875 25.6932C221.875 24.7992 222.042 24.0114 222.375 23.3295C222.712 22.6477 223.182 22.1155 223.784 21.733C224.39 21.3504 225.098 21.1591 225.909 21.1591C226.402 21.1591 226.879 21.2405 227.341 21.4034C227.803 21.5663 228.218 21.822 228.585 22.1705C228.953 22.5189 229.242 22.9716 229.455 23.5284C229.667 24.0814 229.773 24.7538 229.773 25.5455V26.1477H222.835V24.875H228.108C228.108 24.428 228.017 24.0322 227.835 23.6875C227.653 23.339 227.398 23.0644 227.068 22.8636C226.742 22.6629 226.36 22.5625 225.92 22.5625C225.443 22.5625 225.027 22.6799 224.67 22.9148C224.318 23.1458 224.045 23.4489 223.852 23.8239C223.663 24.1951 223.568 24.5985 223.568 25.0341V26.0284C223.568 26.6117 223.67 27.108 223.875 27.517C224.083 27.9261 224.373 28.2386 224.744 28.4545C225.116 28.6667 225.549 28.7727 226.045 28.7727C226.367 28.7727 226.661 28.7273 226.926 28.6364C227.191 28.5417 227.42 28.4015 227.614 28.2159C227.807 28.0303 227.955 27.8011 228.057 27.5284L229.665 27.8182C229.536 28.2917 229.305 28.7064 228.972 29.0625C228.642 29.4148 228.227 29.6894 227.727 29.8864C227.231 30.0795 226.665 30.1761 226.028 30.1761Z" fill="#4A4340"/>
</g>
<rect x="245" y="70" width="113" height="34" rx="8" fill="#E5E7EB"/>
<path d="M282.672 84.4929C282.619 84.0223 282.4 83.6577 282.016 83.3991C281.631 83.1373 281.147 83.0064 280.564 83.0064C280.146 83.0064 279.785 83.0727 279.48 83.2053C279.175 83.3345 278.938 83.5135 278.769 83.7422C278.603 83.9676 278.521 84.2244 278.521 84.5128C278.521 84.7547 278.577 84.9635 278.69 85.1392C278.806 85.3149 278.956 85.4624 279.142 85.5817C279.331 85.6977 279.533 85.7955 279.749 85.875C279.964 85.9512 280.171 86.0142 280.37 86.0639L281.364 86.3224C281.689 86.402 282.022 86.5097 282.364 86.6456C282.705 86.7815 283.022 86.9605 283.313 87.1825C283.605 87.4046 283.84 87.6797 284.019 88.0078C284.201 88.3359 284.293 88.7287 284.293 89.1861C284.293 89.7628 284.143 90.2749 283.845 90.7223C283.55 91.1697 283.121 91.5227 282.558 91.7812C281.997 92.0398 281.32 92.169 280.524 92.169C279.762 92.169 279.102 92.0481 278.545 91.8061C277.989 91.5642 277.553 91.2211 277.238 90.777C276.923 90.3295 276.749 89.7992 276.716 89.1861H278.257C278.287 89.554 278.406 89.8606 278.615 90.1058C278.827 90.3478 279.097 90.5284 279.425 90.6477C279.757 90.7637 280.12 90.8217 280.514 90.8217C280.948 90.8217 281.335 90.7538 281.673 90.6179C282.014 90.4787 282.282 90.2865 282.478 90.0412C282.674 89.7926 282.771 89.5026 282.771 89.1712C282.771 88.8696 282.685 88.6226 282.513 88.4304C282.344 88.2382 282.113 88.0791 281.822 87.9531C281.533 87.8272 281.207 87.7161 280.842 87.62L279.639 87.2919C278.824 87.0698 278.178 86.7434 277.7 86.3125C277.226 85.8816 276.989 85.3116 276.989 84.6023C276.989 84.0156 277.148 83.5036 277.467 83.0661C277.785 82.6286 278.216 82.2888 278.759 82.0469C279.303 81.8016 279.916 81.679 280.599 81.679C281.288 81.679 281.896 81.8 282.423 82.0419C282.954 82.2839 283.371 82.617 283.676 83.0412C283.981 83.4621 284.14 83.946 284.153 84.4929H282.672ZM289.3 92.1541C288.548 92.1541 287.9 91.9934 287.356 91.6719C286.816 91.3471 286.398 90.8913 286.104 90.3047C285.812 89.7147 285.666 89.0237 285.666 88.2315C285.666 87.4493 285.812 86.7599 286.104 86.1634C286.398 85.5668 286.809 85.1011 287.336 84.7663C287.867 84.4316 288.487 84.2642 289.196 84.2642C289.627 84.2642 290.044 84.3355 290.449 84.478C290.853 84.6205 291.216 84.8442 291.537 85.1491C291.859 85.4541 292.113 85.8501 292.298 86.3374C292.484 86.8213 292.577 87.4096 292.577 88.1023V88.6293H286.506V87.5156H291.12C291.12 87.1245 291.04 86.7782 290.881 86.4766C290.722 86.1716 290.498 85.9313 290.21 85.7557C289.925 85.58 289.59 85.4922 289.206 85.4922C288.788 85.4922 288.424 85.5949 288.112 85.8004C287.804 86.0026 287.565 86.2678 287.396 86.5959C287.23 86.9207 287.148 87.2737 287.148 87.6548V88.5249C287.148 89.0353 287.237 89.4695 287.416 89.8274C287.598 90.1854 287.852 90.4588 288.177 90.6477C288.501 90.8333 288.881 90.9261 289.315 90.9261C289.597 90.9261 289.854 90.8864 290.086 90.8068C290.318 90.724 290.518 90.6013 290.687 90.4389C290.856 90.2765 290.986 90.076 291.075 89.8374L292.482 90.0909C292.369 90.5052 292.167 90.8681 291.876 91.1797C291.587 91.4879 291.224 91.7282 290.787 91.9006C290.353 92.0696 289.857 92.1541 289.3 92.1541ZM294.226 92V84.3636H295.663V85.5767H295.742C295.881 85.1657 296.127 84.8426 296.478 84.6072C296.833 84.3686 297.234 84.2493 297.681 84.2493C297.774 84.2493 297.883 84.2526 298.009 84.2592C298.138 84.2659 298.24 84.2741 298.312 84.2841V85.706C298.253 85.6894 298.147 85.6712 297.994 85.6513C297.842 85.6281 297.689 85.6165 297.537 85.6165C297.186 85.6165 296.872 85.6911 296.597 85.8402C296.326 85.986 296.11 86.1899 295.951 86.4517C295.792 86.7102 295.712 87.0052 295.712 87.3366V92H294.226ZM306.364 84.3636L303.595 92H302.004L299.23 84.3636H300.826L302.76 90.2401H302.839L304.768 84.3636H306.364ZM310.792 92.1541C310.04 92.1541 309.392 91.9934 308.849 91.6719C308.308 91.3471 307.891 90.8913 307.596 90.3047C307.304 89.7147 307.158 89.0237 307.158 88.2315C307.158 87.4493 307.304 86.7599 307.596 86.1634C307.891 85.5668 308.302 85.1011 308.829 84.7663C309.359 84.4316 309.979 84.2642 310.688 84.2642C311.119 84.2642 311.537 84.3355 311.941 84.478C312.345 84.6205 312.708 84.8442 313.03 85.1491C313.351 85.4541 313.605 85.8501 313.79 86.3374C313.976 86.8213 314.069 87.4096 314.069 88.1023V88.6293H307.998V87.5156H312.612C312.612 87.1245 312.532 86.7782 312.373 86.4766C312.214 86.1716 311.991 85.9313 311.702 85.7557C311.417 85.58 311.082 85.4922 310.698 85.4922C310.28 85.4922 309.916 85.5949 309.604 85.8004C309.296 86.0026 309.057 86.2678 308.888 86.5959C308.723 86.9207 308.64 87.2737 308.64 87.6548V88.5249C308.64 89.0353 308.729 89.4695 308.908 89.8274C309.09 90.1854 309.344 90.4588 309.669 90.6477C309.994 90.8333 310.373 90.9261 310.807 90.9261C311.089 90.9261 311.346 90.8864 311.578 90.8068C311.81 90.724 312.01 90.6013 312.18 90.4389C312.349 90.2765 312.478 90.076 312.567 89.8374L313.974 90.0909C313.862 90.5052 313.659 90.8681 313.368 91.1797C313.079 91.4879 312.716 91.7282 312.279 91.9006C311.845 92.0696 311.349 92.1541 310.792 92.1541ZM315.718 92V84.3636H317.155V85.5767H317.234C317.374 85.1657 317.619 84.8426 317.97 84.6072C318.325 84.3686 318.726 84.2493 319.173 84.2493C319.266 84.2493 319.375 84.2526 319.501 84.2592C319.631 84.2659 319.732 84.2741 319.805 84.2841V85.706C319.745 85.6894 319.639 85.6712 319.487 85.6513C319.334 85.6281 319.182 85.6165 319.029 85.6165C318.678 85.6165 318.365 85.6911 318.089 85.8402C317.818 85.986 317.602 86.1899 317.443 86.4517C317.284 86.7102 317.205 87.0052 317.205 87.3366V92H315.718Z" fill="#4A4340"/>
<rect x="150" y="127" width="140" height="34" rx="8" fill="#E5E7EB"/>
<path d="M171.575 142.129H170.024C169.964 141.798 169.853 141.506 169.691 141.254C169.529 141.002 169.33 140.789 169.094 140.613C168.859 140.437 168.596 140.305 168.304 140.215C168.016 140.126 167.709 140.081 167.384 140.081C166.798 140.081 166.272 140.228 165.808 140.523C165.348 140.818 164.983 141.251 164.714 141.821C164.449 142.391 164.317 143.087 164.317 143.909C164.317 144.738 164.449 145.437 164.714 146.007C164.983 146.577 165.349 147.008 165.813 147.3C166.277 147.591 166.799 147.737 167.379 147.737C167.701 147.737 168.006 147.694 168.294 147.608C168.586 147.518 168.849 147.388 169.085 147.215C169.32 147.043 169.519 146.832 169.681 146.584C169.847 146.332 169.961 146.044 170.024 145.719L171.575 145.724C171.492 146.224 171.332 146.685 171.093 147.106C170.858 147.523 170.554 147.885 170.183 148.19C169.815 148.491 169.394 148.725 168.92 148.891C168.446 149.056 167.929 149.139 167.369 149.139C166.488 149.139 165.702 148.93 165.013 148.513C164.323 148.092 163.78 147.49 163.382 146.708C162.988 145.926 162.79 144.993 162.79 143.909C162.79 142.822 162.989 141.889 163.387 141.11C163.785 140.328 164.328 139.728 165.018 139.31C165.707 138.889 166.491 138.679 167.369 138.679C167.91 138.679 168.413 138.757 168.881 138.913C169.351 139.065 169.774 139.29 170.148 139.589C170.523 139.884 170.833 140.245 171.078 140.673C171.323 141.097 171.489 141.582 171.575 142.129ZM176.511 149.154C175.795 149.154 175.17 148.99 174.637 148.662C174.103 148.334 173.689 147.875 173.394 147.285C173.099 146.695 172.951 146.005 172.951 145.217C172.951 144.424 173.099 143.732 173.394 143.138C173.689 142.545 174.103 142.085 174.637 141.756C175.17 141.428 175.795 141.264 176.511 141.264C177.227 141.264 177.852 141.428 178.385 141.756C178.919 142.085 179.333 142.545 179.628 143.138C179.923 143.732 180.07 144.424 180.07 145.217C180.07 146.005 179.923 146.695 179.628 147.285C179.333 147.875 178.919 148.334 178.385 148.662C177.852 148.99 177.227 149.154 176.511 149.154ZM176.516 147.906C176.98 147.906 177.364 147.784 177.669 147.538C177.974 147.293 178.2 146.967 178.345 146.559C178.494 146.151 178.569 145.702 178.569 145.212C178.569 144.724 178.494 144.277 178.345 143.869C178.2 143.458 177.974 143.129 177.669 142.88C177.364 142.631 176.98 142.507 176.516 142.507C176.048 142.507 175.661 142.631 175.352 142.88C175.048 143.129 174.82 143.458 174.671 143.869C174.526 144.277 174.453 144.724 174.453 145.212C174.453 145.702 174.526 146.151 174.671 146.559C174.82 146.967 175.048 147.293 175.352 147.538C175.661 147.784 176.048 147.906 176.516 147.906ZM183.216 144.466V149H181.73V141.364H183.157V142.607H183.251C183.427 142.202 183.702 141.877 184.076 141.632C184.454 141.387 184.93 141.264 185.503 141.264C186.024 141.264 186.479 141.374 186.87 141.592C187.261 141.808 187.565 142.129 187.78 142.557C187.996 142.984 188.103 143.513 188.103 144.143V149H186.617V144.322C186.617 143.768 186.473 143.336 186.184 143.024C185.896 142.709 185.5 142.552 184.996 142.552C184.651 142.552 184.345 142.626 184.076 142.776C183.811 142.925 183.601 143.143 183.445 143.432C183.292 143.717 183.216 144.062 183.216 144.466ZM193.662 141.364V142.557H189.49V141.364H193.662ZM190.609 139.534H192.096V146.758C192.096 147.046 192.139 147.263 192.225 147.409C192.311 147.552 192.422 147.649 192.558 147.702C192.697 147.752 192.848 147.777 193.01 147.777C193.13 147.777 193.234 147.769 193.324 147.752C193.413 147.736 193.483 147.722 193.532 147.712L193.801 148.94C193.715 148.973 193.592 149.007 193.433 149.04C193.274 149.076 193.075 149.096 192.836 149.099C192.445 149.106 192.081 149.036 191.743 148.891C191.404 148.745 191.131 148.519 190.922 148.214C190.713 147.91 190.609 147.527 190.609 147.066V139.534ZM195.306 149V141.364H196.743V142.577H196.822C196.961 142.166 197.207 141.843 197.558 141.607C197.913 141.369 198.314 141.249 198.761 141.249C198.854 141.249 198.963 141.253 199.089 141.259C199.219 141.266 199.32 141.274 199.393 141.284V142.706C199.333 142.689 199.227 142.671 199.074 142.651C198.922 142.628 198.769 142.616 198.617 142.616C198.266 142.616 197.952 142.691 197.677 142.84C197.406 142.986 197.19 143.19 197.031 143.452C196.872 143.71 196.792 144.005 196.792 144.337V149H195.306ZM203.622 149.154C202.906 149.154 202.281 148.99 201.748 148.662C201.214 148.334 200.8 147.875 200.505 147.285C200.21 146.695 200.062 146.005 200.062 145.217C200.062 144.424 200.21 143.732 200.505 143.138C200.8 142.545 201.214 142.085 201.748 141.756C202.281 141.428 202.906 141.264 203.622 141.264C204.338 141.264 204.963 141.428 205.496 141.756C206.03 142.085 206.444 142.545 206.739 143.138C207.034 143.732 207.182 144.424 207.182 145.217C207.182 146.005 207.034 146.695 206.739 147.285C206.444 147.875 206.03 148.334 205.496 148.662C204.963 148.99 204.338 149.154 203.622 149.154ZM203.627 147.906C204.091 147.906 204.476 147.784 204.781 147.538C205.085 147.293 205.311 146.967 205.457 146.559C205.606 146.151 205.68 145.702 205.68 145.212C205.68 144.724 205.606 144.277 205.457 143.869C205.311 143.458 205.085 143.129 204.781 142.88C204.476 142.631 204.091 142.507 203.627 142.507C203.16 142.507 202.772 142.631 202.464 142.88C202.159 143.129 201.932 143.458 201.783 143.869C201.637 144.277 201.564 144.724 201.564 145.212C201.564 145.702 201.637 146.151 201.783 146.559C201.932 146.967 202.159 147.293 202.464 147.538C202.772 147.784 203.16 147.906 203.627 147.906ZM210.328 138.818V149H208.841V138.818H210.328ZM217.688 138.818V149H216.152V138.818H217.688ZM221.292 144.466V149H219.806V141.364H221.233V142.607H221.327C221.503 142.202 221.778 141.877 222.153 141.632C222.53 141.387 223.006 141.264 223.579 141.264C224.1 141.264 224.555 141.374 224.947 141.592C225.338 141.808 225.641 142.129 225.856 142.557C226.072 142.984 226.18 143.513 226.18 144.143V149H224.693V144.322C224.693 143.768 224.549 143.336 224.26 143.024C223.972 142.709 223.576 142.552 223.072 142.552C222.728 142.552 222.421 142.626 222.153 142.776C221.887 142.925 221.677 143.143 221.521 143.432C221.369 143.717 221.292 144.062 221.292 144.466ZM231.738 141.364V142.557H227.567V141.364H231.738ZM228.685 139.534H230.172V146.758C230.172 147.046 230.215 147.263 230.301 147.409C230.387 147.552 230.498 147.649 230.634 147.702C230.773 147.752 230.924 147.777 231.086 147.777C231.206 147.777 231.31 147.769 231.4 147.752C231.489 147.736 231.559 147.722 231.608 147.712L231.877 148.94C231.791 148.973 231.668 149.007 231.509 149.04C231.35 149.076 231.151 149.096 230.912 149.099C230.521 149.106 230.157 149.036 229.819 148.891C229.481 148.745 229.207 148.519 228.998 148.214C228.79 147.91 228.685 147.527 228.685 147.066V139.534ZM236.591 149.154C235.839 149.154 235.191 148.993 234.647 148.672C234.107 148.347 233.69 147.891 233.395 147.305C233.103 146.715 232.957 146.024 232.957 145.232C232.957 144.449 233.103 143.76 233.395 143.163C233.69 142.567 234.1 142.101 234.627 141.766C235.158 141.432 235.778 141.264 236.487 141.264C236.918 141.264 237.335 141.335 237.74 141.478C238.144 141.621 238.507 141.844 238.828 142.149C239.15 142.454 239.404 142.85 239.589 143.337C239.775 143.821 239.868 144.41 239.868 145.102V145.629H233.797V144.516H238.411C238.411 144.125 238.331 143.778 238.172 143.477C238.013 143.172 237.789 142.931 237.501 142.756C237.216 142.58 236.881 142.492 236.497 142.492C236.079 142.492 235.715 142.595 235.403 142.8C235.095 143.003 234.856 143.268 234.687 143.596C234.521 143.921 234.439 144.274 234.439 144.655V145.525C234.439 146.035 234.528 146.469 234.707 146.827C234.889 147.185 235.143 147.459 235.468 147.648C235.792 147.833 236.172 147.926 236.606 147.926C236.888 147.926 237.145 147.886 237.377 147.807C237.609 147.724 237.809 147.601 237.978 147.439C238.147 147.277 238.277 147.076 238.366 146.837L239.773 147.091C239.66 147.505 239.458 147.868 239.167 148.18C238.878 148.488 238.515 148.728 238.078 148.901C237.644 149.07 237.148 149.154 236.591 149.154ZM241.517 149V141.364H242.954V142.577H243.033C243.172 142.166 243.418 141.843 243.769 141.607C244.124 141.369 244.525 141.249 244.972 141.249C245.065 141.249 245.174 141.253 245.3 141.259C245.43 141.266 245.531 141.274 245.604 141.284V142.706C245.544 142.689 245.438 142.671 245.285 142.651C245.133 142.628 244.98 142.616 244.828 142.616C244.477 142.616 244.163 142.691 243.888 142.84C243.617 142.986 243.401 143.19 243.242 143.452C243.083 143.71 243.003 144.005 243.003 144.337V149H241.517ZM250.975 141.364V142.557H246.66V141.364H250.975ZM247.843 149V140.479C247.843 140.001 247.948 139.605 248.156 139.29C248.365 138.972 248.642 138.735 248.987 138.58C249.331 138.42 249.706 138.341 250.11 138.341C250.409 138.341 250.664 138.366 250.876 138.415C251.088 138.462 251.245 138.505 251.348 138.545L251 139.748C250.931 139.728 250.841 139.705 250.732 139.678C250.622 139.648 250.49 139.634 250.334 139.634C249.973 139.634 249.714 139.723 249.558 139.902C249.406 140.081 249.33 140.339 249.33 140.678V149H247.843ZM254.499 149.169C254.015 149.169 253.578 149.08 253.186 148.901C252.795 148.718 252.485 148.455 252.257 148.11C252.031 147.765 251.919 147.343 251.919 146.842C251.919 146.411 252.002 146.057 252.167 145.778C252.333 145.5 252.557 145.28 252.838 145.117C253.12 144.955 253.435 144.832 253.783 144.749C254.131 144.666 254.486 144.603 254.847 144.56C255.304 144.507 255.676 144.464 255.961 144.431C256.246 144.395 256.453 144.337 256.582 144.257C256.711 144.178 256.776 144.048 256.776 143.869V143.835C256.776 143.4 256.653 143.064 256.408 142.825C256.166 142.587 255.805 142.467 255.324 142.467C254.824 142.467 254.429 142.578 254.141 142.8C253.856 143.019 253.659 143.263 253.549 143.531L252.152 143.213C252.318 142.749 252.56 142.375 252.878 142.089C253.2 141.801 253.569 141.592 253.987 141.463C254.404 141.33 254.844 141.264 255.304 141.264C255.609 141.264 255.932 141.301 256.274 141.374C256.618 141.443 256.94 141.572 257.238 141.761C257.54 141.95 257.787 142.22 257.979 142.572C258.171 142.92 258.267 143.372 258.267 143.929V149H256.816V147.956H256.756C256.66 148.148 256.516 148.337 256.324 148.523C256.131 148.708 255.884 148.862 255.583 148.985C255.281 149.108 254.92 149.169 254.499 149.169ZM254.822 147.976C255.233 147.976 255.584 147.895 255.876 147.732C256.171 147.57 256.395 147.358 256.547 147.096C256.703 146.831 256.781 146.547 256.781 146.246V145.261C256.728 145.314 256.625 145.364 256.473 145.411C256.324 145.454 256.153 145.492 255.961 145.525C255.768 145.555 255.581 145.583 255.399 145.609C255.217 145.633 255.064 145.652 254.941 145.669C254.653 145.705 254.39 145.767 254.151 145.853C253.916 145.939 253.727 146.063 253.584 146.226C253.445 146.385 253.375 146.597 253.375 146.862C253.375 147.23 253.511 147.509 253.783 147.697C254.055 147.883 254.401 147.976 254.822 147.976ZM263.464 149.154C262.725 149.154 262.088 148.987 261.555 148.652C261.025 148.314 260.617 147.848 260.332 147.255C260.047 146.662 259.904 145.982 259.904 145.217C259.904 144.441 260.05 143.757 260.342 143.163C260.633 142.567 261.044 142.101 261.575 141.766C262.105 141.432 262.73 141.264 263.449 141.264C264.029 141.264 264.546 141.372 265 141.587C265.454 141.799 265.82 142.098 266.099 142.482C266.381 142.867 266.548 143.316 266.601 143.83H265.154C265.075 143.472 264.892 143.163 264.607 142.905C264.326 142.646 263.948 142.517 263.474 142.517C263.06 142.517 262.697 142.626 262.385 142.845C262.077 143.061 261.837 143.369 261.664 143.77C261.492 144.168 261.406 144.638 261.406 145.182C261.406 145.739 261.49 146.219 261.659 146.624C261.828 147.028 262.067 147.341 262.375 147.563C262.687 147.785 263.053 147.896 263.474 147.896C263.756 147.896 264.011 147.845 264.24 147.742C264.472 147.636 264.665 147.485 264.821 147.29C264.98 147.094 265.091 146.859 265.154 146.584H266.601C266.548 147.078 266.387 147.518 266.119 147.906C265.85 148.294 265.491 148.599 265.04 148.821C264.593 149.043 264.067 149.154 263.464 149.154ZM271.482 149.154C270.73 149.154 270.082 148.993 269.538 148.672C268.998 148.347 268.58 147.891 268.285 147.305C267.993 146.715 267.848 146.024 267.848 145.232C267.848 144.449 267.993 143.76 268.285 143.163C268.58 142.567 268.991 142.101 269.518 141.766C270.048 141.432 270.668 141.264 271.377 141.264C271.808 141.264 272.226 141.335 272.63 141.478C273.035 141.621 273.398 141.844 273.719 142.149C274.041 142.454 274.294 142.85 274.48 143.337C274.665 143.821 274.758 144.41 274.758 145.102V145.629H268.688V144.516H273.301C273.301 144.125 273.222 143.778 273.063 143.477C272.904 143.172 272.68 142.931 272.392 142.756C272.107 142.58 271.772 142.492 271.387 142.492C270.97 142.492 270.605 142.595 270.294 142.8C269.985 143.003 269.747 143.268 269.578 143.596C269.412 143.921 269.329 144.274 269.329 144.655V145.525C269.329 146.035 269.419 146.469 269.598 146.827C269.78 147.185 270.033 147.459 270.358 147.648C270.683 147.833 271.063 147.926 271.497 147.926C271.779 147.926 272.035 147.886 272.267 147.807C272.499 147.724 272.7 147.601 272.869 147.439C273.038 147.277 273.167 147.076 273.257 146.837L274.664 147.091C274.551 147.505 274.349 147.868 274.057 148.18C273.769 148.488 273.406 148.728 272.968 148.901C272.534 149.07 272.039 149.154 271.482 149.154Z" fill="#4A4340"/>
<rect x="308" y="127" width="140" height="34" rx="8" fill="#E5E7EB"/>
<path d="M333.119 138.818H334.983L338.224 146.733H338.344L341.585 138.818H343.45V149H341.988V141.632H341.893L338.891 148.985H337.678L334.675 141.627H334.58V149H333.119V138.818ZM348.855 149.154C348.103 149.154 347.455 148.993 346.911 148.672C346.371 148.347 345.953 147.891 345.658 147.305C345.367 146.715 345.221 146.024 345.221 145.232C345.221 144.449 345.367 143.76 345.658 143.163C345.953 142.567 346.364 142.101 346.891 141.766C347.421 141.432 348.041 141.264 348.751 141.264C349.181 141.264 349.599 141.335 350.003 141.478C350.408 141.621 350.771 141.844 351.092 142.149C351.414 142.454 351.667 142.85 351.853 143.337C352.038 143.821 352.131 144.41 352.131 145.102V145.629H346.061V144.516H350.675C350.675 144.125 350.595 143.778 350.436 143.477C350.277 143.172 350.053 142.931 349.765 142.756C349.48 142.58 349.145 142.492 348.76 142.492C348.343 142.492 347.978 142.595 347.667 142.8C347.358 143.003 347.12 143.268 346.951 143.596C346.785 143.921 346.702 144.274 346.702 144.655V145.525C346.702 146.035 346.792 146.469 346.971 146.827C347.153 147.185 347.407 147.459 347.731 147.648C348.056 147.833 348.436 147.926 348.87 147.926C349.152 147.926 349.408 147.886 349.64 147.807C349.872 147.724 350.073 147.601 350.242 147.439C350.411 147.277 350.54 147.076 350.63 146.837L352.037 147.091C351.924 147.505 351.722 147.868 351.43 148.18C351.142 148.488 350.779 148.728 350.341 148.901C349.907 149.07 349.412 149.154 348.855 149.154ZM356.639 149.149C356.023 149.149 355.473 148.992 354.989 148.677C354.508 148.359 354.13 147.906 353.855 147.32C353.583 146.73 353.447 146.022 353.447 145.197C353.447 144.371 353.585 143.665 353.86 143.079C354.138 142.492 354.52 142.043 355.004 141.732C355.487 141.42 356.036 141.264 356.649 141.264C357.123 141.264 357.504 141.344 357.793 141.503C358.084 141.659 358.31 141.841 358.469 142.05C358.631 142.259 358.757 142.442 358.847 142.602H358.936V138.818H360.423V149H358.971V147.812H358.847C358.757 147.974 358.628 148.16 358.459 148.369C358.293 148.577 358.064 148.76 357.773 148.915C357.481 149.071 357.103 149.149 356.639 149.149ZM356.967 147.881C357.395 147.881 357.756 147.769 358.051 147.543C358.349 147.315 358.575 146.998 358.727 146.594C358.883 146.189 358.961 145.719 358.961 145.182C358.961 144.652 358.885 144.187 358.732 143.79C358.58 143.392 358.356 143.082 358.061 142.86C357.766 142.638 357.402 142.527 356.967 142.527C356.52 142.527 356.147 142.643 355.849 142.875C355.55 143.107 355.325 143.424 355.173 143.825C355.023 144.226 354.949 144.678 354.949 145.182C354.949 145.692 355.025 146.151 355.178 146.559C355.33 146.967 355.555 147.29 355.854 147.528C356.155 147.764 356.527 147.881 356.967 147.881ZM362.544 149V141.364H364.031V149H362.544ZM363.295 140.185C363.036 140.185 362.814 140.099 362.629 139.927C362.446 139.751 362.355 139.542 362.355 139.3C362.355 139.055 362.446 138.846 362.629 138.674C362.814 138.498 363.036 138.411 363.295 138.411C363.553 138.411 363.774 138.498 363.956 138.674C364.142 138.846 364.235 139.055 364.235 139.3C364.235 139.542 364.142 139.751 363.956 139.927C363.774 140.099 363.553 140.185 363.295 140.185ZM368.253 149.169C367.769 149.169 367.331 149.08 366.94 148.901C366.549 148.718 366.239 148.455 366.011 148.11C365.785 147.765 365.673 147.343 365.673 146.842C365.673 146.411 365.755 146.057 365.921 145.778C366.087 145.5 366.311 145.28 366.592 145.117C366.874 144.955 367.189 144.832 367.537 144.749C367.885 144.666 368.24 144.603 368.601 144.56C369.058 144.507 369.429 144.464 369.714 144.431C370 144.395 370.207 144.337 370.336 144.257C370.465 144.178 370.53 144.048 370.53 143.869V143.835C370.53 143.4 370.407 143.064 370.162 142.825C369.92 142.587 369.559 142.467 369.078 142.467C368.578 142.467 368.183 142.578 367.895 142.8C367.61 143.019 367.413 143.263 367.303 143.531L365.906 143.213C366.072 142.749 366.314 142.375 366.632 142.089C366.954 141.801 367.323 141.592 367.741 141.463C368.158 141.33 368.598 141.264 369.058 141.264C369.363 141.264 369.686 141.301 370.028 141.374C370.372 141.443 370.694 141.572 370.992 141.761C371.294 141.95 371.541 142.22 371.733 142.572C371.925 142.92 372.021 143.372 372.021 143.929V149H370.57V147.956H370.51C370.414 148.148 370.27 148.337 370.077 148.523C369.885 148.708 369.638 148.862 369.337 148.985C369.035 149.108 368.674 149.169 368.253 149.169ZM368.576 147.976C368.987 147.976 369.338 147.895 369.63 147.732C369.925 147.57 370.149 147.358 370.301 147.096C370.457 146.831 370.535 146.547 370.535 146.246V145.261C370.482 145.314 370.379 145.364 370.227 145.411C370.077 145.454 369.907 145.492 369.714 145.525C369.522 145.555 369.335 145.583 369.153 145.609C368.97 145.633 368.818 145.652 368.695 145.669C368.407 145.705 368.143 145.767 367.905 145.853C367.67 145.939 367.481 146.063 367.338 146.226C367.199 146.385 367.129 146.597 367.129 146.862C367.129 147.23 367.265 147.509 367.537 147.697C367.809 147.883 368.155 147.976 368.576 147.976ZM377.826 149V138.818H384.209V140.141H379.362V143.243H383.876V144.56H379.362V147.678H384.269V149H377.826ZM387.628 144.466V149H386.142V141.364H387.569V142.607H387.663C387.839 142.202 388.114 141.877 388.488 141.632C388.866 141.387 389.342 141.264 389.915 141.264C390.436 141.264 390.891 141.374 391.282 141.592C391.674 141.808 391.977 142.129 392.192 142.557C392.408 142.984 392.515 143.513 392.515 144.143V149H391.029V144.322C391.029 143.768 390.885 143.336 390.596 143.024C390.308 142.709 389.912 142.552 389.408 142.552C389.064 142.552 388.757 142.626 388.488 142.776C388.223 142.925 388.013 143.143 387.857 143.432C387.705 143.717 387.628 144.062 387.628 144.466ZM397.711 152.023C397.104 152.023 396.582 151.943 396.145 151.784C395.711 151.625 395.356 151.415 395.081 151.153C394.806 150.891 394.6 150.604 394.464 150.293L395.742 149.766C395.831 149.911 395.951 150.066 396.1 150.228C396.252 150.394 396.458 150.535 396.716 150.651C396.978 150.767 397.315 150.825 397.726 150.825C398.289 150.825 398.755 150.687 399.123 150.412C399.491 150.14 399.675 149.706 399.675 149.109V147.608H399.58C399.491 147.77 399.361 147.951 399.192 148.15C399.027 148.349 398.798 148.521 398.506 148.667C398.215 148.813 397.835 148.886 397.368 148.886C396.765 148.886 396.221 148.745 395.737 148.463C395.256 148.178 394.875 147.759 394.594 147.205C394.315 146.648 394.176 145.964 394.176 145.152C394.176 144.34 394.314 143.644 394.589 143.064C394.867 142.484 395.248 142.04 395.732 141.732C396.216 141.42 396.765 141.264 397.378 141.264C397.852 141.264 398.234 141.344 398.526 141.503C398.818 141.659 399.045 141.841 399.207 142.05C399.373 142.259 399.501 142.442 399.59 142.602H399.699V141.364H401.156V149.169C401.156 149.825 401.004 150.364 400.699 150.785C400.394 151.206 399.981 151.517 399.461 151.719C398.944 151.922 398.36 152.023 397.711 152.023ZM397.696 147.653C398.123 147.653 398.485 147.553 398.78 147.354C399.078 147.152 399.303 146.864 399.456 146.489C399.612 146.112 399.689 145.659 399.689 145.132C399.689 144.618 399.613 144.166 399.461 143.775C399.308 143.384 399.085 143.079 398.79 142.86C398.495 142.638 398.13 142.527 397.696 142.527C397.248 142.527 396.876 142.643 396.577 142.875C396.279 143.104 396.054 143.415 395.901 143.81C395.752 144.204 395.677 144.645 395.677 145.132C395.677 145.633 395.754 146.072 395.906 146.45C396.059 146.827 396.284 147.122 396.582 147.335C396.884 147.547 397.255 147.653 397.696 147.653ZM403.15 149V141.364H404.636V149H403.15ZM403.9 140.185C403.642 140.185 403.42 140.099 403.234 139.927C403.052 139.751 402.961 139.542 402.961 139.3C402.961 139.055 403.052 138.846 403.234 138.674C403.42 138.498 403.642 138.411 403.9 138.411C404.159 138.411 404.379 138.498 404.562 138.674C404.747 138.846 404.84 139.055 404.84 139.3C404.84 139.542 404.747 139.751 404.562 139.927C404.379 140.099 404.159 140.185 403.9 140.185ZM408.123 144.466V149H406.636V141.364H408.063V142.607H408.157C408.333 142.202 408.608 141.877 408.983 141.632C409.36 141.387 409.836 141.264 410.409 141.264C410.93 141.264 411.386 141.374 411.777 141.592C412.168 141.808 412.471 142.129 412.686 142.557C412.902 142.984 413.01 143.513 413.01 144.143V149H411.523V144.322C411.523 143.768 411.379 143.336 411.091 143.024C410.802 142.709 410.406 142.552 409.902 142.552C409.558 142.552 409.251 142.626 408.983 142.776C408.717 142.925 408.507 143.143 408.351 143.432C408.199 143.717 408.123 144.062 408.123 144.466ZM418.294 149.154C417.542 149.154 416.894 148.993 416.35 148.672C415.81 148.347 415.393 147.891 415.098 147.305C414.806 146.715 414.66 146.024 414.66 145.232C414.66 144.449 414.806 143.76 415.098 143.163C415.393 142.567 415.804 142.101 416.331 141.766C416.861 141.432 417.481 141.264 418.19 141.264C418.621 141.264 419.038 141.335 419.443 141.478C419.847 141.621 420.21 141.844 420.532 142.149C420.853 142.454 421.107 142.85 421.292 143.337C421.478 143.821 421.571 144.41 421.571 145.102V145.629H415.5V144.516H420.114C420.114 144.125 420.034 143.778 419.875 143.477C419.716 143.172 419.493 142.931 419.204 142.756C418.919 142.58 418.584 142.492 418.2 142.492C417.782 142.492 417.418 142.595 417.106 142.8C416.798 143.003 416.559 143.268 416.39 143.596C416.225 143.921 416.142 144.274 416.142 144.655V145.525C416.142 146.035 416.231 146.469 416.41 146.827C416.592 147.185 416.846 147.459 417.171 147.648C417.496 147.833 417.875 147.926 418.309 147.926C418.591 147.926 418.848 147.886 419.08 147.807C419.312 147.724 419.512 147.601 419.681 147.439C419.85 147.277 419.98 147.076 420.069 146.837L421.476 147.091C421.364 147.505 421.161 147.868 420.87 148.18C420.581 148.488 420.218 148.728 419.781 148.901C419.347 149.07 418.851 149.154 418.294 149.154Z" fill="#4A4340"/>
<path d="M296.47 107.831C296.377 107.571 296.09 107.436 295.831 107.53L291.597 109.054C291.337 109.147 291.202 109.434 291.296 109.694C291.389 109.953 291.676 110.088 291.935 109.995L295.699 108.64L297.054 112.403C297.147 112.663 297.434 112.798 297.694 112.704C297.953 112.611 298.088 112.324 297.995 112.065L296.47 107.831ZM287.53 125.169C287.623 125.429 287.91 125.564 288.169 125.47L292.403 123.946C292.663 123.853 292.798 123.566 292.704 123.306C292.611 123.047 292.324 122.912 292.065 123.005L288.301 124.36L286.946 120.597C286.853 120.337 286.566 120.202 286.306 120.296C286.047 120.389 285.912 120.676 286.005 120.935L287.53 125.169ZM295.548 107.787L287.548 124.787L288.452 125.213L296.452 108.213L295.548 107.787Z" fill="#9CA3AF"/>
<path d="M303.53 107.831C303.623 107.571 303.91 107.436 304.169 107.53L308.403 109.054C308.663 109.147 308.798 109.434 308.704 109.694C308.611 109.953 308.324 110.088 308.065 109.995L304.301 108.64L302.946 112.403C302.853 112.663 302.566 112.798 302.306 112.704C302.047 112.611 301.912 112.324 302.005 112.065L303.53 107.831ZM312.47 125.169C312.377 125.429 312.09 125.564 311.831 125.47L307.597 123.946C307.337 123.853 307.202 123.566 307.296 123.306C307.389 123.047 307.676 122.912 307.935 123.005L311.699 124.36L313.054 120.597C313.147 120.337 313.434 120.202 313.694 120.296C313.953 120.389 314.088 120.676 313.995 120.935L312.47 125.169ZM304.452 107.787L312.452 124.787L311.548 125.213L303.548 108.213L304.452 107.787Z" fill="#9CA3AF"/>
<defs>
<filter id="filter0_bddd_2521_10461" x="0" y="-3" width="598" height="97" filterUnits="userSpaceOnUse" color-interpolation-filters="sRGB">
<feFlood flood-opacity="0" result="BackgroundImageFix"/>
<feGaussianBlur in="BackgroundImageFix" stdDeviation="2.5"/>
<feComposite in2="SourceAlpha" operator="in" result="effect1_backgroundBlur_2521_10461"/>
<feColorMatrix in="SourceAlpha" type="matrix" values="0 0 0 0 0 0 0 0 0 0 0 0 0 0 0 0 0 0 127 0" result="hardAlpha"/>
<feMorphology radius="16" operator="erode" in="SourceAlpha" result="effect2_dropShadow_2521_10461"/>
<feOffset dy="24"/>
<feGaussianBlur stdDeviation="20"/>
<feComposite in2="hardAlpha" operator="out"/>
<feColorMatrix type="matrix" values="0 0 0 0 0.407843 0 0 0 0 0.294118 0 0 0 0 0.145098 0 0 0 0.08 0"/>
<feBlend mode="normal" in2="effect1_backgroundBlur_2521_10461" result="effect2_dropShadow_2521_10461"/>
<feColorMatrix in="SourceAlpha" type="matrix" values="0 0 0 0 0 0 0 0 0 0 0 0 0 0 0 0 0 0 127 0" result="hardAlpha"/>
<feOffset dy="4"/>
<feGaussianBlur stdDeviation="3"/>
<feComposite in2="hardAlpha" operator="out"/>
<feColorMatrix type="matrix" values="0 0 0 0 0.372549 0 0 0 0 0.290196 0 0 0 0 0.180392 0 0 0 0.04 0"/>
<feBlend mode="normal" in2="effect2_dropShadow_2521_10461" result="effect3_dropShadow_2521_10461"/>
<feColorMatrix in="SourceAlpha" type="matrix" values="0 0 0 0 0 0 0 0 0 0 0 0 0 0 0 0 0 0 127 0" result="hardAlpha"/>
<feOffset dy="1"/>
<feGaussianBlur stdDeviation="1"/>
<feComposite in2="hardAlpha" operator="out"/>
<feColorMatrix type="matrix" values="0 0 0 0 0.372549 0 0 0 0 0.290196 0 0 0 0 0.180392 0 0 0 0.08 0"/>
<feBlend mode="normal" in2="effect3_dropShadow_2521_10461" result="effect4_dropShadow_2521_10461"/>
<feBlend mode="normal" in="SourceGraphic" in2="effect4_dropShadow_2521_10461" result="shape"/>
</filter>
</defs>
</svg>
