<svg width="562" height="161" viewBox="0 0 562 161" fill="none" xmlns="http://www.w3.org/2000/svg">
<g filter="url(#filter0_dd_2511_11271)">
<rect x="6" y="2" width="550" height="44" rx="8" fill="white" fill-opacity="0.85" shape-rendering="crispEdges"/>
<path d="M23.2784 30V18.3636H25.0341V23.4205H30.8352V18.3636H32.5966V30H30.8352V24.9261H25.0341V30H23.2784ZM35.017 30V21.2727H36.7159V30H35.017ZM35.875 19.9261C35.5795 19.9261 35.3258 19.8277 35.1136 19.6307C34.9053 19.4299 34.8011 19.1913 34.8011 18.9148C34.8011 18.6345 34.9053 18.3958 35.1136 18.1989C35.3258 17.9981 35.5795 17.8977 35.875 17.8977C36.1705 17.8977 36.4223 17.9981 36.6307 18.1989C36.8428 18.3958 36.9489 18.6345 36.9489 18.9148C36.9489 19.1913 36.8428 19.4299 36.6307 19.6307C36.4223 19.8277 36.1705 19.9261 35.875 19.9261ZM42.6605 33.4545C41.9673 33.4545 41.3707 33.3636 40.8707 33.1818C40.3745 33 39.9692 32.7595 39.6548 32.4602C39.3404 32.161 39.1056 31.8333 38.9503 31.4773L40.4105 30.875C40.5128 31.0417 40.6491 31.2178 40.8196 31.4034C40.9938 31.5928 41.2287 31.7538 41.5241 31.8864C41.8234 32.0189 42.2079 32.0852 42.6776 32.0852C43.3215 32.0852 43.8537 31.928 44.2741 31.6136C44.6946 31.303 44.9048 30.8068 44.9048 30.125V28.4091H44.7969C44.6946 28.5947 44.5469 28.8011 44.3537 29.0284C44.1643 29.2557 43.9029 29.4527 43.5696 29.6193C43.2363 29.786 42.8026 29.8693 42.2685 29.8693C41.5791 29.8693 40.9579 29.7083 40.4048 29.3864C39.8556 29.0606 39.42 28.5814 39.098 27.9489C38.7798 27.3125 38.6207 26.5303 38.6207 25.6023C38.6207 24.6742 38.7779 23.8788 39.0923 23.2159C39.4105 22.553 39.8461 22.0455 40.3991 21.6932C40.9522 21.3371 41.5791 21.1591 42.2798 21.1591C42.8215 21.1591 43.259 21.25 43.5923 21.4318C43.9257 21.6098 44.1851 21.8182 44.3707 22.0568C44.5601 22.2955 44.706 22.5057 44.8082 22.6875H44.9332V21.2727H46.598V30.1932C46.598 30.9432 46.4238 31.5587 46.0753 32.0398C45.7268 32.5208 45.2552 32.8769 44.6605 33.108C44.0696 33.339 43.4029 33.4545 42.6605 33.4545ZM42.6435 28.4602C43.1321 28.4602 43.545 28.3466 43.8821 28.1193C44.223 27.8883 44.4806 27.5587 44.6548 27.1307C44.8329 26.6989 44.9219 26.1818 44.9219 25.5795C44.9219 24.9924 44.8348 24.4754 44.6605 24.0284C44.4863 23.5814 44.2306 23.233 43.8935 22.983C43.5563 22.7292 43.1397 22.6023 42.6435 22.6023C42.1321 22.6023 41.706 22.7348 41.3651 23C41.0241 23.2614 40.7666 23.6174 40.5923 24.0682C40.4219 24.5189 40.3366 25.0227 40.3366 25.5795C40.3366 26.1515 40.4238 26.6534 40.598 27.0852C40.7723 27.517 41.0298 27.8542 41.3707 28.0966C41.7154 28.339 42.1397 28.4602 42.6435 28.4602ZM50.5753 24.8182V30H48.8764V18.3636H50.5526V22.6932H50.6605C50.8651 22.2235 51.1776 21.8504 51.598 21.5739C52.0185 21.2973 52.5677 21.1591 53.2457 21.1591C53.8442 21.1591 54.367 21.2822 54.8139 21.5284C55.2647 21.7746 55.6132 22.142 55.8594 22.6307C56.1094 23.1155 56.2344 23.7216 56.2344 24.4489V30H54.5355V24.6534C54.5355 24.0133 54.3707 23.517 54.0412 23.1648C53.7116 22.8087 53.2533 22.6307 52.6662 22.6307C52.2647 22.6307 51.9048 22.7159 51.5866 22.8864C51.2723 23.0568 51.0241 23.3068 50.8423 23.6364C50.6643 23.9621 50.5753 24.3561 50.5753 24.8182ZM67.8778 23.4432V24.9205H62.7188V23.4432H67.8778ZM74.5128 30V18.3636H76.2685V28.4886H81.5412V30H74.5128ZM87.169 30.1761C86.3092 30.1761 85.5687 29.9924 84.9474 29.625C84.33 29.2538 83.8527 28.733 83.5156 28.0625C83.1823 27.3883 83.0156 26.5985 83.0156 25.6932C83.0156 24.7992 83.1823 24.0114 83.5156 23.3295C83.8527 22.6477 84.3224 22.1155 84.9247 21.733C85.5308 21.3504 86.2391 21.1591 87.0497 21.1591C87.5421 21.1591 88.0194 21.2405 88.4815 21.4034C88.9437 21.5663 89.3584 21.822 89.7259 22.1705C90.0933 22.5189 90.383 22.9716 90.5952 23.5284C90.8073 24.0814 90.9134 24.7538 90.9134 25.5455V26.1477H83.9759V24.875H89.2486C89.2486 24.428 89.1577 24.0322 88.9759 23.6875C88.794 23.339 88.5384 23.0644 88.2088 22.8636C87.883 22.6629 87.5005 22.5625 87.0611 22.5625C86.5838 22.5625 86.1671 22.6799 85.8111 22.9148C85.4588 23.1458 85.1861 23.4489 84.9929 23.8239C84.8035 24.1951 84.7088 24.5985 84.7088 25.0341V26.0284C84.7088 26.6117 84.8111 27.108 85.0156 27.517C85.224 27.9261 85.5137 28.2386 85.8849 28.4545C86.2562 28.6667 86.6899 28.7727 87.1861 28.7727C87.508 28.7727 87.8016 28.7273 88.0668 28.6364C88.3319 28.5417 88.5611 28.4015 88.7543 28.2159C88.9474 28.0303 89.0952 27.8011 89.1974 27.5284L90.8054 27.8182C90.6766 28.2917 90.4455 28.7064 90.1122 29.0625C89.7827 29.4148 89.3679 29.6894 88.8679 29.8864C88.3717 30.0795 87.8054 30.1761 87.169 30.1761ZM100.014 21.2727L96.8494 30H95.0312L91.8608 21.2727H93.6847L95.8949 27.9886H95.9858L98.1903 21.2727H100.014ZM105.075 30.1761C104.215 30.1761 103.475 29.9924 102.854 29.625C102.236 29.2538 101.759 28.733 101.422 28.0625C101.089 27.3883 100.922 26.5985 100.922 25.6932C100.922 24.7992 101.089 24.0114 101.422 23.3295C101.759 22.6477 102.229 22.1155 102.831 21.733C103.437 21.3504 104.145 21.1591 104.956 21.1591C105.448 21.1591 105.926 21.2405 106.388 21.4034C106.85 21.5663 107.265 21.822 107.632 22.1705C108 22.5189 108.289 22.9716 108.501 23.5284C108.714 24.0814 108.82 24.7538 108.82 25.5455V26.1477H101.882V24.875H107.155C107.155 24.428 107.064 24.0322 106.882 23.6875C106.7 23.339 106.445 23.0644 106.115 22.8636C105.789 22.6629 105.407 22.5625 104.967 22.5625C104.49 22.5625 104.073 22.6799 103.717 22.9148C103.365 23.1458 103.092 23.4489 102.899 23.8239C102.71 24.1951 102.615 24.5985 102.615 25.0341V26.0284C102.615 26.6117 102.717 27.108 102.922 27.517C103.13 27.9261 103.42 28.2386 103.791 28.4545C104.162 28.6667 104.596 28.7727 105.092 28.7727C105.414 28.7727 105.708 28.7273 105.973 28.6364C106.238 28.5417 106.467 28.4015 106.661 28.2159C106.854 28.0303 107.001 27.8011 107.104 27.5284L108.712 27.8182C108.583 28.2917 108.352 28.7064 108.018 29.0625C107.689 29.4148 107.274 29.6894 106.774 29.8864C106.278 30.0795 105.712 30.1761 105.075 30.1761ZM112.403 18.3636V30H110.705V18.3636H112.403ZM120.043 30H118.179L122.366 18.3636H124.395L128.582 30H126.719L123.429 20.4773H123.338L120.043 30ZM120.355 25.4432H126.401V26.9205H120.355V25.4432ZM130.126 30V21.2727H131.768V22.6591H131.859C132.018 22.1894 132.299 21.8201 132.7 21.5511C133.106 21.2784 133.564 21.142 134.075 21.142C134.181 21.142 134.306 21.1458 134.45 21.1534C134.598 21.161 134.714 21.1705 134.797 21.1818V22.8068C134.729 22.7879 134.607 22.767 134.433 22.7443C134.259 22.7178 134.085 22.7045 133.911 22.7045C133.509 22.7045 133.151 22.7898 132.837 22.9602C132.526 23.1269 132.28 23.3598 132.098 23.6591C131.916 23.9545 131.825 24.2917 131.825 24.6705V30H130.126ZM139.631 30.1761C138.786 30.1761 138.059 29.9848 137.449 29.6023C136.843 29.2159 136.377 28.6837 136.051 28.0057C135.725 27.3277 135.562 26.5511 135.562 25.6761C135.562 24.7898 135.729 24.0076 136.062 23.3295C136.396 22.6477 136.866 22.1155 137.472 21.733C138.078 21.3504 138.792 21.1591 139.614 21.1591C140.277 21.1591 140.867 21.2822 141.386 21.5284C141.905 21.7708 142.324 22.1117 142.642 22.5511C142.964 22.9905 143.155 23.5038 143.216 24.0909H141.562C141.472 23.6818 141.263 23.3295 140.938 23.0341C140.616 22.7386 140.184 22.5909 139.642 22.5909C139.169 22.5909 138.754 22.7159 138.398 22.9659C138.045 23.2121 137.771 23.5644 137.574 24.0227C137.377 24.4773 137.278 25.0152 137.278 25.6364C137.278 26.2727 137.375 26.822 137.568 27.2841C137.761 27.7462 138.034 28.1042 138.386 28.358C138.742 28.6117 139.161 28.7386 139.642 28.7386C139.964 28.7386 140.256 28.6799 140.517 28.5625C140.782 28.4413 141.004 28.2689 141.182 28.0455C141.364 27.822 141.491 27.553 141.562 27.2386H143.216C143.155 27.803 142.972 28.3068 142.665 28.75C142.358 29.1932 141.947 29.5417 141.432 29.7955C140.92 30.0492 140.32 30.1761 139.631 30.1761ZM146.732 24.8182V30H145.033V18.3636H146.709V22.6932H146.817C147.021 22.2235 147.334 21.8504 147.754 21.5739C148.175 21.2973 148.724 21.1591 149.402 21.1591C150 21.1591 150.523 21.2822 150.97 21.5284C151.421 21.7746 151.769 22.142 152.016 22.6307C152.266 23.1155 152.391 23.7216 152.391 24.4489V30H150.692V24.6534C150.692 24.0133 150.527 23.517 150.197 23.1648C149.868 22.8087 149.41 22.6307 148.822 22.6307C148.421 22.6307 148.061 22.7159 147.743 22.8864C147.429 23.0568 147.18 23.3068 146.999 23.6364C146.821 23.9621 146.732 24.3561 146.732 24.8182ZM154.658 30V21.2727H156.357V30H154.658ZM155.516 19.9261C155.22 19.9261 154.966 19.8277 154.754 19.6307C154.546 19.4299 154.442 19.1913 154.442 18.9148C154.442 18.6345 154.546 18.3958 154.754 18.1989C154.966 17.9981 155.22 17.8977 155.516 17.8977C155.811 17.8977 156.063 17.9981 156.271 18.1989C156.483 18.3958 156.589 18.6345 156.589 18.9148C156.589 19.1913 156.483 19.4299 156.271 19.6307C156.063 19.8277 155.811 19.9261 155.516 19.9261ZM162.716 21.2727V22.6364H157.949V21.2727H162.716ZM159.227 19.1818H160.926V27.4375C160.926 27.767 160.975 28.0152 161.074 28.1818C161.172 28.3447 161.299 28.4564 161.455 28.517C161.614 28.5739 161.786 28.6023 161.972 28.6023C162.108 28.6023 162.227 28.5928 162.33 28.5739C162.432 28.5549 162.511 28.5398 162.568 28.5284L162.875 29.9318C162.777 29.9697 162.636 30.0076 162.455 30.0455C162.273 30.0871 162.045 30.1098 161.773 30.1136C161.326 30.1212 160.909 30.0417 160.523 29.875C160.136 29.7083 159.824 29.4508 159.585 29.1023C159.347 28.7538 159.227 28.3163 159.227 27.7898V19.1818ZM168.263 30.1761C167.403 30.1761 166.662 29.9924 166.041 29.625C165.424 29.2538 164.946 28.733 164.609 28.0625C164.276 27.3883 164.109 26.5985 164.109 25.6932C164.109 24.7992 164.276 24.0114 164.609 23.3295C164.946 22.6477 165.416 22.1155 166.018 21.733C166.625 21.3504 167.333 21.1591 168.143 21.1591C168.636 21.1591 169.113 21.2405 169.575 21.4034C170.037 21.5663 170.452 21.822 170.82 22.1705C171.187 22.5189 171.477 22.9716 171.689 23.5284C171.901 24.0814 172.007 24.7538 172.007 25.5455V26.1477H165.07V24.875H170.342C170.342 24.428 170.251 24.0322 170.07 23.6875C169.888 23.339 169.632 23.0644 169.303 22.8636C168.977 22.6629 168.594 22.5625 168.155 22.5625C167.678 22.5625 167.261 22.6799 166.905 22.9148C166.553 23.1458 166.28 23.4489 166.087 23.8239C165.897 24.1951 165.803 24.5985 165.803 25.0341V26.0284C165.803 26.6117 165.905 27.108 166.109 27.517C166.318 27.9261 166.607 28.2386 166.979 28.4545C167.35 28.6667 167.784 28.7727 168.28 28.7727C168.602 28.7727 168.895 28.7273 169.161 28.6364C169.426 28.5417 169.655 28.4015 169.848 28.2159C170.041 28.0303 170.189 27.8011 170.291 27.5284L171.899 27.8182C171.77 28.2917 171.539 28.7064 171.206 29.0625C170.876 29.4148 170.462 29.6894 169.962 29.8864C169.465 30.0795 168.899 30.1761 168.263 30.1761ZM177.568 30.1761C176.723 30.1761 175.996 29.9848 175.386 29.6023C174.78 29.2159 174.314 28.6837 173.989 28.0057C173.663 27.3277 173.5 26.5511 173.5 25.6761C173.5 24.7898 173.667 24.0076 174 23.3295C174.333 22.6477 174.803 22.1155 175.409 21.733C176.015 21.3504 176.729 21.1591 177.551 21.1591C178.214 21.1591 178.805 21.2822 179.324 21.5284C179.843 21.7708 180.261 22.1117 180.58 22.5511C180.902 22.9905 181.093 23.5038 181.153 24.0909H179.5C179.409 23.6818 179.201 23.3295 178.875 23.0341C178.553 22.7386 178.121 22.5909 177.58 22.5909C177.106 22.5909 176.691 22.7159 176.335 22.9659C175.983 23.2121 175.708 23.5644 175.511 24.0227C175.314 24.4773 175.216 25.0152 175.216 25.6364C175.216 26.2727 175.313 26.822 175.506 27.2841C175.699 27.7462 175.972 28.1042 176.324 28.358C176.68 28.6117 177.098 28.7386 177.58 28.7386C177.902 28.7386 178.193 28.6799 178.455 28.5625C178.72 28.4413 178.941 28.2689 179.119 28.0455C179.301 27.822 179.428 27.553 179.5 27.2386H181.153C181.093 27.803 180.909 28.3068 180.602 28.75C180.295 29.1932 179.884 29.5417 179.369 29.7955C178.858 30.0492 178.258 30.1761 177.568 30.1761ZM187.044 21.2727V22.6364H182.277V21.2727H187.044ZM183.555 19.1818H185.254V27.4375C185.254 27.767 185.304 28.0152 185.402 28.1818C185.5 28.3447 185.627 28.4564 185.783 28.517C185.942 28.5739 186.114 28.6023 186.3 28.6023C186.436 28.6023 186.555 28.5928 186.658 28.5739C186.76 28.5549 186.839 28.5398 186.896 28.5284L187.203 29.9318C187.105 29.9697 186.964 30.0076 186.783 30.0455C186.601 30.0871 186.374 30.1098 186.101 30.1136C185.654 30.1212 185.237 30.0417 184.851 29.875C184.464 29.7083 184.152 29.4508 183.913 29.1023C183.675 28.7538 183.555 28.3163 183.555 27.7898V19.1818ZM194.452 26.3807V21.2727H196.156V30H194.486V28.4886H194.395C194.194 28.9545 193.872 29.3428 193.429 29.6534C192.99 29.9602 192.442 30.1136 191.787 30.1136C191.226 30.1136 190.73 29.9905 190.298 29.7443C189.87 29.4943 189.533 29.125 189.287 28.6364C189.045 28.1477 188.923 27.5436 188.923 26.8239V21.2727H190.622V26.6193C190.622 27.214 190.787 27.6875 191.116 28.0398C191.446 28.392 191.874 28.5682 192.401 28.5682C192.719 28.5682 193.035 28.4886 193.349 28.3295C193.668 28.1705 193.931 27.9299 194.139 27.608C194.351 27.286 194.455 26.8769 194.452 26.3807ZM198.439 30V21.2727H200.081V22.6591H200.172C200.331 22.1894 200.611 21.8201 201.013 21.5511C201.418 21.2784 201.876 21.142 202.388 21.142C202.494 21.142 202.619 21.1458 202.763 21.1534C202.911 21.161 203.026 21.1705 203.109 21.1818V22.8068C203.041 22.7879 202.92 22.767 202.746 22.7443C202.571 22.7178 202.397 22.7045 202.223 22.7045C201.821 22.7045 201.464 22.7898 201.149 22.9602C200.839 23.1269 200.592 23.3598 200.411 23.6591C200.229 23.9545 200.138 24.2917 200.138 24.6705V30H198.439ZM208.028 30.1761C207.169 30.1761 206.428 29.9924 205.807 29.625C205.189 29.2538 204.712 28.733 204.375 28.0625C204.042 27.3883 203.875 26.5985 203.875 25.6932C203.875 24.7992 204.042 24.0114 204.375 23.3295C204.712 22.6477 205.182 22.1155 205.784 21.733C206.39 21.3504 207.098 21.1591 207.909 21.1591C208.402 21.1591 208.879 21.2405 209.341 21.4034C209.803 21.5663 210.218 21.822 210.585 22.1705C210.953 22.5189 211.242 22.9716 211.455 23.5284C211.667 24.0814 211.773 24.7538 211.773 25.5455V26.1477H204.835V24.875H210.108C210.108 24.428 210.017 24.0322 209.835 23.6875C209.653 23.339 209.398 23.0644 209.068 22.8636C208.742 22.6629 208.36 22.5625 207.92 22.5625C207.443 22.5625 207.027 22.6799 206.67 22.9148C206.318 23.1458 206.045 23.4489 205.852 23.8239C205.663 24.1951 205.568 24.5985 205.568 25.0341V26.0284C205.568 26.6117 205.67 27.108 205.875 27.517C206.083 27.9261 206.373 28.2386 206.744 28.4545C207.116 28.6667 207.549 28.7727 208.045 28.7727C208.367 28.7727 208.661 28.7273 208.926 28.6364C209.191 28.5417 209.42 28.4015 209.614 28.2159C209.807 28.0303 209.955 27.8011 210.057 27.5284L211.665 27.8182C211.536 28.2917 211.305 28.7064 210.972 29.0625C210.642 29.4148 210.227 29.6894 209.727 29.8864C209.231 30.0795 208.665 30.1761 208.028 30.1761Z" fill="#4A4340"/>
</g>
<rect x="227" y="70" width="113" height="34" rx="8" fill="#EDE5E0"/>
<path d="M264.672 84.4929C264.619 84.0223 264.4 83.6577 264.016 83.3991C263.631 83.1373 263.147 83.0064 262.564 83.0064C262.146 83.0064 261.785 83.0727 261.48 83.2053C261.175 83.3345 260.938 83.5135 260.769 83.7422C260.603 83.9676 260.521 84.2244 260.521 84.5128C260.521 84.7547 260.577 84.9635 260.69 85.1392C260.806 85.3149 260.956 85.4624 261.142 85.5817C261.331 85.6977 261.533 85.7955 261.749 85.875C261.964 85.9512 262.171 86.0142 262.37 86.0639L263.364 86.3224C263.689 86.402 264.022 86.5097 264.364 86.6456C264.705 86.7815 265.022 86.9605 265.313 87.1825C265.605 87.4046 265.84 87.6797 266.019 88.0078C266.201 88.3359 266.293 88.7287 266.293 89.1861C266.293 89.7628 266.143 90.2749 265.845 90.7223C265.55 91.1697 265.121 91.5227 264.558 91.7812C263.997 92.0398 263.32 92.169 262.524 92.169C261.762 92.169 261.102 92.0481 260.545 91.8061C259.989 91.5642 259.553 91.2211 259.238 90.777C258.923 90.3295 258.749 89.7992 258.716 89.1861H260.257C260.287 89.554 260.406 89.8606 260.615 90.1058C260.827 90.3478 261.097 90.5284 261.425 90.6477C261.757 90.7637 262.12 90.8217 262.514 90.8217C262.948 90.8217 263.335 90.7538 263.673 90.6179C264.014 90.4787 264.282 90.2865 264.478 90.0412C264.674 89.7926 264.771 89.5026 264.771 89.1712C264.771 88.8696 264.685 88.6226 264.513 88.4304C264.344 88.2382 264.113 88.0791 263.822 87.9531C263.533 87.8272 263.207 87.7161 262.842 87.62L261.639 87.2919C260.824 87.0698 260.178 86.7434 259.7 86.3125C259.226 85.8816 258.989 85.3116 258.989 84.6023C258.989 84.0156 259.148 83.5036 259.467 83.0661C259.785 82.6286 260.216 82.2888 260.759 82.0469C261.303 81.8016 261.916 81.679 262.599 81.679C263.288 81.679 263.896 81.8 264.423 82.0419C264.954 82.2839 265.371 82.617 265.676 83.0412C265.981 83.4621 266.14 83.946 266.153 84.4929H264.672ZM271.3 92.1541C270.548 92.1541 269.9 91.9934 269.356 91.6719C268.816 91.3471 268.398 90.8913 268.104 90.3047C267.812 89.7147 267.666 89.0237 267.666 88.2315C267.666 87.4493 267.812 86.7599 268.104 86.1634C268.398 85.5668 268.809 85.1011 269.336 84.7663C269.867 84.4316 270.487 84.2642 271.196 84.2642C271.627 84.2642 272.044 84.3355 272.449 84.478C272.853 84.6205 273.216 84.8442 273.537 85.1491C273.859 85.4541 274.113 85.8501 274.298 86.3374C274.484 86.8213 274.577 87.4096 274.577 88.1023V88.6293H268.506V87.5156H273.12C273.12 87.1245 273.04 86.7782 272.881 86.4766C272.722 86.1716 272.498 85.9313 272.21 85.7557C271.925 85.58 271.59 85.4922 271.206 85.4922C270.788 85.4922 270.424 85.5949 270.112 85.8004C269.804 86.0026 269.565 86.2678 269.396 86.5959C269.23 86.9207 269.148 87.2737 269.148 87.6548V88.5249C269.148 89.0353 269.237 89.4695 269.416 89.8274C269.598 90.1854 269.852 90.4588 270.177 90.6477C270.501 90.8333 270.881 90.9261 271.315 90.9261C271.597 90.9261 271.854 90.8864 272.086 90.8068C272.318 90.724 272.518 90.6013 272.687 90.4389C272.856 90.2765 272.986 90.076 273.075 89.8374L274.482 90.0909C274.369 90.5052 274.167 90.8681 273.876 91.1797C273.587 91.4879 273.224 91.7282 272.787 91.9006C272.353 92.0696 271.857 92.1541 271.3 92.1541ZM276.226 92V84.3636H277.663V85.5767H277.742C277.881 85.1657 278.127 84.8426 278.478 84.6072C278.833 84.3686 279.234 84.2493 279.681 84.2493C279.774 84.2493 279.883 84.2526 280.009 84.2592C280.138 84.2659 280.24 84.2741 280.312 84.2841V85.706C280.253 85.6894 280.147 85.6712 279.994 85.6513C279.842 85.6281 279.689 85.6165 279.537 85.6165C279.186 85.6165 278.872 85.6911 278.597 85.8402C278.326 85.986 278.11 86.1899 277.951 86.4517C277.792 86.7102 277.712 87.0052 277.712 87.3366V92H276.226ZM288.364 84.3636L285.595 92H284.004L281.23 84.3636H282.826L284.76 90.2401H284.839L286.768 84.3636H288.364ZM292.792 92.1541C292.04 92.1541 291.392 91.9934 290.849 91.6719C290.308 91.3471 289.891 90.8913 289.596 90.3047C289.304 89.7147 289.158 89.0237 289.158 88.2315C289.158 87.4493 289.304 86.7599 289.596 86.1634C289.891 85.5668 290.302 85.1011 290.829 84.7663C291.359 84.4316 291.979 84.2642 292.688 84.2642C293.119 84.2642 293.537 84.3355 293.941 84.478C294.345 84.6205 294.708 84.8442 295.03 85.1491C295.351 85.4541 295.605 85.8501 295.79 86.3374C295.976 86.8213 296.069 87.4096 296.069 88.1023V88.6293H289.998V87.5156H294.612C294.612 87.1245 294.532 86.7782 294.373 86.4766C294.214 86.1716 293.991 85.9313 293.702 85.7557C293.417 85.58 293.082 85.4922 292.698 85.4922C292.28 85.4922 291.916 85.5949 291.604 85.8004C291.296 86.0026 291.057 86.2678 290.888 86.5959C290.723 86.9207 290.64 87.2737 290.64 87.6548V88.5249C290.64 89.0353 290.729 89.4695 290.908 89.8274C291.09 90.1854 291.344 90.4588 291.669 90.6477C291.994 90.8333 292.373 90.9261 292.807 90.9261C293.089 90.9261 293.346 90.8864 293.578 90.8068C293.81 90.724 294.01 90.6013 294.18 90.4389C294.349 90.2765 294.478 90.076 294.567 89.8374L295.974 90.0909C295.862 90.5052 295.659 90.8681 295.368 91.1797C295.079 91.4879 294.716 91.7282 294.279 91.9006C293.845 92.0696 293.349 92.1541 292.792 92.1541ZM297.718 92V84.3636H299.155V85.5767H299.234C299.374 85.1657 299.619 84.8426 299.97 84.6072C300.325 84.3686 300.726 84.2493 301.173 84.2493C301.266 84.2493 301.375 84.2526 301.501 84.2592C301.631 84.2659 301.732 84.2741 301.805 84.2841V85.706C301.745 85.6894 301.639 85.6712 301.487 85.6513C301.334 85.6281 301.182 85.6165 301.029 85.6165C300.678 85.6165 300.365 85.6911 300.089 85.8402C299.818 85.986 299.602 86.1899 299.443 86.4517C299.284 86.7102 299.205 87.0052 299.205 87.3366V92H297.718Z" fill="#4A4340"/>
<rect x="132" y="127" width="140" height="34" rx="8" fill="#EDE5E0"/>
<path d="M153.575 142.129H152.024C151.964 141.798 151.853 141.506 151.691 141.254C151.529 141.002 151.33 140.789 151.094 140.613C150.859 140.437 150.596 140.305 150.304 140.215C150.016 140.126 149.709 140.081 149.384 140.081C148.798 140.081 148.272 140.228 147.808 140.523C147.348 140.818 146.983 141.251 146.714 141.821C146.449 142.391 146.317 143.087 146.317 143.909C146.317 144.738 146.449 145.437 146.714 146.007C146.983 146.577 147.349 147.008 147.813 147.3C148.277 147.591 148.799 147.737 149.379 147.737C149.701 147.737 150.006 147.694 150.294 147.608C150.586 147.518 150.849 147.388 151.085 147.215C151.32 147.043 151.519 146.832 151.681 146.584C151.847 146.332 151.961 146.044 152.024 145.719L153.575 145.724C153.492 146.224 153.332 146.685 153.093 147.106C152.858 147.523 152.554 147.885 152.183 148.19C151.815 148.491 151.394 148.725 150.92 148.891C150.446 149.056 149.929 149.139 149.369 149.139C148.488 149.139 147.702 148.93 147.013 148.513C146.323 148.092 145.78 147.49 145.382 146.708C144.988 145.926 144.79 144.993 144.79 143.909C144.79 142.822 144.989 141.889 145.387 141.11C145.785 140.328 146.328 139.728 147.018 139.31C147.707 138.889 148.491 138.679 149.369 138.679C149.91 138.679 150.413 138.757 150.881 138.913C151.351 139.065 151.774 139.29 152.148 139.589C152.523 139.884 152.833 140.245 153.078 140.673C153.323 141.097 153.489 141.582 153.575 142.129ZM158.511 149.154C157.795 149.154 157.17 148.99 156.637 148.662C156.103 148.334 155.689 147.875 155.394 147.285C155.099 146.695 154.951 146.005 154.951 145.217C154.951 144.424 155.099 143.732 155.394 143.138C155.689 142.545 156.103 142.085 156.637 141.756C157.17 141.428 157.795 141.264 158.511 141.264C159.227 141.264 159.852 141.428 160.385 141.756C160.919 142.085 161.333 142.545 161.628 143.138C161.923 143.732 162.07 144.424 162.07 145.217C162.07 146.005 161.923 146.695 161.628 147.285C161.333 147.875 160.919 148.334 160.385 148.662C159.852 148.99 159.227 149.154 158.511 149.154ZM158.516 147.906C158.98 147.906 159.364 147.784 159.669 147.538C159.974 147.293 160.2 146.967 160.345 146.559C160.494 146.151 160.569 145.702 160.569 145.212C160.569 144.724 160.494 144.277 160.345 143.869C160.2 143.458 159.974 143.129 159.669 142.88C159.364 142.631 158.98 142.507 158.516 142.507C158.048 142.507 157.661 142.631 157.352 142.88C157.048 143.129 156.82 143.458 156.671 143.869C156.526 144.277 156.453 144.724 156.453 145.212C156.453 145.702 156.526 146.151 156.671 146.559C156.82 146.967 157.048 147.293 157.352 147.538C157.661 147.784 158.048 147.906 158.516 147.906ZM165.216 144.466V149H163.73V141.364H165.157V142.607H165.251C165.427 142.202 165.702 141.877 166.076 141.632C166.454 141.387 166.93 141.264 167.503 141.264C168.024 141.264 168.479 141.374 168.87 141.592C169.261 141.808 169.565 142.129 169.78 142.557C169.996 142.984 170.103 143.513 170.103 144.143V149H168.617V144.322C168.617 143.768 168.473 143.336 168.184 143.024C167.896 142.709 167.5 142.552 166.996 142.552C166.651 142.552 166.345 142.626 166.076 142.776C165.811 142.925 165.601 143.143 165.445 143.432C165.292 143.717 165.216 144.062 165.216 144.466ZM175.662 141.364V142.557H171.49V141.364H175.662ZM172.609 139.534H174.096V146.758C174.096 147.046 174.139 147.263 174.225 147.409C174.311 147.552 174.422 147.649 174.558 147.702C174.697 147.752 174.848 147.777 175.01 147.777C175.13 147.777 175.234 147.769 175.324 147.752C175.413 147.736 175.483 147.722 175.532 147.712L175.801 148.94C175.715 148.973 175.592 149.007 175.433 149.04C175.274 149.076 175.075 149.096 174.836 149.099C174.445 149.106 174.081 149.036 173.743 148.891C173.404 148.745 173.131 148.519 172.922 148.214C172.713 147.91 172.609 147.527 172.609 147.066V139.534ZM177.306 149V141.364H178.743V142.577H178.822C178.961 142.166 179.207 141.843 179.558 141.607C179.913 141.369 180.314 141.249 180.761 141.249C180.854 141.249 180.963 141.253 181.089 141.259C181.219 141.266 181.32 141.274 181.393 141.284V142.706C181.333 142.689 181.227 142.671 181.074 142.651C180.922 142.628 180.769 142.616 180.617 142.616C180.266 142.616 179.952 142.691 179.677 142.84C179.406 142.986 179.19 143.19 179.031 143.452C178.872 143.71 178.792 144.005 178.792 144.337V149H177.306ZM185.622 149.154C184.906 149.154 184.281 148.99 183.748 148.662C183.214 148.334 182.8 147.875 182.505 147.285C182.21 146.695 182.062 146.005 182.062 145.217C182.062 144.424 182.21 143.732 182.505 143.138C182.8 142.545 183.214 142.085 183.748 141.756C184.281 141.428 184.906 141.264 185.622 141.264C186.338 141.264 186.963 141.428 187.496 141.756C188.03 142.085 188.444 142.545 188.739 143.138C189.034 143.732 189.182 144.424 189.182 145.217C189.182 146.005 189.034 146.695 188.739 147.285C188.444 147.875 188.03 148.334 187.496 148.662C186.963 148.99 186.338 149.154 185.622 149.154ZM185.627 147.906C186.091 147.906 186.476 147.784 186.781 147.538C187.085 147.293 187.311 146.967 187.457 146.559C187.606 146.151 187.68 145.702 187.68 145.212C187.68 144.724 187.606 144.277 187.457 143.869C187.311 143.458 187.085 143.129 186.781 142.88C186.476 142.631 186.091 142.507 185.627 142.507C185.16 142.507 184.772 142.631 184.464 142.88C184.159 143.129 183.932 143.458 183.783 143.869C183.637 144.277 183.564 144.724 183.564 145.212C183.564 145.702 183.637 146.151 183.783 146.559C183.932 146.967 184.159 147.293 184.464 147.538C184.772 147.784 185.16 147.906 185.627 147.906ZM192.328 138.818V149H190.841V138.818H192.328ZM199.688 138.818V149H198.152V138.818H199.688ZM203.292 144.466V149H201.806V141.364H203.233V142.607H203.327C203.503 142.202 203.778 141.877 204.153 141.632C204.53 141.387 205.006 141.264 205.579 141.264C206.1 141.264 206.555 141.374 206.947 141.592C207.338 141.808 207.641 142.129 207.856 142.557C208.072 142.984 208.18 143.513 208.18 144.143V149H206.693V144.322C206.693 143.768 206.549 143.336 206.26 143.024C205.972 142.709 205.576 142.552 205.072 142.552C204.728 142.552 204.421 142.626 204.153 142.776C203.887 142.925 203.677 143.143 203.521 143.432C203.369 143.717 203.292 144.062 203.292 144.466ZM213.738 141.364V142.557H209.567V141.364H213.738ZM210.685 139.534H212.172V146.758C212.172 147.046 212.215 147.263 212.301 147.409C212.387 147.552 212.498 147.649 212.634 147.702C212.773 147.752 212.924 147.777 213.086 147.777C213.206 147.777 213.31 147.769 213.4 147.752C213.489 147.736 213.559 147.722 213.608 147.712L213.877 148.94C213.791 148.973 213.668 149.007 213.509 149.04C213.35 149.076 213.151 149.096 212.912 149.099C212.521 149.106 212.157 149.036 211.819 148.891C211.481 148.745 211.207 148.519 210.998 148.214C210.79 147.91 210.685 147.527 210.685 147.066V139.534ZM218.591 149.154C217.839 149.154 217.191 148.993 216.647 148.672C216.107 148.347 215.69 147.891 215.395 147.305C215.103 146.715 214.957 146.024 214.957 145.232C214.957 144.449 215.103 143.76 215.395 143.163C215.69 142.567 216.1 142.101 216.627 141.766C217.158 141.432 217.778 141.264 218.487 141.264C218.918 141.264 219.335 141.335 219.74 141.478C220.144 141.621 220.507 141.844 220.828 142.149C221.15 142.454 221.404 142.85 221.589 143.337C221.775 143.821 221.868 144.41 221.868 145.102V145.629H215.797V144.516H220.411C220.411 144.125 220.331 143.778 220.172 143.477C220.013 143.172 219.789 142.931 219.501 142.756C219.216 142.58 218.881 142.492 218.497 142.492C218.079 142.492 217.715 142.595 217.403 142.8C217.095 143.003 216.856 143.268 216.687 143.596C216.521 143.921 216.439 144.274 216.439 144.655V145.525C216.439 146.035 216.528 146.469 216.707 146.827C216.889 147.185 217.143 147.459 217.468 147.648C217.792 147.833 218.172 147.926 218.606 147.926C218.888 147.926 219.145 147.886 219.377 147.807C219.609 147.724 219.809 147.601 219.978 147.439C220.147 147.277 220.277 147.076 220.366 146.837L221.773 147.091C221.66 147.505 221.458 147.868 221.167 148.18C220.878 148.488 220.515 148.728 220.078 148.901C219.644 149.07 219.148 149.154 218.591 149.154ZM223.517 149V141.364H224.954V142.577H225.033C225.172 142.166 225.418 141.843 225.769 141.607C226.124 141.369 226.525 141.249 226.972 141.249C227.065 141.249 227.174 141.253 227.3 141.259C227.43 141.266 227.531 141.274 227.604 141.284V142.706C227.544 142.689 227.438 142.671 227.285 142.651C227.133 142.628 226.98 142.616 226.828 142.616C226.477 142.616 226.163 142.691 225.888 142.84C225.617 142.986 225.401 143.19 225.242 143.452C225.083 143.71 225.003 144.005 225.003 144.337V149H223.517ZM232.975 141.364V142.557H228.66V141.364H232.975ZM229.843 149V140.479C229.843 140.001 229.948 139.605 230.156 139.29C230.365 138.972 230.642 138.735 230.987 138.58C231.331 138.42 231.706 138.341 232.11 138.341C232.409 138.341 232.664 138.366 232.876 138.415C233.088 138.462 233.245 138.505 233.348 138.545L233 139.748C232.931 139.728 232.841 139.705 232.732 139.678C232.622 139.648 232.49 139.634 232.334 139.634C231.973 139.634 231.714 139.723 231.558 139.902C231.406 140.081 231.33 140.339 231.33 140.678V149H229.843ZM236.499 149.169C236.015 149.169 235.578 149.08 235.186 148.901C234.795 148.718 234.485 148.455 234.257 148.11C234.031 147.765 233.919 147.343 233.919 146.842C233.919 146.411 234.002 146.057 234.167 145.778C234.333 145.5 234.557 145.28 234.838 145.117C235.12 144.955 235.435 144.832 235.783 144.749C236.131 144.666 236.486 144.603 236.847 144.56C237.304 144.507 237.676 144.464 237.961 144.431C238.246 144.395 238.453 144.337 238.582 144.257C238.711 144.178 238.776 144.048 238.776 143.869V143.835C238.776 143.4 238.653 143.064 238.408 142.825C238.166 142.587 237.805 142.467 237.324 142.467C236.824 142.467 236.429 142.578 236.141 142.8C235.856 143.019 235.659 143.263 235.549 143.531L234.152 143.213C234.318 142.749 234.56 142.375 234.878 142.089C235.2 141.801 235.569 141.592 235.987 141.463C236.404 141.33 236.844 141.264 237.304 141.264C237.609 141.264 237.932 141.301 238.274 141.374C238.618 141.443 238.94 141.572 239.238 141.761C239.54 141.95 239.787 142.22 239.979 142.572C240.171 142.92 240.267 143.372 240.267 143.929V149H238.816V147.956H238.756C238.66 148.148 238.516 148.337 238.324 148.523C238.131 148.708 237.884 148.862 237.583 148.985C237.281 149.108 236.92 149.169 236.499 149.169ZM236.822 147.976C237.233 147.976 237.584 147.895 237.876 147.732C238.171 147.57 238.395 147.358 238.547 147.096C238.703 146.831 238.781 146.547 238.781 146.246V145.261C238.728 145.314 238.625 145.364 238.473 145.411C238.324 145.454 238.153 145.492 237.961 145.525C237.768 145.555 237.581 145.583 237.399 145.609C237.217 145.633 237.064 145.652 236.941 145.669C236.653 145.705 236.39 145.767 236.151 145.853C235.916 145.939 235.727 146.063 235.584 146.226C235.445 146.385 235.375 146.597 235.375 146.862C235.375 147.23 235.511 147.509 235.783 147.697C236.055 147.883 236.401 147.976 236.822 147.976ZM245.464 149.154C244.725 149.154 244.088 148.987 243.555 148.652C243.025 148.314 242.617 147.848 242.332 147.255C242.047 146.662 241.904 145.982 241.904 145.217C241.904 144.441 242.05 143.757 242.342 143.163C242.633 142.567 243.044 142.101 243.575 141.766C244.105 141.432 244.73 141.264 245.449 141.264C246.029 141.264 246.546 141.372 247 141.587C247.454 141.799 247.82 142.098 248.099 142.482C248.381 142.867 248.548 143.316 248.601 143.83H247.154C247.075 143.472 246.892 143.163 246.607 142.905C246.326 142.646 245.948 142.517 245.474 142.517C245.06 142.517 244.697 142.626 244.385 142.845C244.077 143.061 243.837 143.369 243.664 143.77C243.492 144.168 243.406 144.638 243.406 145.182C243.406 145.739 243.49 146.219 243.659 146.624C243.828 147.028 244.067 147.341 244.375 147.563C244.687 147.785 245.053 147.896 245.474 147.896C245.756 147.896 246.011 147.845 246.24 147.742C246.472 147.636 246.665 147.485 246.821 147.29C246.98 147.094 247.091 146.859 247.154 146.584H248.601C248.548 147.078 248.387 147.518 248.119 147.906C247.85 148.294 247.491 148.599 247.04 148.821C246.593 149.043 246.067 149.154 245.464 149.154ZM253.482 149.154C252.73 149.154 252.082 148.993 251.538 148.672C250.998 148.347 250.58 147.891 250.285 147.305C249.993 146.715 249.848 146.024 249.848 145.232C249.848 144.449 249.993 143.76 250.285 143.163C250.58 142.567 250.991 142.101 251.518 141.766C252.048 141.432 252.668 141.264 253.377 141.264C253.808 141.264 254.226 141.335 254.63 141.478C255.035 141.621 255.398 141.844 255.719 142.149C256.041 142.454 256.294 142.85 256.48 143.337C256.665 143.821 256.758 144.41 256.758 145.102V145.629H250.688V144.516H255.301C255.301 144.125 255.222 143.778 255.063 143.477C254.904 143.172 254.68 142.931 254.392 142.756C254.107 142.58 253.772 142.492 253.387 142.492C252.97 142.492 252.605 142.595 252.294 142.8C251.985 143.003 251.747 143.268 251.578 143.596C251.412 143.921 251.329 144.274 251.329 144.655V145.525C251.329 146.035 251.419 146.469 251.598 146.827C251.78 147.185 252.033 147.459 252.358 147.648C252.683 147.833 253.063 147.926 253.497 147.926C253.779 147.926 254.035 147.886 254.267 147.807C254.499 147.724 254.7 147.601 254.869 147.439C255.038 147.277 255.167 147.076 255.257 146.837L256.664 147.091C256.551 147.505 256.349 147.868 256.057 148.18C255.769 148.488 255.406 148.728 254.968 148.901C254.534 149.07 254.039 149.154 253.482 149.154Z" fill="#4A4340"/>
<rect x="290" y="127" width="140" height="34" rx="8" fill="#EDE5E0"/>
<path d="M315.119 138.818H316.983L320.224 146.733H320.344L323.585 138.818H325.45V149H323.988V141.632H323.893L320.891 148.985H319.678L316.675 141.627H316.58V149H315.119V138.818ZM330.855 149.154C330.103 149.154 329.455 148.993 328.911 148.672C328.371 148.347 327.953 147.891 327.658 147.305C327.367 146.715 327.221 146.024 327.221 145.232C327.221 144.449 327.367 143.76 327.658 143.163C327.953 142.567 328.364 142.101 328.891 141.766C329.421 141.432 330.041 141.264 330.751 141.264C331.181 141.264 331.599 141.335 332.003 141.478C332.408 141.621 332.771 141.844 333.092 142.149C333.414 142.454 333.667 142.85 333.853 143.337C334.038 143.821 334.131 144.41 334.131 145.102V145.629H328.061V144.516H332.675C332.675 144.125 332.595 143.778 332.436 143.477C332.277 143.172 332.053 142.931 331.765 142.756C331.48 142.58 331.145 142.492 330.76 142.492C330.343 142.492 329.978 142.595 329.667 142.8C329.358 143.003 329.12 143.268 328.951 143.596C328.785 143.921 328.702 144.274 328.702 144.655V145.525C328.702 146.035 328.792 146.469 328.971 146.827C329.153 147.185 329.407 147.459 329.731 147.648C330.056 147.833 330.436 147.926 330.87 147.926C331.152 147.926 331.408 147.886 331.64 147.807C331.872 147.724 332.073 147.601 332.242 147.439C332.411 147.277 332.54 147.076 332.63 146.837L334.037 147.091C333.924 147.505 333.722 147.868 333.43 148.18C333.142 148.488 332.779 148.728 332.341 148.901C331.907 149.07 331.412 149.154 330.855 149.154ZM338.639 149.149C338.023 149.149 337.473 148.992 336.989 148.677C336.508 148.359 336.13 147.906 335.855 147.32C335.583 146.73 335.447 146.022 335.447 145.197C335.447 144.371 335.585 143.665 335.86 143.079C336.138 142.492 336.52 142.043 337.004 141.732C337.487 141.42 338.036 141.264 338.649 141.264C339.123 141.264 339.504 141.344 339.793 141.503C340.084 141.659 340.31 141.841 340.469 142.05C340.631 142.259 340.757 142.442 340.847 142.602H340.936V138.818H342.423V149H340.971V147.812H340.847C340.757 147.974 340.628 148.16 340.459 148.369C340.293 148.577 340.064 148.76 339.773 148.915C339.481 149.071 339.103 149.149 338.639 149.149ZM338.967 147.881C339.395 147.881 339.756 147.769 340.051 147.543C340.349 147.315 340.575 146.998 340.727 146.594C340.883 146.189 340.961 145.719 340.961 145.182C340.961 144.652 340.885 144.187 340.732 143.79C340.58 143.392 340.356 143.082 340.061 142.86C339.766 142.638 339.402 142.527 338.967 142.527C338.52 142.527 338.147 142.643 337.849 142.875C337.55 143.107 337.325 143.424 337.173 143.825C337.023 144.226 336.949 144.678 336.949 145.182C336.949 145.692 337.025 146.151 337.178 146.559C337.33 146.967 337.555 147.29 337.854 147.528C338.155 147.764 338.527 147.881 338.967 147.881ZM344.544 149V141.364H346.031V149H344.544ZM345.295 140.185C345.036 140.185 344.814 140.099 344.629 139.927C344.446 139.751 344.355 139.542 344.355 139.3C344.355 139.055 344.446 138.846 344.629 138.674C344.814 138.498 345.036 138.411 345.295 138.411C345.553 138.411 345.774 138.498 345.956 138.674C346.142 138.846 346.235 139.055 346.235 139.3C346.235 139.542 346.142 139.751 345.956 139.927C345.774 140.099 345.553 140.185 345.295 140.185ZM350.253 149.169C349.769 149.169 349.331 149.08 348.94 148.901C348.549 148.718 348.239 148.455 348.011 148.11C347.785 147.765 347.673 147.343 347.673 146.842C347.673 146.411 347.755 146.057 347.921 145.778C348.087 145.5 348.311 145.28 348.592 145.117C348.874 144.955 349.189 144.832 349.537 144.749C349.885 144.666 350.24 144.603 350.601 144.56C351.058 144.507 351.429 144.464 351.714 144.431C352 144.395 352.207 144.337 352.336 144.257C352.465 144.178 352.53 144.048 352.53 143.869V143.835C352.53 143.4 352.407 143.064 352.162 142.825C351.92 142.587 351.559 142.467 351.078 142.467C350.578 142.467 350.183 142.578 349.895 142.8C349.61 143.019 349.413 143.263 349.303 143.531L347.906 143.213C348.072 142.749 348.314 142.375 348.632 142.089C348.954 141.801 349.323 141.592 349.741 141.463C350.158 141.33 350.598 141.264 351.058 141.264C351.363 141.264 351.686 141.301 352.028 141.374C352.372 141.443 352.694 141.572 352.992 141.761C353.294 141.95 353.541 142.22 353.733 142.572C353.925 142.92 354.021 143.372 354.021 143.929V149H352.57V147.956H352.51C352.414 148.148 352.27 148.337 352.077 148.523C351.885 148.708 351.638 148.862 351.337 148.985C351.035 149.108 350.674 149.169 350.253 149.169ZM350.576 147.976C350.987 147.976 351.338 147.895 351.63 147.732C351.925 147.57 352.149 147.358 352.301 147.096C352.457 146.831 352.535 146.547 352.535 146.246V145.261C352.482 145.314 352.379 145.364 352.227 145.411C352.077 145.454 351.907 145.492 351.714 145.525C351.522 145.555 351.335 145.583 351.153 145.609C350.97 145.633 350.818 145.652 350.695 145.669C350.407 145.705 350.143 145.767 349.905 145.853C349.67 145.939 349.481 146.063 349.338 146.226C349.199 146.385 349.129 146.597 349.129 146.862C349.129 147.23 349.265 147.509 349.537 147.697C349.809 147.883 350.155 147.976 350.576 147.976ZM359.826 149V138.818H366.209V140.141H361.362V143.243H365.876V144.56H361.362V147.678H366.269V149H359.826ZM369.628 144.466V149H368.142V141.364H369.569V142.607H369.663C369.839 142.202 370.114 141.877 370.488 141.632C370.866 141.387 371.342 141.264 371.915 141.264C372.436 141.264 372.891 141.374 373.282 141.592C373.674 141.808 373.977 142.129 374.192 142.557C374.408 142.984 374.515 143.513 374.515 144.143V149H373.029V144.322C373.029 143.768 372.885 143.336 372.596 143.024C372.308 142.709 371.912 142.552 371.408 142.552C371.064 142.552 370.757 142.626 370.488 142.776C370.223 142.925 370.013 143.143 369.857 143.432C369.705 143.717 369.628 144.062 369.628 144.466ZM379.711 152.023C379.104 152.023 378.582 151.943 378.145 151.784C377.711 151.625 377.356 151.415 377.081 151.153C376.806 150.891 376.6 150.604 376.464 150.293L377.742 149.766C377.831 149.911 377.951 150.066 378.1 150.228C378.252 150.394 378.458 150.535 378.716 150.651C378.978 150.767 379.315 150.825 379.726 150.825C380.289 150.825 380.755 150.687 381.123 150.412C381.491 150.14 381.675 149.706 381.675 149.109V147.608H381.58C381.491 147.77 381.361 147.951 381.192 148.15C381.027 148.349 380.798 148.521 380.506 148.667C380.215 148.813 379.835 148.886 379.368 148.886C378.765 148.886 378.221 148.745 377.737 148.463C377.256 148.178 376.875 147.759 376.594 147.205C376.315 146.648 376.176 145.964 376.176 145.152C376.176 144.34 376.314 143.644 376.589 143.064C376.867 142.484 377.248 142.04 377.732 141.732C378.216 141.42 378.765 141.264 379.378 141.264C379.852 141.264 380.234 141.344 380.526 141.503C380.818 141.659 381.045 141.841 381.207 142.05C381.373 142.259 381.501 142.442 381.59 142.602H381.699V141.364H383.156V149.169C383.156 149.825 383.004 150.364 382.699 150.785C382.394 151.206 381.981 151.517 381.461 151.719C380.944 151.922 380.36 152.023 379.711 152.023ZM379.696 147.653C380.123 147.653 380.485 147.553 380.78 147.354C381.078 147.152 381.303 146.864 381.456 146.489C381.612 146.112 381.689 145.659 381.689 145.132C381.689 144.618 381.613 144.166 381.461 143.775C381.308 143.384 381.085 143.079 380.79 142.86C380.495 142.638 380.13 142.527 379.696 142.527C379.248 142.527 378.876 142.643 378.577 142.875C378.279 143.104 378.054 143.415 377.901 143.81C377.752 144.204 377.677 144.645 377.677 145.132C377.677 145.633 377.754 146.072 377.906 146.45C378.059 146.827 378.284 147.122 378.582 147.335C378.884 147.547 379.255 147.653 379.696 147.653ZM385.15 149V141.364H386.636V149H385.15ZM385.9 140.185C385.642 140.185 385.42 140.099 385.234 139.927C385.052 139.751 384.961 139.542 384.961 139.3C384.961 139.055 385.052 138.846 385.234 138.674C385.42 138.498 385.642 138.411 385.9 138.411C386.159 138.411 386.379 138.498 386.562 138.674C386.747 138.846 386.84 139.055 386.84 139.3C386.84 139.542 386.747 139.751 386.562 139.927C386.379 140.099 386.159 140.185 385.9 140.185ZM390.123 144.466V149H388.636V141.364H390.063V142.607H390.157C390.333 142.202 390.608 141.877 390.983 141.632C391.36 141.387 391.836 141.264 392.409 141.264C392.93 141.264 393.386 141.374 393.777 141.592C394.168 141.808 394.471 142.129 394.686 142.557C394.902 142.984 395.01 143.513 395.01 144.143V149H393.523V144.322C393.523 143.768 393.379 143.336 393.091 143.024C392.802 142.709 392.406 142.552 391.902 142.552C391.558 142.552 391.251 142.626 390.983 142.776C390.717 142.925 390.507 143.143 390.351 143.432C390.199 143.717 390.123 144.062 390.123 144.466ZM400.294 149.154C399.542 149.154 398.894 148.993 398.35 148.672C397.81 148.347 397.393 147.891 397.098 147.305C396.806 146.715 396.66 146.024 396.66 145.232C396.66 144.449 396.806 143.76 397.098 143.163C397.393 142.567 397.804 142.101 398.331 141.766C398.861 141.432 399.481 141.264 400.19 141.264C400.621 141.264 401.038 141.335 401.443 141.478C401.847 141.621 402.21 141.844 402.532 142.149C402.853 142.454 403.107 142.85 403.292 143.337C403.478 143.821 403.571 144.41 403.571 145.102V145.629H397.5V144.516H402.114C402.114 144.125 402.034 143.778 401.875 143.477C401.716 143.172 401.493 142.931 401.204 142.756C400.919 142.58 400.584 142.492 400.2 142.492C399.782 142.492 399.418 142.595 399.106 142.8C398.798 143.003 398.559 143.268 398.39 143.596C398.225 143.921 398.142 144.274 398.142 144.655V145.525C398.142 146.035 398.231 146.469 398.41 146.827C398.592 147.185 398.846 147.459 399.171 147.648C399.496 147.833 399.875 147.926 400.309 147.926C400.591 147.926 400.848 147.886 401.08 147.807C401.312 147.724 401.512 147.601 401.681 147.439C401.85 147.277 401.98 147.076 402.069 146.837L403.476 147.091C403.364 147.505 403.161 147.868 402.87 148.18C402.581 148.488 402.218 148.728 401.781 148.901C401.347 149.07 400.851 149.154 400.294 149.154Z" fill="#4A4340"/>
<path d="M278.47 107.831C278.377 107.571 278.09 107.436 277.831 107.53L273.597 109.054C273.337 109.147 273.202 109.434 273.296 109.694C273.389 109.953 273.676 110.088 273.935 109.995L277.699 108.64L279.054 112.403C279.147 112.663 279.434 112.798 279.694 112.704C279.953 112.611 280.088 112.324 279.995 112.065L278.47 107.831ZM269.53 125.169C269.623 125.429 269.91 125.564 270.169 125.47L274.403 123.946C274.663 123.853 274.798 123.566 274.704 123.306C274.611 123.047 274.324 122.912 274.065 123.005L270.301 124.36L268.946 120.597C268.853 120.337 268.566 120.202 268.306 120.296C268.047 120.389 267.912 120.676 268.005 120.935L269.53 125.169ZM277.548 107.787L269.548 124.787L270.452 125.213L278.452 108.213L277.548 107.787Z" fill="#9CA3AF"/>
<path d="M285.53 107.831C285.623 107.571 285.91 107.436 286.169 107.53L290.403 109.054C290.663 109.147 290.798 109.434 290.704 109.694C290.611 109.953 290.324 110.088 290.065 109.995L286.301 108.64L284.946 112.403C284.853 112.663 284.566 112.798 284.306 112.704C284.047 112.611 283.912 112.324 284.005 112.065L285.53 107.831ZM294.47 125.169C294.377 125.429 294.09 125.564 293.831 125.47L289.597 123.946C289.337 123.853 289.202 123.566 289.296 123.306C289.389 123.047 289.676 122.912 289.935 123.005L293.699 124.36L295.054 120.597C295.147 120.337 295.434 120.202 295.694 120.296C295.953 120.389 296.088 120.676 295.995 120.935L294.47 125.169ZM286.452 107.787L294.452 124.787L293.548 125.213L285.548 108.213L286.452 107.787Z" fill="#9CA3AF"/>
<defs>
<filter id="filter0_dd_2511_11271" x="0" y="0" width="562" height="56" filterUnits="userSpaceOnUse" color-interpolation-filters="sRGB">
<feFlood flood-opacity="0" result="BackgroundImageFix"/>
<feColorMatrix in="SourceAlpha" type="matrix" values="0 0 0 0 0 0 0 0 0 0 0 0 0 0 0 0 0 0 127 0" result="hardAlpha"/>
<feOffset dy="4"/>
<feGaussianBlur stdDeviation="3"/>
<feComposite in2="hardAlpha" operator="out"/>
<feColorMatrix type="matrix" values="0 0 0 0 0.372549 0 0 0 0 0.290196 0 0 0 0 0.180392 0 0 0 0.04 0"/>
<feBlend mode="normal" in2="BackgroundImageFix" result="effect1_dropShadow_2511_11271"/>
<feColorMatrix in="SourceAlpha" type="matrix" values="0 0 0 0 0 0 0 0 0 0 0 0 0 0 0 0 0 0 127 0" result="hardAlpha"/>
<feOffset dy="1"/>
<feGaussianBlur stdDeviation="1"/>
<feComposite in2="hardAlpha" operator="out"/>
<feColorMatrix type="matrix" values="0 0 0 0 0.372549 0 0 0 0 0.290196 0 0 0 0 0.180392 0 0 0 0.08 0"/>
<feBlend mode="normal" in2="effect1_dropShadow_2511_11271" result="effect2_dropShadow_2511_11271"/>
<feBlend mode="normal" in="SourceGraphic" in2="effect2_dropShadow_2511_11271" result="shape"/>
</filter>
</defs>
</svg>
