<svg width="48" height="48" viewBox="0 0 48 48" fill="none" xmlns="http://www.w3.org/2000/svg">
<g id="all_inclusive">
<mask id="mask0_2777_13715" style="mask-type:alpha" maskUnits="userSpaceOnUse" x="0" y="0" width="48" height="48">
<rect id="Bounding box" width="48" height="48" fill="#D9D9D9"/>
</mask>
<g mask="url(#mask0_2777_13715)">
<path id="all_inclusive_2" d="M16.8403 15.8722L16.8405 15.8723L21.5482 20.239L19.9842 21.7654L15.4556 17.5088L15.4554 17.5086C14.8017 16.909 14.0686 16.4649 13.2564 16.1764C12.4446 15.8881 11.5971 15.744 10.714 15.744C8.47459 15.744 6.58572 16.5452 5.04896 18.1472C3.51243 19.7489 2.744 21.6745 2.744 23.9225C2.744 26.2034 3.50731 28.1628 5.03372 29.7996C6.56016 31.437 8.45414 32.256 10.714 32.256C11.5768 32.256 12.4142 32.1118 13.2259 31.8236C14.0379 31.5352 14.7809 31.1016 15.4548 30.523L15.4548 30.523L15.4556 30.5223L31.1596 15.8723L31.1598 15.872C31.9853 15.0794 32.9289 14.4903 33.9905 14.1045L33.982 14.081L33.9905 14.1045C35.0528 13.7181 36.1406 13.525 37.254 13.525C40.1207 13.525 42.5402 14.5403 44.5141 16.5714C46.4881 18.6027 47.475 21.0509 47.475 23.9175C47.475 26.8175 46.4881 29.3016 44.5139 31.3712C42.54 33.4406 40.1205 34.475 37.254 34.475C36.1416 34.475 35.0554 34.2807 33.9951 33.892C32.9355 33.5032 31.9904 32.9317 31.1595 32.1777C31.1594 32.1776 31.1594 32.1776 31.1593 32.1775L26.5513 27.7921L28.0964 26.2465L32.563 30.5219C32.5631 30.5219 32.5631 30.522 32.5631 30.522C33.1712 31.117 33.8899 31.5547 34.719 31.8352C35.5472 32.1157 36.3927 32.256 37.2555 32.256C39.5154 32.256 41.4145 31.436 42.9512 29.7966C44.4877 28.1579 45.256 26.1972 45.256 23.916C45.256 21.6682 44.4792 19.7438 42.9259 18.1441C41.3726 16.5442 39.4819 15.744 37.2555 15.744C36.3924 15.744 35.5549 15.8986 34.7431 16.2076C33.9312 16.5164 33.2047 16.9602 32.5637 17.5389L32.5634 17.5392L16.8404 32.2087L16.8404 32.2087C16.015 32.9807 15.0664 33.5512 13.9944 33.9204C12.9216 34.2901 11.8287 34.475 10.7155 34.475C7.84898 34.475 5.43455 33.4411 3.47063 31.3728C1.50679 29.3045 0.525 26.821 0.525 23.921C0.525 21.0544 1.51186 18.6057 3.48593 16.5734L3.48593 16.5734C5.45987 14.541 7.86922 13.525 10.7155 13.525C11.8446 13.525 12.9382 13.7182 13.9964 14.1045L14.005 14.081L13.9964 14.1045C15.0538 14.4903 16.0017 15.0794 16.8403 15.8722Z" fill="url(#paint0_linear_2777_13715)" stroke="url(#paint1_linear_2777_13715)" stroke-width="0.05"/>
</g>
</g>
<defs>
<linearGradient id="paint0_linear_2777_13715" x1="24" y1="13.5" x2="24" y2="34.5" gradientUnits="userSpaceOnUse">
<stop stop-color="#F26A1B"/>
<stop offset="1" stop-color="#F7B690"/>
</linearGradient>
<linearGradient id="paint1_linear_2777_13715" x1="24" y1="13.5" x2="24" y2="34.5" gradientUnits="userSpaceOnUse">
<stop stop-color="#F26A1B"/>
<stop offset="1" stop-color="#F7B690"/>
</linearGradient>
</defs>
</svg>
