<svg width="14" height="14" viewBox="0 0 14 14" fill="none" xmlns="http://www.w3.org/2000/svg">
<path d="M7.00001 8.0001L11 5.4001L7.00001 2.8001V8.0001ZM8.75001 11.4001H11.0667C11.0333 11.6668 10.9222 11.8973 10.7333 12.0918C10.5445 12.2862 10.3167 12.4001 10.05 12.4334L2.91668 13.4001C2.59446 13.4445 2.30001 13.364 2.03335 13.1584C1.76668 12.9529 1.61112 12.689 1.56668 12.3668L0.600012 5.21676C0.555567 4.88465 0.633345 4.58771 0.833345 4.32593C1.03335 4.06426 1.30001 3.91121 1.63335 3.86676L2.60001 3.7501V4.96676L1.80001 5.06676L2.75001 12.2001L8.75001 11.4001ZM5.00001 10.2001C4.63335 10.2001 4.34168 10.0918 4.12501 9.8751C3.90835 9.65843 3.80001 9.36676 3.80001 9.0001V1.8001C3.80001 1.43343 3.90835 1.14176 4.12501 0.925098C4.34168 0.708431 4.63335 0.600098 5.00001 0.600098H12.2C12.5667 0.600098 12.8583 0.708431 13.075 0.925098C13.2917 1.14176 13.4 1.43343 13.4 1.8001V9.0001C13.4 9.36676 13.2917 9.65843 13.075 9.8751C12.8583 10.0918 12.5667 10.2001 12.2 10.2001H5.00001ZM5.00001 9.0001H12.2V1.8001H5.00001V9.0001Z" fill="white"/>
</svg>
