<svg width="30" height="28" viewBox="0 0 30 28" fill="none" xmlns="http://www.w3.org/2000/svg">
<g id="asana-logo">
<path id="Vector" d="M23.4757 14.8087C19.872 14.8087 16.9511 17.7056 16.9511 21.2791C16.9511 24.8529 19.872 27.75 23.4757 27.75C27.0789 27.75 30 24.8529 30 21.2791C30 17.7056 27.0789 14.8087 23.4757 14.8087ZM6.52445 14.8092C2.9212 14.8092 0 17.7056 0 21.2795C0 24.8529 2.9212 27.75 6.52445 27.75C10.1279 27.75 13.0492 24.8529 13.0492 21.2795C13.0492 17.7056 10.1279 14.8092 6.52445 14.8092ZM21.5243 6.72042C21.5243 10.294 18.6034 13.1915 15.0002 13.1915C11.3966 13.1915 8.47561 10.294 8.47561 6.72042C8.47561 3.14706 11.3966 0.25 15.0002 0.25C18.6034 0.25 21.5243 3.14706 21.5243 6.72042Z" fill="url(#paint0_radial_2715_12017)"/>
</g>
<defs>
<radialGradient id="paint0_radial_2715_12017" cx="0" cy="0" r="1" gradientUnits="userSpaceOnUse" gradientTransform="translate(15 15.2794) scale(19.879 18.2224)">
<stop stop-color="#FFB900"/>
<stop offset="0.6" stop-color="#F95D8F"/>
<stop offset="0.9991" stop-color="#F95353"/>
</radialGradient>
</defs>
</svg>
