<svg width="48" height="48" viewBox="0 0 48 48" fill="none" xmlns="http://www.w3.org/2000/svg">
<g id="automation">
<mask id="mask0_2777_13708" style="mask-type:alpha" maskUnits="userSpaceOnUse" x="0" y="0" width="48" height="48">
<rect id="Bounding box" width="48" height="48" fill="#D9D9D9"/>
</mask>
<g mask="url(#mask0_2777_13708)">
<path id="automation_2" d="M9.92453 19.8091L9.93617 19.7896L9.91798 19.7761C9.04676 19.1298 8.3517 18.3119 7.83272 17.3221C7.31436 16.3332 7.05508 15.2545 7.05508 14.0857C7.05508 12.1334 7.74842 10.4639 9.13576 9.0759C10.5231 7.68828 12.2013 6.99473 14.1721 6.99473C16.1291 6.99473 17.8009 7.68824 19.1889 9.0759C20.5766 10.4639 21.2701 12.1357 21.2701 14.0927C21.2701 16.0497 20.5766 17.7214 19.1889 19.109C17.8009 20.497 16.1291 21.1907 14.1721 21.1907C13.7751 21.1907 13.3844 21.1593 13.0001 21.0966L13.0001 21.0965C12.6159 21.0341 12.2517 20.9403 11.9076 20.8152L11.8882 20.8082L11.8776 20.8259L7.71625 27.7797C7.71623 27.7797 7.71621 27.7798 7.71619 27.7798C7.22108 28.5894 7.06878 29.3895 7.2623 30.1787L7.28658 30.1727L7.2623 30.1787C7.4555 30.9652 7.84758 31.605 8.43859 32.0969L8.45458 32.0777L8.43859 32.0969C9.02979 32.5888 9.72548 32.8633 10.5248 32.9207C11.3271 32.9782 12.0959 32.7011 12.8305 32.0925L12.8308 32.0922L33.7498 14.2232L33.7499 14.2231C34.9513 13.1829 36.2157 12.7084 37.5439 12.7962C38.8752 12.8845 40.0304 13.3368 41.0105 14.1529C41.9736 14.9719 42.6216 16.0315 42.9544 17.3324C43.2864 18.6304 43.0439 19.9688 42.2236 21.349L38.1546 28.1604L38.1431 28.1796L38.161 28.1932C39.0323 28.8525 39.7241 29.6748 40.2364 30.6603L40.2586 30.6487L40.2364 30.6603C40.7485 31.6449 41.0046 32.7171 41.0046 33.8772C41.0046 35.8342 40.3053 37.5058 38.906 38.8935C37.5066 40.2815 35.825 40.9752 33.8596 40.9752C31.8839 40.9752 30.2155 40.2782 28.853 38.8838L28.8351 38.9012C27.4674 37.5022 26.7836 35.8244 26.7836 33.8677C26.7836 31.9114 27.4687 30.2367 28.8391 28.8437C30.2094 27.4507 31.8819 26.7542 33.8566 26.7542C34.2419 26.7542 34.6222 26.7804 34.9976 26.8327L34.9941 26.8575C34.9941 26.8575 34.9941 26.8575 34.9941 26.8575C35.3678 26.9099 35.7334 26.9987 36.0908 27.1238L36.11 27.1305L36.1205 27.1131L40.282 20.1901C40.777 19.3677 40.9324 18.5647 40.7449 17.7824L40.7206 17.7882L40.7449 17.7824C40.5577 17.0027 40.1689 16.366 39.5786 15.873C38.9885 15.3799 38.2931 15.1019 37.4935 15.0388C36.6907 14.9752 35.9216 15.2558 35.1869 15.8771L35.1868 15.8772L14.2674 33.7466C13.038 34.7867 11.7642 35.2501 10.4451 35.1408C9.12343 35.0309 7.97975 34.5661 7.01325 33.7467C6.04711 32.9269 5.40565 31.8757 5.08885 30.5922C4.77275 29.3116 5.02317 27.9882 5.84352 26.6206L5.82208 26.6077L5.84353 26.6206L9.92453 19.8091ZM33.8611 38.7557C35.2151 38.7557 36.3749 38.2761 37.3392 37.3175C38.3032 36.3588 38.7856 35.2058 38.7856 33.8597C38.7856 32.5133 38.3024 31.3659 37.3366 30.4189C36.3712 29.4719 35.2099 28.9982 33.8541 28.9982C32.4978 28.9982 31.3538 29.475 30.4237 30.4283C29.4934 31.3817 29.0281 32.5345 29.0281 33.8852C29.0281 35.2247 29.4924 36.3718 30.4207 37.3252C31.3492 38.2788 32.4965 38.7557 33.8611 38.7557ZM14.1801 18.9712C15.5201 18.9712 16.6675 18.4915 17.6208 17.5329C18.5741 16.5742 19.0511 15.4212 19.0511 14.0752C19.0511 12.7289 18.5714 11.5815 17.6127 10.6344C16.654 9.68749 15.5008 9.21373 14.1546 9.21373C12.8083 9.21373 11.6578 9.69053 10.7044 10.6435C9.75104 11.5966 9.27408 12.7494 9.27408 14.1007C9.27408 15.4404 9.75294 16.5876 10.7099 17.5409C11.6666 18.4943 12.8238 18.9712 14.1801 18.9712Z" fill="url(#paint0_linear_2777_13708)" stroke="url(#paint1_linear_2777_13708)" stroke-width="0.05"/>
</g>
</g>
<defs>
<linearGradient id="paint0_linear_2777_13708" x1="24.0274" y1="6.96973" x2="24.0274" y2="41.0002" gradientUnits="userSpaceOnUse">
<stop stop-color="#F26A1B"/>
<stop offset="1" stop-color="#F7B690"/>
</linearGradient>
<linearGradient id="paint1_linear_2777_13708" x1="24.0274" y1="6.96973" x2="24.0274" y2="41.0002" gradientUnits="userSpaceOnUse">
<stop stop-color="#F26A1B"/>
<stop offset="1" stop-color="#F7B690"/>
</linearGradient>
</defs>
</svg>
