<svg width="30" height="19" viewBox="0 0 30 19" fill="none" xmlns="http://www.w3.org/2000/svg">
<g id="logo" clip-path="url(#clip0_2715_12622)">
<g id="Group">
<path id="Vector" d="M8.52647 7.05248C8.52647 7.41761 8.56594 7.71366 8.63502 7.93077C8.71397 8.14787 8.81265 8.38471 8.95081 8.64129C9.00015 8.72024 9.01989 8.79919 9.01989 8.86827C9.01989 8.96695 8.96068 9.06564 8.83239 9.16432L8.21068 9.57879C8.12186 9.638 8.03305 9.66761 7.9541 9.66761C7.85542 9.66761 7.75673 9.61827 7.65805 9.52945C7.51989 9.38142 7.40147 9.22353 7.30279 9.06564C7.2041 8.89787 7.10542 8.71037 6.99686 8.4834C6.22713 9.39129 5.26002 9.84524 4.09555 9.84524C3.2666 9.84524 2.60542 9.6084 2.12186 9.13471C1.63831 8.66103 1.3916 8.02945 1.3916 7.23998C1.3916 6.40116 1.68765 5.72024 2.28963 5.20708C2.8916 4.69392 3.69094 4.43735 4.70739 4.43735C5.04292 4.43735 5.38831 4.46695 5.75344 4.51629C6.11857 4.56564 6.49358 4.64458 6.88831 4.7334V4.013C6.88831 3.263 6.73042 2.73998 6.4245 2.43406C6.10871 2.12814 5.57581 1.98011 4.81594 1.98011C4.47055 1.98011 4.11529 2.01958 3.75015 2.1084C3.38502 2.19721 3.02976 2.30577 2.68436 2.44392C2.52647 2.513 2.40805 2.55248 2.33897 2.57221C2.26989 2.59195 2.22055 2.60182 2.18108 2.60182C2.04292 2.60182 1.97384 2.50314 1.97384 2.2959V1.81235C1.97384 1.65445 1.99358 1.53603 2.04292 1.46695C2.09226 1.39787 2.18108 1.32879 2.31923 1.25971C2.66463 1.08208 3.0791 0.934056 3.56265 0.815635C4.04621 0.687346 4.55936 0.628135 5.10213 0.628135C6.27647 0.628135 7.13502 0.894583 7.68765 1.42748C8.23042 1.96037 8.50673 2.76958 8.50673 3.85511V7.05248H8.52647ZM4.51989 8.55248C4.84555 8.55248 5.18108 8.49327 5.53634 8.37485C5.8916 8.25642 6.20739 8.03932 6.47384 7.74327C6.63173 7.55577 6.75015 7.34853 6.80936 7.11169C6.86858 6.87485 6.90805 6.58866 6.90805 6.25314V5.83866C6.62186 5.76958 6.31594 5.71037 6.00015 5.6709C5.68436 5.63142 5.37844 5.61169 5.07252 5.61169C4.41134 5.61169 3.92779 5.73998 3.60213 6.00642C3.27647 6.27287 3.11858 6.64787 3.11858 7.14129C3.11858 7.60511 3.237 7.9505 3.48371 8.18735C3.72055 8.43406 4.06594 8.55248 4.51989 8.55248ZM12.4442 9.61827C12.2666 9.61827 12.1482 9.58866 12.0692 9.51958C11.9903 9.46037 11.9212 9.32221 11.862 9.13471L9.54292 1.50642C9.48371 1.30906 9.4541 1.18077 9.4541 1.11169C9.4541 0.953793 9.53305 0.864977 9.69094 0.864977H10.658C10.8455 0.864977 10.9738 0.894583 11.0429 0.963662C11.1219 1.02287 11.1811 1.16103 11.2403 1.34853L12.8982 7.88142L14.4377 1.34853C14.487 1.15116 14.5462 1.02287 14.6252 0.963662C14.7041 0.904451 14.8423 0.864977 15.0199 0.864977H15.8094C15.9969 0.864977 16.1252 0.894583 16.2041 0.963662C16.283 1.02287 16.3521 1.16103 16.3916 1.34853L17.9508 7.96037L19.658 1.34853C19.7173 1.15116 19.7863 1.02287 19.8554 0.963662C19.9344 0.904451 20.0627 0.864977 20.2403 0.864977H21.158C21.3159 0.864977 21.4048 0.943925 21.4048 1.11169C21.4048 1.16103 21.3949 1.21037 21.385 1.26958C21.3752 1.32879 21.3554 1.40774 21.3159 1.51629L18.9377 9.14458C18.8784 9.34195 18.8094 9.47024 18.7304 9.52945C18.6515 9.58866 18.5232 9.62814 18.3554 9.62814H17.5067C17.3192 9.62814 17.1909 9.59853 17.112 9.52945C17.033 9.46037 16.964 9.33208 16.9245 9.13471L15.3949 2.76958L13.8752 9.12485C13.8258 9.32221 13.7666 9.4505 13.6877 9.51958C13.6087 9.58866 13.4705 9.61827 13.2929 9.61827H12.4442ZM25.1252 9.88471C24.612 9.88471 24.0988 9.8255 23.6054 9.70708C23.112 9.58866 22.7271 9.46037 22.4705 9.31235C22.3127 9.22353 22.2041 9.12485 22.1646 9.03603C22.1252 8.94721 22.1054 8.84853 22.1054 8.75971V8.25642C22.1054 8.04919 22.1844 7.9505 22.3324 7.9505C22.3916 7.9505 22.4508 7.96037 22.51 7.98011C22.5692 7.99985 22.658 8.03932 22.7567 8.07879C23.0923 8.22682 23.4574 8.34524 23.8423 8.42419C24.237 8.50314 24.6219 8.54261 25.0166 8.54261C25.6383 8.54261 26.1219 8.43406 26.4574 8.21695C26.7929 7.99985 26.9705 7.68406 26.9705 7.27945C26.9705 7.00313 26.8817 6.77616 26.7041 6.58866C26.5265 6.40116 26.1909 6.2334 25.7074 6.0755L24.2765 5.63142C23.5561 5.40445 23.0232 5.06892 22.6975 4.62485C22.3719 4.19064 22.2041 3.70708 22.2041 3.19392C22.2041 2.77945 22.2929 2.41432 22.4705 2.09853C22.6482 1.78274 22.885 1.50642 23.1811 1.28932C23.4771 1.06235 23.8127 0.894583 24.2074 0.776162C24.6021 0.657741 25.0166 0.608398 25.4508 0.608398C25.6679 0.608398 25.8949 0.618267 26.112 0.647872C26.339 0.677477 26.5462 0.716951 26.7534 0.756425C26.9508 0.805767 27.1383 0.855109 27.3159 0.914319C27.4936 0.97353 27.6317 1.03274 27.7304 1.09195C27.8686 1.1709 27.9673 1.24985 28.0265 1.33866C28.0857 1.41761 28.1153 1.52616 28.1153 1.66432V2.12814C28.1153 2.33537 28.0363 2.44392 27.8883 2.44392C27.8094 2.44392 27.6811 2.40445 27.5133 2.3255C26.9508 2.06892 26.3192 1.94064 25.6186 1.94064C25.0561 1.94064 24.612 2.02945 24.3061 2.21695C24.0002 2.40445 23.8423 2.69064 23.8423 3.09524C23.8423 3.37156 23.9409 3.6084 24.1383 3.7959C24.3357 3.9834 24.7008 4.1709 25.2238 4.33866L26.6252 4.78274C27.3357 5.00971 27.8488 5.3255 28.1548 5.73011C28.4607 6.13471 28.6087 6.59853 28.6087 7.11169C28.6087 7.53603 28.5199 7.9209 28.3521 8.25642C28.1745 8.59195 27.9377 8.888 27.6317 9.12485C27.3258 9.37156 26.9607 9.54919 26.5363 9.67748C26.0923 9.81564 25.6284 9.88471 25.1252 9.88471Z" fill="#231F20"/>
<g id="Group_2">
<path id="Vector_2" fill-rule="evenodd" clip-rule="evenodd" d="M26.9906 14.6802C23.7439 17.0782 19.0268 18.3513 14.9708 18.3513C9.28662 18.3513 4.16491 16.2493 0.296488 12.7559C-0.00943295 12.4796 0.266883 12.1046 0.632014 12.3217C4.81623 14.7493 9.97741 16.2197 15.3162 16.2197C18.9182 16.2197 22.8754 15.4697 26.5169 13.9302C27.0596 13.6835 27.5235 14.2855 26.9906 14.6802Z" fill="#FF9900"/>
<path id="Vector_3" fill-rule="evenodd" clip-rule="evenodd" d="M28.3425 13.1411C27.928 12.6082 25.5991 12.8845 24.5432 13.0128C24.2274 13.0523 24.178 12.776 24.4642 12.5687C26.3195 11.2661 29.3688 11.6411 29.7241 12.0753C30.0793 12.5194 29.6254 15.5687 27.8886 17.0292C27.6221 17.2562 27.3655 17.1378 27.4839 16.8417C27.8787 15.8648 28.757 13.6641 28.3425 13.1411Z" fill="#FF9900"/>
</g>
</g>
</g>
<defs>
<clipPath id="clip0_2715_12622">
<rect width="30" height="17.9605" fill="white" transform="translate(0 0.5)"/>
</clipPath>
</defs>
</svg>
