<svg width="24" height="25" viewBox="0 0 24 25" fill="none" xmlns="http://www.w3.org/2000/svg">
<g id="frame_source">
<mask id="mask0_2415_577" style="mask-type:alpha" maskUnits="userSpaceOnUse" x="0" y="0" width="24" height="25">
<rect id="Bounding box" y="0.5" width="24" height="24" fill="#F57732"/>
</mask>
<g mask="url(#mask0_2415_577)">
<path id="frame_source_2" d="M8.59994 15.7451L5.35569 12.5009L8.59994 9.2566L9.64419 10.3259L7.46919 12.5009L9.64419 14.6759L8.59994 15.7451ZM15.3999 15.7451L14.3557 14.6759L16.5307 12.5009L14.3557 10.3259L15.3999 9.2566L18.6442 12.5009L15.3999 15.7451ZM5.30769 21.0008C4.80252 21.0008 4.37494 20.8258 4.02494 20.4758C3.67494 20.1258 3.49994 19.6983 3.49994 19.1931V15.5009H4.99994V19.1931C4.99994 19.2701 5.03202 19.3406 5.09619 19.4046C5.16019 19.4688 5.23069 19.5008 5.30769 19.5008H8.99994V21.0008H5.30769ZM14.9999 21.0008V19.5008H18.6922C18.7692 19.5008 18.8397 19.4688 18.9037 19.4046C18.9679 19.3406 18.9999 19.2701 18.9999 19.1931V15.5009H20.4999V19.1931C20.4999 19.6983 20.3249 20.1258 19.9749 20.4758C19.6249 20.8258 19.1974 21.0008 18.6922 21.0008H14.9999ZM3.49994 9.50085V5.8086C3.49994 5.30344 3.67494 4.87585 4.02494 4.52585C4.37494 4.17585 4.80252 4.00085 5.30769 4.00085H8.99994V5.50085H5.30769C5.23069 5.50085 5.16019 5.53294 5.09619 5.5971C5.03202 5.6611 4.99994 5.7316 4.99994 5.8086V9.50085H3.49994ZM18.9999 9.50085V5.8086C18.9999 5.7316 18.9679 5.6611 18.9037 5.5971C18.8397 5.53294 18.7692 5.50085 18.6922 5.50085H14.9999V4.00085H18.6922C19.1974 4.00085 19.6249 4.17585 19.9749 4.52585C20.3249 4.87585 20.4999 5.30344 20.4999 5.8086V9.50085H18.9999Z" fill="#F1B434"/>
</g>
</g>
</svg>
