<svg width="48" height="48" viewBox="0 0 48 48" fill="none" xmlns="http://www.w3.org/2000/svg">
<g id="cloud_sync">
<mask id="mask0_2777_13764" style="mask-type:alpha" maskUnits="userSpaceOnUse" x="0" y="0" width="48" height="48">
<rect id="Bounding box" x="0.5" y="0.5" width="47" height="47" fill="#D9D9D9" stroke="#1D5DD8"/>
</mask>
<g mask="url(#mask0_2777_13764)">
<path id="cloud_sync_2" d="M11.2978 15.2622C13.1397 12.5212 15.7061 10.5841 18.998 9.45081V11.7488C16.6208 12.6953 14.6517 14.301 13.0909 16.5651C11.5263 18.8347 10.744 21.3762 10.744 24.1888C10.744 26.3515 11.2128 28.3395 12.1508 30.1523C13.0892 31.9658 14.7155 33.7128 17.0278 35.3935L17.0675 35.4224V35.3733V28.9678H19.2865V39.3213H8.9325V37.1023H15.4845H15.5561L15.5001 37.0577C13.1505 35.1898 11.401 33.2556 10.2507 31.2553C9.10054 29.2557 8.525 26.9005 8.525 24.1888C8.525 20.9889 9.44908 18.0136 11.2978 15.2622ZM29.8356 28.5253L29.8511 28.5246L29.8574 28.5104C30.3838 27.3146 31.184 26.3516 32.2581 25.621C33.3319 24.8907 34.5789 24.5253 36 24.5253C37.6966 24.5253 39.1643 25.0821 40.4043 26.1959C41.6446 27.3096 42.3784 28.745 42.6057 30.5035L42.6085 30.5253H42.6305H43.019C44.2713 30.5253 45.3265 30.9681 46.1861 31.8542C47.0458 32.7408 47.475 33.7725 47.475 34.9503C47.475 36.2028 47.0422 37.2695 46.1762 38.1518L46.194 38.1693L46.1762 38.1518C45.3106 39.0343 44.2524 39.4753 43 39.4753H30C28.494 39.4753 27.2055 38.9395 26.1332 37.8671C25.0608 36.7948 24.525 35.5063 24.525 34.0003C24.525 32.535 25.0246 31.2731 26.0242 30.2135C27.0231 29.1545 28.293 28.5917 29.8356 28.5253ZM37.1592 16.1924C38.2931 18.0354 39.0069 19.8731 39.3012 21.7058H37.051C36.6702 20.0237 36.0339 18.482 35.1421 17.0809C34.247 15.6745 32.8945 14.19 31.0853 12.6274L31.044 12.5917V12.6463V19.0328H28.825V8.6793H39.179V10.8983H32.577H32.5093L32.5608 10.9423C34.4871 12.5895 36.0198 14.3396 37.1592 16.1924L37.1805 16.1793L37.1592 16.1924ZM31.2663 30.7443H30C29.0961 30.7443 28.3269 31.061 27.6938 31.6941C27.0607 32.3272 26.744 33.0964 26.744 34.0003C26.744 34.9042 27.0607 35.6734 27.6938 36.3065C28.3269 36.9395 29.0961 37.2563 30 37.2563H43C43.6246 37.2563 44.1573 37.0364 44.5967 36.597C45.0361 36.1576 45.256 35.6249 45.256 35.0003C45.256 34.3757 45.0361 33.843 44.5967 33.4036C44.1573 32.9642 43.6246 32.7443 43 32.7443H40.756V31.5003C40.756 30.1758 40.2944 29.0514 39.3717 28.1286C38.4489 27.2059 37.3245 26.7443 36 26.7443C34.6764 26.7443 33.5619 27.1546 32.6582 27.9758C31.7782 28.7755 31.3134 29.6985 31.2663 30.7443Z" fill="url(#paint0_linear_2777_13764)" stroke="url(#paint1_linear_2777_13764)" stroke-width="0.05"/>
</g>
</g>
<defs>
<linearGradient id="paint0_linear_2777_13764" x1="28" y1="8.6543" x2="28" y2="39.5003" gradientUnits="userSpaceOnUse">
<stop stop-color="#F26A1B"/>
<stop offset="1" stop-color="#F7B690"/>
</linearGradient>
<linearGradient id="paint1_linear_2777_13764" x1="28" y1="8.6543" x2="28" y2="39.5003" gradientUnits="userSpaceOnUse">
<stop stop-color="#F26A1B"/>
<stop offset="1" stop-color="#F7B690"/>
</linearGradient>
</defs>
</svg>
