<svg width="22" height="16" viewBox="0 0 22 16" fill="none" xmlns="http://www.w3.org/2000/svg">
<path d="M5.5 16C3.98333 16 2.6875 15.475 1.6125 14.425C0.5375 13.375 0 12.0916 0 10.575C0 9.27498 0.391667 8.11664 1.175 7.09998C1.95833 6.08331 2.98333 5.43331 4.25 5.14998C4.53333 3.94998 5.24167 2.80831 6.375 1.72498C7.50833 0.641642 8.71667 0.0999756 10 0.0999756C10.55 0.0999756 11.0208 0.295809 11.4125 0.687476C11.8042 1.07914 12 1.54998 12 2.09998V8.14998L13.6 6.59998L15 7.99998L11 12L7 7.99998L8.4 6.59998L10 8.14998V2.09998C8.73333 2.33331 7.75 2.94581 7.05 3.93748C6.35 4.92914 6 5.94998 6 6.99998H5.5C4.53333 6.99998 3.70833 7.34164 3.025 8.02498C2.34167 8.70831 2 9.53331 2 10.5C2 11.4666 2.34167 12.2916 3.025 12.975C3.70833 13.6583 4.53333 14 5.5 14H17.5C18.2 14 18.7917 13.7583 19.275 13.275C19.7583 12.7916 20 12.2 20 11.5C20 10.8 19.7583 10.2083 19.275 9.72498C18.7917 9.24164 18.2 8.99998 17.5 8.99998H16V6.99998C16 6.19998 15.8167 5.45414 15.45 4.76248C15.0833 4.07081 14.6 3.48331 14 2.99998V0.674976C15.2333 1.25831 16.2083 2.12081 16.925 3.26248C17.6417 4.40414 18 5.64998 18 6.99998C19.15 7.13331 20.1042 7.62914 20.8625 8.48748C21.6208 9.34581 22 10.35 22 11.5C22 12.75 21.5625 13.8125 20.6875 14.6875C19.8125 15.5625 18.75 16 17.5 16H5.5Z" fill="#231F20"/>
</svg>
