<svg width="25" height="24" viewBox="0 0 25 24" fill="none" xmlns="http://www.w3.org/2000/svg">
<path d="M16.1668 17.75L17.4602 19.5205C17.5816 19.7127 17.8149 19.7985 18.0279 19.7224C18.8317 19.4353 20.824 18.6572 22.4644 17.4725C22.5923 17.3801 22.6662 17.2261 22.6652 17.0673C22.6652 8.25 20.1668 5.75 20.1668 5.75C20.1668 5.75 18.1668 4.60213 16.0207 4.25602C15.8096 4.22196 15.6028 4.33509 15.5089 4.52891L15.0639 5.44677C15.0639 5.44677 13.9513 5.21397 12.666 5.21397C11.3807 5.21397 10.2681 5.44677 10.2681 5.44677L9.82307 4.52891C9.7291 4.33509 9.5224 4.22196 9.31125 4.25602C7.16675 4.60187 5.16675 5.75 5.16675 5.75C5.16675 5.75 2.66676 8.25 2.66676 17.0673C2.66576 17.2261 2.73961 17.3801 2.86755 17.4725C4.50792 18.6572 6.50026 19.4353 7.30402 19.7224C7.51701 19.7985 7.75033 19.7127 7.87178 19.5205L9.16675 17.75" stroke="url(#paint0_linear_38_571)" stroke-width="1.5" stroke-linecap="round" stroke-linejoin="round"/>
<path d="M18.1668 16.75C18.1668 16.75 15.8717 18.25 12.6668 18.25C9.46183 18.25 7.16675 16.75 7.16675 16.75" stroke="url(#paint1_linear_38_571)" stroke-width="1.5" stroke-linecap="round" stroke-linejoin="round"/>
<path d="M17.9167 12.25C17.9167 13.3546 17.1332 14.25 16.1667 14.25C15.2002 14.25 14.4167 13.3546 14.4167 12.25C14.4167 11.1454 15.2002 10.25 16.1667 10.25C17.1332 10.25 17.9167 11.1454 17.9167 12.25Z" stroke="url(#paint2_linear_38_571)" stroke-width="1.5"/>
<path d="M10.9168 12.25C10.9168 13.3546 10.1332 14.25 9.16675 14.25C8.20026 14.25 7.41675 13.3546 7.41675 12.25C7.41675 11.1454 8.20026 10.25 9.16675 10.25C10.1332 10.25 10.9168 11.1454 10.9168 12.25Z" stroke="url(#paint3_linear_38_571)" stroke-width="1.5"/>
<defs>
<linearGradient id="paint0_linear_38_571" x1="12.666" y1="4.25" x2="12.666" y2="19.75" gradientUnits="userSpaceOnUse">
<stop stop-color="#F26A1B"/>
<stop offset="1" stop-color="#F7B690"/>
</linearGradient>
<linearGradient id="paint1_linear_38_571" x1="12.6668" y1="16.75" x2="12.6668" y2="18.25" gradientUnits="userSpaceOnUse">
<stop stop-color="#F26A1B"/>
<stop offset="1" stop-color="#F7B690"/>
</linearGradient>
<linearGradient id="paint2_linear_38_571" x1="16.1667" y1="10.25" x2="16.1667" y2="14.25" gradientUnits="userSpaceOnUse">
<stop stop-color="#F26A1B"/>
<stop offset="1" stop-color="#F7B690"/>
</linearGradient>
<linearGradient id="paint3_linear_38_571" x1="9.16675" y1="10.25" x2="9.16675" y2="14.25" gradientUnits="userSpaceOnUse">
<stop stop-color="#F26A1B"/>
<stop offset="1" stop-color="#F7B690"/>
</linearGradient>
</defs>
</svg>
