<svg width="38" height="38" viewBox="0 0 38 38" fill="none" xmlns="http://www.w3.org/2000/svg">
<path d="M18.9961 0.0253906C21.6208 0.0253906 24.0884 0.522629 26.3975 1.51855C28.7069 2.51464 30.7149 3.86702 32.4229 5.57422C34.1308 7.2815 35.4837 9.2892 36.4805 11.5977C37.4767 13.9056 37.9746 16.3718 37.9746 18.9961C37.9746 21.6208 37.4774 24.0884 36.4814 26.3975C35.4854 28.7069 34.133 30.7149 32.4258 32.4229C30.7185 34.1308 28.7108 35.4837 26.4023 36.4805C24.0944 37.4767 21.6282 37.9746 19.0039 37.9746C16.3792 37.9746 13.9116 37.4774 11.6025 36.4814C9.29315 35.4854 7.28507 34.133 5.57715 32.4258C3.8692 30.7185 2.51632 28.7108 1.51953 26.4023C0.523325 24.0944 0.025442 21.6282 0.0253906 19.0039C0.0253906 16.3792 0.522629 13.9116 1.51855 11.6025C2.51464 9.29315 3.86702 7.28507 5.57422 5.57715C7.2815 3.8692 9.2892 2.51632 11.5977 1.51953C13.9056 0.523325 16.3718 0.025442 18.9961 0.0253906ZM19.1074 2.22461C14.4343 2.21429 10.455 3.83774 7.1709 7.09375C3.88677 10.3498 2.24414 14.3191 2.24414 19C2.24414 23.6605 3.87823 27.6246 7.14551 30.8906C10.413 34.1571 14.3909 35.7857 19.0771 35.7754C19.2063 35.7754 19.3418 35.7689 19.4834 35.7559L19.9062 35.7178L19.9893 35.71L19.916 35.6709C16.9249 34.0523 14.5121 31.7796 12.6787 28.8525C10.8453 25.9257 9.92871 22.6416 9.92871 19C9.92871 15.3585 10.8541 12.0743 12.7041 9.14746C14.5542 6.22048 16.9747 3.94764 19.9658 2.3291L20.0391 2.29004L19.9561 2.28223L19.5332 2.24414C19.3915 2.23108 19.2495 2.22461 19.1074 2.22461ZM35.7324 18.8936L20.917 33.7402L20.8926 33.7637L20.9229 33.7793C21.3413 33.9975 21.8145 34.2295 22.3418 34.4746C22.8693 34.7195 23.3487 34.9158 23.7803 35.0625L23.7881 35.0645L23.7959 35.0625C25.5623 34.5284 27.1677 33.7492 28.6123 32.7256C30.0568 31.7023 31.3136 30.4642 32.3818 29.0107C33.4499 27.5705 34.2846 25.9971 34.8867 24.291C35.489 22.5845 35.7857 20.7909 35.7754 18.9111L35.7744 18.8516L35.7324 18.8936ZM33.5898 10.832L15.4746 28.9482L15.459 28.9629L15.4727 28.9805C16.1445 29.8573 16.7047 30.5143 17.1533 30.9502C17.6016 31.3855 18.1919 31.9062 18.9229 32.5117L18.9404 32.5264L18.9561 32.5098L35.4863 15.999L35.4961 15.9893L35.4932 15.9766C35.3136 15.052 35.0692 14.1638 34.7598 13.3125C34.4503 12.4613 34.0732 11.6364 33.6289 10.8379L33.6133 10.8086L33.5898 10.832ZM28.8672 5.4707L12.3975 21.9209L12.3887 21.9307L12.3906 21.9434C12.5702 22.8676 12.8133 23.7474 13.1191 24.582C13.4245 25.4163 13.7925 26.2328 14.2236 27.0312L14.2402 27.0605L14.2637 27.0371L32.3789 8.90234L32.3945 8.88672L32.3809 8.86914C31.8752 8.22492 31.3297 7.62326 30.7441 7.06445C30.159 6.50631 29.5446 5.97417 28.9004 5.46875L28.8828 5.45508L28.8672 5.4707ZM24.0391 3.00684C20.5263 4.06736 17.6593 6.06923 15.4395 9.01172C13.2194 11.9545 12.1159 15.2977 12.1289 19.0391V19.0986L12.1719 19.0557L26.918 4.25977L26.9414 4.23633L26.9121 4.2207C26.4476 3.96908 25.9825 3.74387 25.5176 3.54492C25.0528 3.34592 24.5648 3.16606 24.0537 3.00684L24.0459 3.00488L24.0391 3.00684Z" fill="url(#paint0_linear_4551_31893)" stroke="url(#paint1_linear_4551_31893)" stroke-width="0.05"/>
<defs>
<linearGradient id="paint0_linear_4551_31893" x1="19" y1="0" x2="19" y2="38" gradientUnits="userSpaceOnUse">
<stop stop-color="#F26A1B"/>
<stop offset="1" stop-color="#F7B690"/>
</linearGradient>
<linearGradient id="paint1_linear_4551_31893" x1="19" y1="0" x2="19" y2="38" gradientUnits="userSpaceOnUse">
<stop stop-color="#F26A1B"/>
<stop offset="1" stop-color="#F7B690"/>
</linearGradient>
</defs>
</svg>
