<svg width="30" height="30" viewBox="0 0 30 30" fill="none" xmlns="http://www.w3.org/2000/svg">
<g id="logo">
<path id="Marketing/Logos/Sprocket" fill-rule="evenodd" clip-rule="evenodd" d="M21.7936 21.6183C19.4698 21.6183 17.586 19.8207 17.586 17.6036C17.586 15.386 19.4698 13.5884 21.7936 13.5884C24.1174 13.5884 26.0012 15.386 26.0012 17.6036C26.0012 19.8207 24.1174 21.6183 21.7936 21.6183ZM23.0532 9.87377V6.30204C24.0302 5.86169 24.7145 4.91858 24.7145 3.82407V3.74162C24.7145 2.23103 23.4194 0.995122 21.8364 0.995122H21.7504C20.1674 0.995122 18.8723 2.23103 18.8723 3.74162V3.82407C18.8723 4.91858 19.5566 5.86208 20.5336 6.30243V9.87377C19.079 10.0884 17.7499 10.6608 16.6538 11.5034L6.37716 3.87492C6.44498 3.62643 6.49262 3.37062 6.49302 3.10171C6.49464 1.39117 5.04367 0.00231355 3.25035 2.0069e-06C1.45783 -0.00192428 0.0020207 1.38308 2.10366e-06 3.094C-0.00201649 4.80493 1.44895 6.19379 3.24227 6.19571C3.82646 6.19648 4.36744 6.03814 4.84141 5.78079L14.9501 13.2852C14.0906 14.5234 13.5868 16.0067 13.5868 17.6036C13.5868 19.2752 14.1403 20.8216 15.0753 22.0934L12.0014 25.0271C11.7583 24.9574 11.5064 24.9088 11.2392 24.9088C9.76598 24.9088 8.57137 26.0484 8.57137 27.4542C8.57137 28.8604 9.76598 30 11.2392 30C12.7127 30 13.9069 28.8604 13.9069 27.4542C13.9069 27.2 13.8561 26.9592 13.783 26.7272L16.8238 23.8255C18.2041 24.8306 19.9232 25.4347 21.7936 25.4347C26.3262 25.4347 30 21.9285 30 17.6036C30 13.6882 26.9858 10.4536 23.0532 9.87377Z" fill="#FF7A59"/>
</g>
</svg>
