<svg width="24" height="25" viewBox="0 0 24 25" fill="none" xmlns="http://www.w3.org/2000/svg">
<g id="hub">
<mask id="mask0_2415_1935" style="mask-type:alpha" maskUnits="userSpaceOnUse" x="0" y="0" width="24" height="25">
<rect id="Bounding box" y="0.5" width="24" height="24" fill="url(#paint0_linear_2415_1935)"/>
</mask>
<g mask="url(#mask0_2415_1935)">
<path id="hub_2" d="M6.00119 23.25C5.23752 23.25 4.58811 22.9827 4.05294 22.4482C3.51761 21.9137 3.24994 21.2647 3.24994 20.5012C3.24994 19.7376 3.51736 19.0882 4.05219 18.553C4.58686 18.0177 5.23619 17.75 6.00019 17.75C6.21419 17.75 6.42436 17.7766 6.63069 17.8298C6.83719 17.8831 7.03211 17.9546 7.21544 18.0443L9.19794 15.577C8.78261 15.1243 8.49611 14.6179 8.33844 14.0577C8.18077 13.4974 8.14869 12.9339 8.24219 12.3673L5.36144 11.4135C5.11011 11.8173 4.77969 12.141 4.37019 12.3845C3.96069 12.6282 3.50394 12.75 2.99994 12.75C2.23611 12.75 1.58677 12.4827 1.05194 11.9482C0.517272 11.4137 0.249939 10.7648 0.249939 10.0013C0.249939 9.23758 0.517189 8.58817 1.05169 8.053C1.58619 7.51767 2.23519 7.25 2.99869 7.25C3.76236 7.25 4.41177 7.51733 4.94694 8.052C5.48227 8.58683 5.74994 9.23617 5.74994 10C5.74994 10.059 5.74836 10.1083 5.74519 10.148C5.74186 10.1878 5.74019 10.2276 5.74019 10.2673L8.61144 11.2655C8.88711 10.7552 9.26569 10.3173 9.74719 9.952C10.2285 9.58667 10.7807 9.35208 11.4037 9.24825V6.17875C10.7602 6.02758 10.2404 5.70225 9.84419 5.20275C9.44802 4.70342 9.24994 4.1345 9.24994 3.496C9.24994 2.73583 9.51719 2.08817 10.0517 1.553C10.5862 1.01767 11.2352 0.75 11.9987 0.75C12.7624 0.75 13.4118 1.01733 13.9469 1.552C14.4823 2.08683 14.7499 2.73617 14.7499 3.5C14.7499 4.13583 14.5493 4.70342 14.1479 5.20275C13.7468 5.70225 13.2295 6.02758 12.5962 6.17875V9.24825C13.2192 9.35208 13.7698 9.58667 14.2479 9.952C14.7261 10.3173 15.1063 10.7552 15.3884 11.2655L18.2597 10.2673C18.2532 10.2211 18.2499 10.1797 18.2499 10.1432V10C18.2499 9.23617 18.5172 8.58683 19.0517 8.052C19.5862 7.51733 20.2352 7.25 20.9987 7.25C21.7624 7.25 22.4118 7.51725 22.9469 8.05175C23.4823 8.58625 23.7499 9.23525 23.7499 9.99875C23.7499 10.7624 23.4826 11.4118 22.9479 11.947C22.4131 12.4823 21.7638 12.75 20.9999 12.75C20.4979 12.75 20.0391 12.6282 19.6234 12.3845C19.2078 12.141 18.8794 11.8173 18.6384 11.4135L15.7577 12.3673C15.8512 12.9339 15.8191 13.4948 15.6614 14.05C15.5038 14.6052 15.2173 15.1109 14.8019 15.5673L16.7844 18.0193C16.9678 17.9359 17.1627 17.8703 17.3692 17.8223C17.5755 17.7741 17.7857 17.75 17.9997 17.75C18.7637 17.75 19.413 18.0173 19.9477 18.5518C20.4825 19.0863 20.7499 19.7353 20.7499 20.4988C20.7499 21.2624 20.4827 21.9118 19.9482 22.447C19.4137 22.9823 18.7647 23.25 18.0012 23.25C17.2375 23.25 16.5881 22.9827 16.0529 22.448C15.5176 21.9132 15.2499 21.2638 15.2499 20.5C15.2499 20.1847 15.3009 19.8812 15.4029 19.5895C15.5048 19.2978 15.657 19.0302 15.8597 18.7865L13.8769 16.3C13.3089 16.6385 12.6823 16.8078 11.9969 16.8078C11.3118 16.8078 10.682 16.6385 10.1077 16.3L8.14019 18.7865C8.33636 19.0302 8.48702 19.2978 8.59219 19.5895C8.69736 19.8812 8.74994 20.1847 8.74994 20.5C8.74994 21.2638 8.48269 21.9132 7.94819 22.448C7.41369 22.9827 6.76469 23.25 6.00119 23.25ZM2.99994 11.25C3.34744 11.25 3.64261 11.1285 3.88544 10.8855C4.12844 10.6427 4.24994 10.3475 4.24994 10C4.24994 9.6525 4.12844 9.35733 3.88544 9.1145C3.64261 8.8715 3.34744 8.75 2.99994 8.75C2.65244 8.75 2.35727 8.8715 2.11444 9.1145C1.87144 9.35733 1.74994 9.6525 1.74994 10C1.74994 10.3475 1.87144 10.6427 2.11444 10.8855C2.35727 11.1285 2.65244 11.25 2.99994 11.25ZM5.99994 21.75C6.34744 21.75 6.64261 21.6285 6.88544 21.3855C7.12844 21.1427 7.24994 20.8475 7.24994 20.5C7.24994 20.1525 7.12844 19.8573 6.88544 19.6145C6.64261 19.3715 6.34744 19.25 5.99994 19.25C5.65244 19.25 5.35727 19.3715 5.11444 19.6145C4.87144 19.8573 4.74994 20.1525 4.74994 20.5C4.74994 20.8475 4.87144 21.1427 5.11444 21.3855C5.35727 21.6285 5.65244 21.75 5.99994 21.75ZM11.9999 4.75C12.3474 4.75 12.6426 4.6285 12.8854 4.3855C13.1284 4.14267 13.2499 3.8475 13.2499 3.5C13.2499 3.1525 13.1284 2.85733 12.8854 2.6145C12.6426 2.3715 12.3474 2.25 11.9999 2.25C11.6524 2.25 11.3573 2.3715 11.1144 2.6145C10.8714 2.85733 10.7499 3.1525 10.7499 3.5C10.7499 3.8475 10.8714 4.14267 11.1144 4.3855C11.3573 4.6285 11.6524 4.75 11.9999 4.75ZM11.9999 15.3077C12.6423 15.3077 13.1874 15.0837 13.6354 14.6355C14.0836 14.1875 14.3077 13.6423 14.3077 13C14.3077 12.3577 14.0836 11.8125 13.6354 11.3645C13.1874 10.9163 12.6423 10.6923 11.9999 10.6923C11.3576 10.6923 10.8124 10.9163 10.3644 11.3645C9.91627 11.8125 9.69219 12.3577 9.69219 13C9.69219 13.6423 9.91627 14.1875 10.3644 14.6355C10.8124 15.0837 11.3576 15.3077 11.9999 15.3077ZM17.9999 21.75C18.3474 21.75 18.6426 21.6285 18.8854 21.3855C19.1284 21.1427 19.2499 20.8475 19.2499 20.5C19.2499 20.1525 19.1284 19.8573 18.8854 19.6145C18.6426 19.3715 18.3474 19.25 17.9999 19.25C17.6524 19.25 17.3573 19.3715 17.1144 19.6145C16.8714 19.8573 16.7499 20.1525 16.7499 20.5C16.7499 20.8475 16.8714 21.1427 17.1144 21.3855C17.3573 21.6285 17.6524 21.75 17.9999 21.75ZM20.9999 11.25C21.3474 11.25 21.6426 11.1285 21.8854 10.8855C22.1284 10.6427 22.2499 10.3475 22.2499 10C22.2499 9.6525 22.1284 9.35733 21.8854 9.1145C21.6426 8.8715 21.3474 8.75 20.9999 8.75C20.6524 8.75 20.3573 8.8715 20.1144 9.1145C19.8714 9.35733 19.7499 9.6525 19.7499 10C19.7499 10.3475 19.8714 10.6427 20.1144 10.8855C20.3573 11.1285 20.6524 11.25 20.9999 11.25Z" fill="#EF4A4A"/>
</g>
</g>
<defs>
<linearGradient id="paint0_linear_2415_1935" x1="27.4367" y1="-3.3806" x2="4.09212" y2="13.6783" gradientUnits="userSpaceOnUse">
<stop stop-color="#F57732"/>
<stop offset="1" stop-color="#C84700"/>
</linearGradient>
</defs>
</svg>
