<svg width="94" height="112" viewBox="0 0 94 112" fill="none" xmlns="http://www.w3.org/2000/svg">
<g filter="url(#filter0_ddi_2715_11768)">
<rect x="11" y="2" width="72" height="72" rx="18" fill="white" shape-rendering="crispEdges"/>
<path d="M67.5528 45.6941C62.6518 43.7199 57.8788 41.4567 53.2068 39.002C52.8479 38.8105 52.4907 38.6173 52.1336 38.4204C57.1212 35.6894 62.282 33.2799 67.5528 31.1359C69.8924 30.2581 70.7312 27.1767 69.1312 25.2404C67.8252 23.6058 65.4441 23.3385 63.8117 24.6462C59.6538 27.91 55.3101 30.9174 50.851 33.7405C50.5065 33.9572 50.1601 34.1686 49.812 34.3799C49.9455 28.6885 50.4415 23.0097 51.2208 17.3671C51.6321 14.8998 49.3845 12.6312 46.9096 13.0502C44.9146 13.3537 43.5202 15.1653 43.7096 17.1522C45.122 23.427 45.9337 29.8987 46.0636 36.5148C46.069 36.7858 46.0744 37.0567 46.078 37.3276C46.0816 37.6365 46.0834 37.9436 46.0853 38.2524C46.0853 38.3066 46.0853 38.3608 46.0853 38.415C46.0853 38.4656 46.0853 38.5143 46.0853 38.5649C46.0853 38.5685 46.0853 38.5721 46.0853 38.5757C46.0853 38.9063 46.0816 39.2368 46.078 39.5674C46.078 39.6143 46.078 39.6631 46.0762 39.71C46.0762 39.8311 46.0726 39.9503 46.0708 40.0713C45.9554 46.7724 45.1418 53.3253 43.7114 59.6778C43.5238 61.6646 44.9164 63.4763 46.9114 63.7797C49.3863 64.1988 51.6339 61.932 51.2226 59.4629C50.4433 53.8238 49.9473 48.1487 49.8138 42.4609C54.6662 45.4195 59.3273 48.6888 63.8135 52.1838C65.7418 53.7751 68.8264 52.9587 69.7012 50.6034C70.4624 48.6544 69.5028 46.4545 67.5546 45.6922L67.5528 45.6941Z" fill="#F26A1B"/>
<path d="M35.3211 42.2248C34.6699 42.53 34.0169 42.8299 33.3603 43.1243C31.3869 44.0111 29.4117 44.8926 27.4004 45.6927C25.0699 46.5741 24.2347 49.6429 25.8257 51.5774C27.1263 53.2156 29.5073 53.4865 31.1434 52.1825C31.7098 51.7309 32.2835 51.2938 32.8607 50.8567C33.4397 50.425 34.0151 49.9915 34.5978 49.5689C35.7595 48.7181 36.9247 47.871 38.1045 47.0474C40.8391 45.0316 38.4598 40.8557 35.3211 42.2212V42.2248Z" fill="#F26A1B"/>
<path d="M38.1026 29.7786C37.5127 29.3668 36.9265 28.9495 36.3438 28.5287C34.5905 27.2607 32.8408 25.9891 31.1415 24.6453C29.215 23.0631 26.1413 23.8759 25.2646 26.2221C24.498 28.1693 25.454 30.3692 27.3986 31.1369C28.0714 31.4024 28.7388 31.6824 29.4026 31.9623C30.0646 32.2477 30.7285 32.5313 31.3851 32.8257C32.7019 33.4073 34.0169 33.9943 35.3192 34.6066C38.4291 35.9703 40.8535 31.8196 38.1026 29.7804V29.7786Z" fill="#F26A1B"/>
</g>
<defs>
<filter id="filter0_ddi_2715_11768" x="0" y="0" width="94" height="125" filterUnits="userSpaceOnUse" color-interpolation-filters="sRGB">
<feFlood flood-opacity="0" result="BackgroundImageFix"/>
<feColorMatrix in="SourceAlpha" type="matrix" values="0 0 0 0 0 0 0 0 0 0 0 0 0 0 0 0 0 0 127 0" result="hardAlpha"/>
<feOffset dy="40"/>
<feGaussianBlur stdDeviation="5.5"/>
<feComposite in2="hardAlpha" operator="out"/>
<feColorMatrix type="matrix" values="0 0 0 0 0.0470588 0 0 0 0 0.0352941 0 0 0 0 0.0313726 0 0 0 0.01 0"/>
<feBlend mode="normal" in2="BackgroundImageFix" result="effect1_dropShadow_2715_11768"/>
<feColorMatrix in="SourceAlpha" type="matrix" values="0 0 0 0 0 0 0 0 0 0 0 0 0 0 0 0 0 0 127 0" result="hardAlpha"/>
<feOffset dy="2"/>
<feGaussianBlur stdDeviation="2"/>
<feComposite in2="hardAlpha" operator="out"/>
<feColorMatrix type="matrix" values="0 0 0 0 0.0470588 0 0 0 0 0.0352941 0 0 0 0 0.0313726 0 0 0 0.33 0"/>
<feBlend mode="normal" in2="effect1_dropShadow_2715_11768" result="effect2_dropShadow_2715_11768"/>
<feBlend mode="normal" in="SourceGraphic" in2="effect2_dropShadow_2715_11768" result="shape"/>
<feColorMatrix in="SourceAlpha" type="matrix" values="0 0 0 0 0 0 0 0 0 0 0 0 0 0 0 0 0 0 127 0" result="hardAlpha"/>
<feOffset dy="1"/>
<feComposite in2="hardAlpha" operator="arithmetic" k2="-1" k3="1"/>
<feColorMatrix type="matrix" values="0 0 0 0 0.839216 0 0 0 0 0.811765 0 0 0 0 0.760784 0 0 0 0.12 0"/>
<feBlend mode="normal" in2="shape" result="effect3_innerShadow_2715_11768"/>
</filter>
</defs>
</svg>
