<svg width="23" height="26" viewBox="0 0 23 26" fill="none" xmlns="http://www.w3.org/2000/svg">
<rect width="23" height="26" fill="#535252"/>
<g filter="url(#filter0_d_1579_2862)">
<path d="M-28 -16C-28 -22.6274 -22.6274 -28 -16 -28H586C592.627 -28 598 -22.6274 598 -16V140C598 146.627 592.627 152 586 152H-16C-22.6274 152 -28 146.627 -28 140V-16Z" fill="#231F20" shape-rendering="crispEdges"/>
<path d="M-16 -27.5H586C592.351 -27.5 597.5 -22.3513 597.5 -16V140C597.5 146.351 592.351 151.5 586 151.5H-16C-22.3513 151.5 -27.5 146.351 -27.5 140V-16L-27.4854 -16.5918C-27.1773 -22.6681 -22.1528 -27.5 -16 -27.5Z" stroke="#3B3839" shape-rendering="crispEdges"/>
<path d="M-16 -8C-16 -12.4183 -12.4183 -16 -8 -16H171.333C175.752 -16 179.333 -12.4183 179.333 -8V132C179.333 136.418 175.752 140 171.333 140H-8.00001C-12.4183 140 -16 136.418 -16 132V-8Z" fill="white" fill-opacity="0.05"/>
<path d="M21.229 16.2907C18.7837 15.307 16.4023 14.1793 14.0713 12.9562C13.8922 12.8608 13.714 12.7645 13.5358 12.6664C16.0243 11.3056 18.5992 10.105 21.229 9.03674C22.3963 8.59934 22.8148 7.06394 22.0165 6.09914C21.3649 5.28464 20.1769 5.15144 19.3624 5.80304C17.2879 7.42934 15.1207 8.92784 12.8959 10.3345C12.724 10.4425 12.5512 10.5478 12.3775 10.6531C12.4441 7.81724 12.6916 4.98764 13.0804 2.17604C13.2856 0.946638 12.1642 -0.183762 10.9294 0.025038C9.934 0.176238 9.2383 1.07894 9.3328 2.06894C10.0375 5.19554 10.4425 8.42024 10.5073 11.7169C10.51 11.8519 10.5127 11.9869 10.5145 12.1219C10.5163 12.2758 10.5172 12.4288 10.5181 12.5827C10.5181 12.6097 10.5181 12.6367 10.5181 12.6637C10.5181 12.6889 10.5181 12.7132 10.5181 12.7384C10.5181 12.7402 10.5181 12.742 10.5181 12.7438C10.5181 12.9085 10.5163 13.0732 10.5145 13.2379C10.5145 13.2613 10.5145 13.2856 10.5136 13.309C10.5136 13.3693 10.5118 13.4287 10.5109 13.489C10.4533 16.828 10.0474 20.0932 9.3337 23.2585C9.2401 24.2485 9.9349 25.1512 10.9303 25.3024C12.1651 25.5112 13.2865 24.3817 13.0813 23.1514C12.6925 20.3416 12.445 17.5138 12.3784 14.6797C14.7994 16.1539 17.125 17.7829 19.3633 19.5244C20.3254 20.3173 21.8644 19.9105 22.3009 18.7369C22.6807 17.7658 22.2019 16.6696 21.2299 16.2898L21.229 16.2907Z" fill="#F26A1B"/>
<path d="M5.15006 14.5619C4.82516 14.714 4.49936 14.8634 4.17176 15.0101C3.18716 15.452 2.20166 15.8912 1.19816 16.2899C0.0353568 16.7291 -0.381343 18.2582 0.412457 19.2221C1.06136 20.0384 2.24936 20.1734 3.06566 19.5236C3.34826 19.2986 3.63446 19.0808 3.92246 18.863C4.21136 18.6479 4.49846 18.4319 4.78916 18.2213C5.36876 17.7974 5.95016 17.3753 6.53876 16.9649C7.90316 15.9605 6.71606 13.8797 5.15006 14.5601V14.5619Z" fill="#F26A1B"/>
<path d="M6.53732 8.36074C6.24302 8.15554 5.95052 7.94764 5.65982 7.73794C4.78502 7.10614 3.91202 6.47254 3.06422 5.80294C2.10302 5.01454 0.56942 5.41954 0.13202 6.58864C-0.25048 7.55884 0.22652 8.65504 1.19672 9.03754C1.53242 9.16984 1.86542 9.30934 2.19662 9.44884C2.52692 9.59104 2.85812 9.73234 3.18572 9.87904C3.84272 10.1688 4.49882 10.4613 5.14862 10.7664C6.70022 11.4459 7.90982 9.37774 6.53732 8.36164V8.36074Z" fill="#F26A1B"/>
</g>
<defs>
<filter id="filter0_d_1579_2862" x="-50" y="-42" width="670" height="224" filterUnits="userSpaceOnUse" color-interpolation-filters="sRGB">
<feFlood flood-opacity="0" result="BackgroundImageFix"/>
<feColorMatrix in="SourceAlpha" type="matrix" values="0 0 0 0 0 0 0 0 0 0 0 0 0 0 0 0 0 0 127 0" result="hardAlpha"/>
<feMorphology radius="2" operator="dilate" in="SourceAlpha" result="effect1_dropShadow_1579_2862"/>
<feOffset dy="8"/>
<feGaussianBlur stdDeviation="10"/>
<feComposite in2="hardAlpha" operator="out"/>
<feColorMatrix type="matrix" values="0 0 0 0 0.0980392 0 0 0 0 0.0862745 0 0 0 0 0.0862745 0 0 0 0.65 0"/>
<feBlend mode="normal" in2="BackgroundImageFix" result="effect1_dropShadow_1579_2862"/>
<feBlend mode="normal" in="SourceGraphic" in2="effect1_dropShadow_1579_2862" result="shape"/>
</filter>
</defs>
</svg>
