<svg width="48" height="48" viewBox="0 0 48 48" fill="none" xmlns="http://www.w3.org/2000/svg">
<g id="KaviaAI_logoMark_colorF26A1B 1">
<g id="logo">
<path id="Vector" d="M41.5714 30.3783C37.2812 28.6532 33.1047 26.6751 29.0156 24.5295C28.7012 24.3625 28.3882 24.1926 28.0762 24.0212C32.4423 21.6347 36.9586 19.5289 41.5714 17.6545C43.6196 16.8875 44.3525 14.1932 42.9524 12.5007C41.81 11.0713 39.7253 10.8385 38.2959 11.9809C34.657 14.8335 30.8559 17.4615 26.9525 19.9302C26.6506 20.1193 26.3473 20.3051 26.0425 20.4889C26.1586 15.5147 26.593 10.5505 27.2761 5.61849C27.6361 3.46137 25.6695 1.47945 23.5033 1.84569C21.7565 2.11065 20.5373 3.69465 20.7025 5.43129C21.9389 10.9158 22.6484 16.5721 22.7626 22.3556C22.7674 22.5923 22.7717 22.8289 22.7746 23.0655C22.7775 23.3348 22.7799 23.6046 22.7804 23.8743C22.7804 23.9214 22.7813 23.9684 22.7813 24.0159C22.7813 24.0596 22.7809 24.1033 22.7804 24.1475C22.7804 24.1508 22.7804 24.1542 22.7804 24.1575C22.7804 24.447 22.7775 24.7355 22.7741 25.0239C22.7737 25.0657 22.7727 25.107 22.7722 25.1483C22.7708 25.2534 22.7693 25.3585 22.7674 25.4636C22.6671 31.3206 21.9538 37.0484 20.7025 42.6001C20.5373 44.3372 21.757 45.9207 23.5033 46.1857C25.669 46.5519 27.6356 44.5705 27.2761 42.4129C26.5935 37.4843 26.1591 32.523 26.0425 27.5521C30.289 30.1383 34.3685 32.9948 38.2954 36.0505C39.9836 37.4406 42.6836 36.7287 43.4492 34.6695C44.1159 32.9655 43.2749 31.0436 41.5709 30.3774L41.5714 30.3783Z" fill="#F26A1B"/>
<path id="Vector_2" d="M13.3616 27.346C12.7923 27.6129 12.2197 27.8745 11.6451 28.1327C9.91808 28.9079 8.1896 29.6783 6.42896 30.3782C4.38848 31.1476 3.6584 33.8308 5.05088 35.5219C6.18992 36.9532 8.27312 37.1903 9.70448 36.0513C10.2003 35.6567 10.7029 35.2742 11.2069 34.8931C11.7128 34.5163 12.2178 34.1371 12.728 33.7675C13.7442 33.023 14.7646 32.2843 15.7971 31.5638C18.1904 29.8022 16.1086 26.1518 13.3616 27.3455V27.346Z" fill="#F26A1B"/>
<path id="Vector_3" d="M15.7976 16.4681C15.2816 16.1086 14.7689 15.7433 14.2577 15.3752C12.7232 14.2668 11.1915 13.1556 9.70493 11.9806C8.01821 10.5982 5.32925 11.3076 4.56125 13.3587C3.89117 15.0608 4.72733 16.9836 6.42941 17.6537C7.01885 17.886 7.60157 18.1299 8.18333 18.3756C8.76269 18.6252 9.34349 18.8729 9.91853 19.1302C11.0715 19.638 12.2216 20.1526 13.3616 20.6864C16.0837 21.8782 18.2043 18.2499 15.7971 16.4681H15.7976Z" fill="#F26A1B"/>
</g>
</g>
</svg>
