<svg width="48" height="48" viewBox="0 0 48 48" fill="none" xmlns="http://www.w3.org/2000/svg">
<mask id="mask0_2777_13757" style="mask-type:alpha" maskUnits="userSpaceOnUse" x="0" y="0" width="48" height="48">
<rect x="0.5" y="0.5" width="47" height="47" fill="#D9D9D9" stroke="#1D5DD8"/>
</mask>
<g mask="url(#mask0_2777_13757)">
<path d="M20.4693 36.2289H7.2695H7.2445V36.2039V34.6769C7.2445 34.1593 7.37908 33.6696 7.6479 33.2083C7.9177 32.7452 8.37318 32.3545 9.01167 32.0351M20.4693 36.2289L9.023 32.0574M20.4693 36.2289C20.5841 36.6564 20.7252 37.0553 20.8927 37.4257C21.0557 37.7866 21.2473 38.1273 21.4678 38.4479H5.025V34.6769C5.025 33.6299 5.28667 32.713 5.80933 31.9252C6.33203 31.1373 7.0896 30.5133 8.08331 30.0536C10.2642 29.0771 12.2859 28.3622 14.1484 27.9086C16.0104 27.4555 17.9609 27.2288 20 27.2288H20.498C20.6616 27.2288 20.815 27.2234 20.9581 27.2125M20.4693 36.2289L20.9581 27.2125M9.01167 32.0351C9.01172 32.035 9.01177 32.035 9.01182 32.035L9.023 32.0574M9.01167 32.0351C9.01165 32.0351 9.01163 32.0351 9.01161 32.0351L9.023 32.0574M9.01167 32.0351C10.8519 31.0933 12.6437 30.4265 14.387 30.035C16.13 29.6435 18.001 29.4479 20 29.4479H20.4467M9.023 32.0574C10.8617 31.1164 12.6515 30.4504 14.3925 30.0594C16.1335 29.6684 18.0027 29.4729 20 29.4729H20.469M20.4467 29.4479C20.4459 29.4552 20.445 29.4626 20.4442 29.47L20.469 29.4729M20.4467 29.4479C20.5003 28.99 20.5637 28.5926 20.6371 28.256C20.7093 27.9248 20.8163 27.5769 20.9581 27.2125M20.4467 29.4479H20.469V29.4729M20.469 29.4729L20.9581 27.2125M32.8558 37.2157L32.8536 37.1984L32.8367 37.1945C32.2337 37.0541 31.6383 36.8229 31.0505 36.5009C30.4629 36.1791 29.9704 35.7999 29.5725 35.3635L29.5622 35.3522L29.5474 35.3562L27.1427 36.0093L26.2782 34.5778L28.3625 32.7376L28.375 32.7266L28.3697 32.7109C28.2402 32.3247 28.175 31.8341 28.175 31.2383C28.175 30.6423 28.2402 30.1451 28.3698 29.7461L28.3748 29.7306L28.3627 29.7198L26.2976 27.8606L27.1616 26.4291L29.5472 27.1009L29.5626 27.1052L29.573 27.0931C29.9577 26.6445 30.4468 26.2623 31.0407 25.9469C31.635 25.6312 32.2336 25.4032 32.8367 25.2627L32.8536 25.2588L32.8558 25.2415L33.218 22.3863H35.0665L35.4292 25.2415L35.4314 25.2587L35.4482 25.2627C36.0379 25.4031 36.6301 25.6312 37.2248 25.9469C37.8186 26.2624 38.3142 26.6383 38.712 27.0742L38.7223 27.0855L38.7371 27.0815L41.1228 26.429L41.968 27.841L39.9023 29.7003L39.89 29.7113L39.8954 29.7269C40.0379 30.1433 40.1095 30.6448 40.1095 31.2319C40.1095 31.819 40.0379 32.3116 39.8955 32.7104L39.8898 32.7264L39.9025 32.7376L41.987 34.5779L41.1417 36.0092L38.7371 35.3562L38.7226 35.3523L38.7123 35.3632C38.3016 35.7998 37.8026 36.179 37.215 36.5009C36.6267 36.823 36.0378 37.0541 35.4482 37.1945L35.4314 37.1985L35.4292 37.2157L35.0665 40.0709H33.218L32.8558 37.2157ZM36.8968 34.0004L36.879 33.9829L36.8968 34.0004C37.603 33.2861 37.9555 32.364 37.9555 31.2364C37.9555 30.0961 37.6024 29.1714 36.8947 28.4647C36.187 27.758 35.2618 27.4053 34.1215 27.4053C32.9938 27.4053 32.0723 27.7587 31.3594 28.4666C30.6463 29.1743 30.2905 30.0995 30.2905 31.2399C30.2905 32.3676 30.6469 33.2891 31.3608 34.002L31.3785 33.9844L31.3608 34.002C32.0751 34.715 32.9971 35.0709 34.1245 35.0709C35.2652 35.0709 36.1901 34.7145 36.8968 34.0004ZM20 23.1674C18.0809 23.1674 16.5005 22.5482 15.2566 21.3106C14.0128 20.0731 13.3905 18.4894 13.3905 16.5574C13.3905 14.6383 14.0128 13.0579 15.2567 11.814C16.5005 10.5702 18.081 9.94785 20 9.94785C21.919 9.94785 23.4995 10.5702 24.7433 11.814C25.9872 13.0579 26.6095 14.6383 26.6095 16.5574C26.6095 18.4894 25.9872 20.0731 24.7434 21.3106C23.4995 22.5482 21.9191 23.1674 20 23.1674ZM20 20.9479C21.2548 20.9479 22.3009 20.5334 23.1366 19.7041C23.9727 18.8747 24.3905 17.8251 24.3905 16.5574C24.3905 15.3025 23.9727 14.2563 23.1367 13.4207C22.301 12.585 21.2548 12.1673 20 12.1673C18.7452 12.1673 17.699 12.585 16.8633 13.4207C16.0273 14.2563 15.6095 15.3025 15.6095 16.5574C15.6095 17.8251 16.0273 18.8747 16.8634 19.7041C17.6991 20.5334 18.7452 20.9479 20 20.9479Z" fill="url(#paint0_linear_2777_13757)" stroke="url(#paint1_linear_2777_13757)" stroke-width="0.05"/>
</g>
<defs>
<linearGradient id="paint0_linear_2777_13757" x1="23.5095" y1="9.92285" x2="23.5095" y2="40.0958" gradientUnits="userSpaceOnUse">
<stop stop-color="#F26A1B"/>
<stop offset="1" stop-color="#F7B690"/>
</linearGradient>
<linearGradient id="paint1_linear_2777_13757" x1="23.5095" y1="9.92285" x2="23.5095" y2="40.0958" gradientUnits="userSpaceOnUse">
<stop stop-color="#F26A1B"/>
<stop offset="1" stop-color="#F7B690"/>
</linearGradient>
</defs>
</svg>
