<svg width="48" height="48" viewBox="0 0 48 48" fill="none" xmlns="http://www.w3.org/2000/svg">
<g id="Frame 1000002572">
<g id="tab_inactive">
<mask id="mask0_2777_13680" style="mask-type:alpha" maskUnits="userSpaceOnUse" x="0" y="0" width="48" height="48">
<rect id="Bounding box" x="0.025" y="0.025" width="47.95" height="47.95" fill="url(#paint0_linear_2777_13680)" stroke="url(#paint1_linear_2777_13680)" stroke-width="0.05"/>
</mask>
<g mask="url(#mask0_2777_13680)">
<path id="tab_inactive_2" d="M13.1595 34.8405V34.8655V40.1155C13.1595 40.893 13.4414 41.5635 14.0062 42.1283C14.5713 42.6931 15.242 42.975 16.0195 42.975H40.1155C40.893 42.975 41.5635 42.6931 42.1283 42.1283C42.6931 41.5635 42.975 40.893 42.975 40.1155V16.0195C42.975 15.242 42.6931 14.5713 42.1283 14.0062C41.5635 13.4414 40.893 13.1595 40.1155 13.1595H34.8655H34.8405V13.1345V7.8845C34.8405 7.10699 34.5586 6.43646 33.9938 5.87168C33.4287 5.30689 32.758 5.025 31.9805 5.025H28.5055V7.2445H31.9805C32.1661 7.2445 32.3202 7.3043 32.4407 7.42482C32.5612 7.54533 32.621 7.69926 32.621 7.8845V13.1345V13.1595H32.596H16.0195C15.242 13.1595 14.5713 13.4414 14.0062 14.0062C14.0062 14.0062 14.0062 14.0062 14.0062 14.0062M13.1595 34.8405L13.1345 16.0195C13.1345 15.2352 13.4192 14.5582 13.9885 13.9885L14.0062 14.0062M13.1595 34.8405H13.1345H7.8845C7.10699 34.8405 6.43646 34.5586 5.87168 33.9938C5.30689 33.4287 5.025 32.758 5.025 31.9805V28.4865M13.1595 34.8405L5.025 28.4865M14.0062 14.0062C13.4414 14.5713 13.1595 15.242 13.1595 16.0195V32.596V32.621H13.1345H7.8845C7.69926 32.621 7.54533 32.5612 7.42482 32.4407C7.3043 32.3202 7.2445 32.1661 7.2445 31.9805V28.4865H5.025M14.0062 14.0062L5.025 28.4865M15.429 40.7305V40.3463C15.4624 40.42 15.5123 40.4899 15.5783 40.5562L15.5783 40.5562C15.7105 40.688 15.8577 40.7555 16.0195 40.7555H40.1155C40.277 40.7555 40.424 40.688 40.5562 40.5562L40.5562 40.5562C40.688 40.424 40.7555 40.277 40.7555 40.1155V16.0195C40.7555 15.8577 40.688 15.7105 40.5562 15.5783L40.5562 15.5783C40.424 15.4465 40.277 15.379 40.1155 15.379H16.0195C15.8577 15.379 15.7105 15.4465 15.5783 15.5783L15.5783 15.5783C15.5123 15.6446 15.4624 15.7146 15.429 15.7883V15.404H15.379V16.0195V40.1155V40.7305H15.429ZM5.025 23.321V16.525H7.2445V23.321H5.025ZM5.025 11.3595V7.8845C5.025 7.10699 5.30689 6.43646 5.87168 5.87168C6.43646 5.30689 7.10699 5.025 7.8845 5.025H11.379V7.2445H7.8845C7.69926 7.2445 7.54533 7.30431 7.42482 7.42482C7.30431 7.54533 7.2445 7.69926 7.2445 7.8845V11.3595H5.025ZM16.5445 7.2445V5.025H23.3405V7.2445H16.5445Z" fill="url(#paint2_linear_2777_13680)" stroke="url(#paint3_linear_2777_13680)" stroke-width="0.05"/>
</g>
</g>
</g>
<defs>
<linearGradient id="paint0_linear_2777_13680" x1="24" y1="0" x2="24" y2="48" gradientUnits="userSpaceOnUse">
<stop stop-color="#F26A1B"/>
<stop offset="1" stop-color="#F7B690"/>
</linearGradient>
<linearGradient id="paint1_linear_2777_13680" x1="24" y1="0" x2="24" y2="48" gradientUnits="userSpaceOnUse">
<stop stop-color="#F26A1B"/>
<stop offset="1" stop-color="#F7B690"/>
</linearGradient>
<linearGradient id="paint2_linear_2777_13680" x1="24" y1="5" x2="24" y2="43" gradientUnits="userSpaceOnUse">
<stop stop-color="#F26A1B"/>
<stop offset="1" stop-color="#F7B690"/>
</linearGradient>
<linearGradient id="paint3_linear_2777_13680" x1="24" y1="5" x2="24" y2="43" gradientUnits="userSpaceOnUse">
<stop stop-color="#F26A1B"/>
<stop offset="1" stop-color="#F7B690"/>
</linearGradient>
</defs>
</svg>
