<svg width="18" height="16" viewBox="0 0 18 16" fill="none" xmlns="http://www.w3.org/2000/svg">
<path d="M5.07539 16C4.89206 16 4.72122 15.9542 4.56289 15.8625C4.40456 15.7708 4.28372 15.6417 4.20039 15.475L2.25039 12H3.70039L4.70039 14H7.00039V13H5.30039L4.30039 11H1.70039L0.275391 8.5C0.242057 8.41667 0.212891 8.33333 0.187891 8.25C0.162891 8.16667 0.150391 8.08333 0.150391 8C0.150391 7.93333 0.192057 7.76667 0.275391 7.5L1.70039 5H4.30039L5.30039 3H7.00039V2H4.70039L3.70039 4H2.25039L4.20039 0.525C4.28372 0.358333 4.40456 0.229167 4.56289 0.1375C4.72122 0.0458333 4.89206 0 5.07539 0H7.50039C7.78372 0 8.02122 0.0958333 8.21289 0.2875C8.40456 0.479167 8.50039 0.716667 8.50039 1V5H7.00039L6.00039 6H8.50039V9H6.30039L5.30039 7H3.00039L2.00039 8H4.70039L5.70039 10H8.50039V15C8.50039 15.2833 8.40456 15.5208 8.21289 15.7125C8.02122 15.9042 7.78372 16 7.50039 16H5.07539ZM11.0004 16C10.4504 16 9.97956 15.8042 9.58789 15.4125C9.19622 15.0208 9.00039 14.55 9.00039 14C9.00039 13.6167 9.09206 13.2792 9.27539 12.9875C9.45872 12.6958 9.70039 12.4583 10.0004 12.275V3.725C9.70039 3.54167 9.45872 3.30417 9.27539 3.0125C9.09206 2.72083 9.00039 2.38333 9.00039 2C9.00039 1.45 9.19622 0.979167 9.58789 0.5875C9.97956 0.195833 10.4504 0 11.0004 0C11.5504 0 12.0212 0.195833 12.4129 0.5875C12.8046 0.979167 13.0004 1.45 13.0004 2C13.0004 2.38333 12.9087 2.72083 12.7254 3.0125C12.5421 3.30417 12.3004 3.54167 12.0004 3.725V6.25L14.0004 5.05C14.0004 4.48333 14.1962 4 14.5879 3.6C14.9796 3.2 15.4504 3 16.0004 3C16.5504 3 17.0212 3.19583 17.4129 3.5875C17.8046 3.97917 18.0004 4.45 18.0004 5C18.0004 5.55 17.8046 6.02083 17.4129 6.4125C17.0212 6.80417 16.5504 7 16.0004 7C15.8171 7 15.6462 6.97917 15.4879 6.9375C15.3296 6.89583 15.1754 6.83333 15.0254 6.75L12.7504 8.125L15.2754 10.125C15.3921 10.075 15.5087 10.0417 15.6254 10.025C15.7421 10.0083 15.8671 10 16.0004 10C16.5504 10 17.0212 10.1958 17.4129 10.5875C17.8046 10.9792 18.0004 11.45 18.0004 12C18.0004 12.55 17.8046 13.0208 17.4129 13.4125C17.0212 13.8042 16.5504 14 16.0004 14C15.3837 14 14.8796 13.7667 14.4879 13.3C14.0962 12.8333 13.9421 12.3 14.0254 11.7L12.0004 10.075V12.3C12.3004 12.4833 12.5379 12.7208 12.7129 13.0125C12.8879 13.3042 12.9754 13.6333 12.9754 14C12.9754 14.55 12.7837 15.0208 12.4004 15.4125C12.0171 15.8042 11.5504 16 11.0004 16Z" fill="#231F20"/>
</svg>
