<svg width="48" height="48" viewBox="0 0 48 48" fill="none" xmlns="http://www.w3.org/2000/svg">
<g id="orbit">
<mask id="mask0_2777_13659" style="mask-type:alpha" maskUnits="userSpaceOnUse" x="0" y="0" width="48" height="48">
<rect id="Bounding box" width="48" height="48" fill="#D9D9D9"/>
</mask>
<g mask="url(#mask0_2777_13659)">
<path id="orbit_2" d="M12.073 42.0385C10.3767 42.0385 8.934 41.4445 7.745 40.2565C6.556 39.0685 5.9615 37.6268 5.9615 35.9315C5.9615 34.2362 6.5555 32.793 7.7435 31.602C8.9315 30.411 10.3732 29.8155 12.0685 29.8155C13.7638 29.8155 15.207 30.4098 16.398 31.5985C17.589 32.7875 18.1845 34.2303 18.1845 35.927C18.1845 36.629 18.0647 37.307 17.825 37.961C17.5853 38.6153 17.2552 39.2065 16.8345 39.7345V39.1345C17.9475 39.6602 19.1103 40.0577 20.323 40.327C21.536 40.596 22.7617 40.7305 24 40.7305C28.6707 40.7305 32.6268 39.1098 35.8685 35.8685C39.1098 32.6268 40.7305 28.6707 40.7305 24H43C43 26.6257 42.5012 29.0947 41.5035 31.407C40.5062 33.7193 39.1525 35.7307 37.4425 37.441C35.7325 39.1513 33.7217 40.5055 31.41 41.5035C29.0983 42.5012 26.6283 43 24 43C22.494 43 21.0277 42.8282 19.601 42.4845C18.1747 42.1408 16.7872 41.6357 15.4385 40.969C14.9435 41.319 14.4097 41.5848 13.837 41.7665C13.264 41.9478 12.676 42.0385 12.073 42.0385ZM12.074 39.769C13.1513 39.769 14.061 39.3978 14.803 38.6555C15.5447 37.9128 15.9155 37.003 15.9155 35.926C15.9155 34.8487 15.5442 33.939 14.8015 33.197C14.0592 32.4553 13.1493 32.0845 12.072 32.0845C10.9947 32.0845 10.0852 32.4558 9.3435 33.1985C8.60183 33.9408 8.231 34.8507 8.231 35.928C8.231 37.0053 8.60217 37.9148 9.3445 38.6565C10.0872 39.3982 10.997 39.769 12.074 39.769ZM24.0045 30.1115C22.3092 30.1115 20.866 29.5175 19.675 28.3295C18.484 27.1415 17.8885 25.6998 17.8885 24.0045C17.8885 22.3092 18.4825 20.866 19.6705 19.675C20.8585 18.484 22.3002 17.8885 23.9955 17.8885C25.6908 17.8885 27.134 18.4825 28.325 19.6705C29.516 20.8585 30.1115 22.3002 30.1115 23.9955C30.1115 25.6908 29.5175 27.134 28.3295 28.325C27.1415 29.516 25.6998 30.1115 24.0045 30.1115ZM5 24C5 21.3743 5.49883 18.9053 6.4965 16.593C7.49383 14.2807 8.8475 12.2693 10.5575 10.559C12.2675 8.84867 14.2783 7.4945 16.59 6.4965C18.9017 5.49883 21.3717 5 24 5C25.506 5 26.9723 5.17183 28.399 5.5155C29.8253 5.85917 31.2128 6.36433 32.5615 7.031C33.0618 6.69767 33.5958 6.44433 34.1635 6.271C34.7315 6.098 35.3193 6.0115 35.927 6.0115C37.615 6.0115 39.0472 6.60083 40.2235 7.7795C41.4002 8.95817 41.9885 10.393 41.9885 12.084C41.9885 13.77 41.3992 15.2083 40.2205 16.399C39.0418 17.5893 37.607 18.1845 35.916 18.1845C34.23 18.1845 32.7917 17.5902 31.601 16.4015C30.4107 15.2125 29.8155 13.7697 29.8155 12.073C29.8155 11.371 29.9353 10.693 30.175 10.039C30.4147 9.38467 30.7512 8.7935 31.1845 8.2655V8.8655C30.0588 8.33983 28.8897 7.94233 27.677 7.673C26.464 7.404 25.2383 7.2695 24 7.2695C19.3293 7.2695 15.3732 8.89017 12.1315 12.1315C8.89017 15.3732 7.2695 19.3293 7.2695 24H5ZM35.9225 15.9155C36.9772 15.9155 37.8737 15.5413 38.612 14.793C39.35 14.045 39.719 13.1398 39.719 12.0775C39.719 11.0292 39.35 10.1343 38.612 9.393C37.8737 8.65167 36.9772 8.281 35.9225 8.281C34.8742 8.281 33.9725 8.65067 33.2175 9.39C32.4622 10.1297 32.0845 11.0278 32.0845 12.0845C32.0845 13.1412 32.4557 14.0438 33.198 14.7925C33.9403 15.5412 34.8485 15.9155 35.9225 15.9155Z" fill="url(#paint0_linear_2777_13659)"/>
</g>
</g>
<defs>
<linearGradient id="paint0_linear_2777_13659" x1="24" y1="5" x2="24" y2="43" gradientUnits="userSpaceOnUse">
<stop stop-color="#F26A1B"/>
<stop offset="1" stop-color="#F7B690"/>
</linearGradient>
</defs>
</svg>
