<svg width="24" height="25" viewBox="0 0 24 25" fill="none" xmlns="http://www.w3.org/2000/svg">
<g id="ads_click">
<mask id="mask0_2415_1974" style="mask-type:alpha" maskUnits="userSpaceOnUse" x="0" y="0" width="24" height="25">
<rect id="Bounding box" y="0.5" width="24" height="24" fill="#D9D9D9"/>
</mask>
<g mask="url(#mask0_2415_1974)">
<path id="ads_click_2" d="M11.5559 17.9808C10.129 17.8589 8.92971 17.2775 7.95787 16.2365C6.98604 15.1955 6.50012 13.95 6.50012 12.5C6.50012 10.9722 7.03487 9.67358 8.10437 8.60425C9.17371 7.53475 10.4723 7 12.0001 7C13.4501 7 14.6956 7.48433 15.7366 8.453C16.7776 9.4215 17.359 10.6193 17.4809 12.0463L15.8906 11.575C15.6745 10.675 15.2089 9.9375 14.4939 9.3625C13.779 8.7875 12.9478 8.5 12.0001 8.5C10.9001 8.5 9.95846 8.89167 9.17512 9.675C8.39179 10.4583 8.00012 11.4 8.00012 12.5C8.00012 13.45 8.28921 14.2833 8.86737 15C9.44554 15.7167 10.1815 16.1833 11.0751 16.4L11.5559 17.9808ZM12.7559 21.9595C12.6299 21.9865 12.504 22 12.3781 22H12.0001C10.686 22 9.45095 21.7507 8.29512 21.252C7.13929 20.7533 6.13387 20.0766 5.27887 19.2218C4.42387 18.3669 3.74704 17.3617 3.24837 16.206C2.74954 15.0503 2.50012 13.8156 2.50012 12.5017C2.50012 11.1877 2.74946 9.95267 3.24812 8.7965C3.74679 7.64033 4.42354 6.63467 5.27837 5.7795C6.13321 4.92433 7.13846 4.24725 8.29412 3.74825C9.44979 3.24942 10.6845 3 11.9984 3C13.3124 3 14.5475 3.24942 15.7036 3.74825C16.8598 4.24692 17.8655 4.92375 18.7206 5.77875C19.5758 6.63375 20.2529 7.63917 20.7519 8.795C21.2507 9.95083 21.5001 11.1858 21.5001 12.5V12.873C21.5001 12.9973 21.4866 13.1217 21.4596 13.2463L20.0001 12.8V12.5C20.0001 10.2667 19.2251 8.375 17.6751 6.825C16.1251 5.275 14.2335 4.5 12.0001 4.5C9.76679 4.5 7.87512 5.275 6.32512 6.825C4.77512 8.375 4.00012 10.2667 4.00012 12.5C4.00012 14.7333 4.77512 16.625 6.32512 18.175C7.87512 19.725 9.76679 20.5 12.0001 20.5H12.3001L12.7559 21.9595ZM20.1404 22.1443L15.6059 17.6L14.5194 20.8845L12.0001 12.5L20.3846 15.0192L17.1001 16.1058L21.6444 20.6402L20.1404 22.1443Z" fill="#009CA6"/>
</g>
</g>
</svg>
