<svg width="38" height="42" viewBox="0 0 38 42" fill="none" xmlns="http://www.w3.org/2000/svg">
<path d="M5.77051 31.4746C4.99056 31.4746 4.33522 31.7393 3.80664 32.2676C3.27805 32.7958 3.01367 33.4508 3.01367 34.2305C3.01377 35.0101 3.27769 35.6649 3.80566 36.1934C4.33391 36.7219 4.98892 36.9863 5.76855 36.9863C6.54851 36.9863 7.20384 36.7226 7.73242 36.1943C8.26098 35.6661 8.52539 35.0111 8.52539 34.2314C8.52537 33.4515 8.26065 32.7961 7.73242 32.2676C7.20433 31.7393 6.54979 31.4747 5.77051 31.4746ZM32.2314 31.4746C31.4515 31.4746 30.7961 31.7394 30.2676 32.2676C29.7392 32.7958 29.4746 33.451 29.4746 34.2305C29.4747 35.0102 29.7395 35.6649 30.2676 36.1934C30.7958 36.7219 31.4508 36.9863 32.2305 36.9863C33.0101 36.9862 33.6649 36.7223 34.1934 36.1943C34.7219 35.6661 34.9863 35.0111 34.9863 34.2314C34.9863 33.4515 34.7226 32.7961 34.1943 32.2676C33.6661 31.739 33.011 31.4746 32.2314 31.4746ZM5.77051 5.01367C4.99066 5.01367 4.33518 5.27757 3.80664 5.80566C3.27805 6.33391 3.01367 6.98892 3.01367 7.76855C3.01368 8.54851 3.27742 9.20384 3.80566 9.73242C4.33391 10.261 4.98893 10.5254 5.76855 10.5254C6.54851 10.5254 7.20384 10.2607 7.73242 9.73242C8.26073 9.20432 8.52528 8.54981 8.52539 7.77051C8.52539 6.99055 8.26067 6.33523 7.73242 5.80664C7.20428 5.27816 6.54993 5.01378 5.77051 5.01367ZM32.2314 5.01367C31.4515 5.01369 30.7961 5.27744 30.2676 5.80566C29.739 6.33391 29.4746 6.98894 29.4746 7.76855C29.4746 8.54851 29.7393 9.20384 30.2676 9.73242C30.7958 10.2609 31.4509 10.5254 32.2305 10.5254C33.0102 10.5253 33.6649 10.2606 34.1934 9.73242C34.7218 9.20428 34.9862 8.54994 34.9863 7.77051C34.9863 6.99065 34.7225 6.33519 34.1943 5.80664C33.6661 5.27805 33.0111 5.01367 32.2314 5.01367ZM4.65918 12.626L4.63965 12.6221C3.52496 12.367 2.60561 11.793 1.88086 10.9004C1.15662 10.0077 0.794922 8.96437 0.794922 7.76953C0.794922 6.38709 1.27786 5.21271 2.24512 4.24512C3.21271 3.27786 4.38708 2.79492 5.76953 2.79492C6.96437 2.79492 8.0077 3.15662 8.90039 3.88086C9.79297 4.60561 10.367 5.52496 10.6221 6.63965L10.626 6.65918H19.4951L19.4521 6.61719L14.9355 2.11914L16.5 0.553711L23.7441 7.76855L16.499 14.9648L14.9355 13.4189L19.4521 8.92188L19.4951 8.87891H10.626L10.6221 8.89844C10.4078 9.81952 9.96376 10.6167 9.29004 11.29C8.61665 11.9638 7.81952 12.4084 6.89844 12.624L6.87891 12.6279V29.374L6.89844 29.3779C7.81951 29.5922 8.61666 30.0363 9.29004 30.71C9.96375 31.3833 10.4078 32.1805 10.6221 33.1016L10.626 33.1211H19.4756L19.4336 33.0781L14.9541 28.5791L16.5 27.0156L23.7441 34.2295L16.499 41.4258L14.9541 39.8809L19.4521 35.3828L19.4951 35.3408H10.626L10.6221 35.3604C10.367 36.4751 9.79297 37.3944 8.90039 38.1191C8.0077 38.8434 6.96437 39.2051 5.76953 39.2051C4.38708 39.2051 3.21271 38.7221 2.24512 37.7549C1.27788 36.7873 0.794922 35.6129 0.794922 34.2305C0.794934 33.0357 1.15663 31.9923 1.88086 31.0996C2.60561 30.207 3.52497 29.633 4.63965 29.3779L4.65918 29.374V12.626ZM31.1211 12.626L31.1016 12.6221C29.9869 12.367 29.0676 11.7895 28.3428 10.8896C27.6184 9.98986 27.2559 8.94996 27.2559 7.76953C27.2559 6.38708 27.7395 5.21271 28.7061 4.24512C29.6725 3.2781 30.8451 2.79503 32.2256 2.79492C33.6066 2.79492 34.7814 3.27801 35.751 4.24512C36.7206 5.21271 37.2051 6.3871 37.2051 7.76953C37.2051 8.9529 36.8434 9.99321 36.1191 10.8916C35.3944 11.7899 34.475 12.367 33.3604 12.6221L33.3408 12.626V29.374L33.3604 29.3779C34.475 29.633 35.3944 30.207 36.1191 31.0996C36.8434 31.9923 37.2051 33.0357 37.2051 34.2305C37.2051 35.6129 36.7225 36.7873 35.7559 37.7549C34.7893 38.7221 33.6163 39.205 32.2354 39.2051C30.8546 39.2051 29.6796 38.7222 28.71 37.7549C27.7404 36.7873 27.2559 35.6129 27.2559 34.2305C27.2559 33.0477 27.6185 32.0072 28.3428 31.1084C29.0676 30.2099 29.9869 29.633 31.1016 29.3779L31.1211 29.374V12.626Z" fill="url(#paint0_linear_4551_31886)" stroke="url(#paint1_linear_4551_31886)" stroke-width="0.05"/>
<defs>
<linearGradient id="paint0_linear_4551_31886" x1="19" y1="0.519531" x2="19" y2="41.4615" gradientUnits="userSpaceOnUse">
<stop stop-color="#F26A1B"/>
<stop offset="1" stop-color="#F7B690"/>
</linearGradient>
<linearGradient id="paint1_linear_4551_31886" x1="19" y1="0.519531" x2="19" y2="41.4615" gradientUnits="userSpaceOnUse">
<stop stop-color="#F26A1B"/>
<stop offset="1" stop-color="#F7B690"/>
</linearGradient>
</defs>
</svg>
