<svg width="48" height="48" viewBox="0 0 48 48" fill="none" xmlns="http://www.w3.org/2000/svg">
<g id="ring_volume">
<mask id="mask0_2777_13694" style="mask-type:alpha" maskUnits="userSpaceOnUse" x="0" y="0" width="48" height="48">
<rect id="Bounding box" width="48" height="48" fill="#D9D9D9"/>
</mask>
<g mask="url(#mask0_2777_13694)">
<path id="ring_volume_2" d="M35.1407 28.3746L35.1772 28.3936C36.6394 29.153 38.0498 29.9964 39.4083 30.9236C40.7675 31.8514 41.9618 32.8532 42.9911 33.9288C43.0585 33.9963 43.0947 34.0696 43.0947 34.1483C43.0947 34.2274 43.0584 34.2947 42.9899 34.3494L40.1496 37.1902C40.0816 37.2712 39.9961 37.3191 39.894 37.3325C39.894 37.3325 39.894 37.3326 39.894 37.3326L39.8907 37.3078C39.7944 37.3208 39.7077 37.2951 39.6307 37.2308L35.1407 28.3746ZM35.1407 28.3746V28.4158V33.6428C35.1407 33.7245 35.1646 33.8056 35.2111 33.8858L35.2111 33.8859C35.2576 33.9653 35.3144 34.0261 35.3822 34.067L39.6147 37.25C39.6148 37.2501 39.615 37.2502 39.6152 37.2504L35.1407 28.3746ZM6.7608 39.452L6.76028 39.4515L2.86779 35.598L2.8676 35.5978C2.53425 35.2747 2.37954 34.8892 2.40216 34.44C2.42487 33.9895 2.58678 33.5871 2.88855 33.2322C5.51669 30.2914 8.68793 28.0218 12.4026 26.4232C16.1175 24.8246 19.9833 24.0253 24.0002 24.0253C28.0171 24.0253 31.8829 24.8246 35.5978 26.4232C39.3125 28.0218 42.4837 30.2914 45.1119 33.2322C45.4136 33.5871 45.5755 33.9895 45.5982 34.44C45.6209 34.8892 45.4661 35.2747 45.1328 35.5978L45.1326 35.598L41.2401 39.4515L41.24 39.4516C40.9141 39.7779 40.4949 39.9611 39.9808 40.0003C39.4665 40.0396 39.0441 39.9309 38.7114 39.6764L38.7112 39.6762L33.7422 35.9647L33.7419 35.9645C33.4675 35.7651 33.2626 35.5362 33.1263 35.2781L33.1042 35.2898L33.1263 35.2781C32.9897 35.0197 32.9212 34.7273 32.9212 34.4003V27.8543V27.837L32.9051 27.8309C31.3627 27.2457 29.8624 26.8349 28.4042 26.5986C26.9465 26.3624 25.4785 26.2443 24.0002 26.2443C22.5219 26.2443 21.0539 26.3624 19.5962 26.5986C18.138 26.8349 16.6377 27.2457 15.0953 27.8309L15.0792 27.837V27.8543V34.4003C15.0792 34.7273 15.0106 35.0197 14.8741 35.2781L14.8962 35.2898L14.8741 35.2781C14.7378 35.5362 14.5329 35.7651 14.2585 35.9645L14.2582 35.9648L9.30099 39.6866C9.30095 39.6866 9.30091 39.6866 9.30086 39.6866C8.88458 39.9894 8.44642 40.1184 7.98552 40.0754C7.52453 40.0323 7.11645 39.8252 6.7608 39.452ZM12.6677 28.5773V28.5378L12.632 28.5547C11.2099 29.227 9.84122 30.0407 8.52601 30.9955C7.21079 31.9498 6.03864 32.934 5.00965 33.948L5.00956 33.948C4.94251 34.0148 4.9057 34.0847 4.9057 34.1578C4.9057 34.231 4.94244 34.3012 5.00946 34.3679C5.0095 34.3679 5.00953 34.368 5.00956 34.368L7.82083 37.2408L7.82102 37.2409C7.88918 37.3091 7.97452 37.3499 8.07585 37.3635L8.07593 37.3636C8.17763 37.377 8.27027 37.3564 8.35258 37.3016L8.35356 37.3009L12.4266 34.2894L12.4266 34.2894L12.4273 34.2888C12.4939 34.2357 12.5504 34.1693 12.5968 34.0899C12.6432 34.0105 12.6677 33.9356 12.6677 33.8658V28.5773ZM22.9097 13.4138V4.90977H25.1292V13.4138H22.9097ZM35.4428 18.8107L33.847 17.1851L39.8836 11.248L41.3388 12.8724L35.4428 18.8107ZM12.7374 18.8102L6.63169 12.9113L8.26584 11.2473L14.1928 17.1857L12.7374 18.8102Z" fill="url(#paint0_linear_2777_13694)" stroke="url(#paint1_linear_2777_13694)" stroke-width="0.05"/>
</g>
</g>
<defs>
<linearGradient id="paint0_linear_2777_13694" x1="24.0002" y1="4.88477" x2="24.0002" y2="40.1084" gradientUnits="userSpaceOnUse">
<stop stop-color="#F26A1B"/>
<stop offset="1" stop-color="#F7B690"/>
</linearGradient>
<linearGradient id="paint1_linear_2777_13694" x1="24.0002" y1="4.88477" x2="24.0002" y2="40.1084" gradientUnits="userSpaceOnUse">
<stop stop-color="#F26A1B"/>
<stop offset="1" stop-color="#F7B690"/>
</linearGradient>
</defs>
</svg>
