<svg width="15" height="14" viewBox="0 0 15 14" fill="none" xmlns="http://www.w3.org/2000/svg">
<path d="M4.07375 7.8335H3.35088C2.59182 7.8335 2.10951 7.02102 2.47299 6.35464L3.38208 4.68798C3.55731 4.36672 3.89403 4.16683 4.25997 4.16683H6.98579M4.07375 7.8335L6.66634 10.4261M4.07375 7.8335L6.98579 4.16683M6.98579 4.16683C8.63426 2.36849 10.4138 1.16546 12.6686 0.892537C13.2169 0.826177 13.6737 1.28291 13.6073 1.83119C13.3344 4.08599 12.1313 5.86558 10.333 7.51405M6.66634 10.4261V11.149C6.66634 11.908 7.47882 12.3903 8.14519 12.0268L9.8119 11.1178C10.1331 10.9425 10.333 10.6058 10.333 10.2399V7.51405M6.66634 10.4261L10.333 7.51405M2.70338 13.1668H2.33301C1.78072 13.1668 1.33301 12.7191 1.33301 12.1668V11.7965C1.33301 11.0396 1.94654 10.4261 2.70338 10.4261C3.46021 10.4261 4.07375 11.0396 4.07375 11.7965C4.07375 12.5533 3.46021 13.1668 2.70338 13.1668Z" stroke="#4A4340" stroke-width="1.5" stroke-linejoin="round"/>
</svg>
