<svg width="17" height="16" viewBox="0 0 17 16" fill="none" xmlns="http://www.w3.org/2000/svg">
<g id="SVG">
<path id="Vector" d="M5.07375 8.83411H4.35088C3.59182 8.83411 3.10951 8.02163 3.47299 7.35525L4.38208 5.68859C4.55731 5.36733 4.89403 5.16744 5.25997 5.16744H7.98579M5.07375 8.83411L7.66634 11.4267M5.07375 8.83411L7.98579 5.16744M7.98579 5.16744C9.63426 3.3691 11.4138 2.16607 13.6686 1.89315C14.2169 1.82679 14.6737 2.28352 14.6073 2.8318C14.3344 5.0866 13.1313 6.86619 11.333 8.51466M7.66634 11.4267V12.1496C7.66634 12.9086 8.47882 13.3909 9.14519 13.0274L10.8119 12.1184C11.1331 11.9431 11.333 11.6064 11.333 11.2405V8.51466M7.66634 11.4267L11.333 8.51466M3.70338 14.1674H3.33301C2.78072 14.1674 2.33301 13.7197 2.33301 13.1674V12.7971C2.33301 12.0402 2.94654 11.4267 3.70338 11.4267C4.46021 11.4267 5.07375 12.0402 5.07375 12.7971C5.07375 13.5539 4.46021 14.1674 3.70338 14.1674Z" stroke="white" stroke-width="1.5" stroke-linejoin="round"/>
</g>
</svg>
