<svg width="30" height="23" viewBox="0 0 30 23" fill="none" xmlns="http://www.w3.org/2000/svg">
<g id="salesforce-logo" clip-path="url(#clip0_2715_11976)">
<path id="Vector" d="M12.4842 3.08887C13.4517 2.06019 14.7987 1.42217 16.2885 1.42217C18.2688 1.42217 19.9966 2.54897 20.9167 4.22174C21.7163 3.85721 22.6013 3.65442 23.5325 3.65442C27.1043 3.65442 30 6.63499 30 10.3115C30 13.9884 27.1043 16.969 23.5325 16.969C23.1047 16.9693 22.6779 16.9259 22.2586 16.8395C21.4483 18.3143 19.9043 19.3107 18.1321 19.3107C17.3902 19.3107 16.6885 19.1358 16.0637 18.8249C15.2423 20.7964 13.3286 22.1787 11.0983 22.1787C8.77565 22.1787 6.79616 20.6791 6.03634 18.5759C5.70429 18.6479 5.36027 18.6854 5.00727 18.6854C2.24189 18.6854 0 16.3742 0 13.5227C0 11.6119 1.00727 9.94344 2.50384 9.05081C2.19574 8.3274 2.02435 7.52893 2.02435 6.68947C2.02435 3.41022 4.63333 0.751953 7.85129 0.751953C9.7406 0.751953 11.4197 1.66857 12.4842 3.08887Z" fill="#00A1E0"/>
<path id="Vector_2" d="M4.34564 11.862C4.32685 11.9122 4.35249 11.9226 4.35847 11.9314C4.41486 11.9732 4.47216 12.0033 4.52985 12.0369C4.83582 12.2026 5.12474 12.251 5.42687 12.251C6.04225 12.251 6.42429 11.9169 6.42429 11.3793V11.3688C6.42429 10.8717 5.99312 10.6911 5.5884 10.5607L5.53585 10.5433C5.23072 10.4421 4.96747 10.355 4.96747 10.15V10.1391C4.96747 9.96379 5.12132 9.83469 5.35979 9.83469C5.62474 9.83469 5.93927 9.92454 6.14183 10.0388C6.14183 10.0388 6.20123 10.078 6.22303 10.0192C6.23498 9.98776 6.33756 9.70605 6.34825 9.67553C6.35978 9.64238 6.33927 9.61796 6.31834 9.60487C6.08714 9.4614 5.76747 9.36328 5.43672 9.36328L5.37519 9.36371C4.81195 9.36371 4.4188 9.71083 4.4188 10.2084V10.2189C4.4188 10.7434 4.85255 10.9135 5.25898 11.0321L5.32435 11.0526C5.62051 11.1455 5.87564 11.2253 5.87564 11.4381V11.4486C5.87564 11.6431 5.70985 11.7878 5.44231 11.7878C5.33846 11.7878 5.00726 11.7857 4.64958 11.555C4.60639 11.5292 4.5812 11.5105 4.54787 11.49C4.53036 11.4787 4.48633 11.459 4.46711 11.5183L4.34564 11.862V11.862ZM13.3546 11.862C13.3358 11.9122 13.3614 11.9226 13.3674 11.9314C13.4238 11.9732 13.4811 12.0033 13.5387 12.0369C13.8447 12.2026 14.1337 12.251 14.4358 12.251C15.0511 12.251 15.4332 11.9169 15.4332 11.3793V11.3688C15.4332 10.8717 15.002 10.6911 14.5973 10.5607L14.5448 10.5433C14.2396 10.4421 13.9763 10.355 13.9763 10.15V10.1391C13.9763 9.96379 14.1302 9.83469 14.3687 9.83469C14.6336 9.83469 14.9481 9.92454 15.1507 10.0388C15.1507 10.0388 15.2101 10.078 15.2319 10.0192C15.2439 9.98776 15.3464 9.70605 15.3571 9.67553C15.3687 9.64238 15.3481 9.61796 15.3272 9.60487C15.096 9.4614 14.7763 9.36328 14.4456 9.36328L14.384 9.36371C13.8208 9.36371 13.4276 9.71083 13.4276 10.2084V10.2189C13.4276 10.7434 13.8614 10.9135 14.2678 11.0321L14.3332 11.0526C14.6293 11.1455 14.8849 11.2253 14.8849 11.4381V11.4486C14.8849 11.6431 14.7187 11.7878 14.4511 11.7878C14.3473 11.7878 14.0161 11.7857 13.6584 11.555C13.6153 11.5292 13.5897 11.5114 13.5572 11.49C13.546 11.4826 13.4939 11.4621 13.476 11.5183L13.3546 11.862V11.862ZM19.5047 10.8088C19.5047 11.1128 19.4492 11.3521 19.3398 11.5213C19.2317 11.6888 19.068 11.7704 18.8398 11.7704C18.6112 11.7704 18.4484 11.6892 18.342 11.5213C18.2342 11.3526 18.1796 11.1128 18.1796 10.8088C18.1796 10.5053 18.2342 10.2663 18.342 10.0989C18.4484 9.93318 18.6112 9.8525 18.8398 9.8525C19.068 9.8525 19.2317 9.93318 19.3402 10.0989C19.4492 10.2663 19.5047 10.5053 19.5047 10.8088V10.8088ZM20.0184 10.2454C19.968 10.0714 19.8894 9.91789 19.7847 9.79014C19.68 9.66193 19.5475 9.55903 19.3902 9.48401C19.2334 9.40946 19.0479 9.37152 18.8398 9.37152C18.6313 9.37152 18.4458 9.40946 18.2889 9.48401C18.1317 9.55903 17.9992 9.66196 17.8941 9.79014C17.7898 9.91835 17.7112 10.0718 17.6603 10.2454C17.6103 10.4185 17.5851 10.6078 17.5851 10.8088C17.5851 11.0099 17.6103 11.1995 17.6603 11.3722C17.7112 11.5458 17.7894 11.6993 17.8945 11.8275C17.9992 11.9557 18.1321 12.0582 18.289 12.131C18.4462 12.2038 18.6313 12.2408 18.8399 12.2408C19.048 12.2408 19.233 12.2038 19.3902 12.131C19.5471 12.0582 19.68 11.9557 19.7847 11.8275C19.8894 11.6997 19.968 11.5462 20.0185 11.3722C20.0689 11.1991 20.0941 11.0094 20.0941 10.8088C20.0941 10.6082 20.0689 10.4185 20.0184 10.2454V10.2454ZM24.2367 11.6892C24.2196 11.6382 24.1713 11.6573 24.1713 11.6573C24.0965 11.6866 24.017 11.7136 23.9324 11.7271C23.8465 11.7406 23.752 11.7476 23.6507 11.7476C23.4021 11.7476 23.2046 11.6722 23.0632 11.523C22.9213 11.3739 22.8418 11.1328 22.8426 10.8066C22.8435 10.5096 22.9136 10.2863 23.0397 10.1163C23.1649 9.94709 23.3555 9.86028 23.6098 9.86028C23.8217 9.86028 23.9833 9.88513 24.1525 9.93965C24.1525 9.93965 24.1931 9.95751 24.2123 9.90346C24.2571 9.7761 24.2905 9.68497 24.3383 9.545C24.352 9.50531 24.3187 9.4883 24.3067 9.48349C24.2401 9.4569 24.0828 9.41375 23.964 9.39543C23.8529 9.37799 23.723 9.36883 23.5785 9.36883C23.3627 9.36883 23.1704 9.40634 23.0059 9.48135C22.8418 9.5559 22.7025 9.6588 22.5922 9.78704C22.4819 9.91525 22.3982 10.0687 22.3422 10.2423C22.2867 10.4154 22.2585 10.6055 22.2585 10.8066C22.2585 11.2413 22.3734 11.5928 22.6004 11.8501C22.8277 12.1083 23.1692 12.2395 23.6145 12.2395C23.8777 12.2395 24.1478 12.185 24.3418 12.1069C24.3418 12.1069 24.379 12.0886 24.3628 12.0446L24.2367 11.6892V11.6892ZM25.1354 10.5176C25.1598 10.3489 25.2055 10.2084 25.276 10.099C25.3825 9.93287 25.5448 9.84174 25.7731 9.84174C26.0013 9.84174 26.1521 9.9333 26.2602 10.099C26.332 10.2084 26.3632 10.355 26.3756 10.5176H25.1354ZM26.8649 10.1465C26.8213 9.97862 26.7132 9.80898 26.6423 9.73137C26.5303 9.6084 26.4209 9.5225 26.3124 9.47452C26.1705 9.41259 26.0004 9.37162 25.8141 9.37162C25.597 9.37162 25.4 9.40869 25.2401 9.48543C25.0799 9.56219 24.9453 9.66686 24.8397 9.79725C24.7341 9.92717 24.6547 10.082 24.6042 10.2577C24.5534 10.4326 24.5277 10.6232 24.5277 10.8242C24.5277 11.0287 24.5543 11.2193 24.6068 11.3906C24.6598 11.5633 24.7444 11.7155 24.8589 11.8415C24.973 11.9684 25.12 12.0679 25.2961 12.1371C25.4709 12.2061 25.6833 12.2418 25.9273 12.2414C26.4295 12.2396 26.694 12.1254 26.803 12.0639C26.8222 12.053 26.8406 12.0338 26.8175 11.9789L26.7038 11.654C26.6867 11.6056 26.6384 11.6234 26.6384 11.6234C26.514 11.6705 26.3372 11.7552 25.9247 11.7543C25.6551 11.7539 25.4551 11.6728 25.3298 11.5458C25.2012 11.4159 25.1384 11.2249 25.1273 10.9554L26.8662 10.9571C26.8662 10.9571 26.9119 10.9563 26.9166 10.9109C26.9183 10.8918 26.9765 10.5464 26.8649 10.1465V10.1465ZM11.2095 10.5176C11.2342 10.3489 11.2796 10.2084 11.3501 10.099C11.4565 9.93287 11.6189 9.84174 11.8471 9.84174C12.0753 9.84174 12.2261 9.9333 12.3347 10.099C12.406 10.2084 12.4372 10.355 12.4496 10.5176H11.2095V10.5176ZM12.9385 10.1465C12.8949 9.97862 12.7872 9.80898 12.7163 9.73137C12.6043 9.6084 12.4949 9.5225 12.3864 9.47452C12.2445 9.41259 12.0745 9.37162 11.8881 9.37162C11.6715 9.37162 11.474 9.40869 11.3142 9.48543C11.1539 9.56219 11.0193 9.66686 10.9138 9.79725C10.8082 9.92717 10.7287 10.082 10.6783 10.2577C10.6279 10.4326 10.6018 10.6232 10.6018 10.8242C10.6018 11.0287 10.6283 11.2193 10.6809 11.3906C10.7339 11.5633 10.8185 11.7155 10.933 11.8415C11.0471 11.9684 11.1941 12.0679 11.3702 12.1371C11.545 12.2061 11.7574 12.2418 12.0014 12.2414C12.5035 12.2396 12.7681 12.1254 12.877 12.0639C12.8963 12.053 12.9146 12.0338 12.8916 11.9789L12.7783 11.654C12.7608 11.6056 12.7125 11.6234 12.7125 11.6234C12.5882 11.6705 12.4117 11.7552 11.9984 11.7543C11.7292 11.7539 11.5292 11.6728 11.404 11.5458C11.2753 11.4159 11.2125 11.2249 11.2014 10.9554L12.9403 10.9571C12.9403 10.9571 12.986 10.9563 12.9907 10.9109C12.9924 10.8918 13.0505 10.5464 12.9385 10.1465V10.1465ZM7.45089 11.6795C7.38294 11.6241 7.37354 11.6101 7.35047 11.5744C7.31627 11.5198 7.29876 11.4422 7.29876 11.3437C7.29876 11.1876 7.34918 11.0755 7.4539 11C7.45264 11.0005 7.60348 10.8671 7.95816 10.8718C8.20729 10.8753 8.42993 10.9128 8.42993 10.9128V11.7196H8.43035C8.43035 11.7196 8.20942 11.768 7.96071 11.7832C7.60687 11.805 7.4496 11.679 7.45089 11.6795V11.6795ZM8.14275 10.4327C8.07224 10.4275 7.98077 10.4244 7.87137 10.4244C7.72224 10.4244 7.57822 10.4436 7.44318 10.4807C7.30729 10.5177 7.18507 10.5758 7.07993 10.6525C6.97496 10.7289 6.88868 10.8291 6.8278 10.9451C6.76627 11.0619 6.73507 11.1997 6.73507 11.3541C6.73507 11.5111 6.76156 11.6476 6.81456 11.7593C6.86756 11.8713 6.94405 11.9646 7.04146 12.0366C7.13804 12.1086 7.25729 12.1613 7.39573 12.1931C7.53206 12.225 7.68675 12.2411 7.856 12.2411C8.0342 12.2411 8.21197 12.2263 8.38419 12.1962C8.5547 12.1665 8.7641 12.1233 8.82221 12.1098C8.86296 12.0998 8.90356 12.0892 8.94401 12.078C8.9872 12.0671 8.98377 12.02 8.98377 12.02L8.9829 10.3974C8.9829 10.0415 8.88975 9.7777 8.70642 9.61419C8.52392 9.4511 8.25513 9.36864 7.90771 9.36864C7.77735 9.36864 7.56753 9.387 7.44188 9.41271C7.44188 9.41271 7.06197 9.48772 6.90555 9.61244C6.90555 9.61244 6.87137 9.63426 6.89017 9.6831L7.01327 10.0206C7.02864 10.0642 7.07011 10.0494 7.07011 10.0494C7.07011 10.0494 7.08336 10.0442 7.09876 10.035C7.43339 9.84925 7.85645 9.85492 7.85645 9.85492C8.0445 9.85492 8.18894 9.89328 8.28636 9.96958C8.38122 10.0437 8.42951 10.1558 8.42951 10.3921V10.4671C8.27993 10.4453 8.14275 10.4327 8.14275 10.4327V10.4327ZM22.1676 9.51846C22.1808 9.47832 22.1531 9.45913 22.1415 9.45478C22.1121 9.44302 21.9642 9.41118 21.8501 9.40376C21.6317 9.39025 21.5104 9.42775 21.4018 9.47746C21.2941 9.52716 21.1745 9.60738 21.1078 9.69855V9.4827C21.1078 9.45261 21.0868 9.42861 21.0578 9.42861H20.612C20.583 9.42861 20.5621 9.45258 20.5621 9.4827V12.1292C20.5621 12.1589 20.586 12.1833 20.615 12.1833H21.0719C21.0859 12.1832 21.0993 12.1775 21.1091 12.1673C21.119 12.1572 21.1245 12.1435 21.1244 12.1292V10.8071C21.1244 10.6296 21.1437 10.4525 21.1822 10.3413C21.2198 10.2314 21.271 10.1434 21.3343 10.0801C21.398 10.0173 21.4702 9.97329 21.5492 9.94844C21.63 9.92313 21.7193 9.91486 21.7826 9.91486C21.8736 9.91486 21.9736 9.93882 21.9736 9.93882C22.0069 9.94274 22.0257 9.92181 22.0368 9.89086C22.0668 9.80975 22.1514 9.56684 22.1676 9.51846" fill="white"/>
<path id="Vector_3" d="M17.8787 8.2926C17.8231 8.27517 17.7727 8.26337 17.7069 8.25075C17.6402 8.23855 17.5607 8.23242 17.4706 8.23242C17.156 8.23242 16.9081 8.32313 16.7342 8.5019C16.5611 8.67984 16.4436 8.95064 16.3846 9.30692L16.3632 9.42683H15.9684C15.9684 9.42683 15.9205 9.42508 15.9103 9.47831L15.8457 9.84765C15.841 9.88255 15.856 9.90477 15.9021 9.90477H16.2864L15.8966 12.1253C15.8662 12.3041 15.8312 12.451 15.7923 12.5626C15.7542 12.6726 15.7171 12.755 15.6709 12.8151C15.6265 12.8727 15.5846 12.9154 15.5119 12.9403C15.4521 12.9608 15.3829 12.9704 15.3073 12.9704C15.2654 12.9704 15.2094 12.9634 15.1679 12.9547C15.1269 12.9463 15.1051 12.9372 15.0739 12.9237C15.0739 12.9237 15.0291 12.9063 15.0111 12.952C14.997 12.99 14.8944 13.2773 14.882 13.3127C14.8701 13.348 14.8872 13.3755 14.9089 13.3837C14.9602 13.4021 14.9982 13.4143 15.0679 13.4313C15.1645 13.4544 15.2461 13.4557 15.3226 13.4557C15.4824 13.4557 15.6286 13.4326 15.7495 13.3881C15.8709 13.3432 15.9769 13.2651 16.0709 13.1596C16.1722 13.0454 16.2358 12.9259 16.2966 12.7624C16.3568 12.601 16.4085 12.4004 16.4495 12.1667L16.8414 9.90477H17.4141C17.4141 9.90477 17.4623 9.90652 17.4722 9.85289L17.5371 9.48398C17.5414 9.44868 17.5269 9.42686 17.4803 9.42686H16.9243C16.9273 9.41424 16.9525 9.21447 17.0162 9.02657C17.0436 8.94677 17.0948 8.88178 17.138 8.83729C17.1808 8.79368 17.2299 8.76273 17.2838 8.74484C17.3389 8.72651 17.4017 8.71781 17.4705 8.71781C17.5227 8.71781 17.5743 8.72391 17.6132 8.73218C17.6671 8.74398 17.688 8.75008 17.7021 8.75446C17.759 8.77189 17.7667 8.75489 17.7778 8.727L17.9107 8.3546C17.9244 8.31439 17.8906 8.29738 17.8787 8.2926V8.2926ZM10.1105 12.1301C10.1105 12.1597 10.0896 12.1837 10.0605 12.1837H9.59938C9.57032 12.1837 9.5498 12.1597 9.5498 12.1301V8.3432C9.5498 8.31356 9.57032 8.28957 9.59938 8.28957H10.0605C10.0896 8.28957 10.1105 8.31356 10.1105 8.3432V12.1301Z" fill="white"/>
</g>
<defs>
<clipPath id="clip0_2715_11976">
<rect width="30" height="21.4286" fill="white" transform="translate(0 0.75)"/>
</clipPath>
</defs>
</svg>
