<svg width="48" height="48" viewBox="0 0 48 48" fill="none" xmlns="http://www.w3.org/2000/svg">
<g id="space_dashboard">
<mask id="mask0_2777_13701" style="mask-type:alpha" maskUnits="userSpaceOnUse" x="0" y="0" width="48" height="48">
<rect id="Bounding box" width="48" height="48" fill="#D9D9D9"/>
</mask>
<g mask="url(#mask0_2777_13701)">
<path id="space_dashboard_2" d="M22.8655 38.7555H22.8905V38.7305V9.2695V9.2445H22.8655H9.8845C9.72304 9.2445 9.57596 9.31203 9.44385 9.4438L9.4438 9.44384C9.31203 9.57596 9.2445 9.72304 9.2445 9.8845V38.1155C9.2445 38.277 9.31203 38.424 9.4438 38.5562L9.44385 38.5562C9.57596 38.688 9.72304 38.7555 9.8845 38.7555H22.8655ZM25.1095 38.7305V38.7555H25.1345H38.1155C38.277 38.7555 38.424 38.688 38.5562 38.5562L38.5562 38.5562C38.688 38.424 38.7555 38.277 38.7555 38.1155V23.969V23.944H38.7305H25.1345H25.1095V23.969V38.7305ZM25.1095 21.7V21.725H25.1345H38.7305H38.7555V21.7V9.8845C38.7555 9.72304 38.688 9.57596 38.5562 9.44384L38.5562 9.4438C38.424 9.31203 38.277 9.2445 38.1155 9.2445H25.1345H25.1095V9.2695V21.7ZM9.8845 40.975C9.10699 40.975 8.43646 40.6931 7.87168 40.1283C7.30689 39.5635 7.025 38.893 7.025 38.1155V9.8845C7.025 9.10699 7.30689 8.43646 7.87168 7.87168C8.43646 7.30689 9.10699 7.025 9.8845 7.025H38.1155C38.893 7.025 39.5635 7.30689 40.1283 7.87168C40.6931 8.43646 40.975 9.10699 40.975 9.8845V38.1155C40.975 38.893 40.6931 39.5635 40.1283 40.1283C39.5635 40.6931 38.893 40.975 38.1155 40.975H9.8845Z" fill="url(#paint0_linear_2777_13701)" stroke="url(#paint1_linear_2777_13701)" stroke-width="0.05"/>
</g>
</g>
<defs>
<linearGradient id="paint0_linear_2777_13701" x1="24" y1="7" x2="24" y2="41" gradientUnits="userSpaceOnUse">
<stop stop-color="#F26A1B"/>
<stop offset="1" stop-color="#F7B690"/>
</linearGradient>
<linearGradient id="paint1_linear_2777_13701" x1="24" y1="7" x2="24" y2="41" gradientUnits="userSpaceOnUse">
<stop stop-color="#F26A1B"/>
<stop offset="1" stop-color="#F7B690"/>
</linearGradient>
</defs>
</svg>
