<svg width="17" height="16" viewBox="0 0 17 16" fill="none" xmlns="http://www.w3.org/2000/svg">
<g id="SVG">
<path id="Vector" d="M13.3337 3.54598C13.3337 4.49202 11.1697 5.25894 8.50033 5.25894C5.83095 5.25894 3.66699 4.49202 3.66699 3.54598M13.3337 3.54598C13.3337 2.59993 11.1697 1.83301 8.50033 1.83301C5.83095 1.83301 3.66699 2.59993 3.66699 3.54598M13.3337 3.54598V12.4533C13.3337 13.3994 11.1697 14.1663 8.50033 14.1663C5.83095 14.1663 3.66699 13.3994 3.66699 12.4533V3.54598M13.3337 7.99968C13.3337 8.92016 11.1697 9.66635 8.50033 9.66635C5.83095 9.66635 3.66699 8.92016 3.66699 7.99968" stroke="#4A4340" stroke-width="1.5" stroke-linecap="round" stroke-linejoin="round"/>
</g>
</svg>
