<svg width="48" height="48" viewBox="0 0 48 48" fill="none" xmlns="http://www.w3.org/2000/svg">
<mask id="mask0_2777_13750" style="mask-type:alpha" maskUnits="userSpaceOnUse" x="0" y="0" width="48" height="48">
<rect width="48" height="48" fill="#D9D9D9"/>
</mask>
<g mask="url(#mask0_2777_13750)">
<path d="M8.9075 39.3463V37.0773H15.4845C13.1332 35.208 11.3813 33.2715 10.229 31.2678C9.07633 29.2638 8.5 26.9041 8.5 24.1888C8.5 20.9838 9.42567 18.0036 11.277 15.2483C13.1283 12.4933 15.7103 10.5491 19.023 9.4158V11.7658C16.6437 12.7095 14.6732 14.314 13.1115 16.5793C11.5498 18.8446 10.769 21.3811 10.769 24.1888C10.769 26.3478 11.237 28.3318 12.173 30.1408C13.109 31.9498 14.7322 33.694 17.0425 35.3733V28.9428H19.3115V39.3463H8.9075ZM37.2 24.8003C37.3153 22.8336 36.939 20.8413 36.071 18.8233C35.203 16.8053 33.5357 14.7463 31.069 12.6463V19.0578H28.8V8.6543H39.204V10.9233H32.577C35.4077 13.4106 37.3045 15.8415 38.2675 18.2158C39.2302 20.5901 39.6307 22.785 39.469 24.8003H37.2ZM31.931 43.7308C31.4153 43.7308 30.9658 43.5425 30.5825 43.1658C30.1992 42.7888 30.0075 42.3361 30.0075 41.8078V36.1963C30.0075 35.6683 30.1992 35.2158 30.5825 34.8388C30.9658 34.4618 31.4153 34.2733 31.931 34.2733H32.077V32.3043C32.077 31.2146 32.443 30.3005 33.175 29.5618C33.907 28.8235 34.8178 28.4543 35.9075 28.4543C36.9975 28.4543 37.9117 28.8235 38.65 29.5618C39.3883 30.3005 39.7575 31.2146 39.7575 32.3043V34.2733H39.8845C40.4128 34.2733 40.859 34.4618 41.223 34.8388C41.587 35.2158 41.769 35.6683 41.769 36.1963V41.8078C41.769 42.3361 41.5807 42.7888 41.204 43.1658C40.827 43.5425 40.3743 43.7308 39.846 43.7308H31.931ZM33.846 34.2733H37.9885V32.3043C37.9885 31.6966 37.7937 31.1978 37.404 30.8078C37.014 30.4181 36.5152 30.2233 35.9075 30.2233C35.2998 30.2233 34.8043 30.4181 34.421 30.8078C34.0377 31.1978 33.846 31.6966 33.846 32.3043V34.2733Z" fill="url(#paint0_linear_2777_13750)"/>
</g>
<defs>
<linearGradient id="paint0_linear_2777_13750" x1="25.1345" y1="8.6543" x2="25.1345" y2="43.7308" gradientUnits="userSpaceOnUse">
<stop stop-color="#F26A1B"/>
<stop offset="1" stop-color="#F7B690"/>
</linearGradient>
</defs>
</svg>
