<svg width="38" height="38" viewBox="0 0 38 38" fill="none" xmlns="http://www.w3.org/2000/svg">
<path d="M26.9805 0.0253906C27.758 0.0253906 28.429 0.307281 28.9941 0.87207C29.5587 1.43678 29.8408 2.10742 29.8408 2.88477V8.15918H35.1152C35.8926 8.15918 36.5632 8.44131 37.1279 9.00586C37.6927 9.57098 37.9746 10.242 37.9746 11.0195V35.1152C37.9746 35.8927 37.6927 36.5631 37.1279 37.1279C36.5631 37.6927 35.8927 37.9746 35.1152 37.9746H11.0195C10.242 37.9746 9.57098 37.6927 9.00586 37.1279C8.44131 36.5632 8.15918 35.8926 8.15918 35.1152V29.8408H2.88477C2.10742 29.8408 1.43678 29.5587 0.87207 28.9941C0.307281 28.429 0.0253906 27.758 0.0253906 26.9805V23.4863H2.24414V26.9805C2.24414 27.166 2.30437 27.3199 2.4248 27.4404C2.54531 27.5609 2.69953 27.6211 2.88477 27.6211H8.15918V11.0195C8.15918 10.242 8.44107 9.57098 9.00586 9.00586C9.57098 8.44107 10.242 8.15918 11.0195 8.15918H27.6211V2.88477C27.6211 2.69953 27.5609 2.54532 27.4404 2.4248C27.3199 2.30437 27.166 2.24414 26.9805 2.24414H23.5059V0.0253906H26.9805ZM11.0195 10.3789C10.8577 10.3789 10.7103 10.4463 10.5781 10.5781C10.4463 10.7103 10.3789 10.8577 10.3789 11.0195V35.1152C10.3789 35.2767 10.4464 35.4245 10.5781 35.5566C10.7102 35.6884 10.8578 35.7559 11.0195 35.7559H35.1152C35.2767 35.7559 35.4245 35.6884 35.5566 35.5566C35.6884 35.4245 35.7559 35.2767 35.7559 35.1152V11.0195C35.7559 10.8578 35.6884 10.7102 35.5566 10.5781C35.4245 10.4464 35.2767 10.3789 35.1152 10.3789H11.0195ZM2.24414 11.5254V18.3213H0.0253906V11.5254H2.24414ZM2.88477 0.0253906H6.37891V2.24414H2.88477C2.69953 2.24414 2.54532 2.30429 2.4248 2.4248C2.30429 2.54532 2.24414 2.69953 2.24414 2.88477V6.35938H0.0253906V2.88477C0.0253906 2.10726 0.307286 1.43685 0.87207 0.87207C1.43685 0.307286 2.10726 0.0253906 2.88477 0.0253906ZM18.3408 0.0253906V2.24414H11.5449V0.0253906H18.3408Z" fill="url(#paint0_linear_4551_31901)" stroke="url(#paint1_linear_4551_31901)" stroke-width="0.05"/>
<defs>
<linearGradient id="paint0_linear_4551_31901" x1="19" y1="0" x2="19" y2="38" gradientUnits="userSpaceOnUse">
<stop stop-color="#F26A1B"/>
<stop offset="1" stop-color="#F7B690"/>
</linearGradient>
<linearGradient id="paint1_linear_4551_31901" x1="19" y1="0" x2="19" y2="38" gradientUnits="userSpaceOnUse">
<stop stop-color="#F26A1B"/>
<stop offset="1" stop-color="#F7B690"/>
</linearGradient>
</defs>
</svg>
