<svg width="48" height="48" viewBox="0 0 48 48" fill="none" xmlns="http://www.w3.org/2000/svg">
<mask id="mask0_4660_12267" style="mask-type:alpha" maskUnits="userSpaceOnUse" x="0" y="0" width="48" height="48">
<rect width="48" height="48" fill="#D9D9D9"/>
</mask>
<g mask="url(#mask0_4660_12267)">
<path d="M8.99944 39V19.296L4.81894 22.496L3.46094 20.6925L23.9994 5.01953L44.5379 20.723L43.1799 22.496L23.9994 7.86553L11.2689 17.573V36.7305H22.7224C22.7764 37.1025 22.8239 37.4859 22.8649 37.8805C22.9059 38.2755 22.9776 38.6487 23.0799 39H8.99944ZM34.4609 45.7305H27.0764V43.346H30.3494C29.3674 42.4204 28.5764 41.3255 27.9764 40.0615C27.3764 38.7975 27.0764 37.4565 27.0764 36.0385C27.0764 33.7669 27.7738 31.7624 29.1684 30.025C30.5634 28.288 32.3276 27.1605 34.4609 26.6425V29.1075C32.9943 29.5922 31.7943 30.4622 30.8609 31.7175C29.9276 32.9725 29.4609 34.4129 29.4609 36.0385C29.4609 37.1335 29.6968 38.1682 30.1684 39.1425C30.6404 40.1169 31.2764 40.9655 32.0764 41.6885V38.346H34.4609V45.7305ZM38.1149 45.4345V42.95C39.6149 42.445 40.8233 41.5617 41.7399 40.3C42.6566 39.0384 43.1149 37.6179 43.1149 36.0385C43.1149 34.9435 42.8789 33.9089 42.4069 32.9345C41.9353 31.9602 41.2994 31.1115 40.4994 30.3885V33.7305H38.1149V26.346H45.4994V28.7305H42.2264C43.2084 29.6562 43.9994 30.7512 44.5994 32.0155C45.1994 33.2795 45.4994 34.6205 45.4994 36.0385C45.4994 38.3102 44.8019 40.3147 43.4069 42.052C42.0123 43.789 40.2483 44.9165 38.1149 45.4345Z" fill="url(#paint0_linear_4660_12267)"/>
</g>
<defs>
<linearGradient id="paint0_linear_4660_12267" x1="24.4802" y1="5.01953" x2="24.4802" y2="45.7305" gradientUnits="userSpaceOnUse">
<stop stop-color="#F26A1B"/>
<stop offset="1" stop-color="#F7B690"/>
</linearGradient>
</defs>
</svg>
