<svg width="16" height="20" viewBox="0 0 16 20" fill="none" xmlns="http://www.w3.org/2000/svg">
<path d="M1.28246 6.71962C0.64918 6.71931 0.135898 7.23384 0.135742 7.86665L0.136523 12.6691C0.136421 12.8198 0.166022 12.9691 0.223636 13.1083C0.281249 13.2475 0.365744 13.3741 0.472288 13.4806C0.578833 13.5872 0.705337 13.6717 0.844568 13.7293C0.983798 13.787 1.13302 13.8166 1.28371 13.8165C1.43438 13.8167 1.5836 13.7871 1.72282 13.7295C1.86204 13.6719 1.98853 13.5874 2.09504 13.4808C2.20155 13.3743 2.28599 13.2477 2.34351 13.1085C2.40104 12.9692 2.43052 12.82 2.43027 12.6693V7.86602C2.42994 7.56184 2.30886 7.27022 2.09364 7.05526C1.87841 6.8403 1.58665 6.71958 1.28246 6.71962ZM10.5314 2.40681L11.3318 0.945087C11.3522 0.908006 11.3571 0.864353 11.3453 0.823698C11.3336 0.783043 11.3062 0.748705 11.2692 0.728212C11.2321 0.708149 11.1886 0.703575 11.1481 0.715489C11.1076 0.727404 11.0735 0.754839 11.0532 0.791806L10.2446 2.26884C9.56434 1.96602 8.80293 1.79634 7.9973 1.79712C7.19387 1.79634 6.43277 1.96556 5.75527 2.26665L4.94574 0.793368C4.93586 0.774978 4.92243 0.758732 4.90622 0.74557C4.89001 0.732408 4.87136 0.722593 4.85133 0.716693C4.83131 0.710793 4.81031 0.708924 4.78955 0.711197C4.7688 0.713469 4.7487 0.719837 4.73043 0.729931C4.71198 0.739792 4.69568 0.753235 4.68249 0.769471C4.66929 0.785707 4.65947 0.804411 4.65359 0.824489C4.64772 0.844567 4.6459 0.865616 4.64825 0.886403C4.65061 0.907191 4.65709 0.927301 4.6673 0.945556L5.46809 2.40634C3.89465 3.21774 2.83152 4.76306 2.83246 6.53727L13.1634 6.53602C13.1637 4.76243 12.1025 3.22024 10.5314 2.40681ZM5.64762 4.66571C5.53272 4.66565 5.42256 4.61995 5.34136 4.53866C5.26017 4.45738 5.21459 4.34717 5.21465 4.23227C5.21471 4.11738 5.26041 4.00722 5.3417 3.92602C5.42298 3.84482 5.53319 3.79924 5.64809 3.79931C5.76299 3.79951 5.87313 3.84524 5.9544 3.92648C6.03567 4.00771 6.08143 4.11784 6.08168 4.23274C6.08147 4.3477 6.03564 4.45787 5.95425 4.53906C5.87286 4.62024 5.76257 4.6658 5.64762 4.66571ZM10.3517 4.66493C10.2948 4.66497 10.2385 4.6538 10.1859 4.63206C10.1334 4.61032 10.0856 4.57843 10.0454 4.53822C10.0052 4.49801 9.97325 4.45026 9.95148 4.39771C9.92972 4.34516 9.91853 4.28884 9.91855 4.23196C9.91917 4.11717 9.96499 4.00723 10.0461 3.92599C10.1272 3.84474 10.237 3.79872 10.3518 3.7979C10.4665 3.79884 10.5762 3.84495 10.6572 3.92624C10.7381 4.00752 10.7837 4.11742 10.7842 4.23212C10.7842 4.28895 10.7731 4.34523 10.7514 4.39775C10.7297 4.45027 10.6978 4.49799 10.6577 4.53819C10.6175 4.57839 10.5698 4.61027 10.5173 4.63202C10.4648 4.65377 10.4085 4.66495 10.3517 4.66493ZM2.87465 6.93634L2.87637 14.3793C2.87618 14.5401 2.90771 14.6993 2.96915 14.8478C3.03058 14.9964 3.12072 15.1313 3.23439 15.245C3.34807 15.3586 3.48305 15.4488 3.6316 15.5102C3.78016 15.5716 3.93937 15.6031 4.10012 15.6029L4.9334 15.6032L4.93434 18.1445C4.93418 18.7773 5.44855 19.2916 6.08043 19.2916C6.71418 19.2916 7.22762 18.7768 7.22777 18.1437L7.22715 15.6031L8.77543 15.6026L8.77605 18.1437C8.77605 18.776 9.29059 19.2915 9.92262 19.2902C10.5564 19.2907 11.0701 18.7759 11.07 18.1427L11.0692 15.6023L11.9054 15.6016C12.0662 15.6017 12.2254 15.57 12.3739 15.5085C12.5225 15.447 12.6574 15.3569 12.7711 15.2432C12.8848 15.1295 12.975 14.9946 13.0366 14.8461C13.0981 14.6975 13.1298 14.5384 13.1298 14.3776L13.1284 6.93462L2.87465 6.93634ZM15.8643 7.86493C15.8644 7.71431 15.8347 7.56516 15.7771 7.426C15.7194 7.28685 15.6349 7.16041 15.5284 7.05392C15.4219 6.94743 15.2954 6.86297 15.1563 6.80537C15.0171 6.74777 14.8679 6.71815 14.7173 6.71821C14.084 6.71759 13.5709 7.23181 13.5709 7.8654L13.5718 12.6682C13.5717 12.8188 13.6013 12.968 13.6589 13.1072C13.7165 13.2463 13.801 13.3728 13.9075 13.4793C14.014 13.5858 14.1404 13.6703 14.2796 13.7279C14.4188 13.7854 14.5679 13.815 14.7186 13.8149C14.8692 13.815 15.0184 13.7853 15.1575 13.7276C15.2967 13.67 15.4231 13.5854 15.5296 13.4789C15.6361 13.3723 15.7205 13.2458 15.7781 13.1066C15.8357 12.9674 15.8652 12.8182 15.8651 12.6676L15.8643 7.86493Z" fill="#231F20"/>
</svg>
