<svg width="20" height="20" viewBox="0 0 20 20" fill="none" xmlns="http://www.w3.org/2000/svg">
<g id="Frame">
<path id="Vector" d="M12.7347 1.47896C12.8867 1.66756 12.9642 1.92209 13.1186 2.43053L16.5023 13.5455C15.2314 12.8859 13.8673 12.4241 12.457 12.176L10.2542 4.73131C10.2368 4.6718 10.2006 4.61954 10.151 4.58238C10.1013 4.54522 10.041 4.52517 9.97898 4.52524C9.91698 4.52531 9.85668 4.54549 9.80713 4.58277C9.75759 4.62004 9.72147 4.67238 9.70422 4.73193L7.52781 12.1722C6.1114 12.4193 4.74119 12.8818 3.46484 13.5438L6.86453 2.42818C7.02016 1.92037 7.09766 1.66631 7.24953 1.47771C7.38378 1.31171 7.55819 1.18274 7.75625 1.10303C7.98016 1.01318 8.24625 1.01318 8.77734 1.01318H11.2059C11.7375 1.01318 12.0036 1.01318 12.2283 1.10365C12.4265 1.18335 12.6007 1.31257 12.7347 1.47896Z" fill="#DAD9D9"/>
<path id="Vector_2" d="M13.1394 14.074C12.5816 14.5514 11.4682 14.8767 10.1858 14.8767C8.61241 14.8767 7.29287 14.3865 6.94303 13.7273C6.81803 14.1051 6.78991 14.5373 6.78991 14.8139C6.78991 14.8139 6.70756 16.1693 7.65053 17.1123C7.65053 16.9959 7.67346 16.8807 7.718 16.7732C7.76254 16.6656 7.82782 16.568 7.91012 16.4857C7.99242 16.4034 8.09012 16.3381 8.19764 16.2936C8.30516 16.2491 8.4204 16.2262 8.53678 16.2262C9.37584 16.2262 9.37537 16.9579 9.37475 17.5525V17.605C9.37475 18.507 9.92584 19.2798 10.7096 19.6057C10.5888 19.3576 10.5262 19.0852 10.5265 18.8092C10.5265 17.9485 11.0312 17.6287 11.6183 17.2564C12.0854 16.9604 12.6041 16.6314 12.9612 15.9717C13.1539 15.6162 13.2546 15.2182 13.2541 14.8139C13.2543 14.5628 13.2157 14.3132 13.1394 14.074Z" fill="#DAD9D9"/>
<path id="Vector_3" d="M13.1394 14.074C12.5816 14.5514 11.4682 14.8767 10.1858 14.8767C8.61241 14.8767 7.29287 14.3865 6.94303 13.7273C6.81803 14.1051 6.78991 14.5373 6.78991 14.8139C6.78991 14.8139 6.70756 16.1693 7.65053 17.1123C7.65053 16.9959 7.67346 16.8807 7.718 16.7732C7.76254 16.6656 7.82782 16.568 7.91012 16.4857C7.99242 16.4034 8.09012 16.3381 8.19764 16.2936C8.30516 16.2491 8.4204 16.2262 8.53678 16.2262C9.37584 16.2262 9.37537 16.9579 9.37475 17.5525V17.605C9.37475 18.507 9.92584 19.2798 10.7096 19.6057C10.5888 19.3576 10.5262 19.0852 10.5265 18.8092C10.5265 17.9485 11.0312 17.6287 11.6183 17.2564C12.0854 16.9604 12.6041 16.6314 12.9612 15.9717C13.1539 15.6162 13.2546 15.2182 13.2541 14.8139C13.2543 14.5628 13.2157 14.3132 13.1394 14.074Z" fill="#DAD9D9"/>
</g>
</svg>
