<svg width="25" height="25" viewBox="0 0 25 25" fill="none" xmlns="http://www.w3.org/2000/svg">
<g id="icons8-express-js 1">
<path id="Vector" d="M24.8645 5.49999H24.4395C23.914 5.49999 23.419 5.74499 23.0995 6.16199L18.7495 11.8505L14.3995 6.16199C14.081 5.74499 13.5855 5.49999 13.0605 5.49999H12.6355L18.121 12.673L12.518 20H12.943C13.4685 20 13.9635 19.755 14.2825 19.338L18.75 13.496L23.2175 19.338C23.5365 19.755 24.0315 20 24.557 20H24.982L19.379 12.673L24.8645 5.49999ZM10.6445 17.121C9.3675 19.0615 6.8535 20.056 4.45 19.179C2.3355 18.4075 1 16.3055 1 14.0545V13.5H7H12.5V11.433C12.5 8.18049 10.091 5.33299 6.8525 5.02849C3.1365 4.67899 0 7.60499 0 11.25V14.0365C0 16.722 1.6075 19.2185 4.1345 20.128C7.436 21.316 10.9085 19.543 12.0825 16.5H11.7635C11.308 16.5 10.8945 16.7405 10.6445 17.121ZM1 11.25C1 8.35499 3.355 5.99999 6.25 5.99999C9.145 5.99999 11.5 8.35499 11.5 11.25V12.5H1V11.25Z" fill="#fff"/>
</g>
</svg>
