<svg width="16" height="17" viewBox="0 0 16 17" fill="none" xmlns="http://www.w3.org/2000/svg">
<g id="Figma - Original" clip-path="url(#clip0_723_17694)">
<path id="path0 fill 1" d="M5.22248 16.1607C6.66382 16.1607 7.83363 14.9909 7.83363 13.5496V10.9385H5.22248C3.78114 10.9385 2.61133 12.1083 2.61133 13.5496C2.61133 14.9909 3.78114 16.1607 5.22248 16.1607Z" fill="#0ACF83"/>
<path id="path1 fill 3" d="M2.61133 8.32744C2.61133 6.88611 3.78114 5.71631 5.22248 5.71631H7.83363V10.9385H5.22248C3.78114 10.9386 2.61133 9.76877 2.61133 8.32744Z" fill="#A259FF"/>
<path id="path1 fill 2" d="M2.61133 3.10527C2.61133 1.66394 3.78114 0.494141 5.22248 0.494141H7.83363V5.71634H5.22248C3.78114 5.71634 2.61133 4.54661 2.61133 3.10527Z" fill="#F24E1E"/>
<path id="path2 fill 1" d="M7.83398 0.494141H10.4451C11.8865 0.494141 13.0563 1.66394 13.0563 3.10527C13.0563 4.54661 11.8865 5.71634 10.4451 5.71634H7.83398V0.494141Z" fill="#FF7262"/>
<path id="path3 fill 1" d="M13.0563 8.32744C13.0563 9.76877 11.8865 10.9386 10.4451 10.9386C9.00379 10.9386 7.83398 9.76877 7.83398 8.32744C7.83398 6.88611 9.00379 5.71631 10.4451 5.71631C11.8865 5.71631 13.0563 6.88611 13.0563 8.32744Z" fill="#1ABCFE"/>
</g>
<defs>
<clipPath id="clip0_723_17694">
<rect width="15.6667" height="15.6667" fill="white" transform="translate(0 0.494141)"/>
</clipPath>
</defs>
</svg>
