<svg width="19" height="17" viewBox="0 0 19 17" fill="none" xmlns="http://www.w3.org/2000/svg">
<path d="M5.94328 14.7226C5.28234 14.2023 4.57765 13.7039 4.09484 13.0023C3.08078 11.7648 2.29953 10.3304 1.76672 8.82417C1.44328 7.84449 1.3339 6.79449 0.916717 5.8523C0.482342 5.16792 0.991717 4.42105 1.74015 4.20386C2.07297 4.1398 2.66047 3.82417 1.95265 4.05074C1.31828 4.51636 1.25734 3.6273 1.90734 3.57105C2.35109 3.51167 2.51515 3.14917 2.36359 2.82105C1.88703 2.51011 3.51984 2.16792 2.69797 1.70386C1.84172 0.780424 3.89484 0.602299 3.38859 1.6523C3.26828 2.45855 4.82297 1.50386 4.46203 2.43511C4.82922 2.88199 5.83703 2.53667 5.81047 3.1648C6.34484 3.2023 6.52922 3.65074 7.02922 3.68511C7.54953 3.91949 8.49172 4.10542 8.66828 4.69136C8.15265 5.09917 6.95734 3.84761 6.90109 4.97886C7.05734 6.64917 7.01672 8.36949 7.62765 9.96011C7.91672 10.9226 8.61672 11.6804 9.24953 12.4304C9.85578 13.1648 10.6745 13.682 11.512 14.1179C12.2448 14.4632 13.0355 14.6929 13.8355 14.8367C14.1589 14.5882 14.7323 13.6679 15.237 14.0554C15.262 14.4929 14.2339 14.9679 15.1886 14.921C15.7495 14.7523 16.1386 15.3539 16.6011 14.8101C17.0261 15.3148 18.3698 14.4882 18.0667 15.5179C17.6573 15.782 17.0605 15.6226 16.6495 15.9867C15.973 15.6492 15.4355 16.2882 14.687 16.2085C13.8558 16.357 13.0105 16.4179 12.1667 16.4179C10.7839 16.3085 9.3714 16.2632 8.05734 15.782C7.31672 15.5664 6.59328 15.1445 5.94328 14.7226ZM7.11047 15.2289C7.8339 15.5414 8.54172 15.871 9.3339 15.9711C10.5917 16.146 11.8917 16.4148 13.1542 16.1695C12.5823 15.9117 11.9917 16.2695 11.423 15.9851C10.7402 16.132 10.0073 15.9476 9.31359 15.857C8.52453 15.5054 7.67297 15.2632 6.9339 14.807C6.01047 14.4695 7.41203 15.2398 7.66047 15.3023C8.23703 15.6304 7.02609 15.1335 6.85422 14.9976C6.3714 14.7257 6.3089 14.7835 6.80578 15.0585C6.90578 15.1164 7.00578 15.1789 7.11047 15.2289ZM5.7339 14.2554C6.43547 14.5148 5.73078 13.7617 5.41047 13.8054C5.26828 13.5585 4.86672 13.4023 5.14953 13.2695C4.64015 13.446 4.61515 12.5976 4.37609 12.7179C3.83703 12.5476 4.16672 11.9445 3.52453 11.5742C3.46672 11.1835 2.88703 10.8461 2.70265 10.257C2.6214 9.95543 2.04797 9.09136 2.39953 9.89605C2.69953 10.671 3.22609 11.3351 3.66515 11.9976C4.00578 12.6289 4.4089 13.2882 5.02765 13.682C5.23703 13.8851 5.43859 14.1929 5.7339 14.2554ZM3.71359 12.0382C3.73859 11.932 3.84172 12.2664 3.71359 12.0382V12.0382ZM6.57297 14.5664C6.34953 14.4789 6.72922 14.4976 6.57297 14.5664V14.5664ZM6.95422 14.7054C6.78078 14.8132 6.91515 14.5132 6.95422 14.7054V14.7054ZM7.43078 14.9039C7.08078 14.7679 7.65734 14.6882 7.43078 14.9039V14.9039ZM8.2464 15.3585C7.80578 15.282 8.38547 15.1554 8.2464 15.3585V15.3585ZM6.67922 14.2664C6.22453 14.2632 7.03078 14.0382 6.67922 14.2664V14.2664ZM7.03703 14.4445C6.9089 14.4976 7.02609 14.3242 7.03703 14.4445V14.4445ZM8.82297 15.5585C9.11047 15.7398 10.4995 15.9554 9.62922 15.6335C9.4839 15.6648 8.01515 15.2179 8.82297 15.5585ZM5.98703 13.3507C5.54172 13.2179 5.9589 13.2304 5.98703 13.3507V13.3507ZM6.81828 13.8351C6.36984 13.7195 7.03547 13.6851 6.81828 13.8351V13.8351ZM7.51828 14.2648C7.01359 14.1476 7.82765 14.1476 7.51828 14.2648V14.2648ZM5.64797 12.982C5.98547 13.2398 7.00734 13.0148 6.16359 12.8273C5.78078 12.6226 4.91515 12.4835 5.50422 12.9507L5.64797 12.982ZM7.99172 14.4132C7.40265 14.2757 8.13234 14.1742 7.99172 14.4132V14.4132ZM7.27922 13.846C8.10265 14.0789 6.58703 13.3242 7.07609 13.7601L7.18547 13.8101L7.27922 13.846ZM8.70734 14.6711C8.00265 14.5648 9.48703 14.6789 8.70734 14.6711V14.6711ZM5.34797 12.5304C5.15578 12.5429 5.31828 12.3851 5.34797 12.5304V12.5304ZM10.0261 15.4117C9.77297 15.607 10.048 15.1492 10.0261 15.4117V15.4117ZM6.67922 13.346C6.43547 13.3398 6.63234 13.2085 6.67922 13.346V13.346ZM5.42297 12.4398C4.8089 12.2429 5.86984 12.4132 5.42297 12.4398V12.4398ZM3.93234 11.4773C3.44484 11.0914 3.87609 11.2617 3.93234 11.4773V11.4773ZM7.84328 13.9585C7.76203 13.8648 7.80422 13.9789 7.84328 13.9585V13.9585ZM10.2777 15.4523C10.1448 15.507 10.2698 15.3101 10.2777 15.4523V15.4523ZM7.62765 13.7367C7.2464 13.6804 7.6714 13.5523 7.62765 13.7367V13.7367ZM5.81515 12.5867C5.28078 12.3617 6.14797 12.5507 5.81515 12.5867V12.5867ZM8.88234 14.4929C8.37609 14.3929 9.40109 14.2867 8.88234 14.4929V14.4929ZM7.28703 13.4101C7.88547 13.4867 6.57453 13.0023 7.15578 13.3664L7.28703 13.4101ZM9.36672 14.6898C9.92609 14.3554 9.74172 15.4726 10.3152 14.7835C10.8808 14.371 9.82609 15.2945 10.523 14.857C11.0277 14.5195 11.7714 15.0164 12.2417 15.1789C12.5792 15.1617 12.9089 15.471 13.2558 15.2835C13.923 15.1039 11.9495 15.0164 12.4667 14.6976C11.8558 14.8757 11.4042 14.4851 11.1042 14.0945C10.4183 13.9367 9.62609 13.5867 9.2839 12.9789C9.14484 12.7507 9.48547 13.0117 9.16359 12.6382C8.75109 12.271 8.54484 11.8539 8.26828 11.407C7.93703 11.2304 7.89797 10.7101 7.86515 11.3898C7.86828 10.9617 7.46515 10.6726 7.36672 10.7929C7.36515 10.3804 7.79797 10.5867 7.49484 10.282C7.42922 9.85386 7.21515 9.40855 7.15109 8.92574C7.05109 8.69292 7.13703 8.19449 6.8089 8.72105C6.69015 9.27886 6.76984 8.03667 6.95578 8.44605C7.19953 8.02886 6.86828 8.0773 6.85422 8.13511C7.01359 7.78199 6.95422 7.28199 6.81203 7.47261C6.8964 7.09917 6.9464 6.09761 6.68547 6.27574C6.84328 5.88511 6.98547 4.48824 6.29953 5.02105C6.0214 5.02574 5.54172 5.12105 5.31359 5.23511C6.02609 5.6273 5.24172 5.3773 4.95109 5.3148C4.91359 5.67886 4.62609 5.52105 4.26672 5.52417C4.84015 5.59449 3.98703 6.11011 3.6589 5.91011C3.23078 6.1148 4.02765 6.62417 3.66672 6.78199C3.71047 7.01949 3.01203 6.69605 3.06672 7.24449C2.65265 7.06949 3.01047 7.89449 3.21672 7.61636C3.9214 7.80699 3.71359 8.24292 3.73078 8.65542C3.61515 8.89605 3.16359 8.0898 3.63078 8.1273C3.26203 7.52886 3.22297 7.91167 2.91828 8.18824C2.84797 8.20855 3.69797 8.58355 3.16359 8.76949C3.6339 8.84292 3.64797 9.25386 3.74328 9.51324C4.02609 9.80699 3.96828 9.18824 4.30578 9.54136C4.09172 9.22574 3.17297 8.65386 3.91203 8.83667C3.90734 8.51949 3.77765 8.26324 4.00578 8.26949C4.23078 7.86324 3.76984 9.27261 4.27609 8.75542C4.41672 8.69449 4.45109 8.34917 4.70265 8.78824C5.06828 9.14761 4.83547 9.40855 4.31828 9.07886C4.41047 9.39292 5.0089 9.50386 4.8964 9.99449C5.01515 10.4257 5.18234 10.2664 5.32765 10.2414C5.44172 10.6601 5.50578 10.3523 5.51203 10.1523C6.0339 10.2648 5.91203 10.5726 6.07453 10.7882C6.4339 10.9507 5.56047 9.68824 6.17765 10.4085C6.82765 10.9945 6.4214 11.2398 5.83859 11.146C6.20734 11.1164 6.32609 11.6445 6.78703 11.6257C7.20734 11.8257 7.49328 12.5945 6.76828 12.2742C6.51672 12.0476 5.62609 11.7679 6.35422 12.1992C7.02609 12.5101 7.5589 12.696 8.20734 13.0867C8.66984 13.4179 8.8714 13.796 9.0464 13.871C8.65734 14.057 7.87297 13.7226 8.45578 13.6195C8.09172 13.5539 7.6839 13.3695 8.03234 13.8226C8.32765 14.0695 9.08078 14.0445 9.21672 14.071C9.10265 14.3226 8.90578 14.3429 9.2214 14.3617C8.86984 14.5523 9.3339 14.582 9.36672 14.6898ZM8.64797 12.6585C8.4339 12.4351 8.37922 12.0164 8.61047 12.3804C8.72765 12.4273 8.99015 13.0648 8.64797 12.6585ZM10.9902 14.146C10.9933 14.2476 11.123 14.1367 10.9902 14.146V14.146ZM8.31047 12.1101C8.30109 11.771 8.38703 12.371 8.31047 12.1101V12.1101ZM8.07765 11.796C7.80734 11.2773 8.41672 11.9445 8.07765 11.796V11.796ZM5.25578 9.84917C5.3339 10.1195 5.41359 9.80699 5.25578 9.84917V9.84917ZM7.50109 11.0664C7.59797 10.7023 7.61515 11.3726 7.50109 11.0664V11.0664ZM5.91515 9.96324C5.80422 9.76167 6.14953 10.1523 5.91515 9.96324V9.96324ZM7.27609 10.3992C7.0214 9.82886 7.45734 10.0867 7.33234 10.4929L7.27609 10.3992ZM4.92922 8.83511C4.81515 8.64761 4.62765 8.09761 4.68703 7.93042C4.74172 8.20386 5.26828 9.10699 4.94484 8.30386C4.58859 7.63199 5.3714 8.52261 5.45265 8.6898C5.49015 8.85699 5.23234 8.64449 5.40734 9.03511C5.08859 8.5898 5.21984 9.28199 4.92922 8.83511ZM4.20422 8.33511C4.2339 7.89917 4.36984 8.63355 4.20422 8.33511V8.33511ZM4.52922 8.44761C4.68547 8.11792 4.79328 8.90542 4.52922 8.44761V8.44761ZM3.74484 7.8398C3.47453 7.57105 3.27922 7.32417 3.75734 7.67261C3.94172 7.68042 3.34797 7.11011 3.80109 7.49136C4.27922 7.57886 4.03703 8.27417 3.74484 7.8398ZM4.15734 7.82886C4.24015 7.98199 4.31359 7.67417 4.15734 7.82886V7.82886ZM4.41047 7.91011C4.17297 7.4648 4.69953 8.09761 4.41047 7.91011V7.91011ZM3.90734 7.42886C3.12297 6.73042 4.89328 7.79449 4.03547 7.55855L3.90734 7.42886ZM6.15578 8.73511C5.81515 8.53199 6.06515 7.30074 6.18078 8.14292C6.51047 8.03667 6.16203 8.5773 6.4089 8.57261C6.3714 8.91324 6.26047 9.03667 6.15578 8.73511ZM6.98859 9.2273C7.0214 8.85542 7.0589 9.48042 6.98859 9.2273V9.2273ZM6.84328 9.08355C6.84797 9.27105 6.88078 8.92574 6.84328 9.08355V9.08355ZM4.06047 7.19917C3.55578 6.50386 5.52609 7.90386 4.3839 7.37574C4.26359 7.34292 4.11984 7.33199 4.06047 7.19917ZM5.66359 8.04761C5.61515 7.46167 5.76984 8.14449 5.66359 8.04761V8.04761ZM6.87922 8.82886C6.88703 9.04917 6.97297 8.49449 6.87922 8.82886V8.82886ZM4.13859 6.93355C4.43859 6.86949 5.38078 7.46011 4.51515 7.1023C4.41828 6.99449 4.21359 7.04292 4.13859 6.93355ZM6.71203 8.21636C6.74328 7.61636 6.89172 7.85855 6.71359 8.3023L6.71203 8.21636ZM4.36047 6.72417C4.48234 6.54449 4.03547 5.9148 4.42453 6.49761C4.59328 6.63042 4.91047 6.72105 4.62922 6.7773C5.07297 7.16792 4.52297 6.88355 4.36047 6.72417ZM6.58547 8.02886C6.6589 8.42886 6.66984 7.34605 6.58547 8.02886V8.02886ZM4.10578 6.09449C4.15578 6.21792 4.19953 6.05386 4.10578 6.09449V6.09449ZM4.68547 6.4398C4.83547 6.12574 4.96203 6.78824 4.68547 6.4398V6.4398ZM6.3214 7.34917C6.3214 7.22886 6.35265 7.52417 6.3214 7.34917V7.34917ZM6.22765 7.1398C6.00109 6.57886 6.43859 7.43667 6.22765 7.1398V7.1398ZM6.08859 6.77261C6.04953 6.54136 6.21828 7.06324 6.08859 6.77261V6.77261ZM6.31515 6.40386C6.1589 6.12886 6.51203 5.19292 6.55109 5.77417C6.38703 6.22574 6.50422 6.47886 6.61828 5.87261C6.83078 5.39449 6.57297 6.81324 6.31515 6.40386ZM6.54797 5.01167C6.56359 5.11324 6.61672 4.92886 6.54797 5.01167V5.01167ZM6.1589 12.6867C6.06672 12.6054 6.16984 12.7382 6.1589 12.6867V12.6867ZM6.96047 13.0929C7.40734 13.2085 7.40422 13.0242 7.00109 12.9695C6.7839 12.7679 6.09953 12.5539 6.71203 12.9445C6.75422 13.046 6.88234 13.0429 6.96047 13.0929ZM5.37609 12.0398C5.6214 12.2242 6.30265 12.5585 5.72609 12.1101C5.91984 11.8851 5.35422 11.7648 5.54172 11.6132C5.06359 11.321 5.16515 11.3476 5.49953 11.357C4.92609 11.1007 5.58234 11.1195 5.55109 10.9882C5.32922 10.9445 4.45265 10.5976 4.96828 11.0164C4.44328 10.7492 4.84328 11.1164 4.6839 11.0773C4.1464 10.9304 5.16203 11.4867 4.59953 11.3476C4.90734 11.5914 5.42765 11.9726 4.72922 11.6054C4.64015 11.7382 5.23078 11.9398 5.37609 12.0398ZM6.21515 12.5226C5.71515 12.1195 7.23547 12.8507 6.21515 12.5226V12.5226ZM10.512 15.1242C10.3714 15.2976 10.5245 14.921 10.512 15.1242V15.1242ZM10.9527 15.3101C11.1886 15.082 10.962 15.6742 11.3433 15.2539C11.348 14.9539 11.3323 14.7757 10.9058 15.1414C10.7886 15.207 10.7355 15.4835 10.9527 15.3101ZM3.94484 10.9085C3.43703 10.6257 3.8714 10.6242 3.94484 10.9085V10.9085ZM4.41515 11.2179C3.79015 10.9554 4.24015 10.9273 4.41515 11.2179V11.2179ZM7.09797 12.8351C7.36047 13.0679 8.30109 13.0054 7.41515 12.8632C7.28547 12.6695 6.5839 12.7164 7.09797 12.8351ZM10.7855 15.1117C10.3948 15.2632 11.187 14.7742 10.7855 15.1117V15.1117ZM11.623 15.6882C11.4495 15.7351 11.6261 15.5804 11.623 15.6882V15.6882ZM11.6245 15.5367C11.1917 15.5648 12.0714 15.0632 11.6245 15.5367V15.5367ZM2.7839 9.93824C2.40422 9.39605 2.54797 9.1523 2.18078 8.70855C2.11047 8.36949 1.55109 7.60074 1.89172 8.4148C2.20265 8.89136 2.29484 9.62886 2.7839 9.93824ZM11.4839 15.3867C11.148 15.1554 12.3058 14.8554 11.4839 15.3867V15.3867ZM12.1105 15.632C11.8511 15.5585 12.523 15.2789 12.1105 15.632V15.632ZM3.80422 10.3085C3.50109 10.2867 3.92297 10.1335 3.80422 10.3085V10.3085ZM11.9808 15.4632C12.3792 15.207 11.8886 15.246 11.9089 15.4867L11.9808 15.4632ZM6.57765 12.0585C6.36672 12.0726 6.56359 11.8851 6.57765 12.0585V12.0585ZM6.91203 12.2507C6.74797 12.2835 6.80422 12.0351 6.91203 12.2507V12.2507ZM12.6198 15.6367C13.1308 15.2679 12.3105 15.5664 12.5136 15.707L12.6198 15.6367ZM12.423 15.5429C11.9855 15.6976 12.8402 15.1945 12.423 15.5429V15.5429ZM13.4214 16.207C13.0823 16.1476 13.7011 16.021 13.4214 16.207V16.207ZM4.06047 10.182C4.4339 10.2664 5.55422 11.1023 4.89328 10.2398C4.55422 10.1398 4.75734 9.31168 4.41203 9.45855C4.64328 9.84605 4.60265 10.0101 4.11515 9.76636C3.50422 9.46793 3.7714 9.91324 3.89172 10.0367C3.72922 10.0757 4.1089 10.1789 4.06047 10.182ZM2.35734 8.83667C2.42453 8.56011 1.74015 7.31324 2.0339 8.21167C2.14015 8.40074 2.12922 8.75699 2.35734 8.83667ZM5.4839 10.7648C5.29172 10.6039 5.47453 10.7414 5.4839 10.7648V10.7648ZM5.95734 10.8757C5.4339 10.7554 5.95734 10.582 5.95734 10.8757V10.8757ZM10.0667 13.4648C9.75734 13.4617 9.98859 13.2648 10.0667 13.4648V13.4648ZM10.2636 13.6101C10.1511 13.632 10.2355 13.4976 10.2636 13.6101V13.6101ZM11.8933 14.6351C11.698 14.621 12.0495 14.5195 11.8933 14.6351V14.6351ZM3.20734 9.05386C2.72765 8.93042 3.65578 8.88042 3.20734 9.05386V9.05386ZM9.70578 13.1476C9.41984 13.2195 9.69953 12.857 9.70578 13.1476V13.1476ZM3.03078 8.64136C2.76359 8.5773 3.31828 8.54449 3.03078 8.64136V8.64136ZM3.86515 9.04605C3.77765 9.08199 3.86047 8.95074 3.86515 9.04605V9.04605ZM14.0558 15.2945C14.4261 15.2195 15.2698 15.4836 15.4058 15.196C14.9558 15.1851 13.8511 14.8789 13.7995 15.2679L13.898 15.2835L14.0558 15.2945ZM4.13078 9.11324C3.90265 9.1023 4.13859 8.81949 4.13078 9.11324V9.11324ZM1.93547 7.5898C1.55578 7.50542 1.83547 7.03042 1.93547 7.5898V7.5898ZM2.4589 7.72105C1.97922 7.56011 2.46515 7.54136 2.4589 7.72105V7.72105ZM2.75734 7.86792C2.6714 7.79917 2.69015 7.95699 2.75734 7.86792V7.86792ZM4.64172 9.07574C4.43078 9.01636 4.73078 8.99449 4.64172 9.07574V9.07574ZM2.5589 7.53667C1.95265 7.47417 2.50734 7.11324 2.5589 7.53667V7.53667ZM1.48547 6.8398C1.38078 6.91324 1.46984 6.64449 1.48547 6.8398V6.8398ZM1.64484 6.71949C1.50734 6.74917 1.61828 6.48824 1.64484 6.71949V6.71949ZM2.52765 7.24605C2.90109 7.09917 1.84797 6.94292 2.45109 7.21792L2.52765 7.24605ZM14.3386 14.5414C14.0355 14.4742 14.5777 14.3226 14.3386 14.5414V14.5414ZM15.7652 15.282C15.5245 15.3179 15.8605 14.9992 15.7652 15.282V15.282ZM2.61672 6.78355C2.3214 6.83824 2.65734 6.51011 2.61672 6.78355V6.78355ZM1.36203 5.94292C1.29484 5.55699 1.30422 4.8773 1.94953 5.10699C1.08859 5.27886 2.5464 6.1773 2.36203 5.46792C2.72453 5.48511 3.06984 5.25386 2.88078 5.60542C3.59484 5.5273 4.08859 4.90855 4.77765 4.99449C5.31515 4.92261 5.90109 4.86949 6.47922 4.65386C6.95422 4.61949 7.41203 4.10699 7.15265 3.80386C6.50422 3.74917 5.82453 3.83042 5.1089 3.97261C4.31515 4.13824 3.59328 4.45074 2.79172 4.58667C2.01047 4.69136 2.94797 4.87574 2.72453 4.91636C2.31672 5.05699 3.21047 5.15386 2.6714 5.3023C2.33859 5.23824 1.99172 5.12417 2.1339 4.77417C1.38547 4.87105 0.727654 5.18199 1.31984 5.94292H1.36203ZM3.16515 5.02417C3.34015 4.3773 4.10422 5.55542 3.45265 5.11011C3.37453 5.05074 3.2464 5.00386 3.16515 5.02417ZM3.19953 4.71011C3.3339 4.81636 3.45265 4.52261 3.19953 4.71011V4.71011ZM3.5214 4.71636C3.54484 4.41949 4.25734 4.87417 3.63859 4.82261L3.5214 4.71636ZM3.96047 4.53824C4.00734 4.70542 4.1214 4.35074 3.96047 4.53824V4.53824ZM4.07297 4.46324C4.34015 4.14136 5.58703 4.25855 4.67453 4.43199C4.43078 4.24761 4.24328 4.54136 4.07297 4.46324ZM5.70109 4.21324C5.66047 3.33511 6.51047 4.52417 5.70109 4.21324V4.21324ZM6.16359 4.21011C6.33234 3.76792 6.81984 4.03199 6.24172 4.12105C6.25422 4.16792 6.22453 4.34917 6.16359 4.21011ZM2.43547 6.55699C1.89953 6.28824 2.94015 6.24761 2.43547 6.55699V6.55699ZM2.8089 6.66011C2.42453 6.58355 2.98547 6.47261 2.8089 6.66011V6.66011ZM1.7089 5.88042C1.36828 5.79605 1.99797 5.65855 1.7089 5.88042V5.88042ZM16.6073 15.2007C16.387 15.3164 16.6152 14.9429 16.6073 15.2007V15.2007ZM15.0933 14.1679C14.8995 14.1929 15.137 13.871 15.0933 14.1679V14.1679ZM17.0245 15.3007C17.4277 15.3023 18.2464 15.1757 17.3683 15.1757C17.2308 15.196 16.5667 15.1929 17.0245 15.3007ZM3.13703 6.47886C3.46359 6.45699 3.64797 6.11949 3.07297 6.13824C2.1839 6.04605 3.85734 6.44292 2.9589 6.32886C2.83859 6.40855 3.12922 6.50074 3.13703 6.47886ZM3.42453 6.62417C3.32297 6.73511 3.39015 6.4148 3.42453 6.62417V6.62417ZM3.76515 5.7148C3.56828 5.66792 3.90578 5.5398 3.76515 5.7148V5.7148ZM2.67922 3.9023C3.26203 3.70386 4.05734 3.48199 4.33234 3.99917C4.05265 3.66324 4.21984 3.33042 4.4839 3.82417C4.85734 4.32261 5.04484 3.59761 4.80109 3.43042C5.07765 3.77417 5.39328 3.93667 4.98703 3.4523C5.42922 2.92105 4.10265 3.52261 3.80109 3.51636C3.65734 3.58042 2.30422 3.86011 2.67922 3.9023ZM3.0214 3.24917C3.35422 2.99917 4.16984 3.39917 3.6464 3.00074C3.59484 2.95386 2.49797 3.3023 3.0214 3.24917ZM4.23234 3.29917C4.6214 3.30855 4.06515 2.7773 4.52765 3.01792C4.45109 2.76949 3.98859 2.72261 3.76203 2.62417C3.6339 2.85074 4.0214 3.3023 4.23234 3.29917ZM3.2339 2.19917C2.99797 2.29292 3.36828 2.01792 3.2339 2.19917V2.19917ZM3.72765 2.31792C4.35422 2.23511 3.56828 2.04917 3.60109 2.31167L3.72765 2.31792ZM2.80422 1.59605C2.36359 1.01949 3.6339 1.69292 3.18547 1.0898C2.8089 0.789799 2.4464 1.4273 2.80422 1.59605ZM8.46203 4.64292C8.66359 4.28511 7.62765 4.16011 8.32609 4.51636C8.39172 4.53824 8.37609 4.66792 8.46203 4.64292Z" fill="#231F20"/>
</svg>
