<svg width="20" height="20" viewBox="0 0 20 20" fill="none" xmlns="http://www.w3.org/2000/svg">
<g id="Frame">
<path id="Vector" d="M6.13544 17.0265L6.09106 16.9379C6.00247 16.7606 6.00247 16.5832 6.04685 16.3615H1.25919L8.35216 3.77149L11.3225 9.13556L12.2976 8.42618L9.32731 3.06212C9.2831 2.97353 8.92841 2.44165 8.35216 2.44165C8.08606 2.44165 7.68716 2.53024 7.37685 3.10665L0.195282 15.8296C0.150907 15.9624 -0.159405 16.539 0.106532 17.0265C0.283876 17.2924 0.549814 17.5585 1.17059 17.5585H7.19966C6.57888 17.5585 6.26856 17.2924 6.1356 17.0265H6.13544ZM19.7893 15.8738L14.0264 5.5004C13.9378 5.41165 13.6273 4.83524 13.0511 4.83524C12.7851 4.83524 12.3861 4.96837 12.0758 5.50024L11.3222 6.74149V9.1354L13.0511 6.16509L18.7698 16.3613H16.5975C16.6339 16.5724 16.6029 16.7896 16.5089 16.9821L16.4645 17.0263C16.1986 17.514 15.5336 17.5584 15.4448 17.5584H18.814C18.947 17.5584 19.5676 17.514 19.8781 17.0263C20.0109 16.8048 20.0997 16.4057 19.7893 15.8738ZM16.6418 17.0265V16.9821L16.6862 16.8935C16.7304 16.7162 16.7748 16.5388 16.7304 16.3615L16.5533 15.8296L12.0312 7.93868L11.3664 6.74181H11.322L10.657 7.93868L6.13528 15.8296L5.95794 16.3615C5.91504 16.5869 5.94617 16.8202 6.04669 17.0265C6.22403 17.2924 6.48997 17.5585 7.11075 17.5585H15.5336C15.6665 17.5585 16.3315 17.5142 16.6418 17.0265ZM11.3222 9.1354L15.445 16.3615H7.19935L11.3222 9.1354Z" fill="#DAD9D9"/>
</g>
</svg>
