<svg width="20" height="20" viewBox="0 0 20 20" fill="none" xmlns="http://www.w3.org/2000/svg">
<g id="Frame">
<path id="Vector" d="M12.1462 2.39369L10.8327 2.43092L6.91178 2.4413C6.17143 2.44618 5.48844 2.83986 5.11307 3.47767L2.73087 8.20912L2.75193 8.18287C2.30612 8.86137 2.26866 9.78215 2.68876 10.4851L5.17594 14.6135C5.55619 15.2465 6.15372 15.6536 6.98807 15.6237C8.75443 15.5608 9.5308 15.5608 9.5308 15.5608L14.9477 17.5853L14.8073 17.4459L14.9172 17.553C15.0118 17.6445 15.1656 17.5347 15.1027 17.4218L13.708 14.6776L16.2947 9.99379C16.6866 9.18507 16.8269 8.47767 16.44 7.76661L15.8894 6.75343L15.6038 6.23341L15.4927 6.03077L15.4823 6.04237L13.9845 3.4441C13.6067 2.78676 12.9036 2.38514 12.1462 2.39369ZM14.9477 17.5853L14.9489 17.5872V17.5866L14.9477 17.5853ZM6.99418 2.90516L12.5868 9.05507L11.5859 10.0695L12.1791 14.8476L6.39542 9.1277L7.82548 7.74952L6.98441 2.9308L3.07603 7.77974L6.99418 2.90516ZM12.1919 14.8699V14.883L12.187 14.8839V14.8763L12.1919 14.8699Z" fill="#DAD9D9"/>
</g>
</svg>
