<svg width="17" height="20" viewBox="0 0 17 20" fill="none" xmlns="http://www.w3.org/2000/svg">
<g id="Frame" clip-path="url(#clip0_1091_7416)">
<path id="Vector" fill-rule="evenodd" clip-rule="evenodd" d="M16.2532 15.0497C16.4293 17.3045 16.4293 18.3615 16.4293 19.5152H11.1992C11.1992 19.2639 11.2036 19.0339 11.2082 18.8008C11.2224 18.0761 11.2371 17.3205 11.1194 15.7944C10.9638 13.5602 9.99931 13.0638 8.2258 13.0638H6.65454H0V8.99879H8.47472C10.7149 8.99879 11.835 8.31903 11.835 6.51927C11.835 4.93673 10.7149 3.9777 8.47472 3.9777H0V0H9.40814C14.4797 0 17 2.38933 17 6.20606C17 9.06085 15.2265 10.9227 12.8308 11.233C14.8531 11.6364 16.0355 12.7845 16.2532 15.0497Z" fill="#DAD9D9"/>
<path id="Vector_2" d="M0 19.5152V16.4849H5.53005C6.45376 16.4849 6.65432 17.1683 6.65432 17.5758V19.5152H0Z" fill="#DAD9D9"/>
</g>
<defs>
<clipPath id="clip0_1091_7416">
<rect width="17" height="20" fill="white"/>
</clipPath>
</defs>
</svg>
