<svg width="20" height="20" viewBox="0 0 20 20" fill="none" xmlns="http://www.w3.org/2000/svg">
<g id="Frame">
<path id="Vector" d="M17.2334 2.64281C15.4042 -0.0134442 11.8233 -0.781256 9.06576 0.891712L4.40076 3.85734C3.77027 4.25233 3.22993 4.77556 2.81489 5.39304C2.39984 6.01052 2.11937 6.70843 1.9917 7.4414C1.76514 8.67303 1.96149 9.94509 2.54889 11.0511C2.14756 11.6544 1.87784 12.3355 1.75733 13.05C1.62539 13.7951 1.64297 14.5589 1.80904 15.2972C1.97512 16.0354 2.28636 16.7332 2.72467 17.35C4.55701 20 8.12826 20.7714 10.8919 19.1175L15.5605 16.1487C16.1886 15.7521 16.7266 15.2283 17.1398 14.6109C17.5531 13.9936 17.8324 13.2966 17.9597 12.5647C18.1836 11.3368 17.9861 10.0694 17.3994 8.9678C18.6397 7.02156 18.5744 4.51781 17.2334 2.64281ZM8.59998 17.6073C7.86728 17.7978 7.09375 17.7585 6.38408 17.4949C5.67441 17.2313 5.06286 16.756 4.63217 16.1334C4.09139 15.3845 3.89311 14.4598 4.04936 13.5419L4.14076 13.0994L4.22514 12.8259L4.47592 12.9919C5.02592 13.4087 5.64155 13.7078 6.29905 13.9098L6.46811 13.9684L6.44905 14.1351C6.43264 14.3664 6.50092 14.6264 6.63467 14.8248C6.90811 15.2186 7.38358 15.4076 7.84201 15.2837C7.94264 15.2514 8.04092 15.2184 8.12514 15.1659L12.7742 12.2009C13.0086 12.0508 13.1581 11.8262 13.2167 11.5594C13.268 11.2823 13.2001 10.9992 13.0501 10.775C12.773 10.3906 12.3012 10.218 11.8428 10.3326C11.742 10.368 11.6347 10.4076 11.5492 10.4595L9.79139 11.5759C8.12826 12.5647 5.97983 12.1001 4.87576 10.5084C4.60988 10.1375 4.42104 9.7171 4.3204 9.27198C4.21976 8.82685 4.20936 8.36607 4.28983 7.91687C4.37046 7.47215 4.54366 7.04935 4.79819 6.67587C5.05273 6.3024 5.3829 5.98658 5.76733 5.7489L10.4067 2.78327C10.6997 2.60077 11.0151 2.46765 11.357 2.3664C12.8578 1.97577 14.4392 2.56484 15.3248 3.83421C15.6331 4.26823 15.8365 4.76785 15.919 5.29377C16.0015 5.81969 15.9608 6.35758 15.8003 6.86515L15.7155 7.14171L15.475 6.97577C14.9198 6.56955 14.3004 6.25926 13.6426 6.05781L13.4761 6.0089L13.4926 5.84234C13.509 5.59812 13.4408 5.34124 13.307 5.14234C13.033 4.74859 12.5581 4.58249 12.0997 4.69968C11.999 4.73265 11.9008 4.76499 11.8165 4.81749L7.15826 7.8089C6.92389 7.96515 6.77389 8.18296 6.72498 8.4564C6.67623 8.72312 6.74155 9.01609 6.89155 9.23093C7.15842 9.62531 7.64311 9.79124 8.0928 9.67343C8.20014 9.64109 8.30092 9.60874 8.38264 9.55624L10.16 8.4228C10.45 8.23124 10.7753 8.09156 11.108 7.99984C12.6186 7.60609 14.1939 8.1989 15.0758 9.47452C15.6165 10.2234 15.8247 11.1475 15.6745 12.0558C15.5976 12.4993 15.4279 12.9217 15.1767 13.2952C14.9254 13.6687 14.5982 13.9851 14.2164 14.2236L9.56733 17.1828C9.26499 17.3655 8.93998 17.5077 8.60061 17.6058L8.59998 17.6073Z" fill="#DAD9D9"/>
</g>
</svg>
