<svg width="1144" height="556" viewBox="0 0 1144 556" fill="none" xmlns="http://www.w3.org/2000/svg">
<rect width="1144" height="556" rx="16" fill="#FDF7F2"/>
<g clip-path="url(#clip0_2607_5973)">
<path d="M338.82 302.753H608.455" stroke="url(#paint0_linear_2607_5973)" stroke-width="1.62921"/>
<path d="M878.092 302.753H608.457" stroke="url(#paint1_linear_2607_5973)" stroke-width="1.62921"/>
<path d="M412.137 182.191H455.311C479.605 182.191 499.3 201.885 499.3 226.18V260.393C499.3 284.687 518.994 304.382 543.288 304.382H582.39" stroke="url(#paint2_linear_2607_5973)" stroke-width="1.62921"/>
<path d="M412.137 423.315H455.311C479.605 423.315 499.3 403.62 499.3 379.326V345.112C499.3 320.818 518.994 301.124 543.288 301.124H582.39" stroke="url(#paint3_linear_2607_5973)" stroke-width="1.62921"/>
<path d="M738.793 180.562H695.619C671.325 180.562 651.63 200.256 651.63 224.551V258.764C651.63 283.058 631.936 302.753 607.641 302.753H568.54" stroke="url(#paint4_linear_2607_5973)" stroke-width="1.62921"/>
<path d="M738.793 424.944H695.619C671.325 424.944 651.63 405.249 651.63 380.955V346.742C651.63 322.447 631.936 302.753 607.641 302.753H568.54" stroke="url(#paint5_linear_2607_5973)" stroke-width="1.62921"/>
<mask id="path-8-inside-1_2607_5973" fill="white">
<path d="M286.686 299.494C286.686 142.031 414.335 14.382 571.798 14.382C729.261 14.382 856.91 142.031 856.91 299.494C856.91 456.958 729.261 584.607 571.798 584.607C414.335 584.607 286.686 456.958 286.686 299.494Z"/>
</mask>
<path d="M286.686 14.382H856.91H286.686ZM858.539 300.309C858.539 458.222 730.526 586.236 572.613 586.236H570.983C413.07 586.236 285.056 458.222 285.056 300.309L288.315 299.494C288.315 456.058 415.234 582.977 571.798 582.977C728.361 582.977 855.281 456.058 855.281 299.494L858.539 300.309ZM570.983 586.236C413.07 586.236 285.056 458.222 285.056 300.309C285.056 142.396 413.07 14.382 570.983 14.382H571.798C415.234 14.382 288.315 142.031 288.315 299.494C288.315 456.058 415.234 582.977 571.798 582.977L570.983 586.236ZM572.613 14.382C730.526 14.382 858.539 142.396 858.539 300.309C858.539 458.222 730.526 586.236 572.613 586.236L571.798 582.977C728.361 582.977 855.281 456.058 855.281 299.494C855.281 142.031 728.361 14.382 571.798 14.382H572.613Z" fill="url(#paint6_linear_2607_5973)" mask="url(#path-8-inside-1_2607_5973)"/>
<g filter="url(#filter0_d_2607_5973)">
<rect x="519.664" y="257.135" width="104.27" height="91.236" rx="32.5843" fill="url(#paint7_linear_2607_5973)"/>
<path d="M597.029 312.085C590.745 309.554 584.626 306.652 578.636 303.505C578.176 303.26 577.718 303.012 577.26 302.76C583.654 299.258 590.271 296.169 597.029 293.42C600.028 292.295 601.104 288.344 599.052 285.862C597.378 283.766 594.325 283.423 592.232 285.1C586.901 289.284 581.332 293.14 575.615 296.76C575.174 297.037 574.73 297.308 574.283 297.579C574.455 290.282 575.091 283.002 576.09 275.767C576.617 272.604 573.735 269.696 570.562 270.233C568.004 270.622 566.217 272.945 566.46 275.492C568.27 283.537 569.311 291.834 569.478 300.317C569.485 300.664 569.491 301.011 569.496 301.359C569.501 301.755 569.503 302.148 569.505 302.544C569.505 302.614 569.505 302.683 569.505 302.753C569.505 302.818 569.505 302.88 569.505 302.945C569.505 302.95 569.505 302.954 569.505 302.959C569.505 303.383 569.501 303.806 569.496 304.23C569.496 304.29 569.496 304.353 569.494 304.413C569.494 304.568 569.489 304.721 569.487 304.876C569.339 313.468 568.296 321.869 566.462 330.014C566.221 332.561 568.007 334.883 570.565 335.273C573.738 335.81 576.619 332.904 576.092 329.738C575.093 322.508 574.457 315.232 574.286 307.94C580.507 311.733 586.483 315.925 592.234 320.406C594.707 322.446 598.661 321.399 599.783 318.379C600.759 315.881 599.529 313.06 597.031 312.083L597.029 312.085Z" fill="white"/>
<path d="M555.704 307.637C554.869 308.028 554.032 308.413 553.19 308.79C550.66 309.927 548.128 311.057 545.549 312.083C542.561 313.213 541.491 317.148 543.53 319.628C545.198 321.728 548.251 322.076 550.348 320.404C551.074 319.825 551.81 319.264 552.55 318.704C553.292 318.151 554.03 317.595 554.777 317.053C556.266 315.962 557.76 314.876 559.273 313.82C562.779 311.236 559.728 305.882 555.704 307.632V307.637Z" fill="white"/>
<path d="M559.271 291.68C558.515 291.152 557.763 290.617 557.016 290.078C554.769 288.452 552.525 286.822 550.347 285.099C547.877 283.07 543.936 284.113 542.812 287.121C541.829 289.617 543.055 292.438 545.548 293.422C546.41 293.762 547.266 294.121 548.117 294.48C548.966 294.846 549.817 295.21 550.659 295.587C552.347 296.333 554.033 297.085 555.703 297.87C559.69 299.619 562.798 294.297 559.271 291.683V291.68Z" fill="white"/>
</g>
<rect x="223.961" y="148.792" width="187.36" height="63.5393" rx="20.1324" fill="white"/>
<rect x="223.961" y="148.792" width="187.36" height="63.5393" rx="20.1324" stroke="url(#paint8_linear_2607_5973)" stroke-width="1.62921"/>
<mask id="mask0_2607_5973" style="mask-type:alpha" maskUnits="userSpaceOnUse" x="239" y="161" width="40" height="40">
<rect x="239.438" y="161.011" width="39.1011" height="39.1011" fill="#D9D9D9"/>
</mask>
<g mask="url(#mask0_2607_5973)">
<path d="M257.766 194.817V181.887C256.132 181.887 254.567 181.578 253.069 180.96C251.572 180.341 250.248 179.458 249.1 178.309C247.951 177.16 247.074 175.834 246.47 174.33C245.865 172.826 245.562 171.259 245.562 169.627V167.183H248.006C249.609 167.183 251.161 167.496 252.662 168.12C254.164 168.744 255.487 169.63 256.631 170.777C257.484 171.629 258.183 172.581 258.729 173.633C259.275 174.685 259.666 175.802 259.902 176.984C260.09 176.658 260.3 176.349 260.53 176.058C260.761 175.766 261.019 175.479 261.303 175.195C262.45 174.048 263.776 173.162 265.28 172.538C266.785 171.913 268.353 171.601 269.985 171.601H272.429V174.045C272.429 175.677 272.116 177.245 271.491 178.75C270.867 180.255 269.98 181.581 268.833 182.728C267.685 183.876 266.37 184.752 264.886 185.357C263.402 185.962 261.843 186.264 260.21 186.264V194.817H257.766ZM257.782 179.402C257.782 178.099 257.53 176.857 257.028 175.676C256.526 174.494 255.813 173.442 254.89 172.519C253.967 171.596 252.914 170.883 251.733 170.381C250.552 169.878 249.31 169.627 248.006 169.627C248.006 170.931 248.251 172.18 248.739 173.374C249.228 174.569 249.934 175.628 250.857 176.551C251.781 177.475 252.84 178.181 254.034 178.669C255.229 179.158 256.478 179.402 257.782 179.402ZM260.21 183.82C261.513 183.82 262.755 183.576 263.936 183.087C265.118 182.598 266.17 181.892 267.093 180.969C268.016 180.046 268.729 178.987 269.231 177.792C269.734 176.597 269.985 175.348 269.985 174.045C268.681 174.045 267.432 174.296 266.238 174.798C265.043 175.301 263.984 176.013 263.061 176.937C262.137 177.86 261.431 178.912 260.943 180.093C260.454 181.274 260.21 182.517 260.21 183.82Z" fill="url(#paint9_linear_2607_5973)"/>
</g>
<path d="M293.134 187.062V172.843H298.203C299.309 172.843 300.225 173.044 300.952 173.447C301.678 173.85 302.222 174.401 302.583 175.099C302.944 175.794 303.125 176.576 303.125 177.446C303.125 178.321 302.942 179.108 302.576 179.807C302.215 180.501 301.669 181.052 300.938 181.459C300.211 181.862 299.297 182.063 298.196 182.063H294.71V180.244H298.001C298.7 180.244 299.267 180.124 299.702 179.883C300.137 179.638 300.457 179.304 300.66 178.883C300.864 178.462 300.966 177.983 300.966 177.446C300.966 176.909 300.864 176.432 300.66 176.016C300.457 175.599 300.135 175.273 299.695 175.037C299.26 174.801 298.686 174.683 297.973 174.683H295.28V187.062H293.134ZM307.549 172.843V187.062H305.473V172.843H307.549ZM313.445 187.298C312.769 187.298 312.158 187.173 311.612 186.923C311.066 186.668 310.633 186.3 310.314 185.819C309.999 185.338 309.842 184.747 309.842 184.049C309.842 183.447 309.958 182.952 310.189 182.563C310.42 182.174 310.733 181.866 311.126 181.639C311.52 181.413 311.959 181.241 312.445 181.126C312.931 181.01 313.427 180.922 313.931 180.862C314.57 180.788 315.088 180.728 315.486 180.681C315.884 180.63 316.174 180.549 316.354 180.438C316.535 180.327 316.625 180.147 316.625 179.897V179.848C316.625 179.242 316.454 178.772 316.111 178.439C315.773 178.106 315.269 177.939 314.598 177.939C313.899 177.939 313.348 178.094 312.945 178.404C312.547 178.71 312.272 179.05 312.119 179.425L310.168 178.98C310.4 178.332 310.738 177.809 311.182 177.411C311.631 177.009 312.147 176.717 312.73 176.537C313.313 176.351 313.927 176.259 314.57 176.259C314.996 176.259 315.447 176.31 315.924 176.412C316.405 176.509 316.854 176.689 317.271 176.953C317.692 177.217 318.037 177.594 318.305 178.085C318.573 178.571 318.708 179.203 318.708 179.98V187.062H316.68V185.604H316.597C316.463 185.872 316.262 186.136 315.993 186.395C315.725 186.654 315.38 186.87 314.959 187.041C314.537 187.212 314.033 187.298 313.445 187.298ZM313.896 185.631C314.47 185.631 314.961 185.518 315.368 185.291C315.78 185.064 316.093 184.768 316.306 184.403C316.523 184.032 316.632 183.637 316.632 183.215V181.841C316.558 181.915 316.414 181.984 316.201 182.049C315.993 182.109 315.755 182.162 315.486 182.209C315.218 182.25 314.956 182.29 314.702 182.327C314.447 182.359 314.234 182.387 314.063 182.41C313.66 182.461 313.292 182.547 312.959 182.667C312.631 182.787 312.367 182.961 312.168 183.188C311.973 183.41 311.876 183.706 311.876 184.076C311.876 184.59 312.066 184.979 312.445 185.243C312.825 185.502 313.309 185.631 313.896 185.631ZM323.548 180.73V187.062H321.473V176.398H323.465V178.133H323.597C323.842 177.569 324.227 177.115 324.75 176.773C325.277 176.43 325.941 176.259 326.742 176.259C327.469 176.259 328.105 176.412 328.651 176.717C329.197 177.018 329.621 177.467 329.922 178.064C330.223 178.661 330.373 179.399 330.373 180.279V187.062H328.297V180.529C328.297 179.756 328.096 179.152 327.693 178.717C327.291 178.277 326.737 178.057 326.034 178.057C325.553 178.057 325.124 178.161 324.75 178.369C324.379 178.578 324.085 178.883 323.868 179.286C323.655 179.684 323.548 180.165 323.548 180.73ZM335.233 180.73V187.062H333.157V176.398H335.15V178.133H335.282C335.527 177.569 335.911 177.115 336.434 176.773C336.962 176.43 337.626 176.259 338.427 176.259C339.153 176.259 339.79 176.412 340.336 176.717C340.882 177.018 341.306 177.467 341.606 178.064C341.907 178.661 342.058 179.399 342.058 180.279V187.062H339.982V180.529C339.982 179.756 339.78 179.152 339.378 178.717C338.975 178.277 338.422 178.057 337.718 178.057C337.237 178.057 336.809 178.161 336.434 178.369C336.064 178.578 335.77 178.883 335.552 179.286C335.339 179.684 335.233 180.165 335.233 180.73ZM344.842 187.062V176.398H346.918V187.062H344.842ZM345.89 174.752C345.529 174.752 345.219 174.632 344.96 174.391C344.705 174.146 344.578 173.854 344.578 173.516C344.578 173.174 344.705 172.882 344.96 172.642C345.219 172.396 345.529 172.274 345.89 172.274C346.251 172.274 346.559 172.396 346.813 172.642C347.073 172.882 347.202 173.174 347.202 173.516C347.202 173.854 347.073 174.146 346.813 174.391C346.559 174.632 346.251 174.752 345.89 174.752ZM351.786 180.73V187.062H349.71V176.398H351.703V178.133H351.835C352.08 177.569 352.464 177.115 352.987 176.773C353.515 176.43 354.179 176.259 354.98 176.259C355.706 176.259 356.343 176.412 356.889 176.717C357.435 177.018 357.859 177.467 358.159 178.064C358.46 178.661 358.611 179.399 358.611 180.279V187.062H356.535V180.529C356.535 179.756 356.334 179.152 355.931 178.717C355.528 178.277 354.975 178.057 354.272 178.057C353.79 178.057 353.362 178.161 352.987 178.369C352.617 178.578 352.323 178.883 352.105 179.286C351.893 179.684 351.786 180.165 351.786 180.73ZM365.866 191.283C365.019 191.283 364.29 191.172 363.679 190.95C363.073 190.727 362.577 190.433 362.193 190.068C361.809 189.702 361.522 189.302 361.332 188.867L363.116 188.131C363.241 188.334 363.408 188.55 363.616 188.776C363.829 189.008 364.116 189.205 364.477 189.367C364.843 189.529 365.313 189.61 365.887 189.61C366.673 189.61 367.324 189.418 367.838 189.033C368.351 188.654 368.608 188.048 368.608 187.214V185.118H368.476C368.351 185.344 368.171 185.597 367.935 185.874C367.703 186.152 367.384 186.393 366.977 186.596C366.569 186.8 366.039 186.902 365.387 186.902C364.544 186.902 363.785 186.705 363.11 186.312C362.438 185.914 361.906 185.328 361.513 184.555C361.124 183.778 360.93 182.822 360.93 181.688C360.93 180.554 361.122 179.582 361.506 178.772C361.895 177.962 362.427 177.342 363.103 176.911C363.778 176.476 364.544 176.259 365.401 176.259C366.063 176.259 366.597 176.37 367.004 176.592C367.412 176.81 367.729 177.064 367.956 177.356C368.187 177.647 368.365 177.904 368.49 178.126H368.643V176.398H370.677V187.298C370.677 188.214 370.464 188.966 370.038 189.554C369.613 190.142 369.036 190.577 368.31 190.859C367.588 191.142 366.773 191.283 365.866 191.283ZM365.845 185.18C366.442 185.18 366.947 185.041 367.358 184.764C367.775 184.481 368.09 184.079 368.303 183.556C368.52 183.028 368.629 182.396 368.629 181.66C368.629 180.943 368.523 180.311 368.31 179.765C368.097 179.219 367.784 178.793 367.372 178.487C366.96 178.177 366.451 178.022 365.845 178.022C365.22 178.022 364.699 178.184 364.283 178.508C363.866 178.828 363.552 179.263 363.339 179.813C363.13 180.364 363.026 180.98 363.026 181.66C363.026 182.359 363.133 182.972 363.346 183.5C363.559 184.028 363.873 184.44 364.29 184.736C364.711 185.032 365.229 185.18 365.845 185.18Z" fill="#231F20"/>
<rect x="144.854" y="270.983" width="207.09" height="63.5393" rx="20.1324" fill="white"/>
<rect x="144.854" y="270.983" width="207.09" height="63.5393" rx="20.1324" stroke="url(#paint10_linear_2607_5973)" stroke-width="1.62921"/>
<mask id="mask1_2607_5973" style="mask-type:alpha" maskUnits="userSpaceOnUse" x="160" y="283" width="40" height="40">
<rect x="160.332" y="283.202" width="39.1011" height="39.1011" fill="#D9D9D9"/>
</mask>
<g mask="url(#mask1_2607_5973)">
<path d="M179.882 317.322C179.228 317.322 178.65 317.149 178.148 316.805C177.645 316.46 177.294 316.008 177.094 315.448H176.624C175.957 315.448 175.383 315.207 174.902 314.726C174.42 314.245 174.18 313.671 174.18 313.004V307.659C172.536 306.663 171.242 305.327 170.299 303.652C169.356 301.977 168.885 300.184 168.885 298.273C168.885 295.206 169.951 292.607 172.084 290.474C174.216 288.342 176.816 287.275 179.882 287.275C182.948 287.275 185.548 288.342 187.68 290.474C189.813 292.607 190.879 295.206 190.879 298.273C190.879 300.217 190.408 302.019 189.465 303.677C188.522 305.336 187.228 306.663 185.584 307.659V313.004C185.584 313.671 185.343 314.245 184.862 314.726C184.381 315.207 183.807 315.448 183.14 315.448H182.67C182.47 316.008 182.119 316.46 181.616 316.805C181.114 317.149 180.536 317.322 179.882 317.322ZM176.624 313.004H183.14V311.475H176.624V313.004ZM176.624 310.034H183.14V308.455H176.624V310.034ZM176.298 306.011H178.911V301.268L176.103 298.46C175.911 298.268 175.812 298.043 175.807 297.785C175.802 297.527 175.901 297.297 176.103 297.095C176.306 296.892 176.534 296.791 176.786 296.791C177.039 296.791 177.267 296.892 177.469 297.095L179.882 299.507L182.294 297.095C182.487 296.902 182.712 296.804 182.97 296.799C183.228 296.793 183.458 296.892 183.661 297.095C183.863 297.297 183.964 297.525 183.964 297.778C183.964 298.03 183.863 298.258 183.661 298.46L180.853 301.268V306.011H183.466C184.933 305.305 186.127 304.267 187.05 302.895C187.974 301.524 188.435 299.983 188.435 298.273C188.435 295.883 187.607 293.86 185.951 292.204C184.294 290.547 182.271 289.719 179.882 289.719C177.492 289.719 175.47 290.547 173.813 292.204C172.157 293.86 171.329 295.883 171.329 298.273C171.329 299.983 171.79 301.524 172.713 302.895C173.637 304.267 174.831 305.305 176.298 306.011Z" fill="url(#paint11_linear_2607_5973)"/>
</g>
<path d="M218.632 309.253H214.029V295.034H218.778C220.171 295.034 221.367 295.319 222.367 295.888C223.367 296.453 224.133 297.265 224.665 298.325C225.202 299.38 225.47 300.646 225.47 302.123C225.47 303.604 225.2 304.877 224.658 305.941C224.121 307.006 223.344 307.825 222.325 308.399C221.307 308.968 220.076 309.253 218.632 309.253ZM216.174 307.378H218.514C219.597 307.378 220.497 307.175 221.215 306.767C221.932 306.355 222.469 305.761 222.825 304.983C223.182 304.201 223.36 303.247 223.36 302.123C223.36 301.007 223.182 300.061 222.825 299.283C222.474 298.506 221.948 297.915 221.249 297.513C220.55 297.11 219.683 296.909 218.646 296.909H216.174V307.378ZM232.568 309.468C231.517 309.468 230.612 309.244 229.853 308.795C229.099 308.341 228.515 307.705 228.103 306.885C227.696 306.061 227.492 305.096 227.492 303.99C227.492 302.898 227.696 301.935 228.103 301.102C228.515 300.269 229.089 299.619 229.825 299.151C230.566 298.684 231.431 298.45 232.422 298.45C233.023 298.45 233.607 298.55 234.171 298.749C234.736 298.948 235.243 299.26 235.692 299.686C236.141 300.112 236.495 300.665 236.754 301.345C237.013 302.021 237.143 302.842 237.143 303.81V304.546H228.666V302.991H235.109C235.109 302.444 234.998 301.961 234.775 301.539C234.553 301.114 234.241 300.778 233.838 300.533C233.44 300.288 232.973 300.165 232.436 300.165C231.852 300.165 231.343 300.308 230.908 300.595C230.478 300.878 230.145 301.248 229.909 301.706C229.677 302.16 229.561 302.653 229.561 303.185V304.4C229.561 305.113 229.686 305.719 229.936 306.219C230.191 306.719 230.545 307.101 230.999 307.364C231.452 307.624 231.982 307.753 232.588 307.753C232.982 307.753 233.341 307.698 233.665 307.587C233.989 307.471 234.269 307.3 234.505 307.073C234.741 306.846 234.921 306.566 235.046 306.233L237.011 306.587C236.854 307.165 236.571 307.672 236.164 308.107C235.761 308.538 235.254 308.873 234.643 309.114C234.037 309.35 233.345 309.468 232.568 309.468ZM248.263 298.589L244.396 309.253H242.174L238.3 298.589H240.529L243.23 306.795H243.341L246.035 298.589H248.263ZM254.447 309.468C253.397 309.468 252.492 309.244 251.733 308.795C250.978 308.341 250.395 307.705 249.983 306.885C249.576 306.061 249.372 305.096 249.372 303.99C249.372 302.898 249.576 301.935 249.983 301.102C250.395 300.269 250.969 299.619 251.705 299.151C252.446 298.684 253.311 298.45 254.302 298.45C254.903 298.45 255.486 298.55 256.051 298.749C256.616 298.948 257.123 299.26 257.572 299.686C258.021 300.112 258.375 300.665 258.634 301.345C258.893 302.021 259.023 302.842 259.023 303.81V304.546H250.546V302.991H256.988C256.988 302.444 256.877 301.961 256.655 301.539C256.433 301.114 256.121 300.778 255.718 300.533C255.32 300.288 254.852 300.165 254.315 300.165C253.732 300.165 253.223 300.308 252.788 300.595C252.358 300.878 252.024 301.248 251.788 301.706C251.557 302.16 251.441 302.653 251.441 303.185V304.4C251.441 305.113 251.566 305.719 251.816 306.219C252.071 306.719 252.425 307.101 252.878 307.364C253.332 307.624 253.862 307.753 254.468 307.753C254.862 307.753 255.22 307.698 255.544 307.587C255.868 307.471 256.148 307.3 256.384 307.073C256.62 306.846 256.801 306.566 256.926 306.233L258.891 306.587C258.733 307.165 258.451 307.672 258.044 308.107C257.641 308.538 257.134 308.873 256.523 309.114C255.917 309.35 255.225 309.468 254.447 309.468ZM263.402 295.034V309.253H261.326V295.034H263.402ZM270.686 309.468C269.687 309.468 268.814 309.239 268.069 308.781C267.324 308.322 266.745 307.681 266.333 306.858C265.921 306.034 265.715 305.071 265.715 303.969C265.715 302.863 265.921 301.896 266.333 301.067C266.745 300.239 267.324 299.596 268.069 299.137C268.814 298.679 269.687 298.45 270.686 298.45C271.686 298.45 272.559 298.679 273.304 299.137C274.049 299.596 274.627 300.239 275.039 301.067C275.451 301.896 275.657 302.863 275.657 303.969C275.657 305.071 275.451 306.034 275.039 306.858C274.627 307.681 274.049 308.322 273.304 308.781C272.559 309.239 271.686 309.468 270.686 309.468ZM270.693 307.725C271.341 307.725 271.878 307.554 272.304 307.212C272.73 306.869 273.044 306.413 273.248 305.844C273.456 305.275 273.561 304.648 273.561 303.962C273.561 303.282 273.456 302.657 273.248 302.088C273.044 301.514 272.73 301.054 272.304 300.706C271.878 300.359 271.341 300.186 270.693 300.186C270.041 300.186 269.499 300.359 269.069 300.706C268.643 301.054 268.326 301.514 268.118 302.088C267.914 302.657 267.812 303.282 267.812 303.962C267.812 304.648 267.914 305.275 268.118 305.844C268.326 306.413 268.643 306.869 269.069 307.212C269.499 307.554 270.041 307.725 270.693 307.725ZM277.974 313.252V298.589H280.002V300.318H280.175C280.296 300.095 280.469 299.839 280.696 299.547C280.923 299.255 281.237 299.001 281.64 298.783C282.043 298.561 282.575 298.45 283.237 298.45C284.098 298.45 284.866 298.668 285.542 299.103C286.218 299.538 286.748 300.165 287.132 300.984C287.521 301.803 287.715 302.789 287.715 303.942C287.715 305.094 287.523 306.082 287.139 306.906C286.755 307.725 286.227 308.357 285.556 308.802C284.885 309.241 284.119 309.461 283.258 309.461C282.61 309.461 282.08 309.352 281.668 309.135C281.261 308.917 280.941 308.663 280.71 308.371C280.478 308.079 280.3 307.82 280.175 307.594H280.05V313.252H277.974ZM280.009 303.921C280.009 304.671 280.117 305.328 280.335 305.893C280.552 306.457 280.867 306.899 281.279 307.219C281.691 307.533 282.196 307.691 282.793 307.691C283.413 307.691 283.931 307.526 284.348 307.198C284.764 306.865 285.079 306.413 285.292 305.844C285.509 305.275 285.618 304.634 285.618 303.921C285.618 303.217 285.512 302.586 285.299 302.025C285.091 301.465 284.776 301.023 284.355 300.699C283.938 300.375 283.417 300.213 282.793 300.213C282.191 300.213 281.682 300.369 281.265 300.679C280.853 300.989 280.541 301.421 280.328 301.977C280.115 302.532 280.009 303.18 280.009 303.921ZM290.041 309.253V298.589H292.033V300.325H292.165C292.387 299.737 292.751 299.279 293.255 298.95C293.76 298.617 294.364 298.45 295.067 298.45C295.78 298.45 296.377 298.617 296.858 298.95C297.344 299.283 297.703 299.741 297.935 300.325H298.046C298.3 299.755 298.705 299.302 299.261 298.964C299.816 298.621 300.478 298.45 301.246 298.45C302.214 298.45 303.003 298.753 303.614 299.36C304.229 299.966 304.537 300.88 304.537 302.102V309.253H302.461V302.296C302.461 301.574 302.264 301.051 301.871 300.727C301.478 300.403 301.008 300.241 300.462 300.241C299.786 300.241 299.261 300.449 298.886 300.866C298.511 301.278 298.323 301.808 298.323 302.456V309.253H296.254V302.164C296.254 301.586 296.074 301.121 295.713 300.769C295.352 300.417 294.882 300.241 294.304 300.241C293.91 300.241 293.547 300.345 293.214 300.554C292.885 300.757 292.619 301.042 292.415 301.408C292.216 301.773 292.117 302.197 292.117 302.678V309.253H290.041ZM311.915 309.468C310.865 309.468 309.96 309.244 309.201 308.795C308.446 308.341 307.863 307.705 307.451 306.885C307.044 306.061 306.84 305.096 306.84 303.99C306.84 302.898 307.044 301.935 307.451 301.102C307.863 300.269 308.437 299.619 309.173 299.151C309.914 298.684 310.779 298.45 311.77 298.45C312.371 298.45 312.954 298.55 313.519 298.749C314.084 298.948 314.591 299.26 315.04 299.686C315.489 300.112 315.843 300.665 316.102 301.345C316.361 302.021 316.491 302.842 316.491 303.81V304.546H308.014V302.991H314.456C314.456 302.444 314.345 301.961 314.123 301.539C313.901 301.114 313.589 300.778 313.186 300.533C312.788 300.288 312.32 300.165 311.783 300.165C311.2 300.165 310.691 300.308 310.256 300.595C309.826 300.878 309.492 301.248 309.256 301.706C309.025 302.16 308.909 302.653 308.909 303.185V304.4C308.909 305.113 309.034 305.719 309.284 306.219C309.539 306.719 309.893 307.101 310.346 307.364C310.8 307.624 311.33 307.753 311.936 307.753C312.33 307.753 312.688 307.698 313.012 307.587C313.336 307.471 313.616 307.3 313.852 307.073C314.088 306.846 314.269 306.566 314.394 306.233L316.359 306.587C316.201 307.165 315.919 307.672 315.512 308.107C315.109 308.538 314.602 308.873 313.991 309.114C313.385 309.35 312.693 309.468 311.915 309.468ZM320.87 302.921V309.253H318.794V298.589H320.786V300.325H320.918C321.164 299.76 321.548 299.306 322.071 298.964C322.598 298.621 323.263 298.45 324.063 298.45C324.79 298.45 325.426 298.603 325.973 298.908C326.519 299.209 326.942 299.658 327.243 300.255C327.544 300.852 327.694 301.59 327.694 302.47V309.253H325.618V302.72C325.618 301.947 325.417 301.343 325.014 300.908C324.612 300.468 324.059 300.248 323.355 300.248C322.874 300.248 322.446 300.352 322.071 300.561C321.7 300.769 321.407 301.074 321.189 301.477C320.976 301.875 320.87 302.356 320.87 302.921ZM335.456 298.589V300.255H329.631V298.589H335.456ZM331.193 296.034H333.269V306.122C333.269 306.524 333.329 306.828 333.45 307.031C333.57 307.23 333.725 307.367 333.915 307.441C334.109 307.51 334.32 307.545 334.547 307.545C334.713 307.545 334.859 307.533 334.984 307.51C335.109 307.487 335.206 307.469 335.276 307.455L335.651 309.169C335.53 309.216 335.359 309.262 335.137 309.308C334.915 309.359 334.637 309.387 334.304 309.392C333.758 309.401 333.248 309.304 332.776 309.1C332.304 308.896 331.922 308.582 331.631 308.156C331.339 307.73 331.193 307.195 331.193 306.552V296.034Z" fill="#231F20"/>
<rect x="240.252" y="391.545" width="197.135" height="63.5393" rx="20.1324" fill="white"/>
<rect x="240.252" y="391.545" width="197.135" height="63.5393" rx="20.1324" stroke="url(#paint12_linear_2607_5973)" stroke-width="1.62921"/>
<mask id="mask2_2607_5973" style="mask-type:alpha" maskUnits="userSpaceOnUse" x="255" y="403" width="40" height="40">
<rect x="255.73" y="403.764" width="39.1011" height="39.1011" fill="#D9D9D9"/>
</mask>
<g mask="url(#mask2_2607_5973)">
<path d="M275.282 435.262C277.183 435.262 278.807 434.592 280.156 433.253C281.504 431.913 282.179 430.293 282.179 428.392V421.685C282.179 419.785 281.504 418.164 280.156 416.825C278.807 415.485 277.183 414.815 275.282 414.815C273.381 414.815 271.756 415.485 270.408 416.825C269.059 418.164 268.385 419.785 268.385 421.685V428.392C268.385 430.293 269.059 431.913 270.408 433.253C271.756 434.592 273.381 435.262 275.282 435.262ZM272.023 429.831H278.54V427.116H272.023V429.831ZM272.023 422.961H278.54V420.246H272.023V422.961ZM275.282 437.977C273.517 437.977 271.876 437.552 270.36 436.701C268.844 435.85 267.697 434.647 266.919 433.09H262.248V430.374H265.886C265.733 429.723 265.654 429.066 265.649 428.406C265.644 427.745 265.642 427.08 265.642 426.41H262.248V423.695H265.642C265.642 422.989 265.649 422.287 265.662 421.59C265.676 420.893 265.769 420.201 265.941 419.513H262.248V416.798H267.027C267.407 416.083 267.885 415.445 268.459 414.883C269.034 414.322 269.679 413.847 270.394 413.458L267.434 410.498L269.281 408.652L273.001 412.372C273.761 412.109 274.531 411.978 275.309 411.978C276.087 411.978 276.857 412.109 277.617 412.372L281.364 408.652L283.211 410.498L280.251 413.458C280.966 413.847 281.602 414.324 282.158 414.89C282.715 415.456 283.201 416.092 283.618 416.798H288.315V419.513H284.622C284.813 420.201 284.905 420.893 284.901 421.59C284.896 422.287 284.894 422.989 284.894 423.695H288.315V426.41H284.894C284.894 427.08 284.896 427.745 284.901 428.406C284.905 429.066 284.831 429.723 284.677 430.374H288.315V433.09H283.672C282.912 434.665 281.769 435.873 280.244 436.715C278.719 437.557 277.065 437.977 275.282 437.977Z" fill="url(#paint13_linear_2607_5973)"/>
</g>
<path d="M308.726 417.443V415.596H319.73V417.443H315.294V429.815H313.156V417.443H308.726ZM325.045 430.03C323.994 430.03 323.089 429.805 322.33 429.356C321.576 428.903 320.993 428.266 320.581 427.447C320.173 426.623 319.97 425.658 319.97 424.552C319.97 423.46 320.173 422.497 320.581 421.664C320.993 420.831 321.567 420.18 322.303 419.713C323.043 419.246 323.909 419.012 324.899 419.012C325.501 419.012 326.084 419.111 326.649 419.31C327.213 419.509 327.72 419.822 328.169 420.248C328.618 420.673 328.972 421.226 329.231 421.907C329.491 422.583 329.62 423.404 329.62 424.372V425.107H321.143V423.552H327.586C327.586 423.006 327.475 422.522 327.253 422.101C327.03 421.675 326.718 421.34 326.315 421.095C325.917 420.849 325.45 420.727 324.913 420.727C324.33 420.727 323.821 420.87 323.386 421.157C322.955 421.439 322.622 421.81 322.386 422.268C322.154 422.721 322.039 423.214 322.039 423.747V424.962C322.039 425.674 322.164 426.281 322.414 426.781C322.668 427.28 323.022 427.662 323.476 427.926C323.929 428.185 324.459 428.315 325.066 428.315C325.459 428.315 325.818 428.259 326.142 428.148C326.466 428.033 326.746 427.861 326.982 427.635C327.218 427.408 327.398 427.128 327.523 426.795L329.488 427.149C329.331 427.727 329.048 428.234 328.641 428.669C328.239 429.099 327.732 429.435 327.121 429.676C326.514 429.912 325.822 430.03 325.045 430.03ZM339.914 421.754L338.033 422.087C337.954 421.847 337.829 421.618 337.658 421.4C337.491 421.183 337.265 421.004 336.978 420.865C336.691 420.727 336.332 420.657 335.901 420.657C335.314 420.657 334.823 420.789 334.43 421.053C334.036 421.312 333.84 421.648 333.84 422.06C333.84 422.416 333.971 422.703 334.235 422.921C334.499 423.138 334.925 423.316 335.513 423.455L337.207 423.844C338.188 424.071 338.919 424.42 339.401 424.892C339.882 425.364 340.123 425.978 340.123 426.732C340.123 427.371 339.937 427.94 339.567 428.44C339.202 428.935 338.69 429.324 338.033 429.606C337.38 429.889 336.624 430.03 335.763 430.03C334.568 430.03 333.594 429.775 332.84 429.266C332.085 428.752 331.622 428.023 331.451 427.079L333.458 426.774C333.583 427.297 333.84 427.692 334.228 427.961C334.617 428.225 335.124 428.357 335.749 428.357C336.429 428.357 336.973 428.215 337.38 427.933C337.788 427.646 337.991 427.297 337.991 426.885C337.991 426.552 337.866 426.271 337.616 426.045C337.371 425.818 336.994 425.647 336.485 425.531L334.68 425.135C333.684 424.908 332.949 424.547 332.472 424.052C332 423.557 331.764 422.93 331.764 422.171C331.764 421.541 331.94 420.99 332.291 420.518C332.643 420.046 333.129 419.678 333.749 419.414C334.369 419.146 335.08 419.012 335.881 419.012C337.033 419.012 337.94 419.262 338.602 419.762C339.264 420.257 339.701 420.921 339.914 421.754ZM347.383 419.151V420.817H341.558V419.151H347.383ZM343.12 416.596H345.196V426.683C345.196 427.086 345.256 427.389 345.376 427.593C345.497 427.792 345.652 427.928 345.842 428.003C346.036 428.072 346.247 428.107 346.473 428.107C346.64 428.107 346.786 428.095 346.911 428.072C347.036 428.049 347.133 428.03 347.202 428.016L347.577 429.731C347.457 429.778 347.286 429.824 347.064 429.87C346.841 429.921 346.564 429.949 346.23 429.953C345.684 429.963 345.175 429.865 344.703 429.662C344.231 429.458 343.849 429.143 343.558 428.718C343.266 428.292 343.12 427.757 343.12 427.114V416.596ZM349.679 429.815V419.151H351.755V429.815H349.679ZM350.728 417.505C350.367 417.505 350.056 417.385 349.797 417.144C349.543 416.899 349.415 416.607 349.415 416.269C349.415 415.927 349.543 415.635 349.797 415.395C350.056 415.149 350.367 415.027 350.728 415.027C351.089 415.027 351.396 415.149 351.651 415.395C351.91 415.635 352.04 415.927 352.04 416.269C352.04 416.607 351.91 416.899 351.651 417.144C351.396 417.385 351.089 417.505 350.728 417.505ZM356.624 423.483V429.815H354.548V419.151H356.54V420.886H356.672C356.918 420.322 357.302 419.868 357.825 419.526C358.352 419.183 359.017 419.012 359.817 419.012C360.544 419.012 361.18 419.165 361.726 419.47C362.273 419.771 362.696 420.22 362.997 420.817C363.298 421.414 363.448 422.152 363.448 423.032V429.815H361.372V423.282C361.372 422.509 361.171 421.905 360.768 421.469C360.366 421.03 359.813 420.81 359.109 420.81C358.628 420.81 358.2 420.914 357.825 421.122C357.454 421.331 357.161 421.636 356.943 422.039C356.73 422.437 356.624 422.918 356.624 423.483ZM370.703 434.036C369.856 434.036 369.127 433.925 368.516 433.702C367.91 433.48 367.415 433.186 367.031 432.821C366.647 432.455 366.36 432.055 366.17 431.62L367.954 430.884C368.079 431.087 368.246 431.303 368.454 431.529C368.667 431.761 368.954 431.958 369.315 432.12C369.68 432.282 370.15 432.363 370.724 432.363C371.511 432.363 372.161 432.17 372.675 431.786C373.189 431.407 373.446 430.8 373.446 429.967V427.871H373.314C373.189 428.097 373.008 428.35 372.772 428.627C372.541 428.905 372.221 429.146 371.814 429.349C371.407 429.553 370.877 429.655 370.224 429.655C369.382 429.655 368.623 429.458 367.947 429.065C367.276 428.667 366.744 428.081 366.35 427.308C365.962 426.531 365.767 425.575 365.767 424.441C365.767 423.307 365.959 422.335 366.343 421.525C366.732 420.715 367.264 420.095 367.94 419.664C368.616 419.229 369.382 419.012 370.238 419.012C370.9 419.012 371.435 419.123 371.842 419.345C372.249 419.563 372.566 419.817 372.793 420.109C373.025 420.4 373.203 420.657 373.328 420.879H373.48V419.151H375.515V430.051C375.515 430.967 375.302 431.719 374.876 432.307C374.45 432.895 373.874 433.33 373.147 433.612C372.425 433.895 371.611 434.036 370.703 434.036ZM370.683 427.933C371.28 427.933 371.784 427.794 372.196 427.517C372.613 427.234 372.927 426.832 373.14 426.309C373.358 425.781 373.467 425.149 373.467 424.413C373.467 423.696 373.36 423.064 373.147 422.518C372.934 421.972 372.622 421.546 372.21 421.24C371.798 420.93 371.289 420.775 370.683 420.775C370.058 420.775 369.537 420.937 369.12 421.261C368.704 421.581 368.389 422.016 368.176 422.566C367.968 423.117 367.864 423.733 367.864 424.413C367.864 425.112 367.97 425.725 368.183 426.253C368.396 426.781 368.711 427.193 369.127 427.489C369.549 427.785 370.067 427.933 370.683 427.933Z" fill="#231F20"/>
<rect x="705.102" y="391.545" width="196.09" height="63.5393" rx="20.1324" fill="white"/>
<rect x="705.102" y="391.545" width="196.09" height="63.5393" rx="20.1324" stroke="url(#paint14_linear_2607_5973)" stroke-width="1.62921"/>
<mask id="mask3_2607_5973" style="mask-type:alpha" maskUnits="userSpaceOnUse" x="720" y="403" width="40" height="40">
<rect x="720.58" y="403.764" width="39.1011" height="39.1011" fill="#D9D9D9"/>
</mask>
<g mask="url(#mask3_2607_5973)">
<path d="M728.632 421.223L732.778 422.981C733.272 421.993 733.806 421.025 734.379 420.078C734.952 419.13 735.575 418.216 736.248 417.336L733.4 416.778C733.317 416.757 733.236 416.76 733.158 416.786C733.079 416.812 733.009 416.856 732.946 416.919L728.632 421.223ZM734.407 424.241L739.415 429.24C740.823 428.6 742.192 427.832 743.521 426.936C744.85 426.04 746.029 425.078 747.058 424.05C749.029 422.079 750.506 420.019 751.488 417.87C752.471 415.721 753.009 413.277 753.101 410.539C750.356 410.631 747.912 411.167 745.769 412.147C743.626 413.126 741.569 414.601 739.597 416.572C738.569 417.6 737.607 418.782 736.711 420.116C735.815 421.451 735.047 422.826 734.407 424.241ZM743.261 420.36C742.75 419.856 742.495 419.235 742.495 418.497C742.495 417.759 742.75 417.134 743.261 416.623C743.772 416.112 744.401 415.857 745.147 415.857C745.893 415.857 746.521 416.112 747.032 416.623C747.543 417.134 747.799 417.759 747.799 418.497C747.799 419.235 747.543 419.856 747.032 420.36C746.521 420.871 745.893 421.127 745.147 421.127C744.401 421.127 743.772 420.871 743.261 420.36ZM742.407 435.014L746.721 430.71C746.784 430.647 746.827 430.575 746.849 430.493C746.872 430.411 746.876 430.332 746.862 430.255L746.294 427.408C745.413 428.074 744.501 428.692 743.557 429.262C742.613 429.833 741.644 430.368 740.648 430.87L742.407 435.014ZM755.07 408.578C755.286 411.912 754.846 414.969 753.749 417.749C752.652 420.529 750.885 423.135 748.447 425.565C748.384 425.629 748.324 425.69 748.268 425.75C748.212 425.81 748.152 425.868 748.088 425.925L748.868 429.838C748.948 430.266 748.926 430.679 748.8 431.076C748.675 431.474 748.462 431.823 748.16 432.125L741.711 438.585L738.634 431.365L732.265 425.007L725.055 421.902L731.497 415.47C731.805 415.168 732.159 414.952 732.56 414.821C732.96 414.691 733.374 414.669 733.802 414.756L737.736 415.542C737.8 415.485 737.857 415.43 737.908 415.375C737.959 415.321 738.017 415.266 738.08 415.209C740.518 412.772 743.123 411.003 745.897 409.903C748.671 408.803 751.728 408.361 755.07 408.578ZM727.791 429.87C728.585 429.069 729.551 428.669 730.689 428.67C731.827 428.67 732.796 429.067 733.597 429.861C734.39 430.654 734.783 431.62 734.775 432.758C734.766 433.896 734.365 434.866 733.571 435.666C732.937 436.294 731.945 436.823 730.594 437.253C729.243 437.684 727.427 438.037 725.145 438.314C725.421 436.031 725.773 434.21 726.2 432.851C726.626 431.491 727.157 430.497 727.791 429.87ZM729.23 431.344C728.886 431.706 728.571 432.28 728.285 433.066C727.999 433.852 727.781 434.769 727.631 435.818C728.68 435.661 729.597 435.44 730.383 435.155C731.169 434.87 731.743 434.552 732.106 434.201C732.523 433.812 732.738 433.334 732.749 432.766C732.76 432.197 732.562 431.704 732.156 431.286C731.738 430.88 731.245 430.683 730.676 430.697C730.108 430.71 729.626 430.926 729.23 431.344Z" fill="url(#paint15_linear_2607_5973)"/>
</g>
<path d="M778.88 429.815H774.277V415.596H779.026C780.419 415.596 781.615 415.881 782.615 416.45C783.615 417.015 784.381 417.827 784.913 418.887C785.45 419.942 785.718 421.208 785.718 422.684C785.718 424.166 785.448 425.438 784.906 426.503C784.369 427.567 783.592 428.387 782.573 428.961C781.555 429.53 780.324 429.815 778.88 429.815ZM776.422 427.94H778.762C779.845 427.94 780.745 427.736 781.463 427.329C782.18 426.917 782.717 426.322 783.073 425.545C783.43 424.763 783.608 423.809 783.608 422.684C783.608 421.569 783.43 420.622 783.073 419.845C782.722 419.067 782.196 418.477 781.497 418.075C780.798 417.672 779.931 417.471 778.894 417.471H776.422V427.94ZM792.816 430.03C791.765 430.03 790.86 429.805 790.101 429.356C789.347 428.903 788.763 428.266 788.351 427.447C787.944 426.623 787.741 425.658 787.741 424.552C787.741 423.46 787.944 422.497 788.351 421.664C788.763 420.831 789.337 420.18 790.073 419.713C790.814 419.246 791.679 419.012 792.67 419.012C793.272 419.012 793.855 419.111 794.419 419.31C794.984 419.509 795.491 419.822 795.94 420.248C796.389 420.673 796.743 421.226 797.002 421.907C797.261 422.583 797.391 423.404 797.391 424.372V425.107H788.914V423.552H795.357C795.357 423.006 795.246 422.522 795.023 422.101C794.801 421.675 794.489 421.34 794.086 421.095C793.688 420.849 793.221 420.727 792.684 420.727C792.101 420.727 791.591 420.87 791.156 421.157C790.726 421.439 790.393 421.81 790.157 422.268C789.925 422.721 789.809 423.214 789.809 423.747V424.962C789.809 425.674 789.934 426.281 790.184 426.781C790.439 427.28 790.793 427.662 791.247 427.926C791.7 428.185 792.23 428.315 792.836 428.315C793.23 428.315 793.589 428.259 793.913 428.148C794.237 428.033 794.517 427.861 794.753 427.635C794.989 427.408 795.169 427.128 795.294 426.795L797.259 427.149C797.102 427.727 796.819 428.234 796.412 428.669C796.009 429.099 795.502 429.435 794.891 429.676C794.285 429.912 793.593 430.03 792.816 430.03ZM799.694 433.814V419.151H801.721V420.879H801.895C802.015 420.657 802.189 420.4 802.416 420.109C802.642 419.817 802.957 419.563 803.36 419.345C803.762 419.123 804.295 419.012 804.957 419.012C805.818 419.012 806.586 419.229 807.262 419.664C807.937 420.099 808.467 420.727 808.851 421.546C809.24 422.365 809.435 423.351 809.435 424.503C809.435 425.656 809.243 426.644 808.858 427.468C808.474 428.287 807.947 428.919 807.275 429.363C806.604 429.803 805.838 430.023 804.977 430.023C804.329 430.023 803.799 429.914 803.388 429.697C802.98 429.479 802.661 429.224 802.429 428.933C802.198 428.641 802.02 428.382 801.895 428.155H801.77V433.814H799.694ZM801.728 424.483C801.728 425.232 801.837 425.89 802.055 426.454C802.272 427.019 802.587 427.461 802.999 427.78C803.411 428.095 803.915 428.252 804.512 428.252C805.132 428.252 805.651 428.088 806.067 427.76C806.484 427.426 806.799 426.975 807.012 426.406C807.229 425.836 807.338 425.195 807.338 424.483C807.338 423.779 807.231 423.147 807.019 422.587C806.81 422.027 806.496 421.585 806.074 421.261C805.658 420.937 805.137 420.775 804.512 420.775C803.911 420.775 803.401 420.93 802.985 421.24C802.573 421.55 802.261 421.983 802.048 422.539C801.835 423.094 801.728 423.742 801.728 424.483ZM813.836 415.596V429.815H811.76V415.596H813.836ZM821.121 430.03C820.121 430.03 819.249 429.801 818.504 429.342C817.758 428.884 817.18 428.243 816.768 427.419C816.356 426.595 816.15 425.633 816.15 424.531C816.15 423.425 816.356 422.458 816.768 421.629C817.18 420.801 817.758 420.157 818.504 419.699C819.249 419.241 820.121 419.012 821.121 419.012C822.121 419.012 822.993 419.241 823.738 419.699C824.483 420.157 825.062 420.801 825.474 421.629C825.886 422.458 826.092 423.425 826.092 424.531C826.092 425.633 825.886 426.595 825.474 427.419C825.062 428.243 824.483 428.884 823.738 429.342C822.993 429.801 822.121 430.03 821.121 430.03ZM821.128 428.287C821.776 428.287 822.313 428.116 822.739 427.773C823.164 427.431 823.479 426.975 823.683 426.406C823.891 425.836 823.995 425.209 823.995 424.524C823.995 423.844 823.891 423.219 823.683 422.65C823.479 422.076 823.164 421.615 822.739 421.268C822.313 420.921 821.776 420.747 821.128 420.747C820.475 420.747 819.934 420.921 819.503 421.268C819.077 421.615 818.76 422.076 818.552 422.65C818.348 423.219 818.247 423.844 818.247 424.524C818.247 425.209 818.348 425.836 818.552 426.406C818.76 426.975 819.077 427.431 819.503 427.773C819.934 428.116 820.475 428.287 821.128 428.287ZM829.358 433.814C829.048 433.814 828.766 433.788 828.511 433.737C828.257 433.691 828.067 433.64 827.942 433.584L828.442 431.883C828.821 431.985 829.159 432.029 829.456 432.015C829.752 432.002 830.013 431.89 830.24 431.682C830.472 431.474 830.675 431.134 830.851 430.662L831.108 429.953L827.206 419.151H829.428L832.128 427.426H832.24L834.94 419.151H837.169L832.774 431.238C832.571 431.793 832.311 432.263 831.997 432.647C831.682 433.036 831.307 433.328 830.872 433.522C830.437 433.716 829.932 433.814 829.358 433.814ZM839.12 429.815V419.151H841.112V420.886H841.244C841.466 420.298 841.83 419.84 842.334 419.512C842.839 419.178 843.443 419.012 844.146 419.012C844.859 419.012 845.456 419.178 845.937 419.512C846.423 419.845 846.782 420.303 847.014 420.886H847.125C847.379 420.317 847.784 419.863 848.34 419.526C848.895 419.183 849.557 419.012 850.325 419.012C851.293 419.012 852.082 419.315 852.693 419.921C853.308 420.528 853.616 421.442 853.616 422.664V429.815H851.54V422.858C851.54 422.136 851.343 421.613 850.95 421.289C850.557 420.965 850.087 420.803 849.541 420.803C848.865 420.803 848.34 421.011 847.965 421.428C847.59 421.84 847.402 422.37 847.402 423.018V429.815H845.333V422.726C845.333 422.148 845.153 421.682 844.792 421.331C844.431 420.979 843.961 420.803 843.383 420.803C842.989 420.803 842.626 420.907 842.293 421.115C841.964 421.319 841.698 421.604 841.494 421.969C841.295 422.335 841.196 422.759 841.196 423.24V429.815H839.12ZM860.994 430.03C859.944 430.03 859.039 429.805 858.28 429.356C857.525 428.903 856.942 428.266 856.53 427.447C856.123 426.623 855.919 425.658 855.919 424.552C855.919 423.46 856.123 422.497 856.53 421.664C856.942 420.831 857.516 420.18 858.252 419.713C858.993 419.246 859.858 419.012 860.849 419.012C861.45 419.012 862.033 419.111 862.598 419.31C863.163 419.509 863.67 419.822 864.119 420.248C864.568 420.673 864.922 421.226 865.181 421.907C865.44 422.583 865.57 423.404 865.57 424.372V425.107H857.093V423.552H863.535C863.535 423.006 863.424 422.522 863.202 422.101C862.98 421.675 862.668 421.34 862.265 421.095C861.867 420.849 861.399 420.727 860.862 420.727C860.279 420.727 859.77 420.87 859.335 421.157C858.905 421.439 858.571 421.81 858.335 422.268C858.104 422.721 857.988 423.214 857.988 423.747V424.962C857.988 425.674 858.113 426.281 858.363 426.781C858.618 427.28 858.972 427.662 859.425 427.926C859.879 428.185 860.409 428.315 861.015 428.315C861.409 428.315 861.767 428.259 862.091 428.148C862.415 428.033 862.695 427.861 862.931 427.635C863.167 427.408 863.348 427.128 863.473 426.795L865.438 427.149C865.28 427.727 864.998 428.234 864.591 428.669C864.188 429.099 863.681 429.435 863.07 429.676C862.464 429.912 861.772 430.03 860.994 430.03ZM869.949 423.483V429.815H867.873V419.151H869.865V420.886H869.997C870.243 420.322 870.627 419.868 871.15 419.526C871.677 419.183 872.342 419.012 873.142 419.012C873.869 419.012 874.505 419.165 875.052 419.47C875.598 419.771 876.021 420.22 876.322 420.817C876.623 421.414 876.773 422.152 876.773 423.032V429.815H874.697V423.282C874.697 422.509 874.496 421.905 874.093 421.469C873.691 421.03 873.138 420.81 872.434 420.81C871.953 420.81 871.525 420.914 871.15 421.122C870.78 421.331 870.486 421.636 870.268 422.039C870.055 422.437 869.949 422.918 869.949 423.483ZM884.535 419.151V420.817H878.71V419.151H884.535ZM880.272 416.596H882.348V426.683C882.348 427.086 882.408 427.389 882.529 427.593C882.649 427.792 882.804 427.928 882.994 428.003C883.188 428.072 883.399 428.107 883.626 428.107C883.792 428.107 883.938 428.095 884.063 428.072C884.188 428.049 884.285 428.03 884.355 428.016L884.73 429.731C884.609 429.778 884.438 429.824 884.216 429.87C883.994 429.921 883.716 429.949 883.383 429.953C882.837 429.963 882.327 429.865 881.855 429.662C881.383 429.458 881.001 429.143 880.71 428.718C880.418 428.292 880.272 427.757 880.272 427.114V416.596Z" fill="#231F20"/>
<rect x="772.692" y="270.983" width="227.09" height="63.5393" rx="20.1324" fill="white"/>
<rect x="772.692" y="270.983" width="227.09" height="63.5393" rx="20.1324" stroke="url(#paint16_linear_2607_5973)" stroke-width="1.62921"/>
<mask id="mask4_2607_5973" style="mask-type:alpha" maskUnits="userSpaceOnUse" x="788" y="283" width="40" height="40">
<rect x="788.17" y="283.202" width="39.1011" height="39.1011" fill="#D9D9D9"/>
</mask>
<g mask="url(#mask4_2607_5973)">
<path d="M801.593 311.923H813.845V309.875H801.593V311.923ZM801.593 305.207H813.845V303.16H801.593V305.207ZM798.048 318.23C797.348 318.23 796.748 317.981 796.249 317.481C795.75 316.982 795.5 316.382 795.5 315.682V289.824C795.5 289.124 795.75 288.524 796.249 288.024C796.748 287.525 797.348 287.275 798.048 287.275H811.798L819.938 295.415V315.682C819.938 316.382 819.689 316.982 819.189 317.481C818.69 317.981 818.09 318.23 817.39 318.23H798.048ZM810.775 296.378V289.322H798.048C797.923 289.322 797.808 289.375 797.704 289.479C797.599 289.583 797.547 289.698 797.547 289.824V315.682C797.547 315.807 797.599 315.922 797.704 316.027C797.808 316.131 797.923 316.183 798.048 316.183H817.39C817.515 316.183 817.63 316.131 817.735 316.027C817.839 315.922 817.891 315.807 817.891 315.682V296.378H810.775Z" fill="url(#paint17_linear_2607_5973)"/>
</g>
<path d="M846.47 309.253H841.867V295.034H846.616C848.009 295.034 849.205 295.319 850.205 295.888C851.205 296.453 851.971 297.265 852.503 298.325C853.04 299.38 853.308 300.646 853.308 302.123C853.308 303.604 853.038 304.877 852.496 305.941C851.959 307.006 851.182 307.825 850.163 308.399C849.145 308.968 847.914 309.253 846.47 309.253ZM844.012 307.378H846.352C847.435 307.378 848.335 307.175 849.052 306.767C849.77 306.355 850.307 305.761 850.663 304.983C851.02 304.201 851.198 303.247 851.198 302.123C851.198 301.007 851.02 300.061 850.663 299.283C850.311 298.506 849.786 297.915 849.087 297.513C848.388 297.11 847.52 296.909 846.484 296.909H844.012V307.378ZM860.301 309.468C859.302 309.468 858.429 309.239 857.684 308.781C856.939 308.322 856.36 307.681 855.948 306.858C855.536 306.034 855.33 305.071 855.33 303.969C855.33 302.863 855.536 301.896 855.948 301.067C856.36 300.239 856.939 299.596 857.684 299.137C858.429 298.679 859.302 298.45 860.301 298.45C861.301 298.45 862.174 298.679 862.919 299.137C863.664 299.596 864.242 300.239 864.654 301.067C865.066 301.896 865.272 302.863 865.272 303.969C865.272 305.071 865.066 306.034 864.654 306.858C864.242 307.681 863.664 308.322 862.919 308.781C862.174 309.239 861.301 309.468 860.301 309.468ZM860.308 307.725C860.956 307.725 861.493 307.554 861.919 307.212C862.345 306.869 862.66 306.413 862.863 305.844C863.071 305.275 863.176 304.648 863.176 303.962C863.176 303.282 863.071 302.657 862.863 302.088C862.66 301.514 862.345 301.054 861.919 300.706C861.493 300.359 860.956 300.186 860.308 300.186C859.656 300.186 859.114 300.359 858.684 300.706C858.258 301.054 857.941 301.514 857.733 302.088C857.529 302.657 857.427 303.282 857.427 303.962C857.427 304.648 857.529 305.275 857.733 305.844C857.941 306.413 858.258 306.869 858.684 307.212C859.114 307.554 859.656 307.725 860.308 307.725ZM872.081 309.468C871.049 309.468 870.16 309.234 869.415 308.767C868.675 308.295 868.105 307.644 867.707 306.816C867.309 305.987 867.11 305.039 867.11 303.969C867.11 302.886 867.314 301.931 867.721 301.102C868.129 300.269 868.703 299.619 869.443 299.151C870.184 298.684 871.056 298.45 872.06 298.45C872.87 298.45 873.592 298.6 874.227 298.901C874.861 299.198 875.372 299.614 875.761 300.151C876.154 300.688 876.388 301.315 876.462 302.032H874.442C874.331 301.533 874.076 301.102 873.678 300.741C873.285 300.38 872.757 300.2 872.095 300.2C871.517 300.2 871.01 300.352 870.575 300.658C870.144 300.959 869.809 301.389 869.568 301.949C869.327 302.505 869.207 303.162 869.207 303.921C869.207 304.698 869.325 305.37 869.561 305.934C869.797 306.499 870.13 306.936 870.561 307.246C870.996 307.556 871.507 307.712 872.095 307.712C872.489 307.712 872.845 307.64 873.164 307.496C873.488 307.348 873.759 307.138 873.977 306.865C874.199 306.591 874.354 306.263 874.442 305.879H876.462C876.388 306.568 876.164 307.184 875.789 307.725C875.414 308.267 874.912 308.693 874.282 309.003C873.657 309.313 872.924 309.468 872.081 309.468ZM885.437 304.83V298.589H887.52V309.253H885.479V307.406H885.368C885.123 307.975 884.729 308.45 884.188 308.829C883.651 309.204 882.982 309.392 882.181 309.392C881.496 309.392 880.89 309.241 880.362 308.94C879.839 308.635 879.427 308.184 879.126 307.587C878.83 306.989 878.682 306.251 878.682 305.372V298.589H880.758V305.122C880.758 305.849 880.959 306.427 881.362 306.858C881.765 307.288 882.288 307.503 882.931 307.503C883.32 307.503 883.706 307.406 884.09 307.212C884.479 307.017 884.801 306.723 885.055 306.33C885.315 305.937 885.442 305.437 885.437 304.83ZM890.309 309.253V298.589H892.302V300.325H892.434C892.656 299.737 893.019 299.279 893.524 298.95C894.028 298.617 894.632 298.45 895.336 298.45C896.049 298.45 896.646 298.617 897.127 298.95C897.613 299.283 897.972 299.741 898.203 300.325H898.314C898.569 299.755 898.974 299.302 899.529 298.964C900.085 298.621 900.746 298.45 901.515 298.45C902.482 298.45 903.271 298.753 903.882 299.36C904.498 299.966 904.806 300.88 904.806 302.102V309.253H902.73V302.296C902.73 301.574 902.533 301.051 902.14 300.727C901.746 300.403 901.276 300.241 900.73 300.241C900.054 300.241 899.529 300.449 899.154 300.866C898.779 301.278 898.592 301.808 898.592 302.456V309.253H896.523V302.164C896.523 301.586 896.342 301.121 895.981 300.769C895.62 300.417 895.151 300.241 894.572 300.241C894.179 300.241 893.815 300.345 893.482 300.554C893.153 300.757 892.887 301.042 892.684 301.408C892.485 301.773 892.385 302.197 892.385 302.678V309.253H890.309ZM912.184 309.468C911.133 309.468 910.228 309.244 909.469 308.795C908.715 308.341 908.132 307.705 907.72 306.885C907.312 306.061 907.109 305.096 907.109 303.99C907.109 302.898 907.312 301.935 907.72 301.102C908.132 300.269 908.706 299.619 909.442 299.151C910.182 298.684 911.048 298.45 912.038 298.45C912.64 298.45 913.223 298.55 913.788 298.749C914.352 298.948 914.859 299.26 915.308 299.686C915.757 300.112 916.111 300.665 916.37 301.345C916.63 302.021 916.759 302.842 916.759 303.81V304.546H908.282V302.991H914.725C914.725 302.444 914.614 301.961 914.392 301.539C914.17 301.114 913.857 300.778 913.454 300.533C913.056 300.288 912.589 300.165 912.052 300.165C911.469 300.165 910.96 300.308 910.525 300.595C910.094 300.878 909.761 301.248 909.525 301.706C909.293 302.16 909.178 302.653 909.178 303.185V304.4C909.178 305.113 909.303 305.719 909.553 306.219C909.807 306.719 910.161 307.101 910.615 307.364C911.068 307.624 911.598 307.753 912.205 307.753C912.598 307.753 912.957 307.698 913.281 307.587C913.605 307.471 913.885 307.3 914.121 307.073C914.357 306.846 914.537 306.566 914.662 306.233L916.627 306.587C916.47 307.165 916.188 307.672 915.78 308.107C915.378 308.538 914.871 308.873 914.26 309.114C913.653 309.35 912.961 309.468 912.184 309.468ZM921.138 302.921V309.253H919.062V298.589H921.055V300.325H921.187C921.432 299.76 921.816 299.306 922.339 298.964C922.867 298.621 923.531 298.45 924.332 298.45C925.059 298.45 925.695 298.603 926.241 298.908C926.787 299.209 927.211 299.658 927.512 300.255C927.812 300.852 927.963 301.59 927.963 302.47V309.253H925.887V302.72C925.887 301.947 925.686 301.343 925.283 300.908C924.88 300.468 924.327 300.248 923.624 300.248C923.142 300.248 922.714 300.352 922.339 300.561C921.969 300.769 921.675 301.074 921.458 301.477C921.245 301.875 921.138 302.356 921.138 302.921ZM935.725 298.589V300.255H929.9V298.589H935.725ZM931.462 296.034H933.538V306.122C933.538 306.524 933.598 306.828 933.718 307.031C933.839 307.23 933.994 307.367 934.183 307.441C934.378 307.51 934.588 307.545 934.815 307.545C934.982 307.545 935.128 307.533 935.253 307.51C935.378 307.487 935.475 307.469 935.544 307.455L935.919 309.169C935.799 309.216 935.628 309.262 935.405 309.308C935.183 309.359 934.906 309.387 934.572 309.392C934.026 309.401 933.517 309.304 933.045 309.1C932.573 308.896 932.191 308.582 931.899 308.156C931.608 307.73 931.462 307.195 931.462 306.552V296.034ZM941.124 309.489C940.449 309.489 939.838 309.364 939.292 309.114C938.745 308.859 938.313 308.491 937.993 308.01C937.679 307.529 937.521 306.939 937.521 306.24C937.521 305.638 937.637 305.143 937.868 304.754C938.1 304.365 938.412 304.057 938.806 303.831C939.199 303.604 939.639 303.433 940.125 303.317C940.611 303.201 941.106 303.113 941.61 303.053C942.249 302.979 942.768 302.919 943.166 302.872C943.564 302.822 943.853 302.741 944.033 302.629C944.214 302.518 944.304 302.338 944.304 302.088V302.039C944.304 301.433 944.133 300.963 943.79 300.63C943.453 300.297 942.948 300.13 942.277 300.13C941.578 300.13 941.027 300.285 940.625 300.595C940.227 300.901 939.951 301.241 939.798 301.616L937.847 301.172C938.079 300.524 938.417 300.001 938.861 299.602C939.31 299.2 939.826 298.908 940.409 298.728C940.993 298.543 941.606 298.45 942.249 298.45C942.675 298.45 943.126 298.501 943.603 298.603C944.084 298.7 944.533 298.88 944.95 299.144C945.371 299.408 945.716 299.785 945.984 300.276C946.253 300.762 946.387 301.394 946.387 302.171V309.253H944.36V307.795H944.276C944.142 308.063 943.941 308.327 943.672 308.586C943.404 308.846 943.059 309.061 942.638 309.232C942.217 309.403 941.712 309.489 941.124 309.489ZM941.576 307.823C942.15 307.823 942.64 307.709 943.048 307.482C943.459 307.256 943.772 306.959 943.985 306.594C944.202 306.223 944.311 305.828 944.311 305.407V304.032C944.237 304.106 944.094 304.175 943.881 304.24C943.672 304.3 943.434 304.354 943.166 304.4C942.897 304.442 942.636 304.481 942.381 304.518C942.126 304.55 941.914 304.578 941.742 304.601C941.34 304.652 940.972 304.738 940.638 304.858C940.31 304.978 940.046 305.152 939.847 305.379C939.653 305.601 939.555 305.897 939.555 306.267C939.555 306.781 939.745 307.17 940.125 307.434C940.504 307.693 940.988 307.823 941.576 307.823ZM954.13 298.589V300.255H948.305V298.589H954.13ZM949.867 296.034H951.943V306.122C951.943 306.524 952.003 306.828 952.123 307.031C952.244 307.23 952.399 307.367 952.589 307.441C952.783 307.51 952.994 307.545 953.22 307.545C953.387 307.545 953.533 307.533 953.658 307.51C953.783 307.487 953.88 307.469 953.949 307.455L954.324 309.169C954.204 309.216 954.033 309.262 953.81 309.308C953.588 309.359 953.311 309.387 952.977 309.392C952.431 309.401 951.922 309.304 951.45 309.1C950.978 308.896 950.596 308.582 950.304 308.156C950.013 307.73 949.867 307.195 949.867 306.552V296.034ZM956.426 309.253V298.589H958.502V309.253H956.426ZM957.474 296.943C957.113 296.943 956.803 296.823 956.544 296.582C956.29 296.337 956.162 296.046 956.162 295.708C956.162 295.365 956.29 295.074 956.544 294.833C956.803 294.588 957.113 294.465 957.474 294.465C957.835 294.465 958.143 294.588 958.398 294.833C958.657 295.074 958.787 295.365 958.787 295.708C958.787 296.046 958.657 296.337 958.398 296.582C958.143 296.823 957.835 296.943 957.474 296.943ZM965.787 309.468C964.787 309.468 963.914 309.239 963.169 308.781C962.424 308.322 961.845 307.681 961.433 306.858C961.022 306.034 960.816 305.071 960.816 303.969C960.816 302.863 961.022 301.896 961.433 301.067C961.845 300.239 962.424 299.596 963.169 299.137C963.914 298.679 964.787 298.45 965.787 298.45C966.786 298.45 967.659 298.679 968.404 299.137C969.149 299.596 969.728 300.239 970.14 301.067C970.552 301.896 970.757 302.863 970.757 303.969C970.757 305.071 970.552 306.034 970.14 306.858C969.728 307.681 969.149 308.322 968.404 308.781C967.659 309.239 966.786 309.468 965.787 309.468ZM965.793 307.725C966.441 307.725 966.978 307.554 967.404 307.212C967.83 306.869 968.145 306.413 968.348 305.844C968.557 305.275 968.661 304.648 968.661 303.962C968.661 303.282 968.557 302.657 968.348 302.088C968.145 301.514 967.83 301.054 967.404 300.706C966.978 300.359 966.441 300.186 965.793 300.186C965.141 300.186 964.599 300.359 964.169 300.706C963.743 301.054 963.426 301.514 963.218 302.088C963.014 302.657 962.912 303.282 962.912 303.962C962.912 304.648 963.014 305.275 963.218 305.844C963.426 306.413 963.743 306.869 964.169 307.212C964.599 307.554 965.141 307.725 965.793 307.725ZM975.15 302.921V309.253H973.075V298.589H975.067V300.325H975.199C975.444 299.76 975.829 299.306 976.352 298.964C976.879 298.621 977.543 298.45 978.344 298.45C979.071 298.45 979.707 298.603 980.253 298.908C980.799 299.209 981.223 299.658 981.524 300.255C981.825 300.852 981.975 301.59 981.975 302.47V309.253H979.899V302.72C979.899 301.947 979.698 301.343 979.295 300.908C978.893 300.468 978.339 300.248 977.636 300.248C977.155 300.248 976.726 300.352 976.352 300.561C975.981 300.769 975.687 301.074 975.47 301.477C975.257 301.875 975.15 302.356 975.15 302.921Z" fill="#231F20"/>
<rect x="713.322" y="148.792" width="204.09" height="63.5393" rx="20.1324" fill="white"/>
<rect x="713.322" y="148.792" width="204.09" height="63.5393" rx="20.1324" stroke="url(#paint18_linear_2607_5973)" stroke-width="1.62921"/>
<mask id="mask5_2607_5973" style="mask-type:alpha" maskUnits="userSpaceOnUse" x="728" y="161" width="40" height="40">
<rect x="728.801" y="161.011" width="39.1011" height="39.1011" fill="#D9D9D9"/>
</mask>
<g mask="url(#mask5_2607_5973)">
<path d="M744.944 196.039L744.246 191.12C743.729 190.945 743.179 190.693 742.598 190.363C742.016 190.034 741.509 189.684 741.078 189.314L736.509 191.344L733.086 185.335L737.156 182.313C737.107 182.042 737.072 181.752 737.051 181.445C737.03 181.138 737.019 180.849 737.019 180.577C737.019 180.316 737.03 180.033 737.051 179.728C737.072 179.423 737.107 179.117 737.156 178.81L733.086 175.779L736.509 169.811L741.063 171.815C741.525 171.442 742.038 171.092 742.602 170.768C743.165 170.444 743.708 170.198 744.231 170.031L744.944 165.084H751.757L752.455 170.019C753.017 170.226 753.564 170.478 754.096 170.776C754.628 171.073 755.121 171.42 755.575 171.815L760.202 169.811L763.615 175.779L759.482 178.814C759.552 179.117 759.594 179.417 759.608 179.711C759.622 180.006 759.629 180.29 759.629 180.562C759.629 180.824 759.62 181.099 759.6 181.389C759.581 181.678 759.539 181.986 759.474 182.315L763.586 185.335L760.162 191.344L755.575 189.298C755.102 189.689 754.6 190.046 754.068 190.369C753.536 190.692 752.998 190.937 752.455 191.105L751.757 196.039H744.944ZM746.644 193.992H750.028L750.613 189.507C751.467 189.29 752.258 188.971 752.987 188.551C753.716 188.131 754.414 187.595 755.082 186.944L759.268 188.739L760.889 185.892L757.2 183.152C757.318 182.689 757.406 182.248 757.464 181.829C757.522 181.409 757.551 180.987 757.551 180.562C757.551 180.12 757.525 179.694 757.472 179.285C757.42 178.875 757.329 178.448 757.2 178.003L760.921 175.231L759.3 172.384L755.067 174.188C754.503 173.565 753.825 173.015 753.033 172.539C752.24 172.063 751.429 171.755 750.598 171.617L750.057 167.131H746.652L746.114 171.601C745.235 171.786 744.425 172.092 743.684 172.517C742.943 172.942 742.248 173.491 741.598 174.164L737.401 172.384L735.78 175.231L739.464 177.948C739.339 178.364 739.247 178.789 739.187 179.223C739.127 179.658 739.097 180.109 739.097 180.577C739.097 181.02 739.127 181.453 739.187 181.877C739.247 182.301 739.334 182.726 739.448 183.152L735.78 185.892L737.401 188.739L741.582 186.951C742.222 187.604 742.915 188.142 743.659 188.564C744.403 188.986 745.216 189.305 746.098 189.523L746.644 193.992ZM748.325 185.251C749.629 185.251 750.737 184.796 751.648 183.885C752.559 182.974 753.014 181.866 753.014 180.562C753.014 179.258 752.559 178.15 751.648 177.239C750.737 176.328 749.629 175.873 748.325 175.873C747.023 175.873 745.915 176.328 745.004 177.239C744.092 178.15 743.636 179.258 743.636 180.562C743.636 181.866 744.092 182.974 745.004 183.885C745.915 184.796 747.023 185.251 748.325 185.251Z" fill="url(#paint19_linear_2607_5973)"/>
</g>
<path d="M782.498 172.843H785.101L789.628 183.896H789.794L794.321 172.843H796.925V187.062H794.883V176.773H794.751L790.558 187.041H788.864L784.671 176.766H784.539V187.062H782.498V172.843ZM802.98 187.298C802.305 187.298 801.694 187.173 801.147 186.923C800.601 186.668 800.168 186.3 799.849 185.819C799.534 185.338 799.377 184.748 799.377 184.049C799.377 183.447 799.493 182.952 799.724 182.563C799.956 182.174 800.268 181.866 800.661 181.64C801.055 181.413 801.495 181.241 801.981 181.126C802.467 181.01 802.962 180.922 803.466 180.862C804.105 180.788 804.623 180.728 805.021 180.681C805.419 180.631 805.709 180.55 805.889 180.438C806.07 180.327 806.16 180.147 806.16 179.897V179.848C806.16 179.242 805.989 178.772 805.646 178.439C805.308 178.106 804.804 177.939 804.133 177.939C803.434 177.939 802.883 178.094 802.48 178.404C802.082 178.71 801.807 179.05 801.654 179.425L799.703 178.98C799.935 178.333 800.273 177.81 800.717 177.411C801.166 177.009 801.682 176.717 802.265 176.537C802.848 176.352 803.462 176.259 804.105 176.259C804.531 176.259 804.982 176.31 805.459 176.412C805.94 176.509 806.389 176.689 806.806 176.953C807.227 177.217 807.572 177.594 807.84 178.085C808.109 178.571 808.243 179.203 808.243 179.98V187.062H806.216V185.604H806.132C805.998 185.872 805.797 186.136 805.528 186.395C805.26 186.654 804.915 186.87 804.494 187.041C804.073 187.212 803.568 187.298 802.98 187.298ZM803.432 185.632C804.005 185.632 804.496 185.518 804.903 185.291C805.315 185.065 805.628 184.768 805.841 184.403C806.058 184.032 806.167 183.637 806.167 183.216V181.841C806.093 181.915 805.949 181.984 805.737 182.049C805.528 182.109 805.29 182.163 805.021 182.209C804.753 182.25 804.491 182.29 804.237 182.327C803.982 182.359 803.769 182.387 803.598 182.41C803.195 182.461 802.828 182.547 802.494 182.667C802.166 182.787 801.902 182.961 801.703 183.188C801.508 183.41 801.411 183.706 801.411 184.076C801.411 184.59 801.601 184.979 801.981 185.243C802.36 185.502 802.844 185.632 803.432 185.632ZM811.008 187.062V176.398H813.084V187.062H811.008ZM812.056 174.752C811.695 174.752 811.385 174.632 811.126 174.391C810.871 174.146 810.744 173.854 810.744 173.517C810.744 173.174 810.871 172.883 811.126 172.642C811.385 172.397 811.695 172.274 812.056 172.274C812.417 172.274 812.725 172.397 812.979 172.642C813.239 172.883 813.368 173.174 813.368 173.517C813.368 173.854 813.239 174.146 812.979 174.391C812.725 174.632 812.417 174.752 812.056 174.752ZM817.952 180.73V187.062H815.876V176.398H817.869V178.133H818.001C818.246 177.569 818.63 177.115 819.153 176.773C819.681 176.43 820.345 176.259 821.146 176.259C821.872 176.259 822.509 176.412 823.055 176.717C823.601 177.018 824.025 177.467 824.326 178.064C824.626 178.661 824.777 179.399 824.777 180.279V187.062H822.701V180.529C822.701 179.756 822.5 179.152 822.097 178.717C821.694 178.277 821.141 178.057 820.438 178.057C819.956 178.057 819.528 178.161 819.153 178.37C818.783 178.578 818.489 178.883 818.271 179.286C818.059 179.684 817.952 180.165 817.952 180.73ZM832.539 176.398V178.064H826.714V176.398H832.539ZM828.276 173.843H830.352V183.931C830.352 184.333 830.412 184.636 830.532 184.84C830.653 185.039 830.808 185.176 830.997 185.25C831.192 185.319 831.402 185.354 831.629 185.354C831.796 185.354 831.942 185.342 832.067 185.319C832.192 185.296 832.289 185.278 832.358 185.264L832.733 186.978C832.613 187.025 832.441 187.071 832.219 187.117C831.997 187.168 831.719 187.196 831.386 187.201C830.84 187.21 830.331 187.113 829.859 186.909C829.387 186.705 829.005 186.391 828.713 185.965C828.422 185.539 828.276 185.004 828.276 184.361V173.843ZM839.316 187.277C838.266 187.277 837.361 187.053 836.602 186.604C835.847 186.15 835.264 185.514 834.852 184.694C834.445 183.87 834.241 182.905 834.241 181.799C834.241 180.707 834.445 179.744 834.852 178.911C835.264 178.078 835.838 177.428 836.574 176.96C837.315 176.493 838.18 176.259 839.171 176.259C839.772 176.259 840.356 176.358 840.92 176.558C841.485 176.757 841.992 177.069 842.441 177.495C842.89 177.921 843.244 178.474 843.503 179.154C843.762 179.83 843.892 180.651 843.892 181.619V182.355H835.415V180.799H841.857C841.857 180.253 841.746 179.77 841.524 179.348C841.302 178.923 840.99 178.587 840.587 178.342C840.189 178.096 839.721 177.974 839.185 177.974C838.601 177.974 838.092 178.117 837.657 178.404C837.227 178.687 836.893 179.057 836.657 179.515C836.426 179.969 836.31 180.462 836.31 180.994V182.209C836.31 182.922 836.435 183.528 836.685 184.028C836.94 184.528 837.294 184.91 837.747 185.173C838.201 185.433 838.731 185.562 839.337 185.562C839.731 185.562 840.089 185.507 840.413 185.396C840.737 185.28 841.017 185.109 841.253 184.882C841.49 184.655 841.67 184.375 841.795 184.042L843.76 184.396C843.602 184.974 843.32 185.481 842.913 185.916C842.51 186.347 842.003 186.682 841.392 186.923C840.786 187.159 840.094 187.277 839.316 187.277ZM848.271 180.73V187.062H846.195V176.398H848.187V178.133H848.319C848.565 177.569 848.949 177.115 849.472 176.773C850 176.43 850.664 176.259 851.464 176.259C852.191 176.259 852.827 176.412 853.374 176.717C853.92 177.018 854.343 177.467 854.644 178.064C854.945 178.661 855.095 179.399 855.095 180.279V187.062H853.02V180.529C853.02 179.756 852.818 179.152 852.416 178.717C852.013 178.277 851.46 178.057 850.756 178.057C850.275 178.057 849.847 178.161 849.472 178.37C849.102 178.578 848.808 178.883 848.59 179.286C848.377 179.684 848.271 180.165 848.271 180.73ZM860.983 187.298C860.307 187.298 859.696 187.173 859.15 186.923C858.604 186.668 858.171 186.3 857.852 185.819C857.537 185.338 857.38 184.748 857.38 184.049C857.38 183.447 857.495 182.952 857.727 182.563C857.958 182.174 858.271 181.866 858.664 181.64C859.057 181.413 859.497 181.241 859.983 181.126C860.469 181.01 860.964 180.922 861.469 180.862C862.108 180.788 862.626 180.728 863.024 180.681C863.422 180.631 863.711 180.55 863.892 180.438C864.072 180.327 864.163 180.147 864.163 179.897V179.848C864.163 179.242 863.991 178.772 863.649 178.439C863.311 178.106 862.806 177.939 862.135 177.939C861.436 177.939 860.886 178.094 860.483 178.404C860.085 178.71 859.81 179.05 859.657 179.425L857.706 178.98C857.937 178.333 858.275 177.81 858.72 177.411C859.168 177.009 859.685 176.717 860.268 176.537C860.851 176.352 861.464 176.259 862.108 176.259C862.533 176.259 862.985 176.31 863.461 176.412C863.943 176.509 864.392 176.689 864.808 176.953C865.229 177.217 865.574 177.594 865.843 178.085C866.111 178.571 866.245 179.203 866.245 179.98V187.062H864.218V185.604H864.135C864.001 185.872 863.799 186.136 863.531 186.395C863.262 186.654 862.918 186.87 862.496 187.041C862.075 187.212 861.571 187.298 860.983 187.298ZM861.434 185.632C862.008 185.632 862.499 185.518 862.906 185.291C863.318 185.065 863.63 184.768 863.843 184.403C864.061 184.032 864.17 183.637 864.17 183.216V181.841C864.095 181.915 863.952 181.984 863.739 182.049C863.531 182.109 863.292 182.163 863.024 182.209C862.756 182.25 862.494 182.29 862.239 182.327C861.985 182.359 861.772 182.387 861.601 182.41C861.198 182.461 860.83 182.547 860.497 182.667C860.168 182.787 859.904 182.961 859.705 183.188C859.511 183.41 859.414 183.706 859.414 184.076C859.414 184.59 859.604 184.979 859.983 185.243C860.363 185.502 860.846 185.632 861.434 185.632ZM871.086 180.73V187.062H869.01V176.398H871.003V178.133H871.135C871.38 177.569 871.764 177.115 872.287 176.773C872.815 176.43 873.479 176.259 874.28 176.259C875.006 176.259 875.643 176.412 876.189 176.717C876.735 177.018 877.159 177.467 877.46 178.064C877.76 178.661 877.911 179.399 877.911 180.279V187.062H875.835V180.529C875.835 179.756 875.634 179.152 875.231 178.717C874.828 178.277 874.275 178.057 873.572 178.057C873.09 178.057 872.662 178.161 872.287 178.37C871.917 178.578 871.623 178.883 871.406 179.286C871.193 179.684 871.086 180.165 871.086 180.73ZM885.187 187.277C884.155 187.277 883.266 187.043 882.521 186.576C881.78 186.104 881.211 185.453 880.813 184.625C880.415 183.796 880.216 182.848 880.216 181.778C880.216 180.695 880.419 179.74 880.827 178.911C881.234 178.078 881.808 177.428 882.548 176.96C883.289 176.493 884.162 176.259 885.166 176.259C885.976 176.259 886.698 176.409 887.332 176.71C887.966 177.006 888.478 177.423 888.866 177.96C889.26 178.497 889.493 179.124 889.568 179.841H887.547C887.436 179.342 887.182 178.911 886.784 178.55C886.39 178.189 885.862 178.009 885.201 178.009C884.622 178.009 884.115 178.161 883.68 178.467C883.25 178.768 882.914 179.198 882.673 179.758C882.433 180.313 882.312 180.971 882.312 181.73C882.312 182.507 882.43 183.178 882.667 183.743C882.903 184.308 883.236 184.745 883.666 185.055C884.101 185.365 884.613 185.52 885.201 185.52C885.594 185.52 885.95 185.449 886.27 185.305C886.594 185.157 886.865 184.947 887.082 184.673C887.304 184.4 887.459 184.072 887.547 183.688H889.568C889.493 184.377 889.269 184.993 888.894 185.534C888.519 186.076 888.017 186.502 887.388 186.812C886.763 187.122 886.029 187.277 885.187 187.277ZM896.384 187.277C895.333 187.277 894.428 187.053 893.669 186.604C892.914 186.15 892.331 185.514 891.919 184.694C891.512 183.87 891.308 182.905 891.308 181.799C891.308 180.707 891.512 179.744 891.919 178.911C892.331 178.078 892.905 177.428 893.641 176.96C894.382 176.493 895.247 176.259 896.238 176.259C896.839 176.259 897.423 176.358 897.987 176.558C898.552 176.757 899.059 177.069 899.508 177.495C899.957 177.921 900.311 178.474 900.57 179.154C900.829 179.83 900.959 180.651 900.959 181.619V182.355H892.482V180.799H898.925C898.925 180.253 898.813 179.77 898.591 179.348C898.369 178.923 898.057 178.587 897.654 178.342C897.256 178.096 896.788 177.974 896.252 177.974C895.668 177.974 895.159 178.117 894.724 178.404C894.294 178.687 893.961 179.057 893.724 179.515C893.493 179.969 893.377 180.462 893.377 180.994V182.209C893.377 182.922 893.502 183.528 893.752 184.028C894.007 184.528 894.361 184.91 894.814 185.173C895.268 185.433 895.798 185.562 896.404 185.562C896.798 185.562 897.156 185.507 897.48 185.396C897.804 185.28 898.084 185.109 898.321 184.882C898.557 184.655 898.737 184.375 898.862 184.042L900.827 184.396C900.669 184.974 900.387 185.481 899.98 185.916C899.577 186.347 899.07 186.682 898.459 186.923C897.853 187.159 897.161 187.277 896.384 187.277Z" fill="#231F20"/>
</g>
<defs>
<filter id="filter0_d_2607_5973" x="519.664" y="257.135" width="104.27" height="97.7528" filterUnits="userSpaceOnUse" color-interpolation-filters="sRGB">
<feFlood flood-opacity="0" result="BackgroundImageFix"/>
<feColorMatrix in="SourceAlpha" type="matrix" values="0 0 0 0 0 0 0 0 0 0 0 0 0 0 0 0 0 0 127 0" result="hardAlpha"/>
<feOffset dy="6.51685"/>
<feComposite in2="hardAlpha" operator="out"/>
<feColorMatrix type="matrix" values="0 0 0 0 0.384314 0 0 0 0 0.211765 0 0 0 0 0.121569 0 0 0 1 0"/>
<feBlend mode="normal" in2="BackgroundImageFix" result="effect1_dropShadow_2607_5973"/>
<feBlend mode="normal" in="SourceGraphic" in2="effect1_dropShadow_2607_5973" result="shape"/>
</filter>
<linearGradient id="paint0_linear_2607_5973" x1="606.796" y1="301.753" x2="340.552" y2="307.258" gradientUnits="userSpaceOnUse">
<stop stop-color="#FDE2D3"/>
<stop offset="1" stop-color="#F26A1B"/>
</linearGradient>
<linearGradient id="paint1_linear_2607_5973" x1="610.116" y1="301.753" x2="876.36" y2="307.258" gradientUnits="userSpaceOnUse">
<stop stop-color="#FDE2D3"/>
<stop offset="1" stop-color="#F26A1B"/>
</linearGradient>
<linearGradient id="paint2_linear_2607_5973" x1="497.263" y1="182.191" x2="497.263" y2="304.382" gradientUnits="userSpaceOnUse">
<stop stop-color="#F26A1B"/>
<stop offset="1" stop-color="#FDE2D3"/>
</linearGradient>
<linearGradient id="paint3_linear_2607_5973" x1="497.263" y1="423.315" x2="497.263" y2="301.124" gradientUnits="userSpaceOnUse">
<stop stop-color="#F26A1B"/>
<stop offset="1" stop-color="#FDE2D3"/>
</linearGradient>
<linearGradient id="paint4_linear_2607_5973" x1="653.667" y1="180.562" x2="653.667" y2="302.753" gradientUnits="userSpaceOnUse">
<stop stop-color="#F26A1B"/>
<stop offset="1" stop-color="#FDE2D3"/>
</linearGradient>
<linearGradient id="paint5_linear_2607_5973" x1="653.667" y1="424.944" x2="653.667" y2="302.753" gradientUnits="userSpaceOnUse">
<stop stop-color="#F26A1B"/>
<stop offset="1" stop-color="#FDE2D3"/>
</linearGradient>
<linearGradient id="paint6_linear_2607_5973" x1="571.798" y1="14.382" x2="571.798" y2="584.607" gradientUnits="userSpaceOnUse">
<stop stop-color="#FCD6C1"/>
<stop offset="1" stop-color="white"/>
</linearGradient>
<linearGradient id="paint7_linear_2607_5973" x1="571.799" y1="293.792" x2="571.799" y2="251.433" gradientUnits="userSpaceOnUse">
<stop stop-color="#231F20"/>
<stop offset="1" stop-color="#F26A1B"/>
</linearGradient>
<linearGradient id="paint8_linear_2607_5973" x1="317.641" y1="147.978" x2="317.641" y2="213.146" gradientUnits="userSpaceOnUse">
<stop stop-color="#F69A65"/>
<stop offset="1" stop-color="#8C3E10"/>
</linearGradient>
<linearGradient id="paint9_linear_2607_5973" x1="258.996" y1="167.183" x2="258.996" y2="194.817" gradientUnits="userSpaceOnUse">
<stop stop-color="#4A4340"/>
<stop offset="1" stop-color="#D05E1C"/>
</linearGradient>
<linearGradient id="paint10_linear_2607_5973" x1="248.399" y1="270.169" x2="248.399" y2="335.337" gradientUnits="userSpaceOnUse">
<stop stop-color="#F69A65"/>
<stop offset="1" stop-color="#8C3E10"/>
</linearGradient>
<linearGradient id="paint11_linear_2607_5973" x1="179.882" y1="287.275" x2="179.882" y2="317.322" gradientUnits="userSpaceOnUse">
<stop stop-color="#4A4340"/>
<stop offset="1" stop-color="#D05E1C"/>
</linearGradient>
<linearGradient id="paint12_linear_2607_5973" x1="338.82" y1="390.73" x2="338.82" y2="455.899" gradientUnits="userSpaceOnUse">
<stop stop-color="#F69A65"/>
<stop offset="1" stop-color="#8C3E10"/>
</linearGradient>
<linearGradient id="paint13_linear_2607_5973" x1="275.282" y1="408.652" x2="275.282" y2="437.977" gradientUnits="userSpaceOnUse">
<stop stop-color="#4A4340"/>
<stop offset="1" stop-color="#D05E1C"/>
</linearGradient>
<linearGradient id="paint14_linear_2607_5973" x1="803.147" y1="390.73" x2="803.147" y2="455.899" gradientUnits="userSpaceOnUse">
<stop stop-color="#F69A65"/>
<stop offset="1" stop-color="#8C3E10"/>
</linearGradient>
<linearGradient id="paint15_linear_2607_5973" x1="740.089" y1="408.524" x2="740.089" y2="438.585" gradientUnits="userSpaceOnUse">
<stop stop-color="#4A4340"/>
<stop offset="1" stop-color="#D05E1C"/>
</linearGradient>
<linearGradient id="paint16_linear_2607_5973" x1="886.237" y1="270.169" x2="886.237" y2="335.337" gradientUnits="userSpaceOnUse">
<stop stop-color="#F69A65"/>
<stop offset="1" stop-color="#8C3E10"/>
</linearGradient>
<linearGradient id="paint17_linear_2607_5973" x1="807.719" y1="287.275" x2="807.719" y2="318.23" gradientUnits="userSpaceOnUse">
<stop stop-color="#4A4340"/>
<stop offset="1" stop-color="#D05E1C"/>
</linearGradient>
<linearGradient id="paint18_linear_2607_5973" x1="815.367" y1="147.978" x2="815.367" y2="213.146" gradientUnits="userSpaceOnUse">
<stop stop-color="#F69A65"/>
<stop offset="1" stop-color="#8C3E10"/>
</linearGradient>
<linearGradient id="paint19_linear_2607_5973" x1="748.35" y1="165.084" x2="748.35" y2="196.039" gradientUnits="userSpaceOnUse">
<stop stop-color="#4A4340"/>
<stop offset="1" stop-color="#D05E1C"/>
</linearGradient>
<clipPath id="clip0_2607_5973">
<rect width="1003.6" height="435" fill="white" transform="translate(70 60)"/>
</clipPath>
</defs>
</svg>
