<svg width="1144" height="556" viewBox="0 0 1144 556" fill="none" xmlns="http://www.w3.org/2000/svg">
<rect width="1144" height="556" rx="16" fill="#FDF7F2"/>
<path d="M345.607 155.656H390.201C415.295 155.656 435.637 175.998 435.637 201.091V236.43C435.637 261.523 455.979 281.866 481.072 281.866H521.46" stroke="url(#paint0_linear_2607_6062)" stroke-width="1.6828"/>
<path d="M625.793 281.866H661.132C686.225 281.866 706.567 261.523 706.567 236.43V201.091C706.567 175.998 726.909 155.656 752.003 155.656H791.548" stroke="url(#paint1_linear_2607_6062)" stroke-width="1.6828"/>
<path d="M625.793 281.866H899.247" stroke="url(#paint2_linear_2607_6062)" stroke-width="1.6828"/>
<path d="M625.793 281.866H661.132C686.225 281.866 706.567 302.208 706.567 327.301V355.909C706.567 381.002 726.909 401.344 752.003 401.344H791.548" stroke="url(#paint3_linear_2607_6062)" stroke-width="1.6828"/>
<path d="M345.607 399.661H390.201C415.295 399.661 435.637 379.319 435.637 354.226V327.301C435.637 302.208 455.979 281.866 481.072 281.866H521.46" stroke="url(#paint4_linear_2607_6062)" stroke-width="1.6828"/>
<path d="M242.959 281.866H521.462" stroke="url(#paint5_linear_2607_6062)" stroke-width="1.6828"/>
<g filter="url(#filter0_d_2607_6062)">
<rect x="517.254" y="234.747" width="107.699" height="94.2366" rx="33.6559" fill="url(#paint6_linear_2607_6062)"/>
<path d="M597.158 291.505C590.668 288.891 584.347 285.894 578.16 282.643C577.685 282.389 577.212 282.133 576.739 281.873C583.344 278.256 590.178 275.065 597.158 272.226C600.256 271.064 601.367 266.983 599.248 264.419C597.519 262.254 594.365 261.9 592.204 263.632C586.698 267.954 580.945 271.937 575.04 275.675C574.584 275.962 574.126 276.242 573.664 276.522C573.841 268.985 574.498 261.465 575.53 253.993C576.075 250.726 573.098 247.721 569.821 248.276C567.179 248.678 565.333 251.077 565.583 253.708C567.454 262.018 568.529 270.588 568.701 279.349C568.708 279.708 568.715 280.067 568.72 280.426C568.725 280.835 568.727 281.241 568.729 281.65C568.729 281.722 568.729 281.794 568.729 281.866C568.729 281.933 568.729 281.997 568.729 282.064C568.729 282.069 568.729 282.074 568.729 282.078C568.729 282.516 568.725 282.954 568.72 283.392C568.72 283.454 568.72 283.518 568.717 283.581C568.717 283.741 568.713 283.899 568.71 284.059C568.557 292.933 567.48 301.611 565.586 310.023C565.337 312.654 567.181 315.053 569.823 315.455C573.101 316.01 576.077 313.008 575.532 309.738C574.501 302.271 573.844 294.755 573.667 287.223C580.093 291.141 586.265 295.471 592.206 300.099C594.76 302.206 598.844 301.125 600.003 298.006C601.011 295.425 599.74 292.512 597.16 291.503L597.158 291.505Z" fill="white"/>
<path d="M554.473 286.911C553.611 287.315 552.746 287.712 551.877 288.102C549.263 289.276 546.648 290.443 543.984 291.503C540.898 292.67 539.792 296.734 541.899 299.296C543.621 301.465 546.774 301.824 548.941 300.097C549.691 299.499 550.451 298.92 551.215 298.341C551.982 297.77 552.744 297.196 553.515 296.636C555.054 295.509 556.597 294.388 558.159 293.297C561.78 290.628 558.63 285.098 554.473 286.906V286.911Z" fill="white"/>
<path d="M558.16 270.429C557.379 269.884 556.602 269.331 555.831 268.774C553.509 267.095 551.192 265.411 548.942 263.631C546.39 261.536 542.32 262.612 541.159 265.719C540.144 268.298 541.41 271.211 543.985 272.228C544.876 272.579 545.76 272.95 546.639 273.321C547.515 273.699 548.395 274.074 549.264 274.464C551.008 275.234 552.749 276.012 554.474 276.823C558.592 278.628 561.803 273.132 558.16 270.431V270.429Z" fill="white"/>
</g>
<rect x="791.55" y="120.317" width="70.6774" height="70.6774" rx="23.3187" fill="white"/>
<rect x="791.55" y="120.317" width="70.6774" height="70.6774" rx="23.3187" stroke="url(#paint7_linear_2607_6062)" stroke-width="3.36559"/>
<mask id="mask0_2607_6062" style="mask-type:alpha" maskUnits="userSpaceOnUse" x="807" y="135" width="41" height="41">
<rect x="807.537" y="135.462" width="40.3871" height="40.3871" fill="#D9D9D9"/>
</mask>
<g mask="url(#mask0_2607_6062)">
<path d="M827.733 171.642C826.483 171.642 825.42 171.205 824.545 170.33C823.67 169.456 823.233 168.394 823.233 167.144C823.233 166.972 823.245 166.793 823.27 166.609C823.295 166.424 823.332 166.246 823.382 166.073L819.388 163.821C818.982 164.224 818.511 164.536 817.974 164.757C817.437 164.979 816.86 165.089 816.242 165.089C814.993 165.089 813.931 164.651 813.056 163.773C812.182 162.896 811.744 161.831 811.744 160.578C811.744 159.325 812.182 158.258 813.056 157.379C813.931 156.5 814.993 156.061 816.242 156.061C816.892 156.061 817.501 156.19 818.069 156.447C818.638 156.705 819.133 157.064 819.556 157.523L824.983 154.789C824.856 154.133 824.875 153.486 825.04 152.847C825.205 152.208 825.505 151.633 825.941 151.122L824.171 148.465C823.964 148.543 823.745 148.601 823.513 148.64C823.282 148.679 823.043 148.698 822.795 148.698C821.546 148.698 820.484 148.259 819.61 147.382C818.735 146.505 818.297 145.44 818.297 144.187C818.297 142.933 818.735 141.867 819.61 140.988C820.485 140.109 821.548 139.669 822.798 139.669C824.048 139.669 825.115 140.108 826 140.986C826.884 141.864 827.326 142.93 827.326 144.184C827.326 144.734 827.23 145.258 827.037 145.755C826.843 146.252 826.582 146.695 826.252 147.083L828.048 149.74C828.272 149.663 828.491 149.604 828.705 149.565C828.918 149.527 829.147 149.507 829.391 149.507C829.864 149.507 830.309 149.572 830.726 149.7C831.143 149.828 831.532 150.015 831.892 150.261L835.09 147.65C834.967 147.369 834.869 147.082 834.797 146.787C834.725 146.493 834.689 146.186 834.689 145.867C834.689 144.613 835.126 143.547 836.001 142.669C836.876 141.791 837.938 141.352 839.188 141.352C840.438 141.352 841.506 141.791 842.39 142.668C843.275 143.545 843.717 144.611 843.717 145.864C843.717 147.117 843.275 148.183 842.39 149.062C841.506 149.941 840.438 150.381 839.187 150.381C838.71 150.381 838.267 150.31 837.857 150.167C837.447 150.025 837.062 149.831 836.701 149.585L833.52 152.222C833.654 152.508 833.754 152.801 833.821 153.101C833.888 153.4 833.921 153.707 833.921 154.022C833.921 155.276 833.479 156.342 832.594 157.219C831.71 158.097 830.642 158.536 829.391 158.536C828.739 158.536 828.131 158.404 827.566 158.141C827 157.878 826.506 157.517 826.084 157.057L820.682 159.766C820.771 160.072 820.804 160.38 820.783 160.69C820.762 161 820.709 161.31 820.624 161.62L824.627 163.898C825.033 163.495 825.497 163.183 826.021 162.961C826.544 162.74 827.114 162.63 827.731 162.63C828.982 162.63 830.05 163.067 830.934 163.942C831.819 164.817 832.261 165.88 832.261 167.13C832.261 168.38 831.819 169.445 830.934 170.324C830.05 171.203 828.983 171.642 827.733 171.642ZM816.251 162.565C816.808 162.565 817.281 162.374 817.668 161.993C818.055 161.612 818.249 161.139 818.249 160.576C818.249 160.012 818.057 159.537 817.672 159.149C817.287 158.762 816.811 158.568 816.242 158.568C815.69 158.568 815.223 158.761 814.841 159.145C814.459 159.53 814.268 160.006 814.268 160.575C814.268 161.127 814.459 161.597 814.841 161.984C815.223 162.371 815.693 162.565 816.251 162.565ZM822.803 146.174C823.361 146.174 823.834 145.984 824.221 145.602C824.609 145.221 824.802 144.748 824.802 144.185C824.802 143.621 824.61 143.148 824.225 142.767C823.84 142.385 823.364 142.194 822.795 142.194C822.243 142.194 821.776 142.387 821.394 142.775C821.012 143.162 820.822 143.632 820.822 144.184C820.822 144.736 821.012 145.206 821.394 145.593C821.776 145.981 822.246 146.174 822.803 146.174ZM827.739 169.134C828.297 169.134 828.766 168.944 829.148 168.563C829.53 168.181 829.721 167.709 829.721 167.145C829.721 166.581 829.53 166.109 829.149 165.727C828.767 165.345 828.295 165.154 827.731 165.154C827.178 165.154 826.709 165.348 826.321 165.735C825.934 166.122 825.74 166.592 825.74 167.144C825.74 167.697 825.934 168.166 826.321 168.554C826.709 168.941 827.181 169.134 827.739 169.134ZM829.373 156.012C829.931 156.012 830.4 155.821 830.782 155.44C831.164 155.059 831.355 154.586 831.355 154.022C831.355 153.459 831.164 152.986 830.783 152.604C830.401 152.222 829.929 152.032 829.365 152.032C828.813 152.032 828.343 152.225 827.956 152.612C827.568 152.999 827.375 153.469 827.375 154.022C827.375 154.574 827.568 155.044 827.956 155.431C828.343 155.818 828.815 156.012 829.373 156.012ZM839.195 147.857C839.752 147.857 840.225 147.666 840.612 147.285C840.999 146.904 841.193 146.431 841.193 145.868C841.193 145.304 841.001 144.831 840.616 144.449C840.232 144.067 839.755 143.876 839.187 143.876C838.634 143.876 838.167 144.067 837.785 144.449C837.403 144.83 837.212 145.303 837.212 145.867C837.212 146.419 837.403 146.889 837.785 147.276C838.167 147.663 838.637 147.857 839.195 147.857Z" fill="url(#paint8_linear_2607_6062)"/>
</g>
<rect x="276.614" y="364.323" width="70.6774" height="70.6774" rx="23.3187" fill="white"/>
<rect x="276.614" y="364.323" width="70.6774" height="70.6774" rx="23.3187" stroke="url(#paint9_linear_2607_6062)" stroke-width="3.36559"/>
<mask id="mask1_2607_6062" style="mask-type:alpha" maskUnits="userSpaceOnUse" x="291" y="379" width="42" height="41">
<rect x="291.762" y="379.468" width="40.3871" height="40.3871" fill="#D9D9D9"/>
</mask>
<g mask="url(#mask1_2607_6062)">
<path d="M320.37 406.085C319.13 406.085 318.075 405.651 317.207 404.782C316.339 403.914 315.904 402.86 315.904 401.619C315.904 400.379 316.339 399.324 317.207 398.456C318.075 397.588 319.13 397.153 320.37 397.153C321.611 397.153 322.665 397.588 323.533 398.456C324.402 399.324 324.836 400.379 324.836 401.619C324.836 402.86 324.402 403.914 323.533 404.782C322.665 405.651 321.611 406.085 320.37 406.085ZM320.37 403.561C320.912 403.561 321.371 403.373 321.747 402.996C322.123 402.62 322.312 402.161 322.312 401.619C322.312 401.078 322.123 400.619 321.747 400.242C321.371 399.866 320.912 399.677 320.37 399.677C319.829 399.677 319.37 399.866 318.993 400.242C318.617 400.619 318.429 401.078 318.429 401.619C318.429 402.161 318.617 402.62 318.993 402.996C319.37 403.373 319.829 403.561 320.37 403.561ZM310.856 416.942V412.644C310.856 412.157 310.972 411.699 311.204 411.27C311.437 410.841 311.762 410.499 312.179 410.244C313.018 409.743 313.902 409.329 314.832 409C315.762 408.671 316.712 408.427 317.681 408.27L320.37 411.651L323.043 408.27C324.018 408.427 324.966 408.671 325.888 409C326.81 409.329 327.692 409.743 328.535 410.244C328.953 410.498 329.28 410.839 329.515 411.266C329.751 411.693 329.874 412.147 329.884 412.628V416.942H310.856ZM313.338 414.418H319.338L316.726 411.091C316.132 411.242 315.554 411.437 314.992 411.678C314.431 411.919 313.879 412.187 313.338 412.483V414.418ZM321.402 414.418H327.36V412.483C326.836 412.17 326.293 411.9 325.731 411.674C325.17 411.447 324.592 411.259 323.998 411.108L321.402 414.418ZM300.702 413.965C299.858 413.965 299.138 413.667 298.544 413.071C297.949 412.476 297.652 411.76 297.652 410.923V388.4C297.652 387.563 297.95 386.847 298.546 386.251C299.142 385.655 299.858 385.357 300.694 385.357H323.218C324.054 385.357 324.771 385.655 325.366 386.251C325.962 386.847 326.26 387.563 326.26 388.4V395.713C325.908 395.314 325.533 394.94 325.135 394.592C324.737 394.243 324.271 394.001 323.736 393.865V388.4C323.736 388.248 323.687 388.124 323.59 388.027C323.493 387.93 323.369 387.882 323.218 387.882H300.694C300.543 387.882 300.419 387.93 300.322 388.027C300.225 388.124 300.177 388.248 300.177 388.4V410.923C300.177 411.074 300.225 411.198 300.322 411.295C300.419 411.392 300.543 411.441 300.694 411.441H306.998C306.947 411.641 306.908 411.842 306.882 412.043C306.856 412.243 306.843 412.444 306.843 412.644V413.965H300.702ZM303.963 394.386H316.098C316.666 393.987 317.279 393.69 317.938 393.496C318.597 393.302 319.268 393.194 319.949 393.173V391.862H303.963V394.386ZM303.963 400.923H311.972C311.994 400.475 312.054 400.043 312.153 399.627C312.253 399.212 312.382 398.803 312.542 398.399H303.963V400.923ZM303.963 407.46H309.218C309.516 407.219 309.829 406.997 310.158 406.795C310.487 406.594 310.823 406.414 311.166 406.257V404.936H303.963V407.46ZM300.177 411.441V387.882V393.84V393.14V411.441Z" fill="url(#paint10_linear_2607_6062)"/>
</g>
<rect x="173.964" y="246.527" width="70.6774" height="70.6774" rx="23.3187" fill="white"/>
<rect x="173.964" y="246.527" width="70.6774" height="70.6774" rx="23.3187" stroke="url(#paint11_linear_2607_6062)" stroke-width="3.36559"/>
<mask id="mask2_2607_6062" style="mask-type:alpha" maskUnits="userSpaceOnUse" x="189" y="261" width="41" height="42">
<rect x="189.111" y="261.672" width="40.3871" height="40.3871" fill="#D9D9D9"/>
</mask>
<g mask="url(#mask2_2607_6062)">
<path d="M204.581 276.299V273.775H219.079V276.299H204.581ZM204.581 281.154V278.63H219.079V281.154H204.581ZM209.176 297.852H199.209C198.033 297.852 197.038 297.445 196.224 296.63C195.409 295.816 195.002 294.821 195.002 293.645V288.791H200.05V265.879H223.609V280.112C223.178 280.088 222.75 280.114 222.326 280.191C221.902 280.267 221.489 280.394 221.085 280.571V268.403H202.575V288.791H212.121L209.597 291.315H197.526V293.645C197.526 294.122 197.687 294.522 198.01 294.844C198.332 295.167 198.732 295.328 199.209 295.328H209.176V297.852ZM212.866 297.852V293.406L222.001 284.312C222.21 284.103 222.437 283.956 222.681 283.87C222.924 283.785 223.168 283.743 223.412 283.743C223.673 283.743 223.928 283.792 224.177 283.891C224.426 283.991 224.65 284.139 224.849 284.338L226.405 285.911C226.587 286.12 226.727 286.347 226.826 286.59C226.925 286.834 226.975 287.078 226.975 287.322C226.975 287.565 226.93 287.813 226.839 288.066C226.749 288.318 226.604 288.549 226.405 288.758L217.312 297.852H212.866ZM214.872 295.846H216.471L221.933 290.357L221.16 289.558L220.376 288.768L214.872 294.247V295.846ZM221.16 289.558L220.376 288.768L221.933 290.357L221.16 289.558Z" fill="url(#paint12_linear_2607_6062)"/>
</g>
<rect x="899.249" y="246.527" width="70.6774" height="70.6774" rx="23.3187" fill="white"/>
<rect x="899.249" y="246.527" width="70.6774" height="70.6774" rx="23.3187" stroke="url(#paint13_linear_2607_6062)" stroke-width="3.36559"/>
<mask id="mask3_2607_6062" style="mask-type:alpha" maskUnits="userSpaceOnUse" x="914" y="261" width="41" height="42">
<rect x="914.393" y="261.672" width="40.3871" height="40.3871" fill="#D9D9D9"/>
</mask>
<g mask="url(#mask3_2607_6062)">
<path d="M918.6 273.452V270.604C918.6 269.754 918.894 269.034 919.483 268.445C920.072 267.856 920.792 267.562 921.642 267.562H947.531C948.381 267.562 949.1 267.856 949.689 268.445C950.278 269.034 950.573 269.754 950.573 270.604V273.452H948.049V270.604C948.049 270.453 948 270.329 947.903 270.232C947.806 270.135 947.682 270.086 947.531 270.086H921.642C921.491 270.086 921.366 270.135 921.269 270.232C921.172 270.329 921.124 270.453 921.124 270.604V273.452H918.6ZM928.696 296.169V292.804H921.642C920.792 292.804 920.072 292.509 919.483 291.92C918.894 291.331 918.6 290.612 918.6 289.762V286.914H921.124V289.762C921.124 289.913 921.172 290.037 921.269 290.134C921.366 290.231 921.491 290.28 921.642 290.28H947.531C947.682 290.28 947.806 290.231 947.903 290.134C948 290.037 948.049 289.913 948.049 289.762V286.914H950.573V289.762C950.573 290.612 950.278 291.331 949.689 291.92C949.1 292.509 948.381 292.804 947.531 292.804H940.476V296.169H928.696ZM922.147 280.183L926.522 275.808L924.748 274.034L918.6 280.183L924.748 286.331L926.522 284.558L922.147 280.183ZM947.026 280.183L942.651 284.558L944.424 286.331L950.573 280.183L944.424 274.034L942.651 275.808L947.026 280.183Z" fill="url(#paint14_linear_2607_6062)"/>
</g>
<rect x="276.614" y="120.317" width="70.6774" height="70.6774" rx="23.3187" fill="white"/>
<rect x="276.614" y="120.317" width="70.6774" height="70.6774" rx="23.3187" stroke="url(#paint15_linear_2607_6062)" stroke-width="3.36559"/>
<mask id="mask4_2607_6062" style="mask-type:alpha" maskUnits="userSpaceOnUse" x="291" y="135" width="42" height="41">
<rect x="291.762" y="135.462" width="40.3871" height="40.3871" fill="#D9D9D9"/>
</mask>
<g mask="url(#mask4_2607_6062)">
<path d="M305.225 165.17L295.711 155.656L305.225 146.142L307.024 147.941L299.284 155.682L306.998 163.397L305.225 165.17ZM318.687 165.17L316.888 163.371L324.629 155.63L316.914 147.915L318.687 146.142L328.202 155.656L318.687 165.17Z" fill="url(#paint16_linear_2607_6062)"/>
</g>
<rect x="791.55" y="366.005" width="70.6774" height="70.6774" rx="23.3187" fill="white"/>
<rect x="791.55" y="366.005" width="70.6774" height="70.6774" rx="23.3187" stroke="url(#paint17_linear_2607_6062)" stroke-width="3.36559"/>
<mask id="mask5_2607_6062" style="mask-type:alpha" maskUnits="userSpaceOnUse" x="806" y="381" width="42" height="41">
<rect x="806.693" y="381.151" width="40.3871" height="40.3871" fill="#D9D9D9"/>
</mask>
<g mask="url(#mask5_2607_6062)">
<path d="M813.942 413.965C813.092 413.965 812.373 413.671 811.784 413.082C811.195 412.493 810.9 411.773 810.9 410.923V391.765C810.9 390.915 811.195 390.196 811.784 389.607C812.373 389.018 813.092 388.723 813.942 388.723H839.831C840.682 388.723 841.401 389.018 841.99 389.607C842.579 390.196 842.874 390.915 842.874 391.765V410.923C842.874 411.773 842.579 412.493 841.99 413.082C841.401 413.671 840.682 413.965 839.831 413.965H813.942ZM813.942 411.441H839.831C839.961 411.441 840.08 411.387 840.187 411.279C840.295 411.171 840.349 411.053 840.349 410.923V394.613H813.425V410.923C813.425 411.053 813.479 411.171 813.587 411.279C813.694 411.387 813.813 411.441 813.942 411.441ZM819.314 409.159L817.557 407.402L821.89 403.027L817.515 398.652L819.314 396.894L825.447 403.027L819.314 409.159ZM827.308 409.337V406.813H836.563V409.337H827.308Z" fill="url(#paint18_linear_2607_6062)"/>
</g>
<defs>
<filter id="filter0_d_2607_6062" x="517.254" y="234.747" width="107.699" height="100.968" filterUnits="userSpaceOnUse" color-interpolation-filters="sRGB">
<feFlood flood-opacity="0" result="BackgroundImageFix"/>
<feColorMatrix in="SourceAlpha" type="matrix" values="0 0 0 0 0 0 0 0 0 0 0 0 0 0 0 0 0 0 127 0" result="hardAlpha"/>
<feOffset dy="6.73118"/>
<feComposite in2="hardAlpha" operator="out"/>
<feColorMatrix type="matrix" values="0 0 0 0 0.384314 0 0 0 0 0.211765 0 0 0 0 0.121569 0 0 0 1 0"/>
<feBlend mode="normal" in2="BackgroundImageFix" result="effect1_dropShadow_2607_6062"/>
<feBlend mode="normal" in="SourceGraphic" in2="effect1_dropShadow_2607_6062" result="shape"/>
</filter>
<linearGradient id="paint0_linear_2607_6062" x1="433.534" y1="155.656" x2="433.534" y2="281.866" gradientUnits="userSpaceOnUse">
<stop stop-color="#F26A1B"/>
<stop offset="1" stop-color="#FDE2D3"/>
</linearGradient>
<linearGradient id="paint1_linear_2607_6062" x1="708.671" y1="155.656" x2="708.671" y2="281.866" gradientUnits="userSpaceOnUse">
<stop stop-color="#F26A1B"/>
<stop offset="1" stop-color="#FDE2D3"/>
</linearGradient>
<linearGradient id="paint2_linear_2607_6062" x1="897.564" y1="280.865" x2="627.553" y2="286.527" gradientUnits="userSpaceOnUse">
<stop stop-color="#F26A1B"/>
<stop offset="1" stop-color="#FDE2D3"/>
</linearGradient>
<linearGradient id="paint3_linear_2607_6062" x1="708.671" y1="281.866" x2="708.671" y2="401.344" gradientUnits="userSpaceOnUse">
<stop stop-color="#FDE2D3"/>
<stop offset="1" stop-color="#F26A1B"/>
</linearGradient>
<linearGradient id="paint4_linear_2607_6062" x1="433.534" y1="281.866" x2="433.534" y2="399.661" gradientUnits="userSpaceOnUse">
<stop stop-color="#FDE2D3"/>
<stop offset="1" stop-color="#F26A1B"/>
</linearGradient>
<linearGradient id="paint5_linear_2607_6062" x1="519.748" y1="280.865" x2="244.756" y2="286.738" gradientUnits="userSpaceOnUse">
<stop stop-color="#FDE2D3"/>
<stop offset="1" stop-color="#F26A1B"/>
</linearGradient>
<linearGradient id="paint6_linear_2607_6062" x1="571.103" y1="272.61" x2="571.103" y2="228.858" gradientUnits="userSpaceOnUse">
<stop stop-color="#231F20"/>
<stop offset="1" stop-color="#F26A1B"/>
</linearGradient>
<linearGradient id="paint7_linear_2607_6062" x1="826.888" y1="122" x2="826.888" y2="189.312" gradientUnits="userSpaceOnUse">
<stop stop-color="#F26A1B"/>
<stop offset="1" stop-color="#FBCAAE"/>
</linearGradient>
<linearGradient id="paint8_linear_2607_6062" x1="827.731" y1="139.669" x2="827.731" y2="171.642" gradientUnits="userSpaceOnUse">
<stop stop-color="#4A4340"/>
<stop offset="1" stop-color="#D05E1C"/>
</linearGradient>
<linearGradient id="paint9_linear_2607_6062" x1="311.953" y1="366.005" x2="311.953" y2="433.317" gradientUnits="userSpaceOnUse">
<stop stop-color="#F26A1B"/>
<stop offset="1" stop-color="#FBCAAE"/>
</linearGradient>
<linearGradient id="paint10_linear_2607_6062" x1="313.768" y1="385.357" x2="313.768" y2="416.942" gradientUnits="userSpaceOnUse">
<stop stop-color="#4A4340"/>
<stop offset="1" stop-color="#D05E1C"/>
</linearGradient>
<linearGradient id="paint11_linear_2607_6062" x1="209.302" y1="248.21" x2="209.302" y2="315.522" gradientUnits="userSpaceOnUse">
<stop stop-color="#F26A1B"/>
<stop offset="1" stop-color="#FBCAAE"/>
</linearGradient>
<linearGradient id="paint12_linear_2607_6062" x1="210.989" y1="265.879" x2="210.989" y2="297.852" gradientUnits="userSpaceOnUse">
<stop stop-color="#4A4340"/>
<stop offset="1" stop-color="#D05E1C"/>
</linearGradient>
<linearGradient id="paint13_linear_2607_6062" x1="934.588" y1="248.21" x2="934.588" y2="315.522" gradientUnits="userSpaceOnUse">
<stop stop-color="#F26A1B"/>
<stop offset="1" stop-color="#FBCAAE"/>
</linearGradient>
<linearGradient id="paint14_linear_2607_6062" x1="934.586" y1="267.562" x2="934.586" y2="296.169" gradientUnits="userSpaceOnUse">
<stop stop-color="#4A4340"/>
<stop offset="1" stop-color="#D05E1C"/>
</linearGradient>
<linearGradient id="paint15_linear_2607_6062" x1="311.953" y1="122" x2="311.953" y2="189.312" gradientUnits="userSpaceOnUse">
<stop stop-color="#F26A1B"/>
<stop offset="1" stop-color="#FBCAAE"/>
</linearGradient>
<linearGradient id="paint16_linear_2607_6062" x1="311.956" y1="146.142" x2="311.956" y2="165.17" gradientUnits="userSpaceOnUse">
<stop stop-color="#4A4340"/>
<stop offset="1" stop-color="#D05E1C"/>
</linearGradient>
<linearGradient id="paint17_linear_2607_6062" x1="826.888" y1="367.688" x2="826.888" y2="435" gradientUnits="userSpaceOnUse">
<stop stop-color="#F26A1B"/>
<stop offset="1" stop-color="#FBCAAE"/>
</linearGradient>
<linearGradient id="paint18_linear_2607_6062" x1="826.887" y1="388.723" x2="826.887" y2="413.965" gradientUnits="userSpaceOnUse">
<stop stop-color="#4A4340"/>
<stop offset="1" stop-color="#D05E1C"/>
</linearGradient>
</defs>
</svg>
