<svg width="402" height="352" viewBox="0 0 402 352" fill="none" xmlns="http://www.w3.org/2000/svg">
<g clip-path="url(#clip0_2777_11944)">
<path d="M0 16C0 7.16345 7.16344 0 16 0H386C394.837 0 402 7.16344 402 16V352H0V16Z" fill="url(#paint0_radial_2777_11944)"/>
<path d="M94.6517 327.968L100.712 324.468L65.2617 321.178L70.9717 341.638L77.0317 338.148L151.472 380.848C166.308 383.522 181.286 385.338 196.332 386.288L94.6517 327.968Z" fill="#F7B086" fill-opacity="0.3"/>
<path d="M255.78 208.96L490.38 343.53C494.38 339.135 498.056 334.456 501.38 329.53L273.4 198.84L279.46 195.34L244 192L249.71 212.46L255.78 208.96Z" fill="#F7B086" fill-opacity="0.3"/>
<path d="M56.8912 253.318L21.4512 250.018L27.1512 270.508L33.2112 267.008L241.921 386.668C252.251 386.188 262.531 385.318 272.701 384.048L50.8312 256.818L56.8912 253.318Z" fill="#F7B086" fill-opacity="0.3"/>
<path opacity="0.9" d="M424.382 331.878L352.992 290.928L359.042 287.428L323.602 284.138L329.312 304.598L335.362 301.108L408.892 343.278C414.252 339.752 419.422 335.947 424.382 331.878Z" fill="#FBE2D2"/>
<path d="M138.59 277.155L201.623 313.614L201.85 313.472L203.612 312.465L205.29 311.491C213.681 306.633 219.613 303.05 219.16 300.314C218.825 298.242 215.074 297.067 211.978 296.698C210.302 296.563 208.671 296.086 207.186 295.297C206.628 295.043 206.15 294.642 205.804 294.136C205.458 293.63 205.257 293.039 205.223 292.427C205.223 291.151 206.163 289.809 207.984 288.752C211.34 286.822 216.375 286.612 219.311 288.298C220.42 288.904 221.279 289.882 221.736 291.059C222.383 292.855 224.422 295.02 228.013 295.204C232.972 295.473 238.527 292.267 247.681 286.964L249.855 285.706L186.922 249.28L138.59 277.155ZM306.603 318.481C304.623 319.605 302.71 320.671 300.83 321.712C293.278 325.907 287.841 328.911 288.244 331.386C288.38 332.002 288.739 332.545 289.251 332.914C290.643 334.046 293.194 334.734 295.426 334.994C297.101 335.129 298.732 335.603 300.218 336.387C300.776 336.646 301.254 337.051 301.601 337.559C301.948 338.067 302.151 338.66 302.189 339.274C302.159 339.979 301.903 340.655 301.459 341.204C300.895 341.91 300.196 342.497 299.404 342.932C296.047 344.871 291.013 345.064 288.084 343.394C286.98 342.786 286.124 341.809 285.668 340.633C285.013 338.838 282.982 336.673 279.383 336.48C275.187 336.245 270.866 338.863 264.279 342.848C262.525 343.914 260.536 345.114 258.405 346.398L261.669 348.269L337.423 391.969C356.84 387.675 375.684 381.113 393.568 372.418C394.754 371.859 395.928 371.263 397.092 370.631L306.603 318.481Z" fill="#F26A1B"/>
<path opacity="0.2" d="M138.59 277.155L201.623 313.614L201.85 313.472L203.612 312.465L205.29 311.491C213.681 306.633 219.613 303.05 219.16 300.314C218.825 298.242 215.074 297.067 211.978 296.698C210.302 296.563 208.671 296.086 207.186 295.297C206.628 295.043 206.15 294.642 205.804 294.136C205.458 293.63 205.257 293.039 205.223 292.427C205.223 291.151 206.163 289.809 207.984 288.752C211.34 286.822 216.375 286.612 219.311 288.298C220.42 288.904 221.279 289.882 221.736 291.059C222.383 292.855 224.422 295.02 228.013 295.204C232.972 295.473 238.527 292.267 247.681 286.964L249.855 285.706L186.922 249.28L138.59 277.155ZM306.603 318.481C304.623 319.605 302.71 320.671 300.83 321.712C293.278 325.907 287.841 328.911 288.244 331.386C288.38 332.002 288.739 332.545 289.251 332.914C290.643 334.046 293.194 334.734 295.426 334.994C297.101 335.129 298.732 335.603 300.218 336.387C300.776 336.646 301.254 337.051 301.601 337.559C301.948 338.067 302.151 338.66 302.189 339.274C302.159 339.979 301.903 340.655 301.459 341.204C300.895 341.91 300.196 342.497 299.404 342.932C296.047 344.871 291.013 345.064 288.084 343.394C286.98 342.786 286.124 341.809 285.668 340.633C285.013 338.838 282.982 336.673 279.383 336.48C275.187 336.245 270.866 338.863 264.279 342.848C262.525 343.914 260.536 345.114 258.405 346.398L261.669 348.269L337.423 391.969C356.84 387.675 375.684 381.113 393.568 372.418C394.754 371.859 395.928 371.263 397.092 370.631L306.603 318.481Z" fill="white"/>
<path d="M203.46 167.569L162.73 126L122 214.601L138.589 205.027V277.164L186.871 249.281V177.143L203.46 167.569Z" fill="#F26A1B"/>
<path opacity="0.35" d="M266.799 302.38L261.939 299.57L271.339 291.55L276.199 294.36L266.799 302.38Z" fill="black"/>
<path opacity="0.35" d="M269.79 304.23C267.3 302.47 262.99 303.8 259.33 304.95C258.45 305.25 257.66 305.51 256.94 305.73C256.712 306.268 256.59 306.845 256.58 307.43C256.58 310.26 258.98 309.43 264.2 307.77C265.96 307.166 267.761 306.691 269.59 306.35C269.75 307.79 270.75 309.1 274.65 307.04L269.79 304.23Z" fill="#F26A1B"/>
<path opacity="0.45" d="M257.751 341.09L252.891 338.28V332.54L257.751 335.35V341.09Z" fill="#F26A1B"/>
<path opacity="0.35" d="M266.001 319.3C266.001 321.58 264.291 323.62 261.751 325.1C257.751 327.45 256.121 325.53 255.751 323.66L254.891 323.16C255.59 322.953 256.262 322.661 256.891 322.29C258.65 321.39 260.045 319.91 260.841 318.1C263.821 317.12 266.001 316.74 266.001 319.3Z" fill="#F26A1B"/>
<path opacity="0.35" d="M247.91 333.37C247.375 333.056 246.759 332.907 246.14 332.94C246.036 332.642 245.949 332.338 245.88 332.03L241 329.22C241.131 330.065 241.442 330.873 241.911 331.589C242.38 332.305 242.997 332.912 243.72 333.37L248.57 336.18C248.799 335.707 248.859 335.169 248.738 334.658C248.618 334.146 248.326 333.691 247.91 333.37Z" fill="#F26A1B"/>
<path d="M264.2 307.77C258.98 309.48 256.58 310.26 256.58 307.43C256.59 306.845 256.712 306.268 256.94 305.73C253.38 306.83 251.72 306.97 251.72 304.62C251.72 302.89 252.89 300.76 256.11 298.89C259.54 296.89 261.46 297.36 261.94 299.57L271.34 291.57C271.34 291.45 271.26 291.34 271.21 291.22C271.796 291.092 272.359 290.876 272.88 290.58L269 288.26L268.63 288.04H268.57C267.425 287.483 266.143 287.271 264.88 287.43C263.196 287.612 261.549 288.054 260 288.74V288.6L264.86 285.77L260 283L256.71 284.92L252.25 287.51V293.24C245.66 298.04 241.55 304.3 241.55 311.08C241.55 314.16 242.38 315.91 243.73 316.8H243.79C243.906 316.874 244.026 316.941 244.15 317L248.22 319.29C248.332 318.685 248.255 318.06 248 317.5C249.292 317.336 250.567 317.058 251.81 316.67C256.75 315.18 261.14 312.83 261.14 316.49C261.142 317.041 261.04 317.587 260.84 318.1C263.84 317.1 266 316.74 266 319.3C266 321.58 264.29 323.62 261.75 325.1C257.75 327.45 256.12 325.53 255.75 323.66L254.89 323.16L250.89 320.85L241 329.22L245.86 332.03C246.014 332.746 246.263 333.439 246.6 334.09C248.775 334.013 250.91 333.485 252.87 332.54V334.86L260.55 333.81V328.08C267.21 323.17 271.8 316.56 271.8 309.65C271.84 308.472 271.653 307.298 271.25 306.19C268.84 306.403 266.47 306.934 264.2 307.77Z" fill="#F26A1B"/>
<path opacity="0.15" d="M264.2 307.77C258.98 309.48 256.58 310.26 256.58 307.43C256.59 306.845 256.712 306.268 256.94 305.73C253.38 306.83 251.72 306.97 251.72 304.62C251.72 302.89 252.89 300.76 256.11 298.89C259.54 296.89 261.46 297.36 261.94 299.57L271.34 291.57C271.34 291.45 271.26 291.34 271.21 291.22C271.796 291.092 272.359 290.876 272.88 290.58L269 288.26L268.63 288.04H268.57C267.425 287.483 266.143 287.271 264.88 287.43C263.196 287.612 261.549 288.054 260 288.74V288.6L264.86 285.77L260 283L256.71 284.92L252.25 287.51V293.24C245.66 298.04 241.55 304.3 241.55 311.08C241.55 314.16 242.38 315.91 243.73 316.8H243.79C243.906 316.874 244.026 316.941 244.15 317L248.22 319.29C248.332 318.685 248.255 318.06 248 317.5C249.292 317.336 250.567 317.058 251.81 316.67C256.75 315.18 261.14 312.83 261.14 316.49C261.142 317.041 261.04 317.587 260.84 318.1C263.84 317.1 266 316.74 266 319.3C266 321.58 264.29 323.62 261.75 325.1C257.75 327.45 256.12 325.53 255.75 323.66L254.89 323.16L250.89 320.85L241 329.22L245.86 332.03C246.014 332.746 246.263 333.439 246.6 334.09C248.775 334.013 250.91 333.485 252.87 332.54V334.86L260.55 333.81V328.08C267.21 323.17 271.8 316.56 271.8 309.65C271.84 308.472 271.653 307.298 271.25 306.19C268.84 306.403 266.47 306.934 264.2 307.77Z" fill="black"/>
<g opacity="0.2">
<path d="M252.27 293.24C248.569 296.053 245.565 299.68 243.49 303.84C242.517 305.928 241.951 308.181 241.82 310.48C241.709 311.623 241.77 312.776 242 313.9C242.195 315.046 242.808 316.08 243.72 316.8C242.721 316.147 242.006 315.139 241.72 313.98C241.42 312.832 241.292 311.646 241.34 310.46C241.429 308.086 241.994 305.753 243 303.6C244.031 301.466 245.38 299.5 247 297.77C248.568 296.054 250.338 294.533 252.27 293.24Z" fill="black"/>
</g>
<path d="M271.27 306.19C268.854 306.401 266.476 306.932 264.2 307.77C258.98 309.48 256.58 310.26 256.58 307.43C256.59 306.845 256.712 306.268 256.94 305.73C257.814 304.005 259.215 302.604 260.94 301.73C264.37 299.73 266.29 300.21 266.77 302.42L276.17 294.42C275.871 293.207 275.169 292.132 274.178 291.37C273.188 290.609 271.969 290.207 270.72 290.23C268.69 290.277 266.691 290.744 264.85 291.6V285.81L260 288.6L257.11 290.28V296.01C250.52 300.81 246.41 307.08 246.41 313.84C246.367 315.119 246.567 316.395 247 317.6C248.46 321.23 252.44 320.73 256.64 319.5C258.11 319.06 259.54 318.5 260.81 318.12C263.81 317.12 265.97 316.76 265.97 319.32C265.97 321.6 264.26 323.64 261.72 325.12C257.72 327.47 256.09 325.55 255.72 323.68L245.84 332.05C245.994 332.766 246.243 333.459 246.58 334.11C247.87 336.52 250.17 337.19 252.85 336.83C254.53 336.574 256.167 336.083 257.71 335.37V341.11L265.39 336.67V330.9C272.05 326 276.64 319.39 276.64 312.48C276.68 307.49 274.32 306.12 271.27 306.19Z" fill="#F26A1B"/>
<g opacity="0.1">
<path d="M271.27 306.19C268.854 306.401 266.476 306.932 264.2 307.77C258.98 309.48 256.58 310.26 256.58 307.43C256.59 306.845 256.712 306.268 256.94 305.73C257.814 304.005 259.215 302.604 260.94 301.73C264.37 299.73 266.29 300.21 266.77 302.42L276.17 294.42C275.871 293.207 275.169 292.132 274.178 291.37C273.188 290.609 271.969 290.207 270.72 290.23C268.69 290.277 266.691 290.744 264.85 291.6V285.81L260 288.6L257.11 290.28V296.01C250.52 300.81 246.41 307.08 246.41 313.84C246.367 315.119 246.567 316.395 247 317.6C248.46 321.23 252.44 320.73 256.64 319.5C258.11 319.06 259.54 318.5 260.81 318.12C263.81 317.12 265.97 316.76 265.97 319.32C265.97 321.6 264.26 323.64 261.72 325.12C257.72 327.47 256.09 325.55 255.72 323.68L245.84 332.05C245.994 332.766 246.243 333.459 246.58 334.11C247.87 336.52 250.17 337.19 252.85 336.83C254.53 336.574 256.167 336.083 257.71 335.37V341.11L265.39 336.67V330.9C272.05 326 276.64 319.39 276.64 312.48C276.68 307.49 274.32 306.12 271.27 306.19Z" fill="white"/>
</g>
<path opacity="0.1" d="M255.07 324.24L249 329.37L255.74 336.12C256.4 335.9 257.07 335.65 257.74 335.35V338.12L259.62 340L265.42 336.65V334.65L255.07 324.24Z" fill="white"/>
<path opacity="0.1" d="M271.27 306.19C268.853 306.401 266.476 306.932 264.2 307.77L262.51 308.32L274.66 320.46C275.945 317.987 276.63 315.247 276.66 312.46C276.667 311.674 276.593 310.89 276.44 310.12L272.59 306.27C272.153 306.203 271.711 306.176 271.27 306.19Z" fill="white"/>
<path opacity="0.1" d="M258.131 303.93C258.965 303.039 259.933 302.283 261.001 301.69C264.431 299.69 266.351 300.17 266.831 302.38L267.831 301.5L257.131 290.79V296.05C255.813 297.012 254.563 298.065 253.391 299.2L258.131 303.93Z" fill="white"/>
<path opacity="0.1" d="M267.46 290.65C266.584 290.896 265.722 291.193 264.88 291.54V288.07L263.45 286.6L260 288.6L259.41 288.94L270.05 299.6L273.49 296.67L267.46 290.65Z" fill="white"/>
<path opacity="0.1" d="M251.201 320.37L246.551 315.73C246.627 316.369 246.778 316.997 247.001 317.6C247.324 318.443 247.903 319.163 248.656 319.66C249.409 320.157 250.299 320.405 251.201 320.37Z" fill="white"/>
<path d="M257.13 296.05L252.27 293.24V287.51L257.13 290.32V296.05Z" fill="#F26A1B"/>
<path opacity="0.35" d="M257.13 296.05L252.27 293.24V287.51L257.13 290.32V296.05Z" fill="black"/>
<path d="M265.43 330.88C265.43 330.88 265.71 330.67 266.18 330.28C266.475 330.062 266.759 329.828 267.03 329.58C267.35 329.3 267.73 329 268.11 328.64C268.49 328.28 268.91 327.9 269.33 327.47L269.97 326.81C270.19 326.58 270.4 326.34 270.62 326.1C270.84 325.86 271.06 325.61 271.27 325.35C271.48 325.09 271.71 324.83 271.92 324.56C272.33 324.01 272.76 323.46 273.13 322.87C273.5 322.28 273.87 321.69 274.22 321.1C274.545 320.513 274.839 319.909 275.1 319.29C275.38 318.7 275.57 318.1 275.79 317.54C275.87 317.253 275.95 316.973 276.03 316.7L276.15 316.3C276.15 316.17 276.21 316.04 276.23 315.91C276.34 315.4 276.45 314.91 276.5 314.51C276.55 314.11 276.62 313.72 276.63 313.42C276.63 312.81 276.68 312.42 276.68 312.42C276.68 312.42 276.68 312.77 276.68 313.42C276.67 313.788 276.64 314.155 276.59 314.52C276.544 314.997 276.47 315.471 276.37 315.94C276.37 316.07 276.37 316.2 276.29 316.33C276.21 316.46 276.22 316.6 276.18 316.74C276.14 316.88 276.03 317.3 275.95 317.59C275.76 318.191 275.54 318.782 275.29 319.36C275.04 319.98 274.73 320.58 274.41 321.19C274.09 321.8 273.73 322.41 273.32 322.98C272.91 323.55 272.51 324.13 272.09 324.68C271.88 324.95 271.65 325.21 271.44 325.47L270.78 326.22L270.12 326.93L269.45 327.58C269.03 328 268.59 328.37 268.2 328.72C267.81 329.07 267.43 329.37 267.1 329.64C266.77 329.91 266.47 330.13 266.23 330.31L265.43 330.88Z" fill="white"/>
<path d="M257.131 290.32L264.881 285.81V291.54L264.361 286.74L257.131 290.32Z" fill="#FAFAFA"/>
<path d="M257.75 335.35L258.16 340.33L265.43 336.65L257.75 341.09V335.35Z" fill="#FAFAFA"/>
<path d="M180.041 41.8335L181.993 37.7631L173.457 32.8155C172.448 32.2293 171.367 31.7776 170.241 31.4719C169.846 31.3692 169.45 31.2822 169.047 31.2111C167.053 30.8818 165.014 30.9382 163.041 31.3771C162.308 31.5296 161.585 31.7249 160.875 31.9619C160.115 32.2075 159.369 32.4924 158.638 32.8155C157.652 33.2532 156.692 33.7467 155.761 34.2935C154.728 34.8948 153.728 35.5518 152.766 36.2615C152.023 36.7989 151.296 37.3759 150.569 37.9844C139.978 46.9471 131.679 62.8885 129.53 78.2214C129.379 79.2647 129.269 80.3 129.182 81.3354C129.055 82.8213 129 84.2913 129 85.7377C129 86.9311 129.055 88.1087 129.142 89.1915C129.221 90.1558 129.332 91.0884 129.466 91.9894C129.601 92.8904 129.775 93.744 129.972 94.5817C130.497 96.8786 131.337 99.0916 132.47 101.157C132.699 101.568 132.936 101.948 133.189 102.343C134.199 103.916 135.478 105.299 136.967 106.429C137.414 106.757 137.878 107.06 138.358 107.338L146.427 111.993L148.214 108.271C148.688 108.168 149.162 108.041 149.644 107.899C151.609 107.293 153.495 106.458 155.263 105.41C156.401 104.74 157.501 104.009 158.559 103.22C159.98 102.156 161.332 101.002 162.606 99.7665C171.45 91.2543 178.413 77.9448 180.966 64.6905C181.344 62.7458 181.624 60.7832 181.804 58.8103C181.946 57.1822 182.025 55.5698 182.017 53.9812C182.018 51.6856 181.83 49.3938 181.456 47.1288C181.145 45.3245 180.672 43.5521 180.041 41.8335Z" fill="#F58849"/>
<path opacity="0.25" d="M131.475 69.1719L148.791 79.1699L151.068 72.5783L133.735 62.5566C132.874 64.7222 132.115 66.9273 131.475 69.1719Z" fill="white"/>
<path opacity="0.25" d="M173.457 32.8155C172.448 32.2293 171.367 31.7776 170.24 31.4719C169.845 31.3692 169.45 31.2822 169.047 31.2111C167.053 30.8818 165.014 30.9382 163.04 31.3771L162.25 31.5668L180.065 41.8414C180.065 41.8414 180.065 41.8414 180.065 41.8018L182.017 37.7315L173.457 32.8155Z" fill="white"/>
<path opacity="0.25" d="M171.607 58.1069L173.884 55.3644L147.92 40.4346C147.098 41.2513 146.292 42.1101 145.502 43.0111L171.607 58.1069Z" fill="white"/>
<path opacity="0.25" d="M139.986 50.3533L162.504 63.3389L164.977 56.8659L144.033 44.7734C142.585 46.5594 141.234 48.4221 139.986 50.3533Z" fill="white"/>
<path opacity="0.4" d="M173.457 32.8155C172.448 32.2293 171.367 31.7776 170.241 31.4719C169.846 31.3692 169.45 31.2822 169.047 31.2111C167.053 30.8818 165.014 30.9382 163.041 31.3771C162.308 31.5296 161.585 31.7249 160.875 31.9619C160.115 32.2075 159.369 32.4924 158.638 32.8155C157.652 33.2532 156.692 33.7467 155.761 34.2935C154.728 34.8948 153.728 35.5518 152.766 36.2615C152.023 36.7989 151.296 37.3759 150.569 37.9844C140.705 46.3148 132.802 60.715 130.02 75.0363L166.139 95.8937C173.579 86.8726 178.656 76.1408 180.91 64.6668C181.289 62.7221 181.568 60.7595 181.748 58.7866C181.891 57.1584 181.97 55.5461 181.962 53.9575C181.962 51.6619 181.775 49.3701 181.4 47.1051C181.098 45.3016 180.632 43.5292 180.009 41.8098L181.962 37.7394L173.457 32.8155Z" fill="white"/>
<path opacity="0.1" d="M146.404 111.993L148.19 108.27C148.664 108.168 149.138 108.041 149.62 107.899C151.585 107.293 153.471 106.457 155.24 105.409C156.377 104.739 157.477 104.009 158.536 103.22C159.956 102.156 161.308 101.002 162.582 99.7661C163.844 98.546 165.042 97.2613 166.17 95.917L130.051 75.0596C129.846 76.1107 129.672 77.1698 129.53 78.221C129.387 79.2722 129.269 80.2996 129.182 81.335C129.055 82.8209 129 84.2909 129 85.7373C129 86.9307 129.055 88.1083 129.142 89.1911C129.221 90.1553 129.332 91.088 129.466 91.989C129.601 92.89 129.775 93.7436 129.972 94.5813C130.497 96.8782 131.337 99.0912 132.47 101.157C132.699 101.568 132.936 101.947 133.189 102.343C134.199 103.916 135.478 105.299 136.967 106.429C137.414 106.756 137.878 107.06 138.358 107.338L146.404 111.993Z" fill="black"/>
<path opacity="0.1" d="M132.47 101.158C132.7 101.569 132.937 101.948 133.19 102.343C134.199 103.916 135.478 105.299 136.967 106.429C137.415 106.757 137.879 107.06 138.358 107.338L146.428 111.993L148.214 108.271H148.285L148.412 106.745L130.471 96.3838C130.965 98.0419 131.635 99.6423 132.47 101.158Z" fill="black"/>
<path d="M190.553 52.3923C190.184 50.0505 189.523 47.7643 188.585 45.5873C187.446 42.8767 185.644 40.4959 183.345 38.6638C181.935 37.5791 180.322 36.7865 178.603 36.3323C178.207 36.2295 177.812 36.1426 177.401 36.0714C175.407 35.7422 173.368 35.7985 171.394 36.2374C170.662 36.392 169.939 36.5872 169.229 36.8223C168.47 37.0692 167.723 37.3541 166.992 37.6759C166.014 38.109 165.062 38.5972 164.139 39.138C163.101 39.7365 162.099 40.3935 161.136 41.106C160.401 41.6434 159.666 42.2204 158.946 42.829C148.356 51.7679 139.978 67.7094 137.899 83.0422C137.757 84.0855 137.638 85.1209 137.559 86.1562C137.433 87.6342 137.37 89.1121 137.378 90.5585C137.378 91.7519 137.425 92.9296 137.52 94.0124C137.599 94.9766 137.702 95.9092 137.844 96.8102C137.986 97.7112 138.152 98.5648 138.35 99.4026C138.859 101.7 139.692 103.914 140.824 105.978C141.055 106.389 141.293 106.784 141.535 107.164C142.547 108.737 143.829 110.12 145.321 111.25C147.483 112.87 150.083 113.801 152.782 113.921C154.802 114.013 156.822 113.745 158.749 113.131C160.714 112.527 162.6 111.691 164.368 110.641C165.507 109.974 166.608 109.243 167.664 108.452C169.085 107.388 170.436 106.234 171.711 104.998C180.555 96.4941 187.518 83.1766 190.071 69.9223C190.446 67.9775 190.723 66.0149 190.9 64.0421C191.051 62.4614 191.122 60.8016 191.122 59.213C191.122 56.9276 190.931 54.6461 190.553 52.3923Z" fill="#F58849"/>
<path opacity="0.05" d="M138.429 79.873C138.223 80.9321 138.049 81.9991 137.899 83.0345C137.749 84.0698 137.638 85.1131 137.559 86.1485C137.433 87.6264 137.37 89.1044 137.378 90.5507C137.378 91.7442 137.425 92.9218 137.52 94.0046C137.599 94.9688 137.702 95.9014 137.844 96.8024C137.986 97.7034 138.152 98.557 138.35 99.3948C138.859 101.693 139.692 103.907 140.824 105.971C141.055 106.382 141.293 106.777 141.535 107.156C142.547 108.73 143.829 110.113 145.321 111.242C147.483 112.863 150.083 113.794 152.782 113.914C154.802 114.005 156.822 113.737 158.749 113.123C160.714 112.519 162.6 111.683 164.368 110.634C165.356 110.057 166.336 109.401 167.3 108.705L138.429 79.873Z" fill="black"/>
<path opacity="0.05" d="M138.848 101.276C139.335 102.923 139.997 104.513 140.824 106.018C141.055 106.429 141.292 106.825 141.535 107.204C142.547 108.777 143.829 110.161 145.321 111.29C147.094 112.617 149.169 113.483 151.359 113.811L138.848 101.276Z" fill="black"/>
<path opacity="0.1" d="M142.104 67.4014C141.243 69.5669 140.523 71.772 139.844 73.9929L171.284 105.433L171.711 105.03C173.072 103.714 174.36 102.323 175.568 100.865L142.104 67.4014Z" fill="white"/>
<path opacity="0.1" d="M152.378 49.6104C150.938 51.395 149.598 53.2578 148.363 55.1903L182.965 89.7999C184.087 87.6896 185.115 85.5004 186.039 83.2716L152.378 49.6104Z" fill="white"/>
<path opacity="0.1" d="M156.307 45.2637C155.517 46.054 154.663 46.955 153.865 47.856L186.949 80.9403C187.413 79.7073 187.845 78.4586 188.246 77.194L156.307 45.2637Z" fill="white"/>
<path opacity="0.1" d="M191.042 56.8499C191.042 56.2097 190.955 55.5853 190.892 54.9688C190.892 54.7712 190.892 54.5657 190.829 54.3603L190.758 53.7359C190.694 53.2854 190.631 52.8349 190.552 52.3923C190.183 50.0505 189.522 47.7643 188.584 45.5873C187.445 42.8767 185.643 40.4959 183.344 38.6638C181.934 37.5791 180.322 36.7865 178.602 36.3323C178.207 36.2295 177.812 36.1426 177.401 36.0714C175.406 35.7422 173.367 35.7985 171.394 36.2374L170.604 36.4271L191.042 56.8499Z" fill="white"/>
<path d="M184.27 63.3545C184.27 77.494 176.027 93.8306 165.594 100.77C165.151 101.07 164.701 101.347 164.25 101.608C153.185 107.994 144.223 101.22 144.223 86.4724C144.223 71.7244 153.185 54.5974 164.25 48.2113C164.701 47.9584 165.151 47.7134 165.594 47.5C176.027 42.3943 184.27 49.2072 184.27 63.3545Z" fill="#F58849"/>
<path opacity="0.4" d="M184.27 63.3545C184.27 77.494 176.027 93.8306 165.594 100.77C165.151 101.07 164.701 101.347 164.25 101.608C153.185 107.994 144.223 101.22 144.223 86.4724C144.223 71.7244 153.185 54.5974 164.25 48.2113C164.701 47.9584 165.151 47.7134 165.594 47.5C176.027 42.3943 184.27 49.2072 184.27 63.3545Z" fill="black"/>
<path d="M183.384 63.8684C183.384 64.3268 183.384 64.7852 183.384 65.2436C182.878 78.4268 175.196 93.2064 165.562 99.6241L165.301 99.798C164.961 100.011 164.621 100.225 164.281 100.422C162.438 101.535 160.395 102.279 158.267 102.612C153.778 103.22 150.023 101.252 147.7 97.2293C146.183 94.4296 145.323 91.3214 145.186 88.1402C145.139 87.4447 145.115 86.7334 145.115 85.9905C145.115 85.2475 145.115 84.6389 145.178 83.9513C145.262 82.4948 145.423 81.0438 145.661 79.6044C147.352 69.4167 152.774 59.0552 159.697 52.7956C160.653 51.9213 161.67 51.1157 162.74 50.385C163.238 50.0451 163.744 49.729 164.25 49.4365C164.756 49.1441 165.111 48.9623 165.53 48.7489L165.886 48.583C168.321 47.3399 171.088 46.8999 173.789 47.3263C177.82 48.1167 180.903 51.2781 182.412 56.4391C183.08 58.8582 183.408 61.3588 183.384 63.8684Z" fill="#F58849"/>
<path opacity="0.5" d="M183.384 63.8684C183.384 64.3268 183.384 64.7852 183.384 65.2436C182.878 78.4268 175.196 93.2064 165.562 99.6241L165.301 99.798C164.961 100.011 164.621 100.225 164.281 100.422C162.438 101.535 160.395 102.279 158.267 102.612C153.778 103.22 150.023 101.252 147.7 97.2293C146.183 94.4296 145.323 91.3214 145.186 88.1402C145.139 87.4447 145.115 86.7334 145.115 85.9905C145.115 85.2475 145.115 84.6389 145.178 83.9513C145.262 82.4948 145.423 81.0438 145.661 79.6044C147.352 69.4167 152.774 59.0552 159.697 52.7956C160.653 51.9213 161.67 51.1157 162.74 50.385C163.238 50.0451 163.744 49.729 164.25 49.4365C164.756 49.1441 165.111 48.9623 165.53 48.7489L165.886 48.583C168.321 47.3399 171.088 46.8999 173.789 47.3263C177.82 48.1167 180.903 51.2781 182.412 56.4391C183.08 58.8582 183.408 61.3588 183.384 63.8684Z" fill="black"/>
<path d="M180.175 63.4025C180.175 62.9362 180.175 62.4778 180.175 62.0194C180.203 59.4996 179.879 56.9882 179.211 54.5584C178.55 51.9126 177.14 49.5139 175.148 47.6507C174.715 47.4989 174.271 47.38 173.821 47.295C171.119 46.8687 168.353 47.3086 165.917 48.5517L165.561 48.7177C165.142 48.9311 164.708 49.1524 164.281 49.4053C163.854 49.6582 163.269 50.0139 162.771 50.3537C161.702 51.0845 160.685 51.89 159.729 52.7643C152.813 59.0002 147.383 69.3618 145.692 79.5731C145.454 81.0125 145.293 82.4636 145.21 83.9201C145.162 84.6077 145.146 85.2874 145.146 85.9592C145.146 86.631 145.146 87.4135 145.218 88.109C145.34 91.2984 146.189 94.4178 147.699 97.2297C148.359 98.3953 149.208 99.4424 150.213 100.328C151.781 100.855 153.452 101.004 155.089 100.763C157.217 100.432 159.259 99.6915 161.104 98.5812C161.444 98.3836 161.791 98.1702 162.123 97.9489L162.384 97.775C171.987 91.3652 179.669 76.5856 180.175 63.4025Z" fill="#F58849"/>
<path opacity="0.25" d="M180.175 63.4025C180.175 62.9362 180.175 62.4778 180.175 62.0194C180.203 59.4996 179.879 56.9882 179.211 54.5584C178.55 51.9126 177.14 49.5139 175.148 47.6507C174.715 47.4989 174.271 47.38 173.821 47.295C171.119 46.8687 168.353 47.3086 165.917 48.5517L165.561 48.7177C165.142 48.9311 164.708 49.1524 164.281 49.4053C163.854 49.6582 163.269 50.0139 162.771 50.3537C161.702 51.0845 160.685 51.89 159.729 52.7643C152.813 59.0002 147.383 69.3618 145.692 79.5731C145.454 81.0125 145.293 82.4636 145.21 83.9201C145.162 84.6077 145.146 85.2874 145.146 85.9592C145.146 86.631 145.146 87.4135 145.218 88.109C145.34 91.2984 146.189 94.4178 147.699 97.2297C148.359 98.3953 149.208 99.4424 150.213 100.328C151.781 100.855 153.452 101.004 155.089 100.763C157.217 100.432 159.259 99.6915 161.104 98.5812C161.444 98.3836 161.791 98.1702 162.123 97.9489L162.384 97.775C171.987 91.3652 179.669 76.5856 180.175 63.4025Z" fill="black"/>
<path d="M177.418 36.0715C165.855 34.7674 156.45 44.3465 150.175 52.9534C141.109 66.3183 135.363 83.2398 138.501 99.4184C139.528 103.916 141.583 108.436 145.33 111.274C141.504 108.468 139.283 103.955 138.216 99.4184C135.324 86.172 138.959 72.2539 145.021 60.4065C151.494 48.7092 162.504 34.4749 177.418 36.0715Z" fill="#F5F5F5"/>
<path opacity="0.35" d="M168.669 67.417L164.828 65.1961L172.257 58.8574L176.099 61.0783L168.669 67.417Z" fill="black"/>
<path opacity="0.35" d="M171.032 68.879C169.064 67.4879 165.658 68.5391 162.765 69.448C162.07 69.6851 161.445 69.8906 160.876 70.0645C160.696 70.49 160.6 70.9461 160.592 71.4081C160.592 73.6448 162.489 72.9888 166.614 71.6768C168.005 71.1996 169.429 70.8245 170.874 70.5545C171.001 71.6926 171.791 72.728 174.874 71.0999L171.032 68.879Z" fill="black"/>
<path opacity="0.45" d="M161.515 98.0114L157.674 95.7905V91.2539L161.515 93.4748V98.0114Z" fill="black"/>
<path opacity="0.35" d="M168.037 80.7898C168.037 82.5918 166.685 84.2042 164.678 85.3739C161.516 87.2312 160.228 85.7137 159.936 84.2358L159.256 83.8406C159.809 83.6771 160.34 83.4462 160.837 83.153C162.227 82.4412 163.33 81.2716 163.958 79.8414C166.314 79.0668 168.037 78.7665 168.037 80.7898Z" fill="black"/>
<path opacity="0.35" d="M153.739 91.9099C153.316 91.6621 152.829 91.544 152.34 91.57C152.257 91.3345 152.189 91.0943 152.134 90.8508L148.277 88.6299C148.381 89.2983 148.626 89.9368 148.997 90.5025C149.368 91.0682 149.856 91.5481 150.427 91.9099L154.26 94.1308C154.441 93.7569 154.488 93.3322 154.393 92.9278C154.298 92.5234 154.067 92.164 153.739 91.9099Z" fill="black"/>
<path d="M166.614 71.6767C162.488 73.0282 160.591 73.6447 160.591 71.408C160.599 70.946 160.696 70.4899 160.876 70.0644C158.062 70.9338 156.75 71.0444 156.75 69.1871C156.75 67.8198 157.675 66.1363 160.22 64.6583C162.931 63.0776 164.448 63.4491 164.827 65.1958L172.257 58.8729C172.257 58.7781 172.193 58.6912 172.154 58.5963C172.617 58.4953 173.062 58.3248 173.474 58.0905L170.407 56.2569L170.115 56.083H170.067C169.163 55.6427 168.149 55.4752 167.151 55.6009C165.82 55.7451 164.519 56.0943 163.294 56.6362V56.5256L167.135 54.2889L163.294 52.0996L160.694 53.6171L157.169 55.6641V60.1928C151.96 63.9865 148.712 68.9342 148.712 74.2928C148.712 76.7271 149.368 78.1102 150.435 78.8136H150.482C150.574 78.8723 150.669 78.9251 150.767 78.9717L153.984 80.7816C154.072 80.3033 154.012 79.8094 153.81 79.3668C154.831 79.2369 155.839 79.0174 156.821 78.7109C160.725 77.5332 164.195 75.6759 164.195 78.5686C164.197 79.0039 164.116 79.4356 163.958 79.8411C166.329 79.0507 168.036 78.7662 168.036 80.7895C168.036 82.5915 166.685 84.2038 164.677 85.3735C161.516 87.2309 160.228 85.7134 159.935 84.2354L159.255 83.8403L156.094 82.0145L148.277 88.6298L152.118 90.8507C152.24 91.4169 152.437 91.9644 152.703 92.4788C154.422 92.4181 156.11 92.0009 157.659 91.2538V93.0874L163.729 92.2575V87.7288C168.993 83.8482 172.62 78.6239 172.62 73.1626C172.652 72.2316 172.504 71.3033 172.186 70.4279C170.281 70.596 168.408 71.016 166.614 71.6767Z" fill="#F58849"/>
<path opacity="0.15" d="M166.614 71.6767C162.488 73.0282 160.591 73.6447 160.591 71.408C160.599 70.946 160.696 70.4899 160.876 70.0644C158.062 70.9338 156.75 71.0444 156.75 69.1871C156.75 67.8198 157.675 66.1363 160.22 64.6583C162.931 63.0776 164.448 63.4491 164.827 65.1958L172.257 58.8729C172.257 58.7781 172.193 58.6912 172.154 58.5963C172.617 58.4953 173.062 58.3248 173.474 58.0905L170.407 56.2569L170.115 56.083H170.067C169.163 55.6427 168.149 55.4752 167.151 55.6009C165.82 55.7451 164.519 56.0943 163.294 56.6362V56.5256L167.135 54.2889L163.294 52.0996L160.694 53.6171L157.169 55.6641V60.1928C151.96 63.9865 148.712 68.9342 148.712 74.2928C148.712 76.7271 149.368 78.1102 150.435 78.8136H150.482C150.574 78.8723 150.669 78.9251 150.767 78.9717L153.984 80.7816C154.072 80.3033 154.012 79.8094 153.81 79.3668C154.831 79.2369 155.839 79.0174 156.821 78.7109C160.725 77.5332 164.195 75.6759 164.195 78.5686C164.197 79.0039 164.116 79.4356 163.958 79.8411C166.329 79.0507 168.036 78.7662 168.036 80.7895C168.036 82.5915 166.685 84.2038 164.677 85.3735C161.516 87.2309 160.228 85.7134 159.935 84.2354L159.255 83.8403L156.094 82.0145L148.277 88.6298L152.118 90.8507C152.24 91.4169 152.437 91.9644 152.703 92.4788C154.422 92.4181 156.11 92.0009 157.659 91.2538V93.0874L163.729 92.2575V87.7288C168.993 83.8482 172.62 78.6239 172.62 73.1626C172.652 72.2316 172.504 71.3033 172.186 70.4279C170.281 70.596 168.408 71.016 166.614 71.6767Z" fill="black"/>
<g opacity="0.2">
<path d="M157.185 60.1924C154.26 62.4157 151.886 65.2822 150.246 68.5701C149.477 70.2199 149.029 72.0009 148.926 73.8181C148.839 74.7212 148.887 75.6322 149.068 76.5211C149.223 77.427 149.707 78.2436 150.428 78.8131C149.638 78.2969 149.073 77.5004 148.847 76.5843C148.61 75.6769 148.509 74.7394 148.547 73.8023C148.617 71.9255 149.064 70.0819 149.859 68.3805C150.674 66.6936 151.74 65.14 153.02 63.7727C154.26 62.4162 155.658 61.2141 157.185 60.1924Z" fill="black"/>
</g>
<path d="M172.202 70.4277C170.293 70.5945 168.413 71.0144 166.614 71.6765C162.489 73.028 160.592 73.6445 160.592 71.4078C160.6 70.9458 160.696 70.4897 160.876 70.0642C161.567 68.7009 162.675 67.5935 164.038 66.9028C166.749 65.322 168.266 65.7014 168.646 67.4481L176.075 61.1253C175.839 60.1668 175.284 59.317 174.501 58.7153C173.718 58.1137 172.755 57.7957 171.768 57.8137C170.163 57.8514 168.584 58.22 167.128 58.8965V54.3203L163.295 56.5254L161.011 57.8532V62.3819C155.802 66.1756 152.554 71.1312 152.554 76.474C152.52 77.4851 152.679 78.4935 153.02 79.4457C154.174 82.3147 157.32 81.9195 160.639 80.9474C161.801 80.5996 162.931 80.157 163.935 79.8567C166.306 79.0663 168.013 78.7818 168.013 80.8051C168.013 82.6071 166.662 84.2194 164.654 85.3892C161.493 87.2465 160.205 85.729 159.912 84.2511L152.104 90.8663C152.225 91.4325 152.422 91.9801 152.688 92.4945C153.708 94.3992 155.526 94.9287 157.644 94.6442C158.972 94.4423 160.265 94.0538 161.485 93.4903V98.0269L167.555 94.5178V89.9574C172.819 86.0847 176.446 80.8604 176.446 75.3991C176.478 71.4552 174.613 70.3724 172.202 70.4277Z" fill="#F58849"/>
<g opacity="0.1">
<path d="M172.202 70.4277C170.293 70.5945 168.413 71.0144 166.614 71.6765C162.489 73.028 160.592 73.6445 160.592 71.4078C160.6 70.9458 160.696 70.4897 160.876 70.0642C161.567 68.7009 162.675 67.5935 164.038 66.9028C166.749 65.322 168.266 65.7014 168.646 67.4481L176.075 61.1253C175.839 60.1668 175.284 59.317 174.501 58.7153C173.718 58.1137 172.755 57.7957 171.768 57.8137C170.163 57.8514 168.584 58.22 167.128 58.8965V54.3203L163.295 56.5254L161.011 57.8532V62.3819C155.802 66.1756 152.554 71.1312 152.554 76.474C152.52 77.4851 152.679 78.4935 153.02 79.4457C154.174 82.3147 157.32 81.9195 160.639 80.9474C161.801 80.5996 162.931 80.157 163.935 79.8567C166.306 79.0663 168.013 78.7818 168.013 80.8051C168.013 82.6071 166.662 84.2194 164.654 85.3892C161.493 87.2465 160.205 85.729 159.912 84.2511L152.104 90.8663C152.225 91.4325 152.422 91.9801 152.688 92.4945C153.708 94.3992 155.526 94.9287 157.644 94.6442C158.972 94.4423 160.265 94.0538 161.485 93.4903V98.0269L167.555 94.5178V89.9574C172.819 86.0847 176.446 80.8604 176.446 75.3991C176.478 71.4552 174.613 70.3724 172.202 70.4277Z" fill="white"/>
</g>
<path opacity="0.1" d="M159.397 84.6934L154.6 88.7479L159.927 94.0828C160.448 93.9089 160.978 93.7113 161.507 93.4742V95.6635L162.993 97.1494L167.577 94.5017V92.921L159.397 84.6934Z" fill="white"/>
<path opacity="0.1" d="M172.201 70.4275C170.291 70.5942 168.412 71.0142 166.613 71.6763L165.277 72.111L174.88 81.7059C175.896 79.7514 176.437 77.5854 176.461 75.383C176.467 74.7622 176.408 74.1425 176.287 73.5336L173.244 70.4907C172.899 70.438 172.55 70.4168 172.201 70.4275Z" fill="white"/>
<path opacity="0.1" d="M161.817 68.6421C162.476 67.9378 163.241 67.3405 164.085 66.8717C166.796 65.291 168.313 65.6704 168.693 67.417L169.483 66.7215L161.026 58.2568V62.4141C159.985 63.1747 158.997 64.0066 158.07 64.9037L161.817 68.6421Z" fill="white"/>
<path opacity="0.1" d="M169.19 58.1463C168.498 58.3409 167.817 58.5758 167.151 58.8497V56.1071L166.021 54.9453L163.294 56.526L162.828 56.7947L171.238 65.2199L173.956 62.9042L169.19 58.1463Z" fill="white"/>
<path opacity="0.1" d="M156.339 81.635L152.664 77.9678C152.724 78.4727 152.844 78.9687 153.02 79.4457C153.275 80.1116 153.733 80.6808 154.328 81.0735C154.923 81.4661 155.627 81.6625 156.339 81.635Z" fill="white"/>
<path d="M161.027 62.4137L157.186 60.1928V55.6641L161.027 57.885V62.4137Z" fill="#F58849"/>
<path opacity="0.35" d="M161.027 62.4137L157.186 60.1928V55.6641L161.027 57.885V62.4137Z" fill="black"/>
<path d="M167.586 89.9415C167.586 89.9415 167.807 89.7755 168.179 89.4673C168.412 89.295 168.637 89.1103 168.851 88.9141C169.103 88.6928 169.404 88.4556 169.704 88.1711C170.004 87.8866 170.336 87.5863 170.668 87.2464L171.174 86.7248C171.348 86.543 171.514 86.3533 171.688 86.1636C171.862 85.9739 172.036 85.7763 172.202 85.5708C172.368 85.3654 172.549 85.1599 172.715 84.9465C173.039 84.5118 173.379 84.0771 173.672 83.6108C173.964 83.1445 174.257 82.6782 174.533 82.2118C174.79 81.7478 175.023 81.2702 175.229 80.7813C175.45 80.315 175.6 79.8408 175.774 79.3982C175.837 79.1716 175.9 78.9503 175.964 78.7343L176.059 78.4181C176.059 78.3154 176.106 78.2126 176.122 78.1099C176.209 77.7068 176.296 77.3195 176.335 77.0034C176.375 76.6873 176.43 76.379 176.438 76.1419C176.438 75.6598 176.477 75.3516 176.477 75.3516C176.477 75.3516 176.477 75.6282 176.477 76.1419C176.47 76.4328 176.446 76.7231 176.406 77.0113C176.37 77.3885 176.312 77.7632 176.232 78.1336C176.232 78.2364 176.232 78.3391 176.169 78.4419C176.106 78.5446 176.114 78.6552 176.082 78.7659C176.051 78.8765 175.964 79.2085 175.9 79.4377C175.751 79.9126 175.576 80.3795 175.379 80.8366C175.181 81.3266 174.936 81.8009 174.683 82.283C174.43 82.7651 174.146 83.2472 173.822 83.6977C173.498 84.1482 173.182 84.6066 172.85 85.0413C172.684 85.2547 172.502 85.4602 172.336 85.6657L171.814 86.2585L171.293 86.8196L170.763 87.3333C170.431 87.6653 170.083 87.9577 169.775 88.2343C169.467 88.511 169.167 88.7481 168.906 88.9615C168.645 89.1749 168.408 89.3487 168.218 89.491L167.586 89.9415Z" fill="white"/>
<path d="M161.025 57.8848L167.151 54.3203V58.849L166.74 55.0553L161.025 57.8848Z" fill="#FAFAFA"/>
<path d="M161.516 93.4746L161.84 97.4106L167.586 94.5021L161.516 98.0112V93.4746Z" fill="#FAFAFA"/>
<path d="M180.214 40.1031L180.728 33.3613L181.242 40.1031L187.984 40.6168L181.242 41.1305L180.728 47.8722L180.214 41.1305L173.473 40.6168L180.214 40.1031Z" fill="white"/>
<path d="M185.866 45.8482L186.111 42.5762L186.364 45.8482L189.628 46.0933L186.364 46.3462L186.111 49.6103L185.866 46.3462L182.594 46.0933L185.866 45.8482Z" fill="white"/>
<g opacity="0.2">
<path d="M381.517 71.0087C367.406 65.3321 353.664 58.8245 340.212 51.7663C339.179 51.2158 338.15 50.6601 337.122 50.094C351.482 42.2413 366.341 35.313 381.517 29.1482C388.253 26.6241 390.668 17.7637 386.062 12.1962C382.301 7.49597 375.446 6.72731 370.746 10.4875C358.774 19.8724 346.268 28.5197 333.429 36.6373C332.437 37.2606 331.44 37.8682 330.438 38.4759C330.822 22.1108 332.25 5.78208 334.494 -10.4428C335.678 -17.5373 329.207 -24.0604 322.081 -22.8555C316.337 -21.983 312.323 -16.7738 312.868 -11.0608C316.934 6.9818 319.272 25.5905 319.646 44.6147C319.661 45.3938 319.677 46.1728 319.687 46.9519C319.698 47.84 319.703 48.7229 319.708 49.611C319.708 49.7668 319.708 49.9226 319.708 50.0784C319.708 50.2238 319.708 50.3641 319.708 50.5095C319.708 50.5199 319.708 50.5303 319.708 50.5407C319.708 51.4911 319.698 52.4415 319.687 53.392C319.687 53.527 319.687 53.6672 319.682 53.8022C319.682 54.1502 319.672 54.493 319.666 54.841C319.334 74.1093 316.992 92.9517 312.873 111.218C312.333 116.931 316.342 122.14 322.087 123.012C329.212 124.217 335.683 117.699 334.499 110.6C332.256 94.3851 330.827 78.0668 330.443 61.7121C344.414 70.2193 357.834 79.6197 370.751 89.6694C376.303 94.2449 385.184 91.8974 387.703 85.1249C389.894 79.521 387.131 73.1952 381.522 71.0035L381.517 71.0087Z" fill="#F58849"/>
<path d="M288.716 61.031C286.841 61.9087 284.961 62.7708 283.071 63.6174C277.389 66.1675 271.702 68.7019 265.911 71.0027C259.201 73.5372 256.796 82.3611 261.377 87.9235C265.122 92.6341 271.977 93.4132 276.688 89.6634C278.319 88.365 279.97 87.1081 281.632 85.8513C283.299 84.61 284.956 83.3635 286.634 82.1482C289.978 79.702 293.333 77.2662 296.73 74.8979C304.604 69.1018 297.753 57.0942 288.716 61.0206V61.031Z" fill="#F58849"/>
<path d="M296.725 25.2486C295.026 24.0644 293.339 22.8647 291.661 21.6546C286.613 18.0087 281.575 14.3524 276.683 10.4883C271.136 5.93869 262.286 8.27582 259.762 15.0223C257.555 20.621 260.307 26.9469 265.906 29.1542C267.843 29.9176 269.765 30.7226 271.676 31.5276C273.582 32.3482 275.493 33.1636 277.384 34.0102C281.175 35.6825 284.961 37.3705 288.711 39.1311C297.665 43.0523 304.645 31.1173 296.725 25.2537V25.2486Z" fill="#F58849"/>
</g>
</g>
<defs>
<radialGradient id="paint0_radial_2777_11944" cx="0" cy="0" r="1" gradientUnits="userSpaceOnUse" gradientTransform="translate(201 176) rotate(90) scale(176 201)">
<stop stop-color="#FDF7F2"/>
<stop offset="1" stop-color="#FDF7F2"/>
</radialGradient>
<clipPath id="clip0_2777_11944">
<path d="M0 16C0 7.16345 7.16344 0 16 0H386C394.837 0 402 7.16344 402 16V352H0V16Z" fill="white"/>
</clipPath>
</defs>
</svg>
