<svg width="402" height="352" viewBox="0 0 402 352" fill="none" xmlns="http://www.w3.org/2000/svg">
<g clip-path="url(#clip0_2777_12079)">
<path d="M0 16C0 7.16345 7.16344 0 16 0H386C394.837 0 402 7.16344 402 16V352H0V16Z" fill="url(#paint0_linear_2777_12079)"/>
<path d="M-62.3878 -48.5507C43.4804 -87.3108 160.725 -32.9089 199.485 72.9595C238.245 178.828 183.844 296.072 77.9754 334.833C-27.8927 373.593 -145.137 319.191 -183.897 213.322C-222.658 107.454 -168.256 -9.79055 -62.3878 -48.5507Z" stroke="url(#paint1_linear_2777_12079)" stroke-opacity="0.1" stroke-width="0.416666"/>
<path d="M-83.7374 -40.7333C22.1308 -79.4934 139.375 -25.0915 178.135 80.7769C216.896 186.645 162.494 303.89 56.6258 342.65C-49.2424 381.41 -166.487 327.008 -205.247 221.14C-244.007 115.271 -189.606 -1.97317 -83.7374 -40.7333Z" stroke="url(#paint2_linear_2777_12079)" stroke-opacity="0.1" stroke-width="0.416666"/>
<path d="M-103.523 -33.4911C2.34561 -72.2512 119.59 -17.8493 158.35 88.0191C197.11 193.887 142.709 311.132 36.8406 349.892C-69.0275 388.652 -186.272 334.25 -225.032 228.382C-263.792 122.514 -209.391 5.26902 -103.523 -33.4911Z" stroke="url(#paint3_linear_2777_12079)" stroke-opacity="0.1" stroke-width="0.416666"/>
<path d="M-123.321 -26.2421C-17.4532 -65.0022 99.7912 -10.6003 138.551 95.2681C177.312 201.136 122.91 318.381 17.0418 357.141C-88.8263 395.901 -206.071 341.499 -244.831 235.631C-283.591 129.763 -229.189 12.518 -123.321 -26.2421Z" stroke="url(#paint4_linear_2777_12079)" stroke-opacity="0.1" stroke-width="0.416666"/>
<path d="M-143.099 -19.0009C-37.2306 -57.761 80.0139 -3.35905 118.774 102.509C157.534 208.378 103.133 325.622 -2.73555 364.382C-108.604 403.143 -225.848 348.741 -264.608 242.872C-303.369 137.004 -248.967 19.7593 -143.099 -19.0009Z" stroke="url(#paint5_linear_2777_12079)" stroke-opacity="0.1" stroke-width="0.416666"/>
<path d="M-162.892 -11.7548C-57.0235 -50.5149 60.2209 3.88704 98.9811 109.755C137.741 215.624 83.3396 332.868 -22.5285 371.628C-128.397 410.389 -245.641 355.987 -284.401 250.118C-323.162 144.25 -268.76 27.0053 -162.892 -11.7548Z" stroke="url(#paint6_linear_2777_12079)" stroke-opacity="0.1" stroke-width="0.416666"/>
<path d="M-182.681 -4.50967C-76.8126 -43.2698 40.4319 11.1322 79.1921 117.001C117.952 222.869 63.5506 340.113 -42.3176 378.874C-148.186 417.634 -265.43 363.232 -304.19 257.363C-342.951 151.495 -288.549 34.2505 -182.681 -4.50967Z" stroke="url(#paint7_linear_2777_12079)" stroke-opacity="0.1" stroke-width="0.416666"/>
<path d="M-202.458 2.73154C-96.5899 -36.0286 20.6545 18.3734 59.4147 124.242C98.1749 230.11 43.7732 347.355 -62.0949 386.115C-167.963 424.875 -285.208 370.473 -323.968 264.605C-362.728 158.736 -308.326 41.4917 -202.458 2.73154Z" stroke="url(#paint8_linear_2777_12079)" stroke-opacity="0.1" stroke-width="0.416666"/>
<path d="M-222.259 9.98057C-116.391 -28.7796 0.853726 25.6224 39.6139 131.491C78.3742 237.359 23.9724 354.604 -81.8957 393.364C-187.764 432.124 -305.008 377.722 -343.769 271.854C-382.529 165.985 -328.127 48.7407 -222.259 9.98057Z" stroke="url(#paint9_linear_2777_12079)" stroke-opacity="0.1" stroke-width="0.416666"/>
<path d="M-242.04 17.2237C-136.172 -21.5364 -18.9275 32.8656 19.8327 138.734C58.5929 244.602 4.19118 361.847 -101.677 400.607C-207.545 439.367 -324.79 384.965 -363.55 279.097C-402.31 173.228 -347.908 55.9839 -242.04 17.2237Z" stroke="url(#paint10_linear_2777_12079)" stroke-opacity="0.1" stroke-width="0.416666"/>
<g opacity="0.2">
<path d="M381.517 323.009C367.406 317.332 353.664 310.824 340.212 303.766C339.179 303.216 338.15 302.66 337.122 302.094C351.482 294.241 366.341 287.313 381.517 281.148C388.253 278.624 390.668 269.764 386.062 264.196C382.301 259.496 375.446 258.727 370.746 262.487C358.774 271.872 346.268 280.52 333.429 288.637C332.437 289.261 331.44 289.868 330.438 290.476C330.822 274.111 332.25 257.782 334.494 241.557C335.678 234.463 329.207 227.94 322.081 229.144C316.337 230.017 312.323 235.226 312.868 240.939C316.934 258.982 319.272 277.591 319.646 296.615C319.661 297.394 319.677 298.173 319.687 298.952C319.698 299.84 319.703 300.723 319.708 301.611C319.708 301.767 319.708 301.923 319.708 302.078C319.708 302.224 319.708 302.364 319.708 302.509C319.708 302.52 319.708 302.53 319.708 302.541C319.708 303.491 319.698 304.442 319.687 305.392C319.687 305.527 319.687 305.667 319.682 305.802C319.682 306.15 319.672 306.493 319.666 306.841C319.334 326.109 316.992 344.952 312.873 363.218C312.333 368.931 316.342 374.14 322.087 375.012C329.212 376.217 335.683 369.699 334.499 362.6C332.256 346.385 330.827 330.067 330.443 313.712C344.414 322.219 357.834 331.62 370.751 341.669C376.303 346.245 385.184 343.897 387.703 337.125C389.894 331.521 387.131 325.195 381.522 323.003L381.517 323.009Z" fill="#F58849"/>
<path d="M288.716 313.031C286.841 313.909 284.961 314.771 283.071 315.617C277.389 318.167 271.702 320.702 265.911 323.003C259.201 325.537 256.796 334.361 261.377 339.924C265.122 344.634 271.977 345.413 276.688 341.663C278.319 340.365 279.97 339.108 281.632 337.851C283.299 336.61 284.956 335.364 286.634 334.148C289.978 331.702 293.333 329.266 296.73 326.898C304.604 321.102 297.753 309.094 288.716 313.021V313.031Z" fill="#F58849"/>
<path d="M296.725 277.249C295.026 276.064 293.339 274.865 291.661 273.655C286.613 270.009 281.575 266.352 276.683 262.488C271.136 257.939 262.286 260.276 259.762 267.022C257.555 272.621 260.307 278.947 265.906 281.154C267.843 281.918 269.765 282.723 271.676 283.528C273.582 284.348 275.493 285.164 277.384 286.01C281.175 287.683 284.961 289.37 288.711 291.131C297.665 295.052 304.645 283.117 296.725 277.254V277.249Z" fill="#F58849"/>
</g>
<path d="M27.392 50H24.5966L30.8778 32.5455H33.9205L40.2017 50H37.4062L32.4716 35.7159H32.3352L27.392 50ZM27.8608 43.1648H36.929V45.3807H27.8608V43.1648ZM44.8799 50L40.039 32.5455H42.8089L46.2095 46.0625H46.3714L49.9083 32.5455H52.6526L56.1896 46.071H56.3515L59.7436 32.5455H62.522L57.6725 50H55.022L51.3487 36.9261H51.2123L47.539 50H44.8799ZM74.6362 37.1307C74.5453 36.3239 74.1703 35.6989 73.5112 35.2557C72.8522 34.8068 72.0226 34.5824 71.0226 34.5824C70.3067 34.5824 69.6874 34.696 69.1647 34.9233C68.6419 35.1449 68.2357 35.4517 67.9459 35.8438C67.6618 36.2301 67.5198 36.6705 67.5198 37.1648C67.5198 37.5795 67.6164 37.9375 67.8095 38.2386C68.0084 38.5398 68.2669 38.7926 68.5851 38.9972C68.909 39.196 69.2556 39.3636 69.6249 39.5C69.9942 39.6307 70.3493 39.7386 70.6902 39.8239L72.3948 40.267C72.9516 40.4034 73.5226 40.5881 74.1078 40.821C74.6931 41.054 75.2357 41.3608 75.7357 41.7415C76.2357 42.1222 76.6391 42.5938 76.9459 43.1562C77.2584 43.7188 77.4147 44.392 77.4147 45.1761C77.4147 46.1648 77.159 47.0426 76.6476 47.8097C76.1419 48.5767 75.4061 49.1818 74.4402 49.625C73.48 50.0682 72.3181 50.2898 70.9544 50.2898C69.6476 50.2898 68.5169 50.0824 67.5624 49.6676C66.6078 49.2528 65.8607 48.6648 65.3209 47.9034C64.7811 47.1364 64.4828 46.2273 64.426 45.1761H67.0681C67.1192 45.8068 67.3237 46.3324 67.6817 46.7528C68.0453 47.1676 68.5084 47.4773 69.0709 47.6818C69.6391 47.8807 70.2612 47.9801 70.9374 47.9801C71.6817 47.9801 72.3436 47.8636 72.9232 47.6307C73.5084 47.392 73.9686 47.0625 74.3039 46.642C74.6391 46.2159 74.8067 45.7187 74.8067 45.1506C74.8067 44.6335 74.659 44.2102 74.3635 43.8807C74.0738 43.5511 73.6789 43.2784 73.1789 43.0625C72.6845 42.8466 72.1249 42.6562 71.4999 42.4915L69.4374 41.929C68.0397 41.5483 66.9317 40.9886 66.1135 40.25C65.301 39.5114 64.8948 38.5341 64.8948 37.3182C64.8948 36.3125 65.1675 35.4347 65.713 34.6847C66.2584 33.9347 66.997 33.3523 67.9289 32.9375C68.8607 32.517 69.9118 32.3068 71.0823 32.3068C72.2641 32.3068 73.3067 32.5142 74.2101 32.929C75.1192 33.3438 75.8351 33.9148 76.3578 34.642C76.8806 35.3636 77.1533 36.1932 77.176 37.1307H74.6362ZM96.9131 37.1307C96.8222 36.3239 96.4472 35.6989 95.7881 35.2557C95.129 34.8068 94.2995 34.5824 93.2995 34.5824C92.5836 34.5824 91.9643 34.696 91.4415 34.9233C90.9188 35.1449 90.5126 35.4517 90.2228 35.8438C89.9387 36.2301 89.7966 36.6705 89.7966 37.1648C89.7966 37.5795 89.8932 37.9375 90.0864 38.2386C90.2853 38.5398 90.5438 38.7926 90.862 38.9972C91.1859 39.196 91.5324 39.3636 91.9018 39.5C92.2711 39.6307 92.6262 39.7386 92.9671 39.8239L94.6716 40.267C95.2285 40.4034 95.7995 40.5881 96.3847 40.821C96.9699 41.054 97.5126 41.3608 98.0126 41.7415C98.5126 42.1222 98.916 42.5938 99.2228 43.1562C99.5353 43.7188 99.6915 44.392 99.6915 45.1761C99.6915 46.1648 99.4359 47.0426 98.9245 47.8097C98.4188 48.5767 97.683 49.1818 96.7171 49.625C95.7569 50.0682 94.5949 50.2898 93.2313 50.2898C91.9245 50.2898 90.7938 50.0824 89.8393 49.6676C88.8847 49.2528 88.1376 48.6648 87.5978 47.9034C87.058 47.1364 86.7597 46.2273 86.7029 45.1761H89.3449C89.3961 45.8068 89.6006 46.3324 89.9586 46.7528C90.3222 47.1676 90.7853 47.4773 91.3478 47.6818C91.916 47.8807 92.5381 47.9801 93.2143 47.9801C93.9586 47.9801 94.6205 47.8636 95.2001 47.6307C95.7853 47.392 96.2455 47.0625 96.5807 46.642C96.916 46.2159 97.0836 45.7187 97.0836 45.1506C97.0836 44.6335 96.9359 44.2102 96.6404 43.8807C96.3506 43.5511 95.9557 43.2784 95.4557 43.0625C94.9614 42.8466 94.4018 42.6562 93.7768 42.4915L91.7143 41.929C90.3165 41.5483 89.2086 40.9886 88.3904 40.25C87.5779 39.5114 87.1716 38.5341 87.1716 37.3182C87.1716 36.3125 87.4444 35.4347 87.9898 34.6847C88.5353 33.9347 89.2739 33.3523 90.2057 32.9375C91.1376 32.517 92.1887 32.3068 93.3591 32.3068C94.541 32.3068 95.5836 32.5142 96.487 32.929C97.3961 33.3438 98.112 33.9148 98.6347 34.642C99.1574 35.3636 99.4302 36.1932 99.4529 37.1307H96.9131ZM102.218 34.8125V32.5455H115.726V34.8125H110.28V50H107.655V34.8125H102.218ZM118.363 50H115.568L121.849 32.5455H124.892L131.173 50H128.378L123.443 35.7159H123.306L118.363 50ZM118.832 43.1648H127.9V45.3807H118.832V43.1648ZM133.934 50V32.5455H140.155C141.507 32.5455 142.63 32.7784 143.522 33.2443C144.419 33.7102 145.09 34.3551 145.533 35.179C145.976 35.9972 146.198 36.9432 146.198 38.017C146.198 39.0852 145.973 40.0256 145.524 40.8381C145.081 41.6449 144.411 42.2727 143.513 42.7216C142.621 43.1705 141.499 43.3949 140.147 43.3949H135.434V41.1278H139.908C140.76 41.1278 141.453 41.0057 141.988 40.7614C142.527 40.517 142.922 40.1619 143.172 39.696C143.422 39.2301 143.547 38.6705 143.547 38.017C143.547 37.358 143.419 36.7869 143.164 36.304C142.914 35.821 142.519 35.4517 141.979 35.196C141.445 34.9347 140.743 34.804 139.874 34.804H136.567V50H133.934ZM142.55 42.125L146.863 50H143.863L139.635 42.125H142.55ZM148.782 34.8125V32.5455H162.29V34.8125H156.844V50H154.219V34.8125H148.782ZM176.74 32.5455H179.382V44.0256C179.382 45.2472 179.095 46.3295 178.521 47.2727C177.947 48.2102 177.14 48.9489 176.1 49.4886C175.061 50.0227 173.842 50.2898 172.444 50.2898C171.052 50.2898 169.836 50.0227 168.796 49.4886C167.757 48.9489 166.95 48.2102 166.376 47.2727C165.802 46.3295 165.515 45.2472 165.515 44.0256V32.5455H168.149V43.8125C168.149 44.6023 168.322 45.304 168.669 45.9176C169.021 46.5312 169.518 47.0142 170.16 47.3665C170.802 47.7131 171.563 47.8864 172.444 47.8864C173.33 47.8864 174.095 47.7131 174.737 47.3665C175.384 47.0142 175.879 46.5312 176.22 45.9176C176.566 45.304 176.74 44.6023 176.74 43.8125V32.5455ZM183.45 50V32.5455H189.672C191.03 32.5455 192.155 32.7926 193.047 33.2869C193.939 33.7812 194.607 34.4574 195.05 35.3153C195.493 36.1676 195.715 37.1278 195.715 38.196C195.715 39.2699 195.49 40.2358 195.041 41.0938C194.598 41.946 193.928 42.6222 193.03 43.1222C192.138 43.6165 191.016 43.8636 189.663 43.8636H185.385V41.6307H189.425C190.283 41.6307 190.979 41.483 191.513 41.1875C192.047 40.8864 192.439 40.4773 192.689 39.9602C192.939 39.4432 193.064 38.8551 193.064 38.196C193.064 37.5369 192.939 36.9517 192.689 36.4403C192.439 35.929 192.044 35.5284 191.504 35.2386C190.97 34.9489 190.266 34.804 189.391 34.804H186.084V50H183.45ZM208.562 37.1307C208.471 36.3239 208.096 35.6989 207.437 35.2557C206.778 34.8068 205.948 34.5824 204.948 34.5824C204.232 34.5824 203.613 34.696 203.09 34.9233C202.568 35.1449 202.161 35.4517 201.872 35.8438C201.587 36.2301 201.445 36.6705 201.445 37.1648C201.445 37.5795 201.542 37.9375 201.735 38.2386C201.934 38.5398 202.193 38.7926 202.511 38.9972C202.835 39.196 203.181 39.3636 203.551 39.5C203.92 39.6307 204.275 39.7386 204.616 39.8239L206.32 40.267C206.877 40.4034 207.448 40.5881 208.033 40.821C208.619 41.054 209.161 41.3608 209.661 41.7415C210.161 42.1222 210.565 42.5938 210.872 43.1562C211.184 43.7188 211.34 44.392 211.34 45.1761C211.34 46.1648 211.085 47.0426 210.573 47.8097C210.068 48.5767 209.332 49.1818 208.366 49.625C207.406 50.0682 206.244 50.2898 204.88 50.2898C203.573 50.2898 202.443 50.0824 201.488 49.6676C200.533 49.2528 199.786 48.6648 199.247 47.9034C198.707 47.1364 198.408 46.2273 198.352 45.1761H200.994C201.045 45.8068 201.249 46.3324 201.607 46.7528C201.971 47.1676 202.434 47.4773 202.997 47.6818C203.565 47.8807 204.187 47.9801 204.863 47.9801C205.607 47.9801 206.269 47.8636 206.849 47.6307C207.434 47.392 207.894 47.0625 208.229 46.642C208.565 46.2159 208.732 45.7187 208.732 45.1506C208.732 44.6335 208.585 44.2102 208.289 43.8807C207.999 43.5511 207.604 43.2784 207.104 43.0625C206.61 42.8466 206.051 42.6562 205.426 42.4915L203.363 41.929C201.965 41.5483 200.857 40.9886 200.039 40.25C199.227 39.5114 198.82 38.5341 198.82 37.3182C198.82 36.3125 199.093 35.4347 199.639 34.6847C200.184 33.9347 200.923 33.3523 201.854 32.9375C202.786 32.517 203.837 32.3068 205.008 32.3068C206.19 32.3068 207.232 32.5142 208.136 32.929C209.045 33.3438 209.761 33.9148 210.283 34.642C210.806 35.3636 211.079 36.1932 211.102 37.1307H208.562ZM25.9176 84V66.5455H32.1392C33.4972 66.5455 34.6222 66.7926 35.5142 67.2869C36.4063 67.7812 37.0739 68.4574 37.517 69.3153C37.9602 70.1676 38.1818 71.1278 38.1818 72.196C38.1818 73.2699 37.9574 74.2358 37.5085 75.0938C37.0653 75.946 36.3949 76.6222 35.4972 77.1222C34.6051 77.6165 33.483 77.8636 32.1307 77.8636H27.8523V75.6307H31.892C32.75 75.6307 33.446 75.483 33.9801 75.1875C34.5142 74.8864 34.9062 74.4773 35.1562 73.9602C35.4062 73.4432 35.5312 72.8551 35.5312 72.196C35.5312 71.5369 35.4062 70.9517 35.1562 70.4403C34.9062 69.929 34.5114 69.5284 33.9716 69.2386C33.4375 68.9489 32.733 68.804 31.858 68.804H28.5511V84H25.9176ZM41.5092 84V66.5455H47.7308C49.083 66.5455 50.2052 66.7784 51.0972 67.2443C51.995 67.7102 52.6654 68.3551 53.1086 69.179C53.5518 69.9972 53.7734 70.9432 53.7734 72.017C53.7734 73.0852 53.5489 74.0256 53.1001 74.8381C52.6569 75.6449 51.9864 76.2727 51.0887 76.7216C50.1967 77.1705 49.0745 77.3949 47.7222 77.3949H43.0092V75.1278H47.4836C48.3359 75.1278 49.0291 75.0057 49.5632 74.7614C50.1029 74.517 50.4978 74.1619 50.7478 73.696C50.9978 73.2301 51.1228 72.6705 51.1228 72.017C51.1228 71.358 50.995 70.7869 50.7393 70.304C50.4893 69.821 50.0944 69.4517 49.5546 69.196C49.0205 68.9347 48.3188 68.804 47.4495 68.804H44.1427V84H41.5092ZM50.1257 76.125L54.4382 84H51.4382L47.2109 76.125H50.1257ZM72.3799 75.2727C72.3799 77.1364 72.0389 78.7386 71.3571 80.0795C70.6753 81.4148 69.7407 82.4432 68.5532 83.1648C67.3713 83.8807 66.0276 84.2386 64.5219 84.2386C63.0105 84.2386 61.6611 83.8807 60.4736 83.1648C59.2918 82.4432 58.36 81.4119 57.6782 80.071C56.9963 78.7301 56.6554 77.1307 56.6554 75.2727C56.6554 73.4091 56.9963 71.8097 57.6782 70.4744C58.36 69.1335 59.2918 68.1051 60.4736 67.3892C61.6611 66.6676 63.0105 66.3068 64.5219 66.3068C66.0276 66.3068 67.3713 66.6676 68.5532 67.3892C69.7407 68.1051 70.6753 69.1335 71.3571 70.4744C72.0389 71.8097 72.3799 73.4091 72.3799 75.2727ZM69.7719 75.2727C69.7719 73.8523 69.5418 72.6562 69.0816 71.6847C68.627 70.7074 68.002 69.9688 67.2066 69.4688C66.4168 68.9631 65.5219 68.7102 64.5219 68.7102C63.5162 68.7102 62.6185 68.9631 61.8287 69.4688C61.0389 69.9688 60.4139 70.7074 59.9537 71.6847C59.4992 72.6562 59.2719 73.8523 59.2719 75.2727C59.2719 76.6932 59.4992 77.892 59.9537 78.8693C60.4139 79.8409 61.0389 80.5795 61.8287 81.0852C62.6185 81.5852 63.5162 81.8352 64.5219 81.8352C65.5219 81.8352 66.4168 81.5852 67.2066 81.0852C68.002 80.5795 68.627 79.8409 69.0816 78.8693C69.5418 77.892 69.7719 76.6932 69.7719 75.2727ZM87.7157 72.0597C87.551 71.5426 87.3294 71.0795 87.051 70.6705C86.7782 70.2557 86.4515 69.9034 86.0709 69.6136C85.6902 69.3182 85.2555 69.0937 84.7669 68.9403C84.2839 68.7869 83.7527 68.7102 83.1731 68.7102C82.1902 68.7102 81.3038 68.9631 80.514 69.4688C79.7243 69.9744 79.0993 70.7159 78.639 71.6932C78.1845 72.6648 77.9572 73.8551 77.9572 75.2642C77.9572 76.679 78.1873 77.875 78.6476 78.8523C79.1078 79.8295 79.7385 80.571 80.5396 81.0767C81.3407 81.5824 82.2527 81.8352 83.2754 81.8352C84.2243 81.8352 85.051 81.642 85.7555 81.2557C86.4657 80.8693 87.014 80.3239 87.4004 79.6193C87.7924 78.9091 87.9885 78.0739 87.9885 77.1136L88.6703 77.2415H83.676V75.0682H90.5368V77.054C90.5368 78.5199 90.2243 79.7926 89.5993 80.8722C88.9799 81.946 88.122 82.7756 87.0254 83.3608C85.9345 83.946 84.6845 84.2386 83.2754 84.2386C81.6959 84.2386 80.3095 83.875 79.1163 83.1477C77.9288 82.4205 77.0027 81.3892 76.3379 80.054C75.6731 78.7131 75.3407 77.1222 75.3407 75.2812C75.3407 73.8892 75.5339 72.6392 75.9203 71.5312C76.3066 70.4233 76.8493 69.483 77.5481 68.7102C78.2527 67.9318 79.0794 67.3381 80.0282 66.929C80.9828 66.5142 82.0254 66.3068 83.1561 66.3068C84.0993 66.3068 84.9771 66.446 85.7896 66.7244C86.6078 67.0028 87.3351 67.3977 87.9714 67.9091C88.6135 68.4205 89.1447 69.0284 89.5652 69.733C89.9856 70.4318 90.2697 71.2074 90.4174 72.0597H87.7157ZM94.1198 84V66.5455H100.341C101.694 66.5455 102.816 66.7784 103.708 67.2443C104.606 67.7102 105.276 68.3551 105.719 69.179C106.162 69.9972 106.384 70.9432 106.384 72.017C106.384 73.0852 106.16 74.0256 105.711 74.8381C105.268 75.6449 104.597 76.2727 103.699 76.7216C102.807 77.1705 101.685 77.3949 100.333 77.3949H95.6198V75.1278H100.094C100.947 75.1278 101.64 75.0057 102.174 74.7614C102.714 74.517 103.108 74.1619 103.358 73.696C103.608 73.2301 103.733 72.6705 103.733 72.017C103.733 71.358 103.606 70.7869 103.35 70.304C103.1 69.821 102.705 69.4517 102.165 69.196C101.631 68.9347 100.929 68.804 100.06 68.804H96.7533V84H94.1198ZM102.736 76.125L107.049 84H104.049L99.8215 76.125H102.736ZM111.303 84H108.508L114.789 66.5455H117.831L124.113 84H121.317L116.383 69.7159H116.246L111.303 84ZM111.772 77.1648H120.84V79.3807H111.772V77.1648ZM126.873 66.5455H130.069L135.626 80.1136H135.831L141.387 66.5455H144.583V84H142.078V71.3693H141.916L136.768 83.9744H134.689L129.541 71.3608H129.379V84H126.873V66.5455Z" fill="#241F20"/>
<g clip-path="url(#clip1_2777_12079)">
<path d="M37.0729 130.547C37.0729 131.107 37.1335 131.561 37.2394 131.894C37.3604 132.227 37.5118 132.59 37.7236 132.983C37.7993 133.104 37.8295 133.225 37.8295 133.331C37.8295 133.482 37.7387 133.634 37.542 133.785L36.5887 134.421C36.4525 134.511 36.3164 134.557 36.1953 134.557C36.044 134.557 35.8927 134.481 35.7414 134.345C35.5295 134.118 35.3479 133.876 35.1966 133.634C35.0453 133.377 34.894 133.089 34.7276 132.741C33.5473 134.133 32.0644 134.829 30.2789 134.829C29.0078 134.829 27.994 134.466 27.2525 133.74C26.5111 133.013 26.1328 132.045 26.1328 130.834C26.1328 129.548 26.5868 128.504 27.5098 127.717C28.4328 126.93 29.6585 126.537 31.217 126.537C31.7315 126.537 32.2611 126.582 32.821 126.658C33.3808 126.734 33.9558 126.855 34.5611 126.991V125.886C34.5611 124.736 34.319 123.934 33.8499 123.465C33.3657 122.996 32.5486 122.769 31.3835 122.769C30.8539 122.769 30.3091 122.83 29.7493 122.966C29.1894 123.102 28.6447 123.269 28.115 123.48C27.8729 123.586 27.6914 123.647 27.5854 123.677C27.4795 123.707 27.4039 123.723 27.3433 123.723C27.1315 123.723 27.0256 123.571 27.0256 123.254V122.512C27.0256 122.27 27.0558 122.088 27.1315 121.982C27.2072 121.877 27.3433 121.771 27.5552 121.665C28.0848 121.392 28.7203 121.165 29.4618 120.984C30.2032 120.787 30.99 120.696 31.8223 120.696C33.6229 120.696 34.9394 121.105 35.7868 121.922C36.619 122.739 37.0427 123.98 37.0427 125.644V130.547H37.0729ZM30.9295 132.847C31.4289 132.847 31.9433 132.756 32.4881 132.575C33.0328 132.393 33.517 132.06 33.9256 131.606C34.1677 131.319 34.3493 131.001 34.44 130.638C34.5308 130.275 34.5914 129.836 34.5914 129.321V128.686C34.1525 128.58 33.6835 128.489 33.1993 128.429C32.715 128.368 32.246 128.338 31.7769 128.338C30.7631 128.338 30.0216 128.534 29.5223 128.943C29.0229 129.352 28.7808 129.927 28.7808 130.683C28.7808 131.394 28.9624 131.924 29.3407 132.287C29.7039 132.665 30.2335 132.847 30.9295 132.847ZM43.0802 134.481C42.8078 134.481 42.6262 134.436 42.5052 134.33C42.3841 134.239 42.2782 134.027 42.1874 133.74L38.6315 122.043C38.5407 121.74 38.4953 121.544 38.4953 121.438C38.4953 121.196 38.6164 121.059 38.8585 121.059H40.3414C40.6289 121.059 40.8256 121.105 40.9315 121.211C41.0526 121.302 41.1433 121.513 41.2341 121.801L43.7762 131.818L46.1368 121.801C46.2124 121.498 46.3032 121.302 46.4243 121.211C46.5453 121.12 46.7572 121.059 47.0295 121.059H48.24C48.5275 121.059 48.7243 121.105 48.8453 121.211C48.9664 121.302 49.0723 121.513 49.1328 121.801L51.5236 131.939L54.1414 121.801C54.2322 121.498 54.3381 121.302 54.444 121.211C54.565 121.12 54.7618 121.059 55.0341 121.059H56.4414C56.6835 121.059 56.8197 121.18 56.8197 121.438C56.8197 121.513 56.8045 121.589 56.7894 121.68C56.7743 121.771 56.744 121.892 56.6835 122.058L53.0368 133.755C52.946 134.057 52.84 134.254 52.719 134.345C52.5979 134.436 52.4012 134.496 52.144 134.496H50.8427C50.5552 134.496 50.3585 134.451 50.2374 134.345C50.1164 134.239 50.0104 134.042 49.9499 133.74L47.6045 123.98L45.2743 133.725C45.1986 134.027 45.1078 134.224 44.9868 134.33C44.8657 134.436 44.6539 134.481 44.3815 134.481H43.0802ZM62.5243 134.89C61.7374 134.89 60.9506 134.799 60.194 134.617C59.4374 134.436 58.8473 134.239 58.4539 134.012C58.2118 133.876 58.0453 133.725 57.9848 133.588C57.9243 133.452 57.894 133.301 57.894 133.165V132.393C57.894 132.075 58.015 131.924 58.242 131.924C58.3328 131.924 58.4236 131.939 58.5144 131.969C58.6052 132 58.7414 132.06 58.8927 132.121C59.4072 132.348 59.967 132.529 60.5572 132.65C61.1624 132.771 61.7525 132.832 62.3578 132.832C63.3111 132.832 64.0526 132.665 64.567 132.332C65.0815 132 65.3539 131.515 65.3539 130.895C65.3539 130.471 65.2177 130.123 64.9453 129.836C64.6729 129.548 64.1585 129.291 63.417 129.049L61.2229 128.368C60.1183 128.02 59.3012 127.505 58.8019 126.825C58.3025 126.159 58.0453 125.417 58.0453 124.63C58.0453 123.995 58.1815 123.435 58.4539 122.951C58.7262 122.467 59.0894 122.043 59.5433 121.71C59.9973 121.362 60.5118 121.105 61.117 120.923C61.7223 120.742 62.3578 120.666 63.0236 120.666C63.3565 120.666 63.7045 120.681 64.0374 120.727C64.3854 120.772 64.7032 120.832 65.021 120.893C65.3236 120.969 65.6111 121.044 65.8835 121.135C66.1558 121.226 66.3677 121.317 66.519 121.407C66.7308 121.529 66.8822 121.65 66.9729 121.786C67.0637 121.907 67.1091 122.073 67.1091 122.285V122.996C67.1091 123.314 66.9881 123.48 66.7611 123.48C66.6401 123.48 66.4433 123.42 66.1861 123.299C65.3236 122.905 64.3552 122.709 63.2808 122.709C62.4183 122.709 61.7374 122.845 61.2683 123.132C60.7993 123.42 60.5572 123.859 60.5572 124.479C60.5572 124.903 60.7085 125.266 61.0111 125.554C61.3137 125.841 61.8736 126.129 62.6756 126.386L64.8243 127.067C65.9137 127.415 66.7006 127.899 67.1697 128.519C67.6387 129.14 67.8657 129.851 67.8657 130.638C67.8657 131.288 67.7295 131.879 67.4723 132.393C67.1999 132.907 66.8368 133.361 66.3677 133.725C65.8986 134.103 65.3387 134.375 64.6881 134.572C64.0072 134.784 63.296 134.89 62.5243 134.89Z" fill="#231F20"/>
<path fill-rule="evenodd" clip-rule="evenodd" d="M65.3844 142.243C60.4061 145.92 53.1732 147.872 46.9542 147.872C38.2384 147.872 30.3851 144.649 24.4535 139.293C23.9844 138.869 24.4081 138.294 24.968 138.627C31.3838 142.349 39.2976 144.604 47.4838 144.604C53.0068 144.604 59.0746 143.454 64.6581 141.093C65.4904 140.715 66.2015 141.638 65.3844 142.243Z" fill="#FF9900"/>
<path fill-rule="evenodd" clip-rule="evenodd" d="M67.4569 139.883C66.8214 139.066 63.2504 139.489 61.6313 139.686C61.1471 139.747 61.0714 139.323 61.5102 139.005C64.355 137.008 69.0306 137.583 69.5754 138.249C70.1201 138.929 69.424 143.605 66.7609 145.845C66.3523 146.193 65.9589 146.011 66.1405 145.557C66.7458 144.059 68.0925 140.685 67.4569 139.883Z" fill="#FF9900"/>
</g>
</g>
<defs>
<linearGradient id="paint0_linear_2777_12079" x1="201" y1="0" x2="201" y2="352" gradientUnits="userSpaceOnUse">
<stop stop-color="#FDF7F2"/>
<stop offset="1" stop-color="#FDF7F2"/>
</linearGradient>
<linearGradient id="paint1_linear_2777_12079" x1="-62.4594" y1="-48.7463" x2="78.047" y2="335.028" gradientUnits="userSpaceOnUse">
<stop stop-color="#B54909"/>
<stop offset="0.32" stop-color="#F7B690"/>
<stop offset="1" stop-color="#B54909"/>
</linearGradient>
<linearGradient id="paint2_linear_2777_12079" x1="-83.809" y1="-40.9289" x2="56.6974" y2="342.846" gradientUnits="userSpaceOnUse">
<stop stop-color="#B54909"/>
<stop offset="0.32" stop-color="#F7B690"/>
<stop offset="1" stop-color="#B54909"/>
</linearGradient>
<linearGradient id="paint3_linear_2777_12079" x1="-103.594" y1="-33.6868" x2="36.9123" y2="350.088" gradientUnits="userSpaceOnUse">
<stop stop-color="#B54909"/>
<stop offset="0.32" stop-color="#F7B690"/>
<stop offset="1" stop-color="#B54909"/>
</linearGradient>
<linearGradient id="paint4_linear_2777_12079" x1="-123.393" y1="-26.4377" x2="17.1134" y2="357.337" gradientUnits="userSpaceOnUse">
<stop stop-color="#B54909"/>
<stop offset="0.32" stop-color="#F7B690"/>
<stop offset="1" stop-color="#B54909"/>
</linearGradient>
<linearGradient id="paint5_linear_2777_12079" x1="-143.17" y1="-19.1965" x2="-2.66392" y2="364.578" gradientUnits="userSpaceOnUse">
<stop stop-color="#B54909"/>
<stop offset="0.32" stop-color="#F7B690"/>
<stop offset="1" stop-color="#B54909"/>
</linearGradient>
<linearGradient id="paint6_linear_2777_12079" x1="-162.963" y1="-11.9504" x2="-22.4569" y2="371.824" gradientUnits="userSpaceOnUse">
<stop stop-color="#B54909"/>
<stop offset="0.32" stop-color="#F7B690"/>
<stop offset="1" stop-color="#B54909"/>
</linearGradient>
<linearGradient id="paint7_linear_2777_12079" x1="-182.752" y1="-4.70531" x2="-42.246" y2="379.069" gradientUnits="userSpaceOnUse">
<stop stop-color="#B54909"/>
<stop offset="0.32" stop-color="#F7B690"/>
<stop offset="1" stop-color="#B54909"/>
</linearGradient>
<linearGradient id="paint8_linear_2777_12079" x1="-202.53" y1="2.5359" x2="-62.0233" y2="386.31" gradientUnits="userSpaceOnUse">
<stop stop-color="#B54909"/>
<stop offset="0.32" stop-color="#F7B690"/>
<stop offset="1" stop-color="#B54909"/>
</linearGradient>
<linearGradient id="paint9_linear_2777_12079" x1="-222.33" y1="9.78492" x2="-81.8241" y2="393.559" gradientUnits="userSpaceOnUse">
<stop stop-color="#B54909"/>
<stop offset="0.32" stop-color="#F7B690"/>
<stop offset="1" stop-color="#B54909"/>
</linearGradient>
<linearGradient id="paint10_linear_2777_12079" x1="-242.112" y1="17.0281" x2="-101.605" y2="400.803" gradientUnits="userSpaceOnUse">
<stop stop-color="#B54909"/>
<stop offset="0.32" stop-color="#F7B690"/>
<stop offset="1" stop-color="#B54909"/>
</linearGradient>
<clipPath id="clip0_2777_12079">
<path d="M0 16C0 7.16345 7.16344 0 16 0H386C394.837 0 402 7.16344 402 16V352H0V16Z" fill="white"/>
</clipPath>
<clipPath id="clip1_2777_12079">
<rect width="46" height="27.5395" fill="white" transform="translate(24 120.5)"/>
</clipPath>
</defs>
</svg>
