<svg width="402" height="352" viewBox="0 0 402 352" fill="none" xmlns="http://www.w3.org/2000/svg">
<g clip-path="url(#clip0_3079_14904)">
<path d="M0 16C0 7.16345 7.16344 0 16 0H386C394.837 0 402 7.16344 402 16V352H0V16Z" fill="url(#paint0_linear_3079_14904)"/>
<path d="M-62.3892 -48.5507C43.4789 -87.3108 160.723 -32.9089 199.484 72.9595C238.244 178.828 183.842 296.072 77.9739 334.833C-27.8942 373.593 -145.139 319.191 -183.899 213.322C-222.659 107.454 -168.257 -9.79055 -62.3892 -48.5507Z" stroke="url(#paint1_linear_3079_14904)" stroke-opacity="0.1" stroke-width="0.416666"/>
<path d="M-83.7393 -40.7335C22.1288 -79.4937 139.373 -25.0917 178.133 80.7766C216.894 186.645 162.492 303.89 56.6238 342.65C-49.2443 381.41 -166.489 327.008 -205.249 221.14C-244.009 115.271 -189.607 -1.97341 -83.7393 -40.7335Z" stroke="url(#paint2_linear_3079_14904)" stroke-opacity="0.1" stroke-width="0.416666"/>
<path d="M-103.523 -33.4914C2.34515 -72.2515 119.59 -17.8495 158.35 88.0188C197.11 193.887 142.708 311.132 36.8401 349.892C-69.028 388.652 -186.272 334.25 -225.033 228.382C-263.793 122.513 -209.391 5.26877 -103.523 -33.4914Z" stroke="url(#paint3_linear_3079_14904)" stroke-opacity="0.1" stroke-width="0.416666"/>
<path d="M-123.322 -26.2426C-17.4537 -65.0027 99.7907 -10.6007 138.551 95.2676C177.311 201.136 122.909 318.381 17.0413 357.141C-88.8268 395.901 -206.071 341.499 -244.831 235.63C-283.592 129.762 -229.19 12.5176 -123.322 -26.2426Z" stroke="url(#paint4_linear_3079_14904)" stroke-opacity="0.1" stroke-width="0.416666"/>
<path d="M-143.099 -19.0009C-37.231 -57.761 80.0134 -3.35905 118.774 102.509C157.534 208.378 103.132 325.622 -2.73603 364.382C-108.604 403.143 -225.849 348.741 -264.609 242.872C-303.369 137.004 -248.967 19.7593 -143.099 -19.0009Z" stroke="url(#paint5_linear_3079_14904)" stroke-opacity="0.1" stroke-width="0.416666"/>
<path d="M-162.892 -11.7553C-57.0235 -50.5154 60.2209 3.88656 98.9811 109.755C137.741 215.623 83.3396 332.868 -22.5285 371.628C-128.397 410.388 -245.641 355.986 -284.401 250.118C-323.162 144.249 -268.76 27.0049 -162.892 -11.7553Z" stroke="url(#paint6_linear_3079_14904)" stroke-opacity="0.1" stroke-width="0.416666"/>
<path d="M-182.681 -4.51016C-76.8131 -43.2703 40.4314 11.1317 79.1916 117C117.952 222.868 63.5501 340.113 -42.3181 378.873C-148.186 417.633 -265.431 363.231 -304.191 257.363C-342.951 151.495 -288.549 34.25 -182.681 -4.51016Z" stroke="url(#paint7_linear_3079_14904)" stroke-opacity="0.1" stroke-width="0.416666"/>
<path d="M-202.46 2.73105C-96.5919 -36.0291 20.6526 18.3729 59.4128 124.241C98.173 230.11 43.7713 347.354 -62.0969 386.114C-167.965 424.874 -285.209 370.472 -323.97 264.604C-362.73 158.736 -308.328 41.4912 -202.46 2.73105Z" stroke="url(#paint8_linear_3079_14904)" stroke-opacity="0.1" stroke-width="0.416666"/>
<path d="M-222.26 9.98008C-116.392 -28.7801 0.852261 25.6219 39.6125 131.49C78.3727 237.359 23.971 354.603 -81.8972 393.363C-187.765 432.123 -305.01 377.721 -343.77 271.853C-382.53 165.985 -328.128 48.7402 -222.26 9.98008Z" stroke="url(#paint9_linear_3079_14904)" stroke-opacity="0.1" stroke-width="0.416666"/>
<path d="M-242.041 17.2235C-136.173 -21.5367 -18.9285 32.8653 19.8317 138.734C58.5919 244.602 4.19023 361.847 -101.678 400.607C-207.546 439.367 -324.791 384.965 -363.551 279.097C-402.311 173.228 -347.909 55.9836 -242.041 17.2235Z" stroke="url(#paint10_linear_3079_14904)" stroke-opacity="0.1" stroke-width="0.416666"/>
<g opacity="0.2">
<path d="M381.517 323.009C367.406 317.332 353.664 310.824 340.212 303.766C339.179 303.216 338.15 302.66 337.122 302.094C351.482 294.241 366.341 287.313 381.517 281.148C388.253 278.624 390.668 269.764 386.062 264.196C382.301 259.496 375.446 258.727 370.746 262.487C358.774 271.872 346.268 280.52 333.429 288.637C332.437 289.261 331.44 289.868 330.438 290.476C330.822 274.111 332.25 257.782 334.494 241.557C335.678 234.463 329.207 227.94 322.081 229.144C316.337 230.017 312.323 235.226 312.868 240.939C316.934 258.982 319.272 277.591 319.646 296.615C319.661 297.394 319.677 298.173 319.687 298.952C319.698 299.84 319.703 300.723 319.708 301.611C319.708 301.767 319.708 301.923 319.708 302.078C319.708 302.224 319.708 302.364 319.708 302.509C319.708 302.52 319.708 302.53 319.708 302.541C319.708 303.491 319.698 304.442 319.687 305.392C319.687 305.527 319.687 305.667 319.682 305.802C319.682 306.15 319.672 306.493 319.666 306.841C319.334 326.109 316.992 344.952 312.873 363.218C312.333 368.931 316.342 374.14 322.087 375.012C329.212 376.217 335.683 369.699 334.499 362.6C332.256 346.385 330.827 330.067 330.443 313.712C344.414 322.219 357.834 331.62 370.751 341.669C376.303 346.245 385.184 343.897 387.703 337.125C389.894 331.521 387.131 325.195 381.522 323.003L381.517 323.009Z" fill="#F58849"/>
<path d="M288.716 313.031C286.841 313.909 284.961 314.771 283.07 315.618C277.389 318.168 271.702 320.702 265.911 323.003C259.201 325.537 256.796 334.361 261.377 339.924C265.121 344.634 271.977 345.413 276.687 341.664C278.318 340.365 279.97 339.108 281.632 337.852C283.299 336.61 284.956 335.364 286.633 334.148C289.978 331.702 293.333 329.266 296.73 326.898C304.603 321.102 297.753 309.094 288.716 313.021V313.031Z" fill="#F58849"/>
<path d="M296.725 277.249C295.026 276.064 293.339 274.865 291.661 273.655C286.613 270.009 281.575 266.352 276.683 262.488C271.136 257.939 262.286 260.276 259.762 267.022C257.555 272.621 260.307 278.947 265.906 281.154C267.843 281.918 269.765 282.723 271.676 283.528C273.582 284.348 275.493 285.164 277.384 286.01C281.175 287.683 284.961 289.37 288.711 291.131C297.665 295.052 304.645 283.117 296.725 277.254V277.249Z" fill="#F58849"/>
</g>
<path d="M27.392 50H24.5966L30.8778 32.5455H33.9205L40.2017 50H37.4062L32.4716 35.7159H32.3352L27.392 50ZM27.8608 43.1648H36.929V45.3807H27.8608V43.1648ZM44.8799 50L40.039 32.5455H42.8089L46.2095 46.0625H46.3714L49.9083 32.5455H52.6526L56.1896 46.071H56.3515L59.7436 32.5455H62.522L57.6725 50H55.022L51.3487 36.9261H51.2123L47.539 50H44.8799ZM74.6362 37.1307C74.5453 36.3239 74.1703 35.6989 73.5112 35.2557C72.8522 34.8068 72.0226 34.5824 71.0226 34.5824C70.3067 34.5824 69.6874 34.696 69.1647 34.9233C68.6419 35.1449 68.2357 35.4517 67.9459 35.8438C67.6618 36.2301 67.5198 36.6705 67.5198 37.1648C67.5198 37.5795 67.6164 37.9375 67.8095 38.2386C68.0084 38.5398 68.2669 38.7926 68.5851 38.9972C68.909 39.196 69.2556 39.3636 69.6249 39.5C69.9942 39.6307 70.3493 39.7386 70.6902 39.8239L72.3948 40.267C72.9516 40.4034 73.5226 40.5881 74.1078 40.821C74.6931 41.054 75.2357 41.3608 75.7357 41.7415C76.2357 42.1222 76.6391 42.5938 76.9459 43.1562C77.2584 43.7188 77.4147 44.392 77.4147 45.1761C77.4147 46.1648 77.159 47.0426 76.6476 47.8097C76.1419 48.5767 75.4061 49.1818 74.4402 49.625C73.48 50.0682 72.3181 50.2898 70.9544 50.2898C69.6476 50.2898 68.5169 50.0824 67.5624 49.6676C66.6078 49.2528 65.8607 48.6648 65.3209 47.9034C64.7811 47.1364 64.4828 46.2273 64.426 45.1761H67.0681C67.1192 45.8068 67.3237 46.3324 67.6817 46.7528C68.0453 47.1676 68.5084 47.4773 69.0709 47.6818C69.6391 47.8807 70.2612 47.9801 70.9374 47.9801C71.6817 47.9801 72.3436 47.8636 72.9232 47.6307C73.5084 47.392 73.9686 47.0625 74.3039 46.642C74.6391 46.2159 74.8067 45.7187 74.8067 45.1506C74.8067 44.6335 74.659 44.2102 74.3635 43.8807C74.0738 43.5511 73.6789 43.2784 73.1789 43.0625C72.6845 42.8466 72.1249 42.6562 71.4999 42.4915L69.4374 41.929C68.0397 41.5483 66.9317 40.9886 66.1135 40.25C65.301 39.5114 64.8948 38.5341 64.8948 37.3182C64.8948 36.3125 65.1675 35.4347 65.713 34.6847C66.2584 33.9347 66.997 33.3523 67.9289 32.9375C68.8607 32.517 69.9118 32.3068 71.0823 32.3068C72.2641 32.3068 73.3067 32.5142 74.2101 32.929C75.1192 33.3438 75.8351 33.9148 76.3578 34.642C76.8806 35.3636 77.1533 36.1932 77.176 37.1307H74.6362ZM96.9131 37.1307C96.8222 36.3239 96.4472 35.6989 95.7881 35.2557C95.129 34.8068 94.2995 34.5824 93.2995 34.5824C92.5836 34.5824 91.9643 34.696 91.4415 34.9233C90.9188 35.1449 90.5126 35.4517 90.2228 35.8438C89.9387 36.2301 89.7966 36.6705 89.7966 37.1648C89.7966 37.5795 89.8932 37.9375 90.0864 38.2386C90.2853 38.5398 90.5438 38.7926 90.862 38.9972C91.1859 39.196 91.5324 39.3636 91.9018 39.5C92.2711 39.6307 92.6262 39.7386 92.9671 39.8239L94.6716 40.267C95.2285 40.4034 95.7995 40.5881 96.3847 40.821C96.9699 41.054 97.5126 41.3608 98.0126 41.7415C98.5126 42.1222 98.916 42.5938 99.2228 43.1562C99.5353 43.7188 99.6915 44.392 99.6915 45.1761C99.6915 46.1648 99.4359 47.0426 98.9245 47.8097C98.4188 48.5767 97.683 49.1818 96.7171 49.625C95.7569 50.0682 94.5949 50.2898 93.2313 50.2898C91.9245 50.2898 90.7938 50.0824 89.8393 49.6676C88.8847 49.2528 88.1376 48.6648 87.5978 47.9034C87.058 47.1364 86.7597 46.2273 86.7029 45.1761H89.3449C89.3961 45.8068 89.6006 46.3324 89.9586 46.7528C90.3222 47.1676 90.7853 47.4773 91.3478 47.6818C91.916 47.8807 92.5381 47.9801 93.2143 47.9801C93.9586 47.9801 94.6205 47.8636 95.2001 47.6307C95.7853 47.392 96.2455 47.0625 96.5807 46.642C96.916 46.2159 97.0836 45.7187 97.0836 45.1506C97.0836 44.6335 96.9359 44.2102 96.6404 43.8807C96.3506 43.5511 95.9557 43.2784 95.4557 43.0625C94.9614 42.8466 94.4018 42.6562 93.7768 42.4915L91.7143 41.929C90.3165 41.5483 89.2086 40.9886 88.3904 40.25C87.5779 39.5114 87.1716 38.5341 87.1716 37.3182C87.1716 36.3125 87.4444 35.4347 87.9898 34.6847C88.5353 33.9347 89.2739 33.3523 90.2057 32.9375C91.1376 32.517 92.1887 32.3068 93.3591 32.3068C94.541 32.3068 95.5836 32.5142 96.487 32.929C97.3961 33.3438 98.112 33.9148 98.6347 34.642C99.1574 35.3636 99.4302 36.1932 99.4529 37.1307H96.9131ZM102.218 34.8125V32.5455H115.726V34.8125H110.28V50H107.655V34.8125H102.218ZM118.363 50H115.568L121.849 32.5455H124.892L131.173 50H128.378L123.443 35.7159H123.306L118.363 50ZM118.832 43.1648H127.9V45.3807H118.832V43.1648ZM133.934 50V32.5455H140.155C141.507 32.5455 142.63 32.7784 143.522 33.2443C144.419 33.7102 145.09 34.3551 145.533 35.179C145.976 35.9972 146.198 36.9432 146.198 38.017C146.198 39.0852 145.973 40.0256 145.524 40.8381C145.081 41.6449 144.411 42.2727 143.513 42.7216C142.621 43.1705 141.499 43.3949 140.147 43.3949H135.434V41.1278H139.908C140.76 41.1278 141.453 41.0057 141.988 40.7614C142.527 40.517 142.922 40.1619 143.172 39.696C143.422 39.2301 143.547 38.6705 143.547 38.017C143.547 37.358 143.419 36.7869 143.164 36.304C142.914 35.821 142.519 35.4517 141.979 35.196C141.445 34.9347 140.743 34.804 139.874 34.804H136.567V50H133.934ZM142.55 42.125L146.863 50H143.863L139.635 42.125H142.55ZM148.782 34.8125V32.5455H162.29V34.8125H156.844V50H154.219V34.8125H148.782ZM176.74 32.5455H179.382V44.0256C179.382 45.2472 179.095 46.3295 178.521 47.2727C177.947 48.2102 177.14 48.9489 176.1 49.4886C175.061 50.0227 173.842 50.2898 172.444 50.2898C171.052 50.2898 169.836 50.0227 168.796 49.4886C167.757 48.9489 166.95 48.2102 166.376 47.2727C165.802 46.3295 165.515 45.2472 165.515 44.0256V32.5455H168.149V43.8125C168.149 44.6023 168.322 45.304 168.669 45.9176C169.021 46.5312 169.518 47.0142 170.16 47.3665C170.802 47.7131 171.563 47.8864 172.444 47.8864C173.33 47.8864 174.095 47.7131 174.737 47.3665C175.384 47.0142 175.879 46.5312 176.22 45.9176C176.566 45.304 176.74 44.6023 176.74 43.8125V32.5455ZM183.45 50V32.5455H189.672C191.03 32.5455 192.155 32.7926 193.047 33.2869C193.939 33.7812 194.607 34.4574 195.05 35.3153C195.493 36.1676 195.715 37.1278 195.715 38.196C195.715 39.2699 195.49 40.2358 195.041 41.0938C194.598 41.946 193.928 42.6222 193.03 43.1222C192.138 43.6165 191.016 43.8636 189.663 43.8636H185.385V41.6307H189.425C190.283 41.6307 190.979 41.483 191.513 41.1875C192.047 40.8864 192.439 40.4773 192.689 39.9602C192.939 39.4432 193.064 38.8551 193.064 38.196C193.064 37.5369 192.939 36.9517 192.689 36.4403C192.439 35.929 192.044 35.5284 191.504 35.2386C190.97 34.9489 190.266 34.804 189.391 34.804H186.084V50H183.45ZM208.562 37.1307C208.471 36.3239 208.096 35.6989 207.437 35.2557C206.778 34.8068 205.948 34.5824 204.948 34.5824C204.232 34.5824 203.613 34.696 203.09 34.9233C202.568 35.1449 202.161 35.4517 201.872 35.8438C201.587 36.2301 201.445 36.6705 201.445 37.1648C201.445 37.5795 201.542 37.9375 201.735 38.2386C201.934 38.5398 202.193 38.7926 202.511 38.9972C202.835 39.196 203.181 39.3636 203.551 39.5C203.92 39.6307 204.275 39.7386 204.616 39.8239L206.32 40.267C206.877 40.4034 207.448 40.5881 208.033 40.821C208.619 41.054 209.161 41.3608 209.661 41.7415C210.161 42.1222 210.565 42.5938 210.872 43.1562C211.184 43.7188 211.34 44.392 211.34 45.1761C211.34 46.1648 211.085 47.0426 210.573 47.8097C210.068 48.5767 209.332 49.1818 208.366 49.625C207.406 50.0682 206.244 50.2898 204.88 50.2898C203.573 50.2898 202.443 50.0824 201.488 49.6676C200.533 49.2528 199.786 48.6648 199.247 47.9034C198.707 47.1364 198.408 46.2273 198.352 45.1761H200.994C201.045 45.8068 201.249 46.3324 201.607 46.7528C201.971 47.1676 202.434 47.4773 202.997 47.6818C203.565 47.8807 204.187 47.9801 204.863 47.9801C205.607 47.9801 206.269 47.8636 206.849 47.6307C207.434 47.392 207.894 47.0625 208.229 46.642C208.565 46.2159 208.732 45.7187 208.732 45.1506C208.732 44.6335 208.585 44.2102 208.289 43.8807C207.999 43.5511 207.604 43.2784 207.104 43.0625C206.61 42.8466 206.051 42.6562 205.426 42.4915L203.363 41.929C201.965 41.5483 200.857 40.9886 200.039 40.25C199.227 39.5114 198.82 38.5341 198.82 37.3182C198.82 36.3125 199.093 35.4347 199.639 34.6847C200.184 33.9347 200.923 33.3523 201.854 32.9375C202.786 32.517 203.837 32.3068 205.008 32.3068C206.19 32.3068 207.232 32.5142 208.136 32.929C209.045 33.3438 209.761 33.9148 210.283 34.642C210.806 35.3636 211.079 36.1932 211.102 37.1307H208.562ZM25.9176 84V66.5455H32.1392C33.4972 66.5455 34.6222 66.7926 35.5142 67.2869C36.4063 67.7812 37.0739 68.4574 37.517 69.3153C37.9602 70.1676 38.1818 71.1278 38.1818 72.196C38.1818 73.2699 37.9574 74.2358 37.5085 75.0938C37.0653 75.946 36.3949 76.6222 35.4972 77.1222C34.6051 77.6165 33.483 77.8636 32.1307 77.8636H27.8523V75.6307H31.892C32.75 75.6307 33.446 75.483 33.9801 75.1875C34.5142 74.8864 34.9062 74.4773 35.1562 73.9602C35.4062 73.4432 35.5312 72.8551 35.5312 72.196C35.5312 71.5369 35.4062 70.9517 35.1562 70.4403C34.9062 69.929 34.5114 69.5284 33.9716 69.2386C33.4375 68.9489 32.733 68.804 31.858 68.804H28.5511V84H25.9176ZM41.5092 84V66.5455H47.7308C49.083 66.5455 50.2052 66.7784 51.0972 67.2443C51.995 67.7102 52.6654 68.3551 53.1086 69.179C53.5518 69.9972 53.7734 70.9432 53.7734 72.017C53.7734 73.0852 53.5489 74.0256 53.1001 74.8381C52.6569 75.6449 51.9864 76.2727 51.0887 76.7216C50.1967 77.1705 49.0745 77.3949 47.7222 77.3949H43.0092V75.1278H47.4836C48.3359 75.1278 49.0291 75.0057 49.5632 74.7614C50.1029 74.517 50.4978 74.1619 50.7478 73.696C50.9978 73.2301 51.1228 72.6705 51.1228 72.017C51.1228 71.358 50.995 70.7869 50.7393 70.304C50.4893 69.821 50.0944 69.4517 49.5546 69.196C49.0205 68.9347 48.3188 68.804 47.4495 68.804H44.1427V84H41.5092ZM50.1257 76.125L54.4382 84H51.4382L47.2109 76.125H50.1257ZM72.3799 75.2727C72.3799 77.1364 72.0389 78.7386 71.3571 80.0795C70.6753 81.4148 69.7407 82.4432 68.5532 83.1648C67.3713 83.8807 66.0276 84.2386 64.5219 84.2386C63.0105 84.2386 61.6611 83.8807 60.4736 83.1648C59.2918 82.4432 58.36 81.4119 57.6782 80.071C56.9963 78.7301 56.6554 77.1307 56.6554 75.2727C56.6554 73.4091 56.9963 71.8097 57.6782 70.4744C58.36 69.1335 59.2918 68.1051 60.4736 67.3892C61.6611 66.6676 63.0105 66.3068 64.5219 66.3068C66.0276 66.3068 67.3713 66.6676 68.5532 67.3892C69.7407 68.1051 70.6753 69.1335 71.3571 70.4744C72.0389 71.8097 72.3799 73.4091 72.3799 75.2727ZM69.7719 75.2727C69.7719 73.8523 69.5418 72.6562 69.0816 71.6847C68.627 70.7074 68.002 69.9688 67.2066 69.4688C66.4168 68.9631 65.5219 68.7102 64.5219 68.7102C63.5162 68.7102 62.6185 68.9631 61.8287 69.4688C61.0389 69.9688 60.4139 70.7074 59.9537 71.6847C59.4992 72.6562 59.2719 73.8523 59.2719 75.2727C59.2719 76.6932 59.4992 77.892 59.9537 78.8693C60.4139 79.8409 61.0389 80.5795 61.8287 81.0852C62.6185 81.5852 63.5162 81.8352 64.5219 81.8352C65.5219 81.8352 66.4168 81.5852 67.2066 81.0852C68.002 80.5795 68.627 79.8409 69.0816 78.8693C69.5418 77.892 69.7719 76.6932 69.7719 75.2727ZM87.7157 72.0597C87.551 71.5426 87.3294 71.0795 87.051 70.6705C86.7782 70.2557 86.4515 69.9034 86.0709 69.6136C85.6902 69.3182 85.2555 69.0937 84.7669 68.9403C84.2839 68.7869 83.7527 68.7102 83.1731 68.7102C82.1902 68.7102 81.3038 68.9631 80.514 69.4688C79.7243 69.9744 79.0993 70.7159 78.639 71.6932C78.1845 72.6648 77.9572 73.8551 77.9572 75.2642C77.9572 76.679 78.1873 77.875 78.6476 78.8523C79.1078 79.8295 79.7385 80.571 80.5396 81.0767C81.3407 81.5824 82.2527 81.8352 83.2754 81.8352C84.2243 81.8352 85.051 81.642 85.7555 81.2557C86.4657 80.8693 87.014 80.3239 87.4004 79.6193C87.7924 78.9091 87.9885 78.0739 87.9885 77.1136L88.6703 77.2415H83.676V75.0682H90.5368V77.054C90.5368 78.5199 90.2243 79.7926 89.5993 80.8722C88.9799 81.946 88.122 82.7756 87.0254 83.3608C85.9345 83.946 84.6845 84.2386 83.2754 84.2386C81.6959 84.2386 80.3095 83.875 79.1163 83.1477C77.9288 82.4205 77.0027 81.3892 76.3379 80.054C75.6731 78.7131 75.3407 77.1222 75.3407 75.2812C75.3407 73.8892 75.5339 72.6392 75.9203 71.5312C76.3066 70.4233 76.8493 69.483 77.5481 68.7102C78.2527 67.9318 79.0794 67.3381 80.0282 66.929C80.9828 66.5142 82.0254 66.3068 83.1561 66.3068C84.0993 66.3068 84.9771 66.446 85.7896 66.7244C86.6078 67.0028 87.3351 67.3977 87.9714 67.9091C88.6135 68.4205 89.1447 69.0284 89.5652 69.733C89.9856 70.4318 90.2697 71.2074 90.4174 72.0597H87.7157ZM94.1198 84V66.5455H100.341C101.694 66.5455 102.816 66.7784 103.708 67.2443C104.606 67.7102 105.276 68.3551 105.719 69.179C106.162 69.9972 106.384 70.9432 106.384 72.017C106.384 73.0852 106.16 74.0256 105.711 74.8381C105.268 75.6449 104.597 76.2727 103.699 76.7216C102.807 77.1705 101.685 77.3949 100.333 77.3949H95.6198V75.1278H100.094C100.947 75.1278 101.64 75.0057 102.174 74.7614C102.714 74.517 103.108 74.1619 103.358 73.696C103.608 73.2301 103.733 72.6705 103.733 72.017C103.733 71.358 103.606 70.7869 103.35 70.304C103.1 69.821 102.705 69.4517 102.165 69.196C101.631 68.9347 100.929 68.804 100.06 68.804H96.7533V84H94.1198ZM102.736 76.125L107.049 84H104.049L99.8215 76.125H102.736ZM111.303 84H108.508L114.789 66.5455H117.831L124.113 84H121.317L116.383 69.7159H116.246L111.303 84ZM111.772 77.1648H120.84V79.3807H111.772V77.1648ZM126.873 66.5455H130.069L135.626 80.1136H135.831L141.387 66.5455H144.583V84H142.078V71.3693H141.916L136.768 83.9744H134.689L129.541 71.3608H129.379V84H126.873V66.5455Z" fill="#241F20"/>
<g filter="url(#filter0_d_3079_14904)">
<rect x="24" y="108" width="229.378" height="46.8" rx="9.24444" fill="white" shape-rendering="crispEdges"/>
<g clip-path="url(#clip1_3079_14904)">
<g clip-path="url(#clip2_3079_14904)">
<path d="M45.8245 130.516C45.8245 130.856 45.8613 131.133 45.9258 131.335C45.9995 131.538 46.0916 131.759 46.2205 131.999C46.2666 132.072 46.285 132.146 46.285 132.21C46.285 132.303 46.2298 132.395 46.11 132.487L45.5298 132.874C45.4469 132.929 45.364 132.956 45.2903 132.956C45.1982 132.956 45.1061 132.91 45.014 132.828C44.885 132.689 44.7745 132.542 44.6824 132.395C44.5903 132.238 44.4982 132.063 44.3969 131.851C43.6784 132.699 42.7758 133.122 41.689 133.122C40.9153 133.122 40.2982 132.901 39.8469 132.459C39.3955 132.017 39.1653 131.428 39.1653 130.691C39.1653 129.908 39.4416 129.272 40.0034 128.793C40.5653 128.314 41.3113 128.075 42.26 128.075C42.5732 128.075 42.8955 128.103 43.2363 128.149C43.5771 128.195 43.9271 128.268 44.2955 128.351V127.679C44.2955 126.979 44.1482 126.491 43.8627 126.205C43.5679 125.92 43.0705 125.781 42.3613 125.781C42.039 125.781 41.7074 125.818 41.3666 125.901C41.0258 125.984 40.6942 126.085 40.3719 126.214C40.2245 126.279 40.114 126.316 40.0495 126.334C39.985 126.353 39.939 126.362 39.9021 126.362C39.7732 126.362 39.7087 126.27 39.7087 126.076V125.625C39.7087 125.478 39.7271 125.367 39.7732 125.303C39.8192 125.238 39.9021 125.174 40.0311 125.109C40.3534 124.943 40.7403 124.805 41.1916 124.695C41.6429 124.575 42.1219 124.52 42.6284 124.52C43.7245 124.52 44.5258 124.768 45.0416 125.266C45.5482 125.763 45.8061 126.518 45.8061 127.531V130.516H45.8245ZM42.085 131.916C42.389 131.916 42.7021 131.86 43.0337 131.75C43.3653 131.639 43.66 131.437 43.9087 131.16C44.0561 130.985 44.1666 130.792 44.2219 130.571C44.2771 130.35 44.314 130.083 44.314 129.77V129.383C44.0469 129.318 43.7613 129.263 43.4666 129.226C43.1719 129.189 42.8863 129.171 42.6008 129.171C41.9837 129.171 41.5324 129.291 41.2284 129.539C40.9245 129.788 40.7771 130.138 40.7771 130.599C40.7771 131.031 40.8877 131.354 41.1179 131.575C41.339 131.805 41.6613 131.916 42.085 131.916ZM49.4811 132.91C49.3153 132.91 49.2048 132.883 49.1311 132.818C49.0574 132.763 48.9929 132.634 48.9376 132.459L46.7732 125.339C46.7179 125.155 46.6903 125.035 46.6903 124.971C46.6903 124.824 46.764 124.741 46.9113 124.741H47.814C47.989 124.741 48.1087 124.768 48.1732 124.833C48.2469 124.888 48.3021 125.017 48.3574 125.192L49.9048 131.289L51.3416 125.192C51.3876 125.008 51.4429 124.888 51.5166 124.833C51.5903 124.778 51.7192 124.741 51.885 124.741H52.6219C52.7969 124.741 52.9166 124.768 52.9903 124.833C53.064 124.888 53.1284 125.017 53.1653 125.192L54.6205 131.363L56.214 125.192C56.2692 125.008 56.3337 124.888 56.3982 124.833C56.4719 124.778 56.5916 124.741 56.7574 124.741H57.614C57.7613 124.741 57.8442 124.814 57.8442 124.971C57.8442 125.017 57.835 125.063 57.8258 125.118C57.8166 125.174 57.7982 125.247 57.7613 125.349L55.5416 132.468C55.4863 132.653 55.4219 132.772 55.3482 132.828C55.2745 132.883 55.1548 132.92 54.9982 132.92H54.2061C54.0311 132.92 53.9113 132.892 53.8376 132.828C53.764 132.763 53.6995 132.643 53.6626 132.459L52.235 126.518L50.8166 132.45C50.7705 132.634 50.7153 132.754 50.6416 132.818C50.5679 132.883 50.439 132.91 50.2732 132.91H49.4811ZM61.3166 133.159C60.8376 133.159 60.3587 133.104 59.8982 132.993C59.4376 132.883 59.0784 132.763 58.839 132.625C58.6916 132.542 58.5903 132.45 58.5534 132.367C58.5166 132.284 58.4982 132.192 58.4982 132.109V131.639C58.4982 131.446 58.5719 131.354 58.71 131.354C58.7653 131.354 58.8205 131.363 58.8758 131.381C58.9311 131.4 59.014 131.437 59.1061 131.474C59.4192 131.612 59.76 131.722 60.1192 131.796C60.4876 131.87 60.8469 131.906 61.2153 131.906C61.7955 131.906 62.2469 131.805 62.56 131.603C62.8732 131.4 63.039 131.105 63.039 130.728C63.039 130.47 62.9561 130.258 62.7903 130.083C62.6245 129.908 62.3113 129.751 61.86 129.604L60.5245 129.189C59.8521 128.978 59.3548 128.664 59.0508 128.25C58.7469 127.845 58.5903 127.393 58.5903 126.914C58.5903 126.528 58.6732 126.187 58.839 125.892C59.0048 125.597 59.2258 125.339 59.5021 125.137C59.7784 124.925 60.0916 124.768 60.46 124.658C60.8284 124.547 61.2153 124.501 61.6205 124.501C61.8232 124.501 62.035 124.51 62.2376 124.538C62.4495 124.566 62.6429 124.603 62.8363 124.639C63.0205 124.685 63.1955 124.731 63.3613 124.787C63.5271 124.842 63.6561 124.897 63.7482 124.953C63.8771 125.026 63.9692 125.1 64.0245 125.183C64.0798 125.256 64.1074 125.358 64.1074 125.487V125.92C64.1074 126.113 64.0337 126.214 63.8955 126.214C63.8219 126.214 63.7021 126.178 63.5455 126.104C63.0205 125.864 62.4311 125.745 61.7771 125.745C61.2521 125.745 60.8376 125.828 60.5521 126.003C60.2666 126.178 60.1192 126.445 60.1192 126.822C60.1192 127.08 60.2113 127.301 60.3955 127.476C60.5798 127.651 60.9205 127.826 61.4087 127.983L62.7166 128.397C63.3798 128.609 63.8587 128.904 64.1442 129.281C64.4298 129.659 64.5679 130.092 64.5679 130.571C64.5679 130.967 64.485 131.326 64.3284 131.639C64.1626 131.953 63.9416 132.229 63.6561 132.45C63.3705 132.68 63.0298 132.846 62.6337 132.966C62.2192 133.095 61.7863 133.159 61.3166 133.159Z" fill="#231F20"/>
<path fill-rule="evenodd" clip-rule="evenodd" d="M63.0574 137.635C60.0272 139.874 55.6245 141.062 51.839 141.062C46.5337 141.062 41.7535 139.1 38.1429 135.839C37.8574 135.581 38.1153 135.231 38.4561 135.434C42.3614 137.7 47.1785 139.072 52.1614 139.072C55.5232 139.072 59.2166 138.372 62.6153 136.935C63.1219 136.705 63.5548 137.267 63.0574 137.635Z" fill="#FF9900"/>
<path fill-rule="evenodd" clip-rule="evenodd" d="M64.3192 136.199C63.9323 135.701 61.7586 135.959 60.7731 136.079C60.4784 136.116 60.4323 135.858 60.6994 135.664C62.431 134.449 65.2771 134.799 65.6086 135.204C65.9402 135.618 65.5165 138.464 63.8955 139.827C63.6468 140.039 63.4073 139.929 63.5178 139.652C63.8863 138.741 64.706 136.687 64.3192 136.199Z" fill="#FF9900"/>
</g>
</g>
<path d="M98.613 139.778L97.6445 138.809L105.075 131.379L97.6445 123.991L98.613 123.022L106.044 130.452L113.432 123.022L114.4 123.991L106.97 131.379L114.4 138.809L113.432 139.778L106.044 132.348L98.613 139.778Z" fill="#231F20" fill-opacity="0.25"/>
<path d="M162.939 134.252C161.016 133.479 159.143 132.592 157.31 131.63C157.169 131.555 157.029 131.479 156.888 131.402C158.845 130.332 160.87 129.388 162.939 128.548C163.857 128.204 164.186 126.996 163.558 126.237C163.045 125.597 162.111 125.492 161.471 126.005C159.839 127.283 158.135 128.462 156.385 129.568C156.25 129.653 156.114 129.736 155.978 129.819C156.03 127.589 156.225 125.363 156.53 123.152C156.692 122.185 155.81 121.296 154.839 121.461C154.056 121.58 153.509 122.289 153.583 123.068C154.137 125.527 154.456 128.063 154.507 130.655C154.509 130.762 154.511 130.868 154.512 130.974C154.514 131.095 154.515 131.215 154.515 131.336C154.515 131.357 154.515 131.379 154.515 131.4C154.515 131.42 154.515 131.439 154.515 131.459C154.515 131.46 154.515 131.462 154.515 131.463C154.515 131.592 154.514 131.722 154.512 131.851C154.512 131.87 154.512 131.889 154.512 131.907C154.512 131.955 154.51 132.002 154.51 132.049C154.464 134.675 154.145 137.243 153.584 139.732C153.51 140.51 154.057 141.22 154.839 141.339C155.811 141.503 156.692 140.615 156.531 139.648C156.225 137.438 156.031 135.214 155.978 132.985C157.882 134.145 159.711 135.426 161.471 136.795C162.228 137.419 163.438 137.099 163.782 136.176C164.08 135.412 163.704 134.55 162.939 134.252L162.939 134.252Z" fill="#F26A1B"/>
<path d="M150.292 132.893C150.037 133.012 149.78 133.13 149.523 133.245C148.748 133.593 147.973 133.938 147.184 134.252C146.27 134.597 145.942 135.8 146.566 136.558C147.077 137.2 148.011 137.306 148.653 136.795C148.875 136.618 149.1 136.446 149.327 136.275C149.554 136.106 149.78 135.936 150.008 135.771C150.464 135.437 150.921 135.105 151.384 134.782C152.457 133.993 151.524 132.356 150.292 132.891V132.893Z" fill="#F26A1B"/>
<path d="M151.384 128.016C151.152 127.855 150.922 127.691 150.693 127.526C150.005 127.029 149.319 126.531 148.652 126.004C147.896 125.384 146.69 125.703 146.346 126.622C146.045 127.385 146.421 128.247 147.184 128.548C147.448 128.652 147.709 128.762 147.97 128.872C148.23 128.983 148.49 129.095 148.748 129.21C149.264 129.438 149.78 129.668 150.291 129.908C151.512 130.442 152.463 128.816 151.384 128.017V128.016Z" fill="#F26A1B"/>
<path d="M177.826 137.817C177.826 137.873 177.814 137.923 177.79 137.967C177.766 138.013 177.719 138.049 177.65 138.076C177.581 138.104 177.487 138.127 177.37 138.144C177.252 138.161 177.1 138.17 176.913 138.17C176.671 138.17 176.474 138.159 176.322 138.139C176.17 138.118 176.056 138.08 175.98 138.025C175.904 137.97 175.842 137.907 175.793 137.838L170.858 131.13V137.838C170.858 137.886 170.844 137.933 170.816 137.978C170.789 138.023 170.74 138.057 170.671 138.081C170.602 138.105 170.511 138.126 170.397 138.144C170.283 138.161 170.139 138.17 169.966 138.17C169.794 138.17 169.658 138.161 169.541 138.144C169.423 138.126 169.33 138.105 169.261 138.081C169.191 138.057 169.143 138.023 169.115 137.978C169.088 137.933 169.074 137.887 169.074 137.838V124.961C169.074 124.906 169.087 124.858 169.115 124.816C169.143 124.774 169.191 124.742 169.261 124.718C169.33 124.694 169.423 124.673 169.541 124.656C169.658 124.639 169.8 124.629 169.966 124.629C170.133 124.629 170.283 124.638 170.397 124.656C170.511 124.673 170.602 124.694 170.671 124.718C170.741 124.742 170.789 124.775 170.816 124.816C170.844 124.858 170.858 124.906 170.858 124.961V130.923L175.607 124.961C175.648 124.899 175.696 124.847 175.752 124.806C175.807 124.764 175.874 124.731 175.954 124.707C176.033 124.683 176.13 124.664 176.244 124.65C176.358 124.636 176.505 124.629 176.685 124.629C176.865 124.629 177.01 124.638 177.12 124.656C177.231 124.673 177.319 124.695 177.385 124.723C177.451 124.75 177.496 124.785 177.52 124.826C177.544 124.868 177.556 124.913 177.556 124.961C177.556 125.051 177.533 125.14 177.489 125.23C177.443 125.32 177.359 125.445 177.234 125.603L172.787 130.922L177.577 137.288C177.694 137.468 177.765 137.59 177.789 137.656C177.813 137.722 177.825 137.775 177.825 137.817L177.826 137.817Z" fill="#241F20"/>
<path d="M190.366 137.476C190.421 137.628 190.451 137.75 190.454 137.844C190.458 137.937 190.432 138.008 190.376 138.056C190.321 138.104 190.229 138.135 190.102 138.149C189.974 138.163 189.802 138.17 189.589 138.17C189.375 138.17 189.203 138.165 189.076 138.154C188.947 138.144 188.851 138.127 188.785 138.103C188.72 138.079 188.671 138.045 188.64 138.004C188.609 137.963 188.579 137.911 188.552 137.849L187.401 134.583H181.823L180.724 137.808C180.703 137.87 180.676 137.924 180.641 137.968C180.606 138.013 180.556 138.051 180.491 138.082C180.425 138.113 180.332 138.135 180.211 138.149C180.09 138.163 179.933 138.17 179.739 138.17C179.545 138.17 179.374 138.161 179.246 138.144C179.118 138.126 179.028 138.093 178.976 138.045C178.925 137.997 178.9 137.926 178.903 137.833C178.907 137.74 178.936 137.617 178.992 137.465L183.491 125.003C183.519 124.927 183.555 124.865 183.6 124.816C183.645 124.768 183.711 124.73 183.797 124.702C183.883 124.675 183.994 124.656 184.129 124.645C184.264 124.634 184.435 124.629 184.642 124.629C184.863 124.629 185.046 124.634 185.191 124.645C185.336 124.656 185.454 124.675 185.544 124.702C185.634 124.73 185.703 124.77 185.751 124.821C185.799 124.873 185.838 124.937 185.865 125.013L190.364 137.475L190.366 137.476ZM184.591 126.475H184.58L182.268 133.162H186.934L184.59 126.475H184.591Z" fill="#241F20"/>
<path d="M196.477 137.797C196.45 137.873 196.412 137.935 196.364 137.984C196.315 138.032 196.247 138.07 196.161 138.098C196.075 138.125 195.964 138.144 195.829 138.155C195.694 138.165 195.527 138.17 195.327 138.17C195.174 138.17 195.041 138.168 194.927 138.165C194.813 138.162 194.715 138.153 194.632 138.139C194.549 138.125 194.479 138.11 194.42 138.093C194.361 138.076 194.311 138.053 194.27 138.025C194.228 137.998 194.196 137.965 194.172 137.927C194.147 137.889 194.125 137.843 194.104 137.787L189.719 125.325C189.664 125.173 189.634 125.05 189.63 124.957C189.627 124.863 189.657 124.793 189.719 124.745C189.781 124.696 189.881 124.665 190.02 124.651C190.158 124.638 190.345 124.631 190.58 124.631C190.773 124.631 190.927 124.636 191.041 124.646C191.155 124.657 191.243 124.676 191.306 124.704C191.368 124.731 191.415 124.767 191.446 124.813C191.477 124.858 191.506 124.914 191.534 124.984L195.381 136.274H195.392L199.134 125.004C199.155 124.929 199.179 124.866 199.207 124.817C199.235 124.769 199.283 124.731 199.352 124.704C199.421 124.676 199.518 124.657 199.643 124.646C199.767 124.636 199.933 124.631 200.14 124.631C200.348 124.631 200.524 124.639 200.648 124.657C200.773 124.674 200.857 124.707 200.902 124.755C200.947 124.803 200.965 124.874 200.954 124.968C200.944 125.061 200.911 125.183 200.856 125.336L196.48 137.797L196.477 137.797Z" fill="#241F20"/>
<path d="M204.673 137.839C204.673 137.894 204.659 137.942 204.632 137.984C204.604 138.026 204.555 138.058 204.487 138.082C204.417 138.106 204.326 138.127 204.212 138.144C204.098 138.161 203.954 138.171 203.782 138.171C203.609 138.171 203.474 138.162 203.356 138.144C203.239 138.127 203.145 138.106 203.076 138.082C203.007 138.058 202.959 138.025 202.931 137.984C202.903 137.942 202.889 137.894 202.889 137.839V124.961C202.889 124.906 202.905 124.858 202.936 124.816C202.967 124.774 203.019 124.742 203.092 124.718C203.164 124.694 203.257 124.673 203.372 124.656C203.486 124.639 203.622 124.629 203.782 124.629C203.954 124.629 204.098 124.638 204.212 124.656C204.326 124.673 204.417 124.694 204.487 124.718C204.555 124.742 204.604 124.775 204.632 124.816C204.659 124.858 204.673 124.906 204.673 124.961V137.838V137.839Z" fill="#241F20"/>
<path d="M218.074 137.476C218.129 137.628 218.158 137.75 218.162 137.844C218.166 137.937 218.14 138.008 218.084 138.056C218.029 138.104 217.937 138.135 217.81 138.149C217.682 138.163 217.51 138.17 217.297 138.17C217.083 138.17 216.911 138.165 216.784 138.154C216.655 138.144 216.559 138.127 216.493 138.103C216.428 138.079 216.379 138.045 216.348 138.004C216.317 137.963 216.287 137.911 216.26 137.849L215.109 134.583H209.531L208.432 137.808C208.411 137.87 208.384 137.924 208.349 137.968C208.314 138.013 208.264 138.051 208.199 138.082C208.133 138.113 208.04 138.135 207.919 138.149C207.798 138.163 207.641 138.17 207.447 138.17C207.253 138.17 207.082 138.161 206.954 138.144C206.826 138.126 206.736 138.093 206.684 138.045C206.633 137.997 206.608 137.926 206.611 137.833C206.615 137.74 206.644 137.617 206.7 137.465L211.199 125.003C211.227 124.927 211.263 124.865 211.308 124.816C211.353 124.768 211.419 124.73 211.505 124.702C211.591 124.675 211.702 124.656 211.837 124.645C211.972 124.634 212.143 124.629 212.35 124.629C212.571 124.629 212.754 124.634 212.899 124.645C213.044 124.656 213.162 124.675 213.252 124.702C213.342 124.73 213.411 124.77 213.459 124.821C213.507 124.873 213.546 124.937 213.573 125.013L218.072 137.475L218.074 137.476ZM212.299 126.475H212.289L209.976 133.162H214.642L212.298 126.475H212.299Z" fill="#241F20"/>
<path d="M235.585 137.476C235.64 137.628 235.669 137.75 235.673 137.844C235.677 137.937 235.651 138.008 235.595 138.056C235.54 138.104 235.448 138.135 235.321 138.149C235.193 138.163 235.021 138.17 234.808 138.17C234.594 138.17 234.422 138.165 234.295 138.154C234.166 138.144 234.07 138.127 234.004 138.103C233.939 138.079 233.89 138.045 233.859 138.004C233.828 137.963 233.798 137.911 233.771 137.849L232.62 134.583H227.042L225.943 137.808C225.922 137.87 225.895 137.924 225.86 137.968C225.825 138.013 225.775 138.051 225.71 138.082C225.644 138.113 225.551 138.135 225.43 138.149C225.309 138.163 225.152 138.17 224.958 138.17C224.764 138.17 224.593 138.161 224.465 138.144C224.337 138.126 224.247 138.093 224.195 138.045C224.144 137.997 224.119 137.926 224.122 137.833C224.126 137.74 224.155 137.617 224.211 137.465L228.71 125.003C228.738 124.927 228.774 124.865 228.819 124.816C228.864 124.768 228.93 124.73 229.016 124.702C229.102 124.675 229.213 124.656 229.348 124.645C229.483 124.634 229.654 124.629 229.861 124.629C230.082 124.629 230.265 124.634 230.41 124.645C230.555 124.656 230.673 124.675 230.763 124.702C230.853 124.73 230.922 124.77 230.97 124.821C231.018 124.873 231.057 124.937 231.084 125.013L235.583 137.475L235.585 137.476ZM229.81 126.475H229.799L227.487 133.162H232.153L229.809 126.475H229.81Z" fill="#241F20"/>
<path d="M239.396 137.839C239.396 137.894 239.382 137.942 239.354 137.984C239.327 138.026 239.278 138.058 239.209 138.082C239.14 138.106 239.048 138.127 238.934 138.144C238.82 138.161 238.677 138.171 238.504 138.171C238.331 138.171 238.196 138.162 238.079 138.144C237.961 138.127 237.868 138.106 237.798 138.082C237.729 138.058 237.681 138.025 237.653 137.984C237.626 137.942 237.612 137.894 237.612 137.839V124.961C237.612 124.906 237.627 124.858 237.658 124.816C237.689 124.774 237.741 124.742 237.814 124.718C237.887 124.694 237.98 124.673 238.094 124.656C238.208 124.639 238.345 124.629 238.504 124.629C238.677 124.629 238.82 124.638 238.934 124.656C239.048 124.673 239.14 124.694 239.209 124.718C239.278 124.742 239.327 124.775 239.354 124.816C239.382 124.858 239.396 124.906 239.396 124.961V137.838V137.839Z" fill="#241F20"/>
</g>
</g>
<defs>
<filter id="filter0_d_3079_14904" x="24" y="108" width="229.378" height="49.8" filterUnits="userSpaceOnUse" color-interpolation-filters="sRGB">
<feFlood flood-opacity="0" result="BackgroundImageFix"/>
<feColorMatrix in="SourceAlpha" type="matrix" values="0 0 0 0 0 0 0 0 0 0 0 0 0 0 0 0 0 0 127 0" result="hardAlpha"/>
<feOffset dy="3"/>
<feComposite in2="hardAlpha" operator="out"/>
<feColorMatrix type="matrix" values="0 0 0 0 0 0 0 0 0 0 0 0 0 0 0 0 0 0 0.07 0"/>
<feBlend mode="normal" in2="BackgroundImageFix" result="effect1_dropShadow_3079_14904"/>
<feBlend mode="normal" in="SourceGraphic" in2="effect1_dropShadow_3079_14904" result="shape"/>
</filter>
<linearGradient id="paint0_linear_3079_14904" x1="201" y1="0" x2="201" y2="352" gradientUnits="userSpaceOnUse">
<stop stop-color="#FDF7F2"/>
<stop offset="1" stop-color="#FDF7F2"/>
</linearGradient>
<linearGradient id="paint1_linear_3079_14904" x1="-62.4608" y1="-48.7463" x2="78.0456" y2="335.028" gradientUnits="userSpaceOnUse">
<stop stop-color="#B54909"/>
<stop offset="0.32" stop-color="#F7B690"/>
<stop offset="1" stop-color="#B54909"/>
</linearGradient>
<linearGradient id="paint2_linear_3079_14904" x1="-83.8109" y1="-40.9292" x2="56.6955" y2="342.845" gradientUnits="userSpaceOnUse">
<stop stop-color="#B54909"/>
<stop offset="0.32" stop-color="#F7B690"/>
<stop offset="1" stop-color="#B54909"/>
</linearGradient>
<linearGradient id="paint3_linear_3079_14904" x1="-103.595" y1="-33.687" x2="36.9118" y2="350.088" gradientUnits="userSpaceOnUse">
<stop stop-color="#B54909"/>
<stop offset="0.32" stop-color="#F7B690"/>
<stop offset="1" stop-color="#B54909"/>
</linearGradient>
<linearGradient id="paint4_linear_3079_14904" x1="-123.393" y1="-26.4382" x2="17.1129" y2="357.336" gradientUnits="userSpaceOnUse">
<stop stop-color="#B54909"/>
<stop offset="0.32" stop-color="#F7B690"/>
<stop offset="1" stop-color="#B54909"/>
</linearGradient>
<linearGradient id="paint5_linear_3079_14904" x1="-143.171" y1="-19.1965" x2="-2.66441" y2="364.578" gradientUnits="userSpaceOnUse">
<stop stop-color="#B54909"/>
<stop offset="0.32" stop-color="#F7B690"/>
<stop offset="1" stop-color="#B54909"/>
</linearGradient>
<linearGradient id="paint6_linear_3079_14904" x1="-162.963" y1="-11.9509" x2="-22.4569" y2="371.824" gradientUnits="userSpaceOnUse">
<stop stop-color="#B54909"/>
<stop offset="0.32" stop-color="#F7B690"/>
<stop offset="1" stop-color="#B54909"/>
</linearGradient>
<linearGradient id="paint7_linear_3079_14904" x1="-182.753" y1="-4.7058" x2="-42.2464" y2="379.069" gradientUnits="userSpaceOnUse">
<stop stop-color="#B54909"/>
<stop offset="0.32" stop-color="#F7B690"/>
<stop offset="1" stop-color="#B54909"/>
</linearGradient>
<linearGradient id="paint8_linear_3079_14904" x1="-202.532" y1="2.53541" x2="-62.0252" y2="386.31" gradientUnits="userSpaceOnUse">
<stop stop-color="#B54909"/>
<stop offset="0.32" stop-color="#F7B690"/>
<stop offset="1" stop-color="#B54909"/>
</linearGradient>
<linearGradient id="paint9_linear_3079_14904" x1="-222.332" y1="9.78443" x2="-81.8255" y2="393.559" gradientUnits="userSpaceOnUse">
<stop stop-color="#B54909"/>
<stop offset="0.32" stop-color="#F7B690"/>
<stop offset="1" stop-color="#B54909"/>
</linearGradient>
<linearGradient id="paint10_linear_3079_14904" x1="-242.113" y1="17.0278" x2="-101.606" y2="400.802" gradientUnits="userSpaceOnUse">
<stop stop-color="#B54909"/>
<stop offset="0.32" stop-color="#F7B690"/>
<stop offset="1" stop-color="#B54909"/>
</linearGradient>
<clipPath id="clip0_3079_14904">
<path d="M0 16C0 7.16345 7.16344 0 16 0H386C394.837 0 402 7.16344 402 16V352H0V16Z" fill="white"/>
</clipPath>
<clipPath id="clip1_3079_14904">
<rect width="28" height="28" fill="white" transform="translate(37.8667 117.4)"/>
</clipPath>
<clipPath id="clip2_3079_14904">
<rect width="28" height="16.7632" fill="white" transform="translate(37.8667 124.4)"/>
</clipPath>
</defs>
</svg>
