<svg width="402" height="352" viewBox="0 0 402 352" fill="none" xmlns="http://www.w3.org/2000/svg">
<path d="M0 16C0 7.16345 7.16344 0 16 0H386C394.837 0 402 7.16344 402 16V352H0V16Z" fill="url(#paint0_radial_3079_14769)"/>
<line x1="237.321" y1="84.322" x2="274.664" y2="21.7186" stroke="url(#paint1_linear_3079_14769)" stroke-width="1.09831"/>
<line x1="306.598" y1="78.7235" x2="315.384" y2="69.9371" stroke="url(#paint2_linear_3079_14769)" stroke-width="1.09831"/>
<line x1="186.755" y1="59.1546" x2="191.148" y2="47.0733" stroke="url(#paint3_linear_3079_14769)" stroke-width="1.09831"/>
<line x1="136.281" y1="70.6132" x2="109.922" y2="27.7794" stroke="url(#paint4_linear_3079_14769)" stroke-width="1.09831"/>
<line x1="110.131" y1="122.43" x2="93.6566" y2="113.644" stroke="url(#paint5_linear_3079_14769)" stroke-width="1.09831"/>
<line x1="81.7642" y1="165.324" x2="38.9303" y2="159.833" stroke="url(#paint6_linear_3079_14769)" stroke-width="1.09831"/>
<line x1="82.0471" y1="216.906" x2="61.1793" y2="225.692" stroke="url(#paint7_linear_3079_14769)" stroke-width="1.09831"/>
<line x1="94.1445" y1="259.733" x2="39.2293" y2="284.994" stroke="url(#paint8_linear_3079_14769)" stroke-width="1.09831"/>
<line x1="159.254" y1="294.487" x2="154.861" y2="316.453" stroke="url(#paint9_linear_3079_14769)" stroke-width="1.09831"/>
<line x1="222.941" y1="294.216" x2="233.924" y2="329.362" stroke="url(#paint10_linear_3079_14769)" stroke-width="1.09831"/>
<line x1="275.563" y1="284.15" x2="307.414" y2="323.689" stroke="url(#paint11_linear_3079_14769)" stroke-width="1.09831"/>
<line x1="307.101" y1="224.65" x2="337.854" y2="231.239" stroke="url(#paint12_linear_3079_14769)" stroke-width="1.09831"/>
<line x1="311.322" y1="177.413" x2="332.19" y2="175.216" stroke="url(#paint13_linear_3079_14769)" stroke-width="1.09831"/>
<line x1="311.156" y1="126.936" x2="362.776" y2="103.871" stroke="url(#paint14_linear_3079_14769)" stroke-width="1.09831"/>
<g filter="url(#filter0_d_3079_14769)">
<path d="M156.519 85.3809C156.519 77.6732 163.681 71.9641 171.195 73.6831L296.015 102.24C301.471 103.488 305.339 108.341 305.339 113.938V143.134C305.339 150.842 298.176 156.551 290.663 154.832L165.842 126.275C160.387 125.027 156.519 120.174 156.519 114.578V85.3809Z" fill="#F26A1B"/>
</g>
<path d="M226.076 109.66C226.04 109.221 225.946 108.814 225.794 108.44C225.649 108.062 225.447 107.721 225.189 107.42C224.936 107.119 224.624 106.866 224.254 106.662C223.884 106.453 223.466 106.297 222.999 106.194C222.161 106.009 221.368 106.055 220.62 106.332C219.872 106.609 219.22 107.114 218.664 107.849C218.114 108.58 217.71 109.529 217.452 110.697C217.192 111.875 217.157 112.914 217.348 113.814C217.538 114.713 217.916 115.449 218.482 116.021C219.05 116.588 219.77 116.968 220.643 117.161C221.436 117.335 222.155 117.334 222.801 117.157C223.452 116.981 223.997 116.649 224.435 116.16C224.874 115.666 225.177 115.04 225.344 114.284L225.962 114.524L221.727 113.589L222.214 111.38L228.544 112.777L228.131 114.651C227.836 115.986 227.297 117.079 226.513 117.928C225.729 118.778 224.781 119.357 223.669 119.665C222.559 119.969 221.358 119.978 220.069 119.694C218.631 119.377 217.441 118.776 216.496 117.891C215.558 117.003 214.916 115.894 214.57 114.567C214.23 113.235 214.241 111.746 214.604 110.101C214.882 108.842 215.308 107.756 215.882 106.844C216.461 105.933 217.149 105.204 217.946 104.655C218.745 104.102 219.618 103.741 220.566 103.572C221.515 103.398 222.5 103.423 223.52 103.649C224.384 103.839 225.161 104.144 225.851 104.562C226.543 104.976 227.127 105.477 227.604 106.067C228.086 106.658 228.445 107.312 228.681 108.03C228.916 108.748 229.008 109.503 228.956 110.295L226.076 109.66ZM229.475 121.545L232.917 105.945L243.063 108.184L242.541 110.553L235.22 108.938L234.286 113.173L241.081 114.672L240.558 117.041L233.763 115.542L232.824 119.8L240.205 121.428L239.683 123.797L229.475 121.545ZM244.738 111.037L245.261 108.668L257.707 111.414L257.185 113.783L252.363 112.72L249.444 125.951L246.641 125.332L249.56 112.101L244.738 111.037Z" fill="white"/>
<g filter="url(#filter1_d_3079_14769)">
<path d="M156.519 210.588C156.519 202.88 163.681 197.171 171.195 198.89L296.015 227.447C301.471 228.695 305.339 233.548 305.339 239.144V268.341C305.339 276.049 298.176 281.758 290.663 280.039L165.842 251.482C160.387 250.234 156.519 245.381 156.519 239.785V210.588Z" fill="#F26A1B"/>
</g>
<path d="M220.569 227.377L217.128 242.977L214.614 242.422L209.608 230.175L209.478 230.146L207.134 240.772L204.308 240.149L207.749 224.549L210.278 225.106L215.276 237.36L215.413 237.39L217.759 226.757L220.569 227.377ZM225.138 244.984C223.996 244.732 223.061 244.262 222.334 243.574C221.607 242.887 221.112 242.04 220.849 241.034C220.592 240.029 220.596 238.923 220.863 237.714C221.13 236.506 221.592 235.497 222.249 234.689C222.912 233.882 223.718 233.319 224.666 233.002C225.615 232.684 226.661 232.651 227.804 232.903C228.946 233.155 229.881 233.625 230.608 234.312C231.335 235 231.827 235.849 232.083 236.858C232.345 237.869 232.342 238.979 232.076 240.188C231.809 241.396 231.345 242.402 230.683 243.204C230.027 244.007 229.224 244.567 228.275 244.885C227.327 245.203 226.281 245.236 225.138 244.984ZM225.641 242.778C226.26 242.915 226.816 242.859 227.307 242.611C227.8 242.357 228.212 241.963 228.543 241.429C228.879 240.896 229.125 240.274 229.282 239.563C229.44 238.847 229.478 238.177 229.398 237.552C229.324 236.923 229.116 236.39 228.776 235.953C228.436 235.516 227.956 235.229 227.337 235.092C226.702 234.952 226.136 235.008 225.638 235.261C225.145 235.514 224.73 235.91 224.393 236.448C224.063 236.982 223.818 237.607 223.66 238.323C223.503 239.034 223.463 239.702 223.538 240.325C223.619 240.95 223.829 241.481 224.169 241.918C224.516 242.352 225.006 242.638 225.641 242.778ZM235.215 246.967L234.49 234.538L237.301 235.158L237.543 243.838L237.65 243.862L241.567 236.099L244.347 236.712L244.645 245.357L244.759 245.382L248.59 237.648L251.408 238.27L245.514 249.239L242.642 248.606L242.192 240.215L242.033 240.18L238.094 247.602L235.215 246.967ZM257.569 235.539L254.887 246.498L252.434 245.957L254.621 234.889L257.569 235.539ZM252.612 250.981C252.15 250.879 251.79 250.629 251.531 250.231C251.278 249.835 251.203 249.403 251.306 248.936C251.407 248.478 251.656 248.123 252.052 247.87C252.454 247.618 252.886 247.543 253.348 247.645C253.8 247.744 254.155 247.993 254.414 248.391C254.677 248.79 254.759 249.218 254.658 249.675C254.589 249.985 254.448 250.249 254.235 250.468C254.027 250.689 253.779 250.847 253.491 250.943C253.21 251.036 252.917 251.048 252.612 250.981Z" fill="white"/>
<g filter="url(#filter2_d_3079_14769)">
<path d="M99 171.482C99 165.81 102.97 160.914 108.519 159.741L230.044 134.06C237.505 132.483 244.525 138.175 244.525 145.801V174.061C244.525 179.7 240.599 184.578 235.091 185.784L113.566 212.382C106.082 214.02 99 208.32 99 200.659V171.482Z" fill="url(#paint15_linear_3079_14769)"/>
</g>
<path d="M115.892 192.1L113.503 180.36L121.139 178.806L121.502 180.588L115.993 181.71L116.642 184.897L121.755 183.856L122.118 185.639L117.004 186.68L117.656 189.885L123.212 188.754L123.574 190.537L115.892 192.1ZM127.206 189.798L124.936 190.26L126.68 177.678L129.306 177.144L135.834 188.042L133.564 188.504L128.529 179.809L128.437 179.828L127.206 189.798ZM126.344 185.179L132.535 183.919L132.883 185.628L126.692 186.888L126.344 185.179ZM137.381 187.728L134.991 175.987L139.394 175.091C140.296 174.907 141.085 174.91 141.76 175.099C142.439 175.287 142.993 175.632 143.421 176.134C143.853 176.631 144.145 177.254 144.297 178.003C144.451 178.756 144.423 179.443 144.215 180.062C144.01 180.677 143.628 181.198 143.07 181.626C142.512 182.05 141.782 182.354 140.88 182.538L137.744 183.176L137.385 181.41L140.234 180.83C140.761 180.723 141.178 180.563 141.485 180.349C141.791 180.131 141.996 179.865 142.099 179.549C142.205 179.229 142.215 178.861 142.13 178.444C142.046 178.028 141.891 177.689 141.667 177.428C141.442 177.164 141.146 176.989 140.778 176.905C140.41 176.816 139.96 176.826 139.429 176.934L137.48 177.331L139.507 187.295L137.381 187.728ZM142.363 181.173L146.352 185.902L143.979 186.385L140.041 181.646L142.363 181.173ZM147.88 185.591L145.491 173.85L147.618 173.417L149.644 183.375L154.815 182.323L155.178 184.106L147.88 185.591ZM152.65 172.393L155.052 171.904L158.981 176.514L159.096 176.491L160.911 170.712L163.313 170.223L160.54 178.453L161.431 182.833L159.31 183.265L158.419 178.885L152.65 172.393ZM172.721 180.536L170.45 180.998L172.195 168.416L174.82 167.882L181.349 178.78L179.078 179.242L174.043 170.547L173.952 170.566L172.721 180.536ZM171.858 175.917L178.05 174.657L178.398 176.366L172.206 177.626L171.858 175.917ZM190.81 168.753L188.666 169.189C188.533 168.85 188.357 168.562 188.137 168.324C187.917 168.082 187.665 167.891 187.382 167.749C187.098 167.608 186.79 167.521 186.457 167.49C186.127 167.453 185.783 167.472 185.424 167.545C184.785 167.675 184.252 167.95 183.825 168.372C183.396 168.789 183.105 169.334 182.951 170.006C182.797 170.674 182.809 171.45 182.989 172.333C183.172 173.231 183.465 173.959 183.869 174.518C184.277 175.072 184.757 175.456 185.31 175.67C185.866 175.879 186.461 175.919 187.095 175.79C187.447 175.718 187.766 175.605 188.053 175.451C188.344 175.293 188.592 175.097 188.8 174.864C189.011 174.63 189.173 174.362 189.287 174.06C189.404 173.758 189.461 173.428 189.456 173.071L191.602 172.646C191.635 173.22 191.568 173.779 191.4 174.323C191.236 174.866 190.978 175.368 190.626 175.829C190.273 176.287 189.832 176.68 189.301 177.007C188.77 177.33 188.155 177.562 187.455 177.705C186.423 177.915 185.454 177.863 184.546 177.55C183.639 177.237 182.86 176.677 182.21 175.87C181.56 175.063 181.107 174.029 180.851 172.768C180.593 171.503 180.608 170.373 180.895 169.38C181.182 168.382 181.682 167.562 182.395 166.919C183.108 166.277 183.976 165.851 185.001 165.643C185.654 165.51 186.281 165.478 186.88 165.547C187.479 165.616 188.034 165.784 188.546 166.05C189.057 166.312 189.506 166.67 189.893 167.125C190.283 167.575 190.589 168.117 190.81 168.753ZM202.807 166.312L200.663 166.748C200.53 166.409 200.354 166.12 200.135 165.882C199.914 165.641 199.663 165.449 199.379 165.308C199.096 165.166 198.787 165.08 198.455 165.048C198.125 165.012 197.78 165.03 197.421 165.103C196.783 165.233 196.25 165.509 195.822 165.93C195.394 166.348 195.102 166.893 194.949 167.565C194.794 168.233 194.807 169.008 194.986 169.891C195.169 170.789 195.463 171.518 195.867 172.076C196.274 172.63 196.754 173.014 197.307 173.228C197.863 173.437 198.458 173.477 199.093 173.348C199.444 173.277 199.764 173.164 200.051 173.01C200.341 172.851 200.59 172.656 200.797 172.422C201.008 172.188 201.17 171.92 201.284 171.619C201.402 171.316 201.458 170.986 201.453 170.629L203.599 170.204C203.633 170.779 203.565 171.338 203.397 171.881C203.233 172.424 202.975 172.926 202.623 173.388C202.271 173.846 201.829 174.238 201.299 174.565C200.767 174.888 200.152 175.121 199.453 175.263C198.421 175.473 197.451 175.422 196.544 175.109C195.636 174.796 194.858 174.236 194.208 173.429C193.558 172.622 193.105 171.588 192.848 170.326C192.591 169.061 192.605 167.932 192.893 166.938C193.179 165.941 193.679 165.12 194.392 164.478C195.105 163.835 195.974 163.41 196.998 163.201C197.652 163.068 198.278 163.036 198.877 163.105C199.476 163.175 200.032 163.342 200.544 163.608C201.055 163.87 201.504 164.229 201.891 164.683C202.281 165.133 202.586 165.676 202.807 166.312ZM206.338 173.695L203.949 161.954L211.585 160.4L211.948 162.183L206.439 163.304L207.087 166.491L212.201 165.451L212.564 167.234L207.45 168.274L208.102 171.479L213.657 170.349L214.02 172.132L206.338 173.695ZM220.792 161.888C220.637 161.398 220.332 161.054 219.878 160.856C219.427 160.657 218.887 160.622 218.256 160.75C217.813 160.84 217.446 160.984 217.156 161.183C216.866 161.381 216.661 161.612 216.539 161.875C216.418 162.139 216.385 162.418 216.441 162.713C216.491 162.958 216.589 163.159 216.737 163.316C216.888 163.472 217.074 163.594 217.294 163.68C217.514 163.763 217.751 163.822 218.005 163.858C218.259 163.894 218.513 163.916 218.765 163.924L219.922 163.975C220.386 163.988 220.841 164.041 221.285 164.134C221.734 164.225 222.148 164.372 222.527 164.573C222.91 164.774 223.236 165.044 223.504 165.384C223.772 165.723 223.958 166.147 224.061 166.655C224.201 167.343 224.149 167.985 223.904 168.58C223.658 169.171 223.232 169.682 222.627 170.111C222.025 170.536 221.254 170.845 220.314 171.036C219.4 171.222 218.578 171.242 217.848 171.096C217.122 170.949 216.514 170.643 216.025 170.177C215.54 169.711 215.203 169.091 215.014 168.317L217.107 167.891C217.22 168.294 217.416 168.609 217.693 168.835C217.97 169.061 218.299 169.205 218.682 169.266C219.068 169.327 219.483 169.312 219.927 169.222C220.389 169.128 220.78 168.977 221.1 168.768C221.423 168.555 221.658 168.304 221.807 168.016C221.954 167.723 221.995 167.408 221.931 167.071C221.865 166.766 221.724 166.532 221.507 166.369C221.29 166.202 221.01 166.084 220.665 166.015C220.324 165.941 219.932 165.894 219.49 165.872L218.084 165.8C217.067 165.748 216.226 165.527 215.561 165.137C214.9 164.742 214.483 164.125 214.312 163.284C214.171 162.592 214.235 161.948 214.504 161.352C214.777 160.755 215.209 160.248 215.8 159.829C216.391 159.406 217.097 159.111 217.919 158.944C218.752 158.774 219.511 158.771 220.197 158.934C220.886 159.092 221.462 159.391 221.926 159.83C222.389 160.265 222.693 160.812 222.839 161.471L220.792 161.888ZM231.276 159.754C231.121 159.264 230.816 158.92 230.362 158.722C229.911 158.523 229.371 158.488 228.74 158.616C228.297 158.707 227.93 158.851 227.64 159.049C227.35 159.248 227.145 159.478 227.023 159.742C226.902 160.006 226.869 160.285 226.925 160.58C226.975 160.824 227.073 161.025 227.221 161.182C227.372 161.339 227.558 161.46 227.778 161.547C227.998 161.629 228.235 161.688 228.489 161.724C228.743 161.76 228.996 161.782 229.249 161.791L230.406 161.842C230.87 161.855 231.324 161.907 231.769 162C232.218 162.092 232.632 162.239 233.011 162.44C233.394 162.641 233.72 162.911 233.988 163.25C234.256 163.59 234.442 164.013 234.545 164.522C234.685 165.21 234.633 165.851 234.387 166.446C234.142 167.038 233.716 167.548 233.111 167.978C232.509 168.403 231.738 168.711 230.798 168.902C229.884 169.088 229.062 169.108 228.332 168.962C227.606 168.816 226.998 168.509 226.509 168.044C226.024 167.577 225.687 166.957 225.498 166.184L227.591 165.758C227.704 166.161 227.9 166.475 228.177 166.701C228.453 166.928 228.783 167.071 229.166 167.133C229.552 167.194 229.967 167.179 230.411 167.089C230.873 166.994 231.264 166.843 231.584 166.635C231.907 166.422 232.142 166.171 232.291 165.882C232.438 165.589 232.479 165.275 232.415 164.937C232.349 164.632 232.208 164.398 231.991 164.236C231.774 164.069 231.494 163.951 231.149 163.882C230.808 163.808 230.416 163.76 229.974 163.739L228.568 163.666C227.55 163.615 226.709 163.394 226.045 163.004C225.384 162.609 224.967 161.991 224.796 161.15C224.655 160.459 224.719 159.815 224.988 159.219C225.261 158.622 225.693 158.114 226.284 157.695C226.875 157.273 227.581 156.978 228.403 156.81C229.236 156.641 229.995 156.638 230.681 156.8C231.37 156.959 231.946 157.257 232.41 157.696C232.873 158.132 233.177 158.679 233.323 159.338L231.276 159.754Z" fill="white"/>
<defs>
<filter id="filter0_d_3079_14769" x="156.519" y="73.3757" width="148.82" height="86.1571" filterUnits="userSpaceOnUse" color-interpolation-filters="sRGB">
<feFlood flood-opacity="0" result="BackgroundImageFix"/>
<feColorMatrix in="SourceAlpha" type="matrix" values="0 0 0 0 0 0 0 0 0 0 0 0 0 0 0 0 0 0 127 0" result="hardAlpha"/>
<feOffset dy="4.39322"/>
<feComposite in2="hardAlpha" operator="out"/>
<feColorMatrix type="matrix" values="0 0 0 0 0.384314 0 0 0 0 0.211765 0 0 0 0 0.121569 0 0 0 1 0"/>
<feBlend mode="normal" in2="BackgroundImageFix" result="effect1_dropShadow_3079_14769"/>
<feBlend mode="normal" in="SourceGraphic" in2="effect1_dropShadow_3079_14769" result="shape"/>
</filter>
<filter id="filter1_d_3079_14769" x="156.519" y="198.583" width="148.82" height="86.1571" filterUnits="userSpaceOnUse" color-interpolation-filters="sRGB">
<feFlood flood-opacity="0" result="BackgroundImageFix"/>
<feColorMatrix in="SourceAlpha" type="matrix" values="0 0 0 0 0 0 0 0 0 0 0 0 0 0 0 0 0 0 127 0" result="hardAlpha"/>
<feOffset dy="4.39322"/>
<feComposite in2="hardAlpha" operator="out"/>
<feColorMatrix type="matrix" values="0 0 0 0 0.384314 0 0 0 0 0.211765 0 0 0 0 0.121569 0 0 0 1 0"/>
<feBlend mode="normal" in2="BackgroundImageFix" result="effect1_dropShadow_3079_14769"/>
<feBlend mode="normal" in="SourceGraphic" in2="effect1_dropShadow_3079_14769" result="shape"/>
</filter>
<filter id="filter2_d_3079_14769" x="99" y="133.796" width="145.525" height="82.8674" filterUnits="userSpaceOnUse" color-interpolation-filters="sRGB">
<feFlood flood-opacity="0" result="BackgroundImageFix"/>
<feColorMatrix in="SourceAlpha" type="matrix" values="0 0 0 0 0 0 0 0 0 0 0 0 0 0 0 0 0 0 127 0" result="hardAlpha"/>
<feOffset dy="4"/>
<feComposite in2="hardAlpha" operator="out"/>
<feColorMatrix type="matrix" values="0 0 0 0 0.384314 0 0 0 0 0.211765 0 0 0 0 0.121569 0 0 0 1 0"/>
<feBlend mode="normal" in2="BackgroundImageFix" result="effect1_dropShadow_3079_14769"/>
<feBlend mode="normal" in="SourceGraphic" in2="effect1_dropShadow_3079_14769" result="shape"/>
</filter>
<radialGradient id="paint0_radial_3079_14769" cx="0" cy="0" r="1" gradientUnits="userSpaceOnUse" gradientTransform="translate(201 176) rotate(90) scale(176 201)">
<stop stop-color="#FDF7F2"/>
<stop offset="1" stop-color="#FDF7F2"/>
</radialGradient>
<linearGradient id="paint1_linear_3079_14769" x1="238.222" y1="84.8594" x2="275.565" y2="22.256" gradientUnits="userSpaceOnUse">
<stop stop-color="#FDF7F2"/>
<stop offset="1" stop-color="#F26A1B"/>
</linearGradient>
<linearGradient id="paint2_linear_3079_14769" x1="307.34" y1="79.4654" x2="316.126" y2="70.6789" gradientUnits="userSpaceOnUse">
<stop stop-color="#FDF7F2"/>
<stop offset="1" stop-color="#F26A1B"/>
</linearGradient>
<linearGradient id="paint3_linear_3079_14769" x1="187.741" y1="59.5132" x2="192.134" y2="47.4318" gradientUnits="userSpaceOnUse">
<stop stop-color="#FDF7F2"/>
<stop offset="1" stop-color="#F26A1B"/>
</linearGradient>
<linearGradient id="paint4_linear_3079_14769" x1="137.175" y1="70.0634" x2="110.816" y2="27.2295" gradientUnits="userSpaceOnUse">
<stop stop-color="#FDF7F2"/>
<stop offset="1" stop-color="#F26A1B"/>
</linearGradient>
<linearGradient id="paint5_linear_3079_14769" x1="110.625" y1="121.505" x2="94.1504" y2="112.718" gradientUnits="userSpaceOnUse">
<stop stop-color="#FDF7F2"/>
<stop offset="1" stop-color="#F26A1B"/>
</linearGradient>
<linearGradient id="paint6_linear_3079_14769" x1="81.8976" y1="164.284" x2="39.0637" y2="158.792" gradientUnits="userSpaceOnUse">
<stop stop-color="#FDF7F2"/>
<stop offset="1" stop-color="#F26A1B"/>
</linearGradient>
<linearGradient id="paint7_linear_3079_14769" x1="81.64" y1="215.939" x2="60.7722" y2="224.726" gradientUnits="userSpaceOnUse">
<stop stop-color="#FDF7F2"/>
<stop offset="1" stop-color="#F26A1B"/>
</linearGradient>
<linearGradient id="paint8_linear_3079_14769" x1="93.7061" y1="258.78" x2="38.7908" y2="284.041" gradientUnits="userSpaceOnUse">
<stop stop-color="#FDF7F2"/>
<stop offset="1" stop-color="#F26A1B"/>
</linearGradient>
<linearGradient id="paint9_linear_3079_14769" x1="158.225" y1="294.282" x2="153.832" y2="316.248" gradientUnits="userSpaceOnUse">
<stop stop-color="#FDF7F2"/>
<stop offset="1" stop-color="#F26A1B"/>
</linearGradient>
<linearGradient id="paint10_linear_3079_14769" x1="221.94" y1="294.529" x2="232.923" y2="329.675" gradientUnits="userSpaceOnUse">
<stop stop-color="#FDF7F2"/>
<stop offset="1" stop-color="#F26A1B"/>
</linearGradient>
<linearGradient id="paint11_linear_3079_14769" x1="274.746" y1="284.809" x2="306.597" y2="324.348" gradientUnits="userSpaceOnUse">
<stop stop-color="#FDF7F2"/>
<stop offset="1" stop-color="#F26A1B"/>
</linearGradient>
<linearGradient id="paint12_linear_3079_14769" x1="306.882" y1="225.675" x2="337.634" y2="232.265" gradientUnits="userSpaceOnUse">
<stop stop-color="#FDF7F2"/>
<stop offset="1" stop-color="#F26A1B"/>
</linearGradient>
<linearGradient id="paint13_linear_3079_14769" x1="311.432" y1="178.456" x2="332.3" y2="176.26" gradientUnits="userSpaceOnUse">
<stop stop-color="#FDF7F2"/>
<stop offset="1" stop-color="#F26A1B"/>
</linearGradient>
<linearGradient id="paint14_linear_3079_14769" x1="311.584" y1="127.894" x2="363.204" y2="104.829" gradientUnits="userSpaceOnUse">
<stop stop-color="#FDF7F2"/>
<stop offset="1" stop-color="#F26A1B"/>
</linearGradient>
<linearGradient id="paint15_linear_3079_14769" x1="160.5" y1="211.5" x2="255" y2="134.5" gradientUnits="userSpaceOnUse">
<stop stop-color="#231F20"/>
<stop offset="1" stop-color="#F26A1B"/>
</linearGradient>
</defs>
</svg>
