<svg width="402" height="352" viewBox="0 0 402 352" fill="none" xmlns="http://www.w3.org/2000/svg">
<path d="M0 16C0 7.16345 7.16344 0 16 0H386C394.837 0 402 7.16344 402 16V352H0V16Z" fill="url(#paint0_radial_3148_6730)"/>
<path d="M258.517 162.009C244.406 156.332 230.664 149.824 217.212 142.766C216.179 142.216 215.15 141.66 214.122 141.094C228.482 133.241 243.341 126.313 258.517 120.148C265.253 117.624 267.668 108.764 263.062 103.196C259.301 98.496 252.446 97.7273 247.746 101.487C235.774 110.872 223.268 119.52 210.429 127.637C209.437 128.261 208.44 128.868 207.438 129.476C207.822 113.111 209.25 96.7821 211.494 80.5572C212.678 73.4627 206.207 66.9396 199.081 68.1445C193.337 69.017 189.323 74.2262 189.868 79.9392C193.934 97.9818 196.272 116.591 196.646 135.615C196.661 136.394 196.677 137.173 196.687 137.952C196.698 138.84 196.703 139.723 196.708 140.611C196.708 140.767 196.708 140.923 196.708 141.078C196.708 141.224 196.708 141.364 196.708 141.509C196.708 141.52 196.708 141.53 196.708 141.541C196.708 142.491 196.698 143.442 196.687 144.392C196.687 144.527 196.687 144.667 196.682 144.802C196.682 145.15 196.672 145.493 196.666 145.841C196.334 165.109 193.992 183.952 189.873 202.218C189.333 207.931 193.342 213.14 199.087 214.012C206.212 215.217 212.683 208.699 211.499 201.6C209.256 185.385 207.827 169.067 207.443 152.712C221.414 161.219 234.834 170.62 247.751 180.669C253.303 185.245 262.184 182.897 264.703 176.125C266.894 170.521 264.131 164.195 258.522 162.003L258.517 162.009Z" fill="#F58849"/>
<path d="M165.716 152.031C163.841 152.909 161.961 153.771 160.071 154.618C154.389 157.168 148.702 159.702 142.911 162.003C136.201 164.537 133.796 173.361 138.377 178.924C142.122 183.634 148.977 184.413 153.688 180.664C155.319 179.365 156.97 178.108 158.632 176.852C160.299 175.61 161.956 174.364 163.634 173.148C166.978 170.702 170.333 168.266 173.73 165.898C181.604 160.102 174.753 148.094 165.716 152.021V152.031Z" fill="#F58849"/>
<path d="M173.725 116.249C172.026 115.064 170.339 113.865 168.661 112.655C163.613 109.009 158.575 105.352 153.683 101.488C148.136 96.9387 139.286 99.2758 136.762 106.022C134.555 111.621 137.307 117.947 142.906 120.154C144.843 120.918 146.765 121.723 148.676 122.528C150.582 123.348 152.493 124.164 154.384 125.01C158.175 126.683 161.961 128.37 165.711 130.131C174.665 134.052 181.645 122.117 173.725 116.254V116.249Z" fill="#F58849"/>
<path d="M128.057 282.406C128.057 282.558 128.024 282.696 127.958 282.819C127.892 282.943 127.763 283.042 127.573 283.118C127.382 283.194 127.125 283.256 126.802 283.303C126.479 283.35 126.061 283.375 125.548 283.375C124.882 283.375 124.341 283.346 123.923 283.289C123.505 283.233 123.192 283.128 122.984 282.976C122.773 282.824 122.604 282.653 122.47 282.463L108.904 264.024V282.463C108.904 282.595 108.866 282.723 108.79 282.848C108.714 282.972 108.58 283.066 108.391 283.132C108.2 283.198 107.949 283.254 107.636 283.303C107.323 283.35 106.928 283.375 106.453 283.375C105.979 283.375 105.607 283.352 105.284 283.303C104.961 283.254 104.704 283.198 104.514 283.132C104.323 283.066 104.191 282.97 104.115 282.848C104.039 282.725 104 282.597 104 282.463V247.069C104 246.918 104.037 246.785 104.115 246.671C104.191 246.556 104.323 246.466 104.514 246.4C104.704 246.334 104.959 246.278 105.284 246.229C105.607 246.182 105.996 246.157 106.453 246.157C106.91 246.157 107.323 246.18 107.636 246.229C107.949 246.278 108.2 246.334 108.391 246.4C108.581 246.466 108.714 246.558 108.79 246.671C108.866 246.785 108.904 246.918 108.904 247.069V263.456L121.956 247.069C122.071 246.898 122.203 246.756 122.355 246.641C122.507 246.527 122.692 246.437 122.912 246.371C123.129 246.305 123.396 246.252 123.709 246.213C124.022 246.176 124.427 246.157 124.921 246.157C125.415 246.157 125.814 246.18 126.118 246.229C126.421 246.278 126.664 246.338 126.845 246.414C127.026 246.49 127.149 246.585 127.215 246.698C127.281 246.813 127.314 246.935 127.314 247.067C127.314 247.315 127.252 247.562 127.129 247.809C127.005 248.056 126.773 248.398 126.431 248.834L114.206 263.454L127.372 280.951C127.695 281.445 127.89 281.782 127.956 281.963C128.022 282.144 128.055 282.289 128.055 282.404L128.057 282.406Z" fill="#231F20"/>
<path d="M162.525 281.467C162.677 281.885 162.758 282.221 162.768 282.478C162.778 282.735 162.706 282.93 162.554 283.062C162.402 283.194 162.149 283.28 161.799 283.319C161.447 283.356 160.976 283.375 160.389 283.375C159.801 283.375 159.328 283.361 158.978 283.332C158.626 283.303 158.36 283.256 158.181 283.19C158 283.124 157.867 283.033 157.782 282.92C157.696 282.807 157.614 282.663 157.539 282.492L154.375 273.516H139.043L136.022 282.379C135.966 282.55 135.89 282.698 135.795 282.821C135.699 282.945 135.561 283.048 135.382 283.134C135.201 283.219 134.944 283.28 134.612 283.319C134.279 283.356 133.847 283.375 133.314 283.375C132.781 283.375 132.312 283.352 131.96 283.303C131.608 283.254 131.361 283.165 131.219 283.033C131.077 282.9 131.009 282.706 131.018 282.449C131.028 282.192 131.108 281.856 131.262 281.437L143.629 247.184C143.705 246.976 143.804 246.805 143.928 246.671C144.051 246.538 144.232 246.433 144.469 246.357C144.707 246.281 145.01 246.229 145.382 246.2C145.753 246.171 146.222 246.157 146.792 246.157C147.399 246.157 147.903 246.171 148.302 246.2C148.701 246.229 149.023 246.281 149.271 246.357C149.518 246.433 149.708 246.542 149.841 246.684C149.973 246.826 150.078 247.003 150.154 247.211L162.521 281.465L162.525 281.467ZM146.652 251.231H146.623L140.267 269.611H153.091L146.65 251.231H146.652Z" fill="#231F20"/>
<path d="M179.324 282.35C179.248 282.56 179.143 282.731 179.011 282.863C178.878 282.995 178.692 283.1 178.454 283.176C178.217 283.252 177.913 283.305 177.542 283.334C177.17 283.363 176.711 283.377 176.161 283.377C175.742 283.377 175.377 283.371 175.063 283.363C174.75 283.353 174.48 283.33 174.252 283.291C174.024 283.252 173.83 283.209 173.668 283.163C173.507 283.116 173.369 283.054 173.256 282.978C173.141 282.902 173.052 282.813 172.986 282.708C172.919 282.602 172.857 282.476 172.801 282.322L160.747 248.069C160.595 247.651 160.513 247.314 160.504 247.057C160.494 246.801 160.576 246.606 160.747 246.474C160.918 246.342 161.192 246.256 161.574 246.217C161.953 246.18 162.467 246.161 163.113 246.161C163.644 246.161 164.068 246.174 164.381 246.203C164.694 246.233 164.937 246.285 165.109 246.361C165.28 246.437 165.408 246.536 165.494 246.661C165.579 246.785 165.659 246.941 165.737 247.131L176.31 278.165H176.34L186.627 247.188C186.683 246.98 186.75 246.808 186.827 246.674C186.903 246.542 187.036 246.437 187.226 246.361C187.415 246.285 187.681 246.233 188.024 246.203C188.366 246.174 188.821 246.161 189.391 246.161C189.961 246.161 190.446 246.184 190.788 246.233C191.131 246.281 191.362 246.371 191.487 246.503C191.609 246.635 191.658 246.83 191.629 247.087C191.599 247.343 191.51 247.68 191.358 248.098L179.332 282.352L179.324 282.35Z" fill="#231F20"/>
<path d="M201.852 282.465C201.852 282.616 201.813 282.749 201.737 282.863C201.661 282.978 201.527 283.068 201.338 283.134C201.147 283.2 200.896 283.256 200.583 283.305C200.27 283.352 199.875 283.377 199.4 283.377C198.926 283.377 198.554 283.354 198.231 283.305C197.908 283.256 197.652 283.2 197.461 283.134C197.27 283.068 197.138 282.976 197.062 282.863C196.986 282.749 196.947 282.616 196.947 282.465V247.069C196.947 246.918 196.99 246.785 197.076 246.671C197.161 246.556 197.303 246.466 197.504 246.4C197.704 246.334 197.959 246.278 198.274 246.229C198.587 246.182 198.963 246.157 199.4 246.157C199.875 246.157 200.27 246.18 200.583 246.229C200.896 246.278 201.147 246.334 201.338 246.4C201.527 246.466 201.661 246.558 201.737 246.671C201.813 246.785 201.852 246.918 201.852 247.069V282.463V282.465Z" fill="#231F20"/>
<path d="M238.685 281.467C238.837 281.885 238.916 282.221 238.928 282.478C238.938 282.735 238.866 282.93 238.714 283.062C238.562 283.194 238.309 283.28 237.959 283.319C237.607 283.356 237.136 283.375 236.549 283.375C235.961 283.375 235.489 283.361 235.138 283.332C234.786 283.303 234.522 283.256 234.341 283.19C234.16 283.124 234.028 283.033 233.942 282.92C233.856 282.807 233.775 282.663 233.699 282.492L230.535 273.516H215.204L212.182 282.379C212.126 282.55 212.05 282.698 211.955 282.821C211.859 282.945 211.721 283.048 211.542 283.134C211.361 283.219 211.105 283.28 210.772 283.319C210.439 283.356 210.007 283.375 209.474 283.375C208.941 283.375 208.472 283.352 208.12 283.303C207.768 283.254 207.521 283.165 207.379 283.033C207.237 282.9 207.169 282.706 207.179 282.449C207.188 282.192 207.268 281.856 207.422 281.437L219.789 247.184C219.865 246.976 219.964 246.805 220.089 246.671C220.211 246.538 220.392 246.433 220.629 246.357C220.867 246.281 221.17 246.229 221.542 246.2C221.913 246.171 222.382 246.157 222.952 246.157C223.559 246.157 224.063 246.171 224.462 246.2C224.861 246.229 225.184 246.281 225.431 246.357C225.678 246.433 225.868 246.542 226.001 246.684C226.133 246.826 226.238 247.003 226.314 247.211L238.681 281.465L238.685 281.467ZM222.812 251.231H222.783L216.427 269.611H229.252L222.81 251.231H222.812Z" fill="#231F20"/>
<path d="M286.816 281.467C286.968 281.885 287.047 282.221 287.059 282.478C287.069 282.735 286.997 282.93 286.845 283.062C286.693 283.194 286.44 283.28 286.09 283.319C285.738 283.356 285.267 283.375 284.68 283.375C284.092 283.375 283.619 283.361 283.269 283.332C282.917 283.303 282.653 283.256 282.472 283.19C282.291 283.124 282.158 283.033 282.073 282.92C281.987 282.807 281.906 282.663 281.83 282.492L278.666 273.516H263.334L260.313 282.379C260.257 282.55 260.181 282.698 260.086 282.821C259.99 282.945 259.852 283.048 259.673 283.134C259.492 283.219 259.235 283.28 258.903 283.319C258.57 283.356 258.138 283.375 257.605 283.375C257.072 283.375 256.603 283.352 256.251 283.303C255.899 283.254 255.652 283.165 255.51 283.033C255.368 282.9 255.3 282.706 255.31 282.449C255.319 282.192 255.399 281.856 255.553 281.437L267.92 247.184C267.996 246.976 268.095 246.805 268.219 246.671C268.342 246.538 268.523 246.433 268.76 246.357C268.998 246.281 269.301 246.229 269.673 246.2C270.044 246.171 270.513 246.157 271.083 246.157C271.69 246.157 272.194 246.171 272.593 246.2C272.992 246.229 273.314 246.281 273.562 246.357C273.809 246.433 273.999 246.542 274.132 246.684C274.264 246.826 274.369 247.003 274.445 247.211L286.812 281.465L286.816 281.467ZM270.943 251.231H270.914L264.558 269.611H277.382L270.941 251.231H270.943Z" fill="#231F20"/>
<path d="M297.29 282.465C297.29 282.616 297.251 282.749 297.175 282.863C297.1 282.978 296.965 283.068 296.777 283.134C296.586 283.2 296.335 283.256 296.022 283.305C295.709 283.352 295.314 283.377 294.839 283.377C294.364 283.377 293.993 283.354 293.67 283.305C293.347 283.256 293.09 283.2 292.899 283.134C292.709 283.068 292.576 282.976 292.501 282.863C292.425 282.749 292.386 282.616 292.386 282.465V247.069C292.386 246.918 292.429 246.785 292.514 246.671C292.6 246.556 292.742 246.466 292.942 246.4C293.143 246.334 293.397 246.278 293.713 246.229C294.026 246.182 294.401 246.157 294.839 246.157C295.314 246.157 295.709 246.18 296.022 246.229C296.335 246.278 296.586 246.334 296.777 246.4C296.965 246.466 297.1 246.558 297.175 246.671C297.251 246.785 297.29 246.918 297.29 247.069V282.463V282.465Z" fill="#231F20"/>
<defs>
<radialGradient id="paint0_radial_3148_6730" cx="0" cy="0" r="1" gradientUnits="userSpaceOnUse" gradientTransform="translate(201 176) rotate(90) scale(176 201)">
<stop stop-color="#FDF7F2"/>
<stop offset="1" stop-color="#FDF7F2"/>
</radialGradient>
</defs>
</svg>
