<svg width="402" height="352" viewBox="0 0 402 352" fill="none" xmlns="http://www.w3.org/2000/svg">
<g clip-path="url(#clip0_3246_6848)">
<path d="M0 16C0 7.16345 7.16344 0 16 0H386C394.837 0 402 7.16344 402 16V352H0V16Z" fill="url(#paint0_radial_3246_6848)"/>
<g opacity="0.5">
<path opacity="0.207692" d="M214.834 461.439C210.644 463.887 205.816 465.022 200.975 464.697V492.08C204.275 492.067 207.502 491.108 210.273 489.315L403.717 377.669C407.327 375.679 409 373.935 409 371.505V349.37L214.834 461.439Z" fill="#F26A1B"/>
<path opacity="0.184615" d="M214.831 436.962C210.642 439.413 205.812 440.542 200.972 440.203V467.586C204.269 467.572 207.494 466.619 210.27 464.839L403.714 353.175C407.324 351.202 408.997 349.441 408.997 347.029V324.893L214.831 436.962Z" fill="#F26A1B"/>
<path opacity="0.161538" d="M214.834 412.468C210.647 414.924 205.817 416.059 200.975 415.725V443.109C204.275 443.096 207.502 442.137 210.273 440.344L403.717 328.697C407.327 326.708 409 324.964 409 322.552V300.398L214.834 412.468Z" fill="#F26A1B"/>
<path opacity="0.138462" d="M214.831 387.989C210.642 390.44 205.812 391.569 200.972 391.23V418.613C204.269 418.599 207.494 417.646 210.27 415.866L403.714 304.202C407.324 302.229 408.997 300.468 408.997 298.056V275.92L214.831 387.989Z" fill="#F26A1B"/>
<path opacity="0.115385" d="M214.834 363.493C210.65 365.957 205.818 367.093 200.975 366.751V394.135C204.275 394.122 207.502 393.162 210.273 391.37L403.717 279.67C407.327 277.681 409 275.937 409 273.525V251.495L214.834 363.493Z" fill="#F26A1B"/>
<path opacity="0.092308" d="M214.834 339.016C210.645 341.466 205.815 342.595 200.975 342.256V369.639C204.272 369.625 207.497 368.672 210.273 366.892L403.717 255.228C407.327 253.255 409 251.494 409 249.082V226.946L214.834 339.016Z" fill="#F26A1B"/>
<path opacity="0.069231" d="M214.834 314.519C210.65 316.983 205.818 318.119 200.975 317.777V345.161C204.275 345.148 207.502 344.188 210.273 342.396L403.717 230.749C407.327 228.759 409 227.016 409 224.603V202.468L214.834 314.519Z" fill="#F26A1B"/>
<path opacity="0.046154" d="M214.834 290.043C210.644 292.491 205.816 293.626 200.975 293.301V320.702C204.274 320.681 207.499 319.722 210.273 317.937L403.717 206.273C407.327 204.283 409 202.522 409 200.109V177.974L214.834 290.043Z" fill="#F26A1B"/>
<path opacity="0.023077" d="M214.831 265.582C210.647 268.046 205.815 269.182 200.972 268.84V296.224C204.272 296.211 207.499 295.251 210.27 293.459L403.714 181.777C407.324 179.787 408.997 178.044 408.997 175.631V153.496L214.831 265.582Z" fill="#F26A1B"/>
</g>
<g opacity="0.7">
<path opacity="0.346154" d="M187.112 461.439C191.307 463.888 196.141 465.023 200.988 464.697C200.9 464.697 200.988 464.697 200.988 464.697V492.08C197.688 492.07 194.46 491.111 191.69 489.315L-1.70141 377.669C-5.31144 375.679 -6.98438 373.935 -6.98438 371.505V349.37L187.112 461.439Z" fill="#F26A1B"/>
<path opacity="0.307692" d="M187.114 436.962C191.307 439.415 196.144 440.544 200.99 440.203V467.586C197.692 467.575 194.467 466.621 191.692 464.839L-1.71704 353.175C-5.32706 351.202 -7 349.441 -7 347.029V324.893L187.114 436.962Z" fill="#F26A1B"/>
<path opacity="0.269231" d="M187.112 412.468C191.304 414.925 196.14 416.061 200.988 415.725C200.9 415.725 200.988 415.725 200.988 415.725V443.109C197.688 443.099 194.46 442.139 191.69 440.344L-1.70141 328.697C-5.31144 326.708 -6.98438 324.964 -6.98438 322.552V300.398L187.112 412.468Z" fill="#F26A1B"/>
<path opacity="0.230769" d="M187.114 387.989C191.307 390.442 196.144 391.571 200.99 391.23V418.613C197.692 418.602 194.467 417.649 191.692 415.866L-1.71704 304.202C-5.32706 302.229 -7 300.468 -7 298.056V275.92L187.114 387.989Z" fill="#F26A1B"/>
<path opacity="0.192308" d="M187.114 363.493C191.303 365.959 196.142 367.095 200.99 366.751C200.902 366.751 200.99 366.751 200.99 366.751V394.135C197.69 394.125 194.462 393.165 191.692 391.37L-1.71704 279.67C-5.32706 277.681 -7 275.937 -7 273.525V251.495L187.114 363.493Z" fill="#F26A1B"/>
<path opacity="0.153846" d="M187.114 339.016C191.307 341.468 196.144 342.598 200.99 342.256C200.902 342.256 200.99 342.256 200.99 342.256V369.639C197.692 369.628 194.467 368.675 191.692 366.892L-1.71704 255.228C-5.32706 253.255 -7 251.494 -7 249.082V226.946L187.114 339.016Z" fill="#F26A1B"/>
<path opacity="0.115385" d="M187.112 314.519C191.301 316.985 196.14 318.121 200.988 317.777C200.9 317.777 200.988 317.777 200.988 317.777V345.161C197.688 345.151 194.46 344.191 191.69 342.396L-1.70141 230.749C-5.31144 228.759 -6.98438 227.016 -6.98438 224.603V202.468L187.112 314.519Z" fill="#F26A1B"/>
<path opacity="0.076923" d="M187.112 290.043C191.307 292.492 196.141 293.627 200.988 293.301V320.702C197.689 320.683 194.464 319.724 191.69 317.937L-1.70141 206.29C-5.31144 204.3 -6.98438 202.539 -6.98438 200.127V177.974L187.112 290.043Z" fill="#F26A1B"/>
<path opacity="0.038462" d="M187.114 265.582C191.303 268.048 196.142 269.185 200.99 268.84V296.224C197.69 296.214 194.462 295.254 191.692 293.459L-1.71704 181.777C-5.32706 179.787 -7 178.044 -7 175.631V153.496L187.114 265.582Z" fill="#F26A1B"/>
</g>
<path d="M125.057 283.406C125.057 283.558 125.024 283.696 124.958 283.819C124.892 283.943 124.763 284.042 124.573 284.118C124.382 284.194 124.125 284.256 123.802 284.303C123.479 284.35 123.061 284.375 122.548 284.375C121.882 284.375 121.341 284.346 120.923 284.289C120.505 284.233 120.192 284.128 119.984 283.976C119.773 283.824 119.604 283.653 119.47 283.463L105.904 265.024V283.463C105.904 283.595 105.866 283.723 105.79 283.848C105.714 283.972 105.58 284.066 105.391 284.132C105.2 284.198 104.949 284.254 104.636 284.303C104.323 284.35 103.928 284.375 103.453 284.375C102.979 284.375 102.607 284.352 102.284 284.303C101.961 284.254 101.704 284.198 101.514 284.132C101.323 284.066 101.191 283.97 101.115 283.848C101.039 283.725 101 283.597 101 283.463V248.069C101 247.918 101.037 247.785 101.115 247.671C101.191 247.556 101.323 247.466 101.514 247.4C101.704 247.334 101.959 247.278 102.284 247.229C102.607 247.182 102.996 247.157 103.453 247.157C103.91 247.157 104.323 247.18 104.636 247.229C104.949 247.278 105.2 247.334 105.391 247.4C105.581 247.466 105.714 247.558 105.79 247.671C105.866 247.785 105.904 247.918 105.904 248.069V264.456L118.956 248.069C119.071 247.898 119.203 247.756 119.355 247.641C119.507 247.527 119.692 247.437 119.912 247.371C120.129 247.305 120.396 247.252 120.709 247.213C121.022 247.176 121.427 247.157 121.921 247.157C122.415 247.157 122.814 247.18 123.118 247.229C123.421 247.278 123.664 247.338 123.845 247.414C124.026 247.49 124.149 247.585 124.215 247.698C124.281 247.813 124.314 247.935 124.314 248.067C124.314 248.315 124.252 248.562 124.129 248.809C124.005 249.056 123.773 249.398 123.431 249.834L111.206 264.454L124.372 281.951C124.695 282.445 124.89 282.782 124.956 282.963C125.022 283.144 125.055 283.289 125.055 283.404L125.057 283.406Z" fill="#FACEB4"/>
<path d="M159.525 282.467C159.677 282.885 159.758 283.221 159.768 283.478C159.778 283.735 159.706 283.93 159.554 284.062C159.402 284.194 159.149 284.28 158.799 284.319C158.447 284.356 157.976 284.375 157.389 284.375C156.801 284.375 156.328 284.361 155.978 284.332C155.626 284.303 155.36 284.256 155.181 284.19C155 284.124 154.867 284.033 154.782 283.92C154.696 283.807 154.614 283.663 154.539 283.492L151.375 274.516H136.043L133.022 283.379C132.966 283.55 132.89 283.698 132.795 283.821C132.699 283.945 132.561 284.048 132.382 284.134C132.201 284.219 131.944 284.28 131.612 284.319C131.279 284.356 130.847 284.375 130.314 284.375C129.781 284.375 129.312 284.352 128.96 284.303C128.608 284.254 128.361 284.165 128.219 284.033C128.077 283.9 128.009 283.706 128.018 283.449C128.028 283.192 128.108 282.856 128.262 282.437L140.629 248.184C140.705 247.976 140.804 247.805 140.928 247.671C141.051 247.538 141.232 247.433 141.469 247.357C141.707 247.281 142.01 247.229 142.382 247.2C142.753 247.171 143.222 247.157 143.792 247.157C144.399 247.157 144.903 247.171 145.302 247.2C145.701 247.229 146.023 247.281 146.271 247.357C146.518 247.433 146.708 247.542 146.841 247.684C146.973 247.826 147.078 248.003 147.154 248.211L159.521 282.465L159.525 282.467ZM143.652 252.231H143.623L137.267 270.611H150.091L143.65 252.231H143.652Z" fill="#FACEB4"/>
<path d="M176.324 283.35C176.248 283.56 176.143 283.731 176.011 283.863C175.878 283.995 175.692 284.1 175.454 284.176C175.217 284.252 174.913 284.305 174.542 284.334C174.17 284.363 173.711 284.377 173.161 284.377C172.742 284.377 172.377 284.371 172.063 284.363C171.75 284.353 171.48 284.33 171.252 284.291C171.024 284.252 170.83 284.209 170.668 284.163C170.507 284.116 170.369 284.054 170.256 283.978C170.141 283.902 170.052 283.813 169.986 283.708C169.919 283.602 169.857 283.476 169.801 283.322L157.747 249.069C157.595 248.651 157.513 248.314 157.504 248.057C157.494 247.801 157.576 247.606 157.747 247.474C157.918 247.342 158.192 247.256 158.574 247.217C158.953 247.18 159.467 247.161 160.113 247.161C160.644 247.161 161.068 247.174 161.381 247.203C161.694 247.233 161.937 247.285 162.109 247.361C162.28 247.437 162.408 247.536 162.494 247.661C162.579 247.785 162.659 247.941 162.737 248.131L173.31 279.165H173.34L183.627 248.188C183.683 247.98 183.75 247.808 183.827 247.674C183.903 247.542 184.036 247.437 184.226 247.361C184.415 247.285 184.681 247.233 185.024 247.203C185.366 247.174 185.821 247.161 186.391 247.161C186.961 247.161 187.446 247.184 187.788 247.233C188.131 247.281 188.362 247.371 188.487 247.503C188.609 247.635 188.658 247.83 188.629 248.087C188.599 248.343 188.51 248.68 188.358 249.098L176.332 283.352L176.324 283.35Z" fill="#FACEB4"/>
<path d="M198.852 283.465C198.852 283.616 198.813 283.749 198.737 283.863C198.661 283.978 198.527 284.068 198.338 284.134C198.147 284.2 197.896 284.256 197.583 284.305C197.27 284.352 196.875 284.377 196.4 284.377C195.926 284.377 195.554 284.354 195.231 284.305C194.908 284.256 194.652 284.2 194.461 284.134C194.27 284.068 194.138 283.976 194.062 283.863C193.986 283.749 193.947 283.616 193.947 283.465V248.069C193.947 247.918 193.99 247.785 194.076 247.671C194.161 247.556 194.303 247.466 194.504 247.4C194.704 247.334 194.959 247.278 195.274 247.229C195.587 247.182 195.963 247.157 196.4 247.157C196.875 247.157 197.27 247.18 197.583 247.229C197.896 247.278 198.147 247.334 198.338 247.4C198.527 247.466 198.661 247.558 198.737 247.671C198.813 247.785 198.852 247.918 198.852 248.069V283.463V283.465Z" fill="#FACEB4"/>
<path d="M235.685 282.467C235.837 282.885 235.916 283.221 235.928 283.478C235.938 283.735 235.866 283.93 235.714 284.062C235.562 284.194 235.309 284.28 234.959 284.319C234.607 284.356 234.136 284.375 233.549 284.375C232.961 284.375 232.489 284.361 232.138 284.332C231.786 284.303 231.522 284.256 231.341 284.19C231.16 284.124 231.028 284.033 230.942 283.92C230.856 283.807 230.775 283.663 230.699 283.492L227.535 274.516H212.204L209.182 283.379C209.126 283.55 209.05 283.698 208.955 283.821C208.859 283.945 208.721 284.048 208.542 284.134C208.361 284.219 208.105 284.28 207.772 284.319C207.439 284.356 207.007 284.375 206.474 284.375C205.941 284.375 205.472 284.352 205.12 284.303C204.768 284.254 204.521 284.165 204.379 284.033C204.237 283.9 204.169 283.706 204.179 283.449C204.188 283.192 204.268 282.856 204.422 282.437L216.789 248.184C216.865 247.976 216.964 247.805 217.089 247.671C217.211 247.538 217.392 247.433 217.629 247.357C217.867 247.281 218.17 247.229 218.542 247.2C218.913 247.171 219.382 247.157 219.952 247.157C220.559 247.157 221.063 247.171 221.462 247.2C221.861 247.229 222.184 247.281 222.431 247.357C222.678 247.433 222.868 247.542 223.001 247.684C223.133 247.826 223.238 248.003 223.314 248.211L235.681 282.465L235.685 282.467ZM219.812 252.231H219.783L213.427 270.611H226.252L219.81 252.231H219.812Z" fill="#FACEB4"/>
<path d="M283.816 282.467C283.968 282.885 284.047 283.221 284.059 283.478C284.069 283.735 283.997 283.93 283.845 284.062C283.693 284.194 283.44 284.28 283.09 284.319C282.738 284.356 282.267 284.375 281.68 284.375C281.092 284.375 280.619 284.361 280.269 284.332C279.917 284.303 279.653 284.256 279.472 284.19C279.291 284.124 279.158 284.033 279.073 283.92C278.987 283.807 278.906 283.663 278.83 283.492L275.666 274.516H260.334L257.313 283.379C257.257 283.55 257.181 283.698 257.086 283.821C256.99 283.945 256.852 284.048 256.673 284.134C256.492 284.219 256.235 284.28 255.903 284.319C255.57 284.356 255.138 284.375 254.605 284.375C254.072 284.375 253.603 284.352 253.251 284.303C252.899 284.254 252.652 284.165 252.51 284.033C252.368 283.9 252.3 283.706 252.31 283.449C252.319 283.192 252.399 282.856 252.553 282.437L264.92 248.184C264.996 247.976 265.095 247.805 265.219 247.671C265.342 247.538 265.523 247.433 265.76 247.357C265.998 247.281 266.301 247.229 266.673 247.2C267.044 247.171 267.513 247.157 268.083 247.157C268.69 247.157 269.194 247.171 269.593 247.2C269.992 247.229 270.314 247.281 270.562 247.357C270.809 247.433 270.999 247.542 271.132 247.684C271.264 247.826 271.369 248.003 271.445 248.211L283.812 282.465L283.816 282.467ZM267.943 252.231H267.914L261.558 270.611H274.382L267.941 252.231H267.943Z" fill="#FACEB4"/>
<path d="M294.29 283.465C294.29 283.616 294.251 283.749 294.175 283.863C294.1 283.978 293.965 284.068 293.777 284.134C293.586 284.2 293.335 284.256 293.022 284.305C292.709 284.352 292.314 284.377 291.839 284.377C291.364 284.377 290.993 284.354 290.67 284.305C290.347 284.256 290.09 284.2 289.899 284.134C289.709 284.068 289.576 283.976 289.501 283.863C289.425 283.749 289.386 283.616 289.386 283.465V248.069C289.386 247.918 289.429 247.785 289.514 247.671C289.6 247.556 289.742 247.466 289.942 247.4C290.143 247.334 290.397 247.278 290.713 247.229C291.026 247.182 291.401 247.157 291.839 247.157C292.314 247.157 292.709 247.18 293.022 247.229C293.335 247.278 293.586 247.334 293.777 247.4C293.965 247.466 294.1 247.558 294.175 247.671C294.251 247.785 294.29 247.918 294.29 248.069V283.463V283.465Z" fill="#FACEB4"/>
<path d="M253.517 165.009C239.406 159.332 225.664 152.824 212.212 145.766C211.179 145.216 210.15 144.66 209.122 144.094C223.482 136.241 238.341 129.313 253.517 123.148C260.253 120.624 262.668 111.764 258.062 106.196C254.301 101.496 247.446 100.727 242.746 104.487C230.774 113.872 218.268 122.52 205.429 130.637C204.437 131.261 203.44 131.868 202.438 132.476C202.822 116.111 204.25 99.7821 206.494 83.5572C207.678 76.4627 201.207 69.9396 194.081 71.1445C188.337 72.017 184.323 77.2262 184.868 82.9392C188.934 100.982 191.272 119.591 191.646 138.615C191.661 139.394 191.677 140.173 191.687 140.952C191.698 141.84 191.703 142.723 191.708 143.611C191.708 143.767 191.708 143.923 191.708 144.078C191.708 144.224 191.708 144.364 191.708 144.509C191.708 144.52 191.708 144.53 191.708 144.541C191.708 145.491 191.698 146.442 191.687 147.392C191.687 147.527 191.687 147.667 191.682 147.802C191.682 148.15 191.672 148.493 191.666 148.841C191.334 168.109 188.992 186.952 184.873 205.218C184.333 210.931 188.342 216.14 194.087 217.012C201.212 218.217 207.683 211.699 206.499 204.6C204.256 188.385 202.827 172.067 202.443 155.712C216.414 164.219 229.834 173.62 242.751 183.669C248.303 188.245 257.184 185.897 259.703 179.125C261.894 173.521 259.131 167.195 253.522 165.003L253.517 165.009Z" fill="#F26A1B" fill-opacity="0.29"/>
<path d="M160.716 155.031C158.841 155.909 156.961 156.771 155.071 157.618C149.389 160.168 143.702 162.702 137.911 165.003C131.201 167.537 128.796 176.361 133.377 181.924C137.122 186.634 143.977 187.413 148.688 183.664C150.319 182.365 151.97 181.108 153.632 179.852C155.299 178.61 156.956 177.364 158.634 176.148C161.978 173.702 165.333 171.266 168.73 168.898C176.604 163.102 169.753 151.094 160.716 155.021V155.031Z" fill="#F26A1B" fill-opacity="0.29"/>
<path d="M168.725 119.249C167.026 118.064 165.339 116.865 163.661 115.655C158.613 112.009 153.575 108.352 148.683 104.488C143.136 99.9387 134.286 102.276 131.762 109.022C129.555 114.621 132.307 120.947 137.906 123.154C139.843 123.918 141.765 124.723 143.676 125.528C145.582 126.348 147.493 127.164 149.384 128.01C153.175 129.683 156.961 131.37 160.711 133.131C169.665 137.052 176.645 125.117 168.725 119.254V119.249Z" fill="#F26A1B" fill-opacity="0.29"/>
<path d="M258.517 162.009C244.406 156.332 230.664 149.824 217.212 142.766C216.179 142.216 215.15 141.66 214.122 141.094C228.482 133.241 243.341 126.313 258.517 120.148C265.253 117.624 267.668 108.764 263.062 103.196C259.301 98.496 252.446 97.7273 247.746 101.487C235.774 110.872 223.268 119.52 210.429 127.637C209.437 128.261 208.44 128.868 207.438 129.476C207.822 113.111 209.25 96.7821 211.494 80.5572C212.678 73.4627 206.207 66.9396 199.081 68.1445C193.337 69.017 189.323 74.2262 189.868 79.9392C193.934 97.9818 196.272 116.591 196.646 135.615C196.661 136.394 196.677 137.173 196.687 137.952C196.698 138.84 196.703 139.723 196.708 140.611C196.708 140.767 196.708 140.923 196.708 141.078C196.708 141.224 196.708 141.364 196.708 141.509C196.708 141.52 196.708 141.53 196.708 141.541C196.708 142.491 196.698 143.442 196.687 144.392C196.687 144.527 196.687 144.667 196.682 144.802C196.682 145.15 196.672 145.493 196.666 145.841C196.334 165.109 193.992 183.952 189.873 202.218C189.333 207.931 193.342 213.14 199.087 214.012C206.212 215.217 212.683 208.699 211.499 201.6C209.256 185.385 207.827 169.067 207.443 152.712C221.414 161.219 234.834 170.62 247.751 180.669C253.303 185.245 262.184 182.897 264.703 176.125C266.894 170.521 264.131 164.195 258.522 162.003L258.517 162.009Z" fill="#F58849"/>
<path d="M165.716 152.031C163.841 152.909 161.961 153.771 160.071 154.618C154.389 157.168 148.702 159.702 142.911 162.003C136.201 164.537 133.796 173.361 138.377 178.924C142.122 183.634 148.977 184.413 153.688 180.664C155.319 179.365 156.97 178.108 158.632 176.852C160.299 175.61 161.956 174.364 163.634 173.148C166.978 170.702 170.333 168.266 173.73 165.898C181.604 160.102 174.753 148.094 165.716 152.021V152.031Z" fill="#F58849"/>
<path d="M173.725 116.249C172.026 115.064 170.339 113.865 168.661 112.655C163.613 109.009 158.575 105.352 153.683 101.488C148.136 96.9387 139.286 99.2758 136.762 106.022C134.555 111.621 137.307 117.947 142.906 120.154C144.843 120.918 146.765 121.723 148.676 122.528C150.582 123.348 152.493 124.164 154.384 125.01C158.175 126.683 161.961 128.37 165.711 130.131C174.665 134.052 181.645 122.117 173.725 116.254V116.249Z" fill="#F58849"/>
<path d="M128.057 282.406C128.057 282.558 128.024 282.696 127.958 282.819C127.892 282.943 127.763 283.042 127.573 283.118C127.382 283.194 127.125 283.256 126.802 283.303C126.479 283.35 126.061 283.375 125.548 283.375C124.882 283.375 124.341 283.346 123.923 283.289C123.505 283.233 123.192 283.128 122.984 282.976C122.773 282.824 122.604 282.653 122.47 282.463L108.904 264.024V282.463C108.904 282.595 108.866 282.723 108.79 282.848C108.714 282.972 108.58 283.066 108.391 283.132C108.2 283.198 107.949 283.254 107.636 283.303C107.323 283.35 106.928 283.375 106.453 283.375C105.979 283.375 105.607 283.352 105.284 283.303C104.961 283.254 104.704 283.198 104.514 283.132C104.323 283.066 104.191 282.97 104.115 282.848C104.039 282.725 104 282.597 104 282.463V247.069C104 246.918 104.037 246.785 104.115 246.671C104.191 246.556 104.323 246.466 104.514 246.4C104.704 246.334 104.959 246.278 105.284 246.229C105.607 246.182 105.996 246.157 106.453 246.157C106.91 246.157 107.323 246.18 107.636 246.229C107.949 246.278 108.2 246.334 108.391 246.4C108.581 246.466 108.714 246.558 108.79 246.671C108.866 246.785 108.904 246.918 108.904 247.069V263.456L121.956 247.069C122.071 246.898 122.203 246.756 122.355 246.641C122.507 246.527 122.692 246.437 122.912 246.371C123.129 246.305 123.396 246.252 123.709 246.213C124.022 246.176 124.427 246.157 124.921 246.157C125.415 246.157 125.814 246.18 126.118 246.229C126.421 246.278 126.664 246.338 126.845 246.414C127.026 246.49 127.149 246.585 127.215 246.698C127.281 246.813 127.314 246.935 127.314 247.067C127.314 247.315 127.252 247.562 127.129 247.809C127.005 248.056 126.773 248.398 126.431 248.834L114.206 263.454L127.372 280.951C127.695 281.445 127.89 281.782 127.956 281.963C128.022 282.144 128.055 282.289 128.055 282.404L128.057 282.406Z" fill="#231F20"/>
<path d="M162.525 281.467C162.677 281.885 162.758 282.221 162.768 282.478C162.778 282.735 162.706 282.93 162.554 283.062C162.402 283.194 162.149 283.28 161.799 283.319C161.447 283.356 160.976 283.375 160.389 283.375C159.801 283.375 159.328 283.361 158.978 283.332C158.626 283.303 158.36 283.256 158.181 283.19C158 283.124 157.867 283.033 157.782 282.92C157.696 282.807 157.614 282.663 157.539 282.492L154.375 273.516H139.043L136.022 282.379C135.966 282.55 135.89 282.698 135.795 282.821C135.699 282.945 135.561 283.048 135.382 283.134C135.201 283.219 134.944 283.28 134.612 283.319C134.279 283.356 133.847 283.375 133.314 283.375C132.781 283.375 132.312 283.352 131.96 283.303C131.608 283.254 131.361 283.165 131.219 283.033C131.077 282.9 131.009 282.706 131.018 282.449C131.028 282.192 131.108 281.856 131.262 281.437L143.629 247.184C143.705 246.976 143.804 246.805 143.928 246.671C144.051 246.538 144.232 246.433 144.469 246.357C144.707 246.281 145.01 246.229 145.382 246.2C145.753 246.171 146.222 246.157 146.792 246.157C147.399 246.157 147.903 246.171 148.302 246.2C148.701 246.229 149.023 246.281 149.271 246.357C149.518 246.433 149.708 246.542 149.841 246.684C149.973 246.826 150.078 247.003 150.154 247.211L162.521 281.465L162.525 281.467ZM146.652 251.231H146.623L140.267 269.611H153.091L146.65 251.231H146.652Z" fill="#231F20"/>
<path d="M179.324 282.35C179.248 282.56 179.143 282.731 179.011 282.863C178.878 282.995 178.692 283.1 178.454 283.176C178.217 283.252 177.913 283.305 177.542 283.334C177.17 283.363 176.711 283.377 176.161 283.377C175.742 283.377 175.377 283.371 175.063 283.363C174.75 283.353 174.48 283.33 174.252 283.291C174.024 283.252 173.83 283.209 173.668 283.163C173.507 283.116 173.369 283.054 173.256 282.978C173.141 282.902 173.052 282.813 172.986 282.708C172.919 282.602 172.857 282.476 172.801 282.322L160.747 248.069C160.595 247.651 160.513 247.314 160.504 247.057C160.494 246.801 160.576 246.606 160.747 246.474C160.918 246.342 161.192 246.256 161.574 246.217C161.953 246.18 162.467 246.161 163.113 246.161C163.644 246.161 164.068 246.174 164.381 246.203C164.694 246.233 164.937 246.285 165.109 246.361C165.28 246.437 165.408 246.536 165.494 246.661C165.579 246.785 165.659 246.941 165.737 247.131L176.31 278.165H176.34L186.627 247.188C186.683 246.98 186.75 246.808 186.827 246.674C186.903 246.542 187.036 246.437 187.226 246.361C187.415 246.285 187.681 246.233 188.024 246.203C188.366 246.174 188.821 246.161 189.391 246.161C189.961 246.161 190.446 246.184 190.788 246.233C191.131 246.281 191.362 246.371 191.487 246.503C191.609 246.635 191.658 246.83 191.629 247.087C191.599 247.343 191.51 247.68 191.358 248.098L179.332 282.352L179.324 282.35Z" fill="#231F20"/>
<path d="M201.852 282.465C201.852 282.616 201.813 282.749 201.737 282.863C201.661 282.978 201.527 283.068 201.338 283.134C201.147 283.2 200.896 283.256 200.583 283.305C200.27 283.352 199.875 283.377 199.4 283.377C198.926 283.377 198.554 283.354 198.231 283.305C197.908 283.256 197.652 283.2 197.461 283.134C197.27 283.068 197.138 282.976 197.062 282.863C196.986 282.749 196.947 282.616 196.947 282.465V247.069C196.947 246.918 196.99 246.785 197.076 246.671C197.161 246.556 197.303 246.466 197.504 246.4C197.704 246.334 197.959 246.278 198.274 246.229C198.587 246.182 198.963 246.157 199.4 246.157C199.875 246.157 200.27 246.18 200.583 246.229C200.896 246.278 201.147 246.334 201.338 246.4C201.527 246.466 201.661 246.558 201.737 246.671C201.813 246.785 201.852 246.918 201.852 247.069V282.463V282.465Z" fill="#231F20"/>
<path d="M238.685 281.467C238.837 281.885 238.916 282.221 238.928 282.478C238.938 282.735 238.866 282.93 238.714 283.062C238.562 283.194 238.309 283.28 237.959 283.319C237.607 283.356 237.136 283.375 236.549 283.375C235.961 283.375 235.489 283.361 235.138 283.332C234.786 283.303 234.522 283.256 234.341 283.19C234.16 283.124 234.028 283.033 233.942 282.92C233.856 282.807 233.775 282.663 233.699 282.492L230.535 273.516H215.204L212.182 282.379C212.126 282.55 212.05 282.698 211.955 282.821C211.859 282.945 211.721 283.048 211.542 283.134C211.361 283.219 211.105 283.28 210.772 283.319C210.439 283.356 210.007 283.375 209.474 283.375C208.941 283.375 208.472 283.352 208.12 283.303C207.768 283.254 207.521 283.165 207.379 283.033C207.237 282.9 207.169 282.706 207.179 282.449C207.188 282.192 207.268 281.856 207.422 281.437L219.789 247.184C219.865 246.976 219.964 246.805 220.089 246.671C220.211 246.538 220.392 246.433 220.629 246.357C220.867 246.281 221.17 246.229 221.542 246.2C221.913 246.171 222.382 246.157 222.952 246.157C223.559 246.157 224.063 246.171 224.462 246.2C224.861 246.229 225.184 246.281 225.431 246.357C225.678 246.433 225.868 246.542 226.001 246.684C226.133 246.826 226.238 247.003 226.314 247.211L238.681 281.465L238.685 281.467ZM222.812 251.231H222.783L216.427 269.611H229.252L222.81 251.231H222.812Z" fill="#231F20"/>
<path d="M286.816 281.467C286.968 281.885 287.047 282.221 287.059 282.478C287.069 282.735 286.997 282.93 286.845 283.062C286.693 283.194 286.44 283.28 286.09 283.319C285.738 283.356 285.267 283.375 284.68 283.375C284.092 283.375 283.619 283.361 283.269 283.332C282.917 283.303 282.653 283.256 282.472 283.19C282.291 283.124 282.158 283.033 282.073 282.92C281.987 282.807 281.906 282.663 281.83 282.492L278.666 273.516H263.334L260.313 282.379C260.257 282.55 260.181 282.698 260.086 282.821C259.99 282.945 259.852 283.048 259.673 283.134C259.492 283.219 259.235 283.28 258.903 283.319C258.57 283.356 258.138 283.375 257.605 283.375C257.072 283.375 256.603 283.352 256.251 283.303C255.899 283.254 255.652 283.165 255.51 283.033C255.368 282.9 255.3 282.706 255.31 282.449C255.319 282.192 255.399 281.856 255.553 281.437L267.92 247.184C267.996 246.976 268.095 246.805 268.219 246.671C268.342 246.538 268.523 246.433 268.76 246.357C268.998 246.281 269.301 246.229 269.673 246.2C270.044 246.171 270.513 246.157 271.083 246.157C271.69 246.157 272.194 246.171 272.593 246.2C272.992 246.229 273.314 246.281 273.562 246.357C273.809 246.433 273.999 246.542 274.132 246.684C274.264 246.826 274.369 247.003 274.445 247.211L286.812 281.465L286.816 281.467ZM270.943 251.231H270.914L264.558 269.611H277.382L270.941 251.231H270.943Z" fill="#231F20"/>
<path d="M297.29 282.465C297.29 282.616 297.251 282.749 297.175 282.863C297.1 282.978 296.965 283.068 296.777 283.134C296.586 283.2 296.335 283.256 296.022 283.305C295.709 283.352 295.314 283.377 294.839 283.377C294.364 283.377 293.993 283.354 293.67 283.305C293.347 283.256 293.09 283.2 292.899 283.134C292.709 283.068 292.576 282.976 292.501 282.863C292.425 282.749 292.386 282.616 292.386 282.465V247.069C292.386 246.918 292.429 246.785 292.514 246.671C292.6 246.556 292.742 246.466 292.942 246.4C293.143 246.334 293.397 246.278 293.713 246.229C294.026 246.182 294.401 246.157 294.839 246.157C295.314 246.157 295.709 246.18 296.022 246.229C296.335 246.278 296.586 246.334 296.777 246.4C296.965 246.466 297.1 246.558 297.175 246.671C297.251 246.785 297.29 246.918 297.29 247.069V282.463V282.465Z" fill="#231F20"/>
</g>
<defs>
<radialGradient id="paint0_radial_3246_6848" cx="0" cy="0" r="1" gradientUnits="userSpaceOnUse" gradientTransform="translate(201 176) rotate(90) scale(176 201)">
<stop stop-color="#FDF7F2"/>
<stop offset="1" stop-color="#FDF7F2"/>
</radialGradient>
<clipPath id="clip0_3246_6848">
<path d="M0 16C0 7.16345 7.16344 0 16 0H386C394.837 0 402 7.16344 402 16V352H0V16Z" fill="white"/>
</clipPath>
</defs>
</svg>
