<svg width="49" height="48" viewBox="0 0 49 48" fill="none" xmlns="http://www.w3.org/2000/svg">
<g id="aod_tablet">
<mask id="mask0_2627_6906" style="mask-type:alpha" maskUnits="userSpaceOnUse" x="0" y="0" width="49" height="48">
<rect id="Bounding box" x="0.333984" width="48" height="48" fill="#D9D9D9"/>
</mask>
<g mask="url(#mask0_2627_6906)">
<path id="aod_tablet_2" d="M7.76298 11.2695V11.2445H7.73798H6.21848C6.03325 11.2445 5.87932 11.3043 5.75881 11.4248C5.6383 11.5453 5.57848 11.6993 5.57848 11.8845V36.1155C5.57848 36.3007 5.6383 36.4547 5.75881 36.5752C5.87932 36.6957 6.03325 36.7555 6.21848 36.7555H7.73798H7.76298V36.7305V11.2695ZM9.98198 36.7305V36.7555H10.007H38.661H38.686V36.7305V11.2695V11.2445H38.661H10.007H9.98198V11.2695V36.7305ZM40.93 11.2445H40.905V11.2695V36.7305V36.7555H40.93H42.4495C42.6347 36.7555 42.7887 36.6957 42.9092 36.5752C43.0297 36.4547 43.0895 36.3007 43.0895 36.1155V11.8845C43.0895 11.6993 43.0297 11.5453 42.9092 11.4248C42.7887 11.3043 42.6347 11.2445 42.4495 11.2445H40.93ZM16.859 22.302V20.698H31.809V22.302H16.859ZM18.859 28.302V26.698H29.809V28.302H18.859ZM6.21848 38.975C5.43894 38.975 4.76792 38.6936 4.20416 38.1298C3.6404 37.5661 3.35898 36.895 3.35898 36.1155V11.8845C3.35898 11.105 3.6404 10.4339 4.20416 9.87018C4.76792 9.30642 5.43894 9.025 6.21848 9.025H42.4495C43.229 9.025 43.9 9.30642 44.4638 9.87018C45.0276 10.4339 45.309 11.105 45.309 11.8845V36.1155C45.309 36.895 45.0276 37.5661 44.4638 38.1298C43.9 38.6936 43.229 38.975 42.4495 38.975H6.21848Z" fill="url(#paint0_linear_2627_6906)" stroke="url(#paint1_linear_2627_6906)" stroke-width="0.05"/>
</g>
</g>
<defs>
<linearGradient id="paint0_linear_2627_6906" x1="24.334" y1="9" x2="24.334" y2="39" gradientUnits="userSpaceOnUse">
<stop stop-color="#F26A1B"/>
<stop offset="1" stop-color="#F7B690"/>
</linearGradient>
<linearGradient id="paint1_linear_2627_6906" x1="24.334" y1="9" x2="24.334" y2="39" gradientUnits="userSpaceOnUse">
<stop stop-color="#F26A1B"/>
<stop offset="1" stop-color="#F7B690"/>
</linearGradient>
</defs>
</svg>
