<svg width="20" height="20" viewBox="0 0 20 20" fill="none" xmlns="http://www.w3.org/2000/svg">
<path d="M15.2494 7.49263L8.55134 14.1906L4.74684 10.376L5.62712 9.48969L8.53364 12.3962L8.55132 12.4139L8.569 12.3962L14.3527 6.60604L15.2494 7.49263ZM10.0096 19.474C8.70567 19.474 7.47848 19.2253 6.32773 18.7281C5.17653 18.2306 4.17177 17.5529 3.31324 16.6948C2.45487 15.8367 1.7768 14.8323 1.27901 13.6816C0.781584 12.5314 0.532813 11.3045 0.532813 10.0008C0.532813 8.69003 0.781509 7.45833 1.27877 6.30543C1.77622 5.15207 2.45395 4.14909 3.31194 3.29626C4.17014 2.44337 5.1745 1.76802 6.32524 1.27022C7.47548 0.772795 8.70234 0.524023 10.0061 0.524023C11.3168 0.524023 12.5485 0.77272 13.7014 1.26998C14.8548 1.76745 15.8578 2.44245 16.7106 3.29496C17.5635 4.14746 18.2388 5.15005 18.7366 6.30294C19.234 7.45534 19.4828 8.6867 19.4828 9.99728C19.4828 11.3012 19.2341 12.5284 18.7369 13.6791C18.2394 14.8303 17.5644 15.8351 16.7118 16.6937C15.8593 17.552 14.8568 18.23 13.7039 18.7278C12.5515 19.2253 11.3201 19.474 10.0096 19.474ZM10.0078 18.2675C12.3109 18.2675 14.2653 17.4635 15.8698 15.8557C17.474 14.2479 18.2763 12.2952 18.2763 9.99903C18.2763 7.69601 17.474 5.74153 15.8697 4.1371C14.2653 2.53283 12.3108 1.73052 10.0078 1.73052C7.71161 1.73052 5.7589 2.53284 4.15116 4.13708C2.54338 5.74151 1.73931 7.69599 1.73931 9.99903C1.73931 12.2952 2.54339 14.248 4.15114 15.8557C5.75888 17.4634 7.71159 18.2675 10.0078 18.2675Z" fill="url(#paint0_linear_2607_5885)" stroke="url(#paint1_linear_2607_5885)" stroke-width="0.05"/>
<defs>
<linearGradient id="paint0_linear_2607_5885" x1="10.0078" y1="0.499023" x2="10.0078" y2="19.499" gradientUnits="userSpaceOnUse">
<stop stop-color="#F26A1B"/>
<stop offset="1" stop-color="#F7B690"/>
</linearGradient>
<linearGradient id="paint1_linear_2607_5885" x1="10.0078" y1="0.499023" x2="10.0078" y2="19.499" gradientUnits="userSpaceOnUse">
<stop stop-color="#F26A1B"/>
<stop offset="1" stop-color="#F7B690"/>
</linearGradient>
</defs>
</svg>
