<svg width="48" height="48" viewBox="0 0 48 48" fill="none" xmlns="http://www.w3.org/2000/svg">
<g id="database_upload">
<mask id="mask0_2627_6936" style="mask-type:alpha" maskUnits="userSpaceOnUse" x="0" y="0" width="48" height="48">
<rect id="Bounding box" width="48" height="48" fill="#D9D9D9"/>
</mask>
<g mask="url(#mask0_2627_6936)">
<path id="database_upload_2" d="M38.4387 13.4694L38.4509 13.4538L38.4385 13.4383C38.011 12.9074 37.3194 12.4017 36.3659 11.9204C35.4122 11.439 34.1949 10.9813 32.7145 10.547C29.7534 9.67873 26.8486 9.2445 24 9.2445C21.1026 9.2445 18.1759 9.66202 15.2202 10.4969C13.7423 10.9145 12.5259 11.3617 11.5714 11.8386C10.6172 12.3154 9.92332 12.8228 9.49199 13.3614L9.47996 13.3764L9.4914 13.3919C9.91631 13.9665 10.6005 14.5004 11.5418 14.9943C12.4832 15.4882 13.6831 15.9429 15.1411 16.3585C18.0573 17.1902 21.0103 17.606 24 17.606C26.8435 17.606 29.7521 17.1831 32.7258 16.3375C34.2127 15.9148 35.4323 15.4647 36.3842 14.9872C37.3358 14.5098 38.0215 14.0042 38.4387 13.4694ZM35.4555 41.546V41.571H35.4805H36.8845H36.9095V41.546V33.1531L40.6398 36.9021L40.6575 36.9199L40.6752 36.9022L41.6677 35.9102L41.6854 35.8925L41.6677 35.8748L36.1907 30.3978L36.173 30.3801L36.1553 30.3978L30.6783 35.8748L30.6606 35.8925L30.6783 35.9102L31.6708 36.9022L31.6885 36.9199L31.7062 36.9022L35.4555 33.1529V41.546ZM38.7555 16.369V16.3253L38.7178 16.3474C36.8695 17.4332 34.6458 18.2779 32.0463 18.8811C29.4469 19.4847 26.7545 19.7865 23.969 19.7865C21.1121 19.7865 18.382 19.4815 15.7787 18.8717C13.1756 18.2618 11.0104 17.4203 9.28269 16.3478L9.2445 16.3241V16.369V24.85V24.8644L9.25698 24.8716C10.9697 25.8629 13.1086 26.6604 15.6733 27.2648C18.238 27.869 21.0033 28.171 23.969 28.171C24.4593 28.171 24.9391 28.1627 25.4084 28.146C25.8586 28.13 26.318 28.1028 26.7868 28.0645C26.4838 28.4153 26.2063 28.7822 25.9541 29.1653C25.6938 29.5604 25.4564 29.9688 25.2422 30.3905L24.3345 30.3905L24.3343 30.3905C21.1948 30.4162 18.3813 30.1546 15.8939 29.6061C13.4065 29.0579 11.2028 28.2 9.28249 27.0326L9.2445 27.0095V27.054V34.1425H9.24255L9.24631 34.1518C9.49272 34.7645 10.0978 35.3494 11.0549 35.9081C12.0119 36.467 13.1778 36.9586 14.5521 37.3834C15.9265 37.8081 17.4521 38.1462 19.1288 38.3977C20.7989 38.6482 22.4798 38.7675 24.1717 38.7557C24.2462 39.1551 24.3549 39.5414 24.4977 39.9144L24.521 39.9055L24.4977 39.9144C24.6381 40.2809 24.7899 40.6347 24.9532 40.9759C23.5664 41.0067 21.8559 40.92 19.8215 40.7156C17.7693 40.5091 15.7957 40.1337 13.9009 39.5895C12.007 39.0451 10.3866 38.3063 9.03923 37.3734L9.025 37.394L9.03923 37.3734C7.69498 36.4431 7.025 35.2548 7.025 33.8075V14C7.025 12.0862 8.66949 10.4427 11.9865 9.07511C15.3007 7.70868 19.305 7.025 24 7.025C28.695 7.025 32.6993 7.70868 36.0135 9.07511C39.3305 10.4427 40.975 12.0862 40.975 14V24.6833C40.6338 24.5205 40.2801 24.3752 39.9137 24.2474C39.5409 24.1172 39.1548 24.015 38.7555 23.9407V16.369ZM36.173 44.5905C33.8103 44.5905 31.7853 43.7546 30.0966 42.0822C28.4077 40.4099 27.5635 38.3868 27.5635 36.0115C27.5635 33.6285 28.4077 31.5932 30.0967 29.9042C31.7854 28.2151 33.8104 27.371 36.173 27.371C38.5356 27.371 40.5606 28.2151 42.2493 29.9042C43.9383 31.5932 44.7825 33.6285 44.7825 36.0115C44.7825 38.3868 43.9383 40.4099 42.2494 42.0822C40.5607 43.7546 38.5357 44.5905 36.173 44.5905Z" fill="url(#paint0_linear_2627_6936)" stroke="url(#paint1_linear_2627_6936)" stroke-width="0.05"/>
</g>
</g>
<defs>
<linearGradient id="paint0_linear_2627_6936" x1="25.9038" y1="7" x2="25.9038" y2="44.6155" gradientUnits="userSpaceOnUse">
<stop stop-color="#F26A1B"/>
<stop offset="1" stop-color="#F7B690"/>
</linearGradient>
<linearGradient id="paint1_linear_2627_6936" x1="25.9038" y1="7" x2="25.9038" y2="44.6155" gradientUnits="userSpaceOnUse">
<stop stop-color="#F26A1B"/>
<stop offset="1" stop-color="#F7B690"/>
</linearGradient>
</defs>
</svg>
