<svg width="56" height="56" viewBox="0 0 56 56" fill="none" xmlns="http://www.w3.org/2000/svg">
<g id="dynamic_form">
<mask id="mask0_2589_7197" style="mask-type:alpha" maskUnits="userSpaceOnUse" x="0" y="0" width="56" height="56">
<rect id="Bounding box" width="56" height="56" fill="#D9D9D9"/>
</mask>
<g mask="url(#mask0_2589_7197)">
<path id="dynamic_form_2" d="M8.09958 12.7662L8.08193 12.7485C7.9418 12.8882 7.87217 13.0667 7.87217 13.2819V22.7278C7.87217 22.9429 7.9418 23.1214 8.08193 23.2612C8.22166 23.4009 8.40014 23.4703 8.61525 23.4703H28.5384H28.5634V23.4453V12.5638V12.5388H28.5384H8.61525C8.4001 12.5388 8.22161 12.6084 8.08188 12.7486L8.09958 12.7662ZM8.09958 12.7662C8.23414 12.6313 8.40603 12.5638 8.61525 12.5638H28.5134L8.61525 23.4453C8.40603 23.4453 8.23414 23.378 8.09958 23.2435C7.96464 23.1089 7.89717 22.937 7.89717 22.7278V13.2819C7.89717 13.0727 7.96464 12.9008 8.09958 12.7662ZM33.2301 43.4611H33.2051H8.61525C8.40013 43.4611 8.22165 43.3915 8.08193 43.2514C8.08191 43.2514 8.0819 43.2514 8.08188 43.2514L8.09958 43.2337C7.96464 43.0992 7.89717 42.9273 7.89717 42.718V33.2721C7.89717 33.0629 7.96464 32.891 8.09958 32.7565L33.2301 43.4611ZM33.2301 43.4611V43.4361V32.5546V32.5296H33.2051H8.61525C8.40014 32.5296 8.22166 32.599 8.08193 32.7388L33.2301 43.4611ZM6.26518 25.0779L6.26517 25.0779C5.60471 24.4178 5.275 23.6348 5.275 22.7278V13.2819C5.275 12.3748 5.60471 11.5919 6.26517 10.9318L6.26518 10.9318C6.92526 10.2713 7.7082 9.94163 8.61525 9.94163H31.1606V26.068H8.61525C7.7082 26.068 6.92526 25.7383 6.26518 25.0779ZM6.26517 30.9221L6.26518 30.922C6.92526 30.2616 7.7082 29.9319 8.61525 29.9319H35.8272V46.0583H8.61525C7.7082 46.0583 6.92526 45.7286 6.26518 45.0681L6.2475 45.0858L6.26517 45.0681C5.60471 44.408 5.275 43.6251 5.275 42.718V33.2721C5.275 32.3651 5.60471 31.5821 6.26517 30.9221ZM39.6917 45.9687V26.093V26.068H39.6667H35.025V9.94163H50.4446L45.7904 22.5616L45.778 22.5953H45.8138H50.3966L39.6917 45.9687ZM15.0746 36.2587V39.7087H11.6246V36.2587H15.0746ZM15.0746 16.2685V19.7185H11.6246V16.2685H15.0746Z" fill="url(#paint0_linear_2589_7197)" stroke="url(#paint1_linear_2589_7197)" stroke-width="0.05"/>
</g>
</g>
<defs>
<linearGradient id="paint0_linear_2589_7197" x1="27.8652" y1="9.91663" x2="27.8652" y2="46.0833" gradientUnits="userSpaceOnUse">
<stop stop-color="#F26A1B"/>
<stop offset="1" stop-color="#F7B690"/>
</linearGradient>
<linearGradient id="paint1_linear_2589_7197" x1="27.8652" y1="9.91663" x2="27.8652" y2="46.0833" gradientUnits="userSpaceOnUse">
<stop stop-color="#F26A1B"/>
<stop offset="1" stop-color="#F7B690"/>
</linearGradient>
</defs>
</svg>
