<svg width="49" height="48" viewBox="0 0 49 48" fill="none" xmlns="http://www.w3.org/2000/svg">
<g id="folder_data">
<mask id="mask0_2627_6930" style="mask-type:alpha" maskUnits="userSpaceOnUse" x="0" y="0" width="49" height="48">
<rect id="Bounding box" x="0.666016" width="48" height="48" fill="#D9D9D9"/>
</mask>
<g mask="url(#mask0_2627_6930)">
<path id="folder_data_2" d="M30.0206 39.3235L30.037 39.3175V39.3V26.7845V26.767L30.0206 26.761C29.4386 26.5475 28.9626 26.1783 28.5925 25.6526L28.5924 25.6526C28.2221 25.1274 28.037 24.5461 28.037 23.908C28.037 23.0234 28.3397 22.2807 28.9451 21.6782C29.5511 21.076 30.2864 20.775 31.1525 20.775C32.019 20.775 32.7522 21.0771 33.3538 21.6816L33.3715 21.664L33.3538 21.6816C33.9557 22.2859 34.2565 23.0197 34.2565 23.8845C34.2565 24.5384 34.0714 25.1276 33.7011 25.6526L33.7011 25.6526C33.3309 26.1783 32.8549 26.5475 32.2729 26.761L32.2565 26.767V26.7845V34.0925V34.1272L32.2894 34.1162L41.4044 31.0777L41.4215 31.072V31.054V26.7845V26.767L41.4051 26.761C40.8231 26.5475 40.3471 26.1783 39.977 25.6526L39.9565 25.667L39.9769 25.6526C39.6066 25.1274 39.4215 24.5461 39.4215 23.908C39.4215 23.0234 39.7244 22.2807 40.3301 21.6782C40.9357 21.076 41.671 20.775 42.5375 20.775C43.4036 20.775 44.1369 21.0771 44.7388 21.6816C45.3404 22.2859 45.641 23.0197 45.641 23.8845C45.641 24.5384 45.4561 25.1276 45.0861 25.6526C44.7156 26.1783 44.2395 26.5475 43.6574 26.761L43.641 26.767V26.7845V32.679L32.2736 36.4493L32.2565 36.455V36.473V39.3V39.3175L32.2729 39.3235C32.8547 39.5369 33.3306 39.9143 33.7009 40.4566L33.7215 40.4425L33.7009 40.4566C34.0715 40.9989 34.2565 41.5889 34.2565 42.227C34.2565 43.1113 33.9538 43.8538 33.3484 44.4563C32.7425 45.0585 32.0072 45.3595 31.141 45.3595C30.2745 45.3595 29.5413 45.0576 28.9397 44.4534C28.3378 43.8488 28.037 43.1148 28.037 42.25C28.037 41.5964 28.2221 40.9988 28.5927 40.4566L28.572 40.4425L28.5927 40.4566C28.9629 39.9143 29.4388 39.5369 30.0206 39.3235ZM6.53783 9.88504L6.53783 9.88504C7.10265 9.31129 7.77314 9.025 8.55052 9.025H21.0132L24.2753 12.2872L24.2827 12.2945H24.293H41.3965C42.0067 12.2945 42.5329 12.5156 42.9763 12.9587C43.4137 13.3961 43.6349 13.9139 43.6409 14.5135H23.3804L20.1182 11.2518L20.1109 11.2445H20.1005H8.55052C8.36528 11.2445 8.21135 11.3043 8.09084 11.4248C7.97033 11.5453 7.91052 11.6993 7.91052 11.8845V36.1155C7.91052 36.3007 7.97033 36.4547 8.09084 36.5752C8.21135 36.6957 8.36528 36.7555 8.55052 36.7555H24.3335V38.975H8.55052C7.77314 38.975 7.10265 38.6887 6.53783 38.115L6.52002 38.1325L6.53783 38.115C5.9728 37.5413 5.69102 36.8752 5.69102 36.1155V11.8845C5.69102 11.1248 5.9728 10.4587 6.53783 9.88504Z" fill="url(#paint0_linear_2627_6930)" stroke="url(#paint1_linear_2627_6930)" stroke-width="0.05"/>
</g>
</g>
<defs>
<linearGradient id="paint0_linear_2627_6930" x1="25.666" y1="9" x2="25.666" y2="45.3845" gradientUnits="userSpaceOnUse">
<stop stop-color="#F26A1B"/>
<stop offset="1" stop-color="#F7B690"/>
</linearGradient>
<linearGradient id="paint1_linear_2627_6930" x1="25.666" y1="9" x2="25.666" y2="45.3845" gradientUnits="userSpaceOnUse">
<stop stop-color="#F26A1B"/>
<stop offset="1" stop-color="#F7B690"/>
</linearGradient>
</defs>
</svg>
