<svg width="56" height="56" viewBox="0 0 56 56" fill="none" xmlns="http://www.w3.org/2000/svg">
<g id="groups_2">
<mask id="mask0_2589_7211" style="mask-type:alpha" maskUnits="userSpaceOnUse" x="0" y="0" width="56" height="56">
<rect id="Bounding box" width="56" height="56" fill="#D9D9D9"/>
</mask>
<g mask="url(#mask0_2589_7211)">
<path id="groups_2_2" d="M8.64828 32.4591L8.64902 32.4591L12.0866 32.4591C12.804 32.4591 13.4226 32.2284 13.9437 31.7671L13.9437 31.7671C14.465 31.306 14.7239 30.7729 14.7239 30.1671V30.1659L14.724 30.1659C14.7387 29.8529 14.719 29.6221 14.667 29.4712L14.6664 29.4694L14.6664 29.4694C14.6423 29.3786 14.6399 29.3035 14.6673 29.2495C14.7492 28.9672 14.8106 28.7504 14.8515 28.5991C14.8721 28.5232 14.8874 28.464 14.8976 28.4212C14.9027 28.3999 14.9065 28.3828 14.9089 28.37C14.9116 28.3565 14.9123 28.3495 14.9123 28.3471C14.9123 28.0698 14.8569 27.8092 14.746 27.5653L14.746 27.5652C14.6349 27.3204 14.4774 27.0943 14.2732 26.887L14.2705 26.8843L14.2707 26.8841C14.229 26.8261 14.2077 26.7627 14.2077 26.6945V26.6855L14.2092 26.686C14.271 26.5148 14.3078 26.3376 14.3197 26.1545C14.3316 25.9728 14.3142 25.7745 14.2671 25.5594C14.1004 25.1699 13.8631 24.8681 13.5557 24.6529L13.5557 24.6529C13.2479 24.4372 12.893 24.3123 12.4903 24.2782C12.49 24.2782 12.4897 24.2782 12.4893 24.2782L12.4914 24.2533C12.4615 24.2533 12.4391 24.2457 12.4244 24.2305L8.64828 32.4591ZM8.64828 32.4591C7.96223 32.4792 7.36811 32.3425 6.86491 32.0501L6.8649 32.05C6.36326 31.7587 6.03822 31.2998 5.89027 30.6706L5.89017 30.6702C5.82108 30.3973 5.81539 30.1298 5.87285 29.8673C5.92969 29.6082 6.00732 29.354 6.10575 29.1047C6.10733 29.1031 6.10846 29.1015 6.1092 29.1002C6.11247 29.0949 6.11314 29.0894 6.11335 29.0877L6.11335 29.0876C6.11368 29.085 6.11377 29.0822 6.11377 29.0798L6.07983 29.0732C6.07896 29.0708 6.07803 29.068 6.07703 29.0649C6.07782 29.0646 6.07866 29.0642 6.07955 29.0639C6.08774 29.0613 6.09479 29.0635 6.09871 29.0657C6.10223 29.0676 6.10429 29.0699 6.10499 29.0707L6.10647 29.0727C6.10664 29.073 6.10583 29.0716 6.10404 29.0667C6.10244 29.0623 6.10046 29.0563 6.0981 29.0485C6.0886 29.0174 6.07417 28.9622 6.05472 28.8825L6.057 28.8819L6.05024 28.8732C6.04815 28.8705 6.04352 28.8627 6.03596 28.8477C6.02873 28.8333 6.01959 28.8139 6.00848 28.7893C5.9863 28.7402 5.95664 28.6711 5.91949 28.5819C5.84536 28.404 5.74163 28.1468 5.60829 27.8104C5.53892 27.4497 5.5706 27.1256 5.70201 26.8373L5.70203 26.8372C5.83353 26.5475 6.02926 26.2705 6.28975 26.0063C6.29601 26.0042 6.30143 26.0009 6.30559 25.998C6.31318 25.9927 6.32122 25.9855 6.32959 25.977C6.34639 25.9599 6.36695 25.935 6.3911 25.9028L6.3942 25.9051L6.39592 25.8907C6.46291 25.3329 6.69574 24.8682 7.09458 24.4955C7.49228 24.1243 7.99242 23.938 8.59688 23.9376L8.59814 23.9378L8.60775 23.9393L8.64615 23.9454L8.79952 23.9698L9.41099 24.0674L9.41065 24.0695L9.42093 24.0669L9.56734 24.0308L9.56812 24.0339L9.57795 24.0252C9.72485 23.8947 9.91367 23.7867 10.1451 23.7015L10.1452 23.7015C10.3766 23.6162 10.6096 23.5736 10.8441 23.5736C11.169 23.5736 11.4623 23.63 11.7244 23.7425L11.7244 23.7425C11.9863 23.8544 12.1899 24.0144 12.3362 24.2221L12.3437 24.2328H12.3567C12.3826 24.2328 12.3977 24.2393 12.4066 24.2481L8.64828 32.4591ZM21.6837 26.6315L21.6838 26.6309L22.4018 22.2563C22.4018 22.2562 22.4018 22.2562 22.4018 22.2561C22.652 20.8739 23.3057 19.7403 24.3632 18.8544L24.3471 18.8353L24.3632 18.8544C25.4204 17.968 26.6338 17.525 28.0046 17.525C29.4074 17.525 30.6368 17.9681 31.6939 18.8544L31.7099 18.8353L31.6939 18.8544C32.7513 19.7403 33.405 20.8739 33.6552 22.2561C33.6552 22.2562 33.6552 22.2562 33.6553 22.2563L34.3733 26.6309L34.3734 26.6315C34.4976 27.2825 34.3469 27.8627 33.9208 28.3742C33.4944 28.886 32.9408 29.1417 32.2577 29.1417H23.7994C23.1163 29.1417 22.5626 28.886 22.1362 28.3742C21.7101 27.8627 21.5595 27.2825 21.6837 26.6315ZM24.3312 26.5154L24.3264 26.5445H24.3559H31.7012H31.7306L31.7259 26.5155L31.0976 22.6818L31.0975 22.6811C30.9529 21.929 30.5968 21.3141 30.0291 20.8374C29.4617 20.3609 28.7941 20.1228 28.0274 20.1228C27.261 20.1228 26.5945 20.3625 26.029 20.8421L26.0452 20.8612L26.029 20.8421C25.4638 21.3219 25.1088 21.9326 24.9642 22.6735L24.9641 22.6742L24.3312 26.5154ZM43.5016 27.0072L43.5117 26.9895L43.4963 26.9761L42.2252 25.8694C42.2251 25.8693 42.225 25.8692 42.2249 25.8691C42.085 25.7399 42.0041 25.6035 41.9791 25.4602C41.954 25.3169 41.9843 25.1635 42.0727 24.9989C42.1618 24.8334 42.27 24.7107 42.3968 24.6292C42.5236 24.5479 42.6702 24.5069 42.8376 24.5069H46.428C47.4088 24.5069 48.2453 24.8541 48.9391 25.549C49.6329 26.244 49.9794 27.0784 49.9794 28.0537V28.9468C49.9794 29.9154 49.6331 30.7467 48.9396 31.4421C48.2462 32.1374 47.4136 32.4848 46.4403 32.4848C45.4666 32.4848 44.6328 32.1351 43.9374 31.4351C43.242 30.7351 42.8947 29.8968 42.8947 28.9188C42.8947 28.5635 42.956 28.2271 43.0785 27.9092L43.0552 27.9003L43.0785 27.9092C43.2014 27.5899 43.3424 27.2892 43.5016 27.0072ZM10.8302 34.2579L10.8303 34.2579C11.2394 34.2839 11.6303 34.329 12.0029 34.3932C11.7422 34.9825 11.5425 35.5889 11.4036 36.2126L11.4036 36.2126C11.2628 36.8472 11.1924 37.5148 11.1924 38.2153V41.4815H1.19102V39.088C1.19102 37.6513 1.96017 36.4806 3.50672 35.5757C5.05338 34.6706 7.06266 34.2171 9.53627 34.2171C9.97792 34.2171 10.4092 34.2307 10.8302 34.2579ZM44.6244 36.2133L44.5999 36.218L44.6244 36.2133C44.5047 35.5894 44.3074 34.9833 44.0327 34.395C44.4194 34.3296 44.8165 34.2839 45.2239 34.2579C45.6433 34.2307 46.0717 34.2171 46.5091 34.2171C49.0163 34.2171 51.026 34.6707 52.5402 35.5756C54.0544 36.4803 54.8077 37.651 54.8077 39.088V41.4815H44.8063V38.2153C44.8063 37.5151 44.7457 36.8477 44.6244 36.2133ZM17.766 38.8588V38.8838H17.791H38.2077H38.2327V38.8588V38.3522C38.2776 36.938 37.3569 35.7831 35.4879 34.8853C33.6182 33.9874 31.1177 33.5394 27.9883 33.5394C24.9124 33.5394 22.4291 33.9875 20.54 34.8853C18.6515 35.7832 17.721 36.9501 17.766 38.3884V38.8588ZM15.191 41.4815V38.2982C15.191 36.0806 16.37 34.3006 18.7361 32.9579C21.103 31.6144 24.1923 30.9417 28.0058 30.9417C31.8547 30.9417 34.9508 31.6144 37.2958 32.9579C39.6396 34.3005 40.8077 36.0805 40.8077 38.2982V41.4815H15.191Z" fill="url(#paint0_linear_2589_7211)" stroke="url(#paint1_linear_2589_7211)" stroke-width="0.05"/>
</g>
</g>
<defs>
<linearGradient id="paint0_linear_2589_7211" x1="27.9993" y1="17.5" x2="27.9993" y2="41.5065" gradientUnits="userSpaceOnUse">
<stop stop-color="#F26A1B"/>
<stop offset="1" stop-color="#F7B690"/>
</linearGradient>
<linearGradient id="paint1_linear_2589_7211" x1="27.9993" y1="17.5" x2="27.9993" y2="41.5065" gradientUnits="userSpaceOnUse">
<stop stop-color="#F26A1B"/>
<stop offset="1" stop-color="#F7B690"/>
</linearGradient>
</defs>
</svg>
