<svg width="49" height="48" viewBox="0 0 49 48" fill="none" xmlns="http://www.w3.org/2000/svg">
<g id="host">
<mask id="mask0_2627_6924" style="mask-type:alpha" maskUnits="userSpaceOnUse" x="0" y="0" width="49" height="48">
<rect id="Bounding box" x="0.333984" width="48" height="48" fill="#D9D9D9"/>
</mask>
<g mask="url(#mask0_2627_6924)">
<path id="host_2" d="M8.21848 40.975C7.44098 40.975 6.77045 40.6931 6.20566 40.1283C5.64088 39.5635 5.35898 38.893 5.35898 38.1155V9.8845C5.35898 9.10699 5.64088 8.43646 6.20566 7.87168C6.77045 7.30689 7.44098 7.025 8.21848 7.025H19.257C20.0345 7.025 20.705 7.30689 21.2698 7.87168C21.8346 8.43646 22.1165 9.10699 22.1165 9.8845V38.1155C22.1165 38.893 21.8346 39.5635 21.2698 40.1283C20.705 40.6931 20.0345 40.975 19.257 40.975H8.21848ZM29.411 40.975C28.6335 40.975 27.9629 40.6931 27.3982 40.1283C26.8334 39.5635 26.5515 38.893 26.5515 38.1155V9.8845C26.5515 9.10699 26.8334 8.43646 27.3982 7.87168C27.9629 7.30689 28.6335 7.025 29.411 7.025H40.4495C41.227 7.025 41.8975 7.30689 42.4623 7.87168C43.0271 8.43646 43.309 9.10699 43.309 9.8845V38.1155C43.309 38.893 43.0271 39.5635 42.4623 40.1283C41.8975 40.6931 41.227 40.975 40.4495 40.975H29.411ZM19.5239 38.7055C19.5957 38.6756 19.6602 38.6322 19.7172 38.5752C19.8377 38.4547 19.8975 38.3007 19.8975 38.1155V9.8845C19.8975 9.69926 19.8377 9.54533 19.7172 9.42482C19.5966 9.3043 19.4425 9.2445 19.257 9.2445H8.21848C8.03325 9.2445 7.87932 9.30431 7.75881 9.42482C7.6383 9.54533 7.57848 9.69926 7.57848 9.8845V38.1155C7.57848 38.3007 7.6383 38.4547 7.75881 38.5752C7.81579 38.6322 7.88023 38.6756 7.95193 38.7055H7.60348V38.7305V38.7555H8.21848H19.257H19.8725V38.7305V38.7055H19.5239ZM40.716 38.7055C40.7877 38.6756 40.8522 38.6322 40.9092 38.5752C41.0297 38.4547 41.0895 38.3007 41.0895 38.1155V9.8845C41.0895 9.69926 41.0297 9.54533 40.9092 9.42482C40.7887 9.30431 40.6347 9.2445 40.4495 9.2445H29.411C29.2254 9.2445 29.0713 9.3043 28.9508 9.42482C28.8303 9.54533 28.7705 9.69926 28.7705 9.8845V38.1155C28.7705 38.3007 28.8303 38.4547 28.9508 38.5752C29.0078 38.6322 29.0723 38.6756 29.144 38.7055H28.7955V38.7305V38.7555H29.411H40.4495H41.0645V38.7305V38.7055H40.716ZM16.6935 26.8865V29.1055H10.7435V26.8865H16.6935ZM37.9245 26.8865V29.1055H31.9745V26.8865H37.9245ZM16.6935 20.9365V23.1555H10.7435V20.9365H16.6935ZM37.9245 20.9365V23.1555H31.9745V20.9365H37.9245ZM16.6935 14.948V17.1675H10.7435V14.948H16.6935ZM37.9245 14.948V17.1675H31.9745V14.948H37.9245Z" fill="url(#paint0_linear_2627_6924)" stroke="url(#paint1_linear_2627_6924)" stroke-width="0.05"/>
</g>
</g>
<defs>
<linearGradient id="paint0_linear_2627_6924" x1="24.334" y1="7" x2="24.334" y2="41" gradientUnits="userSpaceOnUse">
<stop stop-color="#F26A1B"/>
<stop offset="1" stop-color="#F7B690"/>
</linearGradient>
<linearGradient id="paint1_linear_2627_6924" x1="24.334" y1="7" x2="24.334" y2="41" gradientUnits="userSpaceOnUse">
<stop stop-color="#F26A1B"/>
<stop offset="1" stop-color="#F7B690"/>
</linearGradient>
</defs>
</svg>
