<svg width="48" height="48" viewBox="0 0 48 48" fill="none" xmlns="http://www.w3.org/2000/svg">
<g id="model_training">
<mask id="mask0_2627_6918" style="mask-type:alpha" maskUnits="userSpaceOnUse" x="0" y="0" width="48" height="48">
<rect id="Bounding box" width="48" height="48" fill="#D9D9D9"/>
</mask>
<g mask="url(#mask0_2627_6918)">
<path id="model_training_2" d="M25.4877 10.8155C26.033 10.8422 26.5659 10.8762 27.0865 10.9176L27.1405 10.9219L27.1022 10.9602L22.3854 15.677L23.981 17.2722L31.2531 10L23.981 2.72786L22.4354 4.27301L26.7562 8.59383L26.8017 8.63933L26.7374 8.63648C26.2784 8.61615 25.8355 8.59765 25.4085 8.58099C24.9822 8.56433 24.5127 8.55601 24 8.55601C19.1348 8.55601 15.0065 10.247 11.6137 13.6292C8.2211 17.0118 6.525 21.1349 6.525 26C6.525 28.0766 6.85789 30.0379 7.52352 31.884C8.1861 33.7214 9.12513 35.3976 10.3406 36.9127L11.9544 35.3176C10.8827 34.0654 10.0804 32.6204 9.54723 30.9827C9.01177 29.338 8.744 27.677 8.744 26C8.744 21.7754 10.2306 18.1812 13.2034 15.2188C16.1761 12.2564 19.7754 10.775 24 10.775C24.4468 10.775 24.9427 10.7885 25.4877 10.8155ZM25.4877 10.8155C25.4877 10.8155 25.4877 10.8155 25.4877 10.8155L25.4865 10.8405L25.4877 10.8155ZM27.0613 10.9657L22.3677 15.6593L27.0613 10.9657ZM27.0613 10.9657C27.0684 10.9663 27.0754 10.9669 27.0825 10.9674L27.0845 10.9425L27.0668 10.9248L27.0517 10.9399L27.0613 10.9657ZM22.3728 37.0325C22.2925 36.1958 22.0129 35.4091 21.5345 34.6729C21.0535 33.9328 20.5404 33.1952 19.9951 32.4601C19.4506 31.7262 18.9512 30.9667 18.4966 30.1815C18.0439 29.3997 17.8175 28.5446 17.8175 27.6155C17.8175 25.9169 18.4232 24.4622 19.6352 23.2502C20.8472 22.0382 22.3017 21.4325 24 21.4325C25.6983 21.4325 27.1528 22.0382 28.3648 23.2502C29.5769 24.4622 30.1825 25.9169 30.1825 27.6155C30.1825 28.5315 29.9561 29.3835 29.5033 30.1721C29.0488 30.9635 28.5493 31.7262 28.0049 32.4601C27.4596 33.1952 26.9465 33.9328 26.4655 34.6729C25.9871 35.4091 25.7075 36.1958 25.6272 37.0325H22.3728ZM22.3325 41.6675V39.4675H25.6675V41.6675H22.3325ZM37.6595 36.9126L36.0949 35.348C37.039 34.1497 37.801 32.7556 38.381 31.1661C38.9644 29.5684 39.256 27.8463 39.256 26C39.256 23.8222 38.8193 21.7559 37.9458 19.8013C37.076 17.8542 35.792 16.138 34.0941 14.6528L35.7199 13.027C37.5013 14.6367 38.9051 16.5472 39.9313 18.7585C40.9604 20.977 41.475 23.3907 41.475 26C41.475 28.0766 41.1421 30.0379 40.4765 31.884C39.8139 33.7213 38.8749 35.3975 37.6595 36.9126Z" fill="url(#paint0_linear_2627_6918)" stroke="url(#paint1_linear_2627_6918)" stroke-width="0.05"/>
</g>
</g>
<defs>
<linearGradient id="paint0_linear_2627_6918" x1="24" y1="2.6925" x2="24" y2="41.6925" gradientUnits="userSpaceOnUse">
<stop stop-color="#F26A1B"/>
<stop offset="1" stop-color="#F7B690"/>
</linearGradient>
<linearGradient id="paint1_linear_2627_6918" x1="24" y1="2.6925" x2="24" y2="41.6925" gradientUnits="userSpaceOnUse">
<stop stop-color="#F26A1B"/>
<stop offset="1" stop-color="#F7B690"/>
</linearGradient>
</defs>
</svg>
