<svg width="56" height="56" viewBox="0 0 56 56" fill="none" xmlns="http://www.w3.org/2000/svg">
<g id="orbit">
<mask id="mask0_2589_7204" style="mask-type:alpha" maskUnits="userSpaceOnUse" x="0" y="0" width="56" height="56">
<rect id="Bounding box" width="56" height="56" fill="#D9D9D9"/>
</mask>
<g mask="url(#mask0_2589_7204)">
<path id="orbit_2" d="M19.6159 46.357V46.4285L19.6605 46.3725C19.7915 46.208 19.9151 46.0383 20.0311 45.8633C21.209 46.3871 22.4337 46.7902 23.7054 47.0726C25.1223 47.3868 26.5541 47.544 28.0007 47.544C33.4562 47.544 38.0782 45.6506 41.8649 41.8643C45.6455 38.0834 47.5388 33.4698 47.5446 28.025H50.1423C50.1391 31.0757 49.5578 33.9445 48.3984 36.6316C47.2361 39.3266 45.6586 41.6705 43.6659 43.6635C41.6732 45.6566 39.3299 47.2347 36.6357 48.3978C33.9421 49.5604 31.0638 50.1417 28.0007 50.1417C26.2456 50.1417 24.5368 49.9415 22.8743 49.541C21.2121 49.1405 19.5951 48.5518 18.0233 47.7748L18.01 47.7682L17.9978 47.7768C17.4224 48.1837 16.8019 48.4926 16.1363 48.7038C15.4702 48.9146 14.7868 49.02 14.0858 49.02C12.1133 49.02 10.4366 48.3295 9.05415 46.9483C7.67173 45.567 6.98073 43.8914 6.98073 41.9201C6.98073 39.9488 7.67115 38.2715 9.05243 36.8867C10.4337 35.5019 12.1093 34.8098 14.0806 34.8098C16.0519 34.8098 17.7292 35.5006 19.114 36.8827C20.4987 38.2651 21.1909 39.942 21.1909 41.9149C21.1909 42.731 21.0516 43.519 20.773 44.2793C20.5735 44.824 20.32 45.331 20.0127 45.8004C19.8918 45.7463 19.7715 45.691 19.6516 45.6344L19.6159 45.6175V45.657V46.357ZM19.6659 45.6964C19.7718 45.7461 19.8781 45.7949 19.9848 45.8427C19.8842 45.994 19.7779 46.1414 19.6659 46.2849V45.6964ZM17.2885 45.1158L17.2708 45.0981L17.2885 45.1158C18.1586 44.2445 18.5937 43.1766 18.5937 41.9137C18.5937 40.6504 18.158 39.5827 17.2867 38.7122C16.4159 37.8421 15.348 37.407 14.0847 37.407C12.8213 37.407 11.7538 37.8427 10.8837 38.714C10.0136 39.5848 9.57848 40.6527 9.57848 41.916C9.57848 43.1794 10.014 44.2469 10.8849 45.117L10.9026 45.0993L10.8849 45.117C11.7562 45.9871 12.8241 46.4222 14.087 46.4222C15.3503 46.4222 16.418 45.9867 17.2885 45.1158ZM37.978 8.22529L37.9909 8.23168L38.0029 8.22368C38.5847 7.83612 39.2054 7.54162 39.8654 7.34012C40.5256 7.13902 41.209 7.03846 41.9155 7.03846C43.8783 7.03846 45.5427 7.72345 46.9104 9.09379C48.2784 10.4641 48.9622 12.1317 48.9622 14.098C48.9622 16.0585 48.2772 17.7302 46.9068 19.1146C45.5364 20.4985 43.8689 21.1903 41.9026 21.1903C39.9423 21.1903 38.2706 20.4995 36.8861 19.1174C35.5022 17.735 34.8104 16.0581 34.8104 14.0852C34.8104 13.2691 34.9497 12.481 35.2283 11.7208L35.2048 11.7122L35.2283 11.7208C35.4282 11.1752 35.6859 10.6674 36.0015 10.1973C36.1255 10.2522 36.2489 10.3083 36.372 10.3658L36.4076 10.3824V10.3431V9.64312V9.57326L36.3632 9.62726C36.2287 9.79122 36.1021 9.96038 35.9835 10.1347C34.7951 9.61197 33.5659 9.20954 32.2959 8.92747L32.2905 8.95188L32.2959 8.92747C30.879 8.61324 29.4472 8.45612 28.0007 8.45612C22.545 8.45612 17.9231 10.3494 14.1364 14.1358C10.3558 17.9167 8.46252 22.5303 8.45675 27.975H5.859C5.86216 24.9243 6.44348 22.0556 7.60286 19.3684L7.5799 19.3585L7.60286 19.3684C8.76521 16.6735 10.3427 14.3296 12.3354 12.3365C14.3281 10.3435 16.6714 8.76538 19.3656 7.60224C22.0592 6.43971 24.9375 5.85837 28.0007 5.85837C29.7557 5.85837 31.4645 6.05862 33.127 6.4591C34.7892 6.85959 36.4062 7.44831 37.978 8.22529ZM36.3576 10.3039C36.2487 10.2533 36.1395 10.2038 36.03 10.1553C36.1331 10.0041 36.2423 9.85684 36.3576 9.71354V10.3039ZM45.0657 10.9409L45.048 10.9585L45.0657 10.9409C44.1996 10.0713 43.1473 9.63621 41.9102 9.63621C40.6806 9.63621 39.6224 10.0701 38.7369 10.9372C37.8509 11.8048 37.4076 12.8591 37.4076 14.0986C37.4076 15.338 37.8432 16.3974 38.7139 17.2756C39.5847 18.1538 40.6507 18.5931 41.9102 18.5931C43.1473 18.5931 44.1997 18.1539 45.0658 17.2761C45.9314 16.3987 46.3645 15.3363 46.3645 14.0905C46.3645 12.8608 45.9314 11.8105 45.0657 10.9409ZM28.0059 35.1051C26.0346 35.1051 24.3572 34.4147 22.9725 33.0334C21.5877 31.6522 20.8956 29.9766 20.8956 28.0053C20.8956 26.034 21.586 24.3566 22.9673 22.9719C24.3485 21.5871 26.0241 20.895 27.9954 20.895C29.9667 20.895 31.6441 21.5854 33.0288 22.9667C34.4136 24.3479 35.1057 26.0235 35.1057 27.9948C35.1057 29.9661 34.4153 31.6434 33.034 33.0282C31.6528 34.413 29.9772 35.1051 28.0059 35.1051Z" fill="url(#paint0_linear_2589_7204)" stroke="url(#paint1_linear_2589_7204)" stroke-width="0.05"/>
</g>
</g>
<defs>
<linearGradient id="paint0_linear_2589_7204" x1="28.0007" y1="5.83337" x2="28.0007" y2="50.1667" gradientUnits="userSpaceOnUse">
<stop stop-color="#F26A1B"/>
<stop offset="1" stop-color="#F7B690"/>
</linearGradient>
<linearGradient id="paint1_linear_2589_7204" x1="28.0007" y1="5.83337" x2="28.0007" y2="50.1667" gradientUnits="userSpaceOnUse">
<stop stop-color="#F26A1B"/>
<stop offset="1" stop-color="#F7B690"/>
</linearGradient>
</defs>
</svg>
