<svg width="48" height="48" viewBox="0 0 48 48" fill="none" xmlns="http://www.w3.org/2000/svg">
<g id="person_play">
<mask id="mask0_2600_5471" style="mask-type:alpha" maskUnits="userSpaceOnUse" x="0" y="0" width="48" height="48">
<rect id="Bounding box" width="48" height="48" fill="#D9D9D9"/>
</mask>
<g mask="url(#mask0_2600_5471)">
<path id="person_play_2" d="M28.6911 32.927V42.975H19.3101V32.9385V32.9156L19.2872 32.9136C17.2186 32.7393 15.1634 32.5169 13.1214 32.2462C11.0881 31.9771 9.05799 31.6068 7.03096 31.1354L7.57703 28.9144C10.2841 29.5401 12.9958 29.9911 15.7121 30.2674C18.4363 30.5442 21.2008 30.6825 24.0056 30.6825C26.8101 30.6825 29.5751 30.5442 32.3007 30.2674C35.0183 29.9911 37.7326 29.5401 40.4436 28.9145L40.9705 31.1354C38.9434 31.6068 36.9133 31.9793 34.8803 32.2528C32.8391 32.5274 30.7838 32.7438 28.7142 32.9021L28.6911 32.9039V32.927ZM10.7445 20.7373L10.7623 20.755L10.78 20.7371L13.911 17.5561L13.9284 17.5384L13.9108 17.5209L10.7798 14.3899L10.7623 14.3724L10.7447 14.3897L7.54466 17.5207L7.52654 17.5384L7.54452 17.5563L10.7445 20.7373ZM20.5129 12.1929L20.4951 12.2105L20.5129 12.1929C19.5596 11.2353 19.0831 10.073 19.0831 8.70453C19.0831 7.33643 19.5619 6.17666 20.5198 5.22375L20.5021 5.20603L20.5198 5.22375C21.4774 4.27081 22.6395 3.79453 24.0076 3.79453C25.3758 3.79453 26.5355 4.27311 27.4884 5.23067L27.5061 5.21303L27.4884 5.23067C28.4417 6.18825 28.9181 7.35038 28.9181 8.71853C28.9181 10.087 28.4394 11.2469 27.4815 12.1998L27.4991 12.2175L27.4815 12.1998C26.5239 13.1527 25.3618 13.629 23.9936 13.629C22.6255 13.629 21.4658 13.1505 20.5129 12.1929ZM21.5839 26.2544L21.5661 26.272L21.5839 26.2544C20.9192 25.5864 20.5871 24.7842 20.5871 23.8465C20.5871 22.8964 20.9179 22.0898 21.5799 21.4252C22.2418 20.761 23.0469 20.429 23.9966 20.429C24.9468 20.429 25.7533 20.7596 26.4175 21.4212C27.0821 22.0832 27.4141 22.8851 27.4141 23.8285C27.4141 24.7723 27.0834 25.579 26.4213 26.25C25.7594 26.9208 24.9543 27.256 24.0046 27.256C23.0546 27.256 22.2481 26.9223 21.5839 26.2544ZM25.9182 10.6383L25.9006 10.6205L25.9182 10.6383C26.4385 10.1237 26.6986 9.48388 26.6986 8.72053C26.6986 7.95695 26.4416 7.3142 25.9274 6.79396L25.9096 6.81153L25.9274 6.79395C25.4128 6.27364 24.773 6.01353 24.0096 6.01353C23.2461 6.01353 22.6033 6.27073 22.0831 6.78526C21.5627 7.29951 21.3026 7.93935 21.3026 8.70303C21.3026 9.46628 21.5597 10.1089 22.0739 10.6291L22.0916 10.6115L22.0739 10.6291C22.5885 11.1494 23.2283 11.4095 23.9916 11.4095C24.7552 11.4095 25.398 11.1525 25.9182 10.6383ZM35.9068 21.2237L35.9139 21.2365H35.9286H38.9006H38.9153L38.9225 21.2237L40.4185 18.5507L40.4253 18.5386L40.4185 18.5264L38.9325 15.8534L38.9253 15.8405H38.9106H35.9391H35.9245L35.9173 15.8533L34.4208 18.5263L34.414 18.5385L34.4208 18.5507L35.9068 21.2237ZM10.762 23.8336L4.46707 17.5386L10.762 11.2933L16.9884 17.5386L10.762 23.8336ZM34.6457 23.456L31.8679 18.5386L34.6627 13.621H40.1936L42.9719 18.5385L40.1771 23.456H34.6457Z" fill="url(#paint0_linear_2600_5471)" stroke="url(#paint1_linear_2600_5471)" stroke-width="0.05"/>
</g>
</g>
<defs>
<linearGradient id="paint0_linear_2600_5471" x1="23.7161" y1="3.76953" x2="23.7161" y2="43" gradientUnits="userSpaceOnUse">
<stop stop-color="#F26A1B"/>
<stop offset="1" stop-color="#F7B690"/>
</linearGradient>
<linearGradient id="paint1_linear_2600_5471" x1="23.7161" y1="3.76953" x2="23.7161" y2="43" gradientUnits="userSpaceOnUse">
<stop stop-color="#F26A1B"/>
<stop offset="1" stop-color="#F7B690"/>
</linearGradient>
</defs>
</svg>
