<svg width="48" height="48" viewBox="0 0 48 48" fill="none" xmlns="http://www.w3.org/2000/svg">
<g id="playing_cards">
<mask id="mask0_2627_6900" style="mask-type:alpha" maskUnits="userSpaceOnUse" x="0" y="0" width="48" height="48">
<rect id="Bounding box" width="48" height="48" fill="#D9D9D9"/>
</mask>
<g mask="url(#mask0_2627_6900)">
<path id="playing_cards_2" d="M25.5652 38.4394L25.5652 38.4394C25.3933 38.4923 25.2271 38.4857 25.0678 38.4191C25.0677 38.4191 25.0677 38.419 25.0677 38.419L25.0774 38.396C24.9234 38.332 24.8207 38.2166 24.7694 38.05L25.5652 38.4394ZM25.5652 38.4394L25.5664 38.439L40.0819 33.139L40.0824 33.1388C40.2544 33.0724 40.3782 32.9624 40.4519 32.8088L40.4519 32.8087C40.5255 32.6546 40.5284 32.4905 40.4622 32.3181C40.4622 32.3181 40.4622 32.318 40.4622 32.318L31.5278 7.90688L31.5277 7.90647C31.4612 7.73433 31.351 7.61352 31.1968 7.54654L31.1868 7.56947M25.5652 38.4394L24.7456 38.0579C24.7456 38.0577 24.7455 38.0575 24.7455 38.0573L15.7925 13.6169C15.7925 13.6168 15.7925 13.6168 15.7924 13.6167C15.7263 13.4439 15.7293 13.2767 15.8026 13.1166L15.8026 13.1165C15.8763 12.956 16.0005 12.8487 16.1734 12.7953L30.7073 7.52647L30.7085 7.52605L30.7085 7.52608C30.8804 7.47315 31.0436 7.47962 31.1969 7.54656L31.1868 7.56947M31.1868 7.56947C31.3342 7.63347 31.44 7.74881 31.5044 7.91547L30.7159 7.54997C30.8825 7.49864 31.0395 7.50514 31.1868 7.56947ZM5.565 33.1811L5.56507 33.1811L5.56583 33.1793L9.87935 23.1182V39.79L7.46025 38.8195C7.46015 38.8195 7.46005 38.8194 7.45996 38.8194C6.38165 38.3545 5.6571 37.5662 5.28506 36.453C4.91328 35.3397 5.00639 34.2496 5.565 33.1811ZM19.8463 41.8011C19.9565 41.9901 20.0977 42.1877 20.2696 42.394H17.6199C16.5095 42.394 15.5596 42.0018 14.769 41.2167C13.9784 40.4318 13.5833 39.4792 13.5833 38.3575V25.0972L19.5194 41.0972L19.5194 41.0973C19.6198 41.365 19.7287 41.5996 19.8463 41.8011ZM26.2804 40.5684L26.28 40.5686C25.5452 40.8459 24.8189 40.8233 24.0996 40.5007C23.3807 40.1781 22.8867 39.6484 22.6163 38.9104L22.5928 38.919L22.6163 38.9104L13.5934 14.33C13.329 13.5953 13.3619 12.8696 13.6926 12.1514C14.0234 11.4332 14.5593 10.9384 15.3014 10.666C15.3014 10.666 15.3014 10.666 15.3015 10.6659L29.9048 5.3965C29.9048 5.39649 29.9048 5.39649 29.9048 5.39649C30.6397 5.13205 31.3734 5.15937 32.1074 5.47889C32.8404 5.79816 33.3374 6.32942 33.5998 7.07378L33.5999 7.07414L42.6728 31.6043C42.6728 31.6044 42.6728 31.6044 42.6728 31.6045C42.9373 32.3524 42.9072 33.0815 42.5826 33.7931C42.258 34.5048 41.7356 35.0028 41.0145 35.2881C41.0144 35.2881 41.0143 35.2882 41.0142 35.2882L26.2804 40.5684ZM31.7485 21.5605L29.974 28.0285L24.4332 24.2319L26.2077 17.7634L31.7485 21.5605Z" fill="url(#paint0_linear_2627_6900)" stroke="url(#paint1_linear_2627_6900)" stroke-width="0.05"/>
</g>
</g>
<defs>
<linearGradient id="paint0_linear_2627_6900" x1="23.9565" y1="5.19177" x2="23.9565" y2="42.419" gradientUnits="userSpaceOnUse">
<stop stop-color="#F26A1B"/>
<stop offset="1" stop-color="#F7B690"/>
</linearGradient>
<linearGradient id="paint1_linear_2627_6900" x1="23.9565" y1="5.19177" x2="23.9565" y2="42.419" gradientUnits="userSpaceOnUse">
<stop stop-color="#F26A1B"/>
<stop offset="1" stop-color="#F7B690"/>
</linearGradient>
</defs>
</svg>
