<svg width="48" height="48" viewBox="0 0 48 48" fill="none" xmlns="http://www.w3.org/2000/svg">
<g id="psychology">
<mask id="mask0_2600_5465" style="mask-type:alpha" maskUnits="userSpaceOnUse" x="0" y="0" width="48" height="48">
<rect id="Bounding box" width="48" height="48" fill="#D9D9D9"/>
</mask>
<g mask="url(#mask0_2600_5465)">
<path id="psychology_2" d="M15.2445 42.975V33.9452L14.206 32.9588C14.2059 32.9588 14.2059 32.9587 14.2059 32.9587C12.6303 31.4942 11.4093 29.8149 10.5433 27.9209L10.566 27.9105L10.5433 27.9209C9.67741 26.0262 9.2445 24.0179 9.2445 21.896C9.2445 17.8078 10.6791 14.3432 13.5479 11.5037C16.4167 8.66435 19.9012 7.2445 24 7.2445C27.3617 7.2445 30.376 8.24556 33.042 10.2475C35.7079 12.2496 37.4355 14.8512 38.2243 18.0515L15.2445 42.975ZM15.2445 42.975H13.025V34.9385V34.9275L13.0168 34.92C11.1192 33.1888 9.64619 31.205 8.59764 28.9684C7.54916 26.7316 7.025 24.4042 7.025 21.986C7.025 17.2742 8.67525 13.2701 11.9762 9.97219C15.2768 6.67393 19.2842 5.025 24 5.025C27.8793 5.025 31.3476 6.18425 34.4059 8.50292C37.4644 10.8212 39.4503 13.8284 40.3642 17.5255L40.3643 17.5256L42.8123 27.2316L42.8123 27.2317C42.9271 27.6791 42.8466 28.0807 42.5707 28.4387C42.2948 28.7962 41.9183 28.975 41.4385 28.975H37H36.975V29V36.1155C36.975 36.892 36.6928 37.5622 36.1273 38.1273L36.145 38.145M15.2445 42.975L36.145 38.145M36.145 38.145L36.1273 38.1273C35.5622 38.6928 34.892 38.975 34.1155 38.975H29H28.975V39V42.975M36.145 38.145L28.975 42.975M28.975 42.975H26.7555V36.7555H34.1155C34.3007 36.7555 34.4547 36.6957 34.5752 36.5752C34.6957 36.4547 34.7555 36.3007 34.7555 36.1155V26.7555H40.354H40.386L40.3783 26.7245L38.2243 18.0515L28.975 42.975ZM25.269 27.0943L25.2492 27.0975L25.248 27.1176L25.1379 29.044H22.8006L22.6905 27.1176L22.6893 27.0975L22.6694 27.0943C22.1697 27.0154 21.7011 26.8501 21.2635 26.5983C20.8257 26.3463 20.4494 26.0413 20.1343 25.6835L20.1227 25.6704L20.1065 25.6767L18.3149 26.369L17.2249 24.4871L18.5731 23.4156L18.5876 23.404L18.5807 23.3867C18.3642 22.8463 18.256 22.2871 18.256 21.709C18.256 21.1309 18.3642 20.5695 18.5807 20.0247L18.5876 20.0075L18.5731 19.9959L17.2249 18.9249L18.3149 17.0425L20.1065 17.7348L20.1221 17.7408L20.1336 17.7287C20.4607 17.3847 20.8453 17.0914 21.2875 16.8489C21.7301 16.6064 22.1911 16.4355 22.6706 16.336L22.6894 16.3321L22.6905 16.3129L22.8006 14.3675H25.1379L25.248 16.3129L25.2491 16.332L25.2678 16.336C25.7346 16.4354 26.1892 16.6064 26.6315 16.8489L26.6435 16.827L26.6315 16.8489C27.074 17.0914 27.4588 17.3847 27.7859 17.7287L27.7974 17.7408L27.813 17.7348L29.6047 17.0425L30.7134 18.9249L29.365 19.9959L29.3507 20.0073L29.3571 20.0243C29.5614 20.5652 29.6635 21.1245 29.6635 21.7025C29.6635 22.2808 29.5614 22.8423 29.3571 23.3872L29.3507 23.4043L29.3649 23.4156L30.7134 24.487L29.6047 26.369L27.813 25.6767L27.7968 25.6704L27.7852 25.6835C27.4701 26.0413 27.0936 26.3463 26.6555 26.5983C26.2178 26.8502 25.7556 27.0155 25.269 27.0943ZM21.3033 24.3771L21.321 24.3595L21.3033 24.3771C22.0301 25.1063 22.9209 25.471 23.974 25.471C25.0156 25.471 25.9018 25.1044 26.6312 24.3716L26.6135 24.354L26.6312 24.3716C27.3603 23.6385 27.725 22.7478 27.725 21.701C27.725 20.6541 27.3582 19.7682 26.6251 19.0447C25.8923 18.3213 25.0018 17.9595 23.955 17.9595C22.9082 17.9595 22.0223 18.323 21.2988 19.0499C20.5753 19.7764 20.2135 20.6669 20.2135 21.72C20.2135 22.7615 20.5769 23.6477 21.3033 24.3771Z" fill="url(#paint0_linear_2600_5465)" stroke="url(#paint1_linear_2600_5465)" stroke-width="0.05"/>
</g>
</g>
<defs>
<linearGradient id="paint0_linear_2600_5465" x1="24.9439" y1="5" x2="24.9439" y2="43" gradientUnits="userSpaceOnUse">
<stop stop-color="#F26A1B"/>
<stop offset="1" stop-color="#F7B690"/>
</linearGradient>
<linearGradient id="paint1_linear_2600_5465" x1="24.9439" y1="5" x2="24.9439" y2="43" gradientUnits="userSpaceOnUse">
<stop stop-color="#F26A1B"/>
<stop offset="1" stop-color="#F7B690"/>
</linearGradient>
</defs>
</svg>
