<svg width="56" height="56" viewBox="0 0 56 56" fill="none" xmlns="http://www.w3.org/2000/svg">
<g id="search_insights">
<mask id="mask0_2589_7190" style="mask-type:alpha" maskUnits="userSpaceOnUse" x="0" y="0" width="56" height="56">
<rect id="Bounding box" width="56" height="56" fill="#D9D9D9"/>
</mask>
<g mask="url(#mask0_2589_7190)">
<path id="search_insights_2" d="M48.3216 50.1311L34.7928 36.5661L34.7764 36.5497L34.7587 36.5648C33.2214 37.8883 31.4783 38.9265 29.5295 39.6796C27.581 40.4321 25.5156 40.8084 23.333 40.8084C18.4866 40.8084 14.3692 39.1063 10.9794 35.7016C7.58907 32.297 5.89414 28.1697 5.89414 23.3182C5.89414 18.4219 7.58466 14.2884 10.9659 10.9162C14.3475 7.54422 18.4739 5.85837 23.3464 5.85837C28.2068 5.85837 32.3377 7.5475 35.7404 10.9261C39.1426 14.3043 40.8436 18.4275 40.8436 23.2972C40.8436 25.4732 40.4725 27.5325 39.7305 29.4751C38.9879 31.4176 37.9447 33.1594 36.6007 34.7007L36.5854 34.7183L36.6019 34.7348L50.1312 48.2641L48.3216 50.1311ZM23.3365 38.2555C27.4661 38.2555 30.9839 36.8006 33.8886 33.8913C36.7936 30.9816 38.2464 27.4573 38.2464 23.32C38.2464 19.1915 36.7936 15.6814 33.8885 12.7912C30.9839 9.90128 27.466 8.45612 23.3365 8.45612C19.2069 8.45612 15.6997 9.90129 12.8164 12.7912C9.93315 15.6815 8.49131 19.1916 8.49131 23.32C8.49131 27.4573 9.9347 30.9815 12.8211 33.8912C15.7075 36.8006 19.2131 38.2555 23.3365 38.2555ZM22.07 29.5051V14.9671H24.6677V29.5051H22.07ZM13.8811 29.5051V19.6519H16.4783V29.5051H13.8811ZM30.2816 29.5051V21.9986H32.8793V29.5051H30.2816Z" fill="url(#paint0_linear_2589_7190)" stroke="url(#paint1_linear_2589_7190)" stroke-width="0.05"/>
</g>
</g>
<defs>
<linearGradient id="paint0_linear_2589_7190" x1="28.0177" y1="5.83337" x2="28.0177" y2="50.1667" gradientUnits="userSpaceOnUse">
<stop stop-color="#F26A1B"/>
<stop offset="1" stop-color="#F7B690"/>
</linearGradient>
<linearGradient id="paint1_linear_2589_7190" x1="28.0177" y1="5.83337" x2="28.0177" y2="50.1667" gradientUnits="userSpaceOnUse">
<stop stop-color="#F26A1B"/>
<stop offset="1" stop-color="#F7B690"/>
</linearGradient>
</defs>
</svg>
