<svg width="49" height="48" viewBox="0 0 49 48" fill="none" xmlns="http://www.w3.org/2000/svg">
<g id="settings_account_box">
<mask id="mask0_2627_6942" style="mask-type:alpha" maskUnits="userSpaceOnUse" x="0" y="0" width="49" height="48">
<rect id="Bounding box" x="0.333984" width="48" height="48" fill="#D9D9D9"/>
</mask>
<g mask="url(#mask0_2627_6942)">
<path id="settings_account_box_2" d="M10.5575 25.1672C10.5282 24.7524 10.5135 24.3697 10.5135 24.019C10.5135 23.6814 10.5282 23.3051 10.5575 22.8903C10.5871 22.4757 10.6352 22.0739 10.7017 21.6847L10.7043 21.6695L10.6919 21.6604L5.65576 17.9356L9.62951 10.9666L15.1818 13.4653L15.1959 13.4716L15.2078 13.4619C15.817 12.9652 16.5032 12.4979 17.2665 12.0602C18.0292 11.6226 18.7581 11.2978 19.4534 11.0854L19.4684 11.0808L19.4708 11.0653L20.3905 5.025H28.2785L29.1788 11.0347L29.181 11.0493L29.1949 11.0545C29.9297 11.3257 30.6645 11.6623 31.3995 12.0644L31.4115 12.0425L31.3995 12.0644C32.1336 12.4659 32.7948 12.9314 33.3833 13.4611L33.3954 13.4719L33.4102 13.4654L39.0585 10.9665L43.0134 17.9357L37.8041 21.826L37.794 21.8335V21.846C37.794 21.886 37.7948 21.9165 37.7965 21.9371C37.7973 21.9472 37.7984 21.9562 37.8001 21.963C37.8009 21.966 37.8022 21.9706 37.8049 21.975H35.6364C35.6041 21.7746 35.5719 21.5791 35.5397 21.3883C35.5071 21.1951 35.4649 20.9972 35.413 20.7946L40.0609 17.3546L40.0787 17.3414L40.0678 17.3222L38.0678 13.7802L38.0568 13.7607L38.0362 13.7695L32.7717 16.0239C32.07 15.2378 31.2246 14.5445 30.236 13.9441C29.247 13.3435 28.2283 12.9712 27.18 12.8278L26.5019 7.26647L26.4992 7.2445H26.477H22.192H22.1698L22.1672 7.26655L21.5079 12.81C20.4045 13.0314 19.3881 13.4086 18.4586 13.9418C17.529 14.4751 16.6626 15.1628 15.8594 16.0047L10.6329 13.7695L10.6123 13.7607L10.6013 13.7802L8.60128 17.3222L8.59037 17.3415L8.60826 17.3547L13.2174 20.737C13.0733 21.2606 12.9631 21.792 12.8868 22.331C12.8096 22.8759 12.771 23.4386 12.771 24.019C12.771 24.5742 12.8096 25.1177 12.8868 25.6496C12.9632 26.1761 13.0672 26.7075 13.1988 27.2438L8.60816 30.6454L8.59042 30.6586L8.60128 30.6778L10.6013 34.2198L10.6123 34.2393L10.6329 34.2305L15.8402 31.9952C16.6803 32.8454 17.6445 33.5486 18.7327 34.1048C19.8197 34.6604 20.9645 35.0718 22.167 35.3391V42.975H20.3906L19.4903 36.9848L19.488 36.9697L19.4736 36.9648C18.7907 36.7321 18.055 36.3936 17.2663 35.9492L17.254 35.971L17.2663 35.9492C16.4775 35.5052 15.7981 35.035 15.228 34.5386L15.2158 34.5281L15.2012 34.5347L9.62953 37.0718L5.65572 30.0455M10.5575 25.1672L10.5325 25.169L10.5575 25.1672C10.5575 25.1672 10.5575 25.1672 10.5575 25.1672ZM10.5575 25.1672C10.5871 25.5821 10.6352 25.9646 10.7016 26.3148L10.7045 26.3303L10.6919 26.3396L5.65572 30.0455M5.65572 30.0455L5.64481 30.0262L5.62305 30.0385L5.63786 30.0586L5.65572 30.0455ZM29.2055 42.192V42.217H29.2305H42.3845H42.4095V42.192V40.7075V40.6988L42.4042 40.692C41.5993 39.6739 40.6273 38.8767 39.4883 38.3007C38.3487 37.7245 37.1217 37.4365 35.8075 37.4365C34.4808 37.4365 33.2474 37.7245 32.1078 38.3007C30.9688 38.8767 30.0031 39.6739 29.2108 40.6922L29.2055 40.6989V40.7075V42.192ZM33.8188 30.8669L33.8365 30.8845L33.8188 30.8669C33.2821 31.4104 33.0135 32.0705 33.0135 32.846C33.0135 33.6218 33.2821 34.282 33.8188 34.8251C34.3556 35.3687 35.0191 35.6405 35.8075 35.6405C36.5834 35.6405 37.2437 35.3686 37.7867 34.8252C38.3301 34.2821 38.602 33.6219 38.602 32.846C38.602 32.0704 38.3301 31.4102 37.7867 30.8668C37.2436 30.3237 36.5834 30.052 35.8075 30.052C35.0191 30.052 34.3556 30.3237 33.8188 30.8669ZM27.4909 19.4202C28.4271 20.0999 29.0923 20.9705 29.4872 22.0325H28.75C28.4872 22.0325 28.2195 22.0506 27.9468 22.0867C27.6805 22.122 27.4253 22.1719 27.1811 22.2364C26.8798 21.7199 26.4727 21.3202 25.9601 21.0376C25.4423 20.7522 24.8812 20.6095 24.277 20.6095C23.3421 20.6095 22.5427 20.941 21.8804 21.6033C21.218 22.2657 20.8865 23.065 20.8865 24C20.8865 24.5834 21.0241 25.1405 21.2988 25.671C21.5712 26.1967 21.9522 26.5982 22.4417 26.8748C22.389 27.222 22.3398 27.6019 22.2942 28.0148L22.2942 28.0148C22.2494 28.4226 22.2203 28.8337 22.2067 29.2478C21.165 28.8205 20.3165 28.1474 19.6609 27.228C18.9988 26.2992 18.6675 25.2235 18.6675 24C18.6675 22.4372 19.2148 21.1123 20.3097 20.0237C21.405 18.9347 22.727 18.3905 24.277 18.3905C25.4742 18.3905 26.5452 18.7337 27.4909 19.4202ZM27.3928 27.2101L27.375 27.1925L27.3928 27.2101C27.92 26.6763 28.5705 26.4095 29.346 26.4095H42.269C43.0318 26.4095 43.6793 26.6763 44.2129 27.2102L44.2305 27.1925L44.2129 27.2102C44.7468 27.7438 45.0135 28.3912 45.0135 29.154V42.077C45.0135 42.8394 44.7468 43.4869 44.2129 44.0208C43.6793 44.5544 43.0318 44.821 42.269 44.821H29.346C28.5705 44.821 27.92 44.5543 27.3928 44.0209C26.8655 43.487 26.602 42.8395 26.602 42.077V29.154C26.602 28.3911 26.8655 27.7436 27.3928 27.2101Z" fill="url(#paint0_linear_2627_6942)" stroke="url(#paint1_linear_2627_6942)" stroke-width="0.05"/>
</g>
</g>
<defs>
<linearGradient id="paint0_linear_2627_6942" x1="25.3308" y1="5" x2="25.3308" y2="44.846" gradientUnits="userSpaceOnUse">
<stop stop-color="#F26A1B"/>
<stop offset="1" stop-color="#F7B690"/>
</linearGradient>
<linearGradient id="paint1_linear_2627_6942" x1="25.3308" y1="5" x2="25.3308" y2="44.846" gradientUnits="userSpaceOnUse">
<stop stop-color="#F26A1B"/>
<stop offset="1" stop-color="#F7B690"/>
</linearGradient>
</defs>
</svg>
