<svg width="49" height="48" viewBox="0 0 49 48" fill="none" xmlns="http://www.w3.org/2000/svg">
<g id="tabs">
<mask id="mask0_2627_6912" style="mask-type:alpha" maskUnits="userSpaceOnUse" x="0" y="0" width="49" height="48">
<rect id="Bounding box" x="0.666016" width="48" height="48" fill="#D9D9D9"/>
</mask>
<g mask="url(#mask0_2627_6912)">
<path id="tabs_2" d="M39.2222 38.5562L39.2222 38.5562C39.354 38.424 39.4215 38.277 39.4215 38.1155V22.9075V22.8825H39.3965H9.93552H9.91052V22.9075V38.1155C9.91052 38.277 9.97804 38.424 10.1098 38.5562L10.1099 38.5562C10.242 38.688 10.3891 38.7555 10.5505 38.7555H38.7815C38.943 38.7555 39.0901 38.688 39.2222 38.5562ZM9.91052 20.6385V20.6635H9.93552H39.3965H39.4215V20.6385V9.8845C39.4215 9.72304 39.354 9.57596 39.2222 9.44384L39.2222 9.4438C39.0901 9.31203 38.943 9.2445 38.7815 9.2445H10.5505C10.3891 9.2445 10.242 9.31203 10.1099 9.4438L10.1098 9.44384C9.97804 9.57596 9.91052 9.72304 9.91052 9.8845V20.6385ZM10.5505 40.975C9.77301 40.975 9.10248 40.6931 8.53769 40.1283C7.97291 39.5635 7.69102 38.893 7.69102 38.1155V9.8845C7.69102 9.10699 7.97291 8.43646 8.53769 7.87168C9.10248 7.30689 9.77301 7.025 10.5505 7.025H38.7815C39.559 7.025 40.2296 7.30689 40.7943 7.87168C41.3591 8.43646 41.641 9.10699 41.641 9.8845V38.1155C41.641 38.893 41.3591 39.5635 40.7943 40.1283C40.2296 40.6931 39.559 40.975 38.7815 40.975H10.5505ZM37.737 10.929V14.148H27.645V10.929H37.737Z" fill="url(#paint0_linear_2627_6912)" stroke="url(#paint1_linear_2627_6912)" stroke-width="0.05"/>
</g>
</g>
<defs>
<linearGradient id="paint0_linear_2627_6912" x1="24.666" y1="7" x2="24.666" y2="41" gradientUnits="userSpaceOnUse">
<stop stop-color="#F26A1B"/>
<stop offset="1" stop-color="#F7B690"/>
</linearGradient>
<linearGradient id="paint1_linear_2627_6912" x1="24.666" y1="7" x2="24.666" y2="41" gradientUnits="userSpaceOnUse">
<stop stop-color="#F26A1B"/>
<stop offset="1" stop-color="#F7B690"/>
</linearGradient>
</defs>
</svg>
